<?xml version="1.0" encoding="UTF-8" standalone="no"?>
<svg
   xmlns:dc="http://purl.org/dc/elements/1.1/"
   xmlns:cc="http://creativecommons.org/ns#"
   xmlns:rdf="http://www.w3.org/1999/02/22-rdf-syntax-ns#"
   xmlns:svg="http://www.w3.org/2000/svg"
   xmlns="http://www.w3.org/2000/svg"
   id="svg708"
   version="1.1"
   viewBox="0 0 28.930054 36.043559"
   height="36.043556mm"
   width="28.930054mm">
  <defs
     id="defs702" />
  <metadata
     id="metadata705">
    <rdf:RDF>
      <cc:Work
         rdf:about="">
        <dc:format>image/svg+xml</dc:format>
        <dc:type
           rdf:resource="http://purl.org/dc/dcmitype/StillImage" />
        <dc:title></dc:title>
      </cc:Work>
    </rdf:RDF>
  </metadata>
  <g
     transform="translate(98.317196,-264.96073)"
     id="layer1">
    <g
       transform="matrix(0.26458333,0,0,0.26458333,-229.69098,-37.642014)"
       className="alien"
       style="fill:#ffffff"
       id="g632">
      <path
         d="m 605.53,1204.6 c 0.55,-5.56 0.42,-11.13 -0.26,-16.66 -1.33,-10.72 -6.16,-20.97 -14.08,-28.37 -4.37,-4.09 -9.37,-7.26 -14.77,-9.81 -4.49,-2.12 -9.13,-3.59 -13.94,-4.61 -0.99,-0.21 -1.98,-0.4 -2.99,-0.57 -10.98,-1.92 -22.92,-0.82 -32.9,4.34 -1.29,0.67 -2.11,1.94 -2.32,3.3 -9.31,6.96 -17.11,15.76 -22.05,26.36 -4.43,9.51 -6.27,20.05 -5.53,30.51 0.75,10.75 4.09,21.14 9.38,30.52 5.61,9.95 13.39,18.52 22.34,25.56 4.28,3.37 8.78,6.53 13.53,9.19 3.74,2.11 7.75,3.92 11.96,4.86 3.79,0.84 7.66,1 11.46,0.08 3.76,-0.9 7.09,-2.86 10.05,-5.3 3.25,-2.65 5.89,-6.12 8.26,-9.57 2.92,-4.26 5.36,-8.87 7.67,-13.5 4.79,-9.61 8.67,-19.7 11.32,-30.09 1.35,-5.33 2.34,-10.77 2.87,-16.24 z m -20.65,36.88 c -3.5,7.3 -7.39,14.65 -12.53,20.94 -1.53,1.74 -3.17,3.35 -5.02,4.74 -1.09,0.71 -2.22,1.34 -3.43,1.84 -1.03,0.33 -2.07,0.56 -3.15,0.71 -1.43,0.06 -2.84,-0.02 -4.26,-0.23 -2.83,-0.6 -5.54,-1.62 -8.18,-2.83 -6.69,-3.28 -13.01,-7.47 -18.77,-12.18 -4.93,-4.21 -9.33,-8.96 -13.13,-14.22 -3.43,-4.99 -6.27,-10.31 -8.43,-15.97 -1.8,-5.02 -3.03,-10.21 -3.6,-15.51 -0.4,-4.78 -0.22,-9.56 0.53,-14.29 0.88,-4.76 2.35,-9.35 4.37,-13.75 2.15,-4.33 4.77,-8.35 7.82,-12.09 3.67,-4.29 7.82,-8.06 12.35,-11.42 0.45,-0.07 0.9,-0.2 1.33,-0.4 0.51,-0.23 1.03,-0.45 1.55,-0.67 3.24,-1.15 6.6,-1.87 10.02,-2.26 4.69,-0.35 9.34,-0.12 13.98,0.63 5.64,1.09 11.11,2.8 16.32,5.2 3.66,1.83 7.12,3.99 10.31,6.58 2.21,1.95 4.21,4.08 5.98,6.44 1.73,2.57 3.17,5.3 4.3,8.19 1.33,3.84 2.13,7.81 2.54,11.86 0.44,6.35 -0.04,12.68 -1.1,18.96 -1.93,10.31 -5.36,20.25 -9.8,29.73 z"
         id="path624" />
      <path
         d="m 583.19,1186.9 c -0.77,-0.57 -1.6,-0.93 -2.47,-1.11 -2.7,-0.57 -5.72,0.5 -8.06,1.82 -3.4,1.92 -5.96,5.08 -8.02,8.31 -2.29,3.59 -4,7.58 -5.41,11.58 -1.25,3.6 -2.17,7.28 -2.83,11.03 -0.02,0.12 -0.04,0.24 -0.06,0.35 -0.09,0.58 0.23,1.27 0.61,1.67 0.12,0.13 0.25,0.25 0.4,0.34 0.07,0.55 0.29,1.06 0.7,1.52 0.67,0.72 1.79,1.13 2.78,0.86 3.91,-1.11 7.35,-3.35 10.56,-5.8 3.56,-2.73 6.68,-6 9.41,-9.53 2.37,-3.05 4.33,-6.58 5.02,-10.4 0.66,-3.61 0.64,-8.21 -2.63,-10.64 z"
         id="path626" />
      <path
         d="m 540.81,1211.76 c -1.35,-3.05 -2.92,-5.99 -4.65,-8.85 -1.84,-3.03 -3.92,-5.98 -6.31,-8.61 -2.15,-2.37 -4.66,-4.38 -7.61,-5.66 -0.59,-0.26 -1.22,-0.45 -1.86,-0.59 -0.68,-0.14 -1.38,-0.22 -2.05,-0.24 -1.64,-0.06 -3.19,0.38 -4.68,1.05 -1.27,0.57 -2.47,1.52 -3.39,2.55 -1.04,1.15 -1.82,2.45 -2.24,3.94 -0.81,2.9 -0.14,5.85 1.01,8.53 0.51,1.25 1.24,2.42 2,3.52 1.01,1.48 2.12,2.88 3.32,4.19 1.91,2.08 4.06,3.95 6.29,5.66 2.07,1.6 4.27,3.03 6.59,4.24 2.14,1.13 4.41,2.11 6.77,2.67 2.08,0.49 4.32,0.72 6.41,0.15 1.5,-0.41 2.58,-1.69 2.65,-3.19 0.43,-0.64 0.61,-1.46 0.41,-2.22 -0.65,-2.44 -1.62,-4.81 -2.66,-7.14 z"
         id="path628" />
      <path
         d="m 560.2,1245.1 c -0.38,-0.4 -0.87,-0.67 -1.4,-0.79 -0.13,-0.03 -0.27,-0.05 -0.4,-0.05 -1.35,-0.06 -2.7,1.08 -2.69,2.48 0.02,1.2 -0.03,2.37 -0.21,3.56 -0.11,0.47 -0.25,0.93 -0.43,1.38 -0.11,0.18 -0.22,0.35 -0.33,0.52 -0.05,0.05 -0.1,0.1 -0.15,0.14 -0.04,0.02 -0.09,0.05 -0.13,0.07 -0.03,0.01 -0.06,0.01 -0.09,0.02 -0.09,0 -0.18,-0.01 -0.27,-0.01 -0.23,-0.06 -0.45,-0.14 -0.68,-0.22 -0.48,-0.26 -0.91,-0.56 -1.33,-0.89 -0.8,-0.74 -1.5,-1.55 -2.16,-2.43 -0.1,-0.15 -0.2,-0.3 -0.29,-0.45 -0.38,-0.57 -0.78,-1 -1.46,-1.23 -0.64,-0.2 -1.36,-0.14 -1.96,0.18 -1.12,0.6 -1.81,2.27 -1.04,3.41 0.7,1.08 1.46,2.13 2.31,3.08 0.73,0.83 1.58,1.54 2.47,2.19 1.52,1.12 3.49,1.75 5.36,1.47 1.8,-0.26 3.24,-1.46 4.16,-2.98 0.56,-0.89 0.88,-1.92 1.1,-2.94 0.33,-1.55 0.4,-3.09 0.33,-4.65 -0.07,-0.7 -0.21,-1.31 -0.71,-1.86 z"
         id="path630" />
    </g>
  </g>
</svg>
