<?xml version="1.0" encoding="UTF-8" standalone="no"?>
<svg
   xmlns:dc="http://purl.org/dc/elements/1.1/"
   xmlns:cc="http://creativecommons.org/ns#"
   xmlns:rdf="http://www.w3.org/1999/02/22-rdf-syntax-ns#"
   xmlns:svg="http://www.w3.org/2000/svg"
   xmlns="http://www.w3.org/2000/svg"
   id="svg708"
   version="1.1"
   viewBox="0 0 27.280987 48.588535"
   height="48.588535mm"
   width="27.280987mm">
  <defs
     id="defs702" />
  <metadata
     id="metadata705">
    <rdf:RDF>
      <cc:Work
         rdf:about="">
        <dc:format>image/svg+xml</dc:format>
        <dc:type
           rdf:resource="http://purl.org/dc/dcmitype/StillImage" />
        <dc:title></dc:title>
      </cc:Work>
    </rdf:RDF>
  </metadata>
  <g
     transform="translate(30.739246,-71.347856)"
     id="layer1">
    <g
       transform="matrix(0.26458333,0,0,0.26458333,-288.57764,21.70144)"
       className="arrow1"
       style="fill:#ff0000"
       id="g464">
      <path
         d="m 1003.44,263.84 c 0,-0.01 -0.01,-0.01 0,0 0,0.01 0.02,0.02 0.03,0.04 -0.01,-0.02 -0.02,-0.03 -0.03,-0.04 z"
         id="path460" />
      <path
         d="m 1077.36,352.52 c -0.26,-1.77 -0.82,-3.48 -1.45,-5.14 -0.84,-2.21 -1.82,-4.36 -2.88,-6.48 -2.27,-4.51 -4.91,-8.83 -7.61,-13.1 -2.64,-4.17 -5.41,-8.26 -8.14,-12.37 -1.94,-2.91 -3.96,-5.81 -5.62,-8.9 -2.23,-4.09 -4.24,-8.3 -6.3,-12.48 -2.24,-4.56 -4.48,-9.1 -6.82,-13.6 -4.06,-7.84 -8.47,-15.54 -13.76,-22.61 9.93,-4.12 20.08,-7.68 30.38,-10.74 0.93,-0.28 1.68,-0.99 1.94,-1.94 0.14,-0.5 0.14,-0.99 0,-1.48 -0.13,-0.47 -0.37,-0.88 -0.72,-1.22 -3.87,-4.95 -7.92,-9.76 -12.02,-14.5 -6.11,-7.06 -12.41,-13.95 -19.08,-20.48 -3.26,-3.19 -6.63,-6.29 -10.16,-9.21 -3.1,-2.58 -6.34,-5.05 -9.83,-7.1 -1.51,-0.89 -3.08,-1.65 -4.7,-2.31 -1.21,-0.5 -2.49,-0.88 -3.79,-1.07 -0.67,-0.09 -1.32,-0.15 -1.97,-0.15 -0.79,0 -1.57,0.08 -2.36,0.28 -0.63,0.16 -1.24,0.44 -1.81,0.75 -0.3,0.17 -0.57,0.38 -0.83,0.6 -1.8,0.33 -3.59,0.86 -4.98,2.1 -1.57,1.41 -2.26,3.41 -2.82,5.37 -0.5,1.74 -0.92,3.51 -1.3,5.28 -0.21,0.14 -0.34,0.42 -0.31,0.66 0.01,0.11 0.06,0.21 0.12,0.3 -0.81,4 -1.39,8.05 -1.85,12.1 -0.35,3.08 -0.63,6.16 -0.92,9.26 -0.31,3.29 -0.64,6.58 -0.96,9.88 -0.66,6.69 -1.29,13.36 -1.71,20.06 -0.14,2.27 -0.26,4.54 -0.34,6.81 -0.08,2.24 -0.1,4.48 -0.19,6.72 -0.08,2.16 -0.1,4.33 0.04,6.49 0.07,1.07 0.2,2.14 0.47,3.17 0.13,0.49 0.28,0.95 0.47,1.41 0.22,0.53 0.55,1.02 0.91,1.48 0.25,0.32 0.64,0.49 1.03,0.48 0.65,0.77 1.85,1.14 2.72,0.53 2.96,-2.11 5.74,-4.43 8.46,-6.82 2.57,-2.25 5.13,-4.53 7.81,-6.65 2.59,8.11 6.94,15.49 10.2,23.32 1.18,2.91 2.13,5.91 3.13,8.9 1.06,3.17 2.15,6.34 3.26,9.51 2.21,6.3 4.56,12.57 7.06,18.76 2.35,5.84 4.47,11.78 6.84,17.61 1.18,2.91 2.43,5.8 3.79,8.63 1.27,2.64 2.66,5.21 4.15,7.73 1.31,2.21 2.79,4.41 4.81,6.02 0.5,0.39 1.01,0.76 1.55,1.08 0.56,0.33 1.17,0.58 1.76,0.82 1.45,0.58 3.01,0.78 4.56,0.91 3.5,0.3 7.07,-0.16 10.47,-1.03 1.28,-0.33 2.52,-0.76 3.75,-1.24 0.16,-0.02 0.31,-0.04 0.46,-0.06 1.49,-0.22 2.94,-0.68 4.34,-1.25 1.64,-0.66 3.2,-1.45 4.66,-2.46 1.25,-0.85 2.43,-1.84 3.44,-2.97 1.1,-1.23 1.9,-2.56 2.47,-4.1 0.31,-0.84 0.39,-1.8 0.43,-2.68 0.04,-0.95 -0.11,-1.93 -0.25,-2.88 z M 978,268.59 c -0.16,1.53 -0.31,3.06 -0.46,4.6 -0.02,-0.11 -0.04,-0.21 -0.06,-0.32 -0.37,-2.29 -0.49,-4.63 -0.48,-6.95 0,0.05 0,0.11 -0.01,0.16 0.03,-1.3 0.08,-2.61 0.14,-3.91 0.18,0.14 0.38,0.25 0.61,0.3 0.31,0.07 0.62,0.09 0.93,0.14 -0.22,1.99 -0.46,3.98 -0.67,5.98 z m -0.19,-17.4 c 0.27,0.14 0.54,0.27 0.83,0.38 0.42,0.16 0.86,0.25 1.31,0.31 -0.34,2.7 -0.66,5.41 -0.98,8.12 -0.28,-0.05 -0.57,-0.08 -0.85,-0.15 -0.08,-0.02 -0.16,-0.03 -0.23,-0.03 -0.24,0 -0.45,0.1 -0.65,0.23 0.05,-0.86 0.09,-1.73 0.14,-2.59 0.12,-2.09 0.27,-4.18 0.43,-6.27 z m 3.32,-8.58 c -0.03,0.15 -0.05,0.3 -0.06,0.45 -0.28,2.14 -0.54,4.28 -0.82,6.42 -0.13,-0.03 -0.27,-0.03 -0.39,-0.07 -0.44,-0.14 -0.86,-0.32 -1.27,-0.54 -0.07,-0.04 -0.14,-0.09 -0.21,-0.13 -0.12,-0.08 -0.25,-0.14 -0.37,-0.19 0.29,-3.59 0.62,-7.18 0.96,-10.77 0.32,0.05 0.64,0.12 0.96,0.14 0.61,0.05 1.22,0.02 1.82,-0.04 -0.2,1.59 -0.41,3.16 -0.62,4.73 z m 0.87,-6.59 c -0.04,0 -0.07,-0.01 -0.11,-0.01 -0.34,0.02 -0.68,0.03 -1.01,0.04 -0.58,-0.02 -1.16,-0.09 -1.73,-0.18 0.17,-1.76 0.33,-3.51 0.5,-5.27 0.18,-1.86 0.34,-3.71 0.51,-5.57 0.38,-0.13 0.76,-0.24 1.14,-0.35 0.75,-0.19 1.5,-0.36 2.25,-0.54 -0.5,3.96 -1.02,7.92 -1.55,11.88 z m 2.28,-17.36 c -0.17,1.33 -0.35,2.65 -0.52,3.97 -0.69,0.15 -1.38,0.3 -2.06,0.46 -0.47,0.11 -0.93,0.24 -1.39,0.38 0.29,-3.18 0.59,-6.35 0.96,-9.52 0.04,-0.37 0.09,-0.73 0.14,-1.1 1.21,0.05 2.42,-0.07 3.61,-0.29 -0.19,2.04 -0.49,4.07 -0.74,6.1 z m 1.21,-14.42 c -0.15,2.11 -0.23,4.23 -0.33,6.34 -0.01,0.26 -0.04,0.53 -0.06,0.79 -0.33,0.06 -0.65,0.14 -0.98,0.19 -0.47,0.08 -0.95,0.12 -1.43,0.16 -0.01,-0.02 -0.01,-0.04 -0.02,-0.06 -0.1,-0.26 -0.42,-0.39 -0.67,-0.28 -0.14,0.07 -0.28,0.12 -0.42,0.17 0.36,-2.81 0.8,-5.6 1.36,-8.38 0.46,-0.03 0.92,-0.03 1.37,-0.08 0.43,-0.04 0.86,-0.11 1.29,-0.18 -0.04,0.45 -0.08,0.89 -0.11,1.33 z m 0.05,-10.04 c 0.21,-0.33 0.45,-0.64 0.72,-0.93 0.29,-0.27 0.6,-0.51 0.93,-0.71 0.16,-0.08 0.33,-0.15 0.49,-0.22 -0.17,0.4 -0.33,0.8 -0.47,1.2 -0.38,1.04 -0.63,2.13 -0.84,3.21 -0.31,1.57 -0.51,3.16 -0.66,4.75 -0.4,0.06 -0.79,0.15 -1.19,0.2 -0.44,0.05 -0.88,0.09 -1.33,0.13 0.32,-1.49 0.68,-2.96 1.09,-4.43 -0.01,0.04 -0.02,0.08 -0.03,0.13 0.34,-1.16 0.7,-2.28 1.29,-3.33 z m 17.78,69.48 c 0.04,0.05 0.08,0.11 0.12,0.16 0.11,0.14 0.22,0.27 0.32,0.41 -0.1,-0.12 -0.2,-0.25 -0.29,-0.38 0.55,0.73 1.08,1.47 1.59,2.22 -0.42,0.63 -0.85,1.27 -1.29,1.9 -0.96,1.38 -1.95,2.75 -2.81,4.18 -0.05,-0.12 -0.1,-0.23 -0.15,-0.35 0.01,0.02 0.02,0.04 0.02,0.06 -0.76,-1.87 -1.44,-3.78 -2.01,-5.73 1.39,-0.98 2.8,-1.91 4.29,-2.74 0.1,0.13 0.21,0.26 0.31,0.39 -0.03,-0.02 -0.06,-0.07 -0.1,-0.12 z m -1.55,10.36 c 0.34,-0.03 0.66,-0.2 0.87,-0.51 0.43,-0.64 0.84,-1.29 1.25,-1.94 0.49,-0.75 0.99,-1.49 1.49,-2.23 0.31,-0.46 0.62,-0.93 0.93,-1.39 1.29,2.03 2.46,4.14 3.55,6.29 -0.62,0.81 -1.23,1.62 -1.85,2.43 -1.03,1.37 -2.04,2.76 -3.04,4.16 -1.02,-2.12 -2.04,-4.23 -3,-6.38 -0.08,-0.12 -0.14,-0.28 -0.2,-0.43 z m 12.72,23.15 c -0.65,0.92 -1.23,1.88 -1.78,2.87 -0.93,-2.76 -1.8,-5.54 -2.85,-8.27 1.22,-1.38 2.34,-2.86 3.46,-4.33 0.5,-0.64 1,-1.28 1.53,-1.91 1.02,2.59 1.97,5.2 2.89,7.83 -0.01,0.01 -0.03,0.01 -0.04,0.02 -1.21,1.13 -2.24,2.44 -3.21,3.79 z m -0.23,-13.07 c -0.21,0 -0.43,0.08 -0.58,0.24 -1.19,1.3 -2.24,2.72 -3.31,4.12 -0.4,0.51 -0.81,1.02 -1.23,1.52 -1.01,-2.43 -2.1,-4.83 -3.24,-7.2 1.12,-1.64 2.27,-3.26 3.45,-4.87 0.46,-0.63 0.92,-1.27 1.39,-1.89 0.89,1.83 1.72,3.69 2.52,5.55 0.35,0.84 0.69,1.69 1.03,2.53 -0.02,0 -0.02,0 -0.03,0 z m -0.68,18.47 c 0,-0.01 0.01,-0.01 0.01,-0.02 1.16,-2.23 2.49,-4.36 4.01,-6.37 0.26,-0.33 0.52,-0.65 0.78,-0.97 1.09,3.16 2.13,6.34 3.15,9.53 -1.81,2.24 -3.33,4.71 -4.64,7.29 -0.28,-0.79 -0.58,-1.57 -0.86,-2.37 -0.84,-2.36 -1.64,-4.73 -2.45,-7.09 z m 3.73,10.61 c 0.34,0.1 0.74,-0.01 0.91,-0.34 1.13,-2.21 2.41,-4.32 3.89,-6.31 0.71,2.24 1.42,4.48 2.13,6.72 0.4,1.25 0.81,2.5 1.22,3.76 -1.39,1.62 -2.69,3.3 -3.99,4.99 -0.19,0.25 -0.39,0.5 -0.59,0.74 -0.47,-1.21 -0.95,-2.43 -1.41,-3.65 -0.74,-1.95 -1.45,-3.93 -2.16,-5.91 z m 4.47,11.86 c 1.34,-1.71 2.63,-3.46 3.95,-5.19 0.15,-0.2 0.31,-0.38 0.46,-0.58 0.97,2.95 1.97,5.9 3.05,8.82 0.03,0.08 0.06,0.16 0.09,0.24 -1.46,1.77 -2.81,3.63 -4.1,5.53 -0.7,-1.83 -1.41,-3.66 -2.13,-5.49 -0.44,-1.11 -0.88,-2.22 -1.32,-3.33 z m 4.23,10.86 c 1.12,-1.66 2.27,-3.29 3.48,-4.88 -0.02,0.03 -0.04,0.06 -0.06,0.09 0.21,-0.28 0.44,-0.54 0.66,-0.82 0.62,1.58 1.26,3.16 1.94,4.72 0.86,1.96 1.79,3.9 2.66,5.87 -1.36,1.67 -2.52,3.5 -3.81,5.22 -0.19,0.24 -0.38,0.47 -0.58,0.7 -0.12,-0.29 -0.25,-0.59 -0.37,-0.88 -1.36,-3.32 -2.64,-6.67 -3.92,-10.02 z m 8.7,20.35 c -1.35,-2.56 -2.57,-5.18 -3.72,-7.83 0.74,-0.82 1.42,-1.69 2.06,-2.59 0.79,-1.11 1.53,-2.26 2.33,-3.35 1.5,3.63 2.9,7.32 4.55,10.88 -0.64,0.68 -1.27,1.36 -1.9,2.04 -0.8,0.88 -1.54,1.83 -2.22,2.81 -0.36,-0.65 -0.74,-1.3 -1.1,-1.96 z m 6.87,9.98 c -0.83,-0.68 -1.56,-1.45 -2.23,-2.29 -0.79,-1.04 -1.48,-2.15 -2.14,-3.27 -0.12,-0.2 -0.22,-0.4 -0.34,-0.6 0.32,-0.5 0.65,-0.99 1.01,-1.46 0.93,-1.19 1.94,-2.3 2.95,-3.41 0.42,0.83 0.84,1.66 1.3,2.47 1.03,1.82 2.24,3.57 3.64,5.15 -0.16,0.27 -0.31,0.54 -0.47,0.81 -0.67,1.12 -1.31,2.27 -1.82,3.47 -0.03,0.07 -0.05,0.14 -0.07,0.21 -0.64,-0.3 -1.26,-0.66 -1.83,-1.08 z m 4.73,1.96 c -0.42,-0.07 -0.84,-0.16 -1.25,-0.27 0.57,-1.3 1.29,-2.52 2,-3.75 1.82,1.74 3.95,3.01 6.28,3.94 -0.17,0.03 -0.34,0.06 -0.51,0.08 -2.17,0.24 -4.35,0.28 -6.52,0 z m 25.04,-12.5 c -0.06,0.29 -0.14,0.57 -0.24,0.84 -0.22,0.43 -0.47,0.84 -0.75,1.24 -0.62,0.73 -1.3,1.38 -2.04,1.99 -1.27,0.92 -2.62,1.7 -4.06,2.33 -1.23,0.47 -2.49,0.84 -3.79,1.06 -1.16,0.12 -2.31,0.11 -3.47,-0.01 -1.06,-0.17 -2.11,-0.43 -3.11,-0.82 -0.79,-0.37 -1.53,-0.82 -2.23,-1.33 -1.02,-0.83 -1.92,-1.77 -2.75,-2.79 -2.44,-3.25 -4.14,-6.99 -5.71,-10.72 -1.15,-2.77 -2.26,-5.57 -3.43,-8.33 -1.12,-2.64 -2.4,-5.2 -3.52,-7.84 -1.93,-4.66 -3.54,-9.45 -5.07,-14.25 -1.79,-5.63 -3.48,-11.29 -5.22,-16.94 -1.76,-5.7 -3.59,-11.39 -5.7,-16.97 -1.98,-5.26 -4.17,-10.49 -7.02,-15.35 -0.99,-1.69 -2.08,-3.32 -3.27,-4.89 -1.33,-1.74 -2.72,-3.43 -4.48,-4.76 -0.41,-0.24 -0.85,-0.36 -1.33,-0.36 -0.69,0 -1.37,0.28 -1.86,0.77 -0.23,0.23 -0.41,0.5 -0.55,0.81 -7.56,4.01 -13.49,10.23 -20.08,15.57 0.25,-2.64 0.51,-5.27 0.8,-7.91 0.46,-4.16 0.96,-8.32 1.48,-12.48 0.25,-2 0.51,-4 0.77,-5.99 0.13,-1 0.27,-2 0.39,-3 0.07,-0.51 0.14,-1 0.2,-1.5 0.03,-0.21 0.06,-0.41 0.08,-0.6 0.14,-0.58 0.17,-1.22 0.25,-1.81 1.12,-8.34 2.29,-16.68 3.38,-25.03 0.3,-2.32 0.59,-4.61 0.72,-6.94 0.12,-2.22 0.23,-4.44 0.44,-6.65 0.07,-0.77 0.15,-1.53 0.25,-2.29 0.29,-2.09 0.67,-4.19 1.43,-6.17 0.19,-0.42 0.41,-0.83 0.67,-1.21 0.09,-0.1 0.19,-0.2 0.29,-0.3 0.07,-0.04 0.13,-0.08 0.2,-0.12 0.33,-0.11 0.66,-0.2 1,-0.27 0.52,-0.04 1.04,-0.03 1.55,0.02 1.15,0.19 2.26,0.54 3.35,0.97 3.6,1.56 6.86,3.84 9.95,6.22 7.09,5.55 13.52,11.97 19.69,18.51 5.98,6.36 11.71,12.94 17.27,19.65 1.32,1.6 2.63,3.2 3.92,4.82 -10.22,3.18 -20.19,7.05 -30.12,11.07 -0.71,0.29 -1.27,0.6 -1.67,1.29 -0.46,0.78 -0.59,2.06 0,2.82 4.49,5.86 8.41,12.09 11.99,18.55 3.61,6.53 6.85,13.26 10.12,19.96 1.62,3.32 3.25,6.65 4.91,9.94 0.91,1.79 1.82,3.57 2.86,5.28 2.13,3.51 4.45,6.91 6.71,10.34 2.81,4.27 5.59,8.57 8.23,12.95 2.4,3.99 4.69,8.08 6.55,12.35 0.86,2.09 1.63,4.24 1.99,6.48 0.05,0.64 0.07,1.22 0.03,1.8 z"
         id="path462" />
    </g>
  </g>
</svg>
