<?xml version="1.0" encoding="UTF-8" standalone="no"?>
<svg
   xmlns:dc="http://purl.org/dc/elements/1.1/"
   xmlns:cc="http://creativecommons.org/ns#"
   xmlns:rdf="http://www.w3.org/1999/02/22-rdf-syntax-ns#"
   xmlns:svg="http://www.w3.org/2000/svg"
   xmlns="http://www.w3.org/2000/svg"
   id="svg708"
   version="1.1"
   viewBox="0 0 31.956896 33.232899"
   height="33.232899mm"
   width="31.956896mm">
  <defs
     id="defs702" />
  <metadata
     id="metadata705">
    <rdf:RDF>
      <cc:Work
         rdf:about="">
        <dc:format>image/svg+xml</dc:format>
        <dc:type
           rdf:resource="http://purl.org/dc/dcmitype/StillImage" />
        <dc:title></dc:title>
      </cc:Work>
    </rdf:RDF>
  </metadata>
  <g
     transform="translate(60.117007,-45.105303)"
     id="layer1">
    <g
       transform="matrix(0.26458333,0,0,0.26458333,-210.08841,-12.224613)"
       className="arrow"
       style="fill:#ffffff"
       id="g230">
      <path
         d="m 686.1,217.45 c -0.68,-0.53 -1.46,-0.76 -2.25,-0.77 -0.5,0 -1.01,0.09 -1.51,0.27 -5.96,2.02 -11.78,4.41 -17.69,6.59 -5.64,2.09 -11.33,4.06 -17.13,5.7 0.07,-0.02 0.14,-0.04 0.21,-0.05 -0.13,0.03 -0.26,0.07 -0.39,0.1 -0.21,0.06 -0.43,0.12 -0.64,0.18 0.16,-0.04 0.31,-0.09 0.46,-0.13 -3.11,0.82 -6.25,1.54 -9.42,2.11 -1.84,0.32 -3.34,1.69 -3.59,3.6 -0.25,1.89 0.81,3.63 2.52,4.41 0.4,0.18 0.78,0.38 1.16,0.58 2.35,1.47 4.38,3.32 6.35,5.27 1.56,1.57 3.08,3.24 4.73,4.76 -6.09,5.87 -12.19,11.72 -18.2,17.68 -2.22,2.21 -4.42,4.44 -6.62,6.66 -2.04,0.51 -4.07,0.93 -6.17,1.15 -2.44,0.26 -4.91,0.34 -7.37,0.35 -5.33,-0.03 -10.64,-0.42 -15.93,-1.06 -1.63,-0.2 -3.15,0.93 -3.39,2.57 -0.22,1.61 0.96,3.17 2.59,3.39 4.55,0.56 9.09,1 13.68,1.26 2.97,0.16 5.93,0.19 8.91,0.19 -2.51,2.58 -5.02,5.16 -7.49,7.77 -1.74,1.84 -3.46,3.7 -5.18,5.55 -3.97,0.11 -7.95,0.06 -11.92,0.14 -4.53,0.08 -9.06,0.35 -13.56,0.95 -1.78,0.25 -3.05,1.94 -2.8,3.72 0.23,1.79 1.93,3.05 3.7,2.82 3.59,-0.46 7.16,-0.67 10.77,-0.69 2.4,0.01 4.79,0.09 7.19,0.21 -10.13,11.06 -19.99,22.36 -29.57,33.92 -1.21,1.46 -0.85,3.77 0.61,4.91 1.54,1.2 3.7,0.85 4.91,-0.61 9.22,-11.14 18.78,-21.99 28.61,-32.6 0.14,1.1 0.28,2.19 0.44,3.28 0.33,2.21 0.73,4.4 1.1,6.61 0.33,2.06 0.58,4.13 1.05,6.17 0.33,1.49 1.33,2.71 2.94,2.92 1.84,0.25 3.58,-1.1 3.83,-2.94 0.25,-1.91 0.13,-3.87 0,-5.78 -0.17,-2.21 -0.46,-4.4 -0.78,-6.59 -0.52,-3.82 -0.98,-7.62 -1.24,-11.45 4.19,-4.41 8.42,-8.79 12.69,-13.12 0.09,1.79 0.18,3.58 0.32,5.37 0.18,2.47 0.4,4.93 0.68,7.39 0.28,2.44 0.6,4.91 1.23,7.29 0.08,0.6 0.3,1.13 0.66,1.61 0.55,0.71 1.36,1.18 2.26,1.29 1.73,0.23 3.73,-1.06 3.82,-2.92 0.15,-2.51 0,-5.03 -0.08,-7.53 -0.08,-2.47 -0.2,-4.95 -0.3,-7.42 -0.08,-2.47 -0.18,-4.95 -0.28,-7.42 -0.08,-1.9 -0.15,-3.81 -0.32,-5.71 8.46,-8.37 17.05,-16.66 25.89,-24.63 1.94,1.27 4.06,2.24 6.23,3.07 2.28,0.87 4.58,1.69 6.72,2.87 1.18,0.76 2.34,1.59 3.37,2.52 2.39,2.12 6.47,0.27 6.79,-2.77 0.68,-6.75 2.44,-13.33 4.22,-19.85 0.88,-3.27 1.76,-6.52 2.57,-9.81 0.78,-3.27 1.33,-6.59 2.06,-9.86 0.26,-1.29 -0.47,-2.73 -1.45,-3.49 z m -8.86,16.14 c 0.08,-0.32 0.17,-0.63 0.25,-0.95 -1.77,6.45 -3.75,12.83 -5.43,19.3 -0.84,-0.5 -1.7,-0.95 -2.55,-1.38 -2.66,-1.37 -5.48,-2.33 -8.1,-3.76 -0.41,-0.26 -0.81,-0.53 -1.21,-0.81 -1.32,-0.92 -2.92,-1.21 -4.36,-0.82 -0.8,-0.67 -1.56,-1.38 -2.31,-2.11 -1.79,-1.83 -3.54,-3.74 -5.4,-5.52 4.89,-1.33 9.7,-2.89 14.47,-4.62 5.53,-1.99 11.01,-4.15 16.44,-6.4 -0.52,2.39 -1.17,4.75 -1.8,7.07 z"
         id="path226" />
      <path
         d="m 647.52,229.23 c -0.12,0.03 -0.24,0.06 -0.36,0.1 0.06,-0.02 0.12,-0.03 0.18,-0.05 0.06,-0.01 0.12,-0.03 0.18,-0.05 z"
         id="path228" />
    </g>
  </g>
</svg>
