<?xml version="1.0" encoding="UTF-8" standalone="no"?>
<svg
   xmlns:dc="http://purl.org/dc/elements/1.1/"
   xmlns:cc="http://creativecommons.org/ns#"
   xmlns:rdf="http://www.w3.org/1999/02/22-rdf-syntax-ns#"
   xmlns:svg="http://www.w3.org/2000/svg"
   xmlns="http://www.w3.org/2000/svg"
   id="svg708"
   version="1.1"
   viewBox="0 0 42.330387 20.04727"
   height="20.047268mm"
   width="42.330387mm">
  <defs
     id="defs702" />
  <metadata
     id="metadata705">
    <rdf:RDF>
      <cc:Work
         rdf:about="">
        <dc:format>image/svg+xml</dc:format>
        <dc:type
           rdf:resource="http://purl.org/dc/dcmitype/StillImage" />
        <dc:title></dc:title>
      </cc:Work>
    </rdf:RDF>
  </metadata>
  <g
     transform="translate(256.08553,-117.93048)"
     id="layer1">
    <path
       className="doodle"
       style="fill:#0000ff;stroke-width:0.264583"
       d="m -250.98952,121.44226 c -1.10066,0.24607 -2.11137,0.82021 -2.91041,1.60867 -1.59809,1.57956 -2.19605,3.93435 -2.18546,6.11717 0.0159,2.27541 0.6985,4.60639 2.10873,6.4082 0.62706,0.80169 1.44462,1.49225 2.38125,1.90236 0.55562,0.24342 1.11125,0.39158 1.71714,0.46567 0.58738,0.0688 1.16152,0.0238 1.74625,-0.0661 0.65617,-0.10319 1.28323,-0.32808 1.89177,-0.59531 0.67998,-0.29898 1.31763,-0.67734 1.92882,-1.10067 1.44462,-1.00277 2.71198,-2.24631 3.89731,-3.53483 3.09562,-3.37609 5.72294,-7.23636 9.33979,-10.09915 -0.0582,0.0476 -0.11906,0.0953 -0.17727,0.14023 1.02658,-0.80433 2.1246,-1.50812 3.31787,-2.04523 0.87048,-0.36248 1.78065,-0.62706 2.71198,-0.78052 0.9525,-0.12435 1.90765,-0.13494 2.8628,-0.0318 0.55827,0.082 1.10066,0.23283 1.62718,0.43392 0.62442,0.26987 1.21179,0.61648 1.75948,1.02129 0.56621,0.45244 1.07686,0.96573 1.53194,1.52929 0.4445,0.59002 0.82285,1.22238 1.12448,1.89706 0.24871,0.61119 0.43127,1.24354 0.54239,1.89177 0.0714,0.5768 0.0794,1.15623 0.0212,1.73567 -0.082,0.52652 -0.21696,1.03717 -0.4101,1.53458 -0.18786,0.41805 -0.41275,0.81227 -0.67734,1.18269 -0.29633,0.37042 -0.62441,0.70379 -0.98954,1.00542 -0.37571,0.27781 -0.77258,0.51594 -1.19591,0.71173 -0.40482,0.16139 -0.82286,0.28046 -1.25413,0.35454 -0.32279,0.0317 -0.64558,0.037 -0.97102,0.008 -0.27517,-0.045 -0.5424,-0.11377 -0.80698,-0.21167 -0.19844,-0.0926 -0.38629,-0.20108 -0.56356,-0.32544 -0.17463,-0.14816 -0.33867,-0.30691 -0.48948,-0.48154 -0.18256,-0.25135 -0.33338,-0.52123 -0.46567,-0.80433 -0.13758,-0.35984 -0.24606,-0.7329 -0.31221,-1.11125 -0.0265,-0.29369 -0.0212,-0.58738 0.008,-0.88107 0.0609,-0.3466 0.15611,-0.68527 0.28046,-1.016 0.14023,-0.30427 0.30162,-0.59531 0.49742,-0.87047 0.1217,-0.14553 0.25135,-0.28046 0.39423,-0.40482 0.0847,-0.0582 0.17462,-0.11112 0.26722,-0.16139 0.0635,-0.0212 0.12436,-0.0397 0.18786,-0.0529 0.0423,-0.003 0.0873,-0.003 0.12964,0 0.0688,0.0159 0.13494,0.0318 0.20109,0.0556 0.11112,0.0556 0.21431,0.11907 0.3175,0.1905 0.22489,0.19579 0.42862,0.40746 0.61912,0.63765 0.2884,0.33867 0.84932,0.35983 1.21179,0.14817 0.46038,-0.27253 0.635,-0.90488 0.34661,-1.36525 -0.31486,-0.51594 -0.6985,-0.96044 -1.18798,-1.31234 -0.21696,-0.1561 -0.43656,-0.25929 -0.68527,-0.35719 -0.26458,-0.10847 -0.52123,-0.13758 -0.80169,-0.17462 -0.22754,-0.0265 -0.48419,0.0132 -0.70644,0.0582 -0.23812,0.0423 -0.44714,0.12964 -0.66939,0.23019 -0.42069,0.18256 -0.78846,0.48154 -1.10596,0.80697 -0.69585,0.70909 -1.14565,1.66688 -1.38377,2.61938 -0.24871,1.00806 -0.20638,2.03994 0.0873,3.03212 0.25929,0.89165 0.72231,1.70921 1.35996,2.3839 0.56356,0.59002 1.29381,1.00013 2.06904,1.24883 0.37042,0.11907 0.76465,0.16934 1.15358,0.20902 0.35984,0.0371 0.72232,0.0159 1.08215,-0.0291 0.40746,-0.0556 0.80433,-0.127 1.19856,-0.25135 0.42334,-0.12965 0.83609,-0.31221 1.22767,-0.51594 0.7276,-0.37571 1.397,-0.90223 1.96056,-1.49225 0.6059,-0.63236 1.09538,-1.38113 1.4314,-2.18811 0.19579,-0.46831 0.35454,-0.93662 0.46302,-1.43404 0.11377,-0.52123 0.16933,-1.05568 0.17727,-1.5875 0.0238,-0.97366 -0.15346,-1.96585 -0.45508,-2.8866 -0.60325,-1.86796 -1.79123,-3.57188 -3.30994,-4.81013 -0.38365,-0.30956 -0.78581,-0.59531 -1.20386,-0.84931 -0.44979,-0.27252 -0.92868,-0.48419 -1.41816,-0.67998 -0.91281,-0.37041 -1.89177,-0.50535 -2.87338,-0.55827 -0.98425,-0.0503 -1.96321,0.037 -2.93158,0.21431 -0.9181,0.16669 -1.80446,0.47096 -2.66171,0.83873 -1.69069,0.72761 -3.19617,1.80446 -4.57994,3.00832 -1.42345,1.24089 -2.69081,2.65112 -3.91583,4.08252 -1.2356,1.44462 -2.42358,2.92893 -3.65919,4.36827 -1.25677,1.4605 -2.57704,2.89189 -4.09839,4.07987 -0.69321,0.52123 -1.42875,0.98425 -2.2225,1.33879 -0.48684,0.19844 -0.98425,0.34925 -1.50019,0.43921 -0.41275,0.0529 -0.82815,0.0609 -1.24354,0.0212 -0.36248,-0.0556 -0.71438,-0.15081 -1.05569,-0.28311 -0.32808,-0.14816 -0.64029,-0.33072 -0.93133,-0.54239 -0.37307,-0.29633 -0.70644,-0.635 -1.00807,-1.00542 -0.39158,-0.52387 -0.71172,-1.09273 -0.97366,-1.69069 -0.3175,-0.78052 -0.53446,-1.60072 -0.66146,-2.43416 -0.10583,-0.84402 -0.11113,-1.69334 -0.0159,-2.53736 0.0952,-0.67998 0.26459,-1.34673 0.51859,-1.98702 0.19579,-0.44185 0.43127,-0.86518 0.71437,-1.25677 0.24871,-0.31221 0.52652,-0.59796 0.83609,-0.8546 0.30691,-0.22754 0.635,-0.42334 0.98425,-0.58209 0.41804,-0.16933 0.85195,-0.2831 1.2991,-0.35189 0.4101,-0.0503 0.82021,-0.0662 1.23296,-0.0238 0.33337,0.0556 0.65352,0.14552 0.97102,0.26723 0.34396,0.1561 0.6694,0.34395 0.97367,0.5662 0.28575,0.22755 0.54239,0.48155 0.77523,0.762 0.20108,0.26723 0.37306,0.54769 0.51329,0.85196 0.082,0.21696 0.14816,0.43656 0.18785,0.66146 0.0185,0.18256 0.0185,0.36513 0.005,0.54769 -0.0265,0.15081 -0.0635,0.29369 -0.11377,0.43656 -0.0661,0.14288 -0.14023,0.27517 -0.22754,0.40481 -0.13494,0.16669 -0.2831,0.31486 -0.44715,0.45244 -0.29368,0.21167 -0.60854,0.38365 -0.94191,0.52652 -0.15875,0.0688 -0.28311,0.26723 -0.32544,0.42863 -0.0503,0.17991 -0.0212,0.38364 0.0741,0.54768 0.0952,0.15875 0.25136,0.27517 0.42863,0.3228 0.20373,0.0529 0.36248,0.008 0.54769,-0.0741 0.80433,-0.3466 1.50812,-0.87312 1.98702,-1.61396 0.38893,-0.60854 0.52916,-1.37583 0.4445,-2.08227 -0.19579,-1.5875 -1.26736,-2.91041 -2.59821,-3.73591 -0.71438,-0.44186 -1.52136,-0.68527 -2.35479,-0.77259 -0.4154,-0.045 -0.84932,-0.0238 -1.27529,0.0344 -0.24607,0.0265 -0.48948,0.0714 -0.72232,0.12435 z m 25.96621,-1.61131 c -0.0608,0.0106 -0.12435,0.0212 -0.18521,0.0291 0.0635,-0.0106 0.12436,-0.0185 0.18521,-0.0291 z m -27.30764,3.84969 c -0.0132,0.0106 -0.0265,0.0238 -0.0423,0.0344 0.0159,-0.0106 0.0291,-0.0238 0.0423,-0.0344 z m -0.0979,0.0794 c -0.0185,0.0132 -0.037,0.0291 -0.0556,0.0423 0.0185,-0.0159 0.037,-0.0291 0.0556,-0.0423 z m 6.2521,3.91584 c -0.0132,0.0106 -0.0265,0.0185 -0.0397,0.0291 0.0159,-0.0106 0.0291,-0.0212 0.0397,-0.0291 z m -7.60677,5.15937 c 0.0185,0.045 0.037,0.09 0.0582,0.13758 -0.0185,-0.0476 -0.0397,-0.0926 -0.0582,-0.13758 z m 38.02063,-4.41854 c -0.003,0.0318 -0.008,0.0635 -0.0106,0.0926 0.003,-0.0318 0.008,-0.0635 0.0106,-0.0926 z m -37.04431,6.09865 c 0.0238,0.0291 0.0476,0.0608 0.0688,0.0899 -0.0238,-0.0291 -0.0476,-0.0582 -0.0688,-0.0899 z m 8.11741,-0.11378 c -0.0556,0.0423 -0.11377,0.0873 -0.16933,0.12965 0.0582,-0.045 0.11112,-0.0873 0.16933,-0.12965 z"
       id="path602" />
  </g>
</svg>
