<?xml version="1.0" encoding="UTF-8" standalone="no"?>
<svg
   xmlns:dc="http://purl.org/dc/elements/1.1/"
   xmlns:cc="http://creativecommons.org/ns#"
   xmlns:rdf="http://www.w3.org/1999/02/22-rdf-syntax-ns#"
   xmlns:svg="http://www.w3.org/2000/svg"
   xmlns="http://www.w3.org/2000/svg"
   id="svg708"
   version="1.1"
   viewBox="0 0 24.044411 26.458991"
   height="26.458988mm"
   width="24.044411mm">
  <defs
     id="defs702" />
  <metadata
     id="metadata705">
    <rdf:RDF>
      <cc:Work
         rdf:about="">
        <dc:format>image/svg+xml</dc:format>
        <dc:type
           rdf:resource="http://purl.org/dc/dcmitype/StillImage" />
        <dc:title></dc:title>
      </cc:Work>
    </rdf:RDF>
  </metadata>
  <g
     transform="translate(250.21524,-116.27848)"
     id="layer1">
    <g
       transform="matrix(0.26458333,0,0,0.26458333,-719.9499,-260.26849)"
       className="doodle1"
       style="fill:#0000ff"
       id="g622">
      <path
         d="m 1828.62,1431.18 c -0.62,0.62 -0.81,1.31 -0.89,2.15 -0.04,0.38 -0.08,0.76 -0.13,1.14 -0.46,3.21 -1.27,6.34 -2.46,9.36 -1,2.29 -2.22,4.45 -3.72,6.45 -1.2,1.48 -2.52,2.82 -4,4.01 -1.25,0.91 -2.58,1.71 -4,2.35 -1.34,0.52 -2.72,0.9 -4.14,1.13 -1.37,0.14 -2.73,0.13 -4.11,-0.01 -1.7,-0.27 -3.35,-0.75 -4.95,-1.38 -1.88,-0.83 -3.65,-1.86 -5.35,-3.05 -1.17,-0.82 -2.91,-0.21 -3.59,0.95 -0.36,0.61 -0.46,1.35 -0.27,2.02 0.19,0.7 0.63,1.17 1.21,1.58 2.34,1.65 4.81,2.99 7.49,4.01 2.32,0.88 4.79,1.33 7.25,1.46 4.56,0.25 9.16,-1.19 12.94,-3.69 4.02,-2.68 7.16,-6.5 9.45,-10.71 2.62,-4.8 4.06,-10.17 4.45,-15.62 0.12,-1.65 -1.46,-3.04 -3.03,-3.04 -0.81,0 -1.59,0.33 -2.15,0.89 z m -3.52,12.73 c -0.04,0.1 -0.08,0.2 -0.12,0.3 0.04,-0.1 0.08,-0.2 0.12,-0.3 z"
         id="path614" />
      <path
         d="m 1861.06,1425.18 c 0.19,2.85 0.43,5.7 0.55,8.55 0.12,2.7 0.16,5.4 0.13,8.1 -0.06,5.13 -0.42,10.24 -1.09,15.33 0.03,-0.21 0.05,-0.41 0.08,-0.62 -1.14,8.5 -3.19,16.89 -6.48,24.83 0,-0.01 0,-0.01 0.01,-0.02 -2.25,5.31 -5.09,10.36 -8.57,14.96 -3.15,4.06 -6.76,7.74 -10.82,10.9 0.03,-0.02 0.06,-0.05 0.1,-0.07 -3.96,3.02 -8.29,5.52 -12.87,7.47 0.14,-0.06 0.28,-0.12 0.44,-0.18 -5.31,2.23 -10.89,3.7 -16.59,4.52 -8.02,1.07 -16.15,0.86 -24.15,-0.2 0.15,0.02 0.3,0.04 0.46,0.06 -1.58,-0.21 -3.14,-0.46 -4.71,-0.73 -0.92,-0.16 -1.85,0.23 -2.12,1.2 -0.23,0.84 0.28,1.96 1.21,2.12 5.78,1.02 11.62,1.66 17.5,1.76 5.22,0.09 10.45,-0.32 15.61,-1.22 9.04,-1.58 17.78,-4.99 25.33,-10.22 3.6,-2.49 6.93,-5.36 9.92,-8.55 3.01,-3.22 5.69,-6.77 8.03,-10.5 4.91,-7.79 8.29,-16.53 10.41,-25.47 3.26,-13.73 3.48,-28.05 1.71,-42 -0.07,-0.56 -0.17,-1.02 -0.59,-1.43 -0.38,-0.38 -0.9,-0.6 -1.44,-0.6 -1.08,-0.02 -2.13,0.91 -2.06,2.01 z m -55.13,93.77 c -0.05,0.01 -0.1,0.01 -0.15,0.02 0.05,0 0.1,-0.01 0.15,-0.02 z"
         id="path616" />
      <path
         d="m 1849.09,1438.37 c 0.03,0.3 0.05,0.59 0.03,0.89 -0.2,1.38 -0.3,2.77 -0.43,4.16 -0.15,1.47 -0.3,2.94 -0.48,4.41 -1.03,7.43 -3.01,14.73 -5.92,21.66 0.04,-0.1 0.08,-0.2 0.13,-0.29 -1.29,3.02 -2.71,6 -4.33,8.86 -1.67,2.94 -3.55,5.77 -5.6,8.46 -2.95,3.77 -6.26,7.22 -10.03,10.17 0.11,-0.09 0.23,-0.18 0.34,-0.28 -2.82,2.18 -5.85,4.04 -9.12,5.44 -2.54,1.03 -5.18,1.78 -7.89,2.18 -2.4,0.3 -4.81,0.33 -7.22,0.09 -0.86,-0.09 -1.59,0.79 -1.59,1.59 0,0.42 0.17,0.83 0.47,1.12 0.31,0.32 0.68,0.42 1.12,0.47 4.6,0.46 9.25,-0.07 13.66,-1.46 4.42,-1.41 8.58,-3.68 12.3,-6.45 8.12,-6.02 14.35,-14.2 19.24,-22.97 1.69,-3.02 3.1,-6.17 4.41,-9.36 1.27,-3.13 2.34,-6.33 3.19,-9.6 0.84,-3.21 1.41,-6.49 1.72,-9.79 0.13,-1.5 0.19,-3.01 0.13,-4.51 -0.02,-0.68 -0.08,-1.37 -0.16,-2.05 -0.1,-0.77 -0.24,-1.51 -0.4,-2.27 -0.01,-0.15 -0.02,-0.31 -0.03,-0.46 -0.07,-0.96 -0.75,-1.76 -1.76,-1.76 -0.92,-0.01 -1.84,0.79 -1.78,1.75 z m 0.1,0.5 c -0.01,0.05 -0.02,0.11 -0.02,0.16 0,-0.05 0.01,-0.1 0.02,-0.16 z"
         id="path618" />
      <path
         d="m 1834.49,1456.75 c -0.18,0.2 -0.38,0.35 -0.57,0.53 -0.3,0.3 -0.57,0.69 -0.83,1.03 -0.43,0.55 -0.84,1.12 -1.23,1.68 -0.87,1.21 -1.74,2.42 -2.65,3.6 0.02,-0.02 0.04,-0.05 0.05,-0.07 -1.02,1.3 -2.1,2.57 -3.24,3.77 -1.33,1.39 -2.79,2.67 -4.3,3.86 -2.25,1.7 -4.63,3.21 -7.23,4.33 0.02,-0.01 0.04,-0.02 0.07,-0.03 -1.62,0.66 -3.29,1.17 -5.02,1.43 -1.15,0.13 -2.29,0.14 -3.45,0 -0.38,-0.04 -0.84,0.2 -1.1,0.47 -0.29,0.28 -0.46,0.68 -0.46,1.1 0,0.41 0.16,0.81 0.46,1.1 0.32,0.32 0.67,0.41 1.1,0.46 3.08,0.38 6.2,-0.23 9.08,-1.28 3.3,-1.22 6.39,-2.97 9.24,-5.01 2.92,-2.1 5.71,-4.49 8.11,-7.18 1.12,-1.25 2.16,-2.61 3.01,-4.05 0.46,-0.76 0.8,-1.57 1.12,-2.38 0.13,-0.34 0.23,-0.7 0.3,-1.07 0.09,-0.41 0.07,-0.82 0.11,-1.22 0.06,-0.51 -0.32,-1.05 -0.74,-1.3 -0.23,-0.13 -0.5,-0.2 -0.77,-0.2 -0.4,0 -0.79,0.14 -1.06,0.43 z"
         id="path620" />
    </g>
  </g>
</svg>
