<?xml version="1.0" encoding="UTF-8" standalone="no"?>
<svg
   xmlns:dc="http://purl.org/dc/elements/1.1/"
   xmlns:cc="http://creativecommons.org/ns#"
   xmlns:rdf="http://www.w3.org/1999/02/22-rdf-syntax-ns#"
   xmlns:svg="http://www.w3.org/2000/svg"
   xmlns="http://www.w3.org/2000/svg"
   id="svg708"
   version="1.1"
   viewBox="0 0 33.072918 50.270832"
   height="50.270832mm"
   width="33.072918mm">
  <defs
     id="defs702" />
  <metadata
     id="metadata705">
    <rdf:RDF>
      <cc:Work
         rdf:about="">
        <dc:format>image/svg+xml</dc:format>
        <dc:type
           rdf:resource="http://purl.org/dc/dcmitype/StillImage" />
        <dc:title></dc:title>
      </cc:Work>
    </rdf:RDF>
  </metadata>
  <g
     transform="translate(-44.344534,-55.426967)"
     id="layer1">
    <g
       transform="matrix(0.44411274,0,0,0.26228036,15.452254,7.2644244)"
       className="balloon"
       style="fill:#ffa500"
       id="g236">
      <path
         d="m 127.09,246.35 c 0,0 0,0 0,0 -0.03,0.06 -0.05,0.13 -0.08,0.19 0.03,-0.06 0.05,-0.13 0.08,-0.19 z"
         id="path232" />
      <path
         d="m 139.48,226.32 c -0.61,-11.7 -6.7,-22.58 -15.2,-30.41 -4.05,-3.73 -8.76,-6.86 -13.84,-9 -4.76,-2.01 -9.81,-3.28 -15,-3.28 -0.27,0 -0.54,0 -0.81,0.01 -5.23,0.14 -10.49,1.72 -14.83,4.66 -5.07,3.45 -8.78,8.52 -11.2,14.09 -1.4,3.19 -2.47,6.49 -3.02,9.94 -0.53,3.45 -0.66,6.92 -0.38,10.41 0.57,7.24 2.81,14.2 6.05,20.68 1.57,3.14 3.46,6.11 5.58,8.91 2.19,2.91 4.59,5.64 7.27,8.12 5.12,4.76 11.12,8.52 17.76,10.77 2.23,0.75 4.53,1.26 6.86,1.57 1.74,0.23 3.5,0.35 5.26,0.32 -0.98,2.54 -1.64,5.22 -2.23,7.86 -0.17,0.73 -0.09,1.46 0.31,2.11 0.46,0.74 1.45,1.44 2.37,1.32 0.97,-0.12 1.92,-0.29 2.86,-0.5 0.1,0.59 0.21,1.18 0.3,1.77 0.47,3.65 0.61,7.34 0.2,11 -0.35,2.23 -0.95,4.35 -1.77,6.45 -1.83,4.39 -4.19,8.55 -6.39,12.77 -2.34,4.49 -4.63,9.16 -5.72,14.15 -0.47,2.18 -0.7,4.47 -0.48,6.7 0.25,2.49 0.99,4.85 2.25,7.01 1.43,2.42 3.5,4.3 5.73,5.96 1.99,1.47 4.22,2.58 6.52,3.52 -0.22,3.08 -0.73,6.13 -1.27,9.19 -0.29,1.71 -0.55,3.42 -0.71,5.15 -0.09,0.97 -0.14,1.95 -0.14,2.9 0,0.43 0.01,0.85 0.05,1.29 0.1,0.5 0.24,0.98 0.39,1.48 0.32,1.06 1.46,1.85 2.52,2.02 1.34,0.22 3.04,-0.52 3.51,-1.9 0.17,-0.47 0.32,-0.94 0.45,-1.43 0.06,-0.42 0.13,-0.84 0.17,-1.27 0.1,-0.85 0.19,-1.71 0.29,-2.56 0.2,-1.73 0.46,-3.46 0.7,-5.18 0.53,-3.77 1.02,-7.5 1.07,-11.3 0.01,-0.88 -0.64,-1.83 -1.29,-2.35 -0.45,-0.37 -1,-0.56 -1.56,-0.67 -0.56,-0.2 -1.11,-0.42 -1.66,-0.63 -2.19,-0.92 -4.29,-2 -6.22,-3.38 -0.99,-0.77 -1.92,-1.63 -2.73,-2.59 -0.59,-0.78 -1.1,-1.6 -1.51,-2.47 -0.37,-0.94 -0.64,-1.9 -0.81,-2.89 -0.13,-1.29 -0.11,-2.58 0.02,-3.87 0.42,-2.8 1.28,-5.5 2.32,-8.13 3,-7.26 7.27,-13.96 9.8,-21.42 1.67,-4.93 1.74,-10.21 1.17,-15.34 -0.2,-1.81 -0.5,-3.6 -0.84,-5.39 1.6,-0.66 3.15,-1.42 4.59,-2.34 0.61,-0.39 1.07,-0.98 1.26,-1.69 0.18,-0.66 0.11,-1.57 -0.32,-2.14 -0.94,-1.3 -2,-2.42 -3.27,-3.4 -0.89,-0.68 -1.81,-1.26 -2.78,-1.78 2.58,-3.15 4.91,-6.51 7.06,-9.95 2.49,-4.01 4.67,-8.22 6.49,-12.58 2.93,-7.03 5.2,-14.59 4.8,-22.29 z m -8.45,5.98 c -0.68,4.82 -2.17,9.53 -3.94,14.05 0.01,-0.02 0.01,-0.03 0.02,-0.05 -0.01,0.02 -0.01,0.03 -0.02,0.05 -0.12,0.29 -0.23,0.59 -0.35,0.88 0.08,-0.23 0.18,-0.46 0.27,-0.69 -1.62,3.95 -3.49,7.79 -5.55,11.52 -1.94,3.49 -4.11,6.84 -6.37,10.12 -1.12,-0.02 -2.23,-0.08 -3.34,-0.2 -2.95,-0.39 -5.81,-1.15 -8.57,-2.22 -3.28,-1.37 -6.36,-3.14 -9.24,-5.24 -3.45,-2.65 -6.56,-5.69 -9.32,-9.05 -3.29,-4.17 -6.01,-8.74 -8.13,-13.6 -1.6,-3.89 -2.77,-7.93 -3.43,-12.08 -0.44,-3.39 -0.51,-6.76 -0.17,-10.17 0.4,-2.87 1.14,-5.62 2.17,-8.33 1.03,-2.48 2.3,-4.86 3.87,-7.05 1.15,-1.46 2.43,-2.82 3.85,-4.04 1.41,-1.08 2.93,-1.99 4.54,-2.73 1.59,-0.62 3.22,-1.07 4.9,-1.35 2.12,-0.24 4.24,-0.22 6.36,0 2.57,0.39 5.07,1.07 7.49,1.99 3.24,1.35 6.28,3.11 9.12,5.17 2.87,2.22 5.49,4.75 7.81,7.55 2.2,2.81 4.06,5.85 5.53,9.09 1.11,2.68 1.92,5.46 2.41,8.32 0.31,2.68 0.36,5.37 0.09,8.06 z"
         id="path234" />
    </g>
  </g>
</svg>
