<?xml version="1.0" encoding="UTF-8" standalone="no"?>
<svg
   xmlns:dc="http://purl.org/dc/elements/1.1/"
   xmlns:cc="http://creativecommons.org/ns#"
   xmlns:rdf="http://www.w3.org/1999/02/22-rdf-syntax-ns#"
   xmlns:svg="http://www.w3.org/2000/svg"
   xmlns="http://www.w3.org/2000/svg"
   id="svg708"
   version="1.1"
   viewBox="0 0 29.380501 32.989386"
   height="32.989384mm"
   width="29.380501mm">
  <defs
     id="defs702" />
  <metadata
     id="metadata705">
    <rdf:RDF>
      <cc:Work
         rdf:about="">
        <dc:format>image/svg+xml</dc:format>
        <dc:type
           rdf:resource="http://purl.org/dc/dcmitype/StillImage" />
        <dc:title></dc:title>
      </cc:Work>
    </rdf:RDF>
  </metadata>
  <g
     transform="translate(131.56105,-168.10436)"
     id="layer1">
    <g
       transform="matrix(0.26458333,0,0,0.26458333,-563.68803,-68.684271)"
       className="bear"
       style="fill:#0000ff"
       id="g660">
      <path
         d="m 1744.15,973.67 c -1.44,-9.64 -16.2,-14.96 -24.2,-16.92 -0.06,-0.01 -0.11,-0.01 -0.17,-0.02 -1.5,-2.52 -3.4,-4.9 -5.69,-7.08 2.74,-5.57 3.73,-11.96 2.52,-18.06 8.28,-6.7 14.94,-21.52 7.28,-30.35 -3.69,-4.25 -9.68,-5.68 -14.86,-3.53 -6.38,2.65 -9.51,8.86 -11.37,15.12 -3.13,-0.42 -6.4,-0.29 -9.7,0.24 -1.37,-9.88 -9.9,-21.54 -20.87,-17.18 -13.32,5.29 -8.89,22.31 -5.09,32.24 0.17,0.45 0.44,0.78 0.76,1.02 -3.04,7.44 -2.65,16.12 2.05,23.47 -1.74,1.89 -3.19,3.88 -4.36,5.97 -5.78,0.34 -11.31,2.17 -16.37,4.98 -3.73,2.07 -10.15,5.5 -10.79,10.28 -0.57,4.26 3.46,7.41 7.31,7.93 5.02,0.68 11.17,-1.77 16.13,-4.31 0.68,6.12 3,12.06 6.6,17.11 -7.42,3.39 -13.64,13.8 -8.83,21.39 2.38,3.75 6.81,4.66 10.6,2.55 4.68,-2.62 10.46,-7 13.26,-11.59 0.06,-0.09 0.1,-0.19 0.14,-0.28 4.08,1.63 8.58,2.48 13.39,2.27 5.29,-0.23 10.06,-1.63 14.23,-3.85 0.93,3.9 2.75,7.62 6.14,9.95 3.87,2.66 9.04,2.89 12.78,-0.16 4.18,-3.42 4.6,-9.16 2.58,-13.9 -1.35,-3.18 -4.12,-8 -7.71,-9.68 2.13,-3.89 3.57,-8.17 4.18,-12.57 7.8,3.08 21.68,5.79 20.06,-5.04 z M 1708,917.09 c 0.03,-0.08 0.06,-0.16 0.08,-0.25 0.35,-1.5 1.18,-2.47 2.43,-3.36 0.76,-0.54 2.8,-2.18 2.99,-0.76 0.14,1.09 -1.7,3.52 -2.21,4.5 -0.34,0.65 -0.69,1.3 -1.03,1.94 -0.72,-0.77 -1.48,-1.46 -2.26,-2.07 z m 1.16,-14.19 c 5.81,-3.55 12.65,0.4 12.9,7.07 0.24,6.29 -3.19,11.56 -7.26,16.01 -0.34,-0.75 -0.71,-1.49 -1.13,-2.22 -0.11,-0.2 -0.24,-0.38 -0.35,-0.57 1.56,-2.82 3.05,-5.73 4.25,-8.7 0.98,-2.4 1.24,-5.5 -1.44,-6.94 -2.42,-1.3 -5.41,0.62 -7.42,1.95 -2.02,1.33 -3.69,3 -4.45,5.26 -0.77,-0.37 -1.57,-0.69 -2.38,-0.96 1.47,-4.15 3.43,-8.55 7.28,-10.9 z m -1.08,20.84 c 0,0.95 0.63,1.75 1.44,2.12 0.04,0.06 0.08,0.12 0.12,0.19 0.68,1.16 1.2,2.36 1.63,3.59 -0.88,1.24 -0.23,2.9 0.94,3.56 0.87,5.11 -0.08,10.43 -2.48,15.03 -1.1,0.54 -1.87,1.66 -1.77,2.85 -2.07,2.92 -4.77,5.41 -8,7.14 -10.83,5.79 -24.47,2.54 -31.27,-7.72 -5.79,-8.74 -4.19,-20.22 2.92,-27.4 0.36,0.01 0.73,-0.04 1.12,-0.22 11.08,-5.05 26.68,-10.26 35.35,0.86 z m -37.29,-12.05 c 0.13,0.12 0.25,0.24 0.38,0.36 0.36,0.57 1.13,1.16 1.58,1.69 0.83,0.97 1.56,2.04 2.28,3.1 -0.1,0.04 -0.2,0.08 -0.3,0.12 -0.53,-0.38 -1.24,-0.48 -1.99,0.02 -0.87,0.58 -1.69,1.22 -2.47,1.88 -0.97,-2.3 -0.89,-5.06 0.52,-7.17 z m -5.57,-8.35 c 3.63,-4.65 9.59,-4.15 13.42,0.05 2.8,3.07 3.47,6.94 4.56,10.71 -1.36,0.36 -2.71,0.77 -4.05,1.22 -1.65,-3.34 -6.82,-11.07 -10.96,-7.35 -3.64,3.26 -3.48,9.45 -1.46,13.46 0.11,0.22 0.25,0.4 0.4,0.55 -0.64,0.75 -1.23,1.53 -1.77,2.34 -2.24,-6.85 -4.91,-14.86 -0.14,-20.98 z m -23.86,68.58 c 5,-4.03 10.78,-6.35 16.8,-8.16 -0.84,2.5 -1.36,5.07 -1.55,7.65 -3.28,1.07 -6.38,2.64 -9.64,3.79 -3.77,1.32 -11.1,1.14 -5.61,-3.28 z m 17.32,40.97 c -1.78,-2.38 0.15,-7.1 1.48,-9.23 1.51,-2.41 3.68,-4.05 6.04,-5.55 2.32,2.51 4.99,4.7 7.97,6.44 -3.81,3.3 -12.21,12.74 -15.49,8.34 z m 32.34,-9.77 c -11.21,0.35 -22.31,-6.4 -27.02,-16.61 -4.75,-10.28 -2.37,-21.27 3.63,-30.24 8.61,9.51 22.96,12.06 34.55,5.88 3.38,-1.8 6.28,-4.3 8.6,-7.23 6.94,7.94 10.01,18.72 6.42,29.07 -3.79,10.9 -14.68,18.77 -26.18,19.13 z m 25.86,-6.87 c 1.93,0.09 4.12,4.22 4.89,5.65 1.55,2.87 2.36,7.13 -0.99,9.12 -5.42,3.22 -8.86,-4.29 -10.52,-8.58 2.41,-1.8 4.55,-3.89 6.39,-6.22 0.07,0 0.14,0.02 0.23,0.03 z m 15.92,-20.92 c -2.96,-0.51 -5.69,-1.56 -8.43,-2.71 -0.11,-3.35 -0.71,-6.69 -1.82,-9.91 4.54,1.93 9.07,3.84 12.78,7.27 0.86,0.79 2.43,2.07 2.8,3.25 1.26,3.96 -3.18,2.47 -5.33,2.1 z"
         id="path650" />
      <path
         d="m 1682.71,972.24 c -4.98,4.76 -6.2,12.3 -1.72,18.18 4.34,5.7 13.48,7.27 18.34,1.33 4.47,-5.45 3.6,-13.9 -0.63,-19.2 -3.77,-4.7 -13.7,-8.21 -15.99,-0.31 z m 13.35,15.68 c -2.85,4.59 -9.06,2.94 -11.67,-0.89 -2.95,-4.33 -1.58,-9.82 2.55,-12.78 0.57,-0.41 0.85,-0.97 0.93,-1.53 3.24,-2.08 7.78,3.23 8.84,6.11 1.06,2.89 1.01,6.41 -0.65,9.09 z"
         id="path652" />
      <path
         d="m 1677.89,934.9 c 1.09,-0.62 1.23,-1.81 0.79,-2.87 -0.31,-0.76 0.63,-1.86 1.36,-1.85 1.32,0.01 1.45,1.61 1.39,2.55 -0.07,1.03 0.82,1.96 1.8,2.09 1.12,0.15 1.9,-0.48 2.33,-1.48 1.54,-3.64 -2.34,-7.75 -5.96,-7.43 -3.98,0.36 -6.05,4.73 -4.57,8.2 0.44,1.04 1.95,1.31 2.86,0.79 z"
         id="path654" />
      <path
         d="m 1692.25,932.76 c 1.27,0.03 2.01,-0.97 2.16,-2.1 0.09,-0.64 1.64,-0.71 2.21,-0.34 1.28,0.83 1.4,2.76 1.51,4.12 0.22,2.76 3.86,2.73 4.23,0.06 0.48,-3.4 -1.43,-7.65 -4.98,-8.58 -3.39,-0.89 -6.84,1.18 -7.25,4.69 -0.12,1.14 1.05,2.12 2.12,2.15 z"
         id="path656" />
      <path
         d="m 1683.6,946.17 c 0.87,0.56 1.86,0.93 2.9,1.16 0.28,2.72 0.53,7.09 -2.62,7.78 -2.58,0.56 -3.49,-3.3 -3.94,-5.08 -0.64,-2.55 -4.59,-1.52 -3.95,1.03 1,3.95 3.42,8.94 8.36,8.08 2.48,-0.43 4.03,-1.84 4.97,-3.67 0.71,1.55 1.9,2.61 3.8,2.4 4.07,-0.46 7.36,-5.23 8.17,-8.9 0.57,-2.56 -3.24,-3.72 -3.95,-1.14 -0.61,2.18 -1.82,4.17 -3.75,5.42 -0.15,0.1 -0.3,0.18 -0.46,0.26 -0.1,-0.43 -0.4,-0.96 -0.49,-1.36 -0.34,-1.43 -0.3,-2.84 -0.09,-4.29 0.03,-0.18 0.02,-0.35 -0.01,-0.51 2.97,-0.78 2.95,-6.01 -0.22,-6.55 -2.78,-0.48 -6.17,-0.49 -8.66,1.03 -1.64,0.99 -1.67,3.3 -0.06,4.34 z"
         id="path658" />
    </g>
  </g>
</svg>
