<?xml version="1.0" encoding="UTF-8" standalone="no"?>
<svg
   xmlns:dc="http://purl.org/dc/elements/1.1/"
   xmlns:cc="http://creativecommons.org/ns#"
   xmlns:rdf="http://www.w3.org/1999/02/22-rdf-syntax-ns#"
   xmlns:svg="http://www.w3.org/2000/svg"
   xmlns="http://www.w3.org/2000/svg"
   id="svg708"
   version="1.1"
   viewBox="0 0 33.233609 19.502472"
   height="19.502472mm"
   width="33.233608mm">
  <defs
     id="defs702" />
  <metadata
     id="metadata705">
    <rdf:RDF>
      <cc:Work
         rdf:about="">
        <dc:format>image/svg+xml</dc:format>
        <dc:type
           rdf:resource="http://purl.org/dc/dcmitype/StillImage" />
        <dc:title></dc:title>
      </cc:Work>
    </rdf:RDF>
  </metadata>
  <g
     transform="translate(110.50602,-17.391634)"
     id="layer1">
    <g
       transform="matrix(0.26458333,0,0,0.26458333,-398.50422,-46.801574)"
       className="bird1"
       style="fill:#ff0000"
       id="g376">
      <path
         d="m 1195.48,256.88 c -0.14,0.07 -0.28,0.13 -0.42,0.2 0.17,-0.08 0.34,-0.16 0.51,-0.24 -0.03,0.02 -0.06,0.03 -0.09,0.04 z"
         id="path372" />
      <path
         d="m 1213,249.01 c 0.98,-0.94 1.34,-2.55 0.95,-3.78 -0.29,-0.92 -0.9,-1.63 -1.67,-2.07 -0.61,-0.35 -1.32,-0.54 -2.06,-0.54 -6.02,0.02 -11.94,1.46 -17.58,3.46 -6.01,2.13 -11.84,5.04 -17.24,8.43 -5.14,3.24 -9.91,7.2 -14.13,11.57 -2.19,2.29 -4.14,4.79 -5.98,7.38 -0.4,0.57 -0.79,1.14 -1.17,1.72 -0.15,-0.14 -0.31,-0.29 -0.46,-0.43 -2.3,-2.09 -4.62,-4.16 -7,-6.2 -5.22,-4.46 -10.71,-8.64 -16.52,-12.33 -10.68,-6.74 -24.02,-12.05 -36.67,-8.19 -1.4,0.43 -2.37,1.55 -2.83,2.86 -0.4,0.2 -0.79,0.46 -1.09,0.79 -0.71,0.75 -1.09,1.76 -1.05,2.8 0.04,0.9 0.47,2.06 1.22,2.63 7.98,5.97 16.04,11.84 23.73,18.17 7.4,6.12 14.28,12.81 20.46,20.15 1.22,1.47 2.44,2.95 3.55,4.51 0.87,1.26 1.7,2.56 2.54,3.84 1.96,3 4.04,5.94 6.54,8.52 2.26,2.31 5.34,4.25 8.7,4.01 2.58,-0.19 4.72,-1.81 6.55,-3.51 2.09,-1.95 3.78,-4.34 5.43,-6.66 1.83,-2.57 3.52,-5.27 5.15,-7.99 1.55,-2.57 3.05,-5.18 4.58,-7.78 1.01,-1.73 2.02,-3.5 3.17,-5.15 1.85,-2.48 3.93,-4.84 5.94,-7.18 2.75,-3.2 5.56,-6.34 8.44,-9.45 5.72,-6.17 11.94,-11.88 17.78,-17.95 0.43,-0.45 0.67,-1.03 0.72,-1.63 z m -22.41,13.59 c -5.61,5.62 -11,11.49 -16.03,17.64 -0.96,1.2 -1.83,2.53 -2.66,3.85 -1.11,1.77 -2.18,3.57 -3.27,5.37 -2.47,4.06 -4.97,8.12 -7.72,12 -1.59,2.18 -3.26,4.36 -5.3,6.14 -0.31,0.24 -0.64,0.46 -0.97,0.65 -0.02,0.01 -0.04,0.01 -0.05,0.02 -0.07,-0.02 -0.15,-0.03 -0.22,-0.05 -0.32,-0.16 -0.63,-0.34 -0.94,-0.53 -1.15,-0.92 -2.16,-1.98 -3.11,-3.1 -2.78,-3.53 -5.03,-7.45 -7.82,-10.98 -4.55,-5.75 -9.52,-11.14 -14.85,-16.17 -8.34,-7.88 -17.55,-14.73 -26.76,-21.55 1.24,-0.07 2.49,-0.09 3.74,0 2.84,0.36 5.6,1.06 8.29,2.01 5.69,2.22 10.94,5.37 15.91,8.91 7.71,5.7 14.8,12.32 20.98,19.65 0.31,0.41 0.63,0.83 0.93,1.26 1.22,1.73 3.06,2.83 5.24,2.74 2.11,-0.1 3.87,-1.3 4.92,-3.09 1.54,-2.59 3.02,-5.21 4.75,-7.68 3.1,-4.11 6.66,-7.8 10.6,-11.13 5.79,-4.59 12.14,-8.31 18.84,-11.46 -0.19,0.09 -0.38,0.17 -0.58,0.25 0.33,-0.15 0.67,-0.3 1,-0.45 0.11,-0.05 0.21,-0.1 0.32,-0.15 -0.08,0.04 -0.15,0.07 -0.23,0.11 0.56,-0.25 1.14,-0.48 1.7,-0.72 -2.29,2.1 -4.52,4.26 -6.71,6.46 z"
         id="path374" />
    </g>
  </g>
</svg>
