<?xml version="1.0" encoding="UTF-8" standalone="no"?>
<svg
   xmlns:dc="http://purl.org/dc/elements/1.1/"
   xmlns:cc="http://creativecommons.org/ns#"
   xmlns:rdf="http://www.w3.org/1999/02/22-rdf-syntax-ns#"
   xmlns:svg="http://www.w3.org/2000/svg"
   xmlns="http://www.w3.org/2000/svg"
   id="svg708"
   version="1.1"
   viewBox="0 0 23.243777 36.709174"
   height="36.709171mm"
   width="23.243776mm">
  <defs
     id="defs702" />
  <metadata
     id="metadata705">
    <rdf:RDF>
      <cc:Work
         rdf:about="">
        <dc:format>image/svg+xml</dc:format>
        <dc:type
           rdf:resource="http://purl.org/dc/dcmitype/StillImage" />
        <dc:title></dc:title>
      </cc:Work>
    </rdf:RDF>
  </metadata>
  <g
     transform="translate(135.13523,-163.58009)"
     id="layer1">
    <g
       transform="matrix(0.26458333,0,0,0.26458333,-186.75076,-138.69049)"
       className="bird2"
       style="fill:#ffa500"
       id="g562">
      <path
         d="m 257.59,1250.85 c 0.01,-0.01 0.02,-0.02 0.03,-0.03 -0.02,0.02 -0.04,0.04 -0.05,0.06 0,-0.01 0.01,-0.02 0.02,-0.03 z"
         id="path552" />
      <path
         d="m 279.16,1171.31 c 0.3,-2.94 0.71,-5.88 1.15,-8.8 0.44,-2.92 0.92,-5.84 1.4,-8.74 0.23,-1.38 0.45,-2.75 0.66,-4.14 0.24,-1.52 0.48,-3.06 0.56,-4.6 0.04,-0.87 -0.35,-1.71 -1.09,-2.19 -0.41,-0.27 -0.86,-0.4 -1.32,-0.4 -0.59,0 -1.18,0.21 -1.65,0.61 -2,1.69 -4.12,3.25 -6.19,4.84 -2.23,1.71 -4.5,3.38 -6.82,4.97 -1.72,1.15 -3.47,2.26 -5.28,3.28 -0.25,0.14 -0.47,0.32 -0.65,0.53 -0.96,-0.65 -1.98,-1.18 -3.03,-1.65 -0.69,-0.31 -1.5,-0.18 -2.15,0.2 -2.63,-1.2 -5.42,-2.01 -8.33,-2.25 -0.51,-0.04 -1.02,-0.06 -1.53,-0.06 -3.63,0 -7.22,1.05 -10.37,2.86 -3.78,2.17 -6.85,5.37 -9.41,8.88 -2.76,3.79 -4.87,8.07 -6.55,12.44 -2.22,5.78 -3.65,11.95 -4.13,18.13 -0.31,3.93 -0.06,7.87 0.4,11.77 0.54,4.66 1.4,9.27 1.77,13.94 0.2,3.34 0.11,6.65 -0.51,9.93 -0.35,1.55 -0.78,3.06 -1.44,4.5 -0.93,1.77 -2.11,3.37 -3.39,4.9 -1.81,2.07 -3.74,4.02 -5.53,6.11 -0.81,0.94 -1.58,1.91 -2.26,2.94 -0.57,0.86 -1,1.8 -1.42,2.73 -0.43,0.41 -0.91,0.77 -1.39,1.11 -1.32,0.9 -2.71,1.7 -4.06,2.54 -0.64,0.4 -1.12,0.85 -1.37,1.59 -0.16,0.47 -0.19,0.96 -0.09,1.45 0.1,0.49 0.32,0.92 0.66,1.3 3.09,4.34 6.8,8.28 11.24,11.25 3.79,2.53 8.08,4.15 12.59,4.8 4.14,0.61 8.46,0.17 12.49,-0.91 2.76,-0.75 5.41,-1.82 7.96,-3.09 0.17,2.54 0.38,5.08 0.69,7.6 0.12,1.02 1.27,1.66 2.22,1.47 0.49,-0.1 0.93,-0.39 1.21,-0.81 0.29,-0.46 0.32,-0.9 0.28,-1.42 -0.28,-2.94 -0.57,-5.88 -0.78,-8.82 0.21,-0.13 0.42,-0.24 0.63,-0.36 0.89,-0.55 1.75,-1.14 2.61,-1.73 0.8,3.67 2.09,7.23 3.94,10.51 0.54,0.96 1.7,1.41 2.72,0.89 0.97,-0.49 1.41,-1.75 0.88,-2.72 -0.94,-1.79 -1.76,-3.63 -2.44,-5.53 -0.64,-1.93 -1.1,-3.89 -1.43,-5.88 5.64,-4.51 10.58,-9.87 14.92,-15.62 2.9,-3.84 5.48,-7.89 7.77,-12.11 2.17,-4.04 4.09,-8.24 5.56,-12.6 1.57,-4.6 2.44,-9.41 2.99,-14.24 0.66,-5.91 0.66,-11.91 -0.06,-17.81 -0.55,-4.53 -1.67,-9.01 -3.31,-13.28 0.18,-1.36 0.23,-2.73 0.33,-4.09 0.06,-1.42 0.2,-2.83 0.35,-4.22 z m -35.5,98.97 c 0,-0.06 -0.01,-0.12 -0.01,-0.17 0,0 0,0 0,0 0,0.06 0.01,0.11 0.01,0.17 z m 31.8,-53.5 c -1.07,5.27 -3.01,10.33 -5.35,15.16 -3.37,6.76 -7.6,13.1 -12.49,18.87 0.04,-0.05 0.08,-0.09 0.12,-0.14 -0.05,0.06 -0.1,0.11 -0.15,0.17 -0.1,0.12 -0.2,0.24 -0.31,0.36 0.09,-0.11 0.19,-0.22 0.28,-0.33 -4.11,4.72 -8.67,9.05 -13.8,12.65 -3.33,2.26 -6.87,4.19 -10.66,5.57 -2.5,0.84 -5.08,1.43 -7.72,1.66 -2.21,0.13 -4.4,0 -6.58,-0.4 -2,-0.44 -3.92,-1.11 -5.77,-1.98 -2.16,-1.11 -4.15,-2.46 -6.02,-4.02 -1.88,-1.66 -3.58,-3.49 -5.15,-5.44 0.7,-0.45 1.4,-0.9 2.09,-1.38 0.71,-0.48 1.42,-1.01 2.01,-1.64 0.48,-0.52 0.74,-0.87 1.03,-1.53 0.16,-0.35 0.3,-0.71 0.46,-1.07 0.82,-1.48 1.84,-2.82 2.93,-4.12 2.31,-2.64 4.79,-5.14 6.83,-8.01 1.09,-1.55 2,-3.24 2.67,-5.01 0.39,-1.03 0.65,-2.11 0.88,-3.18 0.27,-1.24 0.47,-2.5 0.62,-3.76 0.53,-4.76 -0.02,-9.63 -0.74,-14.34 -0.7,-4.6 -1.6,-9.17 -1.94,-13.82 -0.26,-4.71 0.16,-9.42 1.06,-14.03 1.04,-4.95 2.61,-9.78 4.83,-14.34 1.56,-3.08 3.39,-6.02 5.63,-8.65 1.47,-1.66 3.09,-3.18 4.89,-4.46 1.47,-0.98 3.02,-1.8 4.68,-2.4 1.38,-0.44 2.79,-0.72 4.23,-0.85 1.51,-0.07 3.02,0.05 4.51,0.32 1.72,0.37 3.38,0.94 4.99,1.65 0.18,0.55 0.54,1.05 1.04,1.4 1.21,0.84 2.47,1.58 3.7,2.36 1.09,0.71 2.12,1.52 3.12,2.37 2.71,2.38 5.14,5.06 7.22,8.01 2.16,3.2 3.89,6.65 5.21,10.26 1.63,4.76 2.56,9.71 2.93,14.72 0.4,6.49 -0.08,13.02 -1.28,19.37 z m -8.02,-54.1 c -1.22,-1.18 -2.53,-2.26 -3.86,-3.3 4.68,-2.74 9.05,-5.96 13.45,-9.14 -0.15,0.9 -0.3,1.8 -0.46,2.7 -0.49,2.91 -1,5.82 -1.44,8.73 -0.46,2.92 -0.84,5.86 -1.1,8.81 -0.01,0.1 -0.01,0.21 -0.02,0.31 -1.88,-2.93 -4.03,-5.68 -6.57,-8.11 z"
         id="path554" />
      <path
         d="m 259.77,1219.01 c -0.02,0.08 -0.03,0.16 -0.05,0.25 0.01,-0.05 0.02,-0.09 0.03,-0.14 0.01,-0.04 0.01,-0.07 0.02,-0.11 z"
         id="path556" />
      <path
         d="m 263.33,1202.55 c -0.17,-0.51 -0.35,-0.91 -0.83,-1.22 -0.32,-0.21 -0.7,-0.32 -1.08,-0.32 -0.12,0 -0.24,0.01 -0.36,0.03 -0.5,0.1 -0.95,0.41 -1.22,0.84 -0.26,0.38 -0.44,0.99 -0.28,1.44 0.5,1.56 0.73,3.2 0.86,4.82 0.23,3.63 0.02,7.3 -0.64,10.87 0.01,-0.04 0.02,-0.09 0.03,-0.13 -0.02,0.08 -0.03,0.16 -0.05,0.24 -0.02,0.1 -0.04,0.2 -0.06,0.3 0.01,-0.05 0.02,-0.1 0.03,-0.15 -0.26,1.25 -0.6,2.5 -1.12,3.67 -0.12,0.24 -0.26,0.46 -0.41,0.69 -0.28,-0.29 -0.53,-0.6 -0.76,-0.93 -0.75,-1.17 -1.35,-2.43 -1.9,-3.71 -0.39,-0.89 -1.49,-1.34 -2.4,-1.16 -0.96,0.2 -1.67,1.03 -1.75,2 -0.06,0.71 -0.14,1.41 -0.27,2.11 -0.38,1.7 -0.97,3.33 -1.72,4.91 -0.97,1.9 -2.08,3.72 -3.18,5.54 -0.48,-0.79 -0.87,-1.62 -1.2,-2.49 -0.45,-1.43 -0.71,-2.87 -0.84,-4.36 -0.08,-1.42 -0.05,-2.83 0.06,-4.23 0.28,-1.52 0.5,-3.05 0.68,-4.57 0.1,-0.84 -0.5,-1.66 -1.28,-1.93 -0.47,-0.16 -1.02,-0.12 -1.47,0.1 -0.4,0.2 -0.83,0.63 -0.93,1.08 -0.45,1.9 -0.76,3.82 -1.01,5.75 -0.05,0.37 -0.08,0.75 -0.11,1.13 -0.51,2.2 -1.2,4.36 -2.17,6.41 -0.52,1.01 -1.12,1.98 -1.84,2.85 -0.39,0.41 -0.8,0.8 -1.26,1.14 -0.28,0.17 -0.57,0.32 -0.87,0.45 -0.23,0.07 -0.47,0.12 -0.7,0.15 -0.2,0 -0.39,-0.02 -0.59,-0.04 -0.17,-0.05 -0.34,-0.11 -0.51,-0.17 -0.26,-0.14 -0.5,-0.3 -0.72,-0.49 -0.28,-0.27 -0.54,-0.57 -0.78,-0.89 -0.43,-0.65 -0.76,-1.35 -1.03,-2.08 -0.44,-1.34 -0.67,-2.74 -0.78,-4.15 -0.12,-2.42 0.12,-4.83 0.58,-7.22 0.87,-4.09 2.35,-8.01 4.19,-11.75 -0.03,0.06 -0.06,0.12 -0.1,0.19 0.03,-0.06 0.05,-0.11 0.08,-0.17 0.21,-0.42 0.35,-0.79 0.25,-1.27 -0.09,-0.44 -0.35,-0.83 -0.72,-1.07 -0.37,-0.25 -0.84,-0.33 -1.27,-0.25 -0.4,0.08 -0.89,0.35 -1.07,0.72 -2.53,5.1 -4.5,10.47 -5.16,16.15 -0.45,3.72 -0.24,7.69 1.28,11.16 0.57,1.31 1.42,2.47 2.51,3.4 0.93,0.8 2.08,1.26 3.29,1.41 1.24,0.15 2.56,-0.22 3.64,-0.82 1.38,-0.77 2.47,-1.95 3.39,-3.2 0.51,-0.7 0.96,-1.45 1.37,-2.23 0.78,2.35 2.07,4.53 3.85,6.26 0.4,0.39 0.85,0.66 1.42,0.69 0.71,0.05 1.51,-0.3 1.89,-0.93 1.55,-2.62 3.3,-5.11 4.71,-7.81 0.55,-1.07 1.06,-2.17 1.48,-3.3 0.03,0.03 0.05,0.07 0.08,0.1 0.87,1.06 2.16,1.99 3.59,2.04 3,0.09 4.45,-3.09 5.15,-5.53 0.95,-3.35 1.22,-6.91 1.24,-10.39 0.01,-1.79 -0.09,-3.6 -0.29,-5.39 -0.19,-1.44 -0.44,-2.9 -0.92,-4.29 z"
         id="path558" />
      <path
         d="m 238.03,1185.82 c 0.89,0.85 2.06,1.41 3.31,1.37 1.3,-0.04 2.53,-0.46 3.62,-1.17 2.52,-1.63 4.42,-4.08 5.85,-6.7 1.68,-3.09 2.8,-6.55 2.88,-10.08 0.04,-1.33 -0.89,-2.51 -2.26,-2.6 -0.05,0 -0.1,-0.01 -0.15,-0.01 -1.22,0 -2.43,1 -2.45,2.27 -0.02,0.91 -0.11,1.82 -0.27,2.72 -0.36,1.66 -0.92,3.25 -1.65,4.78 -0.71,1.38 -1.55,2.68 -2.54,3.88 -0.57,0.63 -1.17,1.21 -1.85,1.72 -0.3,0.19 -0.6,0.35 -0.92,0.49 -0.1,0.03 -0.21,0.05 -0.31,0.07 -0.02,0 -0.03,0 -0.05,0 -0.01,0 -0.01,-0.01 -0.02,-0.01 -0.04,-0.05 -0.09,-0.1 -0.13,-0.15 -0.12,-0.2 -0.22,-0.41 -0.3,-0.63 -0.22,-0.74 -0.34,-1.5 -0.4,-2.27 -0.04,-0.9 -0.02,-1.79 0.03,-2.69 0.07,-1.21 -0.84,-2.28 -2.06,-2.36 -1.2,-0.09 -2.29,0.85 -2.36,2.06 -0.11,1.87 -0.11,3.78 0.24,5.62 0.26,1.32 0.81,2.74 1.79,3.69 z"
         id="path560" />
    </g>
  </g>
</svg>
