<?xml version="1.0" encoding="UTF-8" standalone="no"?>
<svg
   xmlns:dc="http://purl.org/dc/elements/1.1/"
   xmlns:cc="http://creativecommons.org/ns#"
   xmlns:rdf="http://www.w3.org/1999/02/22-rdf-syntax-ns#"
   xmlns:svg="http://www.w3.org/2000/svg"
   xmlns="http://www.w3.org/2000/svg"
   id="svg708"
   version="1.1"
   viewBox="0 0 33.905374 43.982447"
   height="43.982441mm"
   width="33.905373mm">
  <defs
     id="defs702" />
  <metadata
     id="metadata705">
    <rdf:RDF>
      <cc:Work
         rdf:about="">
        <dc:format>image/svg+xml</dc:format>
        <dc:type
           rdf:resource="http://purl.org/dc/dcmitype/StillImage" />
        <dc:title></dc:title>
      </cc:Work>
    </rdf:RDF>
  </metadata>
  <g
     transform="translate(173.60735,-194.54142)"
     id="layer1">
    <path
       className="arrow3"
       style="fill:#000000;stroke-width:0.264583"
       d="m -139.72785,195.18964 c -0.0185,-0.23283 -0.11113,-0.43921 -0.3228,-0.56092 -0.10054,-0.0608 -0.20372,-0.0873 -0.30691,-0.0873 -0.11642,0 -0.23284,0.0318 -0.34661,0.0873 -0.13758,0.0609 -0.27781,0.12436 -0.41804,0.18256 -1.69069,0.70909 -3.43429,1.28588 -5.19377,1.80975 -1.8071,0.53711 -3.63802,0.9869 -5.44777,1.50813 -0.38894,0.11112 -0.55827,0.63765 -0.24342,0.92869 1.143,1.05833 2.30982,2.09814 3.43694,3.17764 -0.14552,0.13494 -0.28575,0.28046 -0.41804,0.41804 -0.30692,0.3175 -0.6006,0.64559 -0.89429,0.96838 -0.5715,0.62971 -1.12977,1.26735 -1.69069,1.90765 -0.25135,0.28575 -0.49742,0.57679 -0.74877,0.86254 -0.46302,0.0767 -0.92604,0.14552 -1.38906,0.21166 -0.66411,0.0952 -1.32821,0.18521 -1.99496,0.27252 0.0238,-0.003 0.0529,-0.008 0.0794,-0.0106 -0.78845,0.10583 -1.57691,0.20902 -2.36537,0.31486 -0.36248,0.0476 -0.71967,0.0979 -1.08215,0.14816 -0.41539,0.0582 -0.83079,0.11113 -1.24089,0.19579 -0.13759,0.0265 -0.23284,0.17463 -0.23284,0.30957 0,0.082 0.0317,0.16668 0.0926,0.22489 0.0556,0.0529 0.14816,0.10319 0.22489,0.0926 0.3228,-0.0344 0.63765,-0.0873 0.9578,-0.13759 0.37306,-0.0582 0.74347,-0.11377 1.11654,-0.16933 0.74612,-0.11113 1.49225,-0.21696 2.23837,-0.32279 0.70379,-0.10054 1.41023,-0.20638 2.10873,-0.32544 0.31221,-0.0529 0.62442,-0.11377 0.93663,-0.17462 -0.68527,0.78581 -1.37584,1.57162 -2.05317,2.36537 -0.69321,0.81492 -1.37848,1.64042 -2.05846,2.46856 -0.20637,0.0423 -0.41275,0.082 -0.61648,0.127 -0.49741,0.10848 -0.99219,0.2249 -1.48696,0.34132 -0.49477,0.11641 -0.98954,0.23018 -1.48166,0.34925 -0.49477,0.11906 -0.99219,0.2196 -1.48167,0.35454 -0.2249,0.0635 -0.35983,0.30162 -0.29633,0.52387 0.0635,0.23284 0.29633,0.34396 0.52123,0.29634 0.45773,-0.0926 0.90487,-0.21961 1.35731,-0.33338 0.49212,-0.12435 0.98425,-0.24871 1.47637,-0.37306 0.39952,-0.10319 0.80169,-0.19844 1.20121,-0.29634 -1.21444,1.50813 -2.40241,3.03742 -3.53483,4.60905 -0.47625,0.0132 -0.95515,0.0397 -1.4314,0.0899 -0.37306,0.037 -0.75141,0.0847 -1.12448,0.1323 -0.36512,0.0476 -0.7276,0.0926 -1.09273,0.14552 -0.0635,0.0185 -0.11906,0.0503 -0.16404,0.0953 -0.0714,0.0714 -0.10848,0.16668 -0.10848,0.26458 0,0.0979 0.0371,0.1905 0.10848,0.26194 0.0609,0.0635 0.17198,0.12171 0.26194,0.10848 0.6006,-0.0794 1.19592,-0.17992 1.79123,-0.26194 0.42069,-0.0556 0.84402,-0.10319 1.26735,-0.13229 -1.78329,2.52412 -3.44487,5.1435 -4.89479,7.874 -0.94985,1.79123 -1.778,3.64596 -2.49502,5.54567 -1.00277,-0.47361 -2.02935,-0.90488 -3.08504,-1.24619 -0.0503,-0.0159 -0.10054,-0.0238 -0.15081,-0.0238 -0.24077,0 -0.47096,0.17728 -0.53446,0.41275 -0.0265,0.0953 -0.0185,0.18521 0.003,0.27253 -0.0159,-0.003 -0.0317,-0.005 -0.0503,-0.005 -0.3175,0 -0.57414,0.26459 -0.57679,0.57944 -0.0132,1.41288 -0.0159,2.83369 0.17463,4.23598 0.0582,0.43656 0.13758,0.87313 0.28839,1.28852 0.13229,0.36513 0.31221,0.71702 0.59796,0.98425 0.58738,0.55298 1.4314,0.53975 2.14313,0.25136 0.48948,-0.19844 0.93398,-0.46303 1.36525,-0.76994 0.57679,-0.40746 1.12183,-0.86519 1.65629,-1.33086 0.32544,-0.28575 0.64558,-0.57943 0.96044,-0.87577 0.28575,-0.27252 0.27252,-0.74877 0,-1.01864 -0.28311,-0.28575 -0.7329,-0.27252 -1.01865,0 -0.69585,0.65352 -1.40494,1.2991 -2.15635,1.88912 -0.43657,0.33338 -0.89165,0.65617 -1.39436,0.889 -0.13758,0.0556 -0.28046,0.10319 -0.42862,0.13229 -0.0397,0.003 -0.0794,0.003 -0.11907,0 -0.0291,-0.005 -0.0582,-0.0132 -0.0873,-0.0238 -0.0265,-0.0132 -0.0503,-0.0291 -0.0741,-0.045 -0.037,-0.0344 -0.0714,-0.0714 -0.10584,-0.10848 -0.0714,-0.10583 -0.12964,-0.21696 -0.18256,-0.33073 -0.16404,-0.43391 -0.25135,-0.89164 -0.31221,-1.34937 -0.15346,-1.26471 -0.15346,-2.54265 -0.14552,-3.81529 0,-0.0397 -0.003,-0.0767 -0.0106,-0.11377 0.51594,0.17198 1.02658,0.36248 1.52665,0.5715 0.72231,0.30956 1.4261,0.65087 2.1246,1.00541 0.38629,0.19315 0.76994,0.39423 1.15887,0.58738 0.38894,0.19579 0.78053,0.37306 1.20121,0.49212 0.18786,0.0556 0.39688,-0.0344 0.49477,-0.20373 0.0926,-0.1561 0.082,-0.40745 -0.0688,-0.53181 -0.21166,-0.17462 -0.42598,-0.33602 -0.66146,-0.48154 -0.23018,-0.14288 -0.4736,-0.27252 -0.71702,-0.40217 -0.24606,-0.13229 -0.49477,-0.25135 -0.74348,-0.37835 0.0926,-0.2249 0.17727,-0.45508 0.27252,-0.67733 1.02923,-2.41565 2.2569,-4.75192 3.6195,-7.00088 1.15623,-1.905 2.42888,-3.72798 3.76503,-5.51127 -0.0979,0.50271 -0.15611,1.00806 -0.17198,1.52135 -0.0106,0.35719 0.0132,0.71438 0.0503,1.06627 0.0344,0.35455 0.0952,0.70644 0.19579,1.04775 0.0688,0.22225 0.29898,0.36248 0.52652,0.29898 0.10848,-0.0265 0.20108,-0.10054 0.25665,-0.19579 0.0635,-0.10583 0.0661,-0.21431 0.045,-0.33073 -0.0503,-0.27516 -0.10583,-0.54768 -0.14816,-0.82285 0,0.003 0,0.003 0,0.005 -0.0952,-0.70379 -0.10054,-1.41023 -0.0159,-2.11402 0.037,-0.24342 0.0847,-0.48154 0.14288,-0.72231 0.0529,-0.21432 -0.0661,-0.43657 -0.28046,-0.49742 -0.0106,-0.003 -0.0238,-0.003 -0.0344,-0.005 0.0714,-0.0926 0.14023,-0.18786 0.21167,-0.28046 -0.0106,0.0159 -0.0238,0.0291 -0.0317,0.045 0.84138,-1.09008 1.70656,-2.159 2.58498,-3.21998 -0.0159,0.0608 -0.037,0.11906 -0.0529,0.17992 -0.11906,0.50006 -0.18256,1.01335 -0.23283,1.52135 -0.0476,0.508 -0.0635,1.01865 -0.0608,1.52929 0,0.53182 0.0132,1.06627 0.0767,1.59544 0.0185,0.14288 0.045,0.25929 0.15082,0.36513 0.0953,0.0952 0.22754,0.15081 0.36512,0.15081 0.27252,0 0.52123,-0.23284 0.51594,-0.51594 -0.0185,-0.6059 -0.0741,-1.20915 -0.0847,-1.8124 -0.0159,-0.65087 0.0132,-1.2991 0.09,-1.94468 0.0926,-0.63236 0.24077,-1.25148 0.4789,-1.84679 0,0.003 -0.003,0.003 -0.003,0.005 0.0503,-0.11642 0.0794,-0.22225 0.0423,-0.3519 -0.0264,-0.0926 -0.0847,-0.16933 -0.15875,-0.23019 0.86255,-1.02129 1.73303,-2.032 2.61409,-3.03477 0.37306,-0.42333 0.74877,-0.84402 1.12448,-1.26735 -0.0926,1.42346 -0.29369,2.84427 -0.19579,4.27037 0.0159,0.24077 0.18785,0.4445 0.4445,0.4445 0.11641,0 0.23018,-0.0476 0.31485,-0.12964 0.0741,-0.0741 0.14023,-0.20109 0.127,-0.31486 -0.045,-0.45243 -0.0635,-0.90752 -0.0609,-1.3626 0.005,-0.49742 0.037,-0.99483 0.0741,-1.4896 0.0556,-0.78582 0.11906,-1.56898 0.12435,-2.3548 0.43392,-0.48948 0.86519,-0.97895 1.30175,-1.46843 0.5424,-0.60855 1.08479,-1.21444 1.61925,-1.83092 0.26723,-0.30692 0.52917,-0.61648 0.78846,-0.93133 0.037,-0.045 0.0741,-0.09 0.11113,-0.13759 1.53458,0.73819 3.04535,1.53723 4.61962,2.18811 0.17463,0.0741 0.42069,0.0159 0.5715,-0.0741 0.17727,-0.10318 0.27517,-0.25664 0.34396,-0.4445 0.59531,-1.6457 1.20121,-3.28877 1.66423,-4.97945 0.23812,-0.87578 0.43656,-1.76213 0.5715,-2.65907 0.127,-0.85989 0.20373,-1.73302 0.13494,-2.60085 z m -1.42082,1.98967 c -0.19314,1.34672 -0.54768,2.6617 -0.96573,3.95816 -0.33337,1.03981 -0.70908,2.0664 -1.10595,3.08769 -1.23032,-0.58473 -2.45005,-1.19592 -3.6883,-1.76213 0.005,-0.19579 -0.082,-0.39952 -0.21431,-0.53181 -0.127,-0.12964 -0.28046,-0.1905 -0.4445,-0.20373 -0.96837,-0.93662 -1.97908,-1.83091 -2.95275,-2.76225 1.5875,-0.39952 3.16971,-0.82285 4.74398,-1.27 0.92604,-0.26193 1.84944,-0.54239 2.75961,-0.84402 0.65881,-0.2196 1.31233,-0.45773 1.95791,-0.70379 -0.0132,0.34396 -0.045,0.68792 -0.09,1.03188 z"
       id="path476" />
  </g>
</svg>
