<?xml version="1.0" encoding="UTF-8" standalone="no"?>
<svg
   xmlns:dc="http://purl.org/dc/elements/1.1/"
   xmlns:cc="http://creativecommons.org/ns#"
   xmlns:rdf="http://www.w3.org/1999/02/22-rdf-syntax-ns#"
   xmlns:svg="http://www.w3.org/2000/svg"
   xmlns="http://www.w3.org/2000/svg"
   id="svg708"
   version="1.1"
   viewBox="0 0 32.388322 29.524884"
   height="29.524881mm"
   width="32.388321mm">
  <defs
     id="defs702" />
  <metadata
     id="metadata705">
    <rdf:RDF>
      <cc:Work
         rdf:about="">
        <dc:format>image/svg+xml</dc:format>
        <dc:type
           rdf:resource="http://purl.org/dc/dcmitype/StillImage" />
        <dc:title></dc:title>
      </cc:Work>
    </rdf:RDF>
  </metadata>
  <g
     transform="translate(73.276616,-196.97632)"
     id="layer1">
    <g
       transform="matrix(0.26458333,0,0,0.26458333,-301.99108,14.269709)"
       className="book2"
       style="fill:#0000ff"
       id="g682">
      <path
         d="m 975.9,690.56 c -14.49,0.44 -29.08,1.5 -43.45,3.42 -0.3,0.04 -0.56,0.13 -0.8,0.24 -4.81,-2.27 -11.52,1.39 -17.11,0.52 -1.61,-0.25 -3.46,0.78 -3.92,2.37 -12.76,1.88 -25.53,3.72 -38.27,5.82 -8.91,1.47 -8.55,4.58 -7.18,13.13 4.27,26.65 8.6,53.29 12.75,79.96 0.28,1.8 1.55,2.82 3.35,2.87 13.88,0.33 28.82,2.28 42.63,0.98 0.12,-0.01 0.21,-0.03 0.33,-0.05 0.6,1.55 2.18,2.77 4.21,2.15 4.08,-1.25 10.21,-1.98 13.9,-4.53 0.12,-0.01 0.22,-0.01 0.34,-0.04 12.98,-2.7 26.04,-5.09 39.15,-7.08 1.94,-0.3 3.08,-1.69 3.11,-3.64 0.4,-27.76 2.33,-55.6 1.82,-83.37 -0.18,-9.23 -1.2,-13.04 -10.86,-12.75 z m -58.6,102.73 c -11.21,-0.19 -22.42,-0.38 -33.63,-0.57 -3.44,-20.57 -6.76,-41.16 -10.12,-61.74 -0.84,-5.12 -1.67,-10.25 -2.51,-15.37 -0.17,-1.02 -0.33,-2.05 -0.5,-3.07 -1.42,-2.27 -1.12,-3.41 0.88,-3.42 1.55,-1.24 5.49,-1.01 7.56,-1.34 10.76,-1.74 21.49,-3.59 32.23,-5.44 3.7,21.82 7.4,43.65 11.1,65.47 0.94,5.54 1.89,11.08 2.88,16.61 0.28,1.58 1.73,4.97 1.08,6.51 -1.6,3.69 -5.96,2.41 -8.97,2.36 z m 16.13,0.3 c -0.41,0.12 -0.82,0.23 -1.22,0.35 0.79,-3.19 0.09,-7.32 -0.59,-11.56 -4.35,-27 -9.11,-53.94 -13.72,-80.89 0.89,-0.09 1.79,-0.21 2.73,-0.41 1.43,-0.3 5.25,-1.91 6.57,-1.5 2.99,0.94 3.47,7.11 3.7,9.46 1.06,10.92 2.13,21.83 3.19,32.75 1.01,10.4 2.02,20.79 3.04,31.19 0.43,4.47 3.02,13.27 1.35,17.42 -1.13,2.73 -1.74,2.25 -5.05,3.19 z m 47.07,-92.78 c 0.49,5.39 0,11.08 -0.16,16.47 -0.65,22.22 -1.15,44.46 -2.03,66.67 -11.11,1.36 -22.13,3.1 -33.11,5.3 -0.16,-1.48 -0.42,-2.96 -0.55,-4.3 -1.48,-15.07 -2.96,-30.15 -4.44,-45.22 -0.76,-7.8 -1.53,-15.59 -2.3,-23.39 -0.54,-5.49 -0.01,-12.39 -2.23,-17.5 10.45,-0.71 20.88,-1.5 31.34,-1.93 3.04,-0.12 6.29,-0.55 9.34,-0.32 4.42,0.34 3.73,-0.26 4.14,4.22 z"
         id="path664" />
      <path
         d="m 885.38,727.19 c 2.9,-0.38 3.94,-2.09 5.77,-3.5 1.81,1.05 2.88,2.16 5.56,1.86 3.32,-0.37 6.23,-2.73 9.65,-2.1 3.21,0.6 4.08,-4.16 0.96,-4.94 -2.16,-0.54 -4.09,-0.24 -6.2,0.4 -1.22,0.37 -2.45,1.07 -3.7,1.33 -2.56,0.54 -1.81,0.12 -3.75,-0.9 -1.57,-0.83 -2.44,-1.3 -4.1,-0.6 -3.06,1.3 -4.37,5.81 -8.37,2.26 -2.37,-2.11 -5.55,1.62 -3.2,3.74 2.05,1.85 4.58,2.82 7.38,2.45 z"
         id="path666" />
      <path
         d="m 894.43,746.24 c 3.51,-0.84 6.3,1.06 9.84,0.62 3.64,-0.45 6.65,-2.42 10.44,-2.36 2.85,0.05 3.15,-4.77 0.29,-5.05 -2.04,-0.2 -3.76,-0.09 -5.75,0.45 -4.04,1.1 -6.33,1.32 -10.6,0.6 -5.76,-0.98 -10.03,4.76 -15.48,0.2 -2.45,-2.05 -5.65,1.68 -3.22,3.77 5.02,4.32 8.74,3.14 14.48,1.77 z"
         id="path668" />
      <path
         d="m 895.79,768.66 c 3.04,-1.16 5.06,-1.95 8.84,-1.44 1.46,0.2 2.8,0.8 4.32,0.9 3.72,0.24 6.99,-0.77 10.13,-2.72 2.48,-1.54 0.28,-6.01 -2.39,-4.63 -2.97,1.53 -5.86,2.49 -9.27,1.68 -1.8,-0.43 -3.39,-1.55 -5.27,-1.76 -1.05,-0.11 -2.3,0.02 -3.32,0.31 -1.08,0.31 -8.69,4.67 -8.67,2.49 0.03,-3.28 -4.96,-2.82 -5.05,0.39 -0.18,6.51 6.24,6.47 10.68,4.78 z"
         id="path670" />
      <path
         d="m 918.9,778.63 c -9.6,1.71 -19.15,3.06 -28.9,3.45 -3.27,0.13 -2.85,5.12 0.39,5.05 9.97,-0.21 19.87,-1.18 29.61,-3.41 2.85,-0.66 1.81,-5.61 -1.1,-5.09 z"
         id="path672" />
      <path
         d="m 975.84,706.73 c -4.24,2.35 -6.89,0.59 -10.86,-0.61 -0.97,-0.29 -2.04,-0.56 -3.06,-0.46 -1.04,0.1 -2.09,0.64 -3.02,1.09 -3.98,1.9 -6.93,3.08 -11.07,0.32 -2.64,-1.76 -5.94,1.93 -3.27,3.82 5.47,3.87 9.54,3.04 15.55,1.42 4.35,-1.18 6.17,1.11 10.22,1.36 3.2,0.2 5.97,-0.78 8.44,-2.72 2.63,-2.07 -0.06,-5.82 -2.93,-4.22 z"
         id="path674" />
      <path
         d="m 954.76,733.25 c 1.12,-0.51 1.78,-1.41 2.75,-2.09 2.01,-1.4 2.24,-1.15 4.47,-1.1 1.12,0.03 2.08,0.19 3.23,-0.02 1.53,-0.27 4.2,-2 5.72,-1.26 3.11,1.52 5.09,-2.98 2.29,-4.73 -3.7,-2.31 -7.56,0.85 -11.47,0.45 -1.75,-0.18 -2.99,-0.56 -4.7,0.26 -0.96,0.46 -6.45,5.95 -6.65,1.7 -0.15,-3.24 -4.97,-2.79 -4.98,0.39 0,4.72 4.79,8.48 9.34,6.4 z"
         id="path676" />
      <path
         d="m 973.25,743.31 c -2.99,2.41 -5.22,1.6 -8.3,0.16 -1.36,-0.63 -2.12,-1.19 -3.7,-1.03 -1.39,0.14 -2.25,0.76 -3.35,1.57 -3.08,2.27 -5.72,3.53 -9.5,1.8 -3.12,-1.43 -5.37,3.23 -2.32,4.79 2.83,1.45 5.75,2.04 8.9,1.42 2.4,-0.47 4.51,-3.08 6.59,-3.32 1.83,-0.21 4.45,1.97 6.73,2.09 3.11,0.17 5.82,-0.85 8.16,-2.87 2.67,-2.32 -0.35,-6.92 -3.21,-4.61 z"
         id="path678" />
      <path
         d="m 975.41,767.91 c -3.69,-0.86 -7.63,-0.76 -11.36,-0.11 -1.38,0.24 -2.87,0.57 -4.21,0.97 -0.54,0.16 -7.54,3.16 -7.49,1.45 0.08,-2.95 -5.05,-3.27 -5.23,-0.3 -0.27,4.32 2.86,7.26 7.29,6.64 3.44,-0.48 6.63,-2.45 10.08,-3.1 3.54,-0.66 7.05,-0.4 10.63,-0.32 3.08,0.08 3.07,-4.58 0.29,-5.23 z"
         id="path680" />
    </g>
  </g>
</svg>
