<?xml version="1.0" encoding="UTF-8" standalone="no"?>
<svg
   xmlns:dc="http://purl.org/dc/elements/1.1/"
   xmlns:cc="http://creativecommons.org/ns#"
   xmlns:rdf="http://www.w3.org/1999/02/22-rdf-syntax-ns#"
   xmlns:svg="http://www.w3.org/2000/svg"
   xmlns="http://www.w3.org/2000/svg"
   id="svg708"
   version="1.1"
   viewBox="0 0 35.894529 33.008315"
   height="33.008312mm"
   width="35.894527mm">
  <defs
     id="defs702" />
  <metadata
     id="metadata705">
    <rdf:RDF>
      <cc:Work
         rdf:about="">
        <dc:format>image/svg+xml</dc:format>
        <dc:type
           rdf:resource="http://purl.org/dc/dcmitype/StillImage" />
        <dc:title></dc:title>
      </cc:Work>
    </rdf:RDF>
  </metadata>
  <g
     transform="translate(123.10835,-157.86249)"
     id="layer1">
    <g
       transform="matrix(0.26458333,0,0,0.26458333,-219.17087,-78.91842)"
       className="book"
       style="fill:#ff0000"
       id="g48">
      <path
         d="m 497.46,973.55 c -0.63,-4.74 -1.52,-9.43 -2.6,-14.08 -1.08,-4.57 -2.39,-9.07 -3.6,-13.59 -2.29,-8.53 -4.51,-17.1 -7.32,-25.49 -1.41,-4.18 -3.02,-8.3 -4.85,-12.31 -0.98,-2.18 -2.1,-4.29 -3.28,-6.36 -0.47,-0.85 -0.99,-1.69 -1.52,-2.5 -0.63,-0.96 -1.38,-1.83 -2.08,-2.75 -0.75,-0.97 -1.96,-1.55 -3.16,-1.55 -0.76,0 -1.52,0.23 -2.15,0.74 -4.02,3.18 -7.78,6.68 -11.17,10.52 -3.3,3.74 -6.2,7.81 -8.93,11.98 -5.61,8.61 -10.33,17.76 -15.74,26.5 -0.39,0.63 -0.79,1.25 -1.19,1.87 -4.18,-4.87 -8,-10.06 -12.18,-14.94 -5.2,-6.08 -10.94,-11.76 -17.98,-15.64 -3.39,-1.87 -7.14,-3.11 -10.95,-3.72 -4.19,-0.64 -8.51,-0.34 -12.64,0.61 -2.12,0.5 -4.2,1.16 -6.26,1.93 -1.47,0.57 -2.95,1.26 -4.19,2.23 -0.92,0.74 -1.7,1.7 -2.14,2.81 -0.47,1.26 -0.52,2.6 -0.41,3.93 0.17,1.96 0.68,3.91 1.05,5.84 0.64,3.41 1.03,6.86 1.52,10.29 1.16,8.12 2.44,16.22 3.73,24.32 2.49,15.76 4.96,31.52 6.55,47.39 -0.84,1.67 -0.63,3.83 0.46,5.33 1.42,1.94 3.79,2.43 5.99,1.73 1.96,-0.61 3.69,-1.66 5.43,-2.71 1.31,-0.8 2.64,-1.59 3.98,-2.35 3.72,-2 7.55,-3.61 11.63,-4.65 3.3,-0.73 6.64,-1.1 10.02,-1.07 2.07,0.11 4.09,0.44 6.07,0.99 1.58,0.55 3.07,1.24 4.5,2.07 1.46,0.96 2.8,2.05 4.03,3.28 1.12,1.24 2.09,2.56 2.98,3.97 1.51,2.39 5.29,1.76 6.37,-0.66 0.74,-1.66 1.56,-3.27 2.49,-4.83 1.29,-1.99 2.74,-3.83 4.41,-5.51 1.48,-1.34 3.08,-2.5 4.81,-3.51 1.94,-0.99 3.98,-1.75 6.09,-2.31 3.36,-0.74 6.8,-0.98 10.25,-0.9 7.04,0.36 13.93,1.95 20.67,3.94 1.81,0.56 3.61,1.17 5.41,1.73 1.27,0.41 2.39,0.61 3.67,0.11 1.47,-0.57 2.78,-2.03 2.95,-3.63 1.02,-9.64 0.55,-19.44 -0.72,-29.05 z m -73,29.37 c -4.93,-2.26 -10.43,-3.13 -15.83,-3.07 -5.56,0.06 -11.04,1.37 -16.37,2.84 -2.56,0.71 -5.06,1.58 -7.5,2.61 -1.47,0.62 -2.87,1.36 -4.26,2.14 -1.63,-14.9 -3.95,-29.7 -6.29,-44.49 -1.33,-8.37 -2.63,-16.72 -3.8,-25.1 -0.47,-3.37 -0.91,-6.75 -1.55,-10.09 -0.33,-1.74 -0.76,-3.49 -0.81,-5.26 0.02,-0.24 0.05,-0.49 0.11,-0.73 0.03,-0.08 0.06,-0.15 0.1,-0.23 0.08,-0.11 0.16,-0.21 0.25,-0.32 0.32,-0.26 0.66,-0.49 1.01,-0.71 2.24,-1.14 4.71,-1.92 7.15,-2.54 2.63,-0.59 5.29,-0.92 7.99,-0.9 2.33,0.11 4.63,0.48 6.89,1.1 2.64,0.84 5.14,2.02 7.53,3.46 3.83,2.47 7.22,5.52 10.36,8.8 6.65,7.13 12.19,15.2 18.45,22.68 0.16,0.19 0.35,0.33 0.54,0.49 -0.03,0.32 -0.05,0.63 -0.08,0.95 -0.17,2.6 -0.2,5.21 -0.17,7.81 0.08,5.59 0.54,11.17 1.08,16.72 0.53,5.6 1.09,11.19 1.31,16.8 0.11,2.68 0.24,5.36 0.34,8.05 0.03,1.07 0.09,2.13 0.16,3.2 -2,-1.67 -4.21,-3.1 -6.61,-4.21 z m 64.76,-7.43 c 0,0.1 -0.01,0.2 -0.01,0.29 -4.02,-1.03 -8.1,-1.89 -12.19,-2.55 -5.91,-0.95 -11.97,-1.4 -17.95,-0.73 -5.84,0.66 -11.51,2.65 -16.34,6.01 -1.44,1.01 -2.74,2.18 -3.97,3.42 -0.23,-1.82 -0.5,-3.64 -0.82,-5.45 -0.47,-2.67 -1.06,-5.31 -1.59,-7.96 -0.56,-2.88 -1.06,-5.77 -1.55,-8.66 -0.92,-5.52 -1.76,-11.03 -2.21,-16.62 -0.21,-2.63 -0.32,-5.27 -0.36,-7.91 -0.01,-0.6 0,-1.2 0,-1.8 0.11,-0.1 0.23,-0.19 0.32,-0.31 6.15,-8.29 10.95,-17.51 16.35,-26.3 4.29,-6.87 8.98,-13.51 14.78,-19.19 1.3,-1.21 2.65,-2.36 4.05,-3.43 1.58,3.21 3.08,6.47 4.41,9.8 2.07,5.13 3.72,10.41 5.28,15.7 1.48,5.07 2.81,10.2 4.13,15.31 1.23,4.75 2.57,9.48 3.75,14.26 -0.02,-0.08 -0.04,-0.16 -0.06,-0.23 2.82,11.89 4.28,24.15 3.98,36.35 z"
         id="path32" />
      <path
         d="m 416.64,948.46 c -1.9,0.33 -3.81,0.59 -5.75,0.59 -1.07,-0.05 -2.11,-0.21 -3.15,-0.49 -0.9,-0.32 -1.73,-0.72 -2.54,-1.21 -2.42,-1.6 -4.44,-3.69 -6.62,-5.6 -0.61,-0.54 -1.75,-0.46 -2.24,0.24 -0.56,0.79 -1.15,1.52 -1.84,2.21 -0.46,0.4 -0.93,0.75 -1.45,1.07 -0.39,0.19 -0.78,0.36 -1.2,0.5 -0.38,0.08 -0.76,0.12 -1.15,0.13 -0.37,-0.03 -0.72,-0.09 -1.08,-0.18 -0.43,-0.16 -0.82,-0.34 -1.2,-0.56 -0.56,-0.38 -1.06,-0.81 -1.54,-1.29 -0.64,-0.75 -1.2,-1.54 -1.7,-2.39 -0.78,-1.46 -1.36,-3 -1.76,-4.62 -0.13,-0.61 -0.24,-1.21 -0.33,-1.83 -0.09,-0.71 -0.67,-1.27 -1.39,-1.27 -0.05,0 -0.1,0 -0.15,0.01 -0.74,0.08 -1.35,0.78 -1.26,1.55 0.36,2.54 1.09,5 2.3,7.29 1.02,1.94 2.42,3.72 4.25,4.93 1.66,1.09 3.63,1.52 5.57,1.1 2.1,-0.45 3.79,-1.78 5.24,-3.32 1.05,1.07 2.14,2.11 3.27,3.1 1.37,1.2 2.88,2.26 4.53,3.05 3.6,1.72 7.78,1.34 11.58,0.61 0.49,-0.08 0.89,-0.27 1.22,-0.66 0.31,-0.38 0.45,-0.87 0.41,-1.34 -0.12,-0.93 -1.04,-1.78 -2.02,-1.62 z"
         id="path34" />
      <path
         d="m 416.4,971.23 c -0.7,0.11 -1.39,0.17 -2.09,0.18 -0.68,-0.05 -1.34,-0.17 -2,-0.34 -2.15,-0.76 -4.02,-2.07 -5.98,-3.21 -0.95,-0.54 -1.94,-0.98 -2.99,-1.29 -1.15,-0.34 -2.3,-0.42 -3.49,-0.34 -0.91,0.06 -1.82,0.29 -2.68,0.54 -0.92,0.25 -1.82,0.63 -2.7,1.01 -1.59,0.68 -3.14,1.49 -4.82,1.99 -0.44,0.09 -0.88,0.16 -1.33,0.17 -0.27,-0.02 -0.54,-0.07 -0.81,-0.13 -0.18,-0.07 -0.36,-0.15 -0.53,-0.25 -0.27,-0.19 -0.53,-0.4 -0.78,-0.63 -0.48,-0.55 -0.89,-1.14 -1.25,-1.78 -0.73,-1.41 -1.27,-2.87 -1.74,-4.38 -0.25,-0.75 -1.02,-1.19 -1.77,-1.19 -0.23,0 -0.46,0.04 -0.67,0.13 -1.01,0.39 -1.38,1.45 -1.08,2.43 0.82,2.56 1.82,5.25 3.66,7.25 0.7,0.77 1.48,1.37 2.4,1.82 0.85,0.41 1.8,0.54 2.74,0.54 1.77,0.01 3.49,-0.63 5.1,-1.31 1.68,-0.69 3.33,-1.49 5.09,-1.97 0.65,-0.13 1.29,-0.21 1.96,-0.23 0.51,0.04 1,0.13 1.51,0.26 1.07,0.37 2.06,0.9 3.03,1.49 1.66,1.03 3.29,2.11 5.13,2.79 2.1,0.78 4.33,0.94 6.5,0.43 0.54,-0.11 0.99,-0.28 1.35,-0.73 0.34,-0.42 0.5,-0.95 0.45,-1.48 -0.11,-1.01 -1.13,-1.95 -2.21,-1.77 z"
         id="path36" />
      <path
         d="m 416,988.44 c -1.44,-0.25 -2.88,-0.31 -4.33,-0.22 -1.4,0.07 -2.77,0.39 -4.12,0.73 -2.67,0.65 -5.21,1.7 -7.87,2.4 -1.24,0.28 -2.49,0.46 -3.76,0.47 -0.66,-0.05 -1.3,-0.16 -1.95,-0.33 -0.69,-0.24 -1.33,-0.54 -1.96,-0.92 -0.72,-0.51 -1.37,-1.07 -1.99,-1.68 -0.48,-0.53 -0.93,-1.08 -1.35,-1.64 -0.34,-0.44 -0.85,-0.68 -1.37,-0.68 -0.34,0 -0.68,0.1 -0.98,0.32 -0.73,0.53 -0.91,1.61 -0.36,2.35 1.36,1.77 2.89,3.44 4.86,4.55 1.7,0.96 3.58,1.45 5.55,1.48 1.82,0.01 3.55,-0.35 5.29,-0.78 1.84,-0.45 3.64,-1.03 5.48,-1.5 1.88,-0.43 3.76,-0.72 5.68,-0.73 0.84,0.04 1.66,0.15 2.48,0.31 1.12,0.22 2.23,-0.61 2.42,-1.72 0.18,-1.12 -0.61,-2.21 -1.72,-2.41 z"
         id="path38" />
      <path
         d="m 449.11,956.6 c 0.99,-0.32 1.79,-1.03 2.51,-1.75 0.66,-0.64 1.13,-1.47 1.58,-2.25 0.52,-0.88 0.89,-1.83 1.26,-2.78 0.73,-1.92 1.28,-3.9 1.87,-5.86 0,0.02 -0.01,0.03 -0.01,0.05 0.52,-1.7 1.03,-3.44 1.9,-4.99 0.12,-0.17 0.24,-0.34 0.38,-0.5 0.24,-0.2 0.49,-0.39 0.76,-0.56 0.68,-0.33 1.38,-0.57 2.11,-0.77 1.95,-0.44 3.92,-0.71 5.87,-1.19 2.24,-0.53 4.36,-1.38 6.09,-2.92 0.46,-0.41 0.78,-0.82 0.89,-1.44 0.1,-0.6 -0.06,-1.22 -0.41,-1.7 -0.43,-0.57 -1.15,-0.92 -1.86,-0.92 -0.45,0 -0.9,0.14 -1.27,0.44 -0.41,0.33 -0.84,0.64 -1.29,0.92 -0.91,0.46 -1.84,0.79 -2.82,1.06 -2.47,0.55 -5,0.79 -7.44,1.46 -1.84,0.49 -3.67,1.54 -4.79,3.12 -0.81,1.16 -1.35,2.46 -1.83,3.8 -0.57,1.6 -1.04,3.24 -1.52,4.86 -0.65,2.12 -1.33,4.27 -2.47,6.18 -0.2,0.29 -0.42,0.57 -0.66,0.83 -0.14,0.11 -0.27,0.21 -0.42,0.31 -0.07,0.03 -0.15,0.06 -0.23,0.09 -0.08,0.01 -0.15,0.02 -0.22,0.02 -0.17,-0.02 -0.34,-0.05 -0.51,-0.09 -0.33,-0.13 -0.65,-0.29 -0.97,-0.47 -0.96,-0.66 -1.82,-1.43 -2.64,-2.26 -0.43,-0.43 -1.2,-0.59 -1.77,-0.53 -0.64,0.07 -1.23,0.39 -1.63,0.88 -0.41,0.5 -0.6,1.15 -0.53,1.79 0.07,0.68 0.41,1.15 0.88,1.62 1.73,1.76 3.79,3.42 6.29,3.84 0.97,0.17 1.97,0.02 2.9,-0.29 z"
         id="path40" />
      <path
         d="m 453.28,971.96 c 0.96,-0.36 1.84,-0.96 2.61,-1.63 1.56,-1.35 2.71,-3.07 3.86,-4.78 1.2,-1.81 2.45,-3.57 3.98,-5.11 0.83,-0.76 1.7,-1.4 2.66,-1.98 1.59,-0.82 3.24,-1.42 4.96,-1.92 1.91,-0.56 3.86,-1.03 5.73,-1.72 0.88,-0.32 1.31,-1.37 0.98,-2.22 -0.15,-0.41 -0.49,-0.75 -0.88,-0.94 -0.22,-0.1 -0.43,-0.14 -0.64,-0.14 -0.23,0 -0.46,0.05 -0.7,0.11 -0.34,0.09 -0.69,0.17 -1.03,0.26 0.01,0 0.02,-0.01 0.03,-0.01 -0.02,0 -0.04,0.01 -0.05,0.01 -0.04,0.01 -0.09,0.02 -0.13,0.03 0.03,-0.01 0.06,-0.01 0.09,-0.02 -2.88,0.69 -5.81,1.27 -8.55,2.41 -2.32,0.96 -4.27,2.5 -5.96,4.32 -1.3,1.38 -2.35,2.98 -3.38,4.54 -0.96,1.44 -1.92,2.9 -3.14,4.14 -0.41,0.37 -0.85,0.7 -1.32,0.99 -0.43,0.21 -0.87,0.38 -1.33,0.5 -0.5,0.09 -0.99,0.13 -1.5,0.13 -0.99,-0.07 -1.94,-0.26 -2.89,-0.52 -0.89,-0.28 -1.75,-0.62 -2.61,-0.99 -0.91,-0.41 -2,-0.01 -2.42,0.91 -0.41,0.89 0,2.01 0.91,2.42 1.4,0.6 2.82,1.12 4.3,1.49 1.16,0.29 2.35,0.38 3.53,0.34 0.98,0 1.99,-0.27 2.89,-0.62 z"
         id="path42" />
      <path
         d="m 474.8,951.89 c -0.02,0.01 -0.04,0.01 -0.07,0.02 0.02,0 0.03,-0.01 0.05,-0.01 0,0 0.01,0 0.02,-0.01 z"
         id="path44" />
      <path
         d="m 481.33,973.43 c -0.07,0 -0.14,0 -0.21,0.01 -4.43,0.38 -8.55,2.53 -12.42,4.54 -3.91,2.04 -7.82,4.35 -12.11,5.49 -0.83,0.17 -1.65,0.28 -2.49,0.28 -0.43,-0.04 -0.85,-0.11 -1.26,-0.21 -0.39,-0.16 -0.77,-0.34 -1.15,-0.56 -0.5,-0.31 -1.27,-0.25 -1.79,-0.06 -0.56,0.22 -1.02,0.66 -1.26,1.19 -0.25,0.57 -0.28,1.22 -0.06,1.79 0.24,0.61 0.66,0.95 1.2,1.27 1.96,1.17 4.3,1.35 6.52,1.03 2.75,-0.39 5.39,-1.52 7.88,-2.71 2.81,-1.33 5.52,-2.82 8.27,-4.22 2.44,-1.23 4.92,-2.38 7.56,-3.08 0.52,-0.11 1.03,-0.2 1.56,-0.26 1.23,-0.15 2.15,-1.24 2.01,-2.49 -0.11,-1.17 -1.11,-2.01 -2.25,-2.01 z"
         id="path46" />
    </g>
  </g>
</svg>
