<?xml version="1.0" encoding="UTF-8" standalone="no"?>
<svg
   xmlns:dc="http://purl.org/dc/elements/1.1/"
   xmlns:cc="http://creativecommons.org/ns#"
   xmlns:rdf="http://www.w3.org/1999/02/22-rdf-syntax-ns#"
   xmlns:svg="http://www.w3.org/2000/svg"
   xmlns="http://www.w3.org/2000/svg"
   id="svg708"
   version="1.1"
   viewBox="0 0 34.117071 44.365017"
   height="44.365013mm"
   width="34.117069mm">
  <defs
     id="defs702" />
  <metadata
     id="metadata705">
    <rdf:RDF>
      <cc:Work
         rdf:about="">
        <dc:format>image/svg+xml</dc:format>
        <dc:type
           rdf:resource="http://purl.org/dc/dcmitype/StillImage" />
        <dc:title></dc:title>
      </cc:Work>
    </rdf:RDF>
  </metadata>
  <g
     transform="translate(112.05622,-166.80247)"
     id="layer1">
    <path
       className="brush"
       style="fill:#ff0000;stroke-width:0.264583"
       d="m -78.242997,168.7604 c 0.912813,-1.02394 -0.425979,-2.64848 -1.44727,-1.64042 -2.907771,3.26496 -7.572375,2.27542 -11.228916,4.05342 -3.349625,1.62983 -4.677834,5.09058 -5.532438,8.49577 -0.07408,0.29104 -0.04498,0.55562 0.0635,0.78052 -4.738689,5.56154 -8.683629,11.94858 -12.062349,18.43352 -0.127,0.12965 -0.21167,0.29898 -0.25136,0.48419 -0.16933,0.33073 -0.34131,0.66146 -0.508,0.99218 -1.25942,2.48444 -3.36285,5.95578 -2.7305,8.86884 0.35983,1.66158 1.83621,2.41829 3.36021,1.61925 1.35996,-0.71173 2.31775,-2.28071 3.29406,-3.41313 0.88636,-1.02923 1.75419,-2.07698 2.61409,-3.13002 0.52916,-0.0397 1.00012,-0.56621 0.91545,-1.13241 0.0794,-0.10055 0.1614,-0.1958 0.24077,-0.29634 2.672296,-3.38402 5.175254,-6.90562 7.498296,-10.53835 1.11125,-1.73832 2.182812,-3.50044 3.212041,-5.28902 0.42598,-0.74084 1.203855,-1.76213 1.479021,-2.76225 2.590271,-0.60061 4.913312,-2.05052 6.458479,-4.27832 2.354791,-3.40518 1.621896,-8.28145 4.624916,-11.24743 z m -7.834311,3.33375 c 1.359957,-0.23284 2.704041,-0.47096 3.958166,-0.89165 -0.410105,1.20915 -0.695855,2.48708 -1.050396,3.80471 -0.132292,0.49477 -0.288396,0.97367 -0.468313,1.42875 -0.0053,-0.003 -0.01058,-0.005 -0.01852,-0.008 -0.611187,-0.23812 -1.037166,-0.50271 -1.148291,-1.18004 -0.08731,-0.53181 0.04498,-0.89694 -0.325438,-1.35202 -0.637645,-0.78846 -2.031999,-0.31221 -2.05052,-1.60073 0.370417,-0.0714 0.740833,-0.13758 1.103313,-0.20108 z m -20.097752,33.0835 c -0.51858,0.61383 -2.12725,3.02683 -3.01096,3.37079 -1.47902,0.57414 1.54252,-6.30502 1.87061,-6.95061 0.09,-0.17462 0.18521,-0.3466 0.27516,-0.52387 0.97103,0.53181 1.86003,1.16417 2.667,1.91558 -0.59266,0.73554 -1.19327,1.46579 -1.80181,2.18811 z m 7.532689,-9.81604 c -1.434039,2.06375 -2.931579,4.07987 -4.479399,6.05895 -0.8837,-0.8546 -1.88383,-1.56104 -2.9845,-2.11402 0.80698,-1.50812 1.62984,-3.00302 2.48973,-4.47939 2.69875,-4.6355 5.810252,-8.96144 8.815919,-13.39057 1.529292,0.64559 3.07975,1.44198 2.7305,3.44488 -0.209021,1.19327 -1.643062,2.84692 -2.275417,3.88144 -1.367895,2.24366 -2.799291,4.445 -4.296833,6.59871 z m 8.792104,-13.31913 c -0.965729,-1.20121 -2.852208,-2.06375 -4.278312,-2.67229 0.502708,-1.88648 1.166812,-3.81794 2.606146,-5.18054 0.735541,-0.69586 1.613958,-1.13771 2.547937,-1.44463 0.150813,1.23031 1.071563,2.08492 2.256896,2.46592 0.0079,0.2196 -0.01058,0.46566 0.02646,0.635 0.0979,0.42333 0.304271,0.82814 0.566209,1.1721 0.420687,0.55563 0.986895,0.96044 1.645707,1.11919 -1.190624,1.95262 -2.963332,3.3311 -5.371041,3.90525 z"
       id="path662" />
  </g>
</svg>
