<?xml version="1.0" encoding="UTF-8" standalone="no"?>
<svg
   xmlns:dc="http://purl.org/dc/elements/1.1/"
   xmlns:cc="http://creativecommons.org/ns#"
   xmlns:rdf="http://www.w3.org/1999/02/22-rdf-syntax-ns#"
   xmlns:svg="http://www.w3.org/2000/svg"
   xmlns="http://www.w3.org/2000/svg"
   id="svg708"
   version="1.1"
   viewBox="0 0 24.804045 35.675029"
   height="35.675026mm"
   width="24.804045mm">
  <defs
     id="defs702" />
  <metadata
     id="metadata705">
    <rdf:RDF>
      <cc:Work
         rdf:about="">
        <dc:format>image/svg+xml</dc:format>
        <dc:type
           rdf:resource="http://purl.org/dc/dcmitype/StillImage" />
        <dc:title></dc:title>
      </cc:Work>
    </rdf:RDF>
  </metadata>
  <g
     transform="translate(132.75069,-153.27664)"
     id="layer1">
    <path
       className="bulb"
       style="fill:#ff0000;stroke-width:0.264583"
       d="m -112.73891,155.50429 c -3.937,-3.07181 -9.76312,-2.82046 -13.82977,-0.14287 -4.39737,2.89454 -6.5405,8.382 -6.13304,13.52814 0.43127,5.44777 3.49779,10.26055 7.96396,13.22917 -0.25665,1.66158 -0.26194,3.52689 -0.0503,5.13556 0.22225,1.70392 1.59544,1.47108 3.02419,1.53194 1.09802,0.0476 3.51366,0.63235 4.06929,-0.72761 0.28839,-0.70114 0.21696,-1.7092 0.24341,-2.45797 0.0317,-0.889 0.0185,-1.778 -0.0238,-2.667 8.94027,-4.89479 13.6869,-20.447 4.73604,-27.42936 z m -9.46943,17.19263 c -0.0106,0.5371 -0.0212,1.08479 -0.0476,1.63248 -0.93398,-0.78052 -1.48167,-2.43417 -1.48167,-3.56923 -0.003,-0.30956 0.0132,-0.61913 0.0503,-0.92604 0.79375,-0.60325 1.2012,-0.52388 1.23031,0.23812 0.4736,0.60325 0.26194,1.88648 0.24871,2.62467 z m 1.06891,3.32846 c 0.32015,0.0291 0.61913,0.0106 0.89959,-0.0476 0.25929,2.21456 0.64029,4.33123 0.92339,5.67002 -1.17739,0.21167 -2.35479,0.24077 -3.55864,0.0926 -0.0767,-0.0476 -0.15082,-0.10054 -0.2249,-0.14816 -0.0106,-0.0926 -0.0397,-0.17992 -0.082,-0.25929 1.25148,-1.53459 1.79652,-3.37079 2.04258,-5.30754 z m 1.93411,-2.413 c -0.003,-0.8599 -0.26988,-3.65919 0.29104,-4.31271 0.96044,-1.11654 0.79904,1.10331 0.74348,1.60602 -0.11113,0.99483 -0.42863,1.95527 -1.03452,2.71198 0,-0.003 0,-0.005 0,-0.005 z m -3.95817,11.16277 c 0.0159,-0.56621 0.0423,-1.13242 0.0635,-1.69598 1.35467,0.2196 2.69346,0.21431 4.0296,0.003 0.0371,0.0344 0.0794,0.0662 0.12171,0.0953 0.008,0.43656 0.003,0.87048 -0.005,1.30704 -1.40229,0.0556 -2.8231,0.10848 -4.20952,0.29105 z m 4.07194,2.20397 c -0.0106,0.10584 -0.0212,0.20903 -0.0318,0.31486 -0.46302,0.15346 -1.64042,-0.12171 -2.09021,-0.14552 -0.4736,-0.0238 -1.48431,0.12171 -1.89442,-0.0979 -0.254,-0.13494 -0.13493,-0.0132 -0.037,-0.42598 0.0397,-0.16933 0.0185,-0.39158 -0.003,-0.60325 0.003,0 0.005,0 0.0106,0 1.37054,0.0212 2.7596,-0.0979 4.1275,-0.20637 -0.003,0.0635 -0.005,0.12964 -0.0106,0.19579 -0.0159,0.32544 -0.0503,0.64558 -0.0714,0.96837 z m 0.87048,-6.00075 c -0.46302,-1.79916 -0.77523,-3.62743 -0.90752,-5.48216 0.93927,-0.65881 1.55839,-1.82827 1.92616,-3.03213 0.42598,-1.38641 0.85725,-5.02179 -1.21708,-5.47422 -2.13254,-0.46567 -2.33363,3.48985 -1.96585,7.59618 -0.21961,0.10054 -0.42863,0.15875 -0.62971,0.17727 0.0106,-0.1561 0.0212,-0.30956 0.0291,-0.46566 0.10319,-1.83886 0.5424,-5.64092 -1.61396,-6.60665 -2.14577,-0.96308 -2.47385,1.90236 -2.43681,3.31788 0.0503,1.93145 0.87842,3.92906 2.66965,4.70693 -0.20638,1.83092 -0.70115,3.60098 -1.94998,5.00327 -3.96346,-3.13531 -6.50611,-7.98777 -6.36059,-13.10216 0.1614,-5.69119 3.67771,-11.16542 9.59115,-12.04384 6.4135,-0.95514 10.96698,4.34975 10.91935,10.4828 -0.0423,5.96635 -3.21733,11.57816 -8.05391,14.92249 z"
       id="path12" />
  </g>
</svg>
