<?xml version="1.0" encoding="UTF-8" standalone="no"?>
<svg
   xmlns:dc="http://purl.org/dc/elements/1.1/"
   xmlns:cc="http://creativecommons.org/ns#"
   xmlns:rdf="http://www.w3.org/1999/02/22-rdf-syntax-ns#"
   xmlns:svg="http://www.w3.org/2000/svg"
   xmlns="http://www.w3.org/2000/svg"
   id="svg708"
   version="1.1"
   viewBox="0 0 36.476735 30.795806"
   height="30.795805mm"
   width="36.476734mm">
  <defs
     id="defs702" />
  <metadata
     id="metadata705">
    <rdf:RDF>
      <cc:Work
         rdf:about="">
        <dc:format>image/svg+xml</dc:format>
        <dc:type
           rdf:resource="http://purl.org/dc/dcmitype/StillImage" />
        <dc:title></dc:title>
      </cc:Work>
    </rdf:RDF>
  </metadata>
  <g
     transform="translate(96.475098,-206.85424)"
     id="layer1">
    <g
       transform="matrix(0.26458333,0,0,0.26458333,-210.1965,85.569151)"
       className="callout"
       style="fill:#008000"
       id="g432">
      <path
         d="m 468.52,539.21 c 0.04,-0.03 0.08,-0.06 0.12,-0.09 -0.02,0.01 -0.03,0.03 -0.05,0.04 -0.03,0.01 -0.05,0.03 -0.07,0.05 z"
         id="path420" />
      <path
         d="m 559.93,509 c 0.01,-0.03 0.02,-0.06 0.04,-0.1 -0.02,0.06 -0.05,0.12 -0.07,0.18 0.01,-0.03 0.02,-0.05 0.03,-0.08 z"
         id="path422" />
      <path
         d="m 563.33,514.15 c 3.24,-6.69 4.46,-14.38 4.34,-21.77 -0.13,-7.27 -1.72,-14.78 -5.5,-21.05 -1.1,-1.82 -2.42,-3.46 -3.93,-4.92 -0.9,-0.87 -1.87,-1.67 -2.9,-2.4 -2.39,-1.7 -5.25,-2.65 -8.06,-3.39 -6.02,-1.59 -12.36,-2.06 -18.57,-2.19 -7.47,-0.16 -14.94,0.34 -22.35,1.2 -7.85,0.91 -15.65,2.25 -23.35,4.04 -7.14,1.65 -14.18,3.71 -21,6.35 -5.56,2.15 -11.1,4.68 -15.94,8.19 -9.51,6.94 -13.69,18.98 -15.36,30.21 -0.92,6.11 -1.13,12.34 -0.64,18.5 0.38,4.76 1.15,9.56 2.62,14.12 -0.35,0.58 -0.58,1.27 -0.51,1.9 0.51,4.98 1.32,9.9 2.18,14.83 0.42,2.4 0.85,4.8 1.32,7.19 0.45,2.38 0.95,4.72 1.66,7.03 0.41,1.32 1.43,2.36 2.8,2.7 1.65,0.4 3.51,-0.38 4.3,-1.9 1.01,-1.97 2.23,-3.83 3.37,-5.72 1.26,-2.08 2.51,-4.18 3.78,-6.26 2.39,-3.94 4.86,-7.83 7.56,-11.56 2.77,-3.67 5.83,-7.11 9.38,-10.03 -0.11,0.09 -0.23,0.18 -0.34,0.26 0.14,-0.11 0.27,-0.21 0.41,-0.32 0.08,-0.06 0.16,-0.13 0.24,-0.19 -0.06,0.05 -0.12,0.1 -0.19,0.15 1.04,-0.8 2.11,-1.57 3.21,-2.27 1.16,-0.75 2.41,-1.36 3.66,-1.93 2.98,-1.2 6.07,-1.93 9.23,-2.4 7.06,-0.95 14.22,-0.83 21.33,-0.67 7.64,0.19 15.3,0.52 22.94,0.12 3.67,-0.19 7.34,-0.59 10.94,-1.26 3.37,-0.63 6.6,-1.66 9.72,-3.06 2.93,-1.32 5.63,-3.22 7.95,-5.43 2.39,-2.26 4.26,-5.1 5.7,-8.07 z m -10.66,5.2 c -1.71,1.28 -3.55,2.31 -5.49,3.18 -3.41,1.41 -6.99,2.28 -10.63,2.85 -7.21,1 -14.52,0.92 -21.78,0.74 -7.55,-0.18 -15.13,-0.58 -22.69,-0.24 -3.56,0.15 -7.08,0.52 -10.57,1.15 -4.1,0.75 -8.03,2.17 -11.71,4.14 -8.78,4.7 -15.02,12.71 -20.54,20.78 -2,2.93 -3.89,5.94 -5.82,8.91 -0.27,-1.58 -0.56,-3.16 -0.83,-4.74 -0.83,-4.82 -1.77,-9.61 -3.38,-14.23 -0.32,-0.9 -0.89,-1.65 -1.65,-2.11 -0.89,-2.76 -1.52,-5.6 -1.97,-8.47 -0.91,-6.37 -1,-12.83 -0.36,-19.22 0.61,-5.47 1.77,-10.88 3.71,-16.04 1.18,-2.97 2.62,-5.81 4.46,-8.43 1.4,-1.87 2.97,-3.58 4.79,-5.04 3.75,-2.83 7.97,-4.99 12.26,-6.87 -0.04,0.02 -0.09,0.04 -0.13,0.06 6.16,-2.63 12.54,-4.67 19,-6.39 7.2,-1.92 14.53,-3.37 21.9,-4.46 6.42,-0.92 12.88,-1.57 19.35,-1.83 5.86,-0.25 11.75,-0.15 17.58,0.48 3.9,0.47 7.81,1.17 11.5,2.51 1.27,0.52 2.44,1.17 3.55,1.95 1.26,0.96 2.36,2.07 3.37,3.29 1.3,1.71 2.36,3.57 3.24,5.54 1.23,2.96 2.03,6.06 2.53,9.23 0.53,3.97 0.57,7.98 0.18,11.95 -0.44,3.71 -1.26,7.36 -2.58,10.87 0.04,-0.09 0.08,-0.19 0.12,-0.28 -0.05,0.13 -0.1,0.25 -0.15,0.38 -0.03,0.08 -0.06,0.17 -0.09,0.25 0.02,-0.06 0.04,-0.11 0.06,-0.17 -0.93,2.23 -2.05,4.36 -3.45,6.34 -1.11,1.44 -2.38,2.75 -3.78,3.92 z"
         id="path424" />
      <circle
         cx="462.17001"
         cy="499.87"
         r="6.9400001"
         id="circle426" />
      <circle
         cx="493"
         cy="499.22"
         r="6.8099999"
         id="circle428" />
      <circle
         cx="518.82001"
         cy="496.14001"
         r="6.4299998"
         id="circle430" />
    </g>
  </g>
</svg>
