<?xml version="1.0" encoding="UTF-8" standalone="no"?>
<svg
   xmlns:dc="http://purl.org/dc/elements/1.1/"
   xmlns:cc="http://creativecommons.org/ns#"
   xmlns:rdf="http://www.w3.org/1999/02/22-rdf-syntax-ns#"
   xmlns:svg="http://www.w3.org/2000/svg"
   xmlns="http://www.w3.org/2000/svg"
   id="svg708"
   version="1.1"
   viewBox="0 0 48.302363 26.047861"
   height="26.047859mm"
   width="48.302361mm">
  <defs
     id="defs702" />
  <metadata
     id="metadata705">
    <rdf:RDF>
      <cc:Work
         rdf:about="">
        <dc:format>image/svg+xml</dc:format>
        <dc:type
           rdf:resource="http://purl.org/dc/dcmitype/StillImage" />
        <dc:title></dc:title>
      </cc:Work>
    </rdf:RDF>
  </metadata>
  <g
     transform="translate(117.42313,-157.55696)"
     id="layer1">
    <g
       transform="matrix(0.26458333,0,0,0.26458333,-209.11347,-26.889376)"
       className="car"
       style="fill:#ff0000"
       id="g648">
      <path
         d="m 529.06,749.4 c -0.06,-0.91 -0.41,-1.84 -0.76,-2.68 -0.39,-0.95 -1.02,-1.85 -1.63,-2.68 -0.72,-0.97 -1.63,-1.83 -2.52,-2.63 -1,-0.9 -2.03,-1.73 -3.14,-2.46 -3.47,-2.28 -7.54,-3.4 -11.64,-3.79 -4.11,-0.39 -8.29,0 -12.37,0.5 -3.9,0.47 -7.79,1.12 -11.71,1.47 -0.69,0.05 -1.39,0.1 -2.08,0.13 -1.89,0.02 -3.77,-0.08 -5.63,-0.45 -0.76,-0.21 -1.5,-0.46 -2.22,-0.79 -0.18,-0.12 -0.36,-0.25 -0.53,-0.39 -0.36,-0.39 -0.68,-0.81 -0.98,-1.25 -0.79,-1.43 -1.39,-2.94 -1.96,-4.47 -0.64,-1.65 -1.22,-3.33 -2.14,-4.84 -2.52,-4.08 -5.38,-7.96 -8.55,-11.55 -3.2,-3.61 -6.81,-6.92 -10.87,-9.52 -3.87,-2.48 -8.25,-4.28 -12.67,-5.47 -1.96,-0.53 -3.94,-0.94 -5.96,-1.19 -1.29,-0.16 -2.58,-0.22 -3.87,-0.22 -0.75,0 -1.49,0.02 -2.24,0.05 -3.56,0.14 -7.07,1.01 -10.39,2.28 -6.75,2.57 -12.37,7.37 -17.2,12.63 -7.5,8.16 -12.98,17.97 -18.26,27.66 -1.52,-0.22 -3.05,-0.43 -4.57,-0.67 -2.28,-0.37 -4.57,-0.73 -6.86,-0.98 -2.2,-0.24 -4.39,-0.26 -6.6,-0.14 -2.05,0.12 -3.97,0.79 -5.87,1.55 -4.12,1.65 -10.16,4.77 -9.19,10.2 0.37,2.1 1.88,3.79 3.61,4.97 1.77,1.19 3.8,2.03 5.82,2.73 2.53,0.87 5.15,1.49 7.75,2.08 2.55,0.57 5.11,1.04 7.69,1.45 3.99,0.64 8.02,1.15 12.06,1.44 -0.41,1.2 -0.75,2.44 -0.92,3.72 -0.43,3.24 0.21,6.56 1.4,9.57 1.22,3.06 3.29,5.64 5.69,7.87 2.3,2.13 5.3,3.64 8.33,4.39 1.7,0.43 3.36,0.66 5.12,0.62 2.02,-0.06 3.89,-0.37 5.81,-1 1.8,-0.57 3.36,-1.44 4.95,-2.44 1.61,-1.01 2.93,-2.34 4.21,-3.72 2.5,-2.7 4.1,-6.21 4.62,-9.85 0.43,-3 -0.24,-6.14 -1.77,-8.76 8.77,0.09 17.54,0.22 26.31,0.55 3.26,0.12 6.51,0.34 9.74,0.6 -0.13,0.15 -0.28,0.28 -0.4,0.44 -1.8,2.27 -2.75,5.15 -3.07,8.01 -0.32,3 0.25,6 1.18,8.85 0.9,2.75 2.48,5.35 4.37,7.55 2.03,2.35 4.57,4.21 7.42,5.44 2.99,1.3 6.36,1.62 9.56,1.16 3.8,-0.54 7.4,-2.39 10.25,-4.94 2.95,-2.61 5.15,-6.09 6.43,-9.8 1.52,-4.35 1.8,-9.3 0.34,-13.67 6.35,-0.06 12.69,-0.73 18.8,-2.52 4.29,-1.26 8.45,-2.79 12.16,-5.35 1.38,-0.95 2.67,-2.23 3.57,-3.65 0.47,-0.75 0.87,-1.54 1.11,-2.38 0.32,-1.28 0.37,-2.34 0.27,-3.66 z m -7.58,1.33 c -0.05,0.13 -0.1,0.26 -0.16,0.39 -0.19,0.28 -0.39,0.54 -0.6,0.8 -0.63,0.58 -1.31,1.09 -2.02,1.56 -2.64,1.54 -5.53,2.61 -8.45,3.52 -4.86,1.43 -9.84,2.14 -14.88,2.37 -10.83,0.29 -21.57,-1.39 -32.3,-2.59 -11.22,-1.26 -22.54,-1.47 -33.8,-1.69 -11.64,-0.22 -23.29,-0.28 -34.92,-0.42 -3.22,-0.04 -6.46,0.01 -9.67,-0.22 -1.9,-0.14 -3.79,-0.35 -5.67,-0.57 -5.01,-0.6 -10.01,-1.4 -14.92,-2.53 -2.91,-0.71 -5.87,-1.51 -8.56,-2.86 0.02,-0.01 0.03,-0.02 0.05,-0.03 1.6,-0.92 3.31,-1.66 5.04,-2.28 0.97,-0.24 1.96,-0.36 2.96,-0.42 2.75,-0.01 5.47,0.33 8.18,0.69 1.37,0.18 2.74,0.36 4.11,0.53 1.41,0.15 2.82,0.21 4.23,0.29 1.87,0.09 3.6,-1.06 3.99,-2.91 0.12,-0.18 0.23,-0.37 0.34,-0.58 0.48,-0.9 0.98,-1.78 1.47,-2.68 -0.12,0.22 -0.25,0.46 -0.39,0.69 5.24,-9.52 10.79,-19.08 18.3,-27.02 2.58,-2.62 5.37,-5 8.46,-6.98 2.24,-1.36 4.6,-2.47 7.09,-3.29 2.44,-0.71 4.93,-1.12 7.47,-1.21 2.63,0 5.24,0.31 7.81,0.88 3.55,0.91 7,2.25 10.24,3.96 2.88,1.66 5.5,3.67 7.92,5.93 4.27,4.18 7.85,8.99 11.08,14.02 0.81,1.45 1.34,3.02 1.91,4.58 0.76,2.12 1.59,4.18 2.82,6.07 0.55,0.83 1.16,1.51 1.9,2.19 0.77,0.73 1.69,1.22 2.64,1.7 1.74,0.89 3.74,1.31 5.64,1.59 1.98,0.28 3.97,0.22 5.96,0.15 2.12,-0.07 4.23,-0.3 6.35,-0.57 4.39,-0.52 8.78,-1.21 13.21,-1.4 2.53,-0.04 5.04,0.12 7.52,0.65 1.37,0.37 2.69,0.86 3.97,1.51 1.26,0.75 2.41,1.63 3.51,2.61 0.62,0.63 1.2,1.29 1.71,2.02 0.15,0.29 0.29,0.58 0.41,0.88 0.03,0.14 0.05,0.29 0.07,0.43 0,0.09 -0.01,0.16 -0.02,0.24 z"
         id="path644" />
      <path
         d="m 445.64,726.59 c -0.61,-2.17 -1.7,-4.1 -3.13,-5.81 -1.26,-1.52 -2.88,-2.74 -4.59,-3.71 -1.88,-1.05 -3.86,-1.74 -6,-2.09 -0.82,-0.13 -1.66,-0.14 -2.49,-0.14 -0.15,0 -0.3,0 -0.45,0 -0.95,0 -1.91,0.04 -2.86,0.15 -1.56,0.15 -3.2,0.58 -4.59,1.33 -2.38,1.29 -3.96,3.56 -4.73,6.1 -0.89,2.88 -0.95,5.95 -1.05,8.94 -0.07,1.77 -0.13,3.54 -0.23,5.31 -0.12,0.07 -0.24,0.16 -0.36,0.25 -0.61,0.5 -1,1.22 -1.08,1.99 -0.12,1.23 0.62,2.71 1.88,3.07 3.61,1.05 7.37,1.66 11.12,2.03 1.98,0.19 3.94,0.22 5.94,0.12 1.92,-0.1 3.85,-0.53 5.62,-1.29 0.82,-0.35 1.58,-0.89 2.28,-1.4 0.72,-0.51 1.31,-1.18 1.88,-1.84 0.76,-0.91 1.31,-2.03 1.87,-3.09 0.65,-1.22 0.97,-2.53 1.27,-3.86 0.25,-1.07 0.25,-2.19 0.19,-3.27 -0.08,-0.94 -0.23,-1.87 -0.49,-2.79 z m -5.49,5.12 c -0.22,0.76 -0.5,1.48 -0.84,2.2 -0.41,0.7 -0.86,1.37 -1.38,1.98 -0.22,0.2 -0.45,0.39 -0.7,0.57 -0.42,0.22 -0.85,0.4 -1.3,0.57 -1.22,0.33 -2.46,0.5 -3.73,0.58 -2.59,0.03 -5.17,-0.26 -7.73,-0.62 -1.33,-0.19 -2.66,-0.4 -4,-0.58 -0.29,-0.04 -0.57,-0.07 -0.86,-0.09 0.09,-1.51 0.15,-3.03 0.21,-4.54 0.1,-2.45 0.19,-4.94 0.73,-7.34 0.2,-0.71 0.45,-1.4 0.77,-2.05 0.21,-0.35 0.45,-0.68 0.71,-1 0.25,-0.24 0.51,-0.46 0.8,-0.65 0.53,-0.29 1.07,-0.53 1.64,-0.73 1.03,-0.27 2.06,-0.4 3.1,-0.45 1.45,-0.01 2.89,0.08 4.3,0.37 0.9,0.25 1.76,0.59 2.59,1.01 0.88,0.52 1.68,1.11 2.44,1.77 0.74,0.75 1.42,1.55 2.02,2.42 0.42,0.74 0.78,1.52 1.07,2.34 0.18,0.69 0.3,1.38 0.36,2.08 0,0.72 -0.07,1.44 -0.2,2.16 z"
         id="path646" />
    </g>
  </g>
</svg>
