<?xml version="1.0" encoding="UTF-8" standalone="no"?>
<svg
   xmlns:dc="http://purl.org/dc/elements/1.1/"
   xmlns:cc="http://creativecommons.org/ns#"
   xmlns:rdf="http://www.w3.org/1999/02/22-rdf-syntax-ns#"
   xmlns:svg="http://www.w3.org/2000/svg"
   xmlns="http://www.w3.org/2000/svg"
   id="svg708"
   version="1.1"
   viewBox="0 0 35.816552 33.043296"
   height="33.043293mm"
   width="35.816551mm">
  <defs
     id="defs702" />
  <metadata
     id="metadata705">
    <rdf:RDF>
      <cc:Work
         rdf:about="">
        <dc:format>image/svg+xml</dc:format>
        <dc:type
           rdf:resource="http://purl.org/dc/dcmitype/StillImage" />
        <dc:title></dc:title>
      </cc:Work>
    </rdf:RDF>
  </metadata>
  <g
     transform="translate(219.37043,-180.02661)"
     id="layer1">
    <g
       transform="matrix(0.26458333,0,0,0.26458333,-387.05336,-124.07352)"
       className="face"
       style="fill:#ffa500"
       id="g416">
      <path
         d="m 639.51,1262.55 c -0.01,-0.05 -0.02,-0.1 -0.03,-0.15 0.01,0.03 0.01,0.05 0.02,0.08 0,0.03 0,0.05 0.01,0.07 z"
         id="path394" />
      <path
         d="m 642.66,1273.86 c 0.93,-0.66 1.23,-2.08 0.51,-3 -0.61,-0.79 -1.14,-1.62 -1.62,-2.48 -0.92,-1.86 -1.56,-3.81 -2.05,-5.82 0.01,0.04 0.02,0.09 0.03,0.13 -0.01,-0.07 -0.03,-0.14 -0.04,-0.2 -0.03,-0.12 -0.06,-0.23 -0.08,-0.35 0.02,0.09 0.04,0.18 0.07,0.27 -0.99,-4.73 -1.16,-9.57 -1.15,-14.39 0.01,-2.32 0.09,-4.64 0.13,-6.95 0.05,-2.32 0.06,-4.63 0.15,-6.93 0.51,-10.92 2.18,-21.86 5.32,-32.35 2.24,-7.2 5.16,-14.21 9.11,-20.65 2.75,-4.32 5.98,-8.28 9.73,-11.78 3.19,-2.85 6.66,-5.35 10.43,-7.4 3.87,-1.98 7.94,-3.5 12.16,-4.51 5.24,-1.13 10.57,-1.58 15.92,-1.41 6.26,0.31 12.47,1.46 18.49,3.24 5.47,1.71 10.72,4 15.61,6.98 4.17,2.65 8.01,5.76 11.41,9.34 3.38,3.7 6.25,7.78 8.63,12.18 2.65,5.15 4.59,10.61 5.88,16.24 1.48,6.96 2,14.05 1.79,21.16 0,-0.02 0,-0.03 0,-0.05 0,0.02 0,0.04 0,0.05 -0.01,0.24 -0.01,0.48 -0.02,0.72 0,-0.19 0.01,-0.37 0.01,-0.54 -0.32,7.21 -1.36,14.35 -2.81,21.41 -0.7,3.44 -1.52,6.86 -2.27,10.3 -0.4,1.83 -0.76,3.67 -1.12,5.5 -0.36,1.84 -0.74,3.71 -0.9,5.58 -0.09,0.52 -0.04,1.03 0.13,1.52 0.28,0.76 0.86,1.39 1.59,1.72 1.43,0.65 3.37,0.04 3.97,-1.49 0.94,-2.4 1.59,-4.92 2.23,-7.4 0.68,-2.62 1.27,-5.25 1.79,-7.9 0.99,-5.08 1.75,-10.19 2.36,-15.32 0.13,-1.1 0.25,-2.19 0.35,-3.29 0.77,-7.82 1.04,-15.72 0.28,-23.54 -1.34,-13.79 -6.1,-27.44 -14.88,-38.28 -4.33,-5.32 -9.51,-9.9 -15.31,-13.54 -3.13,-1.97 -6.37,-3.7 -9.76,-5.14 -3.6,-1.55 -7.36,-2.75 -11.14,-3.75 -7.82,-2.08 -16.09,-2.83 -24.14,-2.13 -3.97,0.34 -7.88,1.14 -11.7,2.27 -3.82,1.12 -7.45,2.69 -10.94,4.56 -7.19,3.86 -13.43,9.42 -18.37,15.88 -4.99,6.53 -8.66,14.05 -11.37,21.78 -2.83,8.03 -4.73,16.39 -5.92,24.8 -0.57,4.03 -0.94,8.1 -1.15,12.18 -0.2,3.72 -0.19,7.46 -0.21,11.18 -0.05,5.44 -0.11,10.89 0.58,16.3 0.65,5.2 2.06,10.54 5.3,14.76 0.71,0.95 2.01,1.23 2.99,0.54 z"
         id="path396" />
      <path
         d="m 763.09,1225.19 c 0,0.06 -0.01,0.12 -0.01,0.18 0.01,-0.06 0.01,-0.12 0.01,-0.18 0,0 0,0 0,0 z"
         id="path398" />
      <path
         d="m 671.57,1187.59 c -1.63,0.62 -2.91,1.77 -4.08,3.02 -0.84,0.89 -0.8,2.4 -0.13,3.35 0.05,0.07 0.1,0.14 0.16,0.2 -0.18,0.23 -0.36,0.47 -0.53,0.71 -1.82,2.52 -3.2,5.33 -4.29,8.21 -2.36,6.18 -3.44,12.95 -3.11,19.55 0.3,6.11 2.19,12.43 6.93,16.57 0.99,0.88 2.2,1.53 3.48,1.88 1.24,0.34 2.54,0.33 3.78,0 2.6,-0.66 4.7,-2.53 6.42,-4.49 2.09,-2.36 3.71,-5.13 5.16,-7.9 1.34,-2.54 2.5,-5.16 3.5,-7.84 1.45,-3.94 2.37,-8.13 2.78,-12.32 0.06,-0.61 0.11,-1.21 0.15,-1.82 0.17,-2.62 0.17,-5.25 -0.21,-7.84 -0.37,-2.49 -1.1,-4.85 -2.37,-7.03 -1.17,-2.03 -3.08,-3.65 -5.22,-4.57 -2.61,-1.13 -5.58,-1.17 -8.35,-0.72 -1.35,0.22 -2.76,0.53 -4.07,1.04 z m 10.23,4.37 c 0.49,0.18 0.96,0.39 1.42,0.64 0.49,0.33 0.93,0.69 1.34,1.1 0.5,0.6 0.93,1.24 1.31,1.93 0.53,1.13 0.91,2.32 1.19,3.55 0.45,2.36 0.57,4.75 0.49,7.14 -0.21,4.17 -0.88,8.34 -2.1,12.34 -0.58,1.83 -1.31,3.62 -2.06,5.4 -0.98,2.29 -2.12,4.53 -3.4,6.68 -1.15,1.86 -2.46,3.61 -4.03,5.13 -0.62,0.55 -1.27,1.03 -1.98,1.45 -0.45,0.21 -0.9,0.39 -1.37,0.52 -0.36,0.06 -0.73,0.09 -1.1,0.09 -0.34,-0.04 -0.66,-0.1 -0.98,-0.17 -0.44,-0.15 -0.86,-0.35 -1.26,-0.58 -0.7,-0.48 -1.32,-1.03 -1.91,-1.63 -0.95,-1.09 -1.79,-2.27 -2.48,-3.54 -0.81,-1.66 -1.38,-3.4 -1.79,-5.2 -0.57,-2.85 -0.73,-5.77 -0.63,-8.67 0.2,-3.94 0.88,-7.82 2.01,-11.6 0.96,-3.04 2.2,-5.97 3.86,-8.69 0.64,-0.99 1.33,-1.95 2.09,-2.85 0.28,-0.08 0.55,-0.22 0.79,-0.41 0.76,-0.6 1.55,-1.16 2.4,-1.64 0.94,-0.44 1.9,-0.75 2.91,-1 1.09,-0.21 2.2,-0.33 3.31,-0.32 0.67,0.06 1.32,0.16 1.97,0.33 z"
         id="path400" />
      <path
         d="m 734.97,1218.5 c 0.01,-0.02 0.01,-0.04 0.02,-0.06 -0.01,0.04 -0.02,0.08 -0.04,0.11 0.01,-0.01 0.02,-0.03 0.02,-0.05 z"
         id="path402" />
      <path
         d="m 713.94,1195.22 c 0.42,0.59 1.05,1.01 1.76,1.15 -1.21,2.17 -2.17,4.49 -3,6.83 -2.11,6 -3.35,12.5 -2.85,18.87 0.22,2.79 0.89,5.6 2.23,8.07 1.49,2.75 4.06,5.07 7.01,6.14 6.79,2.49 13,-3.13 16.53,-8.34 1.5,-2.22 2.81,-4.59 3.76,-7.1 0.82,-2.18 1.41,-4.45 1.83,-6.73 0.21,-1.12 0.37,-2.24 0.48,-3.36 0.14,-1.4 0.21,-2.82 0.22,-4.23 0.03,-2.53 -0.23,-5.04 -0.8,-7.52 -0.54,-2.31 -1.42,-4.51 -2.72,-6.5 -1.33,-2.06 -3.24,-3.66 -5.39,-4.79 -2.41,-1.26 -5.23,-1.59 -7.9,-1.48 -1.93,0.09 -3.85,0.55 -5.59,1.36 -1.07,0.51 -2.08,1.11 -3.02,1.84 -0.9,0.69 -1.64,1.55 -2.42,2.37 -0.88,0.87 -0.83,2.44 -0.13,3.42 z m 12.67,-2.81 c 0.9,0.06 1.79,0.19 2.67,0.42 0.66,0.23 1.29,0.51 1.91,0.86 0.6,0.41 1.15,0.87 1.66,1.38 0.58,0.68 1.08,1.41 1.52,2.18 0.68,1.37 1.17,2.82 1.53,4.3 0.53,2.58 0.68,5.19 0.6,7.82 -0.17,3.07 -0.65,6.12 -1.51,9.06 0.02,-0.06 0.04,-0.13 0.06,-0.19 -0.03,0.08 -0.05,0.16 -0.08,0.25 -0.04,0.12 -0.07,0.24 -0.11,0.36 0.03,-0.1 0.06,-0.2 0.09,-0.31 -0.73,2.21 -1.73,4.33 -2.93,6.33 -1.2,1.88 -2.56,3.64 -4.17,5.19 -0.82,0.72 -1.68,1.35 -2.64,1.9 -0.6,0.28 -1.22,0.52 -1.86,0.69 -0.52,0.09 -1.03,0.13 -1.55,0.13 -0.46,-0.05 -0.92,-0.13 -1.37,-0.25 -0.57,-0.2 -1.11,-0.45 -1.65,-0.74 -0.82,-0.54 -1.57,-1.14 -2.26,-1.83 -0.6,-0.68 -1.11,-1.42 -1.54,-2.21 -0.57,-1.17 -0.98,-2.4 -1.27,-3.67 -0.44,-2.21 -0.55,-4.46 -0.48,-6.7 0.21,-3.97 0.98,-7.89 2.13,-11.69 1.03,-3.21 2.34,-6.34 4.09,-9.22 0.67,-1.06 1.4,-2.08 2.24,-3.01 0.79,-0.35 1.59,-0.66 2.42,-0.89 0.85,-0.13 1.67,-0.17 2.5,-0.16 z"
         id="path404" />
      <path
         d="m 671.78,1203.57 c -1,2.27 -1.57,4.75 -1.98,7.19 -1.61,4.7 -2.13,9.73 -0.64,14.53 0.2,0.61 0.72,1.13 1.28,1.39 0.39,0.18 0.81,0.25 1.22,0.21 0.44,-0.05 0.85,-0.18 1.21,-0.44 0.65,-0.36 1.18,-0.96 1.66,-1.51 0.68,-0.78 1.25,-1.65 1.81,-2.52 1.5,-2.36 2.79,-4.82 3.91,-7.38 1.11,-2.54 2.06,-5.2 2.57,-7.94 0.07,-0.42 0.13,-0.84 0.18,-1.26 0.07,-0.71 0.09,-1.43 0.06,-2.14 -0.07,-1.14 -0.42,-2.23 -1.02,-3.21 -0.5,-0.84 -1.44,-1.5 -2.36,-1.81 -1.17,-0.41 -2.36,-0.45 -3.54,-0.03 -2.16,0.75 -3.49,2.96 -4.36,4.92 z"
         id="path406" />
      <path
         d="m 725.05,1200.75 c -0.34,0.51 -0.67,1.02 -0.99,1.54 -0.67,0.69 -1.18,1.51 -1.65,2.34 -0.61,1.1 -1.05,2.3 -1.43,3.5 -0.05,0.17 -0.1,0.33 -0.15,0.5 -0.56,1.36 -1.05,2.76 -1.46,4.19 -0.61,2.11 -0.9,4.29 -0.86,6.48 0.04,2.16 0.69,4.27 1.84,6.1 0.53,0.84 1.79,1.01 2.58,0.43 0.56,-0.39 1.01,-0.93 1.44,-1.47 0.67,-0.84 1.25,-1.74 1.82,-2.64 1.49,-2.38 2.81,-4.85 3.94,-7.4 0.53,-1.21 1,-2.46 1.38,-3.71 0.38,-1.2 0.7,-2.41 0.82,-3.66 0,-0.04 0.01,-0.08 0.01,-0.11 0.09,-1.08 0.03,-2.11 -0.28,-3.13 -0.31,-1.08 -1.11,-1.95 -2.06,-2.5 -0.69,-0.39 -1.46,-0.61 -2.24,-0.62 -0.03,-0.03 -0.06,-0.05 -0.09,-0.08 -0.75,-0.63 -2.07,-0.6 -2.62,0.24 z"
         id="path408" />
      <path
         d="m 689.42,1250.74 c -0.8,-0.54 -1.56,-1.14 -2.25,-1.83 -0.49,-0.57 -0.93,-1.17 -1.34,-1.81 -0.89,-1.42 -2.97,-1.66 -4.28,-0.73 -1.42,1.01 -1.63,2.87 -0.73,4.28 3.48,5.52 9.89,8.63 16.34,8.45 2.95,-0.09 6.02,-1.19 8.27,-3.09 2.57,-2.19 4.23,-5.32 4.56,-8.68 0.02,-0.24 0.04,-0.47 0.05,-0.71 0.04,-0.92 0,-1.67 -0.56,-2.46 -0.5,-0.71 -1.27,-1.2 -2.14,-1.35 -1.78,-0.3 -3.48,0.92 -3.81,2.69 -0.12,0.63 -0.25,1.26 -0.42,1.88 -0.24,0.66 -0.51,1.3 -0.85,1.91 -0.34,0.49 -0.72,0.95 -1.14,1.38 -0.44,0.36 -0.9,0.69 -1.39,0.97 -0.62,0.27 -1.24,0.49 -1.89,0.67 -0.87,0.15 -1.74,0.23 -2.61,0.23 -1,-0.08 -1.98,-0.25 -2.95,-0.52 -1,-0.34 -1.95,-0.76 -2.86,-1.28 z"
         id="path410" />
      <path
         d="m 677.81,1169.06 c -0.82,0.31 -1.61,0.75 -2.38,1.17 -0.89,0.5 -1.73,1.21 -2.36,2.03 -0.72,0.94 -0.81,2.22 -0.11,3.21 0.4,0.58 1.03,0.96 1.71,1.08 0.77,0.14 1.33,-0.1 1.99,-0.44 0.99,-0.53 1.89,-1.21 2.86,-1.77 0.82,-0.38 1.64,-0.69 2.51,-0.92 0.85,-0.16 1.7,-0.24 2.56,-0.25 0.74,0.06 1.45,0.19 2.16,0.37 0.67,0.24 1.31,0.53 1.93,0.88 0.08,0.05 0.16,0.1 0.24,0.15 0.54,0.36 1.07,0.59 1.72,0.54 0.65,-0.06 1.25,-0.37 1.66,-0.87 0.29,-0.37 0.47,-0.84 0.52,-1.32 0.08,-0.78 -0.19,-1.6 -0.86,-2.06 -1.42,-0.98 -2.89,-1.76 -4.57,-2.24 -1.58,-0.46 -3.15,-0.61 -4.8,-0.58 -1.61,0.04 -3.27,0.47 -4.78,1.02 z"
         id="path412" />
      <path
         d="m 736.42,1179.27 c 1.03,0.45 2.24,0.18 2.96,-0.69 0.32,-0.39 0.5,-0.86 0.55,-1.35 0.08,-0.81 -0.21,-1.66 -0.89,-2.17 -3.67,-2.79 -8.47,-3.76 -13,-3.71 -1.44,0.01 -2.53,1.51 -2.4,2.87 0.06,0.71 0.4,1.37 0.96,1.82 0.57,0.47 1.19,0.59 1.91,0.59 0.25,-0.01 0.5,-0.01 0.76,0 1.59,0.11 3.13,0.36 4.66,0.79 1.53,0.51 2.98,1.21 4.49,1.85 z"
         id="path414" />
    </g>
  </g>
</svg>
