<?xml version="1.0" encoding="UTF-8" standalone="no"?>
<svg
   xmlns:dc="http://purl.org/dc/elements/1.1/"
   xmlns:cc="http://creativecommons.org/ns#"
   xmlns:rdf="http://www.w3.org/1999/02/22-rdf-syntax-ns#"
   xmlns:svg="http://www.w3.org/2000/svg"
   xmlns="http://www.w3.org/2000/svg"
   id="svg708"
   version="1.1"
   viewBox="0 0 35.282026 25.87101"
   height="25.871008mm"
   width="35.282024mm">
  <defs
     id="defs702" />
  <metadata
     id="metadata705">
    <rdf:RDF>
      <cc:Work
         rdf:about="">
        <dc:format>image/svg+xml</dc:format>
        <dc:type
           rdf:resource="http://purl.org/dc/dcmitype/StillImage" />
        <dc:title></dc:title>
      </cc:Work>
    </rdf:RDF>
  </metadata>
  <g
     transform="translate(55.0027,-270.02745)"
     id="layer1">
    <g
       transform="matrix(0.26458333,0,0,0.26458333,-76.222215,85.486113)"
       className="cat"
       style="fill:#a52a2a"
       id="g322">
      <path
         d="m 128.25,747.62 c -2.83,-1.07 -6.04,0.03 -7.29,2.88 -1.15,2.68 0.06,6.22 2.88,7.29 2.83,1.07 6.04,-0.03 7.29,-2.88 1.16,-2.67 -0.06,-6.22 -2.88,-7.29 z"
         id="path310" />
      <path
         d="m 158.88,743.86 c -3.11,-1.18 -6.64,0.01 -8,3.15 -1.28,2.93 0.06,6.83 3.15,8 3.11,1.18 6.64,-0.01 8,-3.15 1.28,-2.93 -0.06,-6.83 -3.15,-8 z"
         id="path312" />
      <path
         d="m 95.01,767.27 c 0,0 0.01,-0.01 0.01,-0.01 0,0 0,0 0,0 0,0.01 -0.01,0.01 -0.01,0.01 z"
         id="path314" />
      <path
         d="m 96.58,780.26 c 0.05,-0.04 0.09,-0.09 0.13,-0.13 -0.02,0.02 -0.04,0.04 -0.06,0.06 -0.02,0.02 -0.05,0.05 -0.07,0.07 z"
         id="path316" />
      <path
         d="m 213.53,763.54 c 0.08,-0.56 -0.1,-0.98 -0.37,-1.46 -1.99,-3.44 -4.69,-6.37 -7.98,-8.56 -1.57,-1.04 -3.25,-1.88 -4.99,-2.54 -1.76,-0.67 -3.59,-1.16 -5.44,-1.5 -1.31,-0.24 -2.65,-0.35 -3.98,-0.41 0.03,-0.9 0.05,-1.79 0.06,-2.68 0.03,-2.98 -0.22,-5.98 -0.52,-8.95 -0.06,-0.64 -0.16,-1.27 -0.24,-1.91 0.1,-0.17 0.21,-0.34 0.29,-0.52 0.48,-1.11 0.36,-2.11 0.04,-3.22 -0.45,-1.57 -0.89,-3.12 -1.3,-4.68 -1.05,-4.25 -1.9,-8.55 -2.62,-12.86 -0.36,-2.17 -0.67,-4.35 -0.99,-6.54 -0.34,-2.38 -0.81,-4.74 -1.12,-7.12 -0.18,-1.31 -1.06,-2.42 -2.26,-2.88 -0.23,-0.09 -0.47,-0.15 -0.72,-0.19 -1.65,-0.25 -3,0.67 -3.75,2.08 -2.32,4.34 -4.85,8.56 -7.37,12.8 0.14,-0.25 0.29,-0.48 0.43,-0.73 -1.75,2.93 -3.55,5.85 -5.47,8.69 -1.25,1.82 -2.58,3.62 -4.11,5.21 -0.73,0.68 -1.57,1.23 -2.43,1.74 -1.3,0.69 -2.66,1.2 -4.07,1.6 -3.31,0.82 -6.72,1.23 -10.08,1.76 -2.43,0.37 -4.87,0.78 -7.29,1.21 -2.78,0.51 -5.59,0.94 -8.43,0.98 -1.32,-0.04 -2.66,-0.18 -3.97,-0.48 -0.58,-0.2 -1.15,-0.45 -1.69,-0.74 -0.66,-0.44 -1.27,-0.93 -1.84,-1.48 -2.13,-2.29 -3.82,-4.97 -5.84,-7.36 -3.3,-3.94 -7.25,-7.19 -11.69,-9.77 -0.63,-0.38 -1.61,-0.29 -2.25,-0.04 -0.99,0.41 -1.52,1.24 -1.76,2.25 -0.65,2.82 -1.26,5.63 -1.75,8.46 -0.49,3.02 -0.85,6.06 -1.11,9.1 -0.33,4.12 -0.43,8.28 -0.25,12.42 -0.16,0.39 -0.24,0.79 -0.23,1.26 0.04,4.65 0.55,9.34 1.66,13.87 -1.73,0.52 -3.41,1.21 -5.01,2.06 -4.9,2.63 -9.04,6.59 -12.25,11.09 -0.82,1.15 -0.72,2.72 0.43,3.63 1.08,0.84 2.79,0.7 3.61,-0.43 1.21,-1.67 2.54,-3.22 3.97,-4.69 1.88,-1.8 3.92,-3.37 6.16,-4.71 -0.13,0.07 -0.25,0.14 -0.38,0.21 0.13,-0.07 0.26,-0.14 0.39,-0.21 0.07,-0.04 0.14,-0.08 0.2,-0.12 -0.07,0.04 -0.13,0.08 -0.2,0.12 1.48,-0.79 3,-1.41 4.6,-1.91 0.6,1.62 1.28,3.2 2.08,4.74 -0.53,0.3 -1.07,0.6 -1.59,0.92 -1.57,0.98 -3.03,2.14 -4.44,3.36 -5.71,4.95 -10.15,11.1 -14.95,16.9 -0.85,1.03 -0.62,2.62 0.41,3.44 1.08,0.84 2.58,0.6 3.44,-0.42 3.97,-4.7 7.63,-9.66 12.01,-14.03 -0.06,0.05 -0.11,0.11 -0.17,0.16 0.08,-0.08 0.16,-0.15 0.24,-0.23 0.07,-0.07 0.14,-0.14 0.22,-0.22 -0.05,0.05 -0.1,0.1 -0.15,0.15 2.15,-2.05 4.44,-3.95 6.99,-5.49 0.2,-0.11 0.4,-0.19 0.6,-0.29 1.26,1.78 2.67,3.44 4.26,4.99 2.61,2.56 5.76,4.58 9.07,6.11 3.59,1.67 7.58,2.61 11.49,3.06 4.29,0.51 8.63,0.31 12.92,-0.13 8.57,-0.89 17.17,-2.98 25,-6.59 4.27,-1.97 8.35,-4.5 11.87,-7.62 2.37,-2.09 4.41,-4.46 6.16,-7.04 1.18,0.54 2.34,1.13 3.48,1.79 2.83,1.72 5.43,3.75 7.77,6.09 0.76,0.77 1.48,1.59 2.17,2.41 0.65,0.78 1.78,1 2.61,0.37 0.79,-0.61 0.98,-1.82 0.36,-2.61 -3.83,-4.84 -8.82,-8.7 -14.37,-11.4 0.16,-0.3 0.35,-0.59 0.5,-0.9 1.17,-2.35 1.91,-4.91 2.46,-7.46 0.17,-0.78 0.3,-1.56 0.4,-2.35 2.17,0.12 4.31,0.42 6.4,0.99 1.85,0.56 3.61,1.32 5.3,2.27 1.61,0.99 3.09,2.15 4.45,3.49 1.32,1.42 2.47,2.96 3.46,4.62 0.24,0.41 0.8,0.68 1.25,0.75 0.52,0.08 1.05,-0.05 1.46,-0.37 0.4,-0.35 0.67,-0.81 0.75,-1.31 z M 105.27,716.81 c 0.02,-0.07 0.04,-0.13 0.05,-0.2 -0.01,0.07 -0.03,0.13 -0.05,0.2 0,0 0,0 0,0 z m 62,57.52 c -4.88,2.72 -10.1,4.71 -15.5,6.16 -6.09,1.52 -12.43,2.47 -18.71,2.45 -3.34,-0.11 -6.64,-0.54 -9.86,-1.42 -2.34,-0.72 -4.59,-1.67 -6.73,-2.88 -1.97,-1.21 -3.78,-2.64 -5.43,-4.27 -0.58,-0.61 -1.09,-1.27 -1.62,-1.92 0.94,-0.16 1.88,-0.27 2.85,-0.28 0.99,0.05 1.95,0.18 2.92,0.38 1.34,0.3 2.66,-0.81 2.86,-2.1 0.18,-1.25 -0.57,-2.31 -1.68,-2.73 -0.14,-0.05 -0.29,-0.1 -0.44,-0.13 -1.84,-0.4 -3.72,-0.49 -5.59,-0.35 -1.33,0.1 -2.65,0.43 -3.95,0.83 -0.6,-1.11 -1.12,-2.26 -1.61,-3.42 1.2,0.06 2.37,0.21 3.55,0.47 1.42,0.31 2.8,-0.86 3.02,-2.22 0.19,-1.33 -0.6,-2.42 -1.77,-2.87 -0.15,-0.06 -0.3,-0.1 -0.46,-0.14 -2.03,-0.44 -4.1,-0.59 -6.16,-0.45 -0.01,-0.02 -0.01,-0.04 -0.02,-0.06 -0.59,-2.35 -0.99,-4.73 -1.25,-7.13 0.58,-0.58 0.94,-1.38 0.84,-2.25 -0.37,-3.24 -0.51,-6.49 -0.49,-9.74 0.14,-6.62 0.83,-13.31 2.3,-19.79 1.34,1.04 2.62,2.16 3.84,3.36 1.92,1.99 3.61,4.17 5.23,6.42 1.39,1.93 2.83,3.79 4.59,5.42 1.84,1.7 4.28,2.84 6.71,3.4 1.56,0.37 3.15,0.44 4.74,0.44 2.08,0.01 4.14,-0.19 6.2,-0.48 3.5,-0.49 6.97,-1.16 10.48,-1.71 2.52,-0.39 5.03,-0.77 7.53,-1.3 1.99,-0.43 3.98,-0.93 5.85,-1.76 0.93,-0.41 1.84,-0.93 2.7,-1.48 0.75,-0.48 1.4,-1.06 2.02,-1.67 -0.03,0.03 -0.06,0.06 -0.08,0.09 1.27,-1.23 2.53,-2.42 3.68,-3.78 1.42,-1.69 2.68,-3.54 3.92,-5.36 2.2,-3.27 4.33,-6.61 6.41,-9.96 0.22,1.9 0.47,3.81 0.75,5.71 0.71,4.93 1.69,9.86 3.07,14.67 0.04,0.71 0.09,1.41 0.2,2.12 0.23,1.67 0.51,3.34 0.75,5.01 0.48,3.26 0.79,6.54 0.82,9.83 -0.16,0.02 -0.33,0.04 -0.49,0.06 -3.85,0.62 -7.61,1.88 -11.1,3.6 -0.95,0.47 -1.49,1.53 -1.07,2.57 0.39,0.94 1.6,1.55 2.57,1.07 2.33,-1.14 4.75,-2.03 7.26,-2.7 0.84,-0.2 1.68,-0.32 2.52,-0.47 -0.14,0.98 -0.31,1.95 -0.55,2.92 -0.55,1.71 -1.29,3.32 -2.14,4.89 -1.28,-0.33 -2.57,-0.58 -3.87,-0.75 -1.67,-0.21 -3.37,-0.2 -5.06,-0.08 -1.67,0.11 -3.32,0.51 -4.92,1 -1.05,0.32 -1.47,1.67 -1.09,2.59 0.2,0.48 0.58,0.87 1.05,1.08 0.53,0.23 1.03,0.18 1.56,0.02 0.18,-0.06 0.35,-0.12 0.53,-0.17 1.68,-0.41 3.37,-0.62 5.1,-0.64 1.46,0.04 2.88,0.24 4.3,0.52 -0.85,1.1 -1.76,2.15 -2.73,3.15 -2.52,2.41 -5.33,4.45 -8.35,6.23 z"
         id="path318" />
      <path
         d="m 148.62,766.57 c -0.11,-0.07 -0.23,-0.12 -0.35,-0.17 -0.96,-0.37 -2.07,0.01 -2.62,0.91 -0.3,0.48 -0.6,0.93 -0.94,1.38 -0.45,0.51 -0.91,0.97 -1.43,1.4 -0.41,0.27 -0.82,0.51 -1.26,0.71 -0.35,0.11 -0.7,0.2 -1.06,0.27 -0.42,0.03 -0.84,0.02 -1.26,-0.02 -0.49,-0.1 -0.96,-0.25 -1.43,-0.43 -0.54,-0.27 -1.06,-0.58 -1.55,-0.93 -0.68,-0.57 -1.28,-1.19 -1.83,-1.88 -0.44,-0.61 -0.82,-1.24 -1.18,-1.91 -0.58,-1.07 -2.01,-1.43 -3.05,-0.84 -1.08,0.61 -1.42,1.98 -0.84,3.05 1.97,3.69 5.25,6.99 9.56,7.52 1.87,0.23 3.66,-0.19 5.32,-1.05 0.87,-0.46 1.68,-1.14 2.38,-1.83 0.93,-0.94 1.67,-2.07 2.28,-3.24 0.57,-1.01 0.32,-2.31 -0.74,-2.94 z"
         id="path320" />
    </g>
  </g>
</svg>
