<?xml version="1.0" encoding="UTF-8" standalone="no"?>
<svg
   xmlns:dc="http://purl.org/dc/elements/1.1/"
   xmlns:cc="http://creativecommons.org/ns#"
   xmlns:rdf="http://www.w3.org/1999/02/22-rdf-syntax-ns#"
   xmlns:svg="http://www.w3.org/2000/svg"
   xmlns="http://www.w3.org/2000/svg"
   id="svg708"
   version="1.1"
   viewBox="0 0 25.184846 31.748204"
   height="31.748201mm"
   width="25.184845mm">
  <defs
     id="defs702" />
  <metadata
     id="metadata705">
    <rdf:RDF>
      <cc:Work
         rdf:about="">
        <dc:format>image/svg+xml</dc:format>
        <dc:type
           rdf:resource="http://purl.org/dc/dcmitype/StillImage" />
        <dc:title></dc:title>
      </cc:Work>
    </rdf:RDF>
  </metadata>
  <g
     transform="translate(89.061955,-182.15838)"
     id="layer1">
    <g
       transform="matrix(0.26458333,0,0,0.26458333,-237.1997,0.56690129)"
       className="clock"
       style="fill:#ff0000"
       id="g550">
      <path
         d="m 648.89,759.12 c 3.44,-6.36 5.39,-13.56 5.99,-20.77 0.61,-7.46 -0.18,-14.93 -2.55,-22.05 -2.34,-7.05 -6.47,-13.39 -11.82,-18.52 -5.65,-5.41 -13.01,-8.8 -20.61,-10.4 -3.33,-0.71 -6.74,-1.05 -10.14,-1.05 -5.12,0 -10.24,0.77 -15.14,2.22 -3.89,1.15 -7.63,2.94 -11.1,5.05 -3.41,2.07 -6.45,4.73 -9.22,7.59 -2.58,2.66 -4.74,5.66 -6.5,8.87 -2.04,2.09 -3.76,4.48 -5.08,7.15 -2.58,5.24 -3.21,11.25 -2.63,17.01 0.62,6.26 2.75,12.34 5.66,17.89 3.2,6.12 7.26,11.62 12.17,16.48 2.33,2.32 4.88,4.45 7.59,6.33 -3.19,3.89 -6.45,7.72 -9.48,11.74 -1.78,2.36 -3.52,4.81 -4.94,7.43 -0.54,0.98 -1.02,2.04 -1.32,3.11 -0.14,0.54 -0.21,1.1 -0.23,1.66 -0.01,0.89 0.28,1.53 0.62,2.34 0.47,1.09 1.56,1.93 2.51,2.53 1.1,0.71 2.43,1.13 3.68,1.47 1.46,0.4 2.97,0.57 4.46,0.75 1.63,0.18 3.26,0.27 4.88,0.33 5.9,0.18 11.81,-0.23 17.67,-0.72 7.4,-0.64 14.78,-1.33 22.12,-2.45 4.3,-0.67 8.58,-1.47 12.81,-2.51 4.54,-1.12 9.07,-2.38 13.38,-4.23 0.68,-0.4 1.22,-0.93 1.63,-1.61 0.55,-0.96 0.88,-2.42 0.45,-3.48 -0.85,-2.15 -1.8,-4.23 -2.93,-6.24 -1.1,-1.97 -2.39,-3.85 -3.69,-5.69 -1.42,-2 -2.94,-3.88 -4.47,-5.76 -0.62,-0.78 -1.27,-1.53 -1.93,-2.28 -0.14,-0.16 -0.28,-0.31 -0.42,-0.47 3.41,-3.45 6.27,-7.45 8.58,-11.72 z m -79.24,-10.51 c -0.04,-0.08 -0.09,-0.17 -0.13,-0.25 0.07,-0.41 0.05,-0.86 -0.07,-1.29 -0.05,-0.19 -0.1,-0.38 -0.16,-0.57 -0.85,-4.12 -1.28,-8.26 -1.17,-12.47 0.18,-3.6 0.7,-7.11 1.66,-10.58 1.01,-3.31 2.4,-6.46 4.17,-9.42 1.97,-3.06 4.23,-5.88 6.85,-8.42 2.57,-2.3 5.42,-4.27 8.46,-5.92 3.09,-1.55 6.33,-2.73 9.71,-3.53 3.29,-0.66 6.6,-0.94 9.95,-0.88 3.77,0.21 7.49,0.84 11.12,1.87 2.92,0.94 5.7,2.18 8.35,3.73 2.58,1.66 4.96,3.6 7.09,5.81 2.17,2.44 4.03,5.12 5.59,8.01 1.62,3.28 2.85,6.72 3.7,10.27 0.79,3.87 1.15,7.79 1.06,11.74 -0.21,4.01 -0.88,7.98 -1.98,11.85 -1.17,3.7 -2.73,7.25 -4.73,10.58 -1.92,2.98 -4.16,5.73 -6.72,8.19 -2.37,2.13 -4.95,4.02 -7.74,5.57 -2.48,1.25 -5.06,2.22 -7.75,2.89 -2.64,0.54 -5.31,0.78 -8,0.7 -2.89,-0.19 -5.73,-0.71 -8.51,-1.52 -3.57,-1.14 -6.94,-2.71 -10.16,-4.63 -4.35,-2.72 -8.28,-5.94 -11.82,-9.63 -3.42,-3.65 -6.37,-7.69 -8.77,-12.1 z m 65.9,28.2 c 1.01,1.78 2.1,3.54 3.18,5.28 1.64,2.62 3.31,5.23 4.73,7.97 -4.05,1.55 -8.19,2.8 -12.42,3.81 -5.08,1.23 -10.25,2.09 -15.43,2.8 -6.04,0.79 -12.12,1.44 -18.19,1.94 -5.93,0.49 -12.03,0.88 -17.95,0.15 -1.09,-0.17 -2.16,-0.39 -3.21,-0.74 -0.05,-0.02 -0.09,-0.05 -0.14,-0.07 0.05,-0.16 0.11,-0.32 0.18,-0.48 0.75,-1.59 1.72,-3.08 2.69,-4.55 1.29,-1.92 2.68,-3.77 4.09,-5.6 2.45,-3.13 5.03,-6.16 7.55,-9.24 7.16,3.86 15.17,6 23.42,5.47 7.28,-0.47 14.13,-3.33 20.07,-7.45 0.25,-0.17 0.48,-0.36 0.73,-0.54 0.23,0.42 0.47,0.84 0.7,1.25 z"
         id="path538" />
      <path
         d="m 603.1,742.69 c 1.56,2.8 3.12,5.6 4.75,8.37 1.05,1.78 2.14,3.55 3.26,5.29 1.13,1.73 2.29,3.47 3.67,5.01 0.28,0.4 0.65,0.69 1.09,0.89 0.62,0.28 1.36,0.33 2.01,0.09 0.68,-0.25 1.25,-0.76 1.53,-1.42 0.25,-0.57 0.38,-1.44 0.08,-2.02 -1.9,-3.69 -4.32,-7.11 -6.54,-10.62 -1.49,-2.36 -2.91,-4.75 -4.3,-7.17 1.59,-1.49 2.54,-3.75 2.35,-5.85 -0.16,-1.85 -1.09,-3.6 -2.52,-4.77 -0.14,-0.12 -0.29,-0.19 -0.43,-0.29 0.45,-2.49 0.96,-4.96 1.54,-7.42 0.99,-4.08 2.17,-8.1 3.21,-12.15 0.25,-0.98 -0.42,-2.07 -1.3,-2.46 -0.3,-0.13 -0.62,-0.2 -0.95,-0.2 -0.26,0 -0.52,0.04 -0.77,0.13 -0.51,0.2 -1.12,0.67 -1.29,1.2 -2.05,6.44 -3.75,13 -4.92,19.65 -0.03,0 -0.06,0 -0.1,0 -3.79,0 -6.62,4.01 -6.31,7.53 0.16,1.85 1.09,3.6 2.52,4.77 1.05,0.88 2.18,1.28 3.42,1.44 z"
         id="path540" />
      <path
         d="m 607.25,704.51 c 1.73,0 3.03,-1.84 2.89,-3.45 -0.07,-0.85 -0.5,-1.64 -1.16,-2.18 -0.68,-0.57 -1.43,-0.71 -2.29,-0.71 -1.73,0 -3.03,1.84 -2.89,3.45 0.07,0.85 0.5,1.64 1.16,2.18 0.68,0.57 1.43,0.71 2.29,0.71 z"
         id="path542" />
      <path
         d="m 638.12,737.93 c 1.81,0 3.16,-1.91 3.02,-3.58 -0.09,-0.89 -0.52,-1.71 -1.2,-2.28 -0.71,-0.58 -1.49,-0.74 -2.38,-0.74 -1.81,0 -3.16,1.91 -3.02,3.58 0.08,0.89 0.52,1.71 1.2,2.28 0.71,0.58 1.49,0.74 2.38,0.74 z"
         id="path544" />
      <path
         d="m 607.57,765.99 c -1.53,0 -2.66,1.6 -2.53,3.02 0.06,0.75 0.42,1.44 1.01,1.93 0.61,0.48 1.26,0.61 2.01,0.61 1.53,0 2.66,-1.6 2.53,-3.02 -0.06,-0.75 -0.42,-1.44 -1.01,-1.93 -0.6,-0.48 -1.26,-0.61 -2.01,-0.61 z"
         id="path546" />
      <path
         d="m 573.62,733.09 c -1.95,0 -3.4,2.05 -3.24,3.86 0.08,0.95 0.55,1.85 1.29,2.45 0.78,0.64 1.61,0.79 2.58,0.79 1.95,0 3.4,-2.05 3.24,-3.86 -0.09,-0.95 -0.55,-1.85 -1.29,-2.45 -0.78,-0.64 -1.62,-0.79 -2.58,-0.79 z"
         id="path548" />
    </g>
  </g>
</svg>
