<?xml version="1.0" encoding="UTF-8" standalone="no"?>
<svg
   xmlns:dc="http://purl.org/dc/elements/1.1/"
   xmlns:cc="http://creativecommons.org/ns#"
   xmlns:rdf="http://www.w3.org/1999/02/22-rdf-syntax-ns#"
   xmlns:svg="http://www.w3.org/2000/svg"
   xmlns="http://www.w3.org/2000/svg"
   id="svg708"
   version="1.1"
   viewBox="0 0 56.240751 34.359463"
   height="34.359459mm"
   width="56.240749mm">
  <defs
     id="defs702" />
  <metadata
     id="metadata705">
    <rdf:RDF>
      <cc:Work
         rdf:about="">
        <dc:format>image/svg+xml</dc:format>
        <dc:type
           rdf:resource="http://purl.org/dc/dcmitype/StillImage" />
        <dc:title></dc:title>
      </cc:Work>
    </rdf:RDF>
  </metadata>
  <g
     transform="translate(245.85161,-127.04373)"
     id="layer1">
    <g
       transform="matrix(0.26458333,0,0,0.26458333,-487.7731,-245.53987)"
       className="clouds"
       style="fill:#0000ff"
       id="g224">
      <path
         d="m 1037.58,1450.82 c -4.47,0.33 -8.97,1.41 -13.11,3.14 -2.1,0.88 -4.13,2 -6.04,3.28 -1.01,0.68 -1.93,1.48 -2.79,2.33 -0.2,0.21 -0.39,0.43 -0.57,0.65 -2.57,-1.78 -5.32,-3.27 -8.26,-4.4 -3.75,-1.43 -7.69,-2.23 -11.68,-2.48 -7.69,-0.48 -15.61,1.15 -22.4,4.84 -2.68,1.45 -5.04,3.51 -7,5.86 -2.07,2.49 -3.64,5.43 -4.98,8.38 -0.65,1.41 -1.21,2.84 -1.66,4.34 -0.46,1.53 -0.73,3.11 -1.01,4.68 -0.56,3.18 -0.96,6.42 -1.84,9.53 -0.25,0.75 -0.53,1.49 -0.92,2.19 -0.21,0.27 -0.44,0.53 -0.68,0.78 -0.47,0.4 -0.96,0.74 -1.5,1.05 -0.94,0.44 -1.9,0.76 -2.91,1.02 -3.36,0.72 -6.8,0.95 -10.18,1.53 -3.49,0.62 -6.86,1.66 -9.92,3.47 -2.2,1.31 -4.18,3.02 -6.01,4.81 -1.96,1.87 -3.69,3.99 -5.2,6.24 -2.79,4.16 -5.23,9.35 -4.41,14.51 0.4,2.55 1.64,4.72 3.49,6.51 0.95,0.91 2.13,1.61 3.28,2.2 1.53,0.81 3.23,1.28 4.9,1.69 1.4,0.33 2.81,-0.82 3.04,-2.18 0.24,-1.48 -0.78,-2.71 -2.18,-3.04 -0.5,-0.12 -1,-0.25 -1.49,-0.4 -1.02,-0.35 -1.98,-0.77 -2.91,-1.31 -0.58,-0.4 -1.11,-0.84 -1.61,-1.33 -0.3,-0.37 -0.57,-0.77 -0.81,-1.17 -0.22,-0.48 -0.39,-0.96 -0.53,-1.47 -0.1,-0.63 -0.15,-1.27 -0.15,-1.91 0.08,-1.06 0.28,-2.09 0.56,-3.11 0.67,-2.05 1.64,-3.96 2.79,-5.78 1.76,-2.64 3.83,-5.04 6.17,-7.19 1.43,-1.25 2.95,-2.39 4.61,-3.33 1.84,-0.93 3.79,-1.55 5.79,-2.03 -0.2,0.04 -0.4,0.09 -0.62,0.13 3.86,-0.85 7.81,-1.09 11.67,-1.93 3.28,-0.72 6.58,-2.05 8.53,-4.94 0.85,-1.25 1.31,-2.62 1.73,-4.06 0.48,-1.6 0.76,-3.26 1.07,-4.9 0.55,-3.17 0.92,-6.4 1.81,-9.5 0.48,-1.38 1.11,-2.73 1.72,-4.05 0.63,-1.37 1.36,-2.69 2.14,-3.98 1.1,-1.68 2.35,-3.21 3.8,-4.58 1.34,-1.15 2.78,-2.12 4.32,-2.96 2.65,-1.31 5.47,-2.24 8.36,-2.9 3.19,-0.65 6.4,-0.92 9.66,-0.84 2.92,0.17 5.79,0.64 8.61,1.45 2.63,0.85 5.13,2 7.49,3.45 1.37,0.93 2.66,1.94 3.86,3.06 0.55,0.5 1.38,0.73 2.1,0.66 0.81,-0.07 1.34,-0.46 1.9,-0.98 0.06,-0.06 0.12,-0.12 0.18,-0.18 0.93,-0.76 1.97,-1.34 2.97,-2 1.04,-0.68 2.08,-1.34 3.17,-1.93 2.43,-1.22 4.97,-2.16 7.61,-2.81 3.39,-0.73 6.85,-1.01 10.33,-0.95 3.95,0.18 7.85,0.83 11.64,1.94 3.31,1.07 6.5,2.47 9.46,4.3 2.01,1.34 3.89,2.86 5.56,4.62 1.14,1.33 2.15,2.74 2.99,4.26 0.62,1.3 1.11,2.63 1.46,4.03 0.25,1.31 0.37,2.64 0.37,3.97 -0.11,1.82 -0.43,3.6 -0.94,5.36 -0.67,1.95 -1.53,3.82 -2.53,5.62 -0.65,1.17 -0.4,2.77 0.32,3.82 0.78,1.12 2.16,1.79 3.53,1.64 2.16,-0.23 4.31,-0.36 6.48,-0.32 4.83,0.22 9.61,1.06 14.25,2.42 4.01,1.31 7.85,3.01 11.45,5.24 2.36,1.58 4.56,3.38 6.52,5.45 1.28,1.45 2.4,3.01 3.34,4.71 0.62,1.28 1.12,2.59 1.48,3.97 0.21,1.09 0.32,2.18 0.33,3.3 -0.06,0.86 -0.2,1.7 -0.41,2.54 -0.24,0.67 -0.54,1.31 -0.89,1.93 -0.42,0.59 -0.88,1.14 -1.38,1.65 -0.64,0.52 -1.31,0.98 -2.03,1.4 -1.48,0.7 -3.03,1.2 -4.65,1.58 -0.56,0.2 -1.04,0.53 -1.43,0.99 -0.59,0.71 -0.88,1.63 -0.79,2.54 0.16,1.79 1.87,3.36 3.72,3.08 3.83,-0.55 7.38,-2.03 10.18,-4.72 2.42,-2.33 3.89,-5.44 4.44,-8.73 0.55,-3.31 -0.01,-6.76 -1.09,-9.88 -0.6,-1.71 -1.47,-3.34 -2.39,-4.88 -1.08,-1.79 -2.46,-3.34 -3.86,-4.88 -2.59,-2.87 -5.75,-5.1 -9.03,-7.12 -3.43,-2.09 -7.17,-3.67 -10.98,-4.91 -3.99,-1.3 -8.04,-2.22 -12.2,-2.72 -1.76,-0.22 -3.54,-0.31 -5.32,-0.38 1.51,-4.14 2.14,-8.59 1.43,-12.97 -0.49,-3.05 -1.57,-5.83 -3.08,-8.53 -1.4,-2.48 -3.34,-4.68 -5.42,-6.63 -2.2,-2.06 -4.77,-3.75 -7.39,-5.21 -2.77,-1.56 -5.73,-2.68 -8.76,-3.62 -4.78,-1.46 -9.79,-2.19 -14.79,-2.19 -1.29,0.02 -2.59,0.07 -3.88,0.17 z m -44.41,7.39 c 0.06,0 0.12,0.01 0.17,0.01 -0.05,-0.01 -0.11,-0.01 -0.17,-0.01 z m -17.33,3.66 c -0.06,0.03 -0.12,0.07 -0.18,0.1 0.06,-0.04 0.12,-0.07 0.18,-0.1 z m -0.22,0.12 c -0.1,0.05 -0.21,0.1 -0.31,0.15 0.1,-0.05 0.21,-0.1 0.31,-0.15 z m -4.21,2.87 c 0,0 0,0 0,0 0,0 0,0 0,0 z m -0.11,0.1 c -0.04,0.04 -0.08,0.07 -0.12,0.1 0.04,-0.03 0.08,-0.07 0.12,-0.1 z m -3.45,4.04 c -0.08,0.13 -0.16,0.26 -0.24,0.39 0.08,-0.13 0.16,-0.26 0.24,-0.39 z m 103.5,3.73 c 0.04,0.09 0.09,0.17 0.13,0.26 -0.05,-0.09 -0.09,-0.18 -0.13,-0.26 z m -107.58,4.45 c -0.02,0.06 -0.03,0.12 -0.05,0.18 0.02,-0.07 0.04,-0.12 0.05,-0.18 z m -7.54,13.86 c -0.05,0.17 -0.1,0.34 -0.15,0.51 0.05,-0.17 0.1,-0.34 0.15,-0.51 z m 137.7,8.46 c 0.16,0.05 0.33,0.11 0.49,0.16 -0.16,-0.05 -0.33,-0.1 -0.49,-0.16 z m 0.58,0.19 c 0.11,0.03 0.23,0.07 0.34,0.1 -0.11,-0.03 -0.22,-0.06 -0.34,-0.1 z m -165.42,8.41 c -0.16,0.14 -0.32,0.29 -0.49,0.43 0.16,-0.14 0.32,-0.28 0.49,-0.43 z m -6.33,7.43 c -0.04,0.06 -0.08,0.13 -0.12,0.19 0.03,-0.06 0.08,-0.12 0.12,-0.19 z"
         id="path212" />
      <g
         id="g218">
        <path
           d="m 948.64,1476.05 c 0,-0.01 0,-0.02 0,-0.03 0,0 0,0.01 0,0.01 0.01,0.01 0.01,0.02 0,0.02 z"
           id="path214" />
        <path
           d="m 1123.13,1494.73 c -0.63,-1.92 -1.48,-3.7 -2.58,-5.39 -2.26,-3.5 -5.23,-6.41 -8.63,-8.77 -3.24,-2.26 -7.02,-3.9 -10.85,-4.8 -2.32,-0.55 -4.67,-0.79 -7.02,-0.8 0.04,-0.12 0.1,-0.23 0.14,-0.35 0.6,-1.82 0.97,-3.73 1.2,-5.63 0.4,-3.28 0,-6.73 -0.95,-9.88 -2.02,-6.74 -6.61,-12.33 -11.97,-16.75 -5.6,-4.61 -12.22,-7.98 -19.09,-10.24 -5.17,-1.7 -10.66,-2.73 -16.13,-2.73 -1.49,0 -2.98,0.08 -4.46,0.24 -1.73,0.19 -3.4,0.52 -5.04,1.08 -2.29,0.79 -4.45,1.87 -6.55,3.07 -3.9,2.23 -7.59,4.9 -11.77,6.61 -1.14,0.39 -2.28,0.69 -3.48,0.85 -0.4,0.02 -0.79,0.02 -1.19,-0.01 -0.99,-0.25 -1.93,-0.67 -2.85,-1.1 -3.43,-1.67 -6.73,-3.58 -10.2,-5.16 -1.58,-0.72 -3.2,-1.4 -4.91,-1.83 -2.13,-0.53 -4.42,-0.66 -6.61,-0.78 -8.08,-0.46 -16.18,1.01 -23.49,4.49 -6.87,3.27 -12.6,8.61 -17,14.76 -4.64,6.48 -7.61,14.15 -9.06,21.95 -0.09,0.48 -0.18,0.96 -0.26,1.44 -1.03,0.09 -2.05,0.26 -3.04,0.48 -2.13,0.48 -4.22,1.44 -6.11,2.54 -4.02,2.38 -7.35,5.78 -10.08,9.52 -0.86,1.18 -0.58,2.97 0.37,4 1.2,1.28 3.37,1.43 4.65,0.17 1.92,-1.88 3.88,-3.71 6.02,-5.32 1.41,-0.97 2.88,-1.8 4.46,-2.47 1.03,-0.34 2.05,-0.59 3.12,-0.76 1.37,-0.07 2.69,0.06 4.06,0.28 1.02,0.17 2.28,-0.45 3.01,-1.11 0.86,-0.81 1.18,-1.77 1.33,-2.92 0.15,-1.12 0.3,-2.25 0.47,-3.37 -0.03,0.18 -0.06,0.35 -0.1,0.53 0.03,-0.18 0.06,-0.36 0.1,-0.55 0.03,-0.19 0.06,-0.38 0.09,-0.56 -0.03,0.19 -0.06,0.37 -0.09,0.55 0.95,-5.22 2.44,-10.33 4.63,-15.17 1.62,-3.34 3.57,-6.49 5.92,-9.38 2,-2.3 4.22,-4.38 6.66,-6.21 2.52,-1.75 5.21,-3.22 8.05,-4.36 3.29,-1.2 6.69,-1.96 10.16,-2.33 3.5,-0.26 7.04,-0.17 10.52,0.33 1.66,0.37 3.23,0.99 4.77,1.68 3.11,1.46 6.11,3.17 9.19,4.69 1.31,0.65 2.65,1.3 4.05,1.74 1.71,0.53 3.46,0.4 5.2,0.17 1.89,-0.26 3.72,-0.99 5.44,-1.74 1.8,-0.78 3.5,-1.77 5.19,-2.77 3.48,-2.07 6.85,-4.35 10.62,-5.88 1.55,-0.53 3.1,-0.87 4.73,-1.07 3.5,-0.3 7,-0.08 10.47,0.49 4.73,0.88 9.33,2.38 13.7,4.38 3.88,1.87 7.56,4.14 10.91,6.87 2.17,1.87 4.16,3.93 5.89,6.21 1.23,1.75 2.28,3.6 3.1,5.57 0.65,1.79 1.09,3.61 1.31,5.5 0.1,1.61 0.03,3.21 -0.2,4.81 -0.39,1.98 -1.01,3.89 -1.83,5.74 -0.19,0.39 -0.39,0.78 -0.59,1.17 -0.4,0.78 -0.62,1.54 -0.4,2.42 0.11,0.46 0.33,0.86 0.62,1.22 0.26,0.45 0.59,0.86 1.04,1.15 0.81,0.5 1.6,0.52 2.51,0.42 0.11,-0.01 0.21,-0.03 0.32,-0.04 1.98,-0.13 3.93,-0.02 5.89,0.28 2.32,0.46 4.56,1.19 6.72,2.14 1.9,0.96 3.68,2.09 5.35,3.4 1.52,1.33 2.89,2.78 4.1,4.38 1.41,2.08 2.53,4.3 3.47,6.63 0.44,1.23 0.86,2.47 1.36,3.68 0.6,1.4 2.43,2.05 3.83,1.71 1.54,-0.36 2.54,-1.69 2.65,-3.23 0.18,-1.94 -0.24,-3.99 -0.86,-5.88 z"
           id="path216" />
      </g>
      <path
         d="m 1092.77,1442.77 c -0.04,1.17 0.88,2.1 2.02,2.18 0.6,0.04 1.19,0.1 1.78,0.19 0.93,0.19 1.81,0.46 2.68,0.82 0.76,0.38 1.46,0.81 2.13,1.32 0.67,0.59 1.26,1.22 1.79,1.92 0.51,0.77 0.93,1.58 1.28,2.42 0.5,1.41 0.82,2.85 1,4.36 0.12,1.82 0.02,3.64 -0.27,5.45 -0.2,0.96 -0.45,1.92 -0.79,2.84 -0.42,0.81 -0.61,1.61 -0.39,2.53 0.24,1.08 1.15,2.19 2.28,2.45 0.46,0.12 0.94,0.2 1.43,0.27 0.52,-0.01 1.04,-0.06 1.57,-0.1 0.82,-0.06 1.64,-0.01 2.47,0.08 0.8,0.18 1.57,0.41 2.33,0.72 0.84,0.44 1.62,0.94 2.37,1.51 1.2,1.1 2.25,2.31 3.22,3.62 0.38,0.53 0.76,1.07 1.15,1.58 0.42,0.46 0.92,0.78 1.51,0.97 0.89,0.29 1.89,0.19 2.72,-0.26 1.35,-0.72 2.16,-2.39 1.76,-3.9 -1.14,-4.26 -4.22,-7.89 -8.04,-10.04 -2.07,-1.18 -4.29,-1.79 -6.65,-2.02 -0.37,-0.04 -0.75,-0.04 -1.13,-0.04 0.03,-1.28 -0.03,-2.57 -0.15,-3.85 -0.29,-2.82 -0.92,-5.55 -2.13,-8.12 -1.17,-2.49 -2.98,-4.62 -5.19,-6.22 -2.46,-1.77 -5.57,-2.51 -8.54,-2.69 -0.04,0 -0.08,0 -0.12,0 -1.13,-0.01 -2.05,0.92 -2.09,2.01 z m 8.67,4.56 c 0.11,0.08 0.22,0.17 0.32,0.26 -0.1,-0.08 -0.21,-0.17 -0.32,-0.26 z m 3.96,8.06 c 0.01,0.1 0.02,0.21 0.03,0.31 -0.01,-0.11 -0.02,-0.21 -0.03,-0.31 z m -0.13,5.57 c -0.03,0.14 -0.05,0.27 -0.08,0.41 0.02,-0.14 0.05,-0.28 0.08,-0.41 z"
         id="path220" />
      <path
         d="m 1044.45,1408.23 c -3.18,0.1 -6.21,0.95 -9.12,2.19 -2.81,1.2 -5.37,3.04 -7.61,5.1 -1.22,1.12 -2.3,2.42 -3.31,3.73 -0.08,0.11 -0.17,0.22 -0.25,0.33 -0.34,-0.28 -0.68,-0.55 -1.04,-0.82 -1.43,-1.09 -3.01,-1.9 -4.65,-2.62 -3.27,-1.45 -7.07,-1.58 -10.49,-0.65 -1.51,0.43 -2.52,1.9 -2.15,3.49 0.36,1.48 1.96,2.55 3.47,2.13 0.67,-0.17 1.33,-0.31 2.01,-0.42 0.82,-0.04 1.63,-0.01 2.45,0.1 0.94,0.2 1.82,0.48 2.71,0.84 1.26,0.63 2.41,1.37 3.52,2.24 0.95,0.84 1.85,1.74 2.65,2.73 1.3,1.6 3.89,1.15 4.94,-0.45 0.84,-1.3 1.66,-2.6 2.62,-3.83 1.26,-1.44 2.63,-2.72 4.16,-3.87 1.55,-1.05 3.17,-1.93 4.9,-2.64 1.62,-0.56 3.27,-0.96 4.98,-1.19 1.67,-0.12 3.33,-0.05 4.99,0.19 0.63,0.12 1.26,0.25 1.9,0.38 0.49,0.16 0.99,0.17 1.5,0.06 0.72,-0.17 1.34,-0.62 1.73,-1.24 0.78,-1.21 0.5,-3.18 -0.86,-3.89 -2.6,-1.33 -5.45,-1.93 -8.35,-1.93 -0.23,0.03 -0.46,0.04 -0.7,0.04 z m -10.18,10.31 c -0.12,0.09 -0.24,0.17 -0.36,0.25 0.12,-0.08 0.24,-0.17 0.36,-0.25 z"
         id="path222" />
    </g>
  </g>
</svg>
