<?xml version="1.0" encoding="UTF-8" standalone="no"?>
<svg
   xmlns:dc="http://purl.org/dc/elements/1.1/"
   xmlns:cc="http://creativecommons.org/ns#"
   xmlns:rdf="http://www.w3.org/1999/02/22-rdf-syntax-ns#"
   xmlns:svg="http://www.w3.org/2000/svg"
   xmlns="http://www.w3.org/2000/svg"
   id="svg708"
   version="1.1"
   viewBox="0 0 33.071564 21.27474"
   height="21.274738mm"
   width="33.071564mm">
  <defs
     id="defs702" />
  <metadata
     id="metadata705">
    <rdf:RDF>
      <cc:Work
         rdf:about="">
        <dc:format>image/svg+xml</dc:format>
        <dc:type
           rdf:resource="http://purl.org/dc/dcmitype/StillImage" />
        <dc:title></dc:title>
      </cc:Work>
    </rdf:RDF>
  </metadata>
  <g
     transform="translate(247.55033,-117.42912)"
     id="layer1">
    <path
       style="stroke-width:0.264583"
       d="m -220.88227,123.8236 c -1.46844,-0.69585 -3.048,-1.20914 -4.65137,-1.47108 -0.78317,-0.12965 -1.57428,-0.16404 -2.36803,-0.14023 -0.38629,0.0106 -0.78316,0.0503 -1.16945,0.13229 -0.0741,-0.6641 -0.23548,-1.31233 -0.50536,-1.92616 -0.33602,-0.7673 -0.86254,-1.43669 -1.51871,-1.95792 -1.17739,-0.92869 -2.79929,-1.21444 -4.2492,-0.92075 -0.74613,0.15081 -1.43669,0.4445 -2.06375,0.87048 -0.62707,0.42333 -1.10067,1.01071 -1.4605,1.66423 -0.38365,0.68791 -0.48419,1.49225 -0.46038,2.26483 0.008,0.31221 0.0529,0.62706 0.127,0.93398 -0.30427,-0.0503 -0.61383,-0.0847 -0.92075,-0.0979 -0.9869,-0.0476 -1.94469,0.09 -2.89983,0.35455 -0.86519,0.23547 -1.69069,0.64293 -2.42094,1.16152 -0.71702,0.51064 -1.28588,1.17739 -1.68804,1.95262 -0.38894,0.74083 -0.49477,1.63248 -0.36777,2.4474 0.15875,1.01071 0.69321,1.93146 1.3335,2.70668 0.38893,0.46038 0.82814,0.89165 1.32027,1.23561 0.51064,0.35454 1.0795,0.6006 1.67481,0.762 1.143,0.31221 2.31246,0.31485 3.4925,0.29104 0.28575,-0.003 0.57415,-0.008 0.86254,-0.0132 0.60325,0.003 1.20386,0.0317 1.79123,0.1614 0.21696,0.0635 0.42598,0.14287 0.62706,0.24606 0.11113,0.0767 0.21696,0.15875 0.32015,0.24871 0.32544,0.36777 0.57415,0.78846 0.81756,1.20914 0.2884,0.49213 0.59796,0.9578 1.00013,1.36525 0.48948,0.49742 1.06098,0.8599 1.72243,1.09538 0.63236,0.2196 1.29911,0.30692 1.96586,0.30427 1.24354,-0.0159 2.43152,-0.41804 3.59039,-0.82815 0.26194,-0.09 0.52917,-0.17991 0.78846,-0.28575 0.31221,-0.12435 0.59532,-0.3466 0.84138,-0.57943 0.44185,-0.4154 0.78581,-0.91811 1.19327,-1.36525 0.0873,-0.0794 0.17462,-0.15346 0.27252,-0.22225 0.0503,-0.0238 0.10319,-0.045 0.1561,-0.0635 0.0556,-0.008 0.11113,-0.0132 0.16669,-0.0185 0.0926,0.008 0.18256,0.0185 0.27517,0.0344 0.37571,0.11113 0.74083,0.26194 1.10331,0.41011 0.53181,0.21431 1.07156,0.39422 1.64042,0.48683 0.61912,0.0979 1.2356,-0.0106 1.82827,-0.1905 0.28575,-0.0873 0.54769,-0.23019 0.80169,-0.37306 0.28575,-0.1614 0.57414,-0.32809 0.8546,-0.51065 0.37571,-0.24606 0.72231,-0.52917 1.0451,-0.84402 0.3228,-0.31485 0.61913,-0.64294 0.85461,-1.02923 0.20108,-0.33073 0.37835,-0.67204 0.48948,-1.04246 0.0635,-0.21431 0.11906,-0.43656 0.1561,-0.65616 0.0423,-0.24078 0.0344,-0.48419 0.0344,-0.73025 -0.003,-0.69057 -0.21167,-1.39171 -0.51594,-2.00555 -0.3466,-0.71173 -0.81227,-1.35202 -1.35731,-1.92087 -0.10054,-0.10319 -0.20109,-0.20373 -0.30427,-0.30427 -1.23032,-1.18004 -2.68023,-2.10609 -4.2254,-2.84163 z m 2.6379,4.80484 c 0.0264,0.0265 0.0529,0.0556 0.082,0.082 -0.0291,-0.0265 -0.0556,-0.0529 -0.082,-0.082 z m 0.16139,0.16668 c 0.32279,0.34132 0.61648,0.70644 0.86784,1.10596 0.11641,0.2249 0.21431,0.45509 0.29104,0.69586 0.037,0.17462 0.0608,0.3466 0.0714,0.52652 -0.008,0.16668 -0.0291,0.33073 -0.0635,0.49212 -0.0582,0.18256 -0.13229,0.35719 -0.2196,0.52917 -0.17992,0.28575 -0.39158,0.54769 -0.62442,0.7911 -0.41275,0.381 -0.86254,0.71438 -1.34408,1.00807 -0.17992,0.0926 -0.35983,0.16933 -0.55298,0.23283 -0.16404,0.0317 -0.32808,0.0529 -0.49477,0.0608 -0.24871,-0.0132 -0.49477,-0.0503 -0.73819,-0.10318 -0.40746,-0.11907 -0.80433,-0.26723 -1.21179,-0.39688 -0.51329,-0.1614 -1.00277,-0.2196 -1.53723,-0.21167 -0.60325,0.0132 -1.16946,0.30427 -1.59544,0.70909 -0.48418,0.45773 -0.83343,1.02658 -1.27793,1.51606 -0.0979,0.09 -0.19844,0.16933 -0.30692,0.24606 -0.35983,0.17198 -0.75406,0.28311 -1.12977,0.41804 -0.35454,0.127 -0.71702,0.24077 -1.08479,0.34396 -0.52652,0.13229 -1.05569,0.21961 -1.60073,0.23548 -0.33867,-0.0132 -0.66411,-0.0529 -0.99219,-0.12171 -0.2831,-0.082 -0.55298,-0.18256 -0.81492,-0.31485 -0.18785,-0.12171 -0.36512,-0.25665 -0.53445,-0.40746 -0.51594,-0.56621 -0.8599,-1.24354 -1.26471,-1.89177 -0.21696,-0.3466 -0.48419,-0.64029 -0.77523,-0.92869 -0.2884,-0.28575 -0.67733,-0.47889 -1.0504,-0.62971 -0.65616,-0.26193 -1.37583,-0.34395 -2.07168,-0.37041 -0.71967,-0.0265 -1.44463,0.005 -2.1643,0.0132 -0.79375,-0.003 -1.5875,-0.0397 -2.36273,-0.2249 -0.32808,-0.10054 -0.64558,-0.2249 -0.9525,-0.38629 -0.29633,-0.18256 -0.56091,-0.39423 -0.81227,-0.63236 -0.35983,-0.381 -0.68791,-0.78581 -0.96043,-1.23825 -0.13494,-0.26458 -0.24871,-0.53445 -0.33338,-0.81756 -0.0423,-0.20637 -0.0688,-0.41275 -0.0794,-0.62177 0.0106,-0.18785 0.0344,-0.37306 0.0714,-0.55562 0.0661,-0.21167 0.14817,-0.41275 0.24871,-0.61119 0.1614,-0.25929 0.34661,-0.49477 0.55563,-0.71438 0.30691,-0.28839 0.64293,-0.5371 1.00012,-0.75141 0.50271,-0.27252 1.02659,-0.48154 1.57427,-0.64029 0.59267,-0.14553 1.19327,-0.2249 1.79917,-0.24078 0.54504,0.008 1.08744,0.0714 1.61925,0.20373 0.29633,0.0873 0.58737,0.19315 0.86783,0.3228 0.26988,0.1217 0.61384,0.0661 0.84932,-0.11378 0.28045,-0.21166 0.46302,-0.67997 0.27781,-1.016 -0.22754,-0.42068 -0.42069,-0.84931 -0.55827,-1.30175 -0.0741,-0.3122 -0.12171,-0.62177 -0.13229,-0.93927 0.008,-0.23018 0.0344,-0.45773 0.0847,-0.68527 0.0714,-0.22754 0.1614,-0.44714 0.27252,-0.66146 0.12436,-0.19314 0.26194,-0.37306 0.41804,-0.54239 0.21167,-0.19579 0.44186,-0.37042 0.68528,-0.52388 0.2831,-0.14816 0.57943,-0.26987 0.8837,-0.36512 0.34132,-0.082 0.68527,-0.127 1.03452,-0.14023 0.33073,0.0106 0.65088,0.0503 0.97103,0.12435 0.27781,0.0847 0.54504,0.19315 0.80168,0.32809 0.23284,0.14552 0.44979,0.31485 0.65088,0.50271 0.19844,0.21166 0.37041,0.44185 0.52123,0.6932 0.16404,0.31221 0.29104,0.635 0.39158,0.97367 0.12435,0.52388 0.18256,1.05569 0.1905,1.59808 0,0.0132 0.003,0.0291 0.003,0.0423 -0.0714,0.1905 -0.0979,0.39952 -0.0714,0.61912 0.09,0.70644 0.75671,1.21709 1.46579,1.12448 0.58208,-0.0767 1.16152,-0.1561 1.7489,-0.16933 1.08743,0.0185 2.159,0.19579 3.21468,0.46037 1.38377,0.38365 2.71198,0.92604 3.96346,1.62454 0.84138,0.48419 1.6219,1.05305 2.31775,1.72773 z m -22.50016,-3.89466 c -0.0291,0 -0.0556,0 -0.0847,0 0.0291,0 0.0582,0 0.0847,0 z m -1.82034,0.25664 c -0.0238,0.005 -0.0476,0.0132 -0.0741,0.0185 0.0238,-0.005 0.0503,-0.0132 0.0741,-0.0185 z m 11.72898,11.83482 c -0.0397,0 -0.082,0.003 -0.12171,0.003 0.0423,-0.003 0.082,-0.003 0.12171,-0.003 z m -13.12862,-11.27919 c -0.0344,0.0212 -0.0688,0.0423 -0.10319,0.0608 0.0344,-0.0185 0.0688,-0.0397 0.10319,-0.0608 z m -1.00542,0.70908 c -0.0159,0.0185 -0.0344,0.0344 -0.0529,0.0529 0.0185,-0.0185 0.0344,-0.037 0.0529,-0.0529 z m 4.42912,5.91873 c -0.0212,0 -0.0423,0 -0.0635,0 0.0212,0 0.0423,0 0.0635,0 z"
       id="path292" />
  </g>
</svg>
