<?xml version="1.0" encoding="UTF-8" standalone="no"?>
<svg
   xmlns:dc="http://purl.org/dc/elements/1.1/"
   xmlns:cc="http://creativecommons.org/ns#"
   xmlns:rdf="http://www.w3.org/1999/02/22-rdf-syntax-ns#"
   xmlns:svg="http://www.w3.org/2000/svg"
   xmlns="http://www.w3.org/2000/svg"
   id="svg708"
   version="1.1"
   viewBox="0 0 45.032338 25.539357"
   height="25.539354mm"
   width="45.032337mm">
  <defs
     id="defs702" />
  <metadata
     id="metadata705">
    <rdf:RDF>
      <cc:Work
         rdf:about="">
        <dc:format>image/svg+xml</dc:format>
        <dc:type
           rdf:resource="http://purl.org/dc/dcmitype/StillImage" />
        <dc:title></dc:title>
      </cc:Work>
    </rdf:RDF>
  </metadata>
  <g
     transform="translate(90.145054,-196.17772)"
     id="layer1">
    <g
       transform="matrix(0.26458333,0,0,0.26458333,-387.59734,11.481812)"
       className="cloud1"
       style="fill:#0000ff"
       id="g446">
      <path
         d="m 1208.04,786.74 c 0.02,0 0.04,0 0.07,0 -0.04,0 -0.08,0 -0.12,0 0.02,0 0.03,0 0.05,0 z"
         id="path434" />
      <path
         d="m 1293.77,753.35 c -0.91,-3.8 -2.59,-7.23 -4.68,-10.51 -2.02,-3.14 -4.66,-5.94 -7.59,-8.26 -3.15,-2.48 -7,-4.22 -11.01,-4.66 -1.93,-0.22 -3.95,-0.04 -5.81,0.47 -0.55,0.16 -1.09,0.34 -1.61,0.55 -0.35,-1.37 -0.82,-2.72 -1.35,-4.01 -1.11,-2.67 -2.74,-5.17 -4.59,-7.39 -3.95,-4.77 -9.23,-8.39 -14.92,-10.78 -5.53,-2.33 -11.75,-3.32 -17.7,-2.38 -4.53,0.71 -8.68,2.79 -11.94,5.92 -0.57,-1.28 -1.23,-2.51 -2.01,-3.69 -1.39,-2.12 -3.25,-3.95 -5.27,-5.45 -4.05,-2.97 -9.05,-4.4 -14.01,-4.9 -0.26,-0.03 -0.51,-0.05 -0.77,-0.07 -5.8,-0.46 -11.71,0.37 -17.3,1.88 -5.87,1.59 -11.49,3.97 -16.69,7.11 -5.18,3.14 -9.99,7.06 -13.56,12 -1.57,2.16 -2.86,4.58 -3.69,7.11 -0.29,0.88 -0.51,1.78 -0.67,2.68 -0.43,0.03 -0.87,0.13 -1.29,0.32 -3.66,1.63 -6.75,4.32 -8.94,7.67 -2.21,3.39 -3.4,7.29 -3.93,11.29 -0.28,2.05 -0.23,4.11 -0.14,6.17 0.1,1.85 0.39,3.69 0.81,5.49 1.03,4.45 2.95,8.69 5.68,12.35 2.19,2.93 5.25,5.24 8.69,6.48 3.27,1.2 6.76,1.28 10.17,1.03 6.24,-0.47 12.22,-2.68 18.46,-3.06 1.33,-0.01 2.64,0.08 3.95,0.33 0.65,0.18 1.28,0.4 1.89,0.68 0.28,0.18 0.54,0.39 0.79,0.6 1.76,1.83 3.13,4.01 4.63,6.04 0.85,1.15 1.76,2.26 2.77,3.27 0.65,0.66 1.35,1.27 2.08,1.84 0.73,0.57 1.59,0.97 2.42,1.4 3.35,1.76 7.19,2.61 10.9,3.17 3.64,0.55 7.33,0.62 11,0.5 3.48,-0.11 6.94,-0.4 10.4,-0.91 3.21,-0.47 6.26,-1.41 9.18,-2.82 5.71,-2.77 10.67,-6.84 15.99,-10.24 1.69,-1.04 3.43,-1.98 5.29,-2.64 0.46,-0.12 0.92,-0.21 1.39,-0.28 0.05,0 0.11,0.01 0.16,0.01 0.02,0.01 0.03,0.01 0.05,0.02 0.48,0.33 0.91,0.7 1.36,1.08 0.79,0.67 1.6,1.19 2.5,1.67 1.82,0.97 3.97,1.09 5.97,1.34 3.31,0.4 6.63,0.68 9.95,0.59 1.75,-0.04 3.47,-0.13 5.19,-0.39 1.76,-0.26 3.46,-0.75 5.13,-1.34 3.18,-1.12 5.89,-3.19 8.07,-5.73 2.56,-2.96 3.83,-6.79 4.66,-10.54 0.8,-3.63 0.82,-7.37 -0.06,-11.01 z m -7.2,9.55 c -0.43,1.68 -1,3.31 -1.76,4.87 -0.55,0.94 -1.17,1.81 -1.88,2.63 -0.66,0.66 -1.37,1.24 -2.14,1.76 -1,0.56 -2.04,1.02 -3.12,1.39 -1.93,0.52 -3.91,0.78 -5.89,0.89 -2.04,0.03 -4.06,-0.08 -6.1,-0.26 -2.26,-0.21 -4.55,-0.47 -6.79,-0.86 -0.16,-0.06 -0.32,-0.12 -0.47,-0.19 -0.84,-0.57 -1.59,-1.27 -2.4,-1.89 -1.29,-0.99 -2.87,-1.54 -4.47,-1.7 -1.64,-0.15 -3.25,0.31 -4.79,0.79 -1.15,0.36 -2.25,0.83 -3.32,1.37 -2.67,1.34 -5.14,3.06 -7.58,4.74 -2.47,1.7 -4.9,3.46 -7.42,5.07 -2.31,1.41 -4.68,2.67 -7.24,3.55 -1.86,0.52 -3.76,0.78 -5.69,1.03 -2.46,0.33 -4.93,0.54 -7.41,0.64 0.21,-0.01 0.43,-0.01 0.64,-0.02 -0.24,0.01 -0.47,0.01 -0.71,0.02 -0.12,0.01 -0.23,0.01 -0.35,0.02 0.1,-0.01 0.2,-0.01 0.3,-0.01 -4.38,0.1 -8.77,-0.15 -13.05,-1.09 -1.92,-0.5 -3.78,-1.15 -5.57,-2.02 -0.55,-0.34 -1.06,-0.73 -1.55,-1.15 -2.96,-3.03 -4.95,-6.84 -8.05,-9.75 -2.76,-2.61 -6.84,-3.44 -10.53,-3.49 -7.26,-0.07 -14.15,2.61 -21.36,3.03 -1.49,0.01 -2.97,-0.09 -4.44,-0.39 -0.91,-0.26 -1.78,-0.59 -2.63,-1.01 -0.77,-0.48 -1.49,-1.01 -2.18,-1.61 -0.92,-0.94 -1.72,-1.97 -2.44,-3.06 -1.1,-1.91 -2.01,-3.93 -2.72,-6.02 -0.64,-2.27 -1.04,-4.59 -1.19,-6.94 -0.04,-2.25 0.15,-4.48 0.61,-6.69 0.43,-1.61 1,-3.14 1.73,-4.62 0.66,-1.12 1.4,-2.18 2.26,-3.16 0.96,-0.96 2.01,-1.81 3.15,-2.55 0.12,-0.07 0.24,-0.13 0.36,-0.2 0.07,-0.04 0.14,-0.08 0.21,-0.13 0.05,0 0.1,-0.01 0.15,-0.02 1.2,-0.2 1.8,-1.28 1.72,-2.41 0,-0.03 -0.01,-0.06 -0.01,-0.09 0.09,-0.47 0.09,-0.96 0,-1.43 0.05,-0.95 0.17,-1.9 0.37,-2.84 0.44,-1.78 1.13,-3.46 2.01,-5.08 1.18,-2.01 2.6,-3.87 4.18,-5.58 2.62,-2.71 5.6,-5.03 8.76,-7.07 4.54,-2.82 9.42,-5.03 14.51,-6.62 4.46,-1.33 9.06,-2.18 13.71,-2.35 3.03,-0.05 6.03,0.2 8.98,0.86 2,0.52 3.93,1.24 5.75,2.21 1.23,0.72 2.39,1.55 3.47,2.5 1.07,1.03 2.01,2.17 2.82,3.41 0.84,1.4 1.5,2.88 2,4.43 0.13,0.5 0.24,0.99 0.36,1.49 0.2,0.82 0.68,1.49 1.48,1.81 0.99,0.38 2.11,0.03 2.74,-0.81 0.48,-0.63 0.97,-1.22 1.49,-1.8 1.03,-1.03 2.14,-1.94 3.35,-2.74 1.24,-0.74 2.54,-1.33 3.9,-1.8 1.75,-0.51 3.53,-0.81 5.34,-0.92 2.52,-0.06 5.01,0.22 7.46,0.79 2.79,0.73 5.48,1.77 8.04,3.12 -0.1,-0.05 -0.2,-0.11 -0.29,-0.17 0.1,0.06 0.21,0.12 0.31,0.17 0.1,0.05 0.19,0.1 0.29,0.15 -0.1,-0.05 -0.19,-0.1 -0.29,-0.15 2.57,1.45 4.96,3.15 7.13,5.15 1.62,1.57 3.04,3.28 4.29,5.16 0.99,1.61 1.79,3.3 2.39,5.09 0.34,1.2 0.57,2.42 0.69,3.66 -0.01,0.48 -0.02,0.97 -0.02,1.46 -0.03,1.09 0.32,2.11 1.24,2.78 0.45,0.33 0.95,0.52 1.5,0.57 0.88,0.09 1.54,-0.21 2.25,-0.67 0.03,-0.02 0.06,-0.04 0.09,-0.06 0.87,-0.51 1.77,-0.94 2.71,-1.28 0.9,-0.24 1.8,-0.38 2.72,-0.46 0.96,0.01 1.91,0.12 2.86,0.31 1.19,0.34 2.31,0.79 3.41,1.35 1.58,0.93 3.04,2.01 4.4,3.24 1.64,1.62 3.07,3.4 4.35,5.32 1.31,2.16 2.38,4.42 3.17,6.82 0.42,1.51 0.7,3.04 0.8,4.61 0,1.63 -0.25,3.27 -0.6,4.9 z"
         id="path436" />
      <path
         d="m 1243.19,714.92 c 0,0 -0.01,0 -0.01,-0.01 0,0.01 0.01,0.01 0.01,0.01 0,0 0,0 0,0 z"
         id="path438" />
      <path
         d="m 1211.15,759.31 c -0.21,-0.08 -0.43,-0.13 -0.65,-0.16 -0.44,-0.04 -0.88,0.03 -1.27,0.2 -0.63,0.29 -0.98,0.76 -1.29,1.36 -0.04,0.09 -0.09,0.18 -0.13,0.27 -0.63,1.1 -1.36,2.13 -2.21,3.07 -0.75,0.73 -1.54,1.37 -2.4,1.95 -0.8,0.47 -1.63,0.84 -2.5,1.15 -0.79,0.21 -1.59,0.35 -2.41,0.42 -0.73,0 -1.45,-0.07 -2.16,-0.21 -0.65,-0.18 -1.27,-0.42 -1.87,-0.71 -0.55,-0.34 -1.06,-0.72 -1.55,-1.15 -0.51,-0.53 -0.97,-1.1 -1.37,-1.72 -0.44,-0.79 -0.8,-1.61 -1.08,-2.46 -0.14,-0.52 -0.27,-1.04 -0.37,-1.56 -0.23,-1.12 -1.27,-1.91 -2.43,-1.72 -1.1,0.2 -1.93,1.3 -1.7,2.42 0.59,3.08 1.81,6.06 4.06,8.3 2.07,2.05 4.79,3.25 7.68,3.46 2.93,0.21 5.92,-0.67 8.39,-2.21 1.38,-0.86 2.58,-1.86 3.68,-3.06 1.23,-1.34 2.17,-2.82 2.99,-4.44 0.3,-0.56 0.19,-1.37 -0.06,-1.92 -0.26,-0.59 -0.75,-1.05 -1.35,-1.28 z"
         id="path440" />
      <path
         d="m 1177.34,725.31 c -3.22,2.08 -4.17,6.49 -2.08,9.71 2.08,3.22 6.49,4.17 9.71,2.08 3.22,-2.08 4.17,-6.49 2.08,-9.71 -2.08,-3.21 -6.49,-4.16 -9.71,-2.08 z"
         id="path442" />
      <path
         d="m 1221.99,731.12 c -3.03,1.96 -3.93,6.14 -1.97,9.17 1.96,3.03 6.14,3.93 9.17,1.97 3.03,-1.96 3.93,-6.14 1.97,-9.17 -1.96,-3.03 -6.14,-3.93 -9.17,-1.97 z"
         id="path444" />
    </g>
  </g>
</svg>
