<?xml version="1.0" encoding="UTF-8" standalone="no"?>
<svg
   xmlns:dc="http://purl.org/dc/elements/1.1/"
   xmlns:cc="http://creativecommons.org/ns#"
   xmlns:rdf="http://www.w3.org/1999/02/22-rdf-syntax-ns#"
   xmlns:svg="http://www.w3.org/2000/svg"
   xmlns="http://www.w3.org/2000/svg"
   id="svg708"
   version="1.1"
   viewBox="0 0 25.428677 33.0022"
   height="33.002197mm"
   width="25.428677mm">
  <defs
     id="defs702" />
  <metadata
     id="metadata705">
    <rdf:RDF>
      <cc:Work
         rdf:about="">
        <dc:format>image/svg+xml</dc:format>
        <dc:type
           rdf:resource="http://purl.org/dc/dcmitype/StillImage" />
        <dc:title></dc:title>
      </cc:Work>
    </rdf:RDF>
  </metadata>
  <g
     transform="translate(132.97866,-153.22166)"
     id="layer1">
    <g
       transform="matrix(0.26458333,0,0,0.26458333,-466.12209,-83.563152)"
       className="crescent"
       style="fill:#0000ff"
       id="g78">
      <path
         d="m 1353.35,987.22 c 1.03,-3.44 1.54,-6.98 1.78,-10.55 0.13,-1.88 0.13,-3.76 0.04,-5.65 -0.04,-0.98 -0.12,-1.95 -0.22,-2.94 -0.05,-0.51 -0.11,-1.01 -0.17,-1.5 -0.04,-0.34 -0.05,-0.78 -0.18,-1.09 -0.4,-1.07 -1.5,-1.74 -2.64,-1.37 -0.7,0.22 -1.26,0.88 -1.43,1.6 -1.3,1.48 -2.73,2.85 -4.14,4.21 -1.51,1.48 -3.08,2.88 -4.59,4.34 -2.05,1.99 -4.13,3.95 -6.31,5.79 -2.54,2.06 -5.24,3.94 -8.19,5.37 -1.6,0.69 -3.24,1.21 -4.95,1.56 -1.37,0.2 -2.74,0.27 -4.12,0.21 -1.82,-0.17 -3.59,-0.55 -5.33,-1.13 -1.84,-0.71 -3.6,-1.59 -5.25,-2.67 -1.66,-1.24 -3.16,-2.64 -4.5,-4.2 -1.78,-2.25 -3.23,-4.69 -4.47,-7.29 -1.77,-3.98 -3,-8.17 -3.82,-12.46 -1.07,-6.13 -1.42,-12.42 -0.98,-18.64 -0.01,0.12 -0.02,0.24 -0.03,0.35 0.01,-0.17 0.03,-0.33 0.04,-0.5 0,-0.05 0.01,-0.1 0.01,-0.16 0,0.03 0,0.07 -0.01,0.1 0.27,-2.96 0.67,-5.88 1.65,-8.69 1.29,-3.41 3.1,-6.6 5.17,-9.58 2.22,-3.09 4.75,-5.96 7.65,-8.41 1.71,-1.38 3.52,-2.6 5.49,-3.56 1.26,-0.56 2.56,-1 3.91,-1.29 1.03,-0.17 2.05,-0.22 3.09,-0.17 0.88,0.1 1.73,0.29 2.58,0.56 0.99,0.4 1.92,0.89 2.81,1.49 0.69,0.52 1.34,1.09 1.97,1.72 0.62,0.62 1.57,0.68 2.33,0.32 0.07,-0.01 0.13,0 0.19,-0.02 1.27,-0.41 2.03,-1.83 1.61,-3.1 -0.97,-2.97 -2.26,-5.92 -4.23,-8.36 -1.37,-1.7 -2.98,-3.16 -4.85,-4.25 -0.46,-0.27 -0.94,-0.52 -1.44,-0.75 -4.99,-2.27 -10.58,-1.81 -15.72,-0.36 -5.76,1.63 -11.13,4.66 -16.02,8.06 -4.84,3.36 -9.4,7.27 -13.29,11.69 -1.72,1.96 -3.32,4.06 -4.69,6.27 -1.72,2.8 -3.14,5.82 -4.47,8.83 -3.09,7.01 -5.55,14.39 -6.98,21.92 -1.43,7.54 -2.01,15.3 -1.06,22.92 0.96,7.71 3.48,15.2 7.77,21.71 2.25,3.41 5.06,6.5 8.08,9.24 2.97,2.68 6.3,5.02 9.8,6.96 3.31,1.84 6.93,3.2 10.58,4.23 3.51,0.98 7.15,1.43 10.81,1.63 3.34,0.18 6.7,-0.07 9.99,-0.65 3.47,-0.61 6.83,-1.49 10.09,-2.82 3.18,-1.28 6.28,-2.87 9.12,-4.82 2.81,-1.92 5.41,-4.22 7.72,-6.73 4.55,-4.98 7.85,-10.92 9.8,-17.37 z m -9.34,7.59 c -1.96,2.74 -4.21,5.2 -6.76,7.4 -2.72,2.21 -5.72,4.07 -8.86,5.58 -3.14,1.4 -6.41,2.41 -9.78,3.08 -3.7,0.62 -7.43,0.77 -11.16,0.52 -3.65,-0.36 -7.22,-1.15 -10.69,-2.34 -3.7,-1.4 -7.21,-3.23 -10.47,-5.45 -3.29,-2.4 -6.29,-5.17 -8.96,-8.26 -2.11,-2.62 -3.91,-5.47 -5.38,-8.52 -1.62,-3.67 -2.73,-7.48 -3.46,-11.43 -0.8,-5.1 -0.92,-10.25 -0.57,-15.4 0.66,-7.73 2.52,-15.33 5.11,-22.63 1.07,-2.88 2.3,-5.69 3.62,-8.46 0.95,-2.01 1.96,-3.94 3.21,-5.77 3.16,-4.36 7.04,-8.25 11.16,-11.7 4.02,-3.27 8.33,-6.19 13.05,-8.39 2.32,-1.03 4.71,-1.86 7.21,-2.36 1.57,-0.25 3.15,-0.37 4.74,-0.28 1.08,0.12 2.14,0.34 3.19,0.68 0.85,0.34 1.65,0.76 2.42,1.26 0.95,0.7 1.8,1.5 2.56,2.39 0.2,0.26 0.36,0.53 0.55,0.79 -0.23,-0.09 -0.46,-0.18 -0.7,-0.26 -2.38,-0.78 -4.98,-0.75 -7.41,-0.3 -5.28,1.01 -9.86,4.31 -13.69,7.93 -4.07,3.84 -7.5,8.49 -10.09,13.45 -1.13,2.18 -2.09,4.48 -2.75,6.84 -0.35,1.2 -0.54,2.46 -0.75,3.7 -0.29,1.85 -0.48,3.7 -0.63,5.57 -0.6,7.72 0.03,15.48 1.81,23.04 1.74,7.39 5.01,14.52 10.28,20.07 2.58,2.72 5.83,4.82 9.29,6.26 3.55,1.5 7.29,2.3 11.17,2.16 3.61,-0.14 6.98,-1.26 10.19,-2.79 3.15,-1.51 5.94,-3.74 8.46,-6.11 2.25,-2.1 4.25,-4.43 6.11,-6.88 1.27,-1.69 2.52,-3.39 3.8,-5.07 0.35,-0.46 0.67,-0.93 1.01,-1.4 0,1.26 -0.02,2.52 -0.1,3.78 -0.33,3.62 -1.06,7.14 -2.24,10.58 -1.18,3.08 -2.67,5.99 -4.49,8.72 z"
         id="path74" />
      <path
         d="m 1293.87,940.8 c 0.01,-0.07 0.01,-0.14 0.02,-0.2 0,0.02 0,0.04 -0.01,0.06 -0.01,0.04 -0.01,0.09 -0.01,0.14 z"
         id="path76" />
    </g>
  </g>
</svg>
