<?xml version="1.0" encoding="UTF-8" standalone="no"?>
<svg
   xmlns:dc="http://purl.org/dc/elements/1.1/"
   xmlns:cc="http://creativecommons.org/ns#"
   xmlns:rdf="http://www.w3.org/1999/02/22-rdf-syntax-ns#"
   xmlns:svg="http://www.w3.org/2000/svg"
   xmlns="http://www.w3.org/2000/svg"
   id="svg708"
   version="1.1"
   viewBox="0 0 33.750837 29.462672"
   height="29.462669mm"
   width="33.750835mm">
  <defs
     id="defs702" />
  <metadata
     id="metadata705">
    <rdf:RDF>
      <cc:Work
         rdf:about="">
        <dc:format>image/svg+xml</dc:format>
        <dc:type
           rdf:resource="http://purl.org/dc/dcmitype/StillImage" />
        <dc:title></dc:title>
      </cc:Work>
    </rdf:RDF>
  </metadata>
  <g
     transform="translate(73.312037,-208.55748)"
     id="layer1">
    <g
       transform="matrix(0.26458333,0,0,0.26458333,-257.48221,25.822118)"
       className="crown"
       style="fill:#ff0000"
       id="g256">
      <path
         d="m 803.75,751.42 c -0.21,-0.29 -0.51,-0.53 -0.85,-0.68 -0.66,-0.3 -1.47,-0.3 -2.03,0.18 -10.83,9.32 -22.24,18.24 -34.89,25 -5.48,2.87 -11.21,5.27 -17.24,6.71 -3.34,0.74 -6.73,1.15 -10.16,1.08 -2.47,-0.12 -4.9,-0.49 -7.28,-1.17 0.06,0.02 0.11,0.04 0.17,0.06 -0.06,-0.02 -0.13,-0.04 -0.19,-0.06 -0.1,-0.03 -0.2,-0.06 -0.31,-0.09 0.1,0.03 0.19,0.05 0.29,0.08 -2.19,-0.71 -4.26,-1.66 -6.23,-2.86 -2.06,-1.34 -3.93,-2.92 -5.65,-4.69 -0.33,-0.35 -0.93,-0.47 -1.39,-0.44 -0.48,0.05 -0.93,0.3 -1.24,0.67 -0.32,0.37 -0.48,0.88 -0.43,1.38 0.05,0.53 0.32,0.88 0.67,1.26 2.37,2.46 5.05,4.54 8.05,6.2 2.76,1.52 5.84,2.49 8.91,3.07 6.42,1.18 13.03,0.23 19.25,-1.55 6.81,-1.95 13.26,-5.12 19.39,-8.64 6.14,-3.53 11.96,-7.62 17.59,-11.92 4.48,-3.43 8.79,-7.04 13.07,-10.71 0.43,-0.37 0.75,-0.78 0.84,-1.37 0.09,-0.54 -0.03,-1.08 -0.34,-1.51 z"
         id="path246" />
      <path
         d="m 731.31,782.52 c -0.01,0 -0.03,-0.01 -0.04,-0.01 0.01,0 0.01,0 0.02,0.01 0,-0.01 0.01,0 0.02,0 z"
         id="path248" />
      <path
         d="m 757.71,702.9 c 0,0 0,0 0,0 0,-0.01 0.01,-0.02 0.01,-0.02 -0.01,0 -0.01,0.01 -0.01,0.02 z"
         id="path250" />
      <path
         d="m 757.69,702.93 c -0.04,0.11 -0.08,0.22 -0.13,0.33 0.05,-0.11 0.09,-0.22 0.13,-0.33 0,0.01 0,0 0,0 z"
         id="path252" />
      <path
         d="m 823.63,757.32 c -0.06,-0.68 0.02,-1.46 -0.23,-2.13 -0.19,-0.55 -0.34,-1.09 -0.49,-1.65 -0.34,-1.3 -0.67,-2.63 -1,-3.95 -0.69,-2.72 -1.36,-5.45 -2.02,-8.18 -1.36,-5.62 -2.7,-11.25 -4.12,-16.87 -2.65,-10.54 -5.63,-21.13 -10.2,-31.04 -0.22,-0.68 -0.6,-1.27 -1.12,-1.77 -0.33,-0.3 -0.68,-0.54 -1.07,-0.71 -0.24,-0.11 -0.5,-0.2 -0.77,-0.26 -1.34,-0.32 -3.04,0.08 -3.93,1.2 -2.68,3.3 -4.94,6.87 -6.88,10.62 -2.03,3.89 -3.7,7.94 -5.34,11.98 -3.17,7.75 -6.22,15.63 -11,22.57 -0.13,0.18 -0.26,0.35 -0.4,0.53 -1.37,-1.85 -2.51,-3.83 -3.52,-5.9 -4.2,-9.33 -5.57,-19.55 -7.68,-29.47 -0.22,-1.02 -1.27,-1.85 -2.24,-2.08 -1.3,-0.3 -2.81,0.31 -3.42,1.55 -0.19,0.37 -0.35,0.75 -0.5,1.13 -0.01,0.01 -0.01,0.03 -0.02,0.04 -0.09,0.22 -0.17,0.45 -0.25,0.67 0.04,-0.12 0.08,-0.23 0.12,-0.35 -0.73,1.89 -1.43,3.78 -2.05,5.72 -0.8,2.5 -1.53,5.03 -2.28,7.56 -1.57,5.34 -3.13,10.69 -5.07,15.91 0.01,-0.03 0.02,-0.07 0.03,-0.1 -1.51,3.99 -3.22,7.98 -5.67,11.5 -0.74,0.98 -1.54,1.9 -2.45,2.73 -0.55,0.43 -1.14,0.82 -1.75,1.15 -0.43,0.17 -0.86,0.31 -1.31,0.42 -0.47,0.06 -0.94,0.07 -1.42,0.06 -0.54,-0.08 -1.06,-0.21 -1.58,-0.38 -0.69,-0.3 -1.33,-0.67 -1.96,-1.09 -1.1,-0.86 -2.06,-1.84 -2.97,-2.9 -2.3,-2.92 -4.07,-6.2 -5.65,-9.54 -2.61,-5.69 -4.65,-11.62 -6.6,-17.56 -0.89,-2.69 -1.74,-5.39 -2.64,-8.09 -0.66,-1.99 -1.33,-3.98 -2.18,-5.9 -0.48,-1.08 -1.31,-1.87 -2.57,-1.82 -1.07,0.03 -2.28,0.86 -2.42,1.99 -3.54,25.67 -7.52,51.27 -10.89,76.94 -0.09,0.73 -0.07,1.36 0.34,2.01 0.36,0.56 0.95,0.98 1.59,1.14 0.21,0.05 0.43,0.06 0.66,0.04 0.58,1.32 1.28,2.6 2.1,3.78 1.92,2.78 4.42,4.96 7.18,6.84 2.85,1.96 6.06,3.3 9.31,4.46 3.4,1.21 6.95,1.99 10.52,2.57 7.77,1.24 15.72,1.55 23.58,1.16 7.19,-0.37 14.45,-1.17 21.44,-2.91 3.61,-0.9 7.09,-2.18 10.51,-3.66 5.4,-2.36 10.53,-5.27 15.31,-8.73 4.79,-3.48 9.25,-7.49 13.23,-11.87 1.97,-2.18 3.76,-4.51 5.43,-6.93 1.51,-2.16 2.72,-4.43 3.72,-6.84 0.02,-0.01 0.04,0 0.06,-0.01 1.48,-0.46 2.65,-1.98 2.53,-3.58 z m -8.71,-1.27 c -1.25,1.43 -2.57,2.8 -3.81,4.24 -1.51,1.73 -3.03,3.43 -4.58,5.11 -2.95,3.2 -6.07,6.22 -9.39,9.02 -6.22,5.07 -12.95,9.51 -20.19,12.98 -6.03,2.69 -12.52,4.3 -19,5.46 -8.68,1.45 -17.61,1.99 -26.37,1.18 -4.9,-0.54 -9.76,-1.49 -14.39,-3.19 -2.36,-0.93 -4.61,-2.07 -6.71,-3.49 -1.42,-1.04 -2.71,-2.21 -3.87,-3.53 -0.81,-1.04 -1.52,-2.15 -2.11,-3.32 -0.6,-1.38 -1.04,-2.81 -1.32,-4.3 -0.12,-0.6 -0.6,-1.17 -1.12,-1.56 2.7,-20.09 5.68,-40.15 8.54,-60.22 0.58,1.81 1.16,3.61 1.75,5.41 2.24,6.75 4.64,13.47 7.9,19.82 1.44,2.85 3.14,5.55 5.19,8.01 1.68,1.99 3.69,3.8 6.1,4.88 2.45,1.1 5.12,1.34 7.72,0.61 2.49,-0.69 4.62,-2.44 6.31,-4.33 2.26,-2.53 3.95,-5.57 5.38,-8.61 1.69,-3.58 3.05,-7.33 4.32,-11.09 1.63,-4.81 2.99,-9.72 4.54,-14.56 0.82,4.51 1.76,8.99 3.06,13.4 1.97,6.67 5,13.26 9.77,18.43 1.46,1.57 4.11,1.23 5.5,-0.2 6.29,-6.5 10.12,-14.93 13.53,-23.16 2.81,-6.73 5.43,-13.59 9.13,-19.87 2.97,7.75 5.19,15.78 7.28,23.8 1.42,5.4 2.73,10.82 4.09,16.24 0.68,2.73 1.37,5.45 2.11,8.17 0.35,1.31 0.72,2.63 1.1,3.95 0.01,0.03 0.01,0.05 0.02,0.08 -0.17,0.19 -0.32,0.4 -0.46,0.62 0,0 -0.01,0.01 -0.02,0.02 z"
         id="path254" />
    </g>
  </g>
</svg>
