<?xml version="1.0" encoding="UTF-8" standalone="no"?>
<svg
   xmlns:dc="http://purl.org/dc/elements/1.1/"
   xmlns:cc="http://creativecommons.org/ns#"
   xmlns:rdf="http://www.w3.org/1999/02/22-rdf-syntax-ns#"
   xmlns:svg="http://www.w3.org/2000/svg"
   xmlns="http://www.w3.org/2000/svg"
   id="svg708"
   version="1.1"
   viewBox="0 0 29.815192 29.854579"
   height="29.854578mm"
   width="29.815191mm">
  <defs
     id="defs702" />
  <metadata
     id="metadata705">
    <rdf:RDF>
      <cc:Work
         rdf:about="">
        <dc:format>image/svg+xml</dc:format>
        <dc:type
           rdf:resource="http://purl.org/dc/dcmitype/StillImage" />
        <dc:title></dc:title>
      </cc:Work>
    </rdf:RDF>
  </metadata>
  <g
     transform="translate(-29.107031,-354.87793)"
     id="layer1">
    <path
       className="envelope"
       style="fill:#0000ff;stroke-width:0.264583"
       d="m 58.80328,372.01221 c -0.116417,-0.19844 -0.309563,-0.34396 -0.534459,-0.40746 -0.07673,-0.0212 -0.148166,-0.0291 -0.216958,-0.0291 -0.06615,0 -0.129646,0.0132 -0.195792,0.0265 -0.06615,-0.16139 -0.134937,-0.32279 -0.203729,-0.47889 -0.219604,-0.50007 -0.465667,-0.9869 -0.714375,-1.47373 -0.481542,-0.94457 -0.9525,-1.89177 -1.373188,-2.86544 -0.34925,-0.85196 -0.66675,-1.70921 -0.931333,-2.59292 -0.301625,-1.00012 -0.552979,-2.01083 -0.799042,-3.02683 -0.436562,-1.84679 -0.788458,-3.7121 -1.129771,-5.57742 -0.08202,-0.43391 -0.52652,-0.70379 -0.949854,-0.70379 -0.08202,0 -0.161396,0.0106 -0.238125,0.0318 -0.198437,-0.0212 -0.396875,-0.037 -0.597958,-0.037 -0.03704,0 -0.07408,0 -0.111125,0 -0.431271,0.008 -0.865188,0.0794 -1.293813,0.14817 -0.809625,0.127 -1.608666,0.34396 -2.389187,0.58473 -1.582208,0.48418 -3.1115,1.13506 -4.614333,1.81504 -3.010959,1.35466 -5.91873,2.93952 -8.961438,4.22804 -1.227667,0.50535 -2.4765,0.96573 -3.765021,1.31762 -0.484187,0.12965 -0.772583,0.64559 -0.642937,1.12978 0.01323,0.0503 0.04763,0.0873 0.06879,0.13493 -0.0053,0.0291 -0.02117,0.0556 -0.02381,0.0847 -0.0079,0.10319 0.0079,0.20373 0.03969,0.29898 -0.0079,0.005 -0.01588,0.008 -0.02381,0.0159 -0.108479,0.11377 -0.105833,0.24871 -0.07937,0.39159 0.0291,0.15875 0.07937,0.31485 0.121708,0.47095 0.02117,0.0741 0.06879,0.13494 0.129646,0.17728 0.0635,0.18256 0.129646,0.36512 0.193146,0.54504 0.193146,0.55298 0.386292,1.1086 0.579438,1.66423 0.394229,1.1377 0.806979,2.27541 1.201208,3.41841 0.420687,1.22238 0.820208,2.45269 1.225021,3.683 0.407458,1.22238 0.820208,2.44475 1.235604,3.66713 0.193146,0.5715 0.41275,1.12977 0.592666,1.70392 0.17198,0.56356 0.314855,1.1377 0.508,1.69333 0.15875,0.45244 0.359834,0.89958 0.677334,1.26471 0.328083,0.381 0.780521,0.59266 1.280583,0.6006 0.04763,0 0.09525,-0.008 0.142875,-0.0132 0.01852,0.12171 0.05556,0.24077 0.119063,0.34661 0.251354,0.42862 0.881062,0.64293 1.314979,0.34395 3.169708,-2.19604 6.627812,-3.91318 10.075333,-5.62239 1.751542,-0.87313 3.505729,-1.74361 5.222875,-2.68023 0.822854,-0.44979 1.643063,-0.92075 2.44475,-1.41023 0.423334,-0.26458 0.844021,-0.5371 1.259417,-0.81492 0.423333,-0.29104 0.85725,-0.59266 1.214438,-0.96573 0.277812,-0.29897 0.34925,-0.73554 0.142875,-1.08743 z m -21.648209,-9.91394 c 2.2225,-1.02658 4.407958,-2.12196 6.654271,-3.08504 1.320271,-0.55563 2.667,-1.05569 4.037541,-1.47373 0.642938,-0.19579 1.299105,-0.36513 1.955271,-0.52123 -0.169333,0.4445 -0.298979,0.90752 -0.418041,1.3679 -0.309563,1.23031 -0.563563,2.4712 -0.820209,3.7121 -0.261937,1.26206 -0.537104,2.52148 -0.836083,3.78089 -0.124354,0.51859 -0.251354,1.03982 -0.404813,1.55046 -0.0926,0.30692 -0.193145,0.61384 -0.322791,0.90752 -0.08996,0.0503 -0.182563,0.0952 -0.275167,0.13494 -0.261937,0.0767 -0.529167,0.13229 -0.804333,0.1614 -0.783167,0.0291 -1.568979,-0.0794 -2.336271,-0.23284 -1.262063,-0.26987 -2.492375,-0.66939 -3.704167,-1.10595 -1.322916,-0.47361 -2.627312,-0.99748 -3.929062,-1.53194 -1.135063,-0.46302 -2.264834,-0.94456 -3.407834,-1.397 -0.156104,-0.0609 -0.314854,-0.12436 -0.470958,-0.18521 1.735667,-0.58473 3.421063,-1.31763 5.082646,-2.08227 z m -0.0344,19.71146 c 0.02117,0.008 0.04233,0.0185 0.0635,0.0265 -0.02117,-0.008 -0.04233,-0.0159 -0.0635,-0.0265 0,0 0,0 0,0 z m 15.621,-7.25223 c -1.7145,0.94985 -3.46075,1.83092 -5.207,2.71198 -3.272896,1.64835 -6.553729,3.30464 -9.596437,5.35516 -0.08467,-0.44714 -0.441855,-0.84666 -0.899584,-0.90487 -0.0026,-0.003 -0.0053,-0.008 -0.0079,-0.0106 -0.1905,-0.27517 -0.34925,-0.56886 -0.508,-0.86255 -0.235479,-0.43127 -0.449792,-0.87841 -0.672042,-1.31762 -0.478896,-0.95515 -0.957792,-1.91029 -1.381125,-2.8919 -0.661458,-1.59543 -1.243542,-3.22791 -1.852083,-4.84716 -0.370417,-0.99219 -0.767292,-1.9685 -1.145646,-2.96069 -0.264583,-0.68792 -0.529167,-1.38113 -0.799042,-2.06904 -0.142875,-0.36513 -0.291041,-0.72761 -0.441854,-1.08744 -0.06615,-0.15081 -0.132291,-0.30692 -0.203729,-0.45508 0.452438,0.11906 0.894292,0.27781 1.325563,0.4445 0.759354,0.29104 1.508124,0.60589 2.251604,0.92339 1.857375,0.78317 3.71475,1.57163 5.603875,2.28071 1.807104,0.68263 3.656541,1.3044 5.561541,1.65629 0.759354,0.14288 1.521354,0.20373 2.288646,0.14288 0.346604,-0.0265 0.669396,-0.14023 0.997479,-0.25665 0.370417,-0.12964 0.656167,-0.36777 0.904875,-0.66675 0.256646,-0.30162 0.41275,-0.69056 0.555625,-1.05569 0.174625,-0.45243 0.298979,-0.9181 0.423334,-1.38641 0.357187,-1.35731 0.611187,-2.73579 0.859895,-4.11692 0.216959,-1.22237 0.431271,-2.4421 0.640292,-3.66448 0.322792,1.8759 0.664104,3.7465 1.103313,5.59858 0.373062,1.57957 0.727604,3.15913 1.28852,4.68313 0.291042,0.78581 0.635,1.5531 1.095375,2.2516 0.195792,0.29634 0.423334,0.5768 0.669397,0.83873 -0.137584,0.0847 -0.275167,0.17198 -0.412751,0.25665 -0.804333,0.48154 -1.61925,0.9525 -2.442104,1.41023 z"
       id="path176" />
  </g>
</svg>
