<?xml version="1.0" encoding="UTF-8" standalone="no"?>
<svg
   xmlns:dc="http://purl.org/dc/elements/1.1/"
   xmlns:cc="http://creativecommons.org/ns#"
   xmlns:rdf="http://www.w3.org/1999/02/22-rdf-syntax-ns#"
   xmlns:svg="http://www.w3.org/2000/svg"
   xmlns="http://www.w3.org/2000/svg"
   id="svg708"
   version="1.1"
   viewBox="0 0 27.117989 19.750784"
   height="19.750784mm"
   width="27.117989mm">
  <defs
     id="defs702" />
  <metadata
     id="metadata705">
    <rdf:RDF>
      <cc:Work
         rdf:about="">
        <dc:format>image/svg+xml</dc:format>
        <dc:type
           rdf:resource="http://purl.org/dc/dcmitype/StillImage" />
        <dc:title></dc:title>
      </cc:Work>
    </rdf:RDF>
  </metadata>
  <g
     transform="translate(61.117012,-44.105303)"
     id="layer1">
    <path
       className="eye"
       style="fill:#0000ff;stroke-width:0.264583"
       d="m -34.043515,55.827051 c 0.07673,-0.28575 0.06615,-0.55827 -0.127,-0.79904 -0.07673,-0.0952 -0.182563,-0.17463 -0.298979,-0.22754 -0.03175,-0.0159 -0.06615,-0.0238 -0.0979,-0.0344 -0.523875,-0.81227 -1.2065,-1.49225 -1.949979,-2.10873 -0.780521,-0.64294 -1.656292,-1.14829 -2.550584,-1.61396 -0.105833,-0.0556 -0.214312,-0.10583 -0.320146,-0.1561 0.357188,-0.37042 0.695855,-0.75407 1.005417,-1.16417 0.484188,-0.63765 0.944563,-1.30704 1.296458,-2.032 0.20373,-0.42598 0.05556,-0.94721 -0.373062,-1.16681 -0.230188,-0.11907 -0.481542,-0.12171 -0.701146,-0.0344 -0.1905,0.0741 -0.354542,0.21696 -0.463021,0.40746 -0.254,0.44714 -0.515937,0.889 -0.796396,1.31497 -0.492125,0.70644 -1.04775,1.35732 -1.661583,1.95792 -1.140354,-0.41539 -2.323042,-0.71967 -3.511021,-0.92604 -0.915458,-0.1561 -1.844146,-0.21696 -2.772833,-0.22754 -0.0079,0 -0.01323,0 -0.02117,0 0.06879,-0.762 0.198438,-1.51606 0.394229,-2.25954 0.142875,-0.49213 0.312209,-0.97632 0.486834,-1.4605 0.07408,-0.20373 0.07673,-0.42334 0.01058,-0.61648 -0.07673,-0.22225 -0.240771,-0.41275 -0.481542,-0.51065 -0.4445,-0.18256 -0.936625,0.0397 -1.12977,0.47096 -0.322792,0.73554 -0.534459,1.51871 -0.706438,2.30187 -0.156104,0.70115 -0.240771,1.41817 -0.283104,2.13519 -0.402167,0.0317 -0.804333,0.0688 -1.2065,0.127 -0.955146,0.14023 -1.894417,0.39423 -2.812521,0.70379 -0.785812,0.26988 -1.547812,0.61384 -2.280708,1.01336 -0.555625,-0.61648 -1.058334,-1.27794 -1.494896,-1.98702 -0.256646,-0.44186 -0.492125,-0.89959 -0.719667,-1.35996 -0.09525,-0.19579 -0.254,-0.34661 -0.439208,-0.43127 -0.214313,-0.0979 -0.465667,-0.11113 -0.701146,-0.005 -0.439208,0.19579 -0.616479,0.70643 -0.436563,1.143 0.309563,0.74348 0.730251,1.43668 1.180042,2.10079 0.343959,0.51329 0.738188,0.98954 1.150938,1.44727 -0.587375,0.41804 -1.148292,0.87312 -1.66423,1.38377 -0.923395,0.90752 -1.735666,1.91558 -2.418291,3.0136 -0.134938,0.21432 -0.209021,0.43657 -0.166688,0.69586 0.0344,0.20902 0.145521,0.39687 0.301625,0.53446 -0.0079,0.21696 0.06879,0.38629 0.185209,0.56885 0.595312,0.93398 1.293812,1.77536 2.098145,2.53206 0.351896,0.33338 0.719667,0.6403 1.108605,0.92075 0.449791,0.32544 0.928687,0.59796 1.415521,0.8599 0.854604,0.46037 1.772708,0.7911 2.711979,1.03452 1.000125,0.25665 2.016125,0.42598 3.048,0.46831 1.053041,0.0476 2.116666,-0.0265 3.164416,-0.15346 1.018646,-0.12964 2.026709,-0.3466 3.008313,-0.63764 1.053042,-0.31486 2.079625,-0.69056 3.071812,-1.15623 0.986896,-0.46567 1.934105,-1.01335 2.841625,-1.6166 0.833438,-0.55034 1.603375,-1.19063 2.301875,-1.905 0.365125,-0.37571 0.714375,-0.75936 1.02923,-1.1774 0.132291,-0.18256 0.261937,-0.37042 0.381,-0.56356 0.164041,-0.24607 0.3175,-0.51329 0.394229,-0.80434 z m -10.115021,1.03981 c -0.182563,0.0476 -0.367771,0.082 -0.555625,0.0979 -0.148167,-0.003 -0.296333,-0.0185 -0.4445,-0.0423 -0.15875,-0.045 -0.312208,-0.10318 -0.460375,-0.17462 -0.148167,-0.0926 -0.288396,-0.19579 -0.423333,-0.31221 -0.111125,-0.11906 -0.214313,-0.24342 -0.306917,-0.37835 -0.0635,-0.11642 -0.119063,-0.23813 -0.164042,-0.36248 -0.02381,-0.10054 -0.03969,-0.20373 -0.05027,-0.30692 0.0026,-0.082 0.01323,-0.16404 0.02381,-0.24342 0.02381,-0.0714 0.04763,-0.13758 0.07938,-0.20637 0.05292,-0.082 0.108479,-0.15875 0.169333,-0.23283 0.119063,-0.11113 0.248709,-0.20903 0.383646,-0.30163 0.171979,-0.0979 0.351896,-0.17992 0.537104,-0.24606 0.0979,-0.0238 0.195792,-0.0423 0.293688,-0.0529 0.07144,0.003 0.140229,0.0106 0.211666,0.0212 0.05556,0.0185 0.10848,0.037 0.161396,0.0609 0.06615,0.0423 0.129646,0.09 0.187854,0.14023 0.08202,0.0926 0.15875,0.18785 0.227542,0.29104 0.116417,0.21166 0.209021,0.43127 0.28575,0.65881 0.108479,0.39423 0.169333,0.79375 0.193146,1.19856 0,0.0794 0,0.1614 -0.0026,0.24077 -0.108479,0.0608 -0.224896,0.10848 -0.346604,0.15082 z m -8.755063,4.64344 c -0.883708,-0.21431 -1.73302,-0.52917 -2.542645,-0.94985 -0.804334,-0.45244 -1.550459,-0.99219 -2.227792,-1.6219 -0.590021,-0.58737 -1.103313,-1.23296 -1.55575,-1.93146 0.428625,-0.64558 0.899583,-1.25941 1.42875,-1.82827 0.738187,-0.74877 1.563687,-1.41023 2.452687,-1.97644 0.889,-0.53181 1.830917,-0.96308 2.817813,-1.28058 0.322792,-0.0926 0.648229,-0.17462 0.973667,-0.24606 -0.03704,0.0318 -0.07408,0.0609 -0.10848,0.0952 -0.36777,0.34396 -0.642937,0.74612 -0.881062,1.18798 -0.473604,0.88106 -0.653521,1.92087 -0.658813,2.91041 -0.0026,1.0795 0.209021,2.15636 0.627063,3.15384 0.404812,0.95514 1.042458,1.83091 1.886479,2.44475 0.169333,0.12171 0.34925,0.23018 0.537104,0.32808 -0.923396,-0.0106 -1.844146,-0.0926 -2.749021,-0.28575 z m 15.150042,-4.57994 c -0.851958,0.67998 -1.740958,1.32027 -2.664354,1.90236 -0.799042,0.48154 -1.629833,0.91281 -2.481792,1.29381 0.529167,-0.56092 0.941917,-1.23296 1.164167,-1.97379 0.251354,-0.83609 0.267229,-1.73831 0.06615,-2.58763 -0.127,-0.54768 -0.338667,-1.07421 -0.624417,-1.56104 -0.3175,-0.54504 -0.701146,-1.02129 -1.161521,-1.44727 -0.328083,-0.30427 -0.679979,-0.55827 -1.055687,-0.78581 1.727729,0.42069 3.376083,1.06891 4.947708,1.89971 0.645583,0.35718 1.277938,0.73554 1.905,1.12448 0.465667,0.28839 0.926042,0.59266 1.394354,0.87841 -0.05292,0.045 -0.103187,0.09 -0.156104,0.13494 -0.441854,0.381 -0.881062,0.75935 -1.3335,1.12183 z"
       id="path508" />
  </g>
</svg>
