<?xml version="1.0" encoding="UTF-8" standalone="no"?>
<svg
   xmlns:dc="http://purl.org/dc/elements/1.1/"
   xmlns:cc="http://creativecommons.org/ns#"
   xmlns:rdf="http://www.w3.org/1999/02/22-rdf-syntax-ns#"
   xmlns:svg="http://www.w3.org/2000/svg"
   xmlns="http://www.w3.org/2000/svg"
   id="svg708"
   version="1.1"
   viewBox="0 0 38.395223 30.636249"
   height="30.636246mm"
   width="38.395222mm">
  <defs
     id="defs702" />
  <metadata
     id="metadata705">
    <rdf:RDF>
      <cc:Work
         rdf:about="">
        <dc:format>image/svg+xml</dc:format>
        <dc:type
           rdf:resource="http://purl.org/dc/dcmitype/StillImage" />
        <dc:title></dc:title>
      </cc:Work>
    </rdf:RDF>
  </metadata>
  <g
     transform="translate(235.62373,-123.17347)"
     id="layer1">
    <g
       transform="matrix(0.26458333,0,0,0.26458333,-542.50273,-251.28059)"
       className="eyes"
       id="g24">
      <path
         style="fill:#ff0000"
         d="m 1256.2,1432.12 c 1.3,-2.79 11.21,-0.58 13.51,0.18 5.2,1.71 9,5.07 12.84,8.83 3.81,3.74 10.28,-1.14 7.42,-5.8 -4.78,-7.78 -13.45,-12.53 -22.35,-13.89 -6.68,-1.02 -17.53,-0.78 -19.42,7.38 -1.07,4.59 5.82,7.97 8,3.3 z"
         id="path14" />
      <path
         style="fill:#ff0000"
         d="m 1201.07,1415.55 c -15.86,-2.32 -27.63,9.63 -34.9,22.44 -2.47,4.36 3.86,9.65 7.22,5.49 7.11,-8.8 13.66,-19.87 26.54,-19.06 5.01,0.32 6.2,-8.13 1.14,-8.87 z"
         id="path16" />
      <path
         style="fill:#ff0000"
         d="m 1162.8,1527.51 c 2.65,-0.01 5.3,0.05 7.95,0.07 -1.11,-5.16 -1.71,-10.23 -1.92,-14.64 -0.72,-15.08 1.95,-30.3 10.8,-42.16 0.75,-0.19 1.49,-0.56 2.17,-1.23 11.12,-10.84 26.26,-13.42 35.98,0.61 6.67,9.63 8.61,23.72 9.7,35.04 0.64,6.64 0.82,15.11 -0.31,23.4 3.38,0.04 6.77,0.09 10.15,0.09 2.05,-15.91 -0.57,-33.3 -4.24,-46.66 -0.42,-1.51 -0.89,-2.97 -1.41,-4.4 0.84,-0.08 1.68,-0.48 2.36,-1.37 9.65,-12.46 25.36,-15.54 38.96,-7.15 14.22,8.77 20.16,25.69 21.3,41.6 0.42,5.87 0.29,12.22 -0.93,18.25 3.42,0.49 6.82,1.19 10.2,2.09 1.24,-6.05 1.61,-12.34 1.32,-18.39 -1.01,-21.38 -9.66,-44.17 -29.9,-54.22 -16.3,-8.1 -37.07,-4.17 -46.71,11.65 -9.7,-17.55 -27.84,-24.73 -45.37,-13.59 -0.51,0.15 -1.02,0.41 -1.5,0.8 -0.4,0.33 -0.76,0.69 -1.15,1.03 -1.77,1.32 -3.52,2.8 -5.26,4.51 -0.7,0.69 -1.1,1.45 -1.28,2.21 -13.71,16.99 -15.97,41.21 -12.26,62.56 0.45,-0.04 0.88,-0.1 1.35,-0.1 z"
         id="path18" />
      <path
         d="m 1218.79,1528.49 c 1.35,-5.52 1.61,-11.42 1.71,-16.9 0.16,-8.59 0.34,-20.95 -4.38,-28.72 -9.11,-14.99 -27.76,-7.49 -34.86,4.9 -0.39,0.68 -0.6,1.34 -0.67,1.97 -6.23,11.2 -6.38,25.52 -2.32,37.9 13.52,0.2 27.02,0.59 40.52,0.85 z"
         id="path20" />
      <path
         d="m 1282.96,1527.98 c 1.34,-5.49 1.59,-11.37 1.69,-16.81 0.16,-8.59 0.34,-20.95 -4.38,-28.72 -9.11,-14.99 -27.76,-7.49 -34.86,4.9 -0.39,0.68 -0.6,1.34 -0.67,1.97 -6.48,11.65 -6.4,26.66 -1.83,39.36 13.34,-0.19 26.77,-1.39 40.05,-0.7 z"
         id="path22" />
    </g>
  </g>
</svg>
