<?xml version="1.0" encoding="UTF-8" standalone="no"?>
<svg
   xmlns:dc="http://purl.org/dc/elements/1.1/"
   xmlns:cc="http://creativecommons.org/ns#"
   xmlns:rdf="http://www.w3.org/1999/02/22-rdf-syntax-ns#"
   xmlns:svg="http://www.w3.org/2000/svg"
   xmlns="http://www.w3.org/2000/svg"
   id="svg708"
   version="1.1"
   viewBox="0 0 26.962183 32.516119"
   height="32.516117mm"
   width="26.962183mm">
  <defs
     id="defs702" />
  <metadata
     id="metadata705">
    <rdf:RDF>
      <cc:Work
         rdf:about="">
        <dc:format>image/svg+xml</dc:format>
        <dc:type
           rdf:resource="http://purl.org/dc/dcmitype/StillImage" />
        <dc:title></dc:title>
      </cc:Work>
    </rdf:RDF>
  </metadata>
  <g
     transform="translate(37.131282,-269.86313)"
     id="layer1">
    <g
       transform="matrix(0.26458333,0,0,0.26458333,-372.72345,149.44861)"
       className="boy"
       style="fill:#0000ff"
       id="g150">
      <path
         d="m 1366.24,505.34 c -1.23,-2.99 -2.74,-5.89 -4.49,-8.62 -1.72,-2.71 -3.77,-5.2 -5.96,-7.55 -0.25,-0.26 -0.53,-0.49 -0.78,-0.75 0.53,-0.6 1.05,-1.21 1.63,-1.76 1.38,-1.17 2.87,-2.19 4.46,-3.07 0.63,-0.3 1.25,-0.59 1.89,-0.86 1.49,-0.61 2.32,-2.22 1.76,-3.78 -0.43,-1.19 -1.59,-1.94 -2.8,-1.94 -0.33,0 -0.67,0.06 -0.99,0.17 -4.08,1.49 -7.64,4 -10.53,7.22 -2.99,-2.29 -6.25,-4.24 -9.69,-5.72 0.86,-1.37 1.73,-2.74 2.56,-4.13 1.47,-2.43 2.97,-4.84 4.36,-7.32 0.56,-0.97 0.16,-2.33 -0.65,-3.02 -0.45,-0.39 -1.04,-0.61 -1.63,-0.61 -0.09,0 -0.17,0 -0.26,0.01 -0.61,0.06 -1.36,0.36 -1.72,0.88 -1.59,2.35 -2.97,4.82 -4.39,7.28 -0.99,1.72 -2.03,3.43 -3.05,5.14 -2.65,-0.79 -5.36,-1.29 -8.1,-1.6 -0.03,-0.15 -0.06,-0.3 -0.11,-0.45 -0.46,-1.34 -0.84,-2.68 -1.18,-4.06 -0.38,-1.86 -0.66,-3.74 -0.86,-5.64 -0.25,-2.24 -0.22,-4.53 -0.61,-6.76 -0.27,-1.62 -1.31,-2.96 -3.02,-3.25 -0.18,-0.03 -0.36,-0.04 -0.54,-0.04 -1.71,0 -3.46,1.25 -3.64,3.03 -0.35,3.25 0.12,6.54 0.66,9.75 0.42,2.4 1.05,4.77 1.78,7.11 -3.3,0.12 -6.58,0.64 -9.79,1.38 -3.81,0.88 -7.54,2.09 -11.08,3.77 -3.67,1.73 -6.95,3.99 -9.88,6.76 -2.08,1.96 -3.8,4.3 -5.27,6.77 -1.12,1.23 -2.18,2.5 -3.2,3.8 -4.36,5.56 -7.76,11.91 -9.96,18.63 -2.2,6.66 -3.18,13.62 -2.63,20.62 0.55,6.98 2.9,13.83 6.67,19.74 4.01,6.28 10.12,10.9 16.64,14.35 3.57,1.89 7.34,3.26 11.19,4.43 3.75,1.14 7.61,1.94 11.52,2.37 7.91,0.88 16.02,0.3 23.6,-2.22 3.52,-1.16 6.93,-2.87 9.96,-5.01 1.57,-1.1 2.99,-2.41 4.4,-3.71 1.42,-1.31 2.74,-2.71 4.01,-4.16 4.68,-5.31 8.38,-11.58 10.7,-18.27 1.14,-3.28 1.99,-6.64 2.5,-10.07 0.49,-3.35 0.64,-6.76 0.53,-10.12 -0.19,-6.37 -1.6,-12.8 -4.01,-18.72 z m -5.61,34.57 c -1.36,4.02 -3.19,7.85 -5.46,11.43 -2.35,3.49 -5.1,6.65 -8.17,9.5 -2.03,1.78 -4.17,3.35 -6.53,4.67 -2.91,1.47 -5.98,2.54 -9.14,3.3 -4.69,0.99 -9.46,1.35 -14.24,1.2 -5.18,-0.27 -10.29,-1.12 -15.26,-2.57 -4.46,-1.42 -8.77,-3.29 -12.75,-5.76 -2.81,-1.84 -5.44,-3.97 -7.72,-6.45 -1.81,-2.09 -3.37,-4.36 -4.67,-6.78 -1.33,-2.63 -2.3,-5.38 -2.99,-8.24 -0.72,-3.4 -1.04,-6.83 -0.96,-10.28 0.2,-4.57 1.02,-9.08 2.36,-13.45 1.56,-4.82 3.72,-9.39 6.41,-13.69 0.77,-1.2 1.58,-2.36 2.43,-3.5 0.83,0.18 1.58,-0.29 2.03,-1.03 0.19,-0.32 0.39,-0.65 0.59,-0.97 -0.09,0.14 -0.17,0.29 -0.26,0.43 1.47,-2.27 3.26,-4.3 5.22,-6.15 2.68,-2.38 5.59,-4.43 8.76,-6.11 2.91,-1.46 5.94,-2.57 9.11,-3.34 4.33,-0.93 8.74,-1.41 13.18,-1.29 3.57,0.17 7.08,0.72 10.51,1.71 0.46,0.2 0.93,0.41 1.38,0.63 0.25,0.12 0.49,0.14 0.7,0.09 2.61,0.98 5.11,2.2 7.49,3.66 3.18,2.07 6.06,4.53 8.64,7.34 2.54,2.92 4.7,6.13 6.48,9.55 1.73,3.55 3.05,7.26 3.96,11.09 0.82,3.92 1.22,7.91 1.15,11.91 -0.19,4.46 -0.94,8.84 -2.25,13.1 z"
         id="path142" />
      <path
         d="m 1304.34,518.84 c 0.79,1.14 1.89,1.7 3.21,2.04 2.53,0.62 5.2,-0.61 6.96,-2.38 0.98,-1 1.81,-2.67 1.55,-4.12 -0.15,-0.88 -0.29,-1.53 -0.76,-2.26 -0.08,-0.74 -0.33,-1.47 -0.79,-2.13 -0.81,-1.17 -2.38,-2.04 -3.89,-2.04 -0.52,0 -1.04,0.11 -1.52,0.34 -0.36,0.17 -0.7,0.36 -1.04,0.56 0,-0.01 -0.01,-0.01 -0.01,-0.02 -0.04,0.03 -0.08,0.07 -0.12,0.1 -0.52,0.31 -1.03,0.63 -1.55,0.93 -0.18,0.08 -0.35,0.15 -0.53,0.21 -1.73,0.72 -2.9,2.38 -2.72,4.3 0.04,0.47 0.18,0.93 0.4,1.37 -0.04,1.12 0.13,2.11 0.81,3.1 z"
         id="path144" />
      <path
         d="m 1331.57,527.28 c 1.19,-0.11 2.11,-0.65 2.95,-1.44 0.34,-0.24 0.7,-0.47 1.04,-0.72 0.09,-0.07 0.18,-0.14 0.27,-0.21 0.46,-0.31 0.88,-0.67 1.25,-1.11 0.75,-0.9 1.11,-1.97 1.13,-3.07 0.04,-0.33 0.04,-0.67 0.01,-1.01 -0.12,-1.21 -0.71,-2.35 -1.63,-3.15 -0.86,-0.73 -1.99,-1.12 -3.12,-1.12 -0.93,0 -1.86,0.27 -2.63,0.85 -0.49,0.36 -0.97,0.74 -1.44,1.14 -0.71,0.49 -1.24,1.13 -1.6,1.91 -0.01,0.03 -0.02,0.06 -0.04,0.08 -0.06,0.06 -0.12,0.12 -0.18,0.18 -1.79,1.82 -1.3,5.04 0.53,6.6 0.94,0.8 2.22,1.2 3.46,1.07 z"
         id="path146" />
      <path
         d="m 1338.35,536.11 c -0.84,-0.39 -1.79,-0.42 -2.66,-0.12 -0.94,0.35 -1.43,0.98 -1.95,1.79 -0.06,0.12 -0.13,0.23 -0.2,0.34 -1.11,1.65 -2.34,3.2 -3.78,4.57 -1.01,0.85 -2.08,1.6 -3.23,2.27 -1.3,0.64 -2.65,1.14 -4.05,1.51 -1.61,0.32 -3.23,0.45 -4.87,0.42 -1.91,-0.14 -3.79,-0.47 -5.63,-0.98 -2.39,-0.8 -4.66,-1.83 -6.82,-3.15 -2.11,-1.4 -4.03,-3.02 -5.76,-4.86 -1.47,-1.68 -2.75,-3.49 -3.81,-5.45 -0.64,-1.29 -1.16,-2.61 -1.59,-3.98 -0.43,-1.36 -1.8,-2.17 -3.15,-2.17 -0.38,0 -0.75,0.06 -1.11,0.19 -1.76,0.64 -2.53,2.53 -1.99,4.26 1.69,5.37 4.91,10.07 8.95,13.94 2.04,1.95 4.38,3.55 6.79,4.98 2.41,1.43 4.98,2.41 7.65,3.22 5.1,1.53 10.69,1.46 15.73,-0.26 5.79,-1.98 10.41,-6.54 13.16,-11.93 0.84,-1.67 -0.02,-3.81 -1.68,-4.59 z"
         id="path148" />
    </g>
  </g>
</svg>
