<?xml version="1.0" encoding="UTF-8" standalone="no"?>
<svg
   xmlns:dc="http://purl.org/dc/elements/1.1/"
   xmlns:cc="http://creativecommons.org/ns#"
   xmlns:rdf="http://www.w3.org/1999/02/22-rdf-syntax-ns#"
   xmlns:svg="http://www.w3.org/2000/svg"
   xmlns="http://www.w3.org/2000/svg"
   id="svg708"
   version="1.1"
   viewBox="0 0 35.762605 31.59666"
   height="31.596659mm"
   width="35.762604mm">
  <defs
     id="defs702" />
  <metadata
     id="metadata705">
    <rdf:RDF>
      <cc:Work
         rdf:about="">
        <dc:format>image/svg+xml</dc:format>
        <dc:type
           rdf:resource="http://purl.org/dc/dcmitype/StillImage" />
        <dc:title></dc:title>
      </cc:Work>
    </rdf:RDF>
  </metadata>
  <g
     transform="translate(145.59671,-80.164697)"
     id="layer1">
    <g
       transform="matrix(0.26458333,0,0,0.26458333,-207.96079,-40.716469)"
       className="boy2"
       style="fill:#0000ff"
       id="g474">
      <path
         d="m 370.77,519.56 c -0.24,-2.14 -1.08,-4.16 -2.26,-5.93 -1.18,-1.78 -2.97,-3.11 -4.88,-4 -0.17,-0.08 -0.35,-0.16 -0.53,-0.23 -2,-0.8 -4.24,-0.93 -6.35,-0.72 -2.64,0.25 -5.21,1.29 -7.53,2.54 -0.43,-3.62 -1.06,-7.25 -2.05,-10.77 1.81,-2.16 3.33,-4.5 4.55,-7.04 1.21,-2.51 1.99,-5.25 2.45,-7.99 0.89,-5.12 0.32,-10.42 -1.29,-15.32 -1.33,-4.09 -3.75,-8.08 -7.21,-10.71 -0.9,-0.69 -1.88,-1.24 -2.92,-1.65 -0.85,-0.34 -1.74,-0.59 -2.66,-0.75 -1.97,-0.33 -4.07,0.07 -5.88,0.85 -2.21,0.97 -4.02,2.63 -5.56,4.45 -0.93,1.1 -1.73,2.31 -2.44,3.58 -0.48,-0.54 -0.98,-1.06 -1.5,-1.56 -1.64,-1.6 -3.47,-2.85 -5.5,-3.89 -3.91,-2.02 -8.52,-2.47 -12.83,-1.89 -4.53,0.6 -8.82,2.58 -12.51,5.2 -1.9,1.34 -3.58,2.96 -5.14,4.67 -0.79,0.87 -1.49,1.78 -2.15,2.74 -5.34,-5.48 -12.49,-10.21 -20.34,-8.25 -7.12,1.78 -11.98,8.04 -14.33,14.7 -2.05,5.82 -2.41,12.35 -0.3,18.21 1.02,2.86 2.79,5.37 5.04,7.38 1.48,1.31 3.22,2.25 5.06,2.95 -1.65,2.58 -2.99,5.36 -3.89,8.35 -0.08,0.28 -0.15,0.57 -0.22,0.85 -0.61,-0.32 -1.23,-0.63 -1.87,-0.89 -2.29,-0.92 -4.72,-1.4 -7.24,-1.14 -3.48,0.35 -6.53,2.44 -8.7,5.08 -2.17,2.66 -3.43,6.06 -3.92,9.43 -0.24,1.68 -0.2,3.43 0.02,5.1 0.23,1.59 0.71,3.21 1.48,4.63 0.92,1.68 2.14,3.19 3.74,4.28 1.74,1.19 3.76,1.87 5.84,2.09 2.55,0.26 5.08,-0.2 7.51,-0.91 1.76,-0.52 3.45,-1.24 5.07,-2.07 3.94,10.2 11.08,19.19 19.78,25.67 2.79,2.07 5.84,3.83 8.97,5.34 3.15,1.51 6.43,2.54 9.82,3.34 6.91,1.64 14.14,1.23 20.92,-0.79 3.74,-1.1 7.17,-2.79 10.5,-4.81 4.14,-2.52 7.7,-5.98 10.59,-9.86 5.04,-6.8 7.72,-15.08 8.97,-23.43 0.35,0.18 0.74,0.31 1.15,0.35 5.6,0.56 11.86,-0.52 16.01,-4.61 1.71,-1.69 3.07,-3.65 3.85,-5.94 0.73,-2.13 0.93,-4.37 0.68,-6.63 z m -109.01,-19 c -0.8,-0.49 -1.55,-1.05 -2.25,-1.68 -0.77,-0.79 -1.45,-1.65 -2.03,-2.6 -0.64,-1.14 -1.12,-2.34 -1.49,-3.59 -0.38,-1.53 -0.59,-3.09 -0.65,-4.67 0,-2.14 0.25,-4.25 0.73,-6.34 0.57,-2.14 1.37,-4.21 2.43,-6.15 0.86,-1.45 1.85,-2.81 3.01,-4.03 0.85,-0.82 1.77,-1.56 2.77,-2.2 0.89,-0.5 1.82,-0.91 2.8,-1.21 0.85,-0.2 1.71,-0.32 2.58,-0.36 0.97,0.02 1.92,0.14 2.87,0.35 1.34,0.38 2.61,0.91 3.83,1.57 1.94,1.16 3.71,2.57 5.34,4.13 1.11,1.11 2.15,2.29 3.15,3.51 0.46,0.57 1.1,0.94 1.84,1.03 0.85,0.1 2.01,-0.26 2.47,-1.06 1.24,-2.17 2.74,-4.16 4.46,-5.97 1.64,-1.62 3.45,-3.04 5.42,-4.25 1.73,-0.98 3.53,-1.77 5.43,-2.34 1.61,-0.42 3.24,-0.68 4.91,-0.74 1.46,0.01 2.89,0.17 4.32,0.49 1.3,0.38 2.54,0.88 3.74,1.52 1.19,0.73 2.29,1.58 3.31,2.54 1.17,1.23 2.18,2.56 3.07,4 0.06,0.11 0.12,0.21 0.18,0.32 0.52,0.94 1.25,1.65 2.38,1.78 1.33,0.15 2.54,-0.63 3.07,-1.84 0.48,-1.08 0.98,-2.12 1.54,-3.14 0.89,-1.51 1.88,-2.95 3.08,-4.25 0.6,-0.56 1.23,-1.08 1.91,-1.53 0.43,-0.23 0.87,-0.42 1.33,-0.58 0.38,-0.09 0.77,-0.14 1.16,-0.17 0.36,0.02 0.72,0.05 1.07,0.12 0.5,0.15 0.98,0.35 1.45,0.59 0.67,0.42 1.29,0.91 1.88,1.45 0.78,0.83 1.46,1.75 2.07,2.71 0.93,1.64 1.65,3.37 2.2,5.18 0.55,2.12 0.85,4.29 0.93,6.49 -0.01,2.18 -0.25,4.34 -0.74,6.46 -0.54,1.98 -1.29,3.87 -2.26,5.68 -0.31,0.52 -0.66,1 -1.01,1.5 -0.11,-0.06 -0.2,-0.14 -0.31,-0.19 -0.63,-0.25 -1.28,-0.32 -1.95,-0.23 -0.85,0.12 -1.97,0.64 -2.43,1.44 -0.47,0.82 -0.93,1.65 -1.39,2.48 -1.12,1.96 -2.36,3.82 -3.88,5.48 -0.82,0.77 -1.69,1.46 -2.63,2.08 -0.89,0.47 -1.8,0.86 -2.76,1.18 -0.96,0.22 -1.94,0.36 -2.92,0.42 -1.31,-0.03 -2.6,-0.19 -3.87,-0.46 -1.96,-0.56 -3.84,-1.36 -5.64,-2.34 -2.14,-1.28 -4.18,-2.76 -6.15,-4.29 -2.32,-1.78 -5.67,-0.74 -6.78,1.87 -0.22,0.52 -0.46,1.03 -0.72,1.53 -0.91,1.49 -1.94,2.87 -3.14,4.14 -1.35,1.3 -2.81,2.45 -4.4,3.44 -1.54,0.85 -3.14,1.56 -4.82,2.09 -1.46,0.38 -2.94,0.63 -4.45,0.7 -1.1,-0.02 -2.19,-0.13 -3.26,-0.35 -0.91,-0.26 -1.79,-0.6 -2.64,-1.03 -0.81,-0.49 -1.55,-1.05 -2.25,-1.68 -0.72,-0.76 -1.34,-1.57 -1.9,-2.45 -0.65,-1.2 -1.17,-2.44 -1.58,-3.73 -0.2,-0.76 -0.35,-1.52 -0.48,-2.29 0.31,-0.93 0.24,-1.95 -0.42,-2.81 -0.38,-0.48 -0.92,-0.83 -1.5,-1.02 -0.55,-0.27 -1.18,-0.39 -1.81,-0.3 -1.18,0.18 -2.05,1.02 -2.41,2.08 -0.93,0.89 -1.82,1.82 -2.66,2.79 -1.09,-0.32 -2.15,-0.73 -3.15,-1.27 z m -9.6,36.33 c -1.19,0.31 -2.39,0.53 -3.61,0.6 -0.73,-0.01 -1.44,-0.08 -2.15,-0.21 -0.48,-0.15 -0.94,-0.33 -1.4,-0.54 -0.38,-0.24 -0.73,-0.51 -1.07,-0.8 -0.36,-0.39 -0.68,-0.81 -0.97,-1.25 -0.33,-0.62 -0.6,-1.28 -0.82,-1.95 -0.25,-1 -0.39,-2.01 -0.44,-3.04 0.02,-1.25 0.16,-2.49 0.43,-3.72 0.31,-1.14 0.73,-2.25 1.28,-3.3 0.48,-0.8 1.03,-1.54 1.66,-2.24 0.52,-0.49 1.07,-0.93 1.66,-1.31 0.55,-0.29 1.12,-0.53 1.71,-0.73 0.68,-0.17 1.37,-0.27 2.07,-0.3 0.82,0.02 1.63,0.13 2.44,0.3 1.2,0.34 2.33,0.82 3.42,1.42 0.1,0.06 0.2,0.13 0.3,0.19 -0.59,4.5 -0.36,9.09 0.6,13.55 0.08,0.36 0.2,0.71 0.29,1.08 -1.76,0.86 -3.54,1.66 -5.4,2.25 z m 81.14,15.12 c -1.41,2.37 -3.04,4.55 -4.93,6.55 -2.01,1.91 -4.22,3.54 -6.6,4.99 -2.45,1.37 -5.02,2.48 -7.7,3.31 -2.6,0.68 -5.26,1.06 -7.95,1.16 -3.04,0 -6.06,-0.34 -9.03,-1.02 -3.6,-0.96 -7.04,-2.38 -10.31,-4.16 -3.71,-2.16 -7.13,-4.76 -10.22,-7.74 -3.09,-3.11 -5.8,-6.57 -8.08,-10.32 -1.59,-2.78 -2.91,-5.69 -3.94,-8.7 -0.02,-0.39 -0.08,-0.78 -0.23,-1.12 -0.09,-0.21 -0.2,-0.4 -0.33,-0.58 -0.83,-3.06 -1.32,-6.19 -1.41,-9.35 0.01,-2.61 0.29,-5.21 0.9,-7.75 0.63,-2.31 1.51,-4.52 2.65,-6.64 0.8,-1.37 1.71,-2.67 2.7,-3.91 0.22,0.63 0.47,1.26 0.74,1.88 1.04,2.32 2.55,4.29 4.37,6.05 1.55,1.51 3.54,2.63 5.54,3.39 2.13,0.82 4.47,1.2 6.75,1.21 8.37,0.09 16.17,-4.11 21.69,-10.25 0.48,0.4 0.97,0.78 1.47,1.16 1.91,1.38 4,2.56 6.15,3.5 3.96,1.74 8.34,2.45 12.63,1.99 2.01,-0.21 4.03,-0.83 5.86,-1.69 1.9,-0.9 3.67,-2.11 5.16,-3.58 0.02,-0.02 0.04,-0.04 0.06,-0.06 0.28,3.16 0.49,6.33 0.57,9.51 0.06,7.07 -0.51,14.16 -2.16,21.04 -1.05,3.86 -2.46,7.6 -4.35,11.13 z m 28.61,-25.25 c -0.57,0.52 -1.18,0.99 -1.82,1.41 -0.88,0.48 -1.79,0.85 -2.74,1.16 -1.54,0.39 -3.11,0.58 -4.7,0.65 -0.55,0 -1.1,-0.01 -1.64,-0.03 -0.43,-0.01 -0.84,0.02 -1.23,0.11 0.29,-4.14 0.27,-8.33 0.02,-12.48 0.37,-0.24 0.72,-0.5 1.09,-0.72 1.38,-0.76 2.81,-1.4 4.32,-1.88 0.9,-0.22 1.82,-0.37 2.74,-0.42 0.65,0.01 1.28,0.08 1.92,0.2 0.47,0.15 0.93,0.33 1.37,0.55 0.42,0.27 0.82,0.57 1.2,0.91 0.32,0.35 0.6,0.72 0.87,1.12 0.28,0.52 0.51,1.07 0.7,1.64 0.15,0.62 0.24,1.25 0.28,1.89 -0.02,0.72 -0.1,1.43 -0.25,2.13 -0.21,0.69 -0.47,1.35 -0.79,1.99 -0.4,0.64 -0.85,1.22 -1.34,1.77 z"
         id="path466" />
      <path
         d="m 291.11,528.31 c -3.1,-1.24 -6.72,0.31 -7.96,3.41 -1.24,3.1 0.31,6.72 3.41,7.96 3.1,1.24 6.72,-0.31 7.96,-3.41 1.24,-3.1 -0.31,-6.72 -3.41,-7.96 z"
         id="path468" />
      <circle
         cx="320.69"
         cy="533.84998"
         r="6.1300001"
         id="circle470" />
      <path
         d="m 315.29,552.3 c -0.22,-0.28 -0.51,-0.5 -0.84,-0.63 -0.17,-0.07 -0.34,-0.11 -0.52,-0.13 -0.55,-0.07 -0.99,0.12 -1.45,0.41 -0.08,0.05 -0.16,0.1 -0.24,0.15 -0.8,0.45 -1.62,0.83 -2.5,1.12 -0.59,0.15 -1.18,0.24 -1.79,0.29 -0.58,-0.01 -1.15,-0.08 -1.71,-0.19 -0.63,-0.19 -1.22,-0.43 -1.8,-0.73 -0.81,-0.5 -1.54,-1.08 -2.22,-1.73 -0.21,-0.22 -0.42,-0.43 -0.62,-0.67 -0.71,-0.8 -1.87,-1.03 -2.76,-0.35 -0.8,0.62 -1.06,1.96 -0.35,2.76 1.04,1.16 2.16,2.23 3.47,3.08 1.33,0.87 2.77,1.41 4.32,1.7 1.33,0.25 2.76,0.13 4.07,-0.18 1.68,-0.4 3.18,-1.18 4.6,-2.1 0.91,-0.58 0.97,-1.99 0.34,-2.8 z"
         id="path472" />
    </g>
  </g>
</svg>
