<?xml version="1.0" encoding="UTF-8" standalone="no"?>
<svg
   xmlns:dc="http://purl.org/dc/elements/1.1/"
   xmlns:cc="http://creativecommons.org/ns#"
   xmlns:rdf="http://www.w3.org/1999/02/22-rdf-syntax-ns#"
   xmlns:svg="http://www.w3.org/2000/svg"
   xmlns="http://www.w3.org/2000/svg"
   id="svg708"
   version="1.1"
   viewBox="0 0 37.52237 26.855038"
   height="26.855036mm"
   width="37.522369mm">
  <defs
     id="defs702" />
  <metadata
     id="metadata705">
    <rdf:RDF>
      <cc:Work
         rdf:about="">
        <dc:format>image/svg+xml</dc:format>
        <dc:type
           rdf:resource="http://purl.org/dc/dcmitype/StillImage" />
        <dc:title></dc:title>
      </cc:Work>
    </rdf:RDF>
  </metadata>
  <g
     transform="translate(120.66581,-109.82659)"
     id="layer1">
    <g
       transform="matrix(0.26458333,0,0,0.26458333,-581.02295,-74.209639)"
       className="girl"
       style="fill:#0000ff"
       id="g72">
      <path
         d="m 1880.36,772.8 c -0.95,-0.5 -2.49,-0.38 -3.17,0.57 -0.87,1.23 -1.72,2.48 -2.58,3.72 -1.76,2.36 -3.71,4.65 -5.89,6.62 -1.28,1.03 -2.65,1.96 -4.1,2.73 -0.42,0.18 -0.85,0.35 -1.29,0.48 -0.12,-0.34 -0.22,-0.68 -0.3,-1.03 -0.27,-1.86 -0.24,-3.76 -0.12,-5.63 0.53,-5.75 1.88,-11.36 3.19,-16.97 1.8,-7.62 3.44,-15.27 4.44,-23.04 1.05,-8.17 1.41,-16.47 -0.35,-24.56 -0.77,-3.53 -2.15,-6.98 -4.14,-10.01 -2.08,-3.18 -4.96,-5.71 -8.25,-7.58 -3.01,-1.72 -6.5,-2.53 -9.95,-2.53 -0.53,0 -1.05,0.02 -1.57,0.06 -4.1,0.28 -8.02,1.88 -11.47,4.05 -3.33,2.08 -6.23,4.99 -8.51,8.19 -2.11,2.98 -3.69,6.28 -4.61,9.8 -0.17,-0.04 -0.33,-0.09 -0.5,-0.13 -3.64,-0.89 -7.4,-1.35 -11.16,-1.35 -1.99,0 -3.99,0.15 -5.96,0.41 -0.43,-3.39 -1.49,-6.67 -3.47,-9.49 -2.18,-3.08 -5.38,-5.33 -8.9,-6.61 -2.89,-1.05 -5.9,-1.52 -8.94,-1.52 -1.16,0 -2.33,0.07 -3.49,0.2 -3.86,0.42 -7.49,1.59 -10.79,3.66 -3.07,1.93 -5.51,4.67 -7.53,7.65 -2.03,2.97 -3.41,6.26 -4.52,9.68 -1.09,3.33 -1.74,6.8 -2.16,10.28 -0.44,3.67 -0.62,7.38 -0.59,11.09 0.02,3.61 0.27,7.23 0.87,10.78 0.81,4.66 1.92,9.26 2.82,13.9 0.79,4.38 1.41,8.83 1.15,13.28 -0.15,1.41 -0.41,2.79 -0.84,4.14 -0.29,0.69 -0.63,1.36 -1.02,2.01 -0.36,0.46 -0.75,0.9 -1.17,1.31 -0.23,0.17 -0.46,0.32 -0.7,0.47 -0.17,0.06 -0.34,0.12 -0.52,0.17 -0.16,0.01 -0.32,0.02 -0.49,0.02 -0.24,-0.04 -0.48,-0.1 -0.72,-0.17 -0.5,-0.22 -0.97,-0.48 -1.44,-0.78 -0.6,-0.46 -1.15,-0.96 -1.67,-1.5 -0.88,-1.1 -1.62,-2.27 -2.27,-3.53 -0.48,-1.08 -0.85,-2.18 -1.1,-3.33 -0.11,-0.85 -0.16,-1.69 -0.12,-2.54 0.11,-0.81 0.29,-1.59 0.55,-2.38 0.4,-1.19 -0.42,-2.59 -1.45,-3.13 -0.67,-0.35 -1.48,-0.42 -2.2,-0.18 -0.76,0.26 -1.21,0.75 -1.63,1.39 -1.71,2.64 -2.03,6.01 -1.66,9.07 0.42,3.39 1.64,6.6 3.56,9.43 0.88,1.27 1.94,2.51 3.11,3.53 1.42,1.26 3.06,2.11 4.84,2.7 3.46,1.15 7.36,0.27 10.17,-1.99 1.67,-1.36 2.93,-2.9 4.06,-4.73 1,-1.66 1.63,-3.62 2.08,-5.49 0.45,-1.89 0.56,-3.89 0.64,-5.82 0.06,-1.96 -0.09,-3.91 -0.29,-5.84 -0.46,-4.14 -1.36,-8.26 -2.3,-12.32 -0.76,-3.26 -1.63,-6.49 -2.29,-9.78 -1.03,-6 -1.21,-12.23 -0.76,-18.29 0.4,-4.3 1.19,-8.55 2.59,-12.64 0.82,-2.11 1.8,-4.14 3.05,-6.04 0.9,-1.2 1.89,-2.32 3.01,-3.34 1.11,-0.9 2.3,-1.68 3.57,-2.34 1.57,-0.69 3.2,-1.19 4.88,-1.55 1.95,-0.3 3.9,-0.39 5.85,-0.28 1.46,0.17 2.88,0.48 4.28,0.94 1.11,0.45 2.16,1 3.17,1.66 0.81,0.62 1.55,1.29 2.23,2.04 0.63,0.8 1.18,1.63 1.65,2.53 0.45,1.02 0.79,2.08 1.04,3.16 0.09,0.56 0.13,1.12 0.18,1.68 -0.9,0.27 -1.78,0.56 -2.65,0.91 -0.43,0.02 -0.86,0.07 -1.29,0.13 -2.11,0.32 -4.11,1.15 -5.92,2.29 -4.07,2.54 -7.02,6.7 -9.27,10.87 -1.19,2.21 -2.21,4.52 -3.09,6.89 -0.49,1.15 -0.93,2.32 -1.35,3.5 -0.58,1.71 -0.95,3.43 -1.22,5.19 -1.07,4.71 -1.69,9.56 -1.54,14.4 0.07,2.23 0.51,4.39 1.15,6.5 1,3.39 2.3,6.7 3.9,9.84 1.41,2.73 3.11,5.27 5.16,7.54 1.99,2.2 4.4,4.02 6.91,5.56 2.53,1.54 5.33,2.6 8.15,3.44 2.91,0.86 5.92,1.36 8.92,1.69 7.14,0.79 14.5,0.98 21.47,-1.03 1.39,-0.4 2.74,-0.94 4.05,-1.55 1.59,-0.76 3.12,-1.58 4.56,-2.6 1.32,-0.93 2.54,-2 3.69,-3.14 1.25,-1.23 2.3,-2.64 3.29,-4.1 3.85,-5.64 5.46,-12.42 6.16,-19.13 0.35,-3.46 0.48,-6.93 0.32,-10.4 -0.16,-3.52 -0.72,-7.03 -1.54,-10.46 -1.54,-6.53 -4.56,-12.8 -9.23,-17.67 -2.19,-2.27 -4.83,-4.13 -7.68,-5.49 -1.58,-0.76 -3.27,-1.33 -4.93,-1.89 0.17,-0.69 0.34,-1.38 0.56,-2.06 0.73,-1.87 1.65,-3.61 2.75,-5.28 1.31,-1.81 2.8,-3.47 4.47,-4.96 1.7,-1.4 3.52,-2.62 5.48,-3.62 1.56,-0.7 3.17,-1.23 4.84,-1.59 1.38,-0.21 2.76,-0.29 4.16,-0.22 1.31,0.15 2.57,0.43 3.82,0.84 1.18,0.49 2.28,1.07 3.36,1.76 1.15,0.86 2.21,1.82 3.18,2.89 1.02,1.27 1.89,2.63 2.63,4.08 0.98,2.15 1.67,4.4 2.15,6.72 0.83,4.74 0.86,9.56 0.51,14.35 -0.72,8.04 -2.44,15.92 -4.38,23.75 -1.48,6.01 -3.2,11.98 -4.33,18.08 -0.59,3.2 -1,6.46 -1.05,9.72 -0.05,2.9 0.37,5.9 1.87,8.44 0.71,1.19 1.92,2.26 3.18,2.81 1.85,0.82 3.73,0.83 5.67,0.4 1.66,-0.38 3.22,-1.2 4.67,-2.07 2.22,-1.33 4.27,-3.08 6.01,-4.98 3.28,-3.56 5.48,-8.29 5.78,-13.13 0.1,-0.87 -0.62,-1.79 -1.38,-2.18 z m -45.75,-42.58 c 1.52,1.82 2.8,3.8 3.86,5.91 1.43,3.1 2.43,6.39 3.09,9.75 0.91,5.23 1.1,10.61 0.7,15.9 -0.37,3.93 -1.09,7.81 -2.36,11.54 -0.83,2.15 -1.85,4.23 -3.11,6.16 -1.05,1.44 -2.24,2.76 -3.58,3.95 -1.31,1.04 -2.71,1.93 -4.19,2.69 -2.08,0.93 -4.27,1.61 -6.51,2.07 -2.74,0.45 -5.49,0.6 -8.27,0.61 -2.88,0 -5.77,-0.07 -8.64,-0.3 -3.64,-0.37 -7.21,-1.05 -10.67,-2.22 -2,-0.76 -3.91,-1.69 -5.7,-2.86 -1.86,-1.33 -3.52,-2.92 -5.03,-4.63 -1.65,-2.01 -3.03,-4.21 -4.2,-6.53 -0.82,-1.73 -1.53,-3.51 -2.16,-5.34 -0.38,-1.11 -0.72,-2.23 -0.96,-3.39 -0.58,-3.5 -0.59,-7.04 -0.33,-10.58 0.29,-3.42 0.83,-6.83 1.66,-10.16 1.36,-3.29 3.04,-6.43 5.05,-9.38 1.72,-2.4 3.66,-4.62 5.9,-6.55 1.89,-1.54 3.92,-2.86 6.11,-3.94 1.61,-0.74 3.26,-1.3 4.95,-1.77 0.4,0.18 0.84,0.28 1.31,0.26 0.78,-0.04 1.49,-0.4 2,-0.96 2.63,-0.37 5.29,-0.46 7.95,-0.26 3.86,0.37 7.64,1.28 11.29,2.56 2.74,1.03 5.41,2.22 7.84,3.84 1.45,1.08 2.78,2.29 4,3.63 z"
         id="path64" />
      <path
         d="m 1789.85,751.63 c 0.05,0.88 0.31,1.7 0.79,2.43 0.46,0.72 1.09,1.27 1.85,1.67 1.83,0.95 4.56,0.66 5.89,-1.06 0.98,-1.28 1.77,-2.54 2.11,-4.14 0.45,-2.12 -0.26,-4.1 -1.7,-5.65 -0.93,-0.99 -2.34,-1.48 -3.72,-1.48 -0.58,0 -1.15,0.09 -1.68,0.26 -2.2,0.73 -3.83,3.02 -3.61,5.37 0.03,0.27 0.07,0.53 0.13,0.78 -0.13,0.56 -0.17,1.16 -0.06,1.82 z"
         id="path66" />
      <path
         d="m 1814.22,755.74 c 0.75,0.17 1.49,0.13 2.21,-0.11 0.54,-0.18 0.97,-0.44 1.35,-0.77 1.04,-0.36 1.92,-1.12 2.43,-2.11 0.46,-0.88 0.53,-1.73 0.41,-2.65 0.05,-0.18 0.1,-0.36 0.14,-0.53 0.72,-2.72 -1.76,-5.25 -4.3,-5.25 -0.76,0 -1.53,0.23 -2.22,0.74 -0.54,0.4 -1.05,0.79 -1.49,1.31 -0.72,0.84 -1.04,1.76 -1.17,2.81 -0.02,0.04 -0.04,0.07 -0.06,0.11 -0.45,0.83 -0.5,1.65 -0.56,2.58 0.04,0.75 0.26,1.44 0.67,2.08 0.59,0.91 1.53,1.56 2.59,1.79 z"
         id="path68" />
      <path
         d="m 1821.76,768.94 c -0.17,1.53 -0.4,3.05 -0.89,4.52 -0.31,0.76 -0.68,1.48 -1.12,2.17 -0.41,0.53 -0.86,1.02 -1.36,1.48 -0.58,0.45 -1.19,0.84 -1.84,1.18 -0.99,0.44 -2.01,0.76 -3.07,0.99 -1.54,0.24 -3.1,0.31 -4.65,0.22 -2.22,-0.22 -4.38,-0.74 -6.48,-1.51 -2.11,-0.83 -4.14,-1.83 -6.03,-3.1 -1.56,-1.12 -2.99,-2.37 -4.26,-3.81 -0.87,-1.05 -1.61,-2.17 -2.23,-3.38 -0.34,-0.76 -0.64,-1.54 -0.86,-2.35 -0.22,-0.73 -0.94,-1.19 -1.67,-1.19 -0.18,0 -0.36,0.03 -0.54,0.09 -0.93,0.31 -1.36,1.28 -1.11,2.2 1.23,4.46 4.28,8.28 7.86,11.12 3.92,3.14 8.53,5.28 13.46,6.31 2.25,0.46 4.62,0.66 6.91,0.44 2.34,-0.23 4.54,-0.9 6.58,-2.03 2.05,-1.14 3.64,-2.89 4.9,-4.83 0.7,-1.06 1.14,-2.27 1.54,-3.48 0.49,-1.47 0.67,-3.02 0.73,-4.56 0.05,-1.3 -1.12,-2.48 -2.32,-2.75 -0.77,-0.17 -1.6,-0.01 -2.27,0.42 -0.59,0.39 -1.19,1.11 -1.28,1.85 z"
         id="path70" />
    </g>
  </g>
</svg>
