<?xml version="1.0" encoding="UTF-8" standalone="no"?>
<svg
   xmlns:dc="http://purl.org/dc/elements/1.1/"
   xmlns:cc="http://creativecommons.org/ns#"
   xmlns:rdf="http://www.w3.org/1999/02/22-rdf-syntax-ns#"
   xmlns:svg="http://www.w3.org/2000/svg"
   xmlns="http://www.w3.org/2000/svg"
   id="svg708"
   version="1.1"
   viewBox="0 0 32.942944 52.887544"
   height="52.887543mm"
   width="32.942944mm">
  <defs
     id="defs702" />
  <metadata
     id="metadata705">
    <rdf:RDF>
      <cc:Work
         rdf:about="">
        <dc:format>image/svg+xml</dc:format>
        <dc:type
           rdf:resource="http://purl.org/dc/dcmitype/StillImage" />
        <dc:title></dc:title>
      </cc:Work>
    </rdf:RDF>
  </metadata>
  <g
     transform="translate(47.55284,-222.45527)"
     id="layer1">
    <g
       transform="matrix(0.26458333,0,0,0.26458333,-505.14859,174.95992)"
       className="jellyfish"
       id="g360">
      <path
         d="m 1834.91,242.53 c 0,-0.01 0,-0.03 0,-0.04 -0.01,0.07 -0.01,0.13 -0.02,0.2 0.01,-0.06 0.01,-0.11 0.02,-0.16 z"
         id="path344" />
      <path
         d="m 1787.59,204.2 c -0.01,0.01 -0.01,0.02 -0.02,0.03 0.09,-0.13 0.19,-0.26 0.28,-0.4 -0.09,0.12 -0.17,0.24 -0.26,0.37 z"
         id="path346" />
      <path
         d="m 1833.59,208.69 c -0.02,-0.09 -0.04,-0.18 -0.05,-0.27 0.02,0.12 0.04,0.24 0.07,0.36 -0.01,-0.03 -0.01,-0.06 -0.02,-0.09 z"
         id="path348" />
      <path
         d="m 1853.92,368.5 c -0.19,-2.36 -0.81,-4.71 -1.68,-6.92 -1.73,-4.35 -4.45,-8.23 -6.56,-12.39 -1.58,-3.39 -2.73,-6.97 -3.46,-10.63 -0.96,-5.74 -0.98,-11.58 -1.81,-17.34 -0.62,-4.28 -2.52,-8.2 -4.6,-11.95 -4.31,-7.82 -10,-14.85 -14,-22.86 -0.89,-1.87 -1.67,-3.8 -2.11,-5.82 -0.1,-0.75 -0.16,-1.49 -0.13,-2.24 0.06,-0.4 0.14,-0.79 0.25,-1.18 0.14,-0.31 0.29,-0.62 0.46,-0.91 0.37,-0.47 0.79,-0.9 1.25,-1.3 0.33,-0.29 0.55,-0.72 0.68,-1.18 0.03,-0.01 0.05,-0.02 0.08,-0.03 3.05,-1.22 5.79,-2.9 8.28,-5.03 5.15,-4.44 8.05,-10.81 9.54,-17.32 1.52,-6.7 1.48,-13.72 1.41,-20.57 -0.07,-6.73 -0.44,-13.48 -1.52,-20.12 -1.1,-6.82 -2.9,-13.61 -6.43,-19.6 -1.54,-2.64 -3.57,-5.06 -5.96,-6.98 -2.49,-2 -5.4,-3.37 -8.51,-4.08 -1.57,-0.36 -3.2,-0.54 -4.83,-0.54 -1.1,0 -2.2,0.08 -3.28,0.23 -2.84,0.42 -5.5,1.33 -8.08,2.6 -5.32,2.61 -9.82,6.73 -13.71,11.15 -4.54,5.16 -8.31,11.01 -11.68,17 -3.48,6.22 -6.44,12.72 -9.05,19.35 -2.47,6.27 -4.6,12.68 -6.3,19.19 -1.31,4.99 -2.35,10.1 -2.65,15.25 -0.06,1.11 0.85,2.04 1.87,2.36 0.28,0.82 0.84,1.54 1.64,1.85 0.64,0.25 1.29,0.45 1.94,0.67 -1.78,0.97 -3.39,2.19 -4.81,3.69 -3.52,3.73 -5,8.96 -5.47,13.95 -0.52,5.66 -0.1,11.3 0.36,16.96 0.43,5.11 0.92,10.28 0.57,15.42 -0.19,1.87 -0.52,3.73 -1.1,5.52 -0.63,1.56 -1.43,3.04 -2.35,4.45 -4.32,5.99 -10.55,10.18 -15.53,15.57 -1.31,1.42 -2.45,2.96 -3.52,4.55 -1.13,1.68 -1.91,3.52 -2.6,5.42 -1.4,3.95 -1.24,8.23 -0.27,12.26 -0.11,0.29 -0.16,0.6 -0.13,0.91 0.06,1.19 1.17,2.36 2.44,2.19 1.32,-0.16 2.63,-0.45 3.89,-0.9 1.42,-0.49 2.79,-1.22 4.06,-2 2.6,-1.58 4.87,-3.73 6.96,-5.92 2.22,-2.35 4.19,-4.96 6.09,-7.57 1.77,-2.43 3.45,-4.91 5.16,-7.38 -0.02,0.03 -0.04,0.06 -0.05,0.08 1.07,-1.55 2.15,-3.09 3.29,-4.57 1.54,-1.99 2.94,-4.06 4.19,-6.25 2.16,-3.81 3.52,-8.07 4.16,-12.4 1.33,-9.18 -0.52,-18.44 0.11,-27.65 0.23,-2.64 0.69,-5.23 1.54,-7.75 0.92,-2.5 2.2,-4.82 3.71,-7.03 1.77,-2.51 3.76,-4.85 5.77,-7.18 2,0.44 4.01,0.83 6.03,1.19 -0.27,0.18 -0.54,0.34 -0.8,0.53 -1.84,1.35 -3.31,3.02 -4.53,4.93 -1.09,1.68 -1.76,3.67 -2.16,5.61 -0.46,2.19 -0.52,4.5 -0.42,6.73 0.23,4.69 1.41,9.33 2.61,13.84 1.11,4.15 2.36,8.28 3.2,12.49 0.21,1.17 0.38,2.36 0.49,3.54 0.15,1.6 0.1,3.21 -0.01,4.81 -0.61,6.47 -2.45,12.73 -3.5,19.13 -0.52,3.25 -0.77,6.54 -0.58,9.82 0.22,3.7 1.17,7.35 2.76,10.68 0.33,0.7 0.67,1.25 1.38,1.62 0.68,0.35 1.48,0.41 2.19,0.16 0.12,-0.04 0.21,-0.13 0.32,-0.18 0.58,0.1 1.19,0 1.72,-0.33 1.76,-1.07 2.93,-2.9 3.92,-4.66 1.33,-2.39 2.26,-5.02 3.13,-7.62 2.1,-6.19 3.5,-12.63 4.69,-19.05 0.48,-2.6 0.91,-5.22 1.26,-7.83 0.39,-2.93 0.62,-5.85 0.44,-8.79 -0.26,-4.11 -1.29,-8.15 -2.39,-12.1 -1.09,-3.92 -2.32,-7.79 -3.12,-11.78 -0.5,-2.81 -0.75,-5.64 -0.58,-8.5 0.22,-2.28 0.7,-4.47 1.43,-6.64 0.41,-1.09 0.88,-2.15 1.38,-3.19 0.26,-0.52 0.54,-1.03 0.81,-1.55 1.6,0.09 3.21,0.11 4.81,0.09 -0.14,0.99 -0.23,2 -0.27,3 -0.06,1.42 0.13,2.84 0.38,4.24 0.25,1.48 0.61,2.93 1.04,4.37 0.81,2.61 1.99,5.11 3.16,7.57 1.25,2.56 2.55,5.09 3.8,7.64 1.71,3.66 2.91,7.55 4.2,11.37 1.96,5.9 3.9,11.82 5.9,17.71 2.2,6.45 4.53,12.87 7.08,19.19 2.23,5.51 4.57,11.01 7.56,16.17 1.48,2.54 3.18,5.09 5.4,7.05 0.7,0.61 1.49,1.09 2.32,1.48 0.16,1.44 1.12,2.71 2.64,3.05 1.86,0.41 3.74,-0.8 4.16,-2.65 0.58,-2.66 0.87,-5.41 0.63,-8.17 z M 1771.7,281 c -1.94,3.23 -3.18,6.83 -3.79,10.55 -0.75,4.69 -0.42,9.44 -0.2,14.14 0.21,4.53 0.42,9.08 0.1,13.63 -0.27,2.99 -0.82,5.92 -1.79,8.76 -1.1,2.95 -2.61,5.69 -4.39,8.3 -1.49,2.07 -3.14,4 -4.69,6.02 -1.55,2.02 -3.05,4.09 -4.58,6.12 -3.22,4.3 -6.62,8.54 -10.67,12.1 -1.59,1.34 -3.27,2.53 -5.1,3.49 -0.48,0.22 -0.98,0.41 -1.48,0.59 -0.05,-1.04 -0.08,-2.08 -0.02,-3.12 0.15,-1.48 0.45,-2.92 0.91,-4.32 0.53,-1.35 1.2,-2.6 1.99,-3.8 1.73,-2.38 3.82,-4.43 6.01,-6.36 4.52,-3.86 9.4,-7.41 13.19,-12.02 2.07,-2.54 3.68,-5.31 4.79,-8.38 0.77,-2.12 1.15,-4.34 1.33,-6.59 0.91,-10.73 -1.77,-21.39 -1.01,-32.12 0.2,-2.02 0.56,-4.02 1.19,-5.95 0.4,-1 0.88,-1.97 1.45,-2.89 0.52,-0.68 1.08,-1.32 1.71,-1.91 0.78,-0.62 1.61,-1.15 2.49,-1.62 1.41,-0.62 2.88,-1.06 4.38,-1.38 1.1,-0.18 2.22,-0.28 3.33,-0.35 -1.86,2.25 -3.64,4.59 -5.15,7.11 z m 4.69,-16.56 c -1.83,-0.48 -3.64,-1 -5.47,-1.48 -1.98,-0.51 -3.97,-0.81 -6.01,-0.93 0.41,-3.55 1.16,-7.06 2.02,-10.51 1.28,-5.18 2.89,-10.28 4.7,-15.3 4.1,-11.19 9.22,-22.14 15.94,-31.99 0,0 -0.01,0.01 -0.01,0.01 0.01,-0.01 0.02,-0.03 0.03,-0.04 0.12,-0.17 0.23,-0.34 0.35,-0.51 -0.03,0.05 -0.06,0.09 -0.09,0.14 3.05,-4.33 6.47,-8.44 10.45,-11.95 2.21,-1.85 4.57,-3.5 7.15,-4.8 1.73,-0.79 3.52,-1.4 5.39,-1.79 1.5,-0.23 3.01,-0.3 4.53,-0.22 1.44,0.16 2.86,0.46 4.25,0.91 1.18,0.47 2.3,1.05 3.37,1.74 1.21,0.89 2.3,1.9 3.3,3.02 1.33,1.64 2.45,3.43 3.39,5.3 1.85,3.95 3.02,8.13 3.86,12.38 -0.02,-0.1 -0.04,-0.21 -0.05,-0.31 0.04,0.19 0.07,0.39 0.11,0.58 0.01,0.07 0.03,0.13 0.04,0.2 -0.01,-0.04 -0.02,-0.07 -0.02,-0.11 1.04,5.88 1.48,11.84 1.62,17.82 0.07,2.67 0.04,5.35 -0.01,8.02 -0.05,2.62 -0.11,5.25 -0.3,7.86 0.01,-0.09 0.02,-0.18 0.03,-0.27 -0.01,0.1 -0.02,0.21 -0.03,0.31 -0.01,0.18 -0.03,0.36 -0.04,0.54 0.01,-0.13 0.02,-0.26 0.03,-0.39 -0.37,3.68 -1.04,7.3 -2.26,10.8 -0.8,2.02 -1.77,3.96 -2.97,5.77 -1.05,1.43 -2.22,2.75 -3.54,3.94 -1.42,1.16 -2.95,2.14 -4.57,2.96 -2.32,1.06 -4.75,1.79 -7.26,2.29 -4.74,0.79 -9.55,0.79 -14.34,0.43 -4.9,-0.46 -9.77,-1.29 -14.59,-2.3 -3.04,-0.63 -6.02,-1.34 -9,-2.12 z m 21.95,51.08 c 0.57,3.13 0.84,6.29 0.62,9.47 -0.44,4.61 -1.32,9.18 -2.25,13.71 -1.2,5.94 -2.65,11.89 -4.7,17.6 -0.78,2.1 -1.66,4.18 -2.87,6.07 -0.14,-0.55 -0.33,-1.1 -0.45,-1.66 -0.44,-2.71 -0.54,-5.41 -0.37,-8.16 0.55,-5.58 2.07,-11 3.2,-16.5 1.04,-5.16 1.68,-10.55 0.86,-15.78 -1.27,-8.11 -4.48,-15.73 -6.11,-23.74 -0.48,-2.64 -0.77,-5.31 -0.6,-8.01 0.14,-1.2 0.38,-2.37 0.77,-3.53 0.33,-0.82 0.74,-1.61 1.21,-2.36 0.56,-0.74 1.18,-1.42 1.86,-2.05 1.05,-0.85 2.19,-1.55 3.39,-2.16 0.77,-0.35 1.57,-0.65 2.38,-0.94 0.3,-0.11 0.55,-0.28 0.8,-0.47 -0.13,0.29 -0.27,0.57 -0.4,0.86 -0.83,1.89 -1.48,3.84 -1.94,5.86 -0.84,3.66 -0.81,7.48 -0.33,11.2 0.89,7.03 3.53,13.67 4.93,20.59 z m 46.99,55.09 c -2.11,-2.56 -3.69,-5.52 -5.13,-8.49 -2.6,-5.46 -4.71,-11.1 -6.64,-16.82 -2.15,-6.32 -4.15,-12.71 -6.09,-19.09 -1.68,-5.5 -3.34,-11.01 -5.13,-16.46 -0.64,-1.93 -1.31,-3.84 -2.05,-5.74 -1.13,-2.9 -2.65,-5.63 -4.02,-8.43 0.1,0.2 0.2,0.42 0.32,0.64 -1.97,-4.06 -3.74,-8.22 -4.68,-12.65 -0.31,-1.86 -0.45,-3.72 -0.35,-5.62 0.07,-0.6 0.18,-1.19 0.29,-1.77 0.33,-0.04 0.67,-0.04 1,-0.08 0.21,-0.03 0.42,-0.07 0.63,-0.1 -0.32,1.23 -0.52,2.51 -0.47,3.81 0.16,4.03 1.94,7.88 3.73,11.42 4.11,8.11 9.77,15.33 13.83,23.47 0.97,2.08 1.83,4.23 2.34,6.48 0.25,1.55 0.36,3.12 0.48,4.69 0.16,1.96 0.26,3.92 0.39,5.86 0.26,4.08 0.77,8.09 1.76,12.05 1,4.05 2.7,7.86 4.71,11.5 1.53,2.73 3.29,5.35 4.72,8.16 0.72,1.58 1.28,3.2 1.65,4.9 0.18,1.24 0.22,2.47 0.2,3.72 -0.54,-0.45 -1.03,-0.93 -1.49,-1.45 z"
         id="path350" />
      <path
         d="m 1791.79,228.6 c 2.61,0 4.66,-2.52 4.53,-5.02 -0.15,-2.7 -2.41,-4.53 -5.02,-4.53 -2.61,0 -4.66,2.52 -4.53,5.02 0.15,2.7 2.41,4.53 5.02,4.53 z"
         id="path352" />
      <path
         d="m 1814.09,231.78 c 2.76,0 4.93,-2.65 4.79,-5.31 -0.15,-2.86 -2.55,-4.79 -5.31,-4.79 -2.76,0 -4.93,2.65 -4.79,5.31 0.15,2.86 2.56,4.79 5.31,4.79 z"
         id="path354" />
      <path
         d="m 1810.86,252.33 c 3.52,-2.19 6.66,-5.11 9.3,-8.3 0.87,-1.06 0.87,-2.63 -0.19,-3.57 -0.47,-0.43 -1.1,-0.65 -1.73,-0.65 -0.69,0 -1.38,0.27 -1.84,0.82 -1.4,1.71 -2.91,3.29 -4.56,4.76 0.08,-0.07 0.16,-0.14 0.25,-0.2 -0.12,0.11 -0.25,0.21 -0.37,0.31 -0.04,0.04 -0.08,0.07 -0.12,0.11 0.03,-0.03 0.07,-0.06 0.1,-0.09 -1.97,1.63 -4.08,3.06 -6.36,4.22 -1.58,0.73 -3.23,1.3 -4.94,1.67 -1.09,0.17 -2.18,0.25 -3.29,0.21 -0.95,-0.1 -1.87,-0.29 -2.79,-0.58 -0.89,-0.34 -1.71,-0.77 -2.51,-1.28 -0.76,-0.58 -1.46,-1.2 -2.11,-1.89 -1.07,-1.29 -1.96,-2.69 -2.71,-4.2 -0.11,-0.24 -0.22,-0.48 -0.33,-0.72 -0.23,-0.54 -0.52,-0.97 -1.06,-1.25 -0.52,-0.26 -1.13,-0.32 -1.68,-0.13 -1.06,0.35 -1.86,1.65 -1.38,2.74 0.88,2.06 1.93,4.03 3.31,5.82 0.57,0.73 1.19,1.41 1.84,2.06 0.73,0.71 1.55,1.29 2.38,1.87 2.97,2.03 6.79,2.63 10.3,2.22 3.76,-0.43 7.3,-1.97 10.49,-3.95 z"
         id="path356" />
      <path
         d="m 1811.85,245.39 c -0.05,0.04 -0.1,0.09 -0.15,0.13 0.01,-0.01 0.01,-0.01 0.02,-0.02 0.04,-0.03 0.08,-0.07 0.13,-0.11 z"
         id="path358" />
    </g>
  </g>
</svg>
