<?xml version="1.0" encoding="UTF-8" standalone="no"?>
<svg
   xmlns:dc="http://purl.org/dc/elements/1.1/"
   xmlns:cc="http://creativecommons.org/ns#"
   xmlns:rdf="http://www.w3.org/1999/02/22-rdf-syntax-ns#"
   xmlns:svg="http://www.w3.org/2000/svg"
   xmlns="http://www.w3.org/2000/svg"
   id="svg708"
   version="1.1"
   viewBox="0 0 44.233025 22.030203"
   height="22.030201mm"
   width="44.233025mm">
  <defs
     id="defs702" />
  <metadata
     id="metadata705">
    <rdf:RDF>
      <cc:Work
         rdf:about="">
        <dc:format>image/svg+xml</dc:format>
        <dc:type
           rdf:resource="http://purl.org/dc/dcmitype/StillImage" />
        <dc:title></dc:title>
      </cc:Work>
    </rdf:RDF>
  </metadata>
  <g
     transform="translate(201.54456,-175.42898)"
     id="layer1">
    <g
       transform="matrix(0.26458333,0,0,0.26458333,-546.95101,-134.17585)"
       className="fish4"
       style="fill:#0000ff"
       id="g642">
      <path
         d="m 1319.52,1170.29 c -2.06,0.12 -4.13,0.37 -6.13,0.91 -1.86,0.51 -3.64,1.27 -5.15,2.48 -0.63,0.51 -1.19,1.15 -1.61,1.83 -0.6,0.94 -0.87,1.88 -1.07,2.95 -0.16,0.88 -0.07,1.82 0.04,2.68 0.15,1.1 0.57,2.18 1,3.19 0.43,1.03 1,2 1.61,2.94 0.91,1.42 1.89,2.77 3,4.03 2.45,2.83 5.44,5.22 8.5,7.35 3.54,2.45 7.32,4.5 11.14,6.46 7.92,4.01 16.2,7.22 24.57,10.14 8.29,2.92 16.72,5.62 25.24,7.82 8.61,2.21 17.32,3.89 26.06,5.43 4.36,0.78 8.7,1.48 13.05,2.19 3.94,0.66 7.86,1.36 11.81,1.92 1.36,0.19 2.74,0.34 4.12,0.43 1.07,0.07 2.12,0.05 3.18,-0.01 -0.24,0.86 -0.11,1.69 0.23,2.53 1.27,3.15 2.82,6.19 4.64,9.07 1.06,1.69 2.21,3.28 3.61,4.7 0.67,0.69 1.4,1.3 2.13,1.91 0.79,0.66 1.6,1.12 2.52,1.58 1.1,0.55 2.67,0.76 3.89,0.48 1.04,-0.24 1.82,-0.73 2.69,-1.33 1.48,-1.01 2.67,-2.51 3.77,-3.88 2.98,-3.7 5.33,-7.97 7.26,-12.29 0.92,-2.06 1.73,-4.18 2.28,-6.35 0.3,-1.13 0.52,-2.27 0.67,-3.42 0.13,-1.12 0.09,-2.22 0,-3.34 -0.07,-0.92 -0.37,-1.8 -0.7,-2.67 -0.43,-1.12 -1.25,-1.94 -2.13,-2.71 -0.7,-0.61 -1.67,-1.03 -2.58,-1.24 -0.64,-0.13 -1.25,-0.27 -1.91,-0.3 -0.78,-0.04 -1.57,0.03 -2.33,0.12 -1.15,0.12 -2.28,0.43 -3.39,0.81 -1.79,0.58 -3.54,1.3 -5.24,2.12 -3.02,1.46 -5.91,3.22 -8.96,4.6 -5.82,-6.26 -12.33,-11.84 -19.32,-16.8 -8.35,-5.92 -17.39,-10.86 -26.61,-15.3 -9.29,-4.46 -18.85,-8.29 -28.48,-11.98 -2.49,-0.95 -4.97,-1.97 -7.52,-2.74 -1.6,-0.48 -3.22,-0.9 -4.85,-1.3 -4.86,-1.21 -9.79,-2.21 -14.72,-3.06 -5.46,-0.94 -10.95,-1.69 -16.48,-1.97 -1.27,-0.07 -2.55,-0.11 -3.83,-0.11 -1.31,0.01 -2.65,0.05 -4,0.13 z m 16.69,5.81 c 5.33,0.63 10.61,1.53 15.85,2.61 2.53,0.53 5.03,1.11 7.53,1.74 2.36,0.63 4.62,1.4 6.92,2.25 12.74,4.7 25.4,9.7 37.52,15.86 -0.18,-0.09 -0.34,-0.18 -0.51,-0.27 11.49,5.88 22.42,12.83 32.06,21.45 -0.1,-0.09 -0.2,-0.18 -0.3,-0.28 1.94,1.76 3.81,3.58 5.62,5.46 -0.74,0.15 -1.48,0.26 -2.24,0.34 -2.54,0.07 -5.06,-0.25 -7.57,-0.59 -4.56,-0.64 -9.11,-1.4 -13.68,-2.1 -9.4,-1.45 -18.81,-2.94 -28.13,-4.88 0.33,0.07 0.64,0.13 0.97,0.21 -10.55,-2.22 -20.9,-5.22 -31.13,-8.52 -9.73,-3.15 -19.38,-6.73 -28.49,-11.35 0.16,0.08 0.33,0.17 0.49,0.26 -4.76,-2.46 -9.4,-5.26 -13.45,-8.79 -1.81,-1.66 -3.42,-3.5 -4.81,-5.52 -0.6,-0.96 -1.15,-1.95 -1.56,-3 -0.14,-0.47 -0.24,-0.94 -0.3,-1.42 0,-0.22 0.02,-0.44 0.05,-0.66 0.05,-0.16 0.1,-0.31 0.16,-0.46 0.1,-0.17 0.21,-0.32 0.33,-0.48 0.23,-0.23 0.48,-0.44 0.75,-0.63 0.58,-0.34 1.19,-0.63 1.82,-0.86 2.06,-0.65 4.2,-0.94 6.34,-1.09 5.27,-0.29 10.55,0.11 15.76,0.72 z m -15.12,-0.78 c -0.17,0.01 -0.35,0.02 -0.53,0.03 0.18,-0.01 0.35,-0.02 0.53,-0.03 z m -8.46,8.31 c 0.04,0.05 0.07,0.11 0.11,0.16 -0.04,-0.05 -0.07,-0.11 -0.11,-0.16 z m 152.78,39.33 c 0.06,0.02 0.12,0.04 0.18,0.06 0,0 0.01,0.01 0.01,0.01 0.01,0.01 0.02,0.03 0.04,0.04 0.04,0.07 0.08,0.15 0.11,0.23 0.07,0.27 0.11,0.54 0.15,0.81 0.01,0.96 -0.1,1.91 -0.27,2.85 -0.75,3.33 -2.08,6.51 -3.63,9.55 0.09,-0.19 0.18,-0.38 0.28,-0.56 -1.75,3.39 -3.75,6.73 -6.26,9.61 -0.46,0.48 -0.93,0.95 -1.46,1.35 -0.13,-0.04 -0.25,-0.09 -0.37,-0.14 -0.3,-0.19 -0.59,-0.38 -0.87,-0.59 -0.71,-0.73 -1.31,-1.55 -1.89,-2.39 -2.3,-3.62 -4.03,-7.49 -5.82,-11.38 -0.11,-0.25 -0.26,-0.47 -0.42,-0.68 0.5,-0.19 1,-0.39 1.5,-0.61 0.35,-0.15 0.7,-0.3 1.04,-0.46 0.23,-0.06 0.44,-0.16 0.64,-0.3 4.58,-2.2 8.8,-5.14 13.59,-6.86 0.87,-0.27 1.75,-0.47 2.64,-0.58 0.26,0 0.54,0.01 0.81,0.04 z m 0.51,1.4 c 0.01,0.08 0.02,0.16 0.02,0.24 0,-0.07 -0.01,-0.15 -0.02,-0.24 z m -14.49,19.45 c 0.12,0.18 0.24,0.36 0.34,0.53 -0.11,-0.18 -0.23,-0.35 -0.34,-0.53 z m 4.98,1.32 c -0.05,0.06 -0.11,0.12 -0.16,0.18 0.05,-0.06 0.11,-0.12 0.16,-0.18 z m -1.59,1.64 c -0.03,0.02 -0.07,0.05 -0.1,0.07 0.03,-0.02 0.06,-0.04 0.1,-0.07 z"
         id="path634" />
      <path
         d="m 1344.8,1171.86 c -0.57,0.27 -1,0.76 -1.21,1.34 -0.22,0.66 -0.12,1.22 0.1,1.85 0.16,0.42 0.31,0.85 0.46,1.27 -0.07,-0.19 -0.13,-0.39 -0.21,-0.58 1,3.01 1.68,6.1 1.95,9.28 0.15,2.71 -0.03,5.41 -0.51,8.08 -0.59,2.65 -1.48,5.2 -2.68,7.65 -0.68,1.27 -1.44,2.49 -2.2,3.71 -0.78,1.21 -0.54,2.82 0.67,3.65 1.21,0.83 2.83,0.49 3.67,-0.67 3.52,-4.91 5.46,-10.83 5.97,-16.81 0.25,-2.94 0.04,-5.95 -0.4,-8.86 -0.45,-3.03 -1.36,-5.95 -2.42,-8.82 -0.32,-0.87 -1.25,-1.32 -2.15,-1.32 -0.36,0 -0.72,0.08 -1.04,0.23 z"
         id="path636" />
      <path
         d="m 1329.91,1178.93 c -1.21,1.04 -1.95,2.54 -2.07,4.12 -0.22,3.09 2.28,6.43 5.56,6.43 1.64,0 3.09,-0.36 4.36,-1.45 1.21,-1.04 1.95,-2.54 2.07,-4.12 0.22,-3.09 -2.28,-6.43 -5.56,-6.43 -1.65,0.01 -3.09,0.36 -4.36,1.45 z"
         id="path638" />
      <path
         d="m 1374.65,1197.2 c -0.25,1.82 -0.39,3.73 0.1,5.52 0.34,1.24 1.13,2.49 2.39,2.97 1.86,0.7 3.56,-0.14 4.95,-1.4 0.95,1.82 2.3,3.39 4.31,4.1 1.3,0.46 2.7,0.21 3.92,-0.36 0.69,-0.31 1.28,-0.85 1.8,-1.37 0.84,-0.81 1.45,-1.79 2,-2.82 0.22,-0.42 0.36,-0.82 0.27,-1.31 -0.09,-0.45 -0.36,-0.84 -0.72,-1.09 -0.75,-0.51 -1.92,-0.36 -2.42,0.45 -0.41,0.68 -0.83,1.31 -1.33,1.92 -0.25,0.25 -0.51,0.49 -0.78,0.71 -0.2,0.12 -0.39,0.22 -0.61,0.31 -0.16,0.04 -0.31,0.07 -0.47,0.09 -0.08,0 -0.15,-0.01 -0.23,-0.01 -0.18,-0.06 -0.35,-0.12 -0.52,-0.19 -0.21,-0.14 -0.4,-0.28 -0.59,-0.43 -0.31,-0.32 -0.58,-0.66 -0.83,-1.02 -0.43,-0.74 -0.78,-1.5 -1.06,-2.31 -0.08,-0.25 -0.15,-0.5 -0.22,-0.75 -0.18,-0.67 -0.58,-1.22 -1.25,-1.46 -0.84,-0.3 -1.76,0.03 -2.27,0.73 -0.34,0.47 -0.67,0.92 -1.04,1.36 -0.32,0.33 -0.65,0.64 -1.01,0.93 -0.15,0.09 -0.29,0.17 -0.45,0.24 -0.04,-0.08 -0.08,-0.16 -0.11,-0.25 -0.1,-0.4 -0.16,-0.8 -0.21,-1.21 -0.02,-1.03 0.07,-2.05 0.2,-3.09 0.15,-1.04 -0.78,-1.98 -1.78,-2.06 -0.05,0 -0.09,0 -0.14,0 -1.01,0 -1.77,0.8 -1.9,1.8 z m 3.64,3.52 c 0,0.05 0,0.11 0,0.16 0,-0.05 0,-0.11 0,-0.16 z m -0.13,1.28 c 0.06,0.02 0.12,0.03 0.18,0.04 -0.06,-0.01 -0.12,-0.02 -0.18,-0.04 z m 0.56,0.17 c 0.06,0.03 0.11,0.06 0.17,0.08 -0.06,-0.02 -0.11,-0.05 -0.17,-0.08 z m 8.79,2.68 c 0.06,0.01 0.11,0.02 0.17,0.04 -0.06,-0.02 -0.11,-0.03 -0.17,-0.04 z"
         id="path640" />
    </g>
  </g>
</svg>
