<?xml version="1.0" encoding="UTF-8" standalone="no"?>
<svg
   xmlns:dc="http://purl.org/dc/elements/1.1/"
   xmlns:cc="http://creativecommons.org/ns#"
   xmlns:rdf="http://www.w3.org/1999/02/22-rdf-syntax-ns#"
   xmlns:svg="http://www.w3.org/2000/svg"
   xmlns="http://www.w3.org/2000/svg"
   id="svg708"
   version="1.1"
   viewBox="0 0 27.348751 29.630142"
   height="29.630142mm"
   width="27.348751mm">
  <defs
     id="defs702" />
  <metadata
     id="metadata705">
    <rdf:RDF>
      <cc:Work
         rdf:about="">
        <dc:format>image/svg+xml</dc:format>
        <dc:type
           rdf:resource="http://purl.org/dc/dcmitype/StillImage" />
        <dc:title></dc:title>
      </cc:Work>
    </rdf:RDF>
  </metadata>
  <g
     transform="translate(61.117012,-44.105303)"
     id="layer1">
    <g
       transform="matrix(0.26458333,0,0,0.26458333,-144.31498,-15.026425)"
       className="fish3"
       style="fill:#ffffff"
       id="g382">
      <path
         d="m 416.64,235.74 c -0.83,-2.53 -2.2,-4.64 -3.93,-6.64 -1.53,-1.73 -3.67,-3.04 -5.76,-3.93 -2.2,-0.94 -4.34,-1.36 -6.68,-1.61 -0.51,-0.05 -1.02,-0.07 -1.53,-0.07 -3.42,0 -6.81,1.08 -9.86,2.48 -3.85,1.77 -7.17,4.38 -10.31,7.19 -3.44,3.1 -6.48,6.66 -9.31,10.35 -6.09,7.92 -11.22,16.6 -15.72,25.52 -3.5,6.9 -6.72,14.05 -9.15,21.41 -0.2,0.61 -0.39,1.24 -0.57,1.87 -0.01,0.04 -0.02,0.07 -0.03,0.11 -3.51,-1.2 -7.04,-2.37 -10.71,-2.81 -1.96,-0.24 -3.85,-0.37 -5.78,-0.06 -2.2,0.35 -4.11,0.96 -6.03,2.12 -3.4,2.08 -5.78,6.09 -6.58,9.92 -0.39,1.79 -0.29,3.61 0.18,5.36 0.47,1.65 1.53,3.08 2.71,4.28 2.1,2.16 5.34,3.2 8.21,3.77 3.73,0.74 7.55,0.82 11.33,0.47 0.03,0.47 0.06,0.94 0.1,1.41 0.26,3.08 0.83,6.19 1.89,9.1 1,2.73 2.53,5.54 4.89,7.31 1.32,1 2.77,1.77 4.44,2.04 1.79,0.31 3.56,0.12 5.28,-0.45 3.26,-1.04 6.07,-3.32 7.48,-6.44 1.45,-3.14 1.63,-6.68 1.45,-10.06 -0.18,-3.67 -0.9,-7.31 -1.71,-10.88 -0.23,-1 -0.49,-2 -0.77,-2.99 0.56,-0.11 1.13,-0.23 1.68,-0.35 6.62,-1.41 12.91,-4.26 18.78,-7.58 6.07,-3.44 11.63,-7.78 16.76,-12.49 4.75,-4.36 8.94,-9.27 12.51,-14.64 2.46,-3.71 4.16,-7.94 5.56,-12.14 1.59,-4.7 2.48,-9.74 2.34,-14.69 -0.06,-2.33 -0.47,-4.68 -1.16,-6.88 z m -75.99,69.6 c -0.1,0.02 -0.2,0.04 -0.29,0.04 0.1,-0.01 0.2,-0.03 0.3,-0.04 0,0 -0.01,0 -0.01,0 z m 13.64,16.31 c -0.13,0.9 -0.32,1.78 -0.59,2.64 -0.15,0.31 -0.31,0.62 -0.48,0.92 -0.11,0.13 -0.22,0.25 -0.34,0.37 -0.34,0.23 -0.68,0.42 -1.03,0.6 -0.37,0.14 -0.74,0.27 -1.12,0.37 -0.15,0.01 -0.3,0.02 -0.46,0.02 -0.07,-0.02 -0.14,-0.03 -0.22,-0.05 -0.07,-0.04 -0.14,-0.07 -0.21,-0.11 -0.16,-0.14 -0.32,-0.29 -0.47,-0.44 -0.38,-0.53 -0.71,-1.09 -1.02,-1.68 -0.67,-1.67 -1.12,-3.4 -1.45,-5.17 -0.34,-2.45 -0.49,-4.93 -0.31,-7.39 0.03,-0.24 0.07,-0.47 0.1,-0.71 0.29,-1.73 -0.08,-3.4 -1.41,-4.62 -0.61,-0.57 -1.32,-0.94 -2.14,-1.14 -0.79,-0.19 -1.58,-0.17 -2.37,0.04 -3.45,0.48 -7.03,0.5 -10.47,0.2 -1.45,-0.2 -2.87,-0.47 -4.25,-0.91 -0.4,-0.18 -0.78,-0.37 -1.15,-0.59 -0.03,-0.03 -0.07,-0.06 -0.1,-0.09 0.05,-0.24 0.11,-0.47 0.18,-0.71 0.26,-0.58 0.56,-1.13 0.89,-1.67 0.23,-0.27 0.46,-0.53 0.71,-0.78 0.23,-0.16 0.46,-0.31 0.7,-0.45 0.37,-0.13 0.73,-0.24 1.11,-0.33 0.93,-0.09 1.86,-0.08 2.8,-0.03 4.88,0.74 9.48,2.64 14.17,4.1 2.15,0.68 4.29,1.1 6.55,1.27 0.8,2.88 1.49,5.79 1.99,8.74 0.37,2.51 0.57,5.05 0.39,7.6 z m 54.82,-76.24 c -0.39,3.41 -1.24,6.75 -2.37,10 -1.31,3.45 -2.94,6.76 -5,9.84 -3.63,4.99 -7.89,9.45 -12.56,13.48 -5.38,4.43 -11.23,8.27 -17.51,11.31 -4.19,1.88 -8.51,3.38 -13.03,4.24 -2.22,0.32 -4.5,0.54 -6.75,0.43 -0.2,-0.03 -0.4,-0.06 -0.6,-0.1 0.07,-0.16 0.13,-0.33 0.18,-0.5 0.47,-1.69 1.06,-3.35 1.67,-5.01 2.27,-5.93 4.95,-11.73 7.85,-17.4 3.6,-7.05 7.64,-13.89 12.22,-20.35 3.68,-5.04 7.74,-9.86 12.51,-13.92 2.08,-1.66 4.29,-3.13 6.69,-4.31 1.35,-0.57 2.74,-1.02 4.18,-1.32 1.14,-0.15 2.28,-0.19 3.43,-0.12 0.96,0.15 1.89,0.38 2.81,0.68 0.82,0.35 1.6,0.75 2.35,1.22 0.59,0.46 1.14,0.95 1.65,1.5 0.48,0.64 0.9,1.3 1.26,1.99 0.4,1 0.68,2.02 0.9,3.08 0.21,1.77 0.24,3.51 0.12,5.26 z"
         id="path378" />
      <path
         d="m 389.52,242.04 c -4.18,0 -7.56,3.77 -7.45,7.86 0.12,4.26 3.69,7.45 7.86,7.45 4.18,0 7.56,-3.77 7.45,-7.86 -0.12,-4.25 -3.68,-7.45 -7.86,-7.45 z"
         id="path380" />
    </g>
  </g>
</svg>
