<?xml version="1.0" encoding="UTF-8" standalone="no"?>
<svg
   xmlns:dc="http://purl.org/dc/elements/1.1/"
   xmlns:cc="http://creativecommons.org/ns#"
   xmlns:rdf="http://www.w3.org/1999/02/22-rdf-syntax-ns#"
   xmlns:svg="http://www.w3.org/2000/svg"
   xmlns="http://www.w3.org/2000/svg"
   id="svg708"
   version="1.1"
   viewBox="0 0 21.489399 47.74316"
   height="47.74316mm"
   width="21.489399mm">
  <defs
     id="defs702" />
  <metadata
     id="metadata705">
    <rdf:RDF>
      <cc:Work
         rdf:about="">
        <dc:format>image/svg+xml</dc:format>
        <dc:type
           rdf:resource="http://purl.org/dc/dcmitype/StillImage" />
        <dc:title></dc:title>
      </cc:Work>
    </rdf:RDF>
  </metadata>
  <g
     transform="translate(-275.67475,-153.64534)"
     id="layer1">
    <g
       transform="matrix(0.26458333,0,0,0.26458333,225.30946,103.57824)"
       className="flash"
       style="fill:#ff0000"
       id="g506">
      <path
         d="m 204.69,316.13 c -0.01,-0.65 -0.01,-1.29 0.03,-1.94 0.04,-0.63 0.14,-1.25 0.26,-1.85 0.11,-0.4 0.21,-0.79 0.34,-1.19 0.14,-0.42 0.32,-0.82 0.52,-1.22 0.06,-0.1 0.11,-0.19 0.16,-0.29 0.12,-0.21 0.19,-0.4 0.13,-0.64 -0.04,-0.23 -0.16,-0.43 -0.35,-0.55 -0.14,-0.1 -0.33,-0.15 -0.51,-0.15 -0.27,0 -0.55,0.12 -0.68,0.37 -0.19,0.35 -0.36,0.68 -0.54,1.03 -0.21,0.43 -0.35,0.88 -0.5,1.32 -0.27,0.82 -0.41,1.69 -0.51,2.54 -0.12,0.88 -0.11,1.79 -0.07,2.68 0.07,1.2 0.21,2.38 0.41,3.57 0.74,4.39 2.34,8.58 3.18,12.95 0.09,0.45 0.54,0.78 1,0.68 0.45,-0.08 0.78,-0.54 0.68,-0.99 -0.51,-2.64 -1.28,-5.19 -1.99,-7.77 -0.73,-2.8 -1.38,-5.64 -1.56,-8.55 z"
         id="path498" />
      <path
         d="m 237,308.4 c -0.35,-4.19 -0.58,-8.38 -0.96,-12.56 -0.36,-3.95 -0.92,-7.88 -1.87,-11.74 -0.98,-3.97 -2.48,-7.8 -4.54,-11.32 -0.24,-0.42 -0.65,-0.69 -1.1,-0.69 -0.17,0 -0.35,0.04 -0.53,0.12 -0.56,0.27 -0.9,1.04 -0.56,1.62 1.41,2.42 2.54,4.95 3.44,7.61 0.95,3.01 1.61,6.06 2.09,9.19 0.52,3.39 0.79,6.8 1.03,10.21 0.24,3.25 0.44,6.49 0.74,9.73 0.31,3.37 0.72,6.76 1.49,10.08 0.15,0.64 0.75,1.1 1.42,0.98 0.66,-0.12 1.11,-0.78 0.98,-1.42 -0.36,-1.85 -0.68,-3.71 -0.94,-5.57 -0.31,-2.08 -0.5,-4.15 -0.69,-6.24 z"
         id="path500" />
      <path
         d="m 252.76,245.12 c -0.09,0 -0.18,0.01 -0.27,0.02 -0.83,0.16 -1.38,0.98 -1.23,1.81 1.08,6.13 2.06,12.28 2.84,18.47 0.78,6.17 1.32,12.36 1.63,18.59 0,-0.13 -0.01,-0.25 -0.01,-0.39 0.04,0.9 0.08,1.79 0.11,2.69 0.01,0.39 0.07,0.72 0.33,1.03 0.24,0.27 0.58,0.44 0.94,0.47 0.7,0.07 1.51,-0.5 1.5,-1.26 -0.23,-13.49 -1.98,-26.88 -4.31,-40.16 -0.13,-0.74 -0.8,-1.27 -1.53,-1.27 z"
         id="path502" />
      <path
         d="m 264.36,249.3 c -3.65,-17.57 -8.48,-35.07 -15.6,-51.57 -0.9,-2.07 -1.83,-4.11 -2.82,-6.12 -0.21,-0.59 -0.55,-1.08 -1.02,-1.5 -0.66,-0.57 -1.5,-0.88 -2.36,-0.88 -0.07,0 -0.14,0 -0.21,0.01 -1.97,0.15 -3.35,1.85 -3.28,3.77 0.51,14.52 1.82,28.98 2.89,43.46 0.54,7.17 0.98,14.34 1.24,21.53 0.17,4.39 0.21,8.78 0.2,13.17 -2.89,-3.78 -5.6,-7.69 -8.43,-11.51 -2.14,-2.88 -4.38,-5.66 -6.8,-8.3 -2.27,-2.48 -4.76,-4.74 -7.68,-6.41 -0.66,-0.39 -1.57,-0.27 -2.17,0.15 -0.67,0.44 -0.95,1.15 -0.95,1.93 0.01,3.2 -0.08,6.37 0.04,9.55 0.11,3.2 0.36,6.38 0.68,9.55 0.66,6.4 1.69,12.75 2.73,19.09 1.04,6.34 2.11,12.68 2.89,19.05 0.59,4.8 1.06,9.68 1.1,14.54 -4.02,-4.39 -8.13,-8.72 -12.59,-12.65 -2.93,-2.58 -6.07,-4.94 -9.43,-6.9 -2.97,-1.74 -6.26,-3.05 -9.67,-3.57 -0.62,-0.11 -1.22,-0.01 -1.74,0.35 -0.62,0.41 -1.14,1.28 -1,2.05 1.02,5.41 2.22,10.79 3.39,16.16 1.18,5.43 2.36,10.88 3.48,16.32 -0.02,-0.06 -0.03,-0.12 -0.04,-0.18 2.5,12.24 4.69,24.55 5.96,37.01 0.13,1.32 1.24,2.37 2.62,2.27 0.99,-0.06 1.88,-0.78 2.18,-1.71 0.47,0.36 1.02,0.62 1.62,0.74 1.03,0.21 2.14,-0.01 3.01,-0.6 0.9,-0.62 1.38,-1.47 1.66,-2.49 0.71,-2.62 1.07,-5.35 1.59,-8.02 0.63,-3.18 1.31,-6.34 2.05,-9.5 0.75,-3.22 1.57,-6.45 2.41,-9.66 0.19,-0.76 0.4,-1.51 0.6,-2.27 0.45,0.43 0.91,0.86 1.37,1.28 2.27,2.07 4.67,4 7.2,5.77 5.21,3.63 10.84,6.49 16.99,8.12 2.02,0.55 4.34,-1.04 4.67,-3.09 2.68,-16.68 -0.55,-33.4 -1.61,-50.11 5.14,3.92 10.86,7.08 17.25,8.25 2.58,0.47 4.94,-1.57 4.79,-4.2 -1.04,-17.78 -3.57,-35.43 -7.21,-52.88 z m -7.11,44.35 c -3.37,-2.32 -6.48,-5 -9.45,-7.82 -1.06,-1 -2.73,-1.26 -4.07,-0.79 -0.68,0.25 -1.26,0.64 -1.74,1.19 -0.75,0.86 -1,1.86 -1,2.98 -0.03,17.35 3.9,34.5 2.96,51.89 -0.03,0.42 -0.06,0.84 -0.1,1.27 -3.29,-1.27 -6.41,-2.93 -9.38,-4.85 -4.34,-2.95 -8.35,-6.38 -11.85,-10.29 -0.22,-0.25 -0.43,-0.51 -0.64,-0.77 -0.88,-1.08 -2.01,-1.78 -3.45,-1.67 -1.24,0.08 -2.73,0.9 -3.2,2.13 -0.24,0.66 -0.51,1.3 -0.78,1.94 -0.36,0.82 -0.6,1.69 -0.9,2.53 -0.54,1.61 -1.03,3.22 -1.51,4.84 -0.96,3.17 -1.86,6.37 -2.68,9.59 -0.8,3.14 -1.53,6.32 -2.11,9.51 -0.15,0.82 -0.29,1.64 -0.41,2.46 -1.18,-8.57 -2.75,-17.07 -4.46,-25.55 -1.19,-5.89 -2.46,-11.76 -3.76,-17.62 -1,-4.58 -1.98,-9.16 -3.02,-13.72 0.16,0.05 0.31,0.09 0.47,0.14 2.71,0.97 5.21,2.37 7.6,3.96 -0.08,-0.05 -0.16,-0.1 -0.24,-0.15 8.28,5.7 14.9,13.31 21.85,20.49 0.5,0.51 1.35,0.6 1.98,0.39 0.88,-0.32 1.34,-1.14 1.34,-2.03 -0.01,-2.96 -0.03,-5.91 -0.17,-8.87 -0.15,-3.18 -0.44,-6.36 -0.8,-9.51 -0.72,-6.38 -1.79,-12.73 -2.82,-19.07 -1.88,-11.45 -3.84,-23.08 -3.51,-34.72 1,0.96 1.97,1.95 2.9,2.98 7.33,8.36 12.62,18.22 19.6,26.85 0.66,0.81 1.5,1.35 2.55,1.35 0.07,0 0.15,0 0.22,-0.01 1.26,-0.08 2.7,-1.11 2.82,-2.46 0.64,-7.12 0.64,-14.25 0.47,-21.4 -0.17,-7.4 -0.62,-14.79 -1.11,-22.17 -0.53,-7.84 -1.15,-15.67 -1.68,-23.5 4.29,12.19 7.53,24.77 10.13,37.38 -0.02,-0.12 -0.04,-0.23 -0.06,-0.35 1.83,9.03 3.33,18.13 4.43,27.28 0.78,6.46 1.39,12.96 1.72,19.47 -2.16,-0.93 -4.19,-2.05 -6.14,-3.3 z"
         id="path504" />
    </g>
  </g>
</svg>
