<?xml version="1.0" encoding="UTF-8" standalone="no"?>
<svg
   xmlns:dc="http://purl.org/dc/elements/1.1/"
   xmlns:cc="http://creativecommons.org/ns#"
   xmlns:rdf="http://www.w3.org/1999/02/22-rdf-syntax-ns#"
   xmlns:svg="http://www.w3.org/2000/svg"
   xmlns="http://www.w3.org/2000/svg"
   id="svg708"
   version="1.1"
   viewBox="0 0 33.3621 37.431752"
   height="37.431747mm"
   width="33.362099mm">
  <defs
     id="defs702" />
  <metadata
     id="metadata705">
    <rdf:RDF>
      <cc:Work
         rdf:about="">
        <dc:format>image/svg+xml</dc:format>
        <dc:type
           rdf:resource="http://purl.org/dc/dcmitype/StillImage" />
        <dc:title></dc:title>
      </cc:Work>
    </rdf:RDF>
  </metadata>
  <g
     transform="translate(237.27268,-126.22035)"
     id="layer1">
    <g
       transform="matrix(0.26458333,0,0,0.26458333,-434.80331,-244.82867)"
       className="flower"
       style="fill:#0000ff"
       id="g174">
      <path
         d="m 780.83,1458.59 c 0.06,0.07 0.12,0.13 0.18,0.2 -0.06,-0.07 -0.13,-0.14 -0.19,-0.21 0,0.01 0.01,0.01 0.01,0.01 z"
         id="path168" />
      <path
         d="m 871.6,1454.59 c -1.13,-2.9 -3.38,-5.17 -6.19,-6.43 -2.9,-1.3 -6.19,-1.51 -9.33,-1.32 -3.54,0.23 -7.07,1.09 -10.44,2.18 -2.28,0.74 -4.52,1.65 -6.69,2.67 0.44,-1.01 0.85,-2.02 1.25,-3.04 2.55,-6.52 4.37,-13.45 4.96,-20.42 0.54,-6.36 0.12,-13.14 -3.35,-18.69 -1.54,-2.48 -3.94,-4.47 -6.59,-5.67 -2.38,-1.07 -5,-1.48 -7.6,-1.48 -0.86,0 -1.73,0.05 -2.58,0.13 -2.46,0.24 -4.91,0.8 -7.19,1.72 -2.51,1.02 -4.72,2.51 -6.73,4.33 -3.74,3.42 -6.09,7.99 -7.66,12.74 -1.2,3.62 -1.88,7.37 -2.31,11.14 -0.46,-0.89 -0.96,-1.77 -1.47,-2.63 -1.14,-1.89 -2.51,-3.55 -3.99,-5.17 -2.83,-3.09 -6.54,-5.39 -10.47,-6.78 -4.84,-1.72 -10,-2.17 -15.12,-1.84 -1.98,0.14 -3.52,1.91 -3.38,3.87 0.05,0.81 0.37,1.54 0.86,2.11 -0.04,-0.01 -0.09,-0.02 -0.13,-0.03 -1.06,-0.21 -2.32,0.5 -2.44,1.63 -0.52,4.33 -0.43,8.65 0.31,12.95 0.73,4.28 2.08,8.41 3.9,12.36 1.84,3.95 4.16,7.66 6.85,11.1 0.55,0.7 1.12,1.38 1.7,2.04 -0.47,-0.03 -0.94,-0.06 -1.41,-0.08 -4.18,-0.17 -8.44,0.64 -12.38,2.05 -1.96,0.68 -3.83,1.61 -5.62,2.65 -1.91,1.09 -3.59,2.48 -5.2,3.97 -3.02,2.83 -5.06,6.55 -6.07,10.54 -0.5,2.01 -0.59,4.16 -0.47,6.22 0.16,2.38 0.61,4.79 1.32,7.06 0.5,1.59 1.28,3.19 2.29,4.54 1.02,1.35 2.32,2.43 3.8,3.22 2.64,1.44 5.93,1.47 8.81,0.99 3.45,-0.61 6.73,-1.86 9.93,-3.28 3.42,-1.51 6.74,-3.26 10.11,-4.91 1.13,-0.56 2.27,-1.11 3.43,-1.63 -1.66,2.84 -3.14,5.79 -4.47,8.8 -1.73,3.9 -3.16,7.97 -4.2,12.12 -0.99,3.85 -1.49,7.85 -1.3,11.82 0.17,3.64 1.2,7.26 3.22,10.33 2.17,3.28 5.6,5.41 9.28,6.61 3.17,1.02 6.47,1.04 9.66,0.09 3.19,-0.95 5.93,-3.17 8.17,-5.57 1.44,-1.54 2.62,-3.31 3.73,-5.08 1.21,-1.91 2.24,-3.94 3.16,-5.98 2.01,-4.42 3.52,-9.07 4.84,-13.71 1.09,-3.85 1.99,-7.73 2.79,-11.64 0.9,1.66 1.84,3.29 2.83,4.9 1.91,3.1 3.97,6.1 6.24,8.96 2.24,2.84 4.7,5.57 7.45,7.92 4.51,3.88 10.75,7.11 16.73,4.79 1.37,-0.54 2.62,-1.33 3.71,-2.31 0.66,-0.61 1.28,-1.21 1.87,-1.91 0.71,-0.83 1.28,-1.77 1.87,-2.69 1.09,-1.72 1.89,-3.62 2.6,-5.51 0.78,-2.03 1.09,-4.11 1.02,-6.29 -0.07,-1.73 -0.52,-3.5 -1.11,-5.15 -0.69,-1.91 -1.73,-3.73 -2.84,-5.41 -2.32,-3.5 -5.44,-6.54 -8.69,-9.21 -2.28,-1.9 -4.72,-3.6 -7.25,-5.15 3.05,-0.42 6.07,-1.12 8.97,-2.08 3.94,-1.28 7.77,-3.22 10.91,-5.93 1.49,-1.28 2.79,-2.67 3.88,-4.3 1.25,-1.85 2.1,-3.81 2.69,-5.98 0.54,-1.91 0.62,-4 0.59,-5.98 -0.06,-1.75 -0.41,-3.58 -1.06,-5.27 z m -61.84,-29.81 c 0.86,-2.53 1.92,-4.96 3.33,-7.25 0.91,-1.32 1.92,-2.53 3.06,-3.63 1.01,-0.86 2.08,-1.6 3.24,-2.24 1.31,-0.61 2.66,-1.07 4.07,-1.41 1.71,-0.32 3.43,-0.49 5.16,-0.44 1.03,0.09 2.05,0.26 3.04,0.56 0.66,0.26 1.29,0.56 1.9,0.93 0.53,0.39 1.03,0.82 1.5,1.3 0.57,0.69 1.06,1.44 1.49,2.22 0.58,1.27 1,2.58 1.31,3.93 0.57,3.11 0.61,6.25 0.42,9.39 -0.47,5.45 -1.7,10.78 -3.42,15.97 -1.24,3.59 -2.75,7.1 -4.62,10.41 -0.7,-0.76 -1.44,-1.47 -2.22,-2.14 -2.9,-2.48 -6.45,-4.13 -10.11,-5.08 -1.78,-0.46 -3.65,-0.68 -5.52,-0.68 -1.69,0 -3.38,0.18 -5,0.51 -0.21,0.04 -0.41,0.1 -0.62,0.15 0.01,-2.05 0.05,-4.1 0.17,-6.15 0.4,-5.53 1.19,-11.04 2.82,-16.35 z m 11.97,58.22 c -1.5,0.69 -3.04,1.21 -4.64,1.58 -1.85,0.33 -3.71,0.45 -5.59,0.37 -1.83,-0.17 -3.6,-0.55 -5.35,-1.08 -2.03,-0.74 -3.95,-1.66 -5.76,-2.81 -1.38,-0.95 -2.65,-2.02 -3.8,-3.23 -0.94,-1.11 -1.76,-2.29 -2.46,-3.57 -0.56,-1.2 -0.99,-2.44 -1.29,-3.72 -0.21,-1.23 -0.29,-2.47 -0.25,-3.72 0.11,-1.22 0.35,-2.41 0.71,-3.58 0.46,-1.27 1.04,-2.46 1.76,-3.61 0.31,-0.44 0.63,-0.86 0.97,-1.27 0.58,0.62 1.36,1.06 2.2,1.24 0.73,0.14 1.42,0.09 2.12,-0.16 0.69,-0.24 1.26,-0.64 1.74,-1.17 1.3,-1.08 2.68,-2 4.17,-2.79 1.39,-0.64 2.8,-1.14 4.28,-1.49 1.52,-0.24 3.03,-0.34 4.57,-0.27 1.39,0.14 2.74,0.4 4.08,0.81 1.07,0.4 2.09,0.89 3.08,1.46 1.05,0.71 2.01,1.52 2.9,2.44 0.47,0.56 0.89,1.15 1.31,1.74 -0.5,1.22 -0.19,2.73 0.84,3.61 0.45,0.38 1,0.57 1.57,0.66 0.39,0.95 0.74,1.92 1,2.93 0.24,1.32 0.34,2.65 0.29,4 -0.13,1.09 -0.34,2.15 -0.66,3.19 -0.4,1.04 -0.87,2.02 -1.45,2.97 -0.74,1.04 -1.56,1.99 -2.47,2.88 -1.21,1 -2.49,1.85 -3.87,2.59 z m -48.27,-35.2 c -1.7,-3.47 -2.97,-7.09 -3.82,-10.86 -0.68,-3.5 -0.94,-7.01 -0.76,-10.55 0.06,-0.66 0.13,-1.3 0.19,-1.94 0.07,-0.53 -0.03,-1.05 -0.28,-1.48 0.54,0.26 1.15,0.39 1.79,0.35 1.96,-0.13 3.9,-0.19 5.86,-0.08 2.26,0.21 4.49,0.61 6.67,1.3 1.62,0.61 3.16,1.36 4.63,2.27 1.49,1.05 2.86,2.24 4.1,3.58 1.56,1.86 2.87,3.89 4,6.05 2.01,4.15 3.32,8.57 4.35,13.06 -2.86,1.52 -5.48,3.44 -7.66,5.93 -2.34,2.67 -3.91,5.99 -4.57,9.47 -2.52,-1.81 -4.84,-3.84 -6.96,-6.1 0.07,0.07 0.13,0.15 0.19,0.22 -0.13,-0.14 -0.25,-0.28 -0.37,-0.42 -0.01,-0.01 -0.02,-0.02 -0.03,-0.03 0.01,0.01 0.01,0.01 0.02,0.02 -2.88,-3.3 -5.34,-6.89 -7.35,-10.79 z m 12.75,39.28 c -2.57,1.04 -5.05,2.32 -7.51,3.55 -5.13,2.59 -10.36,5.41 -16,6.71 -1.17,0.21 -2.35,0.32 -3.54,0.29 -0.59,-0.07 -1.15,-0.17 -1.71,-0.33 -0.38,-0.15 -0.74,-0.33 -1.09,-0.53 -0.33,-0.25 -0.64,-0.52 -0.93,-0.81 -0.37,-0.46 -0.7,-0.95 -1,-1.47 -0.48,-1.05 -0.83,-2.15 -1.1,-3.27 -0.37,-1.98 -0.56,-4.01 -0.5,-6.02 0.12,-1.29 0.35,-2.54 0.72,-3.78 0.47,-1.24 1.05,-2.41 1.74,-3.53 0.91,-1.29 1.94,-2.45 3.1,-3.53 1.5,-1.27 3.12,-2.35 4.85,-3.29 -0.12,0.06 -0.25,0.12 -0.38,0.18 0.14,-0.07 0.27,-0.13 0.41,-0.2 0.11,-0.06 0.22,-0.12 0.34,-0.18 -0.11,0.06 -0.21,0.12 -0.32,0.17 2.45,-1.18 5,-2.05 7.65,-2.62 2.42,-0.43 4.85,-0.61 7.31,-0.49 1.9,0.17 3.76,0.51 5.58,1.08 0.63,0.23 1.25,0.48 1.86,0.71 0.69,0.24 1.31,0.36 2.03,0.11 0.22,2.66 0.97,5.27 2.22,7.66 0.94,1.8 2.13,3.4 3.5,4.89 0.26,0.28 0.56,0.5 0.84,0.77 -0.52,0.17 -1.01,0.43 -1.38,0.88 -0.45,0.49 -0.88,0.99 -1.3,1.51 -1.86,0.23 -3.67,0.85 -5.39,1.54 z m 23.34,30.06 c -1.49,4.32 -3.27,8.58 -5.7,12.47 -1.13,1.68 -2.38,3.27 -3.84,4.64 -0.78,0.64 -1.59,1.21 -2.46,1.72 -0.72,0.32 -1.46,0.59 -2.24,0.78 -0.67,0.09 -1.34,0.13 -2.02,0.13 -0.91,-0.1 -1.79,-0.28 -2.67,-0.53 -1,-0.37 -1.97,-0.82 -2.9,-1.38 -0.63,-0.45 -1.2,-0.95 -1.74,-1.5 -0.52,-0.64 -0.98,-1.32 -1.39,-2.04 -0.5,-1.08 -0.86,-2.19 -1.13,-3.35 -0.3,-1.86 -0.37,-3.73 -0.29,-5.62 0.33,-3.92 1.21,-7.73 2.39,-11.46 2.21,-6.55 5.23,-12.89 8.99,-18.71 0.96,-1.46 1.99,-2.86 3.11,-4.21 0.41,-0.49 0.6,-1.09 0.66,-1.7 0.23,0.16 0.44,0.33 0.68,0.48 2.08,1.35 4.4,2.36 6.78,3.1 2.6,0.8 5.24,1.18 7.96,1.23 0.68,0.01 1.36,-0.08 2.04,-0.13 -0.61,3.27 -1.21,6.53 -1.89,9.79 -1.17,5.51 -2.56,10.96 -4.34,16.29 z m 44.46,-18.93 c 1.51,1.73 2.87,3.57 3.98,5.59 0.6,1.24 1.07,2.5 1.39,3.82 0.14,0.9 0.2,1.78 0.17,2.68 -0.08,0.7 -0.22,1.39 -0.41,2.07 -0.69,1.87 -1.62,3.67 -2.68,5.35 -0.65,0.92 -1.36,1.79 -2.17,2.58 -0.5,0.41 -1.02,0.78 -1.57,1.1 -0.42,0.18 -0.85,0.34 -1.29,0.46 -0.49,0.06 -0.98,0.09 -1.47,0.09 -0.56,-0.07 -1.12,-0.19 -1.66,-0.33 -1.1,-0.41 -2.13,-0.93 -3.12,-1.53 -2.39,-1.63 -4.49,-3.63 -6.45,-5.76 -4.94,-5.62 -9.01,-12.03 -12.42,-18.66 -1.06,-2.09 -2.04,-4.24 -2.81,-6.46 1.4,-0.59 2.76,-1.25 4.03,-2.06 1.37,-0.87 2.6,-1.96 3.74,-3.15 0.8,0.19 1.6,0.39 2.38,0.65 3.72,1.33 7.24,3.19 10.57,5.32 3.55,2.38 6.88,5.08 9.79,8.24 z m 11.94,-33.03 c -0.39,1.05 -0.87,2.05 -1.44,3.01 -0.74,1.06 -1.59,2.03 -2.52,2.94 -1.59,1.37 -3.33,2.51 -5.2,3.49 -2.85,1.36 -5.86,2.34 -8.95,3.05 -4,0.81 -8.06,1.15 -12.14,0.93 -0.21,-0.02 -0.42,-0.07 -0.64,-0.09 0.28,-0.6 0.6,-1.18 0.81,-1.8 1.66,-4.82 1.27,-9.95 -0.71,-14.62 -0.15,-0.36 -0.35,-0.7 -0.52,-1.05 1.75,-1.26 3.61,-2.39 5.52,-3.38 3.96,-1.97 8.13,-3.53 12.46,-4.49 2.19,-0.41 4.41,-0.65 6.65,-0.55 0.97,0.09 1.94,0.26 2.89,0.53 0.6,0.22 1.18,0.49 1.73,0.81 0.36,0.27 0.7,0.56 1.03,0.88 0.3,0.37 0.58,0.76 0.82,1.18 0.28,0.62 0.5,1.26 0.67,1.93 0.19,1.22 0.24,2.44 0.19,3.68 -0.12,1.21 -0.32,2.39 -0.65,3.55 z"
         id="path170" />
      <path
         d="m 763.27,1471.05 c -0.01,0.01 -0.02,0.01 -0.03,0.02 0.02,-0.01 0.03,-0.02 0.04,-0.02 0,0 -0.01,0 -0.01,0 z"
         id="path172" />
    </g>
  </g>
</svg>
