<?xml version="1.0" encoding="UTF-8" standalone="no"?>
<svg
   xmlns:dc="http://purl.org/dc/elements/1.1/"
   xmlns:cc="http://creativecommons.org/ns#"
   xmlns:rdf="http://www.w3.org/1999/02/22-rdf-syntax-ns#"
   xmlns:svg="http://www.w3.org/2000/svg"
   xmlns="http://www.w3.org/2000/svg"
   id="svg708"
   version="1.1"
   viewBox="0 0 26.595761 38.044166"
   height="38.044163mm"
   width="26.59576mm">
  <defs
     id="defs702" />
  <metadata
     id="metadata705">
    <rdf:RDF>
      <cc:Work
         rdf:about="">
        <dc:format>image/svg+xml</dc:format>
        <dc:type
           rdf:resource="http://purl.org/dc/dcmitype/StillImage" />
        <dc:title></dc:title>
      </cc:Work>
    </rdf:RDF>
  </metadata>
  <g
     transform="translate(131.93334,-157.72718)"
     id="layer1">
    <g
       transform="matrix(0.26458333,0,0,0.26458333,-148.39911,-143.87927)"
       className="ghost"
       style="fill:#c0c0c0"
       id="g598">
      <path
         d="m 155.96,1256.1 c 0,-0.01 0.01,-0.03 0.01,-0.04 0.01,-0.02 0.01,-0.04 0.02,-0.06 -0.01,0.03 -0.02,0.06 -0.03,0.1 z"
         id="path588" />
      <path
         d="m 162.73,1241.44 c 0.12,-5.73 -0.26,-11.47 -0.8,-17.17 -0.59,-6.05 -1.43,-12.09 -2.42,-18.09 -0.92,-5.53 -1.97,-11.04 -3.18,-16.52 -0.97,-4.38 -2,-8.77 -3.25,-13.07 -0.4,-1.36 -0.81,-2.7 -1.3,-4.02 -0.29,-0.75 -0.62,-1.48 -0.96,-2.19 -1.11,-2.42 -2.34,-4.77 -3.62,-7.1 -2.4,-4.27 -5.26,-8.18 -8.65,-11.74 -3.04,-3.2 -6.71,-5.84 -10.66,-7.81 -2.03,-1.02 -4.2,-1.72 -6.37,-2.37 -0.3,-0.09 -0.6,-0.17 -0.9,-0.25 -2.05,-0.54 -4.15,-0.86 -6.28,-1.03 -2.56,-0.21 -5.16,-0.19 -7.73,0 -2.52,0.17 -4.95,0.66 -7.39,1.26 -8.01,1.98 -14.82,7.33 -19.29,14.18 -2.36,3.62 -4.2,7.49 -5.59,11.59 -1.65,4.83 -2.88,9.81 -4.15,14.74 -2.79,10.73 -5.1,21.56 -6.56,32.54 -0.75,5.55 -1.15,11.15 -1.32,16.74 -0.17,5.31 -0.08,10.62 0.48,15.9 0.51,4.87 1.18,9.73 2.08,14.55 0.79,4.29 1.73,8.61 3.22,12.72 0.64,3.26 1.86,6.8 4.76,8.6 1.51,0.93 3.22,1.01 4.9,0.53 0.89,-0.25 1.71,-0.9 2.36,-1.54 0.82,-0.79 1.42,-1.73 1.99,-2.7 1.01,-1.72 1.67,-3.63 2.43,-5.47 0.77,-1.86 1.87,-3.63 2.95,-5.35 0.31,-0.49 0.63,-0.97 1,-1.41 0.12,0.12 0.24,0.24 0.35,0.36 0,0 0,-0.01 -0.01,-0.01 1.18,1.28 2.34,2.55 3.68,3.66 1.09,0.91 2.29,1.66 3.49,2.38 1.23,0.74 2.53,1.41 3.93,1.79 0.95,0.25 1.83,0.24 2.8,0 0.85,-0.21 1.53,-0.99 1.98,-1.7 0.43,-0.7 0.63,-1.52 0.84,-2.3 0.25,-0.9 0.44,-1.8 0.68,-2.69 0.3,-0.89 0.65,-1.72 1.12,-2.52 0.36,-0.51 0.75,-0.98 1.18,-1.42 0.74,-0.66 1.49,-1.26 2.33,-1.78 0.21,-0.1 0.41,-0.19 0.63,-0.26 0.03,0 0.07,-0.01 0.1,-0.01 0.01,0 0.01,0 0.02,0 0.06,0.04 0.11,0.09 0.16,0.13 0.32,0.39 0.59,0.82 0.85,1.27 0.55,1.02 1.06,2.06 1.63,3.08 0.75,1.32 1.71,2.5 2.81,3.57 1.16,1.13 2.67,2.06 4.1,2.79 1.01,0.51 2.2,0.81 3.33,0.67 1.01,-0.14 1.84,-0.69 2.52,-1.42 0.72,-0.8 1.03,-1.92 1.33,-2.92 0.34,-1.12 0.5,-2.28 0.71,-3.43 0.2,-1.16 0.44,-2.31 0.75,-3.45 0.37,-1.13 0.83,-2.21 1.44,-3.23 0.64,-0.98 1.31,-1.97 2.1,-2.84 0.67,0.58 1.26,1.26 1.88,1.88 1.3,1.3 2.72,2.46 4.21,3.51 1.91,1.36 3.96,2.62 6.17,3.46 1.78,0.67 3.64,1.04 5.55,0.93 1.62,-0.11 3.19,-0.73 4.52,-1.65 3,-2.09 4.45,-5.78 5.4,-9.17 1.27,-4.64 1.57,-9.47 1.67,-14.2 z m -92.09,23.73 c -0.01,-0.03 -0.01,-0.07 -0.02,-0.1 0.01,0.03 0.01,0.07 0.02,0.1 0,0 0,0 0,0 z m 30.64,6.26 c -0.05,0.02 -0.1,0.03 -0.16,0.03 0.05,0 0.11,-0.02 0.16,-0.03 0,0 0,0 0,0 z m 31.64,-15.08 c 0.02,0 0.03,0 0.05,0 0,0 0,0 0,0 -0.02,0 -0.03,0 -0.05,0 z m 23.06,-0.29 c -0.03,0.09 -0.05,0.18 -0.08,0.28 0.02,-0.08 0.04,-0.16 0.07,-0.23 -0.37,1.09 -0.82,2.15 -1.41,3.14 -0.35,0.52 -0.73,1 -1.16,1.44 -0.3,0.26 -0.62,0.49 -0.94,0.69 -0.36,0.17 -0.72,0.31 -1.1,0.41 -0.41,0.07 -0.81,0.11 -1.22,0.11 -0.76,-0.05 -1.49,-0.19 -2.22,-0.4 -1.53,-0.53 -2.96,-1.28 -4.33,-2.13 -0.94,-0.61 -1.83,-1.28 -2.73,-1.97 -1.32,-1.05 -2.51,-2.27 -3.68,-3.48 -0.72,-0.73 -1.45,-1.44 -2.39,-1.88 -1.28,-0.62 -2.55,-0.29 -3.71,0.36 -0.47,0.25 -0.86,0.7 -1.23,1.07 -0.57,0.56 -1.02,1.22 -1.49,1.86 -1.12,1.59 -2.09,3.19 -2.74,5.03 -0.56,1.62 -0.93,3.31 -1.22,5.02 -0.22,1.22 -0.36,2.46 -0.69,3.67 -0.05,0.13 -0.1,0.25 -0.15,0.38 -0.05,-0.01 -0.09,-0.02 -0.14,-0.03 -0.66,-0.26 -1.27,-0.59 -1.87,-0.96 -0.78,-0.53 -1.52,-1.08 -2.2,-1.75 -0.8,-0.92 -1.47,-1.92 -2.08,-2.99 -0.6,-1.05 -1.13,-2.13 -1.83,-3.12 -0.57,-0.81 -1.32,-1.49 -2.21,-1.91 -1.12,-0.51 -2.38,-0.34 -3.49,0.07 -1.44,0.53 -2.65,1.64 -3.74,2.65 -1.09,0.98 -1.91,2.11 -2.61,3.4 -0.99,1.86 -1.29,3.98 -1.85,6 -0.07,0.2 -0.15,0.38 -0.24,0.57 -0.21,-0.03 -0.42,-0.08 -0.63,-0.13 -1.27,-0.46 -2.46,-1.15 -3.61,-1.86 -1.6,-1.06 -3.05,-2.28 -4.35,-3.66 -0.9,-1.01 -1.75,-2.11 -2.95,-2.77 -1.53,-0.85 -3.1,0.07 -4.15,1.17 -0.67,0.72 -1.2,1.6 -1.71,2.42 -0.86,1.39 -1.7,2.79 -2.46,4.22 -0.54,0.99 -0.92,2.08 -1.34,3.11 -0.54,1.32 -1.13,2.62 -1.85,3.85 -0.32,0.46 -0.65,0.9 -1.04,1.31 -0.17,0.14 -0.34,0.27 -0.52,0.39 -0.15,0.07 -0.31,0.13 -0.47,0.19 -0.15,0.02 -0.29,0.03 -0.43,0.04 -0.05,-0.01 -0.1,-0.02 -0.15,-0.02 0.33,-0.84 0.21,-1.82 -0.31,-2.66 -0.34,-0.55 -0.68,-1.1 -0.99,-1.68 -1.16,-2.26 -2.08,-4.61 -2.83,-7.03 -0.04,-0.88 -0.04,-1.76 -0.02,-2.65 0.04,-0.76 0.1,-1.51 0.24,-2.25 0.21,-1.1 -0.6,-2.18 -1.68,-2.36 -0.07,-0.01 -0.14,-0.02 -0.22,-0.02 -0.54,-3.34 -0.86,-6.71 -1.1,-10.08 -0.35,-4.96 -0.53,-9.9 -0.4,-14.84 0.41,-10.7 2.18,-21.28 4.35,-31.75 2.15,-10.4 4.91,-20.67 7.99,-30.82 1.4,-4.46 3.18,-8.81 5.64,-12.8 1.41,-2.09 2.99,-4.05 4.81,-5.8 1.52,-1.33 3.16,-2.49 4.9,-3.49 2.24,-1.13 4.57,-1.99 6.98,-2.6 3.22,-0.68 6.49,-0.95 9.78,-0.91 2.94,0.14 5.84,0.55 8.66,1.35 2.4,0.8 4.67,1.85 6.84,3.15 2.45,1.62 4.67,3.52 6.7,5.63 3.35,3.7 6.07,7.86 8.46,12.22 0.94,1.77 1.87,3.55 2.58,5.42 0.51,1.39 0.96,2.79 1.39,4.2 1.22,3.91 2.24,7.89 3.19,11.87 2.03,8.68 3.72,17.43 4.98,26.23 1.27,8.86 2.17,17.86 1.91,26.82 0,-0.04 0,-0.07 0.01,-0.11 -0.13,3.83 -0.43,7.66 -1.51,11.34 0.03,-0.09 0.06,-0.18 0.09,-0.26 -0.03,0.1 -0.07,0.21 -0.1,0.32 z"
         id="path590" />
      <path
         d="m 101.7,1192.52 c 0.34,-2.02 -0.15,-4.11 -1.34,-5.78 -1.27,-1.79 -2.97,-2.61 -5.03,-3.14 -1.89,-0.49 -4.24,0.24 -5.78,1.34 -1.67,1.19 -2.8,3.01 -3.14,5.03 -0.34,2.02 0.15,4.11 1.34,5.78 1.27,1.79 2.96,2.61 5.03,3.14 1.89,0.49 4.24,-0.24 5.78,-1.34 1.67,-1.19 2.8,-3.01 3.14,-5.03 z"
         id="path592" />
      <path
         d="m 118.82,1199.75 c 1.86,0.49 4.14,-0.23 5.66,-1.31 1.63,-1.15 2.74,-2.95 3.07,-4.92 0.33,-1.98 -0.14,-4.03 -1.31,-5.66 -1.25,-1.75 -2.9,-2.54 -4.92,-3.07 -1.86,-0.49 -4.14,0.23 -5.66,1.31 -1.63,1.15 -2.74,2.95 -3.07,4.92 -0.33,1.98 0.14,4.03 1.31,5.66 1.24,1.75 2.9,2.54 4.92,3.07 z"
         id="path594" />
      <path
         d="m 124.43,1213.95 c -0.48,-0.67 -1.19,-1.15 -1.98,-1.36 -0.09,-0.02 -0.19,-0.04 -0.28,-0.06 -1.81,-0.3 -3.74,0.98 -3.98,2.85 -0.26,1.93 -0.65,3.82 -1.19,5.7 -0.76,2.25 -1.74,4.41 -2.96,6.45 -0.99,1.48 -2.09,2.86 -3.34,4.11 -0.95,0.84 -1.94,1.58 -3.03,2.21 -0.69,0.33 -1.39,0.61 -2.13,0.82 -0.51,0.09 -1.02,0.14 -1.54,0.16 -0.4,-0.04 -0.8,-0.11 -1.19,-0.21 -0.47,-0.18 -0.91,-0.38 -1.34,-0.62 -0.48,-0.35 -0.93,-0.74 -1.37,-1.15 -0.68,-0.79 -1.25,-1.64 -1.78,-2.54 -0.9,-1.82 -1.55,-3.73 -2.05,-5.71 -0.17,-0.76 -0.32,-1.53 -0.46,-2.3 -0.3,-1.66 -1.62,-2.94 -3.41,-2.77 -1.59,0.16 -3.07,1.75 -2.77,3.41 0.99,5.66 2.72,11.57 7.12,15.55 1.63,1.49 3.73,2.43 5.88,2.83 2.16,0.41 4.39,0.07 6.47,-0.58 1.96,-0.63 3.83,-1.78 5.43,-3.06 1.94,-1.56 3.63,-3.42 5.05,-5.44 3.21,-4.61 5.19,-10.11 5.45,-15.72 0.04,-0.95 -0.03,-1.77 -0.6,-2.57 z"
         id="path596" />
    </g>
  </g>
</svg>
