<?xml version="1.0" encoding="UTF-8" standalone="no"?>
<svg
   xmlns:dc="http://purl.org/dc/elements/1.1/"
   xmlns:cc="http://creativecommons.org/ns#"
   xmlns:rdf="http://www.w3.org/1999/02/22-rdf-syntax-ns#"
   xmlns:svg="http://www.w3.org/2000/svg"
   xmlns="http://www.w3.org/2000/svg"
   id="svg708"
   version="1.1"
   viewBox="0 0 25.599799 35.216483"
   height="35.21648mm"
   width="25.599798mm">
  <defs
     id="defs702" />
  <metadata
     id="metadata705">
    <rdf:RDF>
      <cc:Work
         rdf:about="">
        <dc:format>image/svg+xml</dc:format>
        <dc:type
           rdf:resource="http://purl.org/dc/dcmitype/StillImage" />
        <dc:title></dc:title>
      </cc:Work>
    </rdf:RDF>
  </metadata>
  <g
     transform="translate(118.01575,-158.14674)"
     id="layer1">
    <g
       transform="matrix(0.26458333,0,0,0.26458333,-257.756,-77.526869)"
       className="hat"
       style="fill:#0000ff"
       id="g60">
      <path
         d="m 624.46,996.83 c 0.57,-1.62 0.47,-3.51 0.37,-5.21 -0.13,-1.78 -0.5,-3.54 -0.81,-5.29 -0.59,-3.2 -1.37,-6.36 -2.2,-9.5 -1.74,-6.6 -3.88,-13.07 -6.08,-19.53 -4.35,-12.9 -9.21,-25.67 -12.11,-39 -0.09,-0.42 -0.31,-0.77 -0.57,-1.09 -0.3,-0.64 -0.62,-1.27 -0.96,-1.89 0.63,-2.83 1.1,-5.7 1.15,-8.6 0.05,-3.73 -0.88,-7.54 -3.31,-10.44 -1.94,-2.32 -4.68,-3.85 -7.58,-4.7 -1.09,-0.32 -2.2,-0.54 -3.3,-0.68 -1.79,-0.22 -3.58,-0.23 -5.38,0.03 -1.98,0.31 -3.83,0.89 -5.65,1.75 -3.29,1.57 -6.11,3.96 -8.54,6.66 -2.59,2.89 -4.71,6.22 -6.48,9.65 -1.75,3.41 -3.15,7.01 -4.29,10.68 -1.21,3.91 -1.97,7.94 -2.57,12 -1.73,11.66 -1.93,23.47 -3.02,35.2 0.01,-0.14 0.02,-0.27 0.03,-0.41 -0.82,8.24 -2.13,16.45 -4.95,24.25 -1.6,4.09 -3.62,7.96 -6.15,11.55 -2.62,3.47 -5.65,6.53 -9,9.32 -1.38,1.11 -2.81,2.2 -4.14,3.39 -0.93,0.83 -0.98,2.43 -0.34,3.45 0.61,0.98 1.95,1.58 3.1,1.22 2.97,1.17 5.91,2.43 8.98,3.32 1.55,0.43 3.17,0.71 4.78,0.83 1.9,0.14 3.71,-0.04 5.56,-0.48 1.15,-0.27 1.92,-1.52 1.86,-2.65 0,-0.11 -0.05,-0.21 -0.07,-0.32 2.45,-3.33 4.74,-6.78 6.7,-10.42 2.08,-3.86 3.78,-7.92 5.26,-12.05 2.77,-7.76 4.35,-15.88 5.57,-24.01 0.59,-3.96 1.02,-7.92 1.5,-11.9 0.25,-1.99 0.53,-3.98 0.82,-5.97 0.35,-2.22 0.62,-4.47 0.92,-6.71 0.59,-4.31 1.37,-8.6 2.32,-12.86 0.88,-3.99 1.87,-7.99 3.24,-11.84 0.76,-1.89 1.67,-3.72 2.8,-5.42 0.65,-0.83 1.37,-1.6 2.15,-2.32 0.51,-0.38 1.03,-0.71 1.59,-1 0.45,-0.17 0.91,-0.32 1.37,-0.43 0.51,-0.05 1.02,-0.08 1.53,-0.06 0.81,0.13 1.59,0.33 2.36,0.59 1.61,0.69 3.12,1.56 4.6,2.48 -0.32,0.38 -0.59,0.82 -0.7,1.33 -3.79,16.25 -9.33,32 -14.46,47.86 -0.96,2.95 -1.92,5.9 -2.78,8.88 -0.65,2.29 -1.25,4.61 -1.85,6.91 -1.08,4.07 -2.07,8.19 -3.47,12.15 -0.05,0.12 -0.11,0.23 -0.17,0.34 0.04,-0.05 0.07,-0.1 0.11,-0.15 0,0.01 0,0.01 -0.01,0.02 -0.42,0.68 -0.68,1.39 -0.64,2.27 0.03,1.03 0.5,2.02 1.25,2.72 0.36,0.34 0.76,0.58 1.17,0.76 0.32,0.71 0.81,1.35 1.54,1.74 0.59,0.32 1.23,0.44 1.86,0.42 0.96,0.76 1.95,1.47 3.01,2.08 1.64,0.97 3.45,1.64 5.26,2.22 3.96,1.27 8.23,1.52 12.36,1.42 4.31,-0.1 8.62,-0.91 12.7,-2.23 1.93,-0.61 3.78,-1.44 5.61,-2.35 1.82,-0.89 3.57,-2.04 4.98,-3.53 0.43,-0.46 0.62,-1.04 0.65,-1.64 0.26,-0.09 0.52,-0.2 0.76,-0.34 0.97,-0.61 1.39,-1.44 1.76,-2.47 z m -52.22,-1.11 c 0,0 0,-0.01 0.01,-0.01 0.01,-0.01 0.02,-0.03 0.03,-0.04 -0.02,0.01 -0.03,0.03 -0.04,0.05 z m 39.05,-25.25 c -6.26,2.54 -12.63,4.77 -19.28,5.94 -2.12,0.34 -4.24,0.52 -6.36,0.61 0.33,-1.25 0.63,-2.51 0.98,-3.76 1.33,-4.73 2.72,-9.44 4.12,-14.14 5.61,-0.52 11.18,-1.27 16.72,-2.27 1.35,4.51 2.64,9.05 3.82,13.62 z m -5.25,-18.35 c 0.19,0.63 0.38,1.26 0.57,1.89 -1.04,0.2 -2.07,0.42 -3.11,0.6 0.13,-0.03 0.25,-0.04 0.37,-0.07 -4.07,0.7 -8.16,1.21 -12.25,1.63 2.68,-8.99 5.37,-17.98 7.71,-27.07 2,7.73 4.36,15.37 6.71,23.02 z m -7.86,-41.72 c -0.74,-0.67 -1.59,-1.22 -2.41,-1.76 -0.6,-0.41 -1.26,-0.72 -1.93,-1.02 -0.77,-0.33 -1.57,-0.63 -2.39,-0.87 -0.09,-0.03 -0.19,-0.05 -0.28,-0.08 -0.88,-0.24 -1.82,-0.31 -2.73,-0.38 -0.62,-0.05 -1.24,-0.06 -1.87,-0.03 -0.87,0.06 -1.76,0.25 -2.61,0.46 -0.87,0.22 -1.69,0.61 -2.48,0.98 -1.43,0.67 -2.64,1.64 -3.83,2.68 -1.28,1.13 -2.29,2.61 -3.23,4.01 -0.96,1.44 -1.66,3.05 -2.28,4.66 -1.67,4.35 -2.69,8.94 -3.56,13.5 -0.87,4.53 -1.37,9.16 -1.84,13.74 -0.27,2.58 -0.5,5.14 -0.68,7.72 -0.17,2.23 -0.2,4.48 -0.34,6.71 -0.15,2.22 -0.32,4.42 -0.5,6.65 -0.17,2.13 -0.34,4.25 -0.54,6.37 -0.2,2.04 -0.43,4.07 -0.7,6.11 -0.32,2.42 -0.75,4.82 -1.24,7.22 -0.93,4.6 -2.18,9.13 -3.81,13.52 -2.36,6.06 -5.46,11.81 -9.25,17.1 0.02,-0.03 0.03,-0.05 0.05,-0.08 -0.14,0.2 -0.28,0.39 -0.43,0.57 -1.19,0.12 -2.36,0.17 -3.56,0.1 -2.51,-0.33 -4.91,-1.07 -7.3,-1.93 -0.11,-0.04 -0.23,-0.09 -0.34,-0.13 1.48,-1.03 2.91,-2.15 4.27,-3.32 3.1,-2.64 5.67,-5.79 8,-9.13 2.05,-2.93 3.67,-6.16 5.01,-9.47 1.5,-3.7 2.64,-7.48 3.5,-11.36 1.72,-7.65 2.31,-15.54 2.77,-23.36 0.44,-7.79 0.66,-15.58 1.34,-23.34 0.39,-3.98 0.89,-7.97 1.74,-11.88 0.6,-2.78 1.42,-5.53 2.39,-8.2 1.56,-4.09 3.5,-8.02 6,-11.6 -0.09,0.13 -0.19,0.25 -0.28,0.38 0.09,-0.13 0.19,-0.26 0.29,-0.38 0.06,-0.09 0.12,-0.18 0.19,-0.27 -0.06,0.09 -0.12,0.18 -0.19,0.26 1.38,-1.82 2.91,-3.52 4.66,-5 1.15,-0.88 2.35,-1.66 3.65,-2.3 1.2,-0.5 2.4,-0.89 3.68,-1.14 1.24,-0.17 2.47,-0.2 3.72,-0.13 1.53,0.16 3,0.49 4.44,0.99 0.81,0.35 1.59,0.74 2.33,1.22 0.55,0.43 1.05,0.89 1.53,1.41 0.48,0.62 0.88,1.29 1.22,2 0.34,0.85 0.59,1.71 0.77,2.61 0.26,1.87 0.26,3.75 0.1,5.64 -0.05,0.47 -0.16,0.94 -0.23,1.4 -0.26,-0.27 -0.52,-0.58 -0.82,-0.85 z m 11.18,90.34 c -3.26,1.19 -6.59,2.03 -9.98,2.65 -2.84,0.44 -5.69,0.53 -8.57,0.3 -1.94,-0.23 -3.85,-0.67 -5.71,-1.31 -1.28,-0.51 -2.48,-1.16 -3.63,-1.9 0.34,-0.39 0.67,-0.77 1.06,-1.12 0.69,-0.51 1.42,-0.94 2.18,-1.32 1.36,-0.57 2.77,-0.97 4.22,-1.26 3.04,-0.43 6.11,-0.35 9.16,-0.1 3.55,0.39 7.08,1.07 10.57,1.9 1.23,0.3 2.48,0.64 3.72,0.97 -1.02,0.41 -2.01,0.82 -3.02,1.19 z m 3.89,-9.9 c -1.17,-0.34 -2.35,-0.63 -3.52,-0.9 -4.47,-1.02 -9.13,-1.53 -13.7,-1.57 -2.13,-0.04 -4.27,0.18 -6.37,0.5 -2.15,0.32 -4.25,0.75 -6.29,1.53 -0.44,0.17 -0.85,0.4 -1.28,0.6 0.2,-0.79 0.41,-1.58 0.61,-2.37 0.71,-2.76 1.38,-5.52 2.07,-8.27 9.43,-0.15 18.63,-2.86 27.38,-6.39 0.85,3.52 1.63,7.04 2.27,10.61 0.33,2.02 0.6,4.04 0.88,6.06 0.04,0.31 0.09,0.62 0.14,0.93 -0.72,-0.28 -1.45,-0.51 -2.19,-0.73 z"
         id="path56" />
      <polygon
         points="573.14,904.59 573.15,904.58 573.14,904.58 "
         id="polygon58" />
    </g>
  </g>
</svg>
