<?xml version="1.0" encoding="UTF-8" standalone="no"?>
<svg
   xmlns:dc="http://purl.org/dc/elements/1.1/"
   xmlns:cc="http://creativecommons.org/ns#"
   xmlns:rdf="http://www.w3.org/1999/02/22-rdf-syntax-ns#"
   xmlns:svg="http://www.w3.org/2000/svg"
   xmlns="http://www.w3.org/2000/svg"
   id="svg708"
   version="1.1"
   viewBox="0 0 49.683725 36.54071"
   height="36.540707mm"
   width="49.683723mm">
  <defs
     id="defs702" />
  <metadata
     id="metadata705">
    <rdf:RDF>
      <cc:Work
         rdf:about="">
        <dc:format>image/svg+xml</dc:format>
        <dc:type
           rdf:resource="http://purl.org/dc/dcmitype/StillImage" />
        <dc:title></dc:title>
      </cc:Work>
    </rdf:RDF>
  </metadata>
  <g
     transform="translate(222.1098,-169.12376)"
     id="layer1">
    <g
       transform="matrix(0.26458333,0,0,0.26458333,-432.72393,-133.23149)"
       className="boat"
       style="fill:#0000ff"
       id="g370">
      <path
         d="m 964.44,1259.33 c -5.69,-1.43 -11.26,-3.32 -17.02,-4.53 -2.99,-0.64 -6.02,-1.15 -9.06,-1.35 -2.53,-0.16 -5.05,0.01 -7.55,0.3 -8.79,1 -16.84,5.06 -25.03,8.14 -3.77,1.37 -7.61,2.51 -11.61,2.97 -2.41,0.17 -4.79,0.09 -7.18,-0.27 -2.64,-0.52 -5.17,-1.38 -7.63,-2.49 -5.97,-2.88 -11.78,-6.23 -18.05,-8.39 -3.09,-1.06 -6.31,-1.72 -9.56,-1.99 -0.86,-0.07 -1.73,-0.11 -2.59,-0.11 -2.98,0 -5.99,0.41 -8.89,1.01 -3.3,0.7 -6.51,1.86 -9.61,3.19 -3.15,1.35 -6.14,3.03 -9.01,4.91 -5.94,3.9 -11.25,8.78 -15.32,14.62 -1.12,1.61 -0.51,3.93 1.09,4.97 1.69,1.08 3.84,0.52 4.96,-1.09 0.7,-1.02 1.44,-1.99 2.21,-2.94 2.74,-3.16 5.84,-5.96 9.21,-8.43 3.82,-2.68 7.9,-4.92 12.24,-6.64 3.39,-1.24 6.85,-2.1 10.44,-2.49 2.62,-0.18 5.22,-0.09 7.82,0.29 4.2,0.81 8.12,2.38 11.98,4.17 2.34,1.11 4.65,2.27 6.98,3.39 2.51,1.23 5.02,2.43 7.67,3.29 2.35,0.76 4.82,1.21 7.26,1.45 2.46,0.25 4.91,0.08 7.36,-0.2 4.34,-0.51 8.52,-1.94 12.57,-3.51 4.18,-1.61 8.26,-3.48 12.45,-5.06 4.29,-1.56 8.65,-2.77 13.2,-3.24 2.66,-0.19 5.28,-0.11 7.92,0.28 3.46,0.68 6.79,1.8 10.14,2.87 3.8,1.21 7.63,2.21 11.58,2.69 1.3,0.15 2.58,-0.89 2.95,-2.06 0.48,-1.48 -0.35,-3.35 -1.92,-3.75 z"
         id="path364" />
      <path
         d="m 835.93,1241.94 c 0.1,-0.01 0.2,-0.02 0.3,-0.03 -0.06,0 -0.12,0.01 -0.18,0.01 -0.04,0.01 -0.08,0.01 -0.12,0.02 z"
         id="path366" />
      <path
         d="m 980.35,1241.24 c -1.62,0.05 -3.25,0.08 -4.87,-0.03 -1.15,-0.07 -2.31,-0.22 -3.46,-0.39 -5.79,-1.09 -11.24,-3.33 -16.65,-5.6 -2.76,-1.16 -5.5,-2.31 -8.31,-3.3 -0.2,-0.07 -0.41,-0.12 -0.61,-0.18 0.74,-1.53 1.45,-3.07 2.12,-4.61 2.05,-4.71 3.73,-9.61 4.86,-14.62 1.04,-4.61 1.56,-9.45 1.26,-14.17 -0.08,-1.23 -0.91,-2.24 -2.04,-2.58 -0.85,-2.18 -2.55,-3.7 -4.48,-4.94 -2.02,-1.3 -4.41,-2.1 -6.69,-2.8 -2.59,-0.79 -5.24,-1.34 -7.92,-1.8 -5.48,-0.95 -11.04,-1.43 -16.6,-1.67 -1.56,-4.38 -3.17,-8.74 -4.92,-13.04 -1.46,-3.62 -3.04,-7.19 -4.75,-10.7 -1.39,-2.88 -2.94,-5.69 -4.71,-8.34 -1.57,-2.33 -3.36,-4.61 -5.52,-6.42 -0.97,-0.81 -2.03,-1.57 -3.17,-2.13 -1.45,-0.7 -2.84,-1.02 -4.44,-1.15 -0.14,-0.01 -0.28,-0.01 -0.41,-0.01 -0.98,0 -1.96,0.24 -2.9,0.47 -1.22,0.27 -2.32,0.79 -3.44,1.31 -2.25,1.04 -4.2,2.68 -6.03,4.3 -2.09,1.86 -3.95,3.97 -5.71,6.13 -2.13,2.63 -4.11,5.42 -5.99,8.23 -3.88,5.76 -7.34,11.8 -10.58,17.92 -1.38,2.62 -2.71,5.26 -4.01,7.92 -5.27,-0.67 -10.72,0.13 -15.8,1.48 -3.06,0.81 -6.01,1.95 -8.86,3.32 -2.47,1.19 -4.76,2.68 -6.83,4.49 -1.71,1.49 -3.09,3.39 -3.7,5.58 -0.34,1.2 -0.28,2.48 0.04,3.69 -0.15,0.45 -0.2,0.94 -0.1,1.44 2.18,10.08 5.53,20.15 10.63,29.18 -5.71,1.27 -11.32,3.13 -16.48,5.89 -5.23,2.79 -10.18,6.8 -12.86,12.2 -0.31,0.64 -0.51,1.23 -0.33,1.97 0.15,0.64 0.55,1.21 1.11,1.57 1.08,0.68 2.91,0.48 3.54,-0.78 0.67,-1.36 1.49,-2.63 2.44,-3.82 1.35,-1.54 2.86,-2.89 4.49,-4.1 2.97,-2.07 6.2,-3.66 9.56,-4.97 6.02,-2.23 12.32,-3.59 18.71,-4.24 -0.05,0 -0.09,0.01 -0.14,0.01 0.09,-0.01 0.17,-0.01 0.26,-0.02 0.16,-0.02 0.32,-0.03 0.48,-0.05 -0.1,0.01 -0.2,0.02 -0.3,0.03 2.22,-0.18 4.43,-0.29 6.65,-0.28 2.91,0.03 5.8,0.36 8.67,0.82 5.32,0.97 10.53,2.49 15.79,3.77 5.65,1.38 11.4,2.44 17.24,2.33 10.48,-0.19 19.89,-4.96 29.47,-8.65 4.47,-1.67 9.02,-2.99 13.77,-3.52 2.89,-0.2 5.76,-0.08 8.62,0.35 7.27,1.35 13.96,4.55 20.78,7.29 3.39,1.38 6.84,2.58 10.4,3.41 1.97,0.46 3.99,0.79 5.99,1.01 2.48,0.26 4.93,0.18 7.4,-0.1 0.61,-0.15 1.16,-0.44 1.62,-0.86 0.7,-0.64 1.12,-1.56 1.16,-2.5 0.08,-1.84 -1.49,-3.8 -3.45,-3.74 z m -57.06,-48.93 c 3.29,0.35 6.59,0.79 9.85,1.38 3.04,0.55 6.09,1.25 8.99,2.32 1.02,0.41 2.02,0.89 2.95,1.49 0.24,0.2 0.47,0.4 0.68,0.62 0.03,0.04 0.05,0.08 0.08,0.12 0,0.02 -0.01,0.03 -0.01,0.05 -0.12,0.23 -0.25,0.46 -0.39,0.68 -0.5,0.61 -1.07,1.16 -1.67,1.68 -1.38,1.09 -2.87,2.05 -4.45,2.82 -2.98,1.27 -6.16,2.03 -9.36,2.6 -1.74,0.28 -3.48,0.51 -5.23,0.7 -1.72,-4.7 -3.33,-9.45 -4.95,-14.18 -0.07,-0.2 -0.14,-0.39 -0.21,-0.59 1.24,0.09 2.48,0.19 3.72,0.31 z m -74.17,16.11 c 0.15,-0.27 0.28,-0.55 0.4,-0.86 -0.08,0.2 -0.15,0.41 -0.23,0.61 2.57,-6.65 5.68,-13.11 8.93,-19.44 4.27,-8.33 8.95,-16.53 14.43,-24.14 2.77,-3.78 5.8,-7.45 9.37,-10.49 1.15,-0.9 2.35,-1.73 3.65,-2.39 0.54,-0.22 1.08,-0.4 1.64,-0.54 0.18,-0.01 0.36,-0.02 0.55,-0.02 0.43,0.07 0.86,0.17 1.28,0.29 0.38,0.18 0.74,0.39 1.09,0.61 0.87,0.7 1.65,1.49 2.37,2.34 2.89,3.68 5.03,7.89 7,12.1 3.1,6.86 5.69,13.92 8.21,21.01 -0.03,0.21 -0.05,0.42 -0.04,0.63 0.03,1 0.47,1.87 1.15,2.48 0.09,0.25 0.18,0.5 0.27,0.75 1.35,3.84 2.72,7.67 4.18,11.47 0.59,1.54 1.2,3.09 1.86,4.62 -2.13,0.1 -4.27,0.17 -6.4,0.22 -6.23,0.16 -12.48,0.1 -18.7,0.52 -4.03,0.27 -8.04,0.78 -12.05,1.26 -4.49,0.53 -8.98,1.11 -13.47,1.6 -5.44,0.6 -10.92,1.08 -16.41,1.19 0.28,-1.28 0.59,-2.55 0.92,-3.82 z m -28.36,-2.62 c -0.01,-0.11 -0.01,-0.23 -0.01,-0.34 0.04,-0.18 0.08,-0.36 0.13,-0.53 0.16,-0.36 0.36,-0.7 0.57,-1.04 0.57,-0.73 1.23,-1.4 1.93,-2.01 1.88,-1.5 3.98,-2.67 6.15,-3.7 3.6,-1.61 7.38,-2.75 11.25,-3.44 2.35,-0.37 4.72,-0.54 7.09,-0.45 -0.53,1.13 -1.08,2.26 -1.59,3.4 -1.21,2.7 -2.36,5.43 -3.41,8.2 -0.01,0.03 -0.01,0.07 -0.02,0.1 -0.21,0.37 -0.43,0.73 -0.63,1.11 -0.68,1.07 -1.26,2.22 -1.83,3.36 -0.05,0.1 -0.1,0.2 -0.15,0.3 -0.21,0.42 -0.42,0.84 -0.63,1.26 0,0 0,0 0,0.01 -0.74,-0.05 -1.48,-0.1 -2.22,-0.17 -4.02,-0.45 -8.04,-1.21 -11.84,-2.59 -1.17,-0.47 -2.29,-1.01 -3.34,-1.7 -0.36,-0.28 -0.7,-0.58 -1.01,-0.91 -0.12,-0.17 -0.23,-0.34 -0.33,-0.52 -0.04,-0.09 -0.08,-0.21 -0.11,-0.34 z m 119.46,24.24 c -0.95,-0.21 -1.9,-0.44 -2.86,-0.61 -2.01,-0.35 -4.04,-0.51 -6.06,-0.51 -4.86,0 -9.7,0.92 -14.35,2.42 -6.64,2.13 -12.92,5.27 -19.43,7.74 -3.81,1.38 -7.73,2.44 -11.78,2.89 -4.52,0.31 -8.99,-0.16 -13.43,-0.93 -4.26,-0.81 -8.44,-1.92 -12.67,-2.84 -4.42,-0.97 -8.93,-1.77 -13.46,-2.02 -5.2,-0.28 -10.48,0.22 -15.63,1.09 -1.39,-2.31 -2.7,-4.66 -3.84,-7.1 -2.39,-5.27 -4.26,-10.74 -5.75,-16.32 1.01,0.54 2.05,1.02 3.12,1.43 3.99,1.54 8.23,2.39 12.48,2.89 9.79,1.17 19.66,0.48 29.43,-0.49 4.86,-0.48 9.71,-1.06 14.55,-1.6 3.9,-0.44 7.82,-0.85 11.75,-1.02 7.15,-0.33 14.33,-0.18 21.5,-0.42 2.38,-0.08 4.77,-0.21 7.16,-0.37 0.42,0.03 0.83,-0.01 1.24,-0.1 4.93,-0.38 9.85,-1 14.62,-2.24 3.07,-0.79 6.1,-1.97 8.75,-3.7 0.96,-0.62 1.87,-1.31 2.74,-2.03 -0.84,4.98 -2.23,9.86 -3.99,14.6 -1.2,3.15 -2.59,6.22 -4.09,9.24 z"
         id="path368" />
    </g>
  </g>
</svg>
