<?xml version="1.0" encoding="UTF-8" standalone="no"?>
<svg
   xmlns:dc="http://purl.org/dc/elements/1.1/"
   xmlns:cc="http://creativecommons.org/ns#"
   xmlns:rdf="http://www.w3.org/1999/02/22-rdf-syntax-ns#"
   xmlns:svg="http://www.w3.org/2000/svg"
   xmlns="http://www.w3.org/2000/svg"
   id="svg708"
   version="1.1"
   viewBox="0 0 15.039102 41.154698"
   height="41.154697mm"
   width="15.039102mm">
  <defs
     id="defs702" />
  <metadata
     id="metadata705">
    <rdf:RDF>
      <cc:Work
         rdf:about="">
        <dc:format>image/svg+xml</dc:format>
        <dc:type
           rdf:resource="http://purl.org/dc/dcmitype/StillImage" />
        <dc:title></dc:title>
      </cc:Work>
    </rdf:RDF>
  </metadata>
  <g
     transform="translate(54.609657,-127.71615)"
     id="layer1">
    <path
       className="heart4"
       style="fill:#ff0000;stroke-width:0.264583"
       d="m -51.048859,127.94906 c -0.37306,0.19844 -0.63764,0.55298 -0.85196,0.90488 -0.24606,0.40216 -0.42333,0.83873 -0.57679,1.28058 -0.33337,0.93927 -0.55298,1.91823 -0.762,2.89454 -0.0926,0.44186 -0.19579,0.87842 -0.29633,1.31763 -0.18521,0.81756 -0.34396,1.64306 -0.47625,2.47121 -0.53975,3.31523 -0.6694,6.68602 -0.56356,10.04093 0.20902,6.69661 1.84943,13.23975 2.40506,19.90461 0.0106,0.13494 0.0212,0.27252 0.0318,0.4101 -0.10054,0.28311 -0.19315,0.5715 -0.27781,0.8599 -0.0159,0.10848 -0.005,0.21431 0.0318,0.3175 0.0582,0.1561 0.17462,0.28046 0.32543,0.35189 0.0212,0.0106 0.045,0.0185 0.0661,0.0265 0.0714,0.0953 0.1905,0.15082 0.30956,0.14023 0.15081,-0.0159 0.25929,-0.12435 0.29369,-0.25929 0.0688,-0.0582 0.12435,-0.12964 0.16139,-0.21431 0.4154,-0.69321 0.76994,-1.42081 1.12978,-2.14577 0.36247,-0.73025 0.71437,-1.46579 1.06362,-2.19869 0.70908,-1.48167 1.41288,-2.96333 2.10608,-4.45294 1.38907,-2.98185 2.7305,-5.99016 3.92377,-9.05933 0.58738,-1.51606 1.13507,-3.05065 1.62984,-4.6011 0.36512,-1.14565 0.71173,-2.29659 1.00277,-3.46075 0.36512,-1.47373 0.65087,-2.97921 0.75671,-4.49528 0.0582,-0.81227 0.0767,-1.64306 -0.0423,-2.45004 -0.0556,-0.381 -0.14287,-0.76729 -0.27252,-1.12977 -0.0714,-0.19844 -0.17198,-0.381 -0.26987,-0.56621 -0.0661,-0.1217 -0.14023,-0.23548 -0.22754,-0.3466 -0.25665,-0.32279 -0.55563,-0.57415 -0.93134,-0.75671 -0.17991,-0.09 -0.37835,-0.14287 -0.57414,-0.1905 -0.21432,-0.0503 -0.44186,-0.0503 -0.65617,-0.0503 -0.1561,-0.003 -0.30956,0.0159 -0.46037,0.0423 -0.2593,0.0423 -0.5133,0.11113 -0.762,0.1905 -0.5133,0.16934 -1.00542,0.42863 -1.47109,0.70115 -0.85989,0.50271 -1.62189,1.18269 -2.30187,1.90764 -0.54504,0.57944 -1.02394,1.2118 -1.4605,1.87325 0.0106,-0.0767 0.0185,-0.1561 0.0318,-0.23283 0.21166,-1.524 0.42333,-3.05065 0.49741,-4.58523 0.0397,-0.82285 0.0556,-1.65364 -0.0503,-2.47121 -0.045,-0.34396 -0.11641,-0.69056 -0.23018,-1.01864 -0.0529,-0.15346 -0.12965,-0.29898 -0.20903,-0.44186 -0.0767,-0.14023 -0.18256,-0.254 -0.28839,-0.37041 -0.18786,-0.20373 -0.47625,-0.33602 -0.74877,-0.36248 -0.0503,-0.005 -0.10054,-0.008 -0.15081,-0.008 -0.29898,0 -0.58738,0.0926 -0.85461,0.23283 z m 0.75936,0.84138 c 0.0212,0.003 0.0397,0.005 0.0582,0.0106 0.0185,0.008 0.0344,0.0159 0.0529,0.0238 0.0238,0.0185 0.0476,0.037 0.0688,0.0582 0.0318,0.0423 0.0635,0.0873 0.09,0.13229 0.0688,0.14817 0.11906,0.30427 0.1614,0.46567 0.14816,0.69056 0.15081,1.41287 0.12964,2.11402 0.003,-0.0529 0.005,-0.10848 0.005,-0.1614 -0.0529,1.61396 -0.28575,3.21733 -0.53975,4.80748 -0.0423,0.26988 -0.0873,0.53975 -0.12964,0.80698 -0.0503,0.33073 -0.0873,0.6641 -0.12171,0.99748 -0.082,0.81227 -0.14288,1.63248 -0.24871,2.44475 -0.0265,0.0635 -0.0503,0.12964 -0.0741,0.19314 -0.19579,0.51594 -0.35984,1.04511 -0.508,1.57428 -0.0635,0.23018 -0.11906,0.46302 -0.16934,0.69585 -0.0238,0.11377 -0.0476,0.22754 -0.0661,0.34396 -0.0238,0.13229 -0.0265,0.26194 -0.0265,0.39423 0,0.005 0,0.0106 -0.003,0.0159 -0.0212,0.14287 -0.008,0.28046 0.0397,0.41539 0.0767,0.20373 0.23019,0.37042 0.42598,0.46038 0.19844,0.09 0.42333,0.0979 0.62706,0.0212 0.18257,-0.0688 0.39688,-0.23284 0.45773,-0.42598 0.0212,-0.0688 0.045,-0.14023 0.0662,-0.20902 0.0476,-0.127 0.0847,-0.25929 0.11642,-0.38894 0.0529,-0.17992 0.10054,-0.35983 0.14552,-0.53975 0.0238,-0.0952 0.045,-0.1905 0.0661,-0.28575 0.0185,-0.0661 0.037,-0.12965 0.0556,-0.19579 0.43657,-1.37848 1.0504,-2.69875 1.81769,-3.92642 0.59531,-0.91546 1.27794,-1.77271 2.07434,-2.52677 0.50535,-0.45244 1.05304,-0.85725 1.651,-1.18533 0.35718,-0.17727 0.72495,-0.33338 1.11125,-0.43656 0.14552,-0.0265 0.29104,-0.045 0.4392,-0.0503 0.0741,0.008 0.15082,0.0185 0.2249,0.0344 0.045,0.0185 0.0873,0.037 0.12965,0.0582 0.0397,0.0317 0.0794,0.0635 0.11641,0.0979 0.0582,0.0741 0.11377,0.15345 0.1614,0.23547 0.0847,0.18257 0.14816,0.37307 0.19844,0.56886 0.1217,0.6006 0.14552,1.21708 0.13229,1.82827 -0.0503,1.18798 -0.23019,2.36802 -0.46567,3.53219 -0.28046,1.39435 -0.66146,2.76225 -1.07421,4.12221 0.003,-0.008 0.005,-0.0159 0.008,-0.0238 -1.92088,6.19918 -4.69106,12.07822 -7.29985,18.00754 -0.36778,0.83608 -0.7329,1.66952 -1.08215,2.51618 -0.0423,0.10584 -0.0873,0.20903 -0.12965,0.31486 -0.54768,-5.73088 -1.778,-11.38238 -2.14048,-17.13442 -0.10847,-1.70656 -0.12435,-3.42371 -0.0767,-5.13291 -0.003,0.0344 -0.003,0.0688 -0.005,0.10318 0.0767,-2.55058 0.32544,-5.09323 0.81492,-7.59618 0.17727,-0.90753 0.4101,-1.79917 0.61648,-2.7014 0.1561,-0.68527 0.3175,-1.37054 0.52123,-2.04523 0.19314,-0.62442 0.42069,-1.24619 0.75671,-1.8071 0.10054,-0.15346 0.20902,-0.29634 0.33866,-0.42598 0.0556,-0.0476 0.11377,-0.09 0.17463,-0.127 0.0503,-0.0212 0.10319,-0.0397 0.1561,-0.0556 0.0635,-0.005 0.10848,-0.0106 0.15082,-0.0132 z m 0.41539,0.60589 c 0.005,0.0185 0.008,0.037 0.0132,0.0582 -0.005,-0.0212 -0.0106,-0.0397 -0.0132,-0.0582 z m 6.87123,15.26646 c -0.0132,0.0476 -0.0291,0.0952 -0.0423,0.14023 0.0132,-0.0476 0.0291,-0.0952 0.0423,-0.14023 z"
       id="path604" />
  </g>
</svg>
