<?xml version="1.0" encoding="UTF-8" standalone="no"?>
<svg
   xmlns:dc="http://purl.org/dc/elements/1.1/"
   xmlns:cc="http://creativecommons.org/ns#"
   xmlns:rdf="http://www.w3.org/1999/02/22-rdf-syntax-ns#"
   xmlns:svg="http://www.w3.org/2000/svg"
   xmlns="http://www.w3.org/2000/svg"
   id="svg708"
   version="1.1"
   viewBox="0 0 29.547158 27.552442"
   height="27.552439mm"
   width="29.547157mm">
  <defs
     id="defs702" />
  <metadata
     id="metadata705">
    <rdf:RDF>
      <cc:Work
         rdf:about="">
        <dc:format>image/svg+xml</dc:format>
        <dc:type
           rdf:resource="http://purl.org/dc/dcmitype/StillImage" />
        <dc:title></dc:title>
      </cc:Work>
    </rdf:RDF>
  </metadata>
  <g
     transform="translate(236.42361,-122.7041)"
     id="layer1">
    <path
       className="heart"
       style="fill:#ff0000;stroke-width:0.264583"
       d="m -211.95654,122.76259 c -1.38113,0.19844 -2.67229,0.81756 -3.82852,1.57956 -1.28588,0.84402 -2.41829,1.95527 -3.33111,3.19088 -0.97895,1.33085 -1.68275,2.84427 -2.0267,4.45823 -0.14817,0.68262 -0.20903,1.37848 -0.19315,2.07168 -0.75142,-0.7567 -1.56633,-1.45785 -2.41565,-2.10873 -1.75948,-1.34143 -3.76502,-2.51883 -5.95312,-2.97391 -0.48419,-0.10054 -0.97102,-0.12965 -1.46315,-0.13494 -0.50535,-0.005 -0.99748,0.09 -1.48431,0.2249 -0.96573,0.26723 -1.79123,0.92604 -2.40506,1.69333 -1.25148,1.57162 -1.64836,3.67506 -1.16946,5.60123 0.42862,1.73831 1.37583,3.28612 2.51354,4.65402 1.28058,1.5531 2.81517,2.8919 4.43706,4.07987 1.57957,1.15623 3.27555,2.17223 5.03767,3.01625 0.73554,0.3519 1.4949,0.66675 2.26483,0.92869 0.59532,0.20373 1.2065,0.38365 1.82827,0.49477 0.0741,0.18786 0.19315,0.35455 0.34925,0.47625 0.4789,0.38894 1.1774,0.29369 1.56634,-0.17727 0.47889,-0.57414 0.89694,-1.18798 1.33085,-1.79652 0.47361,-0.6641 0.9525,-1.32821 1.42611,-1.98967 0.92604,-1.29116 1.85473,-2.57175 2.74902,-3.87614 1.78858,-2.61408 3.46604,-5.34723 4.57729,-8.32644 0.47889,-1.27794 0.84931,-2.61673 1.08214,-3.95817 0.1614,-0.93397 0.23019,-1.89177 0.1614,-2.83368 -0.09,-1.33615 -0.56885,-2.71198 -1.66158,-3.556 -0.7329,-0.56621 -1.64836,-0.7964 -2.56117,-0.7964 -0.27781,-0.003 -0.55562,0.0185 -0.83079,0.0582 z m 0.83608,1.59279 c 0.25929,0.0132 0.51594,0.0503 0.76994,0.11642 0.1614,0.0556 0.3175,0.12171 0.46831,0.20373 0.13494,0.0873 0.26194,0.18785 0.381,0.29898 0.12965,0.14816 0.24606,0.30956 0.3519,0.47889 0.12171,0.24606 0.21696,0.49742 0.29369,0.75936 0.10318,0.48418 0.14287,0.97366 0.14287,1.46843 -0.0476,1.15359 -0.27781,2.29394 -0.58737,3.40255 -0.62971,2.1246 -1.58486,4.14337 -2.71992,6.04308 -1.20121,1.95262 -2.55852,3.80206 -3.93965,5.62769 -0.72231,0.95779 -1.44991,1.91029 -2.16164,2.87602 -0.51329,0.70114 -1.03188,1.41023 -1.48696,2.15635 -0.0159,-0.003 -0.0317,-0.005 -0.0476,-0.008 -0.35454,-0.0529 -0.70379,-0.13229 -1.05039,-0.22489 0.008,0.003 0.0159,0.005 0.0265,0.008 -0.0106,-0.003 -0.0212,-0.005 -0.0291,-0.008 -0.0661,-0.0185 -0.12964,-0.0344 -0.19579,-0.0529 0.045,0.0106 0.09,0.0238 0.13229,0.0344 -1.84944,-0.55563 -3.60362,-1.43669 -5.25727,-2.42623 0.0106,0.005 0.0185,0.0106 0.0291,0.0185 -0.0132,-0.008 -0.0291,-0.0185 -0.0423,-0.0265 -0.0106,-0.005 -0.0212,-0.0132 -0.0344,-0.0212 0.005,0.003 0.0106,0.005 0.0159,0.0106 -1.95792,-1.19857 -3.80471,-2.58763 -5.41867,-4.22275 -0.85195,-0.889 -1.62983,-1.85209 -2.25425,-2.921 -0.33602,-0.61648 -0.61118,-1.25677 -0.80168,-1.93675 -0.11642,-0.49213 -0.17463,-0.9869 -0.17198,-1.4949 0.0238,-0.39423 0.0847,-0.78052 0.18521,-1.16417 0.14023,-0.42597 0.32543,-0.83079 0.55298,-1.21972 0.17991,-0.26988 0.37835,-0.52388 0.60325,-0.75936 0.20372,-0.18256 0.41804,-0.34396 0.65087,-0.48683 0.24342,-0.127 0.49742,-0.2249 0.76465,-0.30163 0.33337,-0.0688 0.66939,-0.10054 1.00806,-0.10583 0.55827,0.0238 1.10596,0.127 1.64306,0.27517 1.04246,0.32543 2.01613,0.80698 2.9554,1.35995 -0.0318,-0.0185 -0.0635,-0.037 -0.0952,-0.0556 1.58221,0.96573 3.03212,2.14313 4.33387,3.45811 -0.0212,-0.0238 -0.045,-0.045 -0.0661,-0.0688 0.0344,0.0344 0.0661,0.0688 0.10054,0.10319 0.0132,0.0132 0.0265,0.0265 0.0397,0.0397 -0.0106,-0.0106 -0.0212,-0.0212 -0.0344,-0.0344 0.46831,0.48948 0.91546,0.99484 1.30969,1.54517 0.20373,0.2831 0.59002,0.38365 0.91281,0.25665 0.4154,-0.16669 0.56092,-0.6059 0.43392,-1.01071 -0.0556,-0.16669 -0.10319,-0.33602 -0.15082,-0.50536 -0.1561,-0.67998 -0.23283,-1.37054 -0.23018,-2.06904 0.0291,-0.762 0.1561,-1.51341 0.36512,-2.24366 0.24871,-0.77523 0.59002,-1.51342 1.00277,-2.21721 0.52388,-0.84138 1.14829,-1.61396 1.85209,-2.31246 0.66939,-0.63236 1.40229,-1.18798 2.19604,-1.65365 0.62441,-0.34925 1.28058,-0.63235 1.9685,-0.82285 0.42598,-0.10319 0.8546,-0.16404 1.28587,-0.16669 z m 1.64836,0.64558 c 0.0185,0.0159 0.0344,0.0344 0.0529,0.0503 -0.0185,-0.0159 -0.037,-0.0344 -0.0529,-0.0503 z m -4.77573,0.26723 c -0.0185,0.0106 -0.037,0.0238 -0.0582,0.0344 0.0185,-0.0132 0.037,-0.0238 0.0582,-0.0344 z m 5.40279,0.9869 c 0.008,0.0238 0.0132,0.0503 0.0212,0.0741 -0.008,-0.0265 -0.0132,-0.0503 -0.0212,-0.0741 z m -7.64381,0.66146 c -0.0238,0.0238 -0.0503,0.0503 -0.0741,0.0741 0.0238,-0.0265 0.0503,-0.0503 0.0741,-0.0741 z m -0.0847,0.082 c -0.0185,0.0185 -0.0397,0.037 -0.0582,0.0556 0.0185,-0.0185 0.0397,-0.037 0.0582,-0.0556 z m 7.86342,0.59002 c 0,0.0265 -0.003,0.0529 -0.003,0.0794 0,-0.0264 0,-0.0529 0.003,-0.0794 z m -0.005,0.10054 c 0,0.0503 0,0.0979 0,0.14817 0,-0.0529 0,-0.10054 0,-0.14817 z m -20.48933,3.08504 c 0.0212,0.005 0.045,0.0132 0.0661,0.0185 -0.0238,-0.005 -0.045,-0.0132 -0.0661,-0.0185 z m 19.88344,0.381 c -0.0159,0.0529 -0.0291,0.10584 -0.045,0.15611 0.0159,-0.0529 0.0317,-0.10584 0.045,-0.15611 z m -10.10444,0.37307 c -0.0159,0.0556 -0.0317,0.10847 -0.0503,0.16404 0.0159,-0.0556 0.0344,-0.11113 0.0503,-0.16404 z m -14.56531,0.62706 c -0.0159,0.0265 -0.0318,0.0529 -0.0503,0.0767 0.0159,-0.0265 0.0344,-0.0503 0.0503,-0.0767 z m -0.50536,1.09273 c -0.005,0.0212 -0.0106,0.0423 -0.0159,0.0635 0.005,-0.0212 0.0106,-0.0423 0.0159,-0.0635 z m -0.21695,1.33879 c 0,0.0423 -0.003,0.0847 -0.005,0.127 0.003,-0.0423 0.003,-0.0847 0.005,-0.127 z m 14.00175,12.96458 c 0.003,0 0.003,0 0.005,0 -0.0212,-0.008 -0.045,-0.0132 -0.0662,-0.0212 0.0212,0.008 0.0397,0.0159 0.0609,0.0212 z m -5.334,-2.45533 c 0.005,0.003 0.0106,0.005 0.0132,0.008 -0.0106,-0.005 -0.0212,-0.0132 -0.0317,-0.0185 0.008,0.003 0.0132,0.008 0.0185,0.0106 z m 3.98198,-9.54352 c -0.003,-0.003 -0.005,-0.005 -0.005,-0.008 -0.0106,-0.0132 -0.0238,-0.0238 -0.0344,-0.0344 0.0132,0.0132 0.0265,0.0291 0.0397,0.0423 z"
       id="path290" />
  </g>
</svg>
