<?xml version="1.0" encoding="UTF-8" standalone="no"?>
<svg
   xmlns:dc="http://purl.org/dc/elements/1.1/"
   xmlns:cc="http://creativecommons.org/ns#"
   xmlns:rdf="http://www.w3.org/1999/02/22-rdf-syntax-ns#"
   xmlns:svg="http://www.w3.org/2000/svg"
   xmlns="http://www.w3.org/2000/svg"
   id="svg708"
   version="1.1"
   viewBox="0 0 12.038791 35.335166"
   height="35.335163mm"
   width="12.038791mm">
  <defs
     id="defs702" />
  <metadata
     id="metadata705">
    <rdf:RDF>
      <cc:Work
         rdf:about="">
        <dc:format>image/svg+xml</dc:format>
        <dc:type
           rdf:resource="http://purl.org/dc/dcmitype/StillImage" />
        <dc:title></dc:title>
      </cc:Work>
    </rdf:RDF>
  </metadata>
  <g
     transform="translate(121.79296,-166.22427)"
     id="layer1">
    <path
       className="heart3"
       style="fill:#ff0000;stroke-width:0.264583"
       d="m -119.5451,166.55787 c -0.72232,0.44185 -1.1774,1.14564 -1.49755,1.91029 -0.38364,0.9181 -0.54239,1.93675 -0.64029,2.92364 -0.12964,1.2409 -0.127,2.49238 -0.082,3.73592 0.0556,1.47108 0.18521,2.94217 0.3519,4.40531 0.35983,3.1115 0.89429,6.20448 1.50548,9.2763 0.53181,2.68552 1.12712,5.35781 1.75948,8.02216 0.32014,1.35996 0.67204,2.71727 0.97895,4.08252 0.0688,0.29898 0.3519,0.51065 0.66146,0.45244 0.0476,-0.008 0.0926,-0.0238 0.13494,-0.045 0.14817,0.13229 0.33867,0.21961 0.54769,0.23548 0.25135,0.0185 0.50535,-0.0661 0.69321,-0.23283 0.1905,-0.17198 0.28045,-0.38894 0.31485,-0.635 0.17727,-1.3679 0.3466,-2.73579 0.55827,-4.09575 0.21431,-1.35996 0.46302,-2.71463 0.73819,-4.064 1.07156,-5.15144 2.45533,-10.23938 3.32846,-15.43315 0.16668,-1.00012 0.32014,-2.00554 0.39687,-3.01625 0.045,-0.57944 0.0741,-1.18269 -0.0291,-1.75683 -0.0741,-0.42334 -0.30163,-0.88636 -0.74613,-1.02129 -0.43921,-0.12965 -0.85989,0.0688 -1.16681,0.381 -0.47096,0.46831 -0.80433,1.06362 -1.12713,1.64306 -0.45243,0.82285 -0.85725,1.67217 -1.25147,2.52677 -0.36513,0.78846 -0.71703,1.58221 -1.05305,2.3839 -0.0609,-1.20121 -0.10848,-2.40507 -0.18256,-3.60363 -0.0926,-1.52135 -0.22225,-3.04535 -0.50535,-4.54025 -0.11907,-0.64294 -0.2884,-1.27529 -0.508,-1.89177 -0.17198,-0.47361 -0.40746,-0.94192 -0.74348,-1.32292 -0.31221,-0.35983 -0.73554,-0.59531 -1.20915,-0.64558 -0.28839,-0.0317 -0.59002,0.0318 -0.86519,0.14552 -0.12435,0.0476 -0.2487,0.11112 -0.36247,0.17992 z m 0.85989,0.92075 c 0.0609,-0.0185 0.12436,-0.0291 0.18786,-0.0397 0.0423,0 0.0847,0.003 0.127,0.008 0.0344,0.0106 0.0688,0.0238 0.10318,0.037 0.0476,0.0291 0.0952,0.0582 0.14023,0.0926 0.0926,0.0873 0.17198,0.18521 0.24606,0.2884 0.17992,0.29104 0.30957,0.60589 0.42598,0.92869 0.29105,0.91281 0.44715,1.86531 0.56886,2.80987 0.14287,1.11125 0.22489,2.23044 0.28839,3.34963 0,-0.0212 -0.003,-0.0423 -0.003,-0.0635 0.0688,1.25677 0.11377,2.51618 0.16404,3.77295 0.0238,0.51594 0.0476,1.02923 0.082,1.54517 0.0238,0.3519 0.0503,0.70379 0.11377,1.0504 0.0556,0.29633 0.31486,0.52387 0.61383,0.54504 0.31221,0.0238 0.57415,-0.16933 0.68792,-0.45244 0.762,-1.9341 1.56104,-3.86027 2.47386,-5.73087 -0.003,0.008 -0.008,0.0132 -0.0106,0.0212 0.005,-0.0132 0.0132,-0.0265 0.0185,-0.0397 0.005,-0.008 0.008,-0.0159 0.0132,-0.0238 -0.003,0.003 -0.003,0.008 -0.005,0.0106 0.27517,-0.55827 0.56356,-1.11125 0.87842,-1.651 0.10054,-0.17463 0.20637,-0.34661 0.3175,-0.51859 -0.0265,0.56621 -0.10319,1.13242 -0.17727,1.69069 -0.1905,1.46844 -0.46832,2.92629 -0.76465,4.37092 0.003,-0.0106 0.005,-0.0238 0.008,-0.037 -0.72231,3.4872 -1.66159,6.93208 -2.50825,10.39283 -0.43392,1.78064 -0.84931,3.56923 -1.20915,5.36575 -0.23283,1.17475 -0.44979,2.36008 -0.60325,3.55335 -0.23283,-0.95779 -0.46831,-1.91558 -0.69585,-2.87866 -0.64294,-2.74638 -1.24619,-5.50863 -1.77536,-8.28411 -0.73289,-3.82852 -1.3626,-7.70202 -1.59279,-11.59933 -0.10583,-1.93411 -0.13229,-3.92113 0.24606,-5.82877 -0.0106,0.0503 -0.0159,0.0979 -0.0265,0.14552 0.11641,-0.58473 0.2831,-1.15888 0.5371,-1.69598 0.11642,-0.21961 0.24871,-0.43127 0.40481,-0.62442 0.11377,-0.12435 0.23813,-0.24077 0.37836,-0.34131 0.10848,-0.0661 0.22489,-0.12435 0.3466,-0.16933 z m -1.88912,8.52223 c 0,0.0132 0.003,0.0291 0.003,0.0423 0,-0.0132 -0.003,-0.0265 -0.003,-0.0423 z m 5.44512,2.88925 c 0.005,0.0556 0.008,0.10583 0.008,0.15875 -0.003,-0.0529 -0.005,-0.10584 -0.008,-0.15875 z m 1.60602,13.66573 c -0.003,0.0159 -0.008,0.0344 -0.0106,0.0503 0.005,-0.0185 0.008,-0.0344 0.0106,-0.0503 z m 1.06363,-16.9545 c -0.003,0.005 -0.005,0.0132 -0.008,0.0185 0.005,-0.0106 0.0106,-0.0212 0.0159,-0.0318 -0.003,0.005 -0.005,0.008 -0.008,0.0132 z m -4.13015,-0.54505 c -0.003,-0.0344 -0.003,-0.0688 -0.005,-0.10054 0,0.0318 0.003,0.0662 0.005,0.10054 z"
       id="path496" />
  </g>
</svg>
