<?xml version="1.0" encoding="UTF-8" standalone="no"?>
<svg
   xmlns:dc="http://purl.org/dc/elements/1.1/"
   xmlns:cc="http://creativecommons.org/ns#"
   xmlns:rdf="http://www.w3.org/1999/02/22-rdf-syntax-ns#"
   xmlns:svg="http://www.w3.org/2000/svg"
   xmlns="http://www.w3.org/2000/svg"
   id="svg708"
   version="1.1"
   viewBox="0 0 25.217028 28.190999"
   height="28.190998mm"
   width="25.217028mm">
  <defs
     id="defs702" />
  <metadata
     id="metadata705">
    <rdf:RDF>
      <cc:Work
         rdf:about="">
        <dc:format>image/svg+xml</dc:format>
        <dc:type
           rdf:resource="http://purl.org/dc/dcmitype/StillImage" />
        <dc:title></dc:title>
      </cc:Work>
    </rdf:RDF>
  </metadata>
  <g
     transform="translate(57.828768,-251.23547)"
     id="layer1">
    <path
       className="heart2"
       style="fill:#ff0000;stroke-width:0.264583"
       d="m -38.315398,251.23548 c -0.354542,0 -0.73025,0.10319 -1.066271,0.1905 -0.246063,0.0608 -0.478896,0.14817 -0.711729,0.25135 -0.669396,0.30163 -1.275292,0.70644 -1.828271,1.1774 -1.232959,1.06098 -2.177521,2.33627 -2.992438,3.73592 -0.425979,0.73289 -0.767291,1.50283 -1.055687,2.29658 -0.243417,-0.24342 -0.494771,-0.4789 -0.754063,-0.70644 -0.576791,-0.508 -1.214437,-0.93927 -1.870604,-1.34408 -0.656167,-0.39952 -1.381125,-0.66146 -2.121958,-0.8599 -0.624417,-0.17198 -1.317625,-0.20902 -1.963209,-0.14816 -0.785812,0.0794 -1.508125,0.381 -2.164291,0.80433 -0.320146,0.19579 -0.595313,0.4789 -0.859896,0.74348 -0.251354,0.24606 -0.455083,0.53446 -0.650875,0.82285 -0.558271,0.84667 -0.926042,1.7489 -1.219729,2.71198 -0.1905,0.60854 -0.238125,1.25148 -0.251354,1.88384 -0.01852,0.68791 0.05027,1.3626 0.166687,2.03729 0.264583,1.52664 0.791104,3.00037 1.441979,4.39737 1.362604,2.91306 3.317875,5.63827 5.797021,7.70467 0.865188,0.72496 1.828271,1.34937 2.865438,1.80446 0.963083,0.41804 1.981729,0.63235 3.029479,0.61383 0.07408,-0.003 0.145521,-0.0132 0.216958,-0.0317 0.193146,0.0847 0.410104,0.11906 0.624417,0.10054 0.34925,-0.0317 0.619125,-0.20373 0.859896,-0.45508 1.23825,-1.28852 2.36802,-2.68023 3.466041,-4.0984 1.251479,-1.61925 2.405063,-3.31258 3.447521,-5.07206 1.04775,-1.75948 1.926167,-3.59569 2.54,-5.54567 0.576792,-1.8415 0.851958,-3.7412 0.73025,-5.66737 -0.06085,-0.96838 -0.293687,-1.93146 -0.576792,-2.85221 -0.264583,-0.87842 -0.674687,-1.73037 -1.195916,-2.47915 -0.227542,-0.33072 -0.515938,-0.61912 -0.804334,-0.89429 -0.264583,-0.26458 -0.600604,-0.44714 -0.912812,-0.63764 -0.306917,-0.18521 -0.661458,-0.26988 -1.000125,-0.37307 -0.336021,-0.10054 -0.714375,-0.10318 -1.063625,-0.10318 -0.04498,-0.008 -0.08467,-0.008 -0.121708,-0.008 z m 0.230187,3.683 c 0.05027,0.008 0.0979,0.0159 0.148167,0.0265 0.04762,0.0212 0.0926,0.0397 0.137583,0.0635 0.08731,0.0688 0.171979,0.13758 0.254,0.21431 0.156104,0.19579 0.298979,0.39952 0.428625,0.61648 0.304271,0.63235 0.529167,1.29117 0.701146,1.97115 0.156104,0.78052 0.22225,1.56368 0.216958,2.36272 -0.07937,1.16153 -0.304271,2.29659 -0.632354,3.41842 0.01852,-0.0609 0.03704,-0.11906 0.05821,-0.17727 -0.02117,0.0661 -0.04233,0.12965 -0.0635,0.19579 -0.02381,0.0794 -0.04762,0.1614 -0.07144,0.24077 0.02117,-0.0688 0.03969,-0.14023 0.06085,-0.20902 -0.806979,2.46592 -2.013479,4.75721 -3.384021,6.95061 -0.783166,1.22502 -1.600729,2.42887 -2.431521,3.6195 -0.695854,0.98689 -1.389062,1.96585 -2.039937,2.98185 -0.01058,0 -0.02381,0 -0.0344,0 -0.05027,0 -0.103187,0.003 -0.156104,0.003 -0.402167,-0.0291 -0.796396,-0.10584 -1.187979,-0.21961 -0.590021,-0.20637 -1.145646,-0.48683 -1.68275,-0.81491 -0.926042,-0.61648 -1.759479,-1.34673 -2.529417,-2.14842 -1.187979,-1.29911 -2.198687,-2.74108 -3.053292,-4.28096 -0.724958,-1.38112 -1.307041,-2.82575 -1.674812,-4.33917 -0.171979,-0.81756 -0.272521,-1.6457 -0.256646,-2.48179 0.0344,-0.43127 0.100542,-0.8546 0.214313,-1.27 0.1905,-0.53446 0.43127,-1.04775 0.719666,-1.53723 0.177271,-0.25664 0.373063,-0.49477 0.592667,-0.71966 0.166687,-0.14288 0.341312,-0.27252 0.526521,-0.38894 0.166687,-0.0794 0.333375,-0.14552 0.505354,-0.19844 0.179917,-0.0291 0.359833,-0.045 0.542396,-0.0529 0.28575,0.0265 0.563562,0.0794 0.841375,0.15611 0.425979,0.16139 0.830791,0.36512 1.222375,0.59531 0.648229,0.43656 1.232958,0.93663 1.780646,1.49225 0.645583,0.71702 1.209145,1.4949 1.68275,2.33363 0.01058,0.0238 0.02381,0.0476 0.0344,0.0714 0.111125,0.28311 0.275167,0.51594 0.502709,0.70644 0.34925,0.2884 0.796396,0.42863 1.246187,0.38629 0.306917,-0.0317 0.582084,-0.13493 0.833438,-0.31221 0.330729,-0.23812 0.642937,-0.66145 0.687916,-1.08479 0.06879,-0.74612 0.22225,-1.48431 0.433917,-2.20398 0.346604,-1.01335 0.806979,-1.98173 1.359958,-2.89454 0.484188,-0.73819 1.026584,-1.43139 1.648355,-2.05581 0.328083,-0.28575 0.672041,-0.54769 1.045104,-0.77523 0.177271,-0.0847 0.357187,-0.1561 0.545041,-0.21431 0.07673,-0.0159 0.153459,-0.0212 0.227542,-0.0265 z m 1.039813,1.03717 c 0.0291,0.0503 0.05556,0.10054 0.08467,0.15081 -0.0291,-0.0503 -0.05556,-0.10054 -0.08467,-0.15081 z m -14.562667,2.84427 c 0.04233,0.0132 0.08467,0.0291 0.127,0.0423 -0.04233,-0.0159 -0.08467,-0.0291 -0.127,-0.0423 z m -2.794,1.39171 c -0.01852,0.0264 -0.0344,0.0529 -0.05292,0.0794 0.01852,-0.0265 0.03704,-0.0529 0.05292,-0.0794 z m 11.482917,0.7276 c -0.02646,0.0847 -0.05556,0.16933 -0.08202,0.254 0.02646,-0.0847 0.05292,-0.16933 0.08202,-0.254 z m -12.361334,2.10344 c -0.0026,0.0582 -0.0053,0.11641 -0.01058,0.17462 0.0053,-0.0582 0.0079,-0.11641 0.01058,-0.17462 z m 4.831292,10.81616 c 0.05292,0.0529 0.103187,0.10584 0.150812,0.1614 -0.05027,-0.0529 -0.100541,-0.10583 -0.150812,-0.1614 z m 2.563812,2.24102 c 0.03969,0.0238 0.07673,0.0476 0.116417,0.0714 -0.03704,-0.0238 -0.07673,-0.0476 -0.116417,-0.0714 z m 0.145521,0.09 c 0.03175,0.0212 0.0635,0.0397 0.09525,0.0635 -0.03175,-0.0212 -0.0635,-0.0423 -0.09525,-0.0635 z m 2.934229,1.02659 c 0.03175,0 0.06615,0.003 0.0979,0.005 -0.03175,-0.003 -0.0635,-0.003 -0.0979,-0.005 z m 7.961313,-13.55725 c 0.0026,-0.0106 0.0079,-0.0212 0.01058,-0.0317 0.0026,-0.005 0.0026,-0.0106 0.0053,-0.0159 -0.0053,0.0132 -0.01058,0.0317 -0.01587,0.0476 z"
       id="path308" />
  </g>
</svg>
