<?xml version="1.0" encoding="UTF-8" standalone="no"?>
<svg
   xmlns:dc="http://purl.org/dc/elements/1.1/"
   xmlns:cc="http://creativecommons.org/ns#"
   xmlns:rdf="http://www.w3.org/1999/02/22-rdf-syntax-ns#"
   xmlns:svg="http://www.w3.org/2000/svg"
   xmlns="http://www.w3.org/2000/svg"
   id="svg708"
   version="1.1"
   viewBox="0 0 20.86521 32.080153"
   height="32.080151mm"
   width="20.86521mm">
  <defs
     id="defs702" />
  <metadata
     id="metadata705">
    <rdf:RDF>
      <cc:Work
         rdf:about="">
        <dc:format>image/svg+xml</dc:format>
        <dc:type
           rdf:resource="http://purl.org/dc/dcmitype/StillImage" />
        <dc:title></dc:title>
      </cc:Work>
    </rdf:RDF>
  </metadata>
  <g
     transform="translate(128.4483,-155.12906)"
     id="layer1">
    <g
       transform="matrix(0.26458333,0,0,0.26458333,-533.20903,-82.119947)"
       className="house"
       style="fill:#0000ff"
       id="g140">
      <path
         d="m 1606.83,945.67 c -0.87,-2.36 -1.76,-4.71 -2.73,-7.03 -2,-4.78 -4.28,-9.46 -6.67,-14.06 -2.44,-4.68 -5.04,-9.27 -7.74,-13.82 -1.29,-2.16 -2.6,-4.32 -3.94,-6.46 -1.39,-2.19 -2.74,-4.45 -4.3,-6.52 -0.44,-0.58 -1.13,-0.97 -1.85,-1.07 -0.38,-0.05 -0.85,-0.01 -1.28,0.12 -0.3,0.1 -0.58,0.24 -0.79,0.44 -1.07,1.03 -2.13,2.06 -3.12,3.17 -1.11,1.25 -2.17,2.54 -3.2,3.85 -1.91,2.45 -3.7,4.98 -5.6,7.44 -3.78,4.96 -7.79,9.72 -11.8,14.5 -4.03,4.82 -8.07,9.65 -11.89,14.64 -3.76,4.92 -7.25,10.02 -10.36,15.39 -0.29,0.49 -0.21,1.26 0,1.76 0.02,0.05 0.07,0.09 0.1,0.15 -0.37,1.12 -0.67,2.27 -0.91,3.41 -0.45,2.19 -0.66,4.42 -0.79,6.65 -0.32,5.32 -0.1,10.69 0.24,16.01 0.35,5.38 0.88,10.75 1.37,16.11 0.38,4.2 0.8,8.42 0.85,12.64 -0.01,0.8 -0.03,1.6 -0.09,2.41 -0.11,1.22 0.68,2.35 1.95,2.52 1.17,0.15 2.42,-0.71 2.52,-1.95 0.21,-2.58 0.08,-5.2 -0.08,-7.79 -0.21,-3.49 -0.55,-6.97 -0.88,-10.46 -0.73,-7.9 -1.49,-15.81 -1.55,-23.76 0.01,-4.38 0.19,-8.84 1.25,-13.1 0.35,-1.26 0.79,-2.49 1.41,-3.64 0.31,-0.51 0.67,-0.98 1.07,-1.42 0.3,-0.27 0.61,-0.51 0.94,-0.72 0.62,-0.31 1.26,-0.54 1.93,-0.74 3.46,-0.88 7.13,-0.96 10.69,-0.97 -0.02,0 -0.04,0 -0.06,0 7.29,0.03 14.55,0.74 21.82,1.31 4.71,0.37 9.42,0.47 14.12,0.68 2.91,0.12 5.81,0.27 8.72,0.46 2.02,0.13 4.06,0.26 6.09,0.49 -0.31,1.33 -0.56,2.67 -0.83,4 -0.51,2.56 -0.92,5.15 -1.29,7.73 -0.71,4.98 -1.16,9.99 -1.48,14.99 -0.32,5.02 -0.48,10.03 -0.52,15.06 -0.02,2.52 -0.01,5.06 0.06,7.58 0.08,2.62 0.28,5.2 0.9,7.75 0.07,0.47 0.24,0.89 0.54,1.26 0.43,0.56 1.06,0.93 1.76,1.01 1.47,0.2 2.78,-0.86 2.99,-2.3 0.52,-3.41 0.38,-6.86 0.29,-10.31 -0.08,-3.3 -0.16,-6.6 -0.19,-9.9 -0.01,-6.47 0.21,-12.95 0.83,-19.4 0.3,-3.15 0.7,-6.3 1.18,-9.43 0.25,-1.66 0.54,-3.32 0.84,-4.97 0.3,-1.58 0.66,-3.15 0.89,-4.73 0.2,-0.35 0.36,-0.73 0.39,-1.15 0.05,-0.64 0.04,-1.27 0.01,-1.9 -0.03,-0.79 -0.37,-1.69 -0.59,-2.43 -0.38,-1.19 -0.8,-2.35 -1.22,-3.5 z m -7.73,5.26 c -2.5,-0.16 -5.02,-0.28 -7.53,-0.37 -4.84,-0.18 -9.67,-0.31 -14.5,-0.51 -5.39,-0.22 -10.77,-0.78 -16.16,-1.07 -3.35,-0.19 -6.67,-0.28 -10.02,-0.26 -2.88,0.02 -5.77,0.15 -8.61,0.61 -0.38,0.06 -0.75,0.14 -1.13,0.21 4.6,-6.55 9.73,-12.72 14.9,-18.83 3.69,-4.37 7.41,-8.72 11.03,-13.16 1.79,-2.19 3.52,-4.45 5.25,-6.7 1.75,-2.31 3.56,-4.58 5.59,-6.67 0.16,-0.15 0.32,-0.3 0.49,-0.46 0.84,1.41 1.7,2.82 2.52,4.24 0,-0.01 -0.01,-0.01 -0.01,-0.02 4.29,7.43 8.35,14.99 11.95,22.77 1.87,4.01 3.58,8.09 5.19,12.21 0.78,2 1.52,4.02 2.19,6.06 0.22,0.68 0.44,1.37 0.66,2.06 -0.59,-0.02 -1.2,-0.07 -1.81,-0.11 z"
         id="path130" />
      <path
         d="m 1554.13,984.29 c 0.76,-0.01 1.49,-0.04 2.24,-0.16 0.74,-0.11 1.46,-0.33 2.16,-0.55 1.29,-0.39 2.54,-1.08 3.64,-1.85 1.14,-0.8 1.96,-1.97 2.66,-3.15 0.46,-0.79 0.87,-1.56 1.2,-2.43 0.28,-0.78 0.47,-1.63 0.59,-2.45 0.24,-1.58 -0.06,-3.12 -0.54,-4.61 -0.22,-0.69 -0.64,-1.4 -1.04,-2.01 -0.32,-0.49 -0.67,-0.94 -1.06,-1.37 -0.46,-0.49 -0.95,-0.97 -1.46,-1.4 -0.61,-0.52 -1.37,-0.89 -2.06,-1.29 -1.13,-0.64 -2.37,-1.11 -3.62,-1.5 -2.59,-0.83 -5.35,-1.33 -8.07,-1.17 -0.15,0.01 -0.29,0.04 -0.43,0.08 -0.58,0.18 -1.06,0.64 -1.35,1.19 -0.75,0.07 -1.32,0.66 -1.47,1.42 -0.68,3.29 -1.64,6.55 -1.85,9.91 -0.08,1.39 0.03,2.79 0.4,4.13 0.43,1.49 1.19,2.82 2.26,3.96 2.02,2.15 4.89,3.25 7.8,3.25 z m -7.01,-11.06 c 0.06,-2.78 0.72,-5.49 1.32,-8.2 1.09,0.5 2.22,0.92 3.33,1.39 1.36,0.57 2.7,1.19 3.99,1.91 1.05,0.67 2.07,1.41 2.98,2.26 0.26,0.3 0.51,0.62 0.73,0.95 0.09,0.19 0.17,0.38 0.24,0.57 0.05,0.26 0.09,0.53 0.11,0.8 -0.03,0.37 -0.08,0.73 -0.15,1.09 -0.26,0.81 -0.6,1.58 -1,2.34 -0.35,0.54 -0.75,1.05 -1.19,1.52 -0.31,0.27 -0.63,0.51 -0.98,0.73 -0.5,0.26 -1.02,0.48 -1.55,0.65 -0.54,0.12 -1.08,0.19 -1.63,0.23 -0.61,-0.03 -1.2,-0.11 -1.79,-0.24 -0.57,-0.2 -1.11,-0.43 -1.64,-0.7 -0.45,-0.29 -0.87,-0.6 -1.27,-0.95 -0.25,-0.29 -0.48,-0.58 -0.7,-0.91 -0.2,-0.39 -0.36,-0.79 -0.5,-1.21 -0.18,-0.74 -0.27,-1.48 -0.3,-2.23 z"
         id="path132" />
      <path
         d="m 1586.38,979.82 c 0.02,0 0.05,0 0.07,0 0.03,0 0.06,0 0.1,0 -0.06,0 -0.12,0 -0.17,0 z"
         id="path134" />
      <path
         d="m 1595.32,983 c 1.18,-0.76 1.89,-2.06 2.45,-3.3 0.28,-0.61 0.46,-1.24 0.63,-1.88 0.23,-0.84 0.43,-1.68 0.59,-2.54 0.29,-1.56 0.43,-3.14 0.43,-4.74 0.01,-0.81 0,-1.62 -0.08,-2.43 -0.07,-0.74 -0.25,-1.43 -0.44,-2.14 -0.39,-1.4 -1.3,-2.52 -2.45,-3.4 -0.61,-0.45 -1.31,-0.83 -2,-1.17 -0.6,-0.3 -1.26,-0.51 -1.92,-0.71 -1.73,-0.51 -3.5,-0.78 -5.29,-0.93 -1.84,-0.15 -3.68,-0.13 -5.52,-0.07 -0.86,0.03 -1.73,0.09 -2.59,0.17 -0.33,0.03 -0.67,0.07 -1,0.11 -0.41,0.05 -0.81,0.15 -1.22,0.18 -0.13,0.01 -0.26,0.03 -0.38,0.07 -0.75,0.24 -1.33,0.99 -1.43,1.75 -0.06,0.47 0.06,0.97 0.31,1.39 -0.57,2.97 -1.13,5.94 -1.23,8.97 -0.1,3.17 0.38,6.79 2.74,9.11 0.63,0.62 1.53,0.96 2.35,1.23 1.35,0.43 2.77,0.71 4.17,0.94 2.82,0.47 5.76,0.74 8.61,0.44 1.15,-0.1 2.29,-0.41 3.27,-1.05 z m -8.87,-3.18 c -0.07,0 -0.13,0 -0.2,0 0.04,0 0.08,0 0.12,0 -2.13,-0.02 -4.27,-0.2 -6.34,-0.72 -0.34,-0.11 -0.67,-0.22 -1,-0.37 -0.15,-0.11 -0.3,-0.24 -0.44,-0.37 -0.25,-0.28 -0.48,-0.56 -0.69,-0.88 -0.31,-0.58 -0.54,-1.18 -0.73,-1.82 -0.26,-1.13 -0.37,-2.27 -0.39,-3.42 0.02,-2.63 0.47,-5.2 0.94,-7.77 0.14,0.02 0.28,0.04 0.42,0.06 0.45,0.05 0.9,0.08 1.35,0.12 1.14,0.08 2.28,0.14 3.42,0.21 2.3,0.17 4.6,0.39 6.85,0.93 0.8,0.24 1.58,0.53 2.33,0.92 0.22,0.15 0.43,0.32 0.64,0.5 0.11,0.13 0.21,0.25 0.31,0.39 0.04,0.09 0.08,0.19 0.11,0.28 0.19,0.89 0.26,1.81 0.28,2.72 -0.03,2.09 -0.28,4.18 -0.78,6.22 -0.22,0.74 -0.46,1.47 -0.81,2.16 -0.02,0.03 -0.04,0.06 -0.07,0.09 -0.22,0.1 -0.45,0.18 -0.69,0.26 -1.49,0.35 -3.02,0.46 -4.54,0.49 0.09,0 0.18,0 0.28,0 -0.12,0.01 -0.25,0 -0.37,0 z"
         id="path136" />
      <path
         d="m 1579.3,993.91 c -0.71,-0.64 -1.62,-1.1 -2.5,-1.45 -1.13,-0.44 -2.35,-0.69 -3.54,-0.87 -1.73,-0.27 -3.48,-0.32 -5.22,-0.32 -1.48,0 -2.95,0.07 -4.41,0.36 -0.34,0.07 -0.67,0.16 -0.99,0.26 -0.79,0.25 -1.53,0.58 -2.25,1.04 -0.75,0.46 -1.4,1.19 -1.87,1.93 -0.54,0.85 -0.84,1.74 -1.08,2.73 -0.23,0.92 -0.28,1.88 -0.33,2.84 -0.06,1.13 -0.06,2.27 -0.09,3.41 -0.07,2.91 -0.33,5.78 -1.06,8.62 0.01,-0.03 0.02,-0.06 0.03,-0.08 -0.01,0.02 -0.01,0.05 -0.02,0.07 -0.13,0.44 -0.19,0.83 0,1.28 0.17,0.38 0.48,0.69 0.87,0.87 0.41,0.17 0.87,0.17 1.28,0 0.35,-0.15 0.76,-0.49 0.87,-0.87 0.4,-1.47 0.74,-2.92 0.95,-4.42 0.21,-1.45 0.31,-2.91 0.39,-4.36 0.1,-2.2 0.03,-4.46 0.53,-6.61 0.13,-0.39 0.28,-0.77 0.46,-1.13 0.13,-0.2 0.27,-0.39 0.43,-0.57 0.18,-0.16 0.37,-0.29 0.57,-0.42 0.4,-0.19 0.8,-0.35 1.23,-0.49 1.04,-0.25 2.1,-0.35 3.17,-0.38 2.39,0.01 4.85,0.23 7.17,0.81 0.62,0.19 1.22,0.43 1.79,0.73 0.22,0.15 0.42,0.3 0.62,0.47 0.18,0.21 0.35,0.42 0.5,0.65 0.21,0.42 0.38,0.86 0.52,1.31 0.37,1.51 0.52,3.06 0.67,4.61 0.24,2.32 0.51,4.62 0.92,6.9 0.24,1.28 1.37,2.21 2.69,2.04 1.27,-0.18 2.24,-1.41 2.04,-2.69 -0.44,-2.72 -0.7,-5.44 -1.02,-8.18 -0.22,-1.91 -0.5,-3.96 -1.42,-5.68 -0.51,-0.97 -1.12,-1.71 -1.9,-2.41 z"
         id="path138" />
    </g>
  </g>
</svg>
