<?xml version="1.0" encoding="UTF-8" standalone="no"?>
<svg
   xmlns:dc="http://purl.org/dc/elements/1.1/"
   xmlns:cc="http://creativecommons.org/ns#"
   xmlns:rdf="http://www.w3.org/1999/02/22-rdf-syntax-ns#"
   xmlns:svg="http://www.w3.org/2000/svg"
   xmlns="http://www.w3.org/2000/svg"
   id="svg708"
   version="1.1"
   viewBox="0 0 20.445349 37.85728"
   height="37.857277mm"
   width="20.445349mm">
  <defs
     id="defs702" />
  <metadata
     id="metadata705">
    <rdf:RDF>
      <cc:Work
         rdf:about="">
        <dc:format>image/svg+xml</dc:format>
        <dc:type
           rdf:resource="http://purl.org/dc/dcmitype/StillImage" />
        <dc:title></dc:title>
      </cc:Work>
    </rdf:RDF>
  </metadata>
  <g
     transform="translate(79.315999,-206.67291)"
     id="layer1">
    <g
       transform="matrix(0.26458333,0,0,0.26458333,-513.51141,28.130894)"
       className="icecream2"
       style="fill:#ffffff"
       id="g584">
      <circle
         cx="1669.51"
         cy="699.38"
         r="4.8800001"
         id="circle564" />
      <circle
         cx="1691.22"
         cy="697.14001"
         r="3.99"
         id="circle566" />
      <path
         d="m 1666.37,719.77 c -2.17,0.39 -3.64,2.51 -3.25,4.68 0.39,2.17 2.51,3.64 4.68,3.25 2.17,-0.39 3.64,-2.51 3.25,-4.68 -0.4,-2.16 -2.52,-3.63 -4.68,-3.25 z"
         id="path568" />
      <path
         d="m 1653.32,711.58 c -1.38,0.25 -2.31,1.59 -2.07,2.97 0.25,1.38 1.59,2.31 2.97,2.07 1.38,-0.25 2.31,-1.59 2.07,-2.97 -0.25,-1.38 -1.59,-2.32 -2.97,-2.07 z"
         id="path570" />
      <circle
         cx="1692.73"
         cy="715.84998"
         r="3.6099999"
         id="circle572" />
      <path
         d="m 1717.03,702.31 c -0.69,-2.87 -1.73,-5.64 -3.06,-8.26 -2.76,-5.43 -6.72,-10.24 -11.8,-13.65 -2.58,-1.73 -5.36,-3.11 -8.32,-4.04 -3.12,-0.98 -6.28,-1.48 -9.54,-1.55 -1.79,-0.04 -3.57,0.14 -5.32,0.45 -0.78,0.14 -1.56,0.31 -2.33,0.5 -2.45,0.61 -4.81,1.48 -7.08,2.6 -4.98,2.45 -9.35,5.84 -13.28,9.75 -3.91,3.87 -7.18,8.37 -9.82,13.21 -2.46,4.54 -4.27,9.5 -5.05,14.6 -0.72,4.66 -0.46,9.53 1.24,13.97 1.74,4.56 5.13,8.25 9.26,10.76 1.83,1.12 3.77,1.97 5.77,2.67 1.25,12.09 3.24,24.13 5.97,35.98 1.51,6.56 3.23,13.08 5.32,19.48 0.97,2.98 2.04,5.95 3.2,8.86 0.55,1.39 1.14,2.77 1.74,4.15 0.57,1.31 1.23,2.59 1.72,3.93 0.41,1.11 1.45,1.93 2.6,2.12 1.39,0.25 3.16,-0.51 3.66,-1.93 0.74,-2.1 1.34,-4.26 1.99,-6.39 -0.04,0.12 -0.07,0.25 -0.11,0.37 3.66,-11.82 7.77,-23.49 11.77,-35.2 2.1,-6.15 4.15,-12.34 6.02,-18.56 0.89,-2.95 1.72,-5.91 2.5,-8.89 0.39,-1.49 0.74,-2.99 1.09,-4.48 0.13,-0.56 0.24,-1.13 0.35,-1.69 1.12,-0.77 2.13,-1.7 3.09,-2.65 2.42,-2.39 4.26,-5.42 5.78,-8.44 1.43,-2.86 2.44,-5.93 3.12,-9.05 0.66,-3.06 0.86,-6.22 0.81,-9.34 -0.04,-3.18 -0.56,-6.24 -1.29,-9.28 z m -46.02,63.58 c 1.5,0.41 3.04,0.68 4.59,0.84 1.52,0.15 3.07,0.09 4.59,-0.02 3.07,-0.24 6.08,-1.18 8.85,-2.47 0.99,-0.46 1.94,-1 2.87,-1.57 -1.39,4.07 -2.78,8.15 -4.19,12.22 -0.31,0.89 -0.61,1.77 -0.92,2.66 -1.33,0.67 -2.71,1.25 -4.13,1.73 -1.6,0.48 -3.22,0.81 -4.89,0.93 -1.16,0.02 -2.3,-0.07 -3.44,-0.31 -0.84,-0.23 -1.65,-0.52 -2.44,-0.91 -0.93,-0.53 -1.77,-1.14 -2.58,-1.85 -0.11,-0.1 -0.24,-0.17 -0.39,-0.22 -0.97,-4.25 -1.84,-8.52 -2.61,-12.81 1.52,0.73 3.07,1.33 4.69,1.78 z m 7.15,38.01 c -0.12,0.4 -0.24,0.8 -0.36,1.2 -1.34,-3.07 -2.51,-6.22 -3.59,-9.39 -1.45,-4.24 -2.71,-8.53 -3.84,-12.85 0.9,0.44 1.84,0.8 2.83,1.04 2.31,0.57 4.67,0.56 7.02,0.2 1.62,-0.24 3.22,-0.72 4.78,-1.3 -1.29,3.78 -2.57,7.56 -3.8,11.36 -1.07,3.23 -2.07,6.48 -3.04,9.74 z m 19.39,-58.1 c -1.06,3.3 -2.14,6.59 -3.24,9.88 -0.1,0.31 -0.21,0.62 -0.32,0.93 -1.02,0.86 -2.07,1.69 -3.17,2.43 -1.92,1.23 -3.95,2.23 -6.1,2.99 -1.87,0.58 -3.78,0.95 -5.73,1.1 -2.05,0.07 -4.08,-0.11 -6.09,-0.53 -1.99,-0.5 -3.9,-1.22 -5.76,-2.13 -0.54,-0.28 -1.06,-0.61 -1.58,-0.92 -0.7,-4.33 -1.33,-8.68 -1.84,-13.04 0.88,0.57 1.81,1.08 2.79,1.46 1.37,0.54 2.82,0.9 4.29,0.95 0.92,0.04 1.8,0.05 2.71,-0.07 0.89,-0.12 1.78,-0.37 2.64,-0.63 1.43,-0.43 2.77,-1.2 4.03,-2 1.44,-0.91 2.7,-2.13 3.89,-3.35 1.05,-1.06 1.96,-2.26 2.8,-3.5 0.01,-0.02 0.03,-0.04 0.04,-0.06 1.39,1.29 2.93,2.41 4.69,3.25 1.31,0.64 2.8,1.04 4.25,1.19 0.78,0.08 1.57,0.08 2.35,0.04 -0.22,0.65 -0.44,1.33 -0.65,2.01 z m 14.5,-32.3 c -0.15,3.19 -0.66,6.31 -1.57,9.37 0.04,-0.13 0.08,-0.25 0.13,-0.38 -0.05,0.14 -0.09,0.28 -0.14,0.42 -0.04,0.12 -0.07,0.24 -0.11,0.36 0.03,-0.11 0.06,-0.22 0.1,-0.33 -0.82,2.46 -1.89,4.82 -3.24,7.05 -0.99,1.5 -2.1,2.89 -3.38,4.14 -0.35,0.31 -0.71,0.6 -1.08,0.87 -0.7,0.12 -1.29,0.53 -1.73,1.1 -0.59,0.28 -1.18,0.53 -1.81,0.72 -0.55,0.1 -1.09,0.15 -1.65,0.16 -0.53,-0.05 -1.05,-0.14 -1.57,-0.27 -0.59,-0.22 -1.17,-0.49 -1.73,-0.8 -0.82,-0.55 -1.57,-1.19 -2.28,-1.88 -1.01,-1.13 -1.9,-2.36 -2.68,-3.67 -0.68,-1.14 -2.27,-1.71 -3.53,-1.58 -0.71,0.07 -1.34,0.31 -1.9,0.72 -0.55,0.4 -0.97,0.91 -1.26,1.53 -0.51,0.87 -1,1.77 -1.51,2.64 -1.06,1.63 -2.26,3.14 -3.64,4.52 -0.86,0.76 -1.76,1.43 -2.75,2.02 -0.69,0.33 -1.4,0.61 -2.13,0.82 -0.63,0.11 -1.26,0.17 -1.9,0.18 -0.61,-0.06 -1.2,-0.16 -1.79,-0.31 -0.86,-0.31 -1.68,-0.71 -2.47,-1.16 -1.3,-0.86 -2.5,-1.83 -3.66,-2.86 -1.04,-0.91 -2.69,-0.9 -3.79,-0.11 -0.81,0.59 -1.23,1.49 -1.25,2.41 -1.29,-0.53 -2.54,-1.14 -3.74,-1.85 -1.43,-0.91 -2.76,-1.95 -3.95,-3.17 0.02,0.02 0.04,0.05 0.06,0.07 -0.02,-0.03 -0.05,-0.05 -0.07,-0.08 -0.09,-0.09 -0.18,-0.19 -0.27,-0.28 0.08,0.09 0.16,0.17 0.24,0.25 -0.98,-1.08 -1.83,-2.26 -2.56,-3.53 -0.77,-1.46 -1.34,-3 -1.73,-4.59 -0.39,-1.87 -0.55,-3.77 -0.52,-5.69 0,0.08 -0.01,0.16 -0.01,0.24 0,-0.11 0.01,-0.21 0.02,-0.32 0,-0.08 0,-0.16 0,-0.24 0,0.07 0,0.14 0,0.21 0.14,-2.75 0.65,-5.45 1.42,-8.08 1.17,-3.67 2.81,-7.16 4.8,-10.46 2.45,-3.91 5.34,-7.52 8.65,-10.73 2.92,-2.75 6.14,-5.13 9.63,-7.09 2.62,-1.37 5.36,-2.48 8.22,-3.19 2.1,-0.46 4.23,-0.68 6.38,-0.65 2.45,0.13 4.86,0.57 7.21,1.25 2.16,0.72 4.23,1.67 6.18,2.84 -0.08,-0.05 -0.15,-0.1 -0.23,-0.15 0.08,0.05 0.17,0.11 0.25,0.16 0.12,0.07 0.24,0.14 0.35,0.22 -0.11,-0.07 -0.22,-0.13 -0.33,-0.2 1.88,1.24 3.62,2.67 5.2,4.27 1.82,1.97 3.38,4.13 4.7,6.45 1.56,2.93 2.73,6.04 3.5,9.26 0.67,3.08 0.98,6.24 0.92,9.4 z"
         id="path574" />
      <path
         d="m 1645.19,720.24 c 0,0.02 0,0.05 0,0.08 0,-0.04 0,-0.07 0,-0.11 0,0.01 0,0.02 0,0.03 z"
         id="path576" />
      <path
         d="m 1650.03,734.16 c 0,0 0,0.01 0,0 0,-0.01 -0.02,-0.02 -0.03,-0.03 0.01,0.01 0.02,0.02 0.03,0.03 z"
         id="path578" />
      <path
         d="m 1697.71,684.11 c -0.01,0 -0.01,-0.01 -0.02,-0.01 0.02,0.01 0.03,0.02 0.05,0.03 -0.01,-0.01 -0.02,-0.02 -0.03,-0.02 z"
         id="path580" />
      <path
         d="m 1710.46,722.91 c 0,-0.01 0.01,-0.03 0.01,-0.04 -0.01,0.03 -0.02,0.05 -0.02,0.08 0.01,-0.02 0.01,-0.03 0.01,-0.04 z"
         id="path582" />
    </g>
  </g>
</svg>
