<?xml version="1.0" encoding="UTF-8" standalone="no"?>
<svg
   xmlns:dc="http://purl.org/dc/elements/1.1/"
   xmlns:cc="http://creativecommons.org/ns#"
   xmlns:rdf="http://www.w3.org/1999/02/22-rdf-syntax-ns#"
   xmlns:svg="http://www.w3.org/2000/svg"
   xmlns="http://www.w3.org/2000/svg"
   id="svg708"
   version="1.1"
   viewBox="0 0 20.179755 38.342903"
   height="38.342899mm"
   width="20.179754mm">
  <defs
     id="defs702" />
  <metadata
     id="metadata705">
    <rdf:RDF>
      <cc:Work
         rdf:about="">
        <dc:format>image/svg+xml</dc:format>
        <dc:type
           rdf:resource="http://purl.org/dc/dcmitype/StillImage" />
        <dc:title></dc:title>
      </cc:Work>
    </rdf:RDF>
  </metadata>
  <g
     transform="translate(61.292449,-192.79377)"
     id="layer1">
    <g
       transform="matrix(0.26458333,0,0,0.26458333,-330.74747,14.493842)"
       className="icecream"
       style="fill:#0000ff"
       id="g306">
      <path
         d="m 1044.89,702.89 c 1.07,0.13 2.1,-0.01 3.15,-0.24 1.25,-0.26 2.46,-0.85 3.58,-1.47 0.59,-0.35 1.11,-0.8 1.63,-1.24 0.5,-0.41 0.92,-0.97 1.27,-1.51 1.37,-2.04 1.69,-4.78 0.47,-6.97 -0.3,-0.55 -0.68,-1.01 -1.09,-1.48 -0.42,-0.49 -1.02,-0.85 -1.54,-1.19 -0.24,-0.16 -0.51,-0.28 -0.79,-0.39 -0.4,-0.16 -0.82,-0.28 -1.21,-0.4 -0.73,-0.24 -1.55,-0.24 -2.31,-0.3 -0.24,0.01 -0.46,0.05 -0.67,0.12 -1.9,0.21 -3.72,0.73 -5.27,1.88 -1.41,1.05 -2.32,2.58 -2.78,4.25 -0.41,1.48 -0.29,3.11 0.22,4.55 0.55,1.59 1.67,2.87 3.13,3.7 0.64,0.37 1.44,0.59 2.21,0.69 z m 2.15,-13.12 c 0.01,0 0.01,0 0.02,0 -0.03,0.01 -0.07,0.01 -0.1,0.02 0.03,-0.01 0.05,-0.02 0.08,-0.02 z m -3.16,9.43 c -0.25,-0.11 -0.49,-0.24 -0.72,-0.39 -0.25,-0.19 -0.48,-0.4 -0.69,-0.63 -0.19,-0.26 -0.36,-0.53 -0.51,-0.81 -0.19,-0.44 -0.31,-0.89 -0.42,-1.36 -0.05,-0.37 -0.06,-0.73 -0.05,-1.11 0.06,-0.53 0.18,-1.02 0.35,-1.51 0.18,-0.41 0.41,-0.78 0.66,-1.14 0.26,-0.32 0.53,-0.62 0.84,-0.91 0.43,-0.33 0.86,-0.6 1.33,-0.86 0.27,-0.12 0.54,-0.22 0.8,-0.31 -0.09,1.28 0.78,2.52 2.06,2.81 0.43,0.09 0.84,0.2 1.25,0.32 0.34,0.15 0.67,0.32 1,0.51 0.13,0.11 0.25,0.22 0.37,0.34 0.06,0.09 0.12,0.18 0.18,0.28 0.04,0.12 0.08,0.24 0.11,0.36 0.01,0.13 0.02,0.27 0.02,0.4 -0.04,0.24 -0.1,0.47 -0.17,0.7 -0.17,0.35 -0.36,0.68 -0.56,1 -0.34,0.39 -0.69,0.74 -1.07,1.09 -0.51,0.37 -1.03,0.7 -1.58,0.98 -0.36,0.15 -0.73,0.27 -1.12,0.37 -0.4,0.05 -0.8,0.08 -1.2,0.07 -0.29,-0.06 -0.58,-0.12 -0.88,-0.2 z"
         id="path294" />
      <path
         d="m 1065.33,701.77 c 0.25,0.92 0.77,1.69 1.37,2.39 0.53,0.65 1.32,1.13 2.06,1.46 1.12,0.51 2.3,0.65 3.51,0.71 1.24,0.05 2.48,-0.16 3.63,-0.59 1.28,-0.46 2.41,-1.25 3.36,-2.22 0.38,-0.38 0.68,-0.86 0.97,-1.31 0.34,-0.54 0.55,-1.2 0.74,-1.8 0.2,-0.58 0.23,-1.26 0.23,-1.88 0.01,-0.61 -0.14,-1.23 -0.32,-1.8 -0.39,-1.2 -1.27,-2.21 -2.31,-2.91 -0.36,-0.24 -0.74,-0.43 -1.14,-0.59 -0.95,-0.38 -1.99,-0.53 -3.03,-0.55 -1.08,-0.35 -2.21,-0.51 -3.36,-0.36 -1.67,0.24 -3.15,1.16 -4.2,2.45 -0.48,0.6 -0.88,1.28 -1.16,2.01 -0.36,0.87 -0.54,1.74 -0.62,2.67 -0.07,0.79 0.07,1.58 0.27,2.32 z m 3.55,-5.67 c 0.23,-0.29 0.47,-0.57 0.74,-0.82 0.31,-0.23 0.62,-0.43 0.96,-0.59 0.3,-0.12 0.6,-0.22 0.93,-0.29 0.27,-0.04 0.53,-0.05 0.8,-0.06 -0.12,0.54 -0.02,1.12 0.27,1.59 0.31,0.51 0.77,0.79 1.33,0.95 0.19,0.06 0.38,0.12 0.57,0.18 0.4,0.17 0.77,0.35 1.13,0.57 0.13,0.11 0.25,0.23 0.37,0.35 0.06,0.09 0.12,0.19 0.18,0.28 0.03,0.1 0.07,0.2 0.1,0.3 0.01,0.15 0.02,0.3 0.02,0.45 -0.04,0.22 -0.09,0.43 -0.15,0.65 -0.15,0.34 -0.32,0.66 -0.52,0.97 -0.21,0.27 -0.45,0.51 -0.69,0.74 -0.28,0.21 -0.57,0.39 -0.87,0.55 -0.46,0.18 -0.91,0.31 -1.38,0.41 -0.56,0.07 -1.12,0.1 -1.69,0.07 -0.32,-0.05 -0.63,-0.12 -0.94,-0.22 -0.26,-0.11 -0.51,-0.24 -0.75,-0.39 -0.19,-0.16 -0.36,-0.32 -0.52,-0.5 -0.15,-0.22 -0.29,-0.45 -0.41,-0.68 -0.12,-0.31 -0.21,-0.63 -0.28,-0.96 -0.05,-0.41 -0.07,-0.81 -0.05,-1.21 0.06,-0.46 0.15,-0.91 0.3,-1.35 0.16,-0.33 0.35,-0.66 0.55,-0.99 z"
         id="path296" />
      <path
         d="m 1052.93,718.66 c 0.02,-1.35 -0.46,-2.63 -1.08,-3.79 -0.29,-0.53 -0.72,-0.99 -1.13,-1.43 -0.4,-0.45 -0.97,-0.8 -1.48,-1.13 -0.22,-0.14 -0.46,-0.25 -0.7,-0.35 -0.37,-0.15 -0.77,-0.26 -1.14,-0.38 -0.82,-0.26 -1.75,-0.27 -2.6,-0.24 -0.84,0.03 -1.6,0.46 -2.09,1.12 -1.16,0.32 -2.25,0.85 -3.22,1.63 -1.49,1.21 -2.46,2.88 -2.93,4.72 -0.21,0.82 -0.25,1.72 -0.21,2.56 0.03,0.93 0.25,1.85 0.6,2.72 0.65,1.62 1.9,2.99 3.52,3.69 0.89,0.39 1.8,0.53 2.79,0.57 0.51,0.01 1.07,-0.09 1.56,-0.2 0.68,-0.13 1.32,-0.33 1.97,-0.59 2.41,-0.93 4.48,-2.85 5.44,-5.28 0.23,-0.59 0.41,-1.16 0.54,-1.78 0.12,-0.6 0.14,-1.23 0.16,-1.84 z m -6.16,3.52 c -0.28,0.33 -0.57,0.64 -0.89,0.93 -0.45,0.33 -0.93,0.62 -1.43,0.88 -0.43,0.17 -0.86,0.31 -1.32,0.42 -0.35,0.04 -0.68,0.06 -1.02,0.05 -0.19,-0.04 -0.37,-0.08 -0.55,-0.13 -0.2,-0.09 -0.39,-0.2 -0.58,-0.31 -0.19,-0.16 -0.37,-0.32 -0.53,-0.51 -0.19,-0.27 -0.37,-0.55 -0.53,-0.85 -0.17,-0.43 -0.3,-0.85 -0.4,-1.3 -0.05,-0.49 -0.06,-0.97 -0.05,-1.45 0.07,-0.62 0.21,-1.21 0.41,-1.79 0.2,-0.45 0.43,-0.87 0.71,-1.28 0.3,-0.37 0.62,-0.7 0.96,-1.01 0.3,-0.21 0.6,-0.4 0.92,-0.57 0.04,0.08 0.09,0.17 0.14,0.25 0.34,0.56 1.01,1.14 1.69,1.22 0.63,0.07 1.22,0.16 1.82,0.33 0.19,0.09 0.37,0.18 0.55,0.29 0.16,0.13 0.3,0.27 0.44,0.42 0.09,0.14 0.18,0.28 0.26,0.42 0.08,0.22 0.15,0.44 0.21,0.68 0.04,0.37 0.05,0.74 0.04,1.11 -0.07,0.36 -0.15,0.71 -0.26,1.07 -0.16,0.38 -0.35,0.76 -0.59,1.13 z"
         id="path298" />
      <path
         d="m 1066.38,722.14 c 1.27,-0.48 2.36,-1.24 3.32,-2.21 0.41,-0.42 0.74,-0.93 1.06,-1.42 0.32,-0.49 0.55,-1.07 0.74,-1.62 0.19,-0.57 0.29,-1.11 0.33,-1.72 0.05,-0.69 -0.05,-1.34 -0.22,-2.02 -0.06,-0.22 -0.14,-0.43 -0.25,-0.63 -0.12,-0.31 -0.26,-0.6 -0.43,-0.86 -0.29,-0.49 -0.7,-0.91 -1.13,-1.25 -0.51,-0.42 -1.01,-0.68 -1.59,-0.91 -0.07,-0.03 -0.15,-0.06 -0.22,-0.09 -0.79,-0.28 -1.6,-0.36 -2.43,-0.38 -0.48,-0.01 -0.94,0.17 -1.32,0.46 -1.15,-0.16 -2.32,-0.11 -3.45,0.32 -1.41,0.55 -2.5,1.72 -3.15,3.07 -0.63,1.3 -0.85,2.79 -0.67,4.23 0.17,1.57 0.83,3 1.91,4.12 0.6,0.61 1.38,1.03 2.19,1.31 0.77,0.26 1.58,0.32 2.4,0.29 0.99,-0.04 1.98,-0.33 2.91,-0.69 z m -2.37,-10.74 c 0.01,0 0.02,0 0.02,0 -0.01,0 -0.02,0 -0.02,0 -0.01,0 0,0 0,0 z m -0.98,8.09 c -0.31,0.03 -0.62,0.05 -0.92,0.04 -0.21,-0.03 -0.42,-0.08 -0.62,-0.15 -0.2,-0.1 -0.39,-0.21 -0.57,-0.33 -0.18,-0.15 -0.34,-0.31 -0.5,-0.49 -0.19,-0.26 -0.35,-0.53 -0.5,-0.81 -0.15,-0.38 -0.26,-0.76 -0.35,-1.15 -0.08,-0.54 -0.11,-1.07 -0.07,-1.61 0.05,-0.42 0.15,-0.83 0.29,-1.24 0.14,-0.31 0.29,-0.6 0.48,-0.89 0.19,-0.24 0.4,-0.46 0.63,-0.67 0.23,-0.17 0.47,-0.31 0.74,-0.46 0.34,-0.13 0.68,-0.23 1.04,-0.3 0.19,-0.02 0.38,-0.04 0.58,-0.04 -0.01,1.09 0.73,2.22 1.86,2.4 0.41,0.06 0.79,0.14 1.18,0.25 0.14,0.06 0.27,0.13 0.4,0.21 0.07,0.07 0.15,0.14 0.22,0.21 0.02,0.03 0.03,0.05 0.05,0.08 0.04,0.12 0.08,0.24 0.12,0.36 0.02,0.26 0.03,0.52 0.03,0.78 -0.06,0.34 -0.14,0.65 -0.24,0.98 -0.14,0.29 -0.29,0.56 -0.46,0.82 -0.22,0.27 -0.45,0.51 -0.69,0.75 -0.44,0.32 -0.9,0.59 -1.39,0.84 -0.45,0.18 -0.87,0.32 -1.31,0.42 z"
         id="path300" />
      <path
         d="m 1068.6,791.39 c 0,-0.02 0,-0.04 0.01,-0.06 -0.02,0.12 -0.03,0.25 -0.05,0.37 0.01,-0.1 0.03,-0.21 0.04,-0.31 z"
         id="path302" />
      <path
         d="m 1076.86,777.75 c 0.54,-13.9 -0.16,-27.88 1.58,-41.7 0.21,-1.48 0.44,-2.97 0.73,-4.44 0.27,-1.37 -0.18,-2.75 -1.24,-3.54 2.86,-0.28 5.77,-0.05 8.51,-1.13 3.88,-1.51 6.4,-4.9 7.6,-8.8 0.6,-1.96 0.71,-4.12 0.61,-6.14 -0.11,-2.14 -0.55,-4.28 -1.16,-6.32 -0.97,-3.22 -2.48,-6.33 -4.43,-9.1 0.17,-0.48 0.32,-0.97 0.46,-1.46 0.33,-1.27 0.48,-2.61 0.56,-3.92 0.11,-2.1 -0.28,-4.31 -1.03,-6.27 -1.53,-3.95 -4.47,-7.19 -8.26,-9.11 -0.49,-0.25 -0.99,-0.47 -1.5,-0.67 -3.45,-1.36 -7.25,-1.64 -10.89,-0.74 -2.21,0.54 -4.26,1.65 -6.06,3.03 -0.96,0.74 -1.81,1.6 -2.56,2.53 -1.45,-1.14 -2.99,-2.15 -4.66,-2.95 -2.45,-1.18 -5.08,-1.86 -7.8,-1.94 -4.77,-0.13 -9.37,2.15 -12.57,5.6 -3.4,3.67 -5.17,8.44 -5.68,13.36 -0.46,4.36 0.48,8.82 2.33,12.8 -1.45,0.34 -2.85,0.83 -4.21,1.52 -2.25,1.13 -4.04,2.9 -5.52,4.89 -1.38,1.87 -2.27,4.15 -2.77,6.4 -0.58,2.54 -0.61,5.14 -0.26,7.71 0.59,4.41 2.64,8.89 6.18,11.72 1.82,1.46 3.93,2.49 6.25,2.86 1.78,0.28 3.56,0.22 5.3,-0.11 1.11,1.86 2.06,3.8 3.04,5.71 1.07,2.08 2.02,4.2 2.92,6.36 4.07,10.11 6.59,20.72 9.26,31.28 2.73,10.87 5.76,21.7 10.76,31.8 1.21,2.43 5.14,2.43 6.38,0.04 6.23,-12.08 7.62,-25.91 8.13,-39.27 z m -20.44,-3.09 c 2.67,-0.51 5.33,-1.05 7.97,-1.75 1.86,-0.49 3.69,-1.08 5.5,-1.74 -0.11,4.26 -0.26,8.52 -0.57,12.77 -0.54,0.25 -1.08,0.5 -1.63,0.75 -2.61,1.1 -5.25,2.06 -7.92,2.97 -1.14,-4.34 -2.23,-8.68 -3.35,-13 z m -5.03,-16.84 c 1.68,0.22 3.37,0.36 5.08,0.33 2.21,-0.05 4.42,-0.39 6.57,-0.93 2.15,-0.54 4.22,-1.39 6.24,-2.34 0.35,-0.16 0.68,-0.37 1.02,-0.54 -0.16,4.52 -0.23,9.04 -0.33,13.57 -2.7,1.05 -5.46,1.94 -8.27,2.67 -1.99,0.5 -4,0.92 -6.02,1.31 -1.25,-4.74 -2.66,-9.44 -4.29,-14.07 z m -21.58,-21.52 c -0.06,-0.02 -0.11,-0.04 -0.17,-0.07 0.07,0.03 0.14,0.06 0.21,0.08 -0.01,0 -0.03,0 -0.04,-0.01 z m 10.39,0.2 c -0.63,-0.51 -1.46,-0.75 -2.23,-0.46 -1.11,0.41 -2.22,0.72 -3.38,0.91 -0.82,0.08 -1.63,0.08 -2.44,0 -0.72,-0.13 -1.42,-0.31 -2.11,-0.57 -0.7,-0.34 -1.35,-0.73 -1.98,-1.2 -0.63,-0.54 -1.19,-1.13 -1.72,-1.77 -0.66,-0.93 -1.22,-1.9 -1.68,-2.95 -0.5,-1.29 -0.85,-2.61 -1.07,-3.98 -0.17,-1.5 -0.17,-3.01 0,-4.51 0.19,-1.24 0.51,-2.43 0.96,-3.61 0.44,-0.95 0.95,-1.84 1.55,-2.68 0.59,-0.71 1.24,-1.36 1.95,-1.95 0.76,-0.55 1.57,-0.99 2.42,-1.38 1.06,-0.4 2.14,-0.68 3.24,-0.87 0.55,-0.07 1.11,-0.11 1.67,-0.14 1.82,-0.07 3.23,-2.11 2.17,-3.78 -0.72,-1.14 -1.35,-2.34 -1.9,-3.57 -0.61,-1.58 -1.06,-3.19 -1.35,-4.85 -0.22,-1.81 -0.22,-3.62 -0.03,-5.43 0.25,-1.6 0.65,-3.16 1.24,-4.67 0.57,-1.29 1.26,-2.5 2.09,-3.62 0.77,-0.93 1.61,-1.77 2.53,-2.54 0.87,-0.63 1.78,-1.16 2.77,-1.6 0.8,-0.28 1.6,-0.5 2.43,-0.65 0.98,-0.1 1.95,-0.11 2.92,-0.02 1.12,0.2 2.2,0.5 3.24,0.9 1.44,0.65 2.77,1.46 4.05,2.41 0.94,0.77 1.83,1.59 2.67,2.47 1.38,1.43 3.6,0.99 4.64,-0.57 0.17,-0.25 0.34,-0.5 0.51,-0.74 0.8,-0.96 1.7,-1.84 2.67,-2.62 0.77,-0.54 1.57,-1.01 2.43,-1.4 0.91,-0.34 1.83,-0.57 2.78,-0.73 0.92,-0.08 1.85,-0.08 2.77,0 1.08,0.18 2.12,0.47 3.13,0.86 0.91,0.43 1.77,0.94 2.58,1.53 0.68,0.57 1.3,1.19 1.86,1.87 0.5,0.7 0.92,1.43 1.29,2.2 0.31,0.82 0.54,1.66 0.69,2.53 0.09,0.98 0.08,1.95 -0.01,2.93 -0.24,1.37 -0.64,2.7 -1.17,3.99 -0.43,1.05 0.13,2.28 0.8,3.07 0.27,0.31 0.52,0.62 0.77,0.93 0.51,0.68 1.01,1.38 1.45,2.1 0.6,0.99 1.12,2.04 1.58,3.1 0.75,1.88 1.29,3.8 1.61,5.79 0.13,1.33 0.15,2.64 0.02,3.96 -0.16,0.89 -0.39,1.76 -0.71,2.61 -0.32,0.66 -0.69,1.27 -1.11,1.87 -0.36,0.41 -0.75,0.79 -1.16,1.16 -0.38,0.26 -0.77,0.48 -1.19,0.68 -0.68,0.23 -1.37,0.4 -2.07,0.53 -1.57,0.16 -3.15,0.16 -4.73,0.33 -0.97,0.1 -1.95,0.26 -2.89,0.58 -1.03,0.37 -1.89,0.88 -2.76,1.52 -1.65,1.25 -3.12,2.63 -4.39,4.26 -1.02,1.32 -1.95,2.7 -2.95,4.04 -0.69,0.85 -1.43,1.63 -2.26,2.34 -0.68,0.47 -1.4,0.88 -2.14,1.23 -1.47,0.57 -2.99,0.93 -4.55,1.19 -3.26,0.39 -6.47,0.29 -9.72,-0.07 -1.93,-0.24 -3.86,-0.58 -5.78,-0.96 z m 6.43,9.57 c -0.34,-0.72 -0.7,-1.43 -1.07,-2.14 1.62,0.16 3.25,0.26 4.88,0.28 2.02,0.02 4.01,-0.19 6,-0.47 1.84,-0.26 3.65,-0.72 5.39,-1.4 2.58,-1.03 4.82,-2.57 6.59,-4.73 1.45,-1.77 2.62,-3.76 3.98,-5.6 0,0 0,-0.01 0.01,-0.01 -1.13,6.36 -1.65,12.77 -1.95,19.21 -1.22,0.69 -2.48,1.32 -3.77,1.89 -2.35,0.97 -4.76,1.69 -7.27,2.08 -2.42,0.31 -4.83,0.32 -7.25,0.06 -0.58,-0.08 -1.16,-0.17 -1.74,-0.26 0,0 0,-0.01 0,-0.01 -1.13,-3.03 -2.4,-6.01 -3.8,-8.9 z m 14.3,45.74 c 2.68,-0.9 5.33,-1.9 7.92,-3.02 -0.09,0.85 -0.14,1.7 -0.25,2.54 0.01,-0.06 0.02,-0.11 0.02,-0.17 -0.01,0.07 -0.02,0.15 -0.03,0.22 -0.03,0.25 -0.06,0.5 -0.09,0.74 0.01,-0.14 0.03,-0.29 0.05,-0.43 -0.67,4.78 -1.63,9.52 -3.12,14.1 -1.75,-4.56 -3.18,-9.25 -4.5,-13.98 z m 5.42,16.32 c -0.01,-0.01 -0.01,-0.03 -0.02,-0.04 0.01,0.03 0.02,0.05 0.03,0.08 0,-0.02 0,-0.03 -0.01,-0.04 z"
         id="path304" />
    </g>
  </g>
</svg>
