<?xml version="1.0" encoding="UTF-8" standalone="no"?>
<svg
   xmlns:dc="http://purl.org/dc/elements/1.1/"
   xmlns:cc="http://creativecommons.org/ns#"
   xmlns:rdf="http://www.w3.org/1999/02/22-rdf-syntax-ns#"
   xmlns:svg="http://www.w3.org/2000/svg"
   xmlns="http://www.w3.org/2000/svg"
   id="svg708"
   version="1.1"
   viewBox="0 0 40.912068 55.051854"
   height="55.051853mm"
   width="40.912067mm">
  <defs
     id="defs702" />
  <metadata
     id="metadata705">
    <rdf:RDF>
      <cc:Work
         rdf:about="">
        <dc:format>image/svg+xml</dc:format>
        <dc:type
           rdf:resource="http://purl.org/dc/dcmitype/StillImage" />
        <dc:title></dc:title>
      </cc:Work>
    </rdf:RDF>
  </metadata>
  <g
     transform="translate(232.94063,26.109732)"
     id="layer1">
    <g
       transform="matrix(0.26458333,0,0,0.26458333,-622.58766,-72.52294)"
       className="kite"
       style="fill:#ff0000"
       id="g612">
      <path
         d="m 1579.01,368.01 c 0.09,0.04 0.17,0.07 0.26,0.11 -0.03,-0.01 -0.06,-0.03 -0.1,-0.04 -0.05,-0.03 -0.1,-0.05 -0.16,-0.07 z"
         id="path606" />
      <path
         d="m 1540.07,288.66 c -0.01,0.04 -0.01,0.09 -0.02,0.13 0,-0.01 0,-0.02 0,-0.02 0.01,-0.04 0.02,-0.08 0.02,-0.11 z"
         id="path608" />
      <path
         d="m 1626.41,382.87 c 0.1,-1.16 0.43,-2.17 0.9,-3.05 -3.25,-0.82 -6.51,-1.58 -9.78,-2.29 -7.12,-1.54 -14.29,-2.9 -21.4,-4.53 -3.15,-0.72 -6.29,-1.47 -9.39,-2.37 -2.52,-0.72 -5.03,-1.52 -7.47,-2.51 0.03,0.01 0.07,0.03 0.1,0.05 -0.07,-0.03 -0.13,-0.06 -0.2,-0.09 -0.13,-0.05 -0.25,-0.1 -0.37,-0.15 0.07,0.03 0.14,0.06 0.21,0.08 -3.72,-1.61 -7.23,-3.77 -10.46,-6.21 -3.91,-3.05 -7.38,-6.59 -10.44,-10.49 -3.45,-4.51 -6.37,-9.4 -8.96,-14.46 -1.33,-2.6 -2.6,-5.24 -3.84,-7.89 -0.75,-1.62 -1.47,-3.26 -2.27,-4.87 0.16,-0.05 0.32,-0.11 0.47,-0.2 0.55,-0.32 0.95,-0.85 1.11,-1.46 0.19,-0.68 0.04,-1.25 -0.24,-1.87 -0.16,-0.34 -0.31,-0.68 -0.46,-1.02 -1.94,-4.65 -3.26,-9.53 -3.95,-14.53 -0.64,-5.39 -0.59,-10.83 0.08,-16.23 -0.01,0.08 -0.02,0.16 -0.03,0.24 0.01,-0.09 0.02,-0.17 0.04,-0.26 0.02,-0.15 0.04,-0.31 0.06,-0.46 -0.01,0.12 -0.03,0.23 -0.04,0.35 0.79,-5.65 2.12,-11.22 3.84,-16.65 1.69,-5.29 3.71,-10.46 5.86,-15.59 1.01,-2.39 2.05,-4.77 3.07,-7.16 1.07,-2.49 2.27,-5 2.98,-7.63 0.25,-0.92 -0.05,-1.87 -0.67,-2.52 0.06,-0.13 0.11,-0.26 0.15,-0.4 0.18,-0.64 0.09,-1.34 -0.25,-1.92 -0.3,-0.51 -0.88,-1.04 -1.49,-1.15 -3.64,-0.59 -7.16,-1.71 -10.57,-3.11 -7.1,-3.05 -13.63,-7.29 -19.76,-11.97 -0.04,-0.03 -0.08,-0.07 -0.13,-0.1 0.04,0.03 0.08,0.06 0.11,0.09 -0.13,-0.1 -0.27,-0.2 -0.4,-0.31 0.09,0.07 0.19,0.14 0.28,0.21 -6.97,-5.43 -13.46,-11.52 -19.49,-17.97 -5.68,-6.05 -11.02,-12.38 -16.1,-18.95 0.17,0.22 0.33,0.44 0.51,0.66 -0.98,-1.28 -1.95,-2.55 -2.94,-3.83 -0.88,-1.14 -1.74,-2.29 -2.71,-3.35 -0.04,-0.06 -0.08,-0.12 -0.12,-0.18 -0.59,-0.87 -1.52,-1.4 -2.5,-1.4 -0.46,0 -0.94,0.12 -1.39,0.38 -0.69,0.4 -1.18,1.14 -1.35,1.93 -1.19,0.36 -1.86,1.62 -1.55,2.81 1.65,6.49 2.91,13.08 3.81,19.71 1.91,14.62 2.17,29.49 0.23,44.12 -0.74,5.23 -1.7,10.45 -2.92,15.59 -0.63,2.64 -1.29,5.27 -1.99,7.9 -0.69,2.59 -1.34,5.18 -1.82,7.83 -0.15,0.9 -0.15,1.72 0.33,2.53 0.3,0.5 0.73,0.91 1.23,1.2 0.42,0.95 1.25,1.68 2.29,2.01 1.88,0.58 3.87,0.87 5.8,1.26 1.77,0.35 3.54,0.72 5.3,1.13 3.33,0.79 6.57,1.82 9.75,3.12 2.61,1.12 5.17,2.34 7.62,3.77 2.56,1.51 5,3.2 7.37,5 5.69,4.47 10.76,9.67 15.21,15.37 4.04,5.29 7.66,10.96 10.59,16.93 0.33,0.66 0.96,1.05 1.65,1.2 0.64,1.6 1.28,3.19 1.98,4.76 1.7,3.84 3.57,7.6 5.69,11.23 4.26,7.28 9.56,14.13 16.23,19.35 2.25,1.76 4.58,3.39 7.06,4.8 1.88,1.07 3.81,2.02 5.81,2.85 2.52,1.06 5.13,1.9 7.77,2.62 6.47,1.76 13.08,2.98 19.68,4.21 7.41,1.4 14.83,2.72 22.18,4.44 0.03,0.01 0.06,0.01 0.08,0.02 0.01,-0.2 0,-0.41 0.02,-0.62 z M 1489.44,196.25 c 8.94,10.44 18.96,19.99 29.96,28.24 5.18,3.89 10.63,7.5 16.44,10.37 4.73,2.34 9.68,4.28 14.86,5.3 -0.11,0.16 -0.21,0.34 -0.31,0.5 -1.26,-0.31 -2.54,-0.45 -3.84,-0.45 -1.49,0 -2.98,0.17 -4.43,0.42 -3.54,0.61 -6.97,1.7 -10.31,3 -4.57,1.76 -9.02,3.84 -13.4,6.04 -1.05,0.53 -2.08,1.08 -3.12,1.62 -8.37,-19.17 -17.57,-37.96 -27.11,-56.57 0.42,0.52 0.83,1.03 1.26,1.53 z m -7.66,74.58 c 0.65,-2.13 1.2,-4.29 1.64,-6.48 0.85,-4.12 1.49,-8.28 1.95,-12.46 0.89,-8.16 1.13,-16.38 0.99,-24.58 -0.23,-13.6 -1.81,-27.21 -4.71,-40.51 10.92,21.09 21.41,42.41 30.64,64.3 -0.04,-0.1 -0.09,-0.21 -0.14,-0.32 0.25,0.59 0.48,1.18 0.72,1.77 -2.36,1.25 -4.71,2.52 -7.04,3.82 -1.79,0.99 -3.57,2 -5.36,2.98 -1.94,1.07 -3.89,2.1 -5.79,3.21 -2.96,1.72 -5.84,3.57 -8.7,5.45 -1.4,0.94 -2.8,1.88 -4.2,2.82 z m 49.96,35.73 c -4.19,-5.84 -8.96,-11.3 -14.44,-15.96 -2.78,-2.37 -5.73,-4.57 -8.8,-6.55 -2.95,-1.88 -5.99,-3.62 -9.21,-4.99 -3.44,-1.46 -6.97,-2.83 -10.63,-3.66 -1.82,-0.41 -3.68,-0.74 -5.56,-0.92 0.13,-0.08 0.26,-0.15 0.4,-0.23 1.4,-0.84 2.78,-1.71 4.15,-2.6 2.75,-1.8 5.47,-3.65 8.26,-5.39 1.91,-1.2 3.87,-2.32 5.81,-3.48 1.58,-0.93 3.14,-1.88 4.73,-2.81 2.54,-1.5 5.1,-2.99 7.67,-4.44 1.84,4.5 3.64,9.02 5.39,13.56 2.3,6 4.49,12.05 6.52,18.14 2.03,6.08 3.93,12.2 5.75,18.35 0.17,0.59 0.34,1.18 0.51,1.76 -0.19,-0.25 -0.36,-0.52 -0.55,-0.78 z m 4.16,-26.43 c -1.31,6.95 -1.95,14.13 -1.37,21.2 -1.4,-4.39 -2.91,-8.75 -4.47,-13.09 -2.04,-5.67 -4.19,-11.29 -6.4,-16.9 -2.2,-5.61 -4.53,-11.16 -6.91,-16.69 -0.07,-0.16 -0.14,-0.31 -0.21,-0.47 4.57,-2.51 9.22,-4.87 14.04,-6.9 -0.01,0 -0.02,0.01 -0.02,0.01 4.25,-1.77 8.66,-3.35 13.24,-4.01 1.57,-0.19 3.15,-0.26 4.71,-0.09 0.14,0.02 0.27,0.06 0.4,0.09 -0.2,0.4 -0.41,0.79 -0.61,1.18 -0.76,1.55 -1.49,3.11 -2.2,4.68 -1.53,3.43 -2.99,6.91 -4.3,10.43 -2.48,6.68 -4.58,13.55 -5.9,20.56 z"
         id="path610" />
    </g>
  </g>
</svg>
