<?xml version="1.0" encoding="UTF-8" standalone="no"?>
<svg
   xmlns:dc="http://purl.org/dc/elements/1.1/"
   xmlns:cc="http://creativecommons.org/ns#"
   xmlns:rdf="http://www.w3.org/1999/02/22-rdf-syntax-ns#"
   xmlns:svg="http://www.w3.org/2000/svg"
   xmlns="http://www.w3.org/2000/svg"
   id="svg708"
   version="1.1"
   viewBox="0 0 34.31527 32.501485"
   height="32.501484mm"
   width="34.315269mm">
  <defs
     id="defs702" />
  <metadata
     id="metadata705">
    <rdf:RDF>
      <cc:Work
         rdf:about="">
        <dc:format>image/svg+xml</dc:format>
        <dc:type
           rdf:resource="http://purl.org/dc/dcmitype/StillImage" />
        <dc:title></dc:title>
      </cc:Work>
    </rdf:RDF>
  </metadata>
  <g
     transform="translate(95.740236,-207.44349)"
     id="layer1">
    <g
       transform="matrix(0.26458333,0,0,0.26458333,-255.09782,87.010108)"
       className="laptop"
       style="fill:#0000ff"
       id="g110">
      <path
         d="m 637.31,474.01 c 0,0.04 0.01,0.07 0.01,0.1 -0.01,-0.11 -0.01,-0.22 -0.02,-0.33 0,0.08 0.01,0.16 0.01,0.23 z"
         id="path82" />
      <path
         d="m 660.42,481.47 c 3.36,-0.37 6.54,-1.59 9.9,-1.91 3.94,-0.14 7.81,0.87 11.68,1.46 4.12,0.63 8.58,0.77 12.45,-1.01 1,-0.46 1.37,-1.77 0.87,-2.71 -0.23,-0.47 -0.64,-0.83 -1.15,-1 -0.56,-0.18 -1.03,-0.08 -1.56,0.11 -0.05,0.02 -0.1,0.04 -0.16,0.06 -0.9,0.27 -1.8,0.44 -2.73,0.54 -2.67,0.1 -5.28,-0.34 -7.9,-0.82 -2.87,-0.53 -5.74,-1.17 -8.65,-1.44 -2.5,-0.23 -4.94,0.1 -7.36,0.68 -2.46,0.58 -4.86,1.28 -7.38,1.5 -1.02,0.02 -2.02,-0.03 -3.03,-0.2 -0.98,-0.23 -1.91,-0.55 -2.83,-0.95 -0.36,-0.19 -0.72,-0.38 -1.07,-0.58 -1.11,-0.64 -2.52,-0.44 -3.25,0.67 -0.68,1.02 -0.44,2.61 0.67,3.25 1.81,1.04 3.68,1.83 5.74,2.22 1.93,0.39 3.82,0.35 5.76,0.13 z"
         id="path84" />
      <path
         d="m 656.46,497.02 c 1.83,0.8 3.89,0.83 5.82,0.55 1.99,-0.29 3.9,-1.09 5.72,-1.87 1.85,-0.79 3.66,-1.69 5.55,-2.37 0.96,-0.31 1.92,-0.55 2.93,-0.66 2.99,-0.16 6,0.26 8.96,0.64 3.54,0.45 7.07,0.95 10.64,0.93 0.56,0 1.07,-0.14 1.5,-0.53 0.39,-0.35 0.64,-0.86 0.66,-1.38 0.06,-0.88 -0.53,-1.81 -1.38,-2.09 -0.17,-0.06 -0.34,-0.09 -0.53,-0.09 -3.22,0 -6.43,-0.4 -9.63,-0.72 -3.06,-0.31 -6.17,-0.68 -9.25,-0.54 -1.18,0.06 -2.32,0.26 -3.45,0.58 -1.14,0.33 -2.25,0.79 -3.32,1.25 -2.24,0.97 -4.37,2.13 -6.64,2.99 -1.05,0.34 -2.11,0.61 -3.2,0.73 -0.68,0.03 -1.34,0 -2.01,-0.1 -0.58,-0.14 -1.14,-0.33 -1.68,-0.57 -0.63,-0.34 -1.21,-0.72 -1.77,-1.17 -0.65,-0.58 -1.24,-1.19 -1.79,-1.86 -0.57,-0.67 -1.66,-0.69 -2.29,-0.12 -0.68,0.61 -0.7,1.62 -0.13,2.29 0.79,0.95 1.65,1.8 2.61,2.57 0.81,0.64 1.73,1.13 2.68,1.54 z"
         id="path86" />
      <path
         d="m 686.59,503.81 c -1.02,-0.27 -1.98,-0.7 -2.93,-1.14 -1.16,-0.54 -2.3,-1.12 -3.47,-1.65 -0.98,-0.43 -1.99,-0.77 -3.07,-0.87 -0.49,-0.05 -1.02,0.06 -1.51,0.13 -0.49,0.07 -0.96,0.21 -1.43,0.36 -1.93,0.62 -3.66,1.61 -5.39,2.65 -1.52,0.94 -3.05,1.88 -4.72,2.53 -0.56,0.17 -1.12,0.29 -1.7,0.36 -0.38,0 -0.76,-0.02 -1.15,-0.08 -0.44,-0.11 -0.87,-0.26 -1.3,-0.44 -0.69,-0.38 -1.33,-0.83 -1.95,-1.33 -0.17,-0.16 -0.34,-0.32 -0.5,-0.48 -0.48,-0.46 -1,-0.77 -1.69,-0.82 -0.67,-0.05 -1.34,0.19 -1.83,0.64 -0.96,0.86 -1.17,2.58 -0.2,3.52 1.72,1.64 3.65,3.09 5.98,3.7 1.9,0.5 3.89,0.37 5.75,-0.23 1.82,-0.6 3.46,-1.51 5.09,-2.49 1.47,-0.87 2.96,-1.76 4.56,-2.39 0.53,-0.17 1.06,-0.29 1.61,-0.37 0.05,0 0.09,0.01 0.14,0.01 1.23,0.35 2.38,0.93 3.53,1.48 1.35,0.64 2.72,1.3 4.15,1.72 1.74,0.52 3.57,0.38 5.35,0.15 2.15,-0.29 4.23,-0.92 6.38,-1.19 0.96,-0.12 1.68,-1.09 1.73,-2 0.07,-0.97 -0.58,-1.94 -1.48,-2.24 -0.17,-0.06 -0.36,-0.09 -0.55,-0.1 -2.47,-0.05 -4.88,0.39 -7.33,0.61 -0.69,0.05 -1.38,0.05 -2.07,-0.04 z"
         id="path88" />
      <path
         d="m 646.61,538.37 c 1.46,0.48 3.06,-0.31 3.56,-1.76 0.49,-1.44 -0.31,-3.08 -1.76,-3.56 -1.46,-0.48 -3.06,0.31 -3.56,1.76 -0.49,1.44 0.31,3.07 1.76,3.56 z"
         id="path90" />
      <path
         d="m 659.23,536.52 c 0.97,0.32 2.07,-0.2 2.39,-1.18 0.32,-0.98 -0.2,-2.07 -1.18,-2.39 -0.97,-0.32 -2.07,0.2 -2.39,1.18 -0.32,0.98 0.2,2.06 1.18,2.39 z"
         id="path92" />
      <path
         d="m 673.08,537.79 c 1.32,0.44 2.79,-0.28 3.23,-1.6 0.45,-1.32 -0.28,-2.79 -1.6,-3.23 -1.32,-0.44 -2.79,0.28 -3.23,1.6 -0.45,1.31 0.28,2.79 1.6,3.23 z"
         id="path94" />
      <path
         d="m 686.81,538.1 c 1.42,0.47 2.99,-0.31 3.48,-1.72 0.49,-1.41 -0.3,-3.01 -1.72,-3.48 -1.42,-0.47 -2.99,0.31 -3.48,1.72 -0.49,1.42 0.3,3.01 1.72,3.48 z"
         id="path96" />
      <path
         d="m 701.23,536.68 c 1.68,0.56 3.54,-0.36 4.12,-2.04 0.56,-1.68 -0.36,-3.56 -2.04,-4.12 -1.68,-0.56 -3.54,0.36 -4.12,2.04 -0.56,1.68 0.36,3.56 2.04,4.12 z"
         id="path98" />
      <path
         d="m 634.96,548.88 c 1.1,0.36 2.31,-0.23 2.69,-1.33 0.36,-1.1 -0.24,-2.33 -1.33,-2.69 -1.1,-0.36 -2.31,0.23 -2.69,1.33 -0.36,1.1 0.24,2.33 1.33,2.69 z"
         id="path100" />
      <path
         d="m 654.33,549.6 c 1.69,0.56 3.56,-0.36 4.13,-2.05 0.57,-1.67 -0.36,-3.57 -2.05,-4.13 -1.69,-0.56 -3.56,0.36 -4.13,2.05 -0.57,1.67 0.36,3.57 2.05,4.13 z"
         id="path102" />
      <path
         d="m 670.16,546.12 c -0.54,1.62 0.35,3.45 1.98,3.99 1.63,0.54 3.43,-0.35 3.99,-1.98 0.54,-1.62 -0.35,-3.45 -1.98,-3.99 -1.63,-0.53 -3.44,0.36 -3.99,1.98 z"
         id="path104" />
      <path
         d="m 688.47,550.52 c 1.72,0.57 3.63,-0.36 4.2,-2.08 0.58,-1.7 -0.37,-3.63 -2.08,-4.2 -1.72,-0.57 -3.63,0.36 -4.2,2.08 -0.58,1.7 0.36,3.63 2.08,4.2 z"
         id="path106" />
      <path
         d="m 730.56,560.27 c 0.55,-1.99 0.9,-4.04 1.09,-6.11 0.22,-0.39 0.36,-0.83 0.34,-1.24 -0.15,-3.35 -0.66,-6.66 -1.72,-9.86 -0.49,-1.48 -1.07,-2.93 -1.76,-4.34 -0.72,-1.45 -1.62,-2.79 -2.56,-4.1 -2.96,-4.18 -7.12,-7.28 -11.62,-9.61 0.17,-0.36 0.28,-0.76 0.31,-1.17 0.09,-1.12 0.33,-2.23 0.48,-3.35 0.2,-1.4 0.38,-2.8 0.55,-4.2 0.38,-3.11 0.74,-6.22 1.08,-9.34 0.73,-6.84 1.29,-13.73 1.18,-20.63 -0.09,-6.29 -0.67,-12.79 -3.16,-18.64 -0.97,-2.28 -2.41,-4.49 -4.3,-6.11 -2,-1.73 -4.33,-2.92 -6.84,-3.79 -0.12,-0.04 -0.23,-0.08 -0.35,-0.12 -2.71,-0.9 -5.59,-1.41 -8.42,-1.79 -3.28,-0.43 -6.6,-0.6 -9.9,-0.67 -7,-0.12 -14.04,0.35 -21.01,1.05 -5.2,0.52 -10.4,1.2 -15.54,2.12 -3.24,0.6 -6.58,1.09 -9.7,2.18 -2.36,0.82 -4.62,2.01 -5.88,4.27 -1.34,2.39 -1.45,5.19 -1.34,7.86 0.19,4.67 0.84,9.32 1.57,13.91 1.58,9.92 3.86,19.73 4.63,29.77 0.15,2.3 0.21,4.61 0.15,6.92 -0.01,0.22 0.01,0.44 0.06,0.66 -3.06,1.67 -5.93,3.7 -8.66,5.85 -3.55,2.82 -6.86,5.97 -10,9.24 -3.22,3.33 -6.24,6.85 -9.1,10.47 -2.67,3.36 -5.08,6.88 -7.46,10.44 -0.46,0.7 -0.51,1.61 -0.13,2.36 0.14,0.27 0.32,0.48 0.52,0.66 -0.26,2.64 -0.48,5.35 0.01,7.95 0.23,1.2 0.75,2.2 1.45,3.18 0.68,0.95 1.79,1.53 2.85,1.99 1.02,0.46 2.22,0.63 3.32,0.8 1.5,0.24 3.02,0.35 4.54,0.49 5.29,0.5 10.59,0.67 15.9,0.65 21.23,-0.07 42.27,-3.34 63.34,-5.6 4.6,-0.5 9.22,-0.92 13.84,-1.25 2.24,-0.15 4.48,-0.28 6.71,-0.38 2.74,-0.12 5.5,-0.3 8.23,-0.27 0.74,0.01 1.43,-0.22 1.98,-0.63 0.19,-0.01 0.38,-0.02 0.56,-0.07 0.63,-0.18 1.42,-0.66 1.68,-1.29 1.14,-2.72 2.28,-5.42 3.08,-8.26 z m -89.52,-62.03 c -1.44,-8 -3.06,-16 -3.72,-24.13 0,0.04 0,0.08 0.01,0.12 -0.01,-0.07 -0.01,-0.15 -0.02,-0.22 -0.01,-0.18 -0.03,-0.36 -0.04,-0.55 0.01,0.11 0.02,0.21 0.03,0.32 -0.1,-1.61 -0.16,-3.24 0.07,-4.86 0.09,-0.4 0.22,-0.79 0.37,-1.17 0.09,-0.16 0.19,-0.31 0.3,-0.46 0.17,-0.18 0.36,-0.34 0.55,-0.49 0.59,-0.36 1.22,-0.64 1.86,-0.88 2.71,-0.89 5.57,-1.33 8.37,-1.84 2.04,-0.38 4.09,-0.72 6.14,-1.03 5.43,-0.8 10.9,-1.4 16.38,-1.8 4.55,-0.31 9.1,-0.48 13.66,-0.39 4.15,0.08 8.31,0.4 12.37,1.17 2.21,0.46 4.4,1.08 6.45,2.03 0.8,0.42 1.57,0.89 2.28,1.45 0.53,0.5 1.01,1.05 1.45,1.64 0.78,1.2 1.39,2.48 1.89,3.82 0.96,2.96 1.43,6.04 1.69,9.13 0.49,7.72 -0.19,15.5 -1.05,23.16 -0.42,3.73 -0.91,7.44 -1.37,11.16 -0.19,1.55 -0.38,3.12 -0.5,4.68 -0.08,1.08 -0.08,2.16 -0.12,3.24 -4.33,-1.46 -8.89,-2.31 -13.37,-2.91 -6.39,-0.86 -12.83,-1.02 -19.26,-0.93 -9.41,0.12 -18.78,0.98 -28.16,1.65 0.27,-0.02 0.53,-0.04 0.8,-0.06 -1.48,0.11 -2.95,0.2 -4.44,0.28 -0.22,-7.44 -1.31,-14.79 -2.62,-22.13 z m -31.49,59.72 c 0.67,-0.96 1.36,-1.91 2.06,-2.86 1.97,-2.67 4.05,-5.24 6.2,-7.76 5.37,-6.18 11.25,-12.03 17.98,-16.76 1.84,-1.26 3.75,-2.42 5.76,-3.39 0.4,-0.2 0.71,-0.51 0.92,-0.87 3.37,-0.1 6.73,-0.33 10.09,-0.55 4.93,-0.31 9.85,-0.62 14.78,-0.82 10.23,-0.41 20.6,-0.34 30.67,1.58 4.31,0.9 8.51,2.18 12.5,4.07 2.31,1.17 4.49,2.54 6.47,4.18 1.54,1.37 2.91,2.9 4.12,4.57 1.23,1.88 2.21,3.88 2.99,5.98 0.49,1.53 0.87,3.08 1.15,4.64 -5.21,0.61 -10.44,1.01 -15.65,1.38 -17.4,1.18 -34.83,1.5 -52.25,2.29 -8.93,0.4 -17.86,0.98 -26.78,1.79 -7.02,0.66 -14.05,1.42 -21.01,2.53 z m 104.62,6.77 c -3.21,0.13 -6.41,0.34 -9.61,0.59 -6.52,0.49 -13.02,1.22 -19.5,2 -12.78,1.53 -25.52,3.21 -38.36,4.14 -6.97,0.49 -13.95,0.75 -20.93,0.61 -3.39,-0.06 -6.77,-0.25 -10.14,-0.52 -1.65,-0.15 -3.33,-0.26 -4.98,-0.53 -0.47,-0.1 -0.94,-0.22 -1.39,-0.4 -0.07,-0.04 -0.15,-0.09 -0.22,-0.14 -0.04,-0.04 -0.08,-0.08 -0.11,-0.13 -0.03,-0.06 -0.06,-0.12 -0.09,-0.17 -0.13,-0.45 -0.21,-0.9 -0.26,-1.37 -0.09,-1.95 0.08,-3.9 0.27,-5.84 3.95,-0.58 7.9,-1.13 11.87,-1.59 5.43,-0.62 10.87,-1.12 16.31,-1.5 -0.05,0 -0.09,0 -0.14,0.01 15.22,-1.02 30.48,-1.44 45.73,-1.9 7.69,-0.23 15.4,-0.45 23.1,-0.78 6.55,-0.28 13.08,-0.68 19.61,-1.12 -0.02,0.16 -0.02,0.31 -0.03,0.47 -0.46,2.75 -1.25,5.44 -2.22,8.06 -2.97,0 -5.94,0 -8.91,0.11 z"
         id="path108" />
    </g>
  </g>
</svg>
