<?xml version="1.0" encoding="UTF-8" standalone="no"?>
<svg
   xmlns:dc="http://purl.org/dc/elements/1.1/"
   xmlns:cc="http://creativecommons.org/ns#"
   xmlns:rdf="http://www.w3.org/1999/02/22-rdf-syntax-ns#"
   xmlns:svg="http://www.w3.org/2000/svg"
   xmlns="http://www.w3.org/2000/svg"
   id="svg708"
   version="1.1"
   viewBox="0 0 12.525944 48.094463"
   height="48.09446mm"
   width="12.525944mm">
  <defs
     id="defs702" />
  <metadata
     id="metadata705">
    <rdf:RDF>
      <cc:Work
         rdf:about="">
        <dc:format>image/svg+xml</dc:format>
        <dc:type
           rdf:resource="http://purl.org/dc/dcmitype/StillImage" />
        <dc:title></dc:title>
      </cc:Work>
    </rdf:RDF>
  </metadata>
  <g
     transform="translate(61.909641,-139.0416)"
     id="layer1">
    <g
       transform="matrix(0.26458333,0,0,0.26458333,-544.28208,25.228436)"
       className="leaf"
       style="fill:#008000"
       id="g192">
      <path
         d="m 1870.15,482.73 c -0.62,-9.74 -2.03,-19.41 -3.22,-29.08 -0.88,-7.07 -1.66,-14.17 -1.9,-21.31 -0.04,-0.98 -0.65,-1.83 -1.61,-2.11 -0.17,-0.05 -0.36,-0.07 -0.55,-0.07 -0.76,0 -1.59,0.37 -1.91,1.08 -8,17.42 -19.09,33.19 -27.39,50.46 -2.05,4.26 -3.93,8.62 -5.55,13.07 -0.78,2.11 -1.47,4.24 -2.11,6.38 -0.66,2.28 -1.13,4.56 -1.44,6.92 -1.04,7.92 1.17,15.73 3.74,23.13 1.86,5.34 3.87,10.65 4.77,16.25 0.2,1.47 0.31,2.94 0.35,4.41 0.04,1.68 -0.12,3.33 -0.33,5 0.01,-0.09 0.03,-0.17 0.04,-0.26 -0.02,0.14 -0.04,0.28 -0.06,0.43 -0.01,0.07 -0.02,0.15 -0.03,0.22 0.01,-0.05 0.01,-0.1 0.02,-0.15 -0.63,4.3 -1.68,8.5 -2.93,12.66 -1.26,4.24 -2.72,8.42 -3.97,12.68 -1.22,4.2 -2.15,8.46 -2.63,12.82 -0.57,5.07 -0.29,10.15 0.52,15.19 0.17,1.09 1.52,1.69 2.5,1.42 0.52,-0.14 0.95,-0.48 1.22,-0.94 0.3,-0.51 0.3,-1 0.21,-1.57 -0.09,-0.58 -0.18,-1.16 -0.26,-1.74 -0.51,-4.31 -0.49,-8.62 0.03,-12.93 0.96,-6.76 3.15,-13.21 5.33,-19.66 1.09,-3.2 2.15,-6.42 3.04,-9.69 0.99,-3.65 1.7,-7.38 2.13,-11.14 0.01,-0.08 0.02,-0.16 0.02,-0.24 0.84,-0.02 1.64,-0.47 2.12,-1.22 0.94,-1.47 1.88,-2.94 2.92,-4.35 4.36,-5.54 10.11,-9.76 14.8,-14.99 2.59,-2.89 4.8,-6.1 6.51,-9.57 2,-4.06 3.28,-8.45 4.2,-12.86 1.95,-9.27 2.02,-18.84 1.42,-28.24 z m -27.31,35.06 c -0.37,-0.37 -0.7,-0.77 -1.05,-1.16 0.37,-3.25 0.78,-6.5 1.27,-9.73 0,0.01 0,0.02 0,0.03 0.22,-1.4 0.47,-2.8 0.71,-4.19 0.15,-0.06 0.3,-0.15 0.42,-0.28 3.63,-3.71 7.37,-7.28 11.25,-10.73 3.33,-2.98 6.77,-5.82 10.26,-8.61 0.33,5.56 0.39,11.13 -0.02,16.68 -5.38,4.38 -10.63,8.91 -16.12,13.15 0.06,-0.05 0.12,-0.1 0.18,-0.15 -2.26,1.73 -4.56,3.39 -6.9,4.99 z m 4.89,-33.23 c 0.07,0.27 0.19,0.54 0.41,0.76 0.64,0.65 1.81,0.7 2.44,0 2.76,-3.03 5.53,-6.05 8.31,-9.06 1.89,-2.05 3.77,-4.1 5.65,-6.16 0.37,3.32 0.7,6.65 0.95,9.99 -7.37,5.62 -14.33,11.74 -20.91,18.26 0.9,-4.62 1.94,-9.23 3.15,-13.79 z m 13.44,-43.77 c 0.7,8.37 1.86,16.7 2.87,25.03 -2.56,2.63 -5.06,5.32 -7.56,8.01 -2.78,2.99 -5.54,5.99 -8.3,9.01 2.14,-7.76 4.77,-15.37 8.01,-22.73 1.14,-2.54 2.35,-5.06 3.66,-7.52 0.34,-0.64 0.21,-1.44 -0.44,-1.84 -0.2,-0.12 -0.43,-0.18 -0.67,-0.19 -0.46,-0.01 -0.94,0.21 -1.16,0.63 -4.97,9.29 -8.74,19.16 -11.67,29.27 -0.92,-2.5 -1.82,-5 -2.68,-7.52 5.87,-10.77 12.36,-21.22 17.94,-32.15 z m -20.91,37.76 c 0.77,2.23 1.58,4.45 2.44,6.64 0.23,0.6 0.51,1.08 1.07,1.4 0.13,0.08 0.29,0.1 0.43,0.15 -1.17,4.62 -2.2,9.27 -3.07,13.93 -0.14,0.75 -0.26,1.5 -0.39,2.25 -0.38,-0.34 -0.78,-0.65 -1.14,-1.02 -0.67,-0.67 -1.26,-1.39 -1.85,-2.12 -0.91,-1.22 -1.72,-2.49 -2.47,-3.81 -0.57,-1 -1.07,-2.05 -1.55,-3.1 0.41,-1.06 0.81,-2.12 1.25,-3.17 1.61,-3.79 3.4,-7.49 5.28,-11.15 z m -5.23,56.4 c -2.1,-6.1 -4.52,-12.11 -5.48,-18.52 -0.36,-3.01 -0.38,-6.01 -0.01,-9.02 0.45,-2.96 1.27,-5.86 2.16,-8.71 0.35,-1.13 0.74,-2.25 1.13,-3.36 0.2,0.38 0.38,0.77 0.59,1.14 0.94,1.7 2.04,3.29 3.25,4.8 1.09,1.35 2.38,2.5 3.73,3.57 -0.46,2.75 -0.89,5.5 -1.26,8.27 -0.82,-1.33 -1.58,-2.71 -2.21,-4.16 -0.43,-1.08 -0.81,-2.17 -1.15,-3.28 -0.28,-0.96 -1.16,-1.61 -2.12,-1.61 -0.19,0 -0.38,0.03 -0.57,0.08 -1.14,0.31 -1.87,1.56 -1.53,2.7 0.79,2.76 1.9,5.4 3.32,7.89 0.98,1.73 2.18,3.35 3.5,4.86 -0.28,2.65 -0.53,5.31 -0.72,7.96 -0.35,4.73 -0.53,9.48 -0.59,14.22 -0.57,-2.32 -1.27,-4.6 -2.04,-6.83 z m 26.33,-15.21 c -1.22,2.78 -2.74,5.38 -4.54,7.82 -3.04,3.88 -6.7,7.16 -10.3,10.5 -1.89,1.76 -3.71,3.56 -5.42,5.47 -0.26,0.29 -0.5,0.61 -0.76,0.91 0,-0.01 0,-0.03 0,-0.04 -0.06,-4.18 0.03,-8.36 0.22,-12.53 0.15,-3.29 0.39,-6.58 0.68,-9.87 0.72,0.16 1.5,0.01 2.05,-0.55 0.28,-0.28 0.43,-0.62 0.53,-0.98 7.52,-5.08 14.48,-10.91 21.46,-16.7 -0.04,0.33 -0.06,0.66 -0.1,0.99 -0.73,5.11 -1.87,10.2 -3.82,14.98 z"
         id="path188" />
      <path
         d="m 1833,556.86 c -0.01,0.08 -0.02,0.16 -0.03,0.23 0,-0.02 0.01,-0.05 0.01,-0.07 0.01,-0.05 0.01,-0.11 0.02,-0.16 z"
         id="path190" />
    </g>
  </g>
</svg>
