<?xml version="1.0" encoding="UTF-8" standalone="no"?>
<svg
   xmlns:dc="http://purl.org/dc/elements/1.1/"
   xmlns:cc="http://creativecommons.org/ns#"
   xmlns:rdf="http://www.w3.org/1999/02/22-rdf-syntax-ns#"
   xmlns:svg="http://www.w3.org/2000/svg"
   xmlns="http://www.w3.org/2000/svg"
   id="svg708"
   version="1.1"
   viewBox="0 0 18.891602 37.634876"
   height="37.634872mm"
   width="18.891602mm">
  <defs
     id="defs702" />
  <metadata
     id="metadata705">
    <rdf:RDF>
      <cc:Work
         rdf:about="">
        <dc:format>image/svg+xml</dc:format>
        <dc:type
           rdf:resource="http://purl.org/dc/dcmitype/StillImage" />
        <dc:title></dc:title>
      </cc:Work>
    </rdf:RDF>
  </metadata>
  <g
     transform="translate(117.69166,-154.37359)"
     id="layer1">
    <g
       transform="matrix(0.26458333,0,0,0.26458333,-395.05141,-80.094868)"
       className="leaf2"
       style="fill:#008000"
       id="g392">
      <path
         d="m 1081.81,962.98 c 0.02,-0.08 0.05,-0.17 0.07,-0.25 -0.03,0.11 -0.07,0.22 -0.1,0.34 0.01,-0.03 0.02,-0.06 0.03,-0.09 z"
         id="path384" />
      <path
         d="m 1118.98,943.7 c -1.07,-5.32 -3.18,-10.28 -5.79,-15.01 -2.59,-4.74 -5.56,-9.24 -8.25,-13.91 -2.68,-4.76 -5.04,-9.71 -6.51,-14.99 -0.88,-3.55 -1.31,-7.17 -1.36,-10.83 -0.01,-1.38 -1.37,-2.55 -2.65,-2.74 -0.17,-0.03 -0.33,-0.04 -0.49,-0.04 -0.4,0 -0.79,0.08 -1.17,0.23 -0.68,0.28 -1.48,0.93 -1.7,1.66 -0.24,0.83 -0.52,1.65 -0.75,2.5 -0.43,1.33 -0.98,2.63 -1.53,3.92 -0.72,1.71 -1.5,3.4 -2.31,5.07 -1.96,4.03 -4.1,7.98 -6.21,11.93 -5.15,9.6 -10.32,19.2 -15.1,29 -4.96,10.17 -9.5,20.57 -12.82,31.4 -2.81,9.2 -4.83,19.02 -3.76,28.67 0.62,5.51 2.52,10.83 6.01,15.18 3.12,3.89 7.32,6.65 11.87,8.56 0.21,0.76 0.45,1.51 0.69,2.25 0.33,0.98 1.35,1.69 2.31,1.84 1.09,0.16 2.11,-0.29 2.81,-1.11 2.72,-3.18 5.36,-6.43 8.11,-9.59 2.87,-3.28 5.77,-6.54 8.66,-9.81 5.81,-6.62 11.54,-13.35 16.59,-20.56 4.89,-6.97 9.26,-14.52 11.84,-22.67 1.13,-3.6 1.92,-7.27 2.14,-11.03 0.21,-3.32 0.01,-6.66 -0.63,-9.92 z m -8.37,17.74 c -1.77,5.79 -4.45,11.27 -7.54,16.45 -4.99,8.11 -10.98,15.55 -17.1,22.84 -3.16,3.75 -6.34,7.47 -9.47,11.26 -1.79,2.16 -3.6,4.35 -5.32,6.59 -0.11,-1.04 -0.16,-2.09 -0.16,-3.15 0.15,-4.74 1.15,-9.4 2.43,-13.95 0.35,-1.19 0.72,-2.37 1.11,-3.55 0.02,0.02 0.03,0.05 0.05,0.06 0.3,0.24 0.81,0.44 1.2,0.34 2.26,-0.57 4.45,-1.3 6.59,-2.28 2.19,-1.02 4.26,-2.3 6.23,-3.7 4.01,-2.88 7.49,-6.49 10.77,-10.17 0.64,-0.72 0.43,-1.91 -0.3,-2.49 -0.32,-0.25 -0.69,-0.37 -1.05,-0.37 -0.53,0 -1.05,0.24 -1.43,0.67 -1.46,1.66 -2.95,3.29 -4.51,4.85 -2.77,2.7 -5.75,5.16 -9.08,7.13 -2.38,1.32 -4.86,2.34 -7.47,3.06 2.87,-8.13 6.35,-16.04 8.97,-24.26 0.3,-0.95 0.58,-1.91 0.87,-2.86 0.37,0.01 0.75,-0.04 1.12,-0.17 1.79,-0.65 3.46,-1.59 4.98,-2.72 1.61,-1.22 3.01,-2.78 4.23,-4.39 1.25,-1.66 2.29,-3.48 3.25,-5.33 0.92,-1.76 1.7,-3.59 2.4,-5.43 0.53,-1.38 0,-2.98 -1.41,-3.6 -0.35,-0.15 -0.71,-0.22 -1.07,-0.22 -1.06,0 -2.06,0.63 -2.53,1.63 -1.17,2.49 -2.32,4.97 -3.7,7.35 -1.02,1.64 -2.15,3.18 -3.49,4.57 -0.58,0.53 -1.2,1.01 -1.83,1.47 0.86,-3.24 1.66,-6.5 2.45,-9.76 0.78,-3.27 1.55,-6.53 2.31,-9.8 0.79,-3.36 1.65,-6.71 2.42,-10.08 0.23,-0.98 -0.45,-2.04 -1.33,-2.43 -1.04,-0.45 -2.63,0 -2.99,1.18 -0.14,0.45 -0.26,0.91 -0.39,1.36 -0.24,-0.64 -0.48,-1.29 -0.67,-1.95 -0.53,-2.18 -0.75,-4.38 -0.71,-6.61 -0.05,-0.38 -0.19,-0.72 -0.42,-1.02 -0.33,-0.44 -0.82,-0.73 -1.36,-0.82 -0.1,-0.02 -0.21,-0.02 -0.31,-0.02 -0.45,0 -0.9,0.15 -1.27,0.43 -0.39,0.3 -0.78,0.84 -0.81,1.36 -0.14,2.67 0.1,5.25 0.79,7.83 0.68,2.49 1.75,4.76 3.07,6.96 -0.74,2.95 -1.43,5.92 -2.13,8.88 -1.26,5.41 -2.58,10.82 -4.09,16.16 0.02,-0.07 0.04,-0.14 0.06,-0.21 -0.04,0.15 -0.09,0.31 -0.13,0.46 -0.01,0.05 -0.03,0.1 -0.04,0.15 0,-0.02 0.01,-0.04 0.02,-0.06 -1.63,5.55 -3.58,10.98 -5.74,16.34 -1.02,-0.74 -1.99,-1.54 -2.88,-2.43 -1.74,-1.85 -3.21,-3.9 -4.49,-6.08 -1.84,-3.32 -3.17,-6.84 -4.29,-10.46 -0.24,-0.77 -1.1,-1.25 -1.88,-1.25 -0.07,0 -0.15,0 -0.22,0.01 -0.52,0.06 -1.01,0.33 -1.33,0.74 -0.3,0.39 -0.53,0.99 -0.42,1.48 0.97,4.23 2.58,8.28 4.77,12.03 2.23,3.82 5.1,7.31 8.81,9.79 0.11,0.07 0.22,0.11 0.33,0.16 -1.62,3.95 -3.23,7.91 -4.63,11.94 -1.82,5.28 -3.38,10.71 -4.06,16.25 -0.3,2.53 -0.38,5.1 -0.19,7.62 0.05,0.66 0.13,1.31 0.23,1.96 -0.75,-0.36 -1.49,-0.76 -2.21,-1.18 -1.85,-1.12 -3.58,-2.43 -5.12,-3.95 -1.35,-1.39 -2.53,-2.92 -3.52,-4.58 0,0.01 0.01,0.02 0.01,0.02 -0.01,-0.01 -0.01,-0.02 -0.02,-0.04 -0.05,-0.09 -0.1,-0.18 -0.16,-0.27 0.03,0.06 0.07,0.11 0.1,0.17 -1.07,-1.93 -1.87,-3.99 -2.46,-6.12 -0.79,-3.11 -1.1,-6.31 -1.08,-9.5 0.14,-6.07 1.36,-12.05 3,-17.87 0,0.01 0,0.01 -0.01,0.02 0.01,-0.03 0.02,-0.06 0.02,-0.08 0.03,-0.12 0.07,-0.24 0.1,-0.36 -0.01,0.03 -0.02,0.07 -0.03,0.1 3.12,-10.6 7.59,-20.76 12.48,-30.65 4.93,-9.99 10.37,-19.71 15.81,-29.43 2.65,-4.74 5.31,-9.49 7.89,-14.25 0.43,-0.8 0.86,-1.59 1.29,-2.39 0.74,3.41 1.83,6.75 3.18,9.96 2.67,6.34 6.43,12.16 9.81,18.11 2.54,4.55 4.87,9.24 6.26,14.29 0.68,2.89 1.03,5.81 1.02,8.78 -0.18,3.22 -0.72,6.38 -1.58,9.48 z"
         id="path386" />
      <path
         d="m 1054.91,1011.46 c 0,0 0.01,0.01 0.01,0.01 -0.02,-0.04 -0.04,-0.07 -0.06,-0.11 0.01,0.04 0.03,0.07 0.05,0.1 z"
         id="path388" />
      <path
         d="m 1054.34,977.8 c -0.01,0.02 -0.01,0.04 -0.02,0.06 0.04,-0.1 0.07,-0.21 0.09,-0.32 -0.02,0.09 -0.05,0.18 -0.07,0.26 z"
         id="path390" />
    </g>
  </g>
</svg>
