<?xml version="1.0" encoding="UTF-8" standalone="no"?>
<svg
   xmlns:dc="http://purl.org/dc/elements/1.1/"
   xmlns:cc="http://creativecommons.org/ns#"
   xmlns:rdf="http://www.w3.org/1999/02/22-rdf-syntax-ns#"
   xmlns:svg="http://www.w3.org/2000/svg"
   xmlns="http://www.w3.org/2000/svg"
   id="svg708"
   version="1.1"
   viewBox="0 0 37.046006 34.909446"
   height="34.909443mm"
   width="37.046005mm">
  <defs
     id="defs702" />
  <metadata
     id="metadata705">
    <rdf:RDF>
      <cc:Work
         rdf:about="">
        <dc:format>image/svg+xml</dc:format>
        <dc:type
           rdf:resource="http://purl.org/dc/dcmitype/StillImage" />
        <dc:title></dc:title>
      </cc:Work>
    </rdf:RDF>
  </metadata>
  <g
     transform="translate(216.42531,-168.50904)"
     id="layer1">
    <g
       transform="matrix(0.26458333,0,0,0.26458333,-483.56664,-134.66581)"
       className="mosque"
       style="fill:#0000ff"
       id="g166">
      <path
         d="m 1138.87,1156.2 c -1.25,-0.44 -2.81,0.23 -3.2,1.54 -0.19,0.63 -0.42,1.22 -0.69,1.81 -0.36,0.63 -0.77,1.21 -1.23,1.78 -2.04,2.13 -4.58,3.63 -6.94,5.39 -1.25,0.93 -2.32,2.02 -3.3,3.22 -1.06,1.3 -1.72,2.97 -2.3,4.52 -0.87,2.34 -1.16,5.08 0.2,7.28 0.54,0.88 1.16,1.57 1.91,2.27 0.68,0.61 1.34,1.23 1.9,1.95 0.19,0.33 0.35,0.68 0.5,1.03 1.11,4.1 1.59,8.44 1.8,12.67 0.11,3.6 -0.02,7.21 -0.72,10.75 -0.33,1.37 -0.75,2.71 -1.34,3.99 -0.36,0.66 -0.76,1.29 -1.23,1.88 -0.36,0.38 -0.75,0.72 -1.17,1.04 -0.37,0.21 -0.74,0.39 -1.14,0.55 -0.49,0.13 -0.99,0.22 -1.5,0.27 -0.89,-0.01 -1.75,-0.12 -2.62,-0.28 -0.86,-0.21 -1.69,-0.46 -2.5,-0.82 -0.35,-0.2 -0.69,-0.42 -1.02,-0.67 -0.17,-0.18 -0.33,-0.36 -0.48,-0.55 -0.13,-0.23 -0.24,-0.46 -0.34,-0.7 -0.14,-0.55 -0.23,-1.1 -0.28,-1.66 -0.05,-3.25 0.72,-6.47 1.16,-9.67 0.24,-1.77 0.4,-3.55 0.35,-5.33 -0.03,-1.15 -0.12,-2.29 -0.29,-3.44 -0.19,-1.15 -0.56,-2.26 -0.95,-3.36 -0.69,-2 -1.98,-3.87 -3.45,-5.38 -1.88,-1.93 -4.12,-3.23 -6.5,-4.41 -4.11,-2.05 -8.64,-3.07 -12.78,-5.04 -0.98,-0.54 -1.91,-1.13 -2.78,-1.82 -0.61,-0.58 -1.17,-1.22 -1.69,-1.89 -0.23,-0.42 -0.44,-0.85 -0.61,-1.3 -0.22,-0.81 -0.36,-1.62 -0.44,-2.46 -0.01,-0.85 0.03,-1.7 0.1,-2.54 0.01,-0.07 -0.02,-0.14 -0.02,-0.21 1.34,-0.32 2.64,-0.84 3.78,-1.49 0.83,-0.47 1.46,-1.06 1.77,-1.97 0.31,-0.87 0.25,-1.84 -0.15,-2.67 -0.82,-1.69 -2.95,-2.47 -4.65,-1.64 -0.67,0.33 -1.34,0.63 -2.03,0.89 -0.44,0.11 -0.88,0.2 -1.33,0.26 -0.25,0 -0.49,-0.02 -0.74,-0.05 -0.15,-0.05 -0.3,-0.1 -0.45,-0.15 -0.15,-0.09 -0.29,-0.19 -0.43,-0.29 -0.18,-0.19 -0.34,-0.39 -0.5,-0.6 -0.2,-0.37 -0.38,-0.76 -0.54,-1.15 -0.17,-0.63 -0.27,-1.26 -0.32,-1.9 0,-0.61 0.03,-1.21 0.13,-1.82 0.12,-0.47 0.28,-0.92 0.47,-1.36 0.16,-0.28 0.34,-0.55 0.54,-0.81 0.18,-0.18 0.37,-0.35 0.58,-0.51 0.2,-0.11 0.41,-0.21 0.62,-0.3 0.21,-0.05 0.42,-0.09 0.64,-0.12 0.34,0 0.68,0.03 1.01,0.09 0.08,0.02 0.17,0.04 0.25,0.07 1.31,0.36 2.71,-0.19 3.19,-1.53 0.43,-1.23 -0.22,-2.82 -1.54,-3.2 -1.64,-0.46 -3.33,-0.68 -5.01,-0.33 -1.52,0.33 -2.93,1.17 -3.97,2.3 -0.43,0.47 -0.83,0.98 -1.17,1.52 -1.34,2.1 -1.99,4.66 -1.88,7.13 0.08,1.65 0.38,3.16 1.04,4.69 0.65,1.54 1.81,2.84 3.14,3.81 0.31,0.23 0.65,0.4 0.98,0.58 -0.24,0.6 -0.47,1.19 -0.75,1.77 -0.79,1.43 -1.7,2.76 -2.75,4.01 -1.99,2.15 -4.28,3.92 -6.71,5.55 -2.93,1.9 -5.93,3.66 -8.81,5.64 -3.1,2.14 -5.91,4.68 -8.18,7.7 -2.17,2.88 -3.08,6.52 -3.66,10.02 -0.57,3.39 -0.65,6.83 -1.27,10.21 -0.28,1.23 -0.62,2.44 -1.11,3.59 -0.22,0.4 -0.46,0.77 -0.74,1.14 -0.24,0.24 -0.49,0.45 -0.75,0.66 -0.69,0.38 -1.41,0.69 -2.14,0.95 -0.65,0.19 -1.29,0.32 -1.96,0.39 -0.36,0 -0.72,-0.03 -1.08,-0.08 -0.21,-0.06 -0.42,-0.14 -0.62,-0.22 -0.26,-0.15 -0.5,-0.32 -0.74,-0.5 -0.31,-0.32 -0.6,-0.66 -0.87,-1.02 -0.5,-0.83 -0.9,-1.71 -1.23,-2.62 -0.81,-2.7 -1.16,-5.52 -1.32,-8.34 -0.1,-2.71 -0.04,-5.41 0.16,-8.1 0.16,-2.2 0.4,-4.41 0.82,-6.57 0.31,-1.41 0.76,-2.76 1.36,-4.07 0.96,-1.81 2.16,-3.47 3.01,-5.34 1.13,-2.47 0.85,-5.37 0.19,-7.92 -0.33,-1.29 -0.76,-2.54 -1.44,-3.69 -0.65,-1.09 -1.46,-2.05 -2.35,-2.94 -1.65,-1.63 -3.48,-3.02 -4.84,-4.91 -0.36,-0.59 -0.69,-1.18 -0.94,-1.81 -0.16,-0.64 -0.26,-1.27 -0.32,-1.94 0,-0.71 0.04,-1.4 0.12,-2.11 0.09,-0.83 -0.47,-1.65 -1.26,-1.92 -0.88,-0.31 -2.14,0.16 -2.39,1.16 -0.3,1.24 -0.69,2.42 -1.2,3.57 -0.83,1.57 -1.85,2.99 -3.01,4.33 -1.26,1.41 -2.59,2.76 -3.84,4.18 -1.34,1.52 -2.58,3.11 -3.91,4.63 -0.82,0.93 -1.68,1.83 -2.5,2.78 -0.22,0.25 -0.41,0.5 -0.58,0.76 -0.27,0.43 -0.47,0.89 -0.58,1.43 -0.14,0.73 0.13,1.47 0.42,2.12 0.35,0.84 0.72,1.68 1,2.56 0.5,1.72 0.81,3.46 1.03,5.23 0.24,2.12 0.43,4.25 0.54,6.39 0.49,11.23 -0.53,22.48 -1.59,33.66 -1.1,11.74 -2.39,23.54 -2.24,35.35 0,0.75 0.13,1.38 0.64,1.97 0.45,0.52 1.1,0.84 1.79,0.89 1.35,0.11 2.88,-0.98 2.87,-2.43 -0.11,-7.88 0.45,-15.74 1.11,-23.59 0.71,-8.43 1.55,-16.85 2.08,-25.3 0.46,-7.57 0.65,-15.19 -0.12,-22.74 -0.33,-3.24 -0.93,-6.47 -1.86,-9.6 -0.3,-1.03 -0.66,-2.03 -1.09,-3.02 -0.15,-0.34 -0.32,-0.68 -0.48,-1.02 0.46,-0.66 1.06,-1.25 1.58,-1.85 1.76,-2.07 3.39,-4.23 5.18,-6.29 -0.01,0.02 -0.03,0.03 -0.04,0.05 0.02,-0.02 0.03,-0.04 0.05,-0.05 0.04,-0.05 0.08,-0.09 0.12,-0.14 -0.03,0.03 -0.05,0.06 -0.08,0.09 1.59,-1.75 3.25,-3.45 4.71,-5.31 0.24,-0.31 0.48,-0.63 0.7,-0.96 0.02,0.06 0.05,0.13 0.07,0.19 0.33,0.82 0.85,1.56 1.34,2.26 1.55,2.22 3.81,3.8 5.4,5.99 0.3,0.5 0.54,1.01 0.75,1.55 0.32,1.15 0.55,2.32 0.65,3.51 0.01,0.56 -0.03,1.11 -0.12,1.67 -0.11,0.4 -0.25,0.79 -0.42,1.18 -0.62,1.13 -1.41,2.15 -2.12,3.21 -1.12,1.7 -2.02,3.58 -2.62,5.52 -0.77,2.49 -1.2,5.13 -1.53,7.71 -0.42,3.23 -0.57,6.51 -0.48,9.76 0.11,3.3 0.42,6.63 1.43,9.81 0.94,2.98 2.36,5.68 4.91,7.59 2.49,1.85 5.86,2.03 8.76,1.22 1.89,-0.54 3.6,-1.33 5.21,-2.46 0.7,-0.49 1.28,-1.23 1.81,-1.9 0.64,-0.78 1.06,-1.74 1.45,-2.66 0.7,-1.63 0.95,-3.46 1.13,-5.22 0.21,-2.05 0.27,-4.12 0.44,-6.18 0.14,-1.77 0.35,-3.52 0.67,-5.26 0.35,-1.53 0.82,-3.02 1.49,-4.46 0.57,-1.01 1.23,-1.94 2,-2.83 1.74,-1.87 3.69,-3.47 5.79,-4.92 4.06,-2.66 8.38,-4.88 12.36,-7.68 1.71,-1.21 3.26,-2.59 4.68,-4.12 1.07,2.67 3.09,4.73 5.43,6.34 2.37,1.63 5.12,2.75 7.78,3.77 2.45,0.97 4.95,1.85 7.34,2.98 1.21,0.64 2.36,1.35 3.43,2.21 0.61,0.58 1.17,1.2 1.67,1.89 0.37,0.64 0.69,1.31 0.96,2 0.3,1.05 0.47,2.12 0.57,3.2 0.13,5.69 -1.85,11.28 -1.05,16.95 0.41,3 2.08,5.64 4.58,7.34 1.33,0.9 2.89,1.45 4.45,1.82 1.02,0.24 2.03,0.43 3.09,0.53 1.11,0.1 2.26,0.02 3.37,-0.08 1.58,-0.16 3.2,-0.76 4.55,-1.59 1.61,-1 2.91,-2.26 3.99,-3.81 2.09,-3 2.96,-6.76 3.49,-10.31 0.57,-3.93 0.44,-7.98 0.12,-11.93 -0.27,-3.45 -0.8,-6.88 -1.6,-10.23 -0.21,-0.86 -0.46,-1.7 -0.75,-2.52 -0.3,-0.81 -0.82,-1.53 -1.29,-2.24 -0.73,-1.06 -1.78,-1.87 -2.75,-2.69 -0.27,-0.26 -0.53,-0.53 -0.77,-0.83 -0.04,-0.07 -0.07,-0.14 -0.1,-0.21 -0.03,-0.13 -0.06,-0.27 -0.08,-0.41 0.01,-0.43 0.06,-0.86 0.13,-1.3 0.24,-0.96 0.59,-1.9 1,-2.81 0.29,-0.51 0.62,-0.99 0.99,-1.45 1.89,-2 4.23,-3.49 6.38,-5.2 0.78,-0.62 1.52,-1.3 2.19,-2.02 0.1,0.2 0.19,0.41 0.3,0.61 1.06,2.06 2.6,3.82 3.93,5.69 0.53,0.87 0.98,1.8 1.34,2.74 0.55,1.78 0.94,3.63 1.08,5.48 0.02,1.39 -0.13,2.73 -0.4,4.09 -0.62,2.64 -1.41,5.23 -2.03,7.86 -0.91,3.82 -1.56,7.7 -2.06,11.61 -0.23,1.79 -0.41,3.59 -0.7,5.38 -0.3,2.01 -0.38,4.05 -0.47,6.07 -0.15,3.85 -0.16,7.71 -0.14,11.55 0.05,7.77 0.28,15.53 0.28,23.3 -0.02,8.19 -0.28,16.36 0.3,24.55 0.08,1.1 0.96,2.23 1.83,2.82 0.94,0.62 2.08,0.86 3.18,0.66 1.15,-0.21 2.17,-0.87 2.82,-1.83 0.68,-1.01 0.75,-2.01 0.66,-3.18 -0.05,-0.74 -0.1,-1.49 -0.14,-2.23 0.01,0.17 0.01,0.33 0.02,0.5 -0.01,-0.26 -0.02,-0.51 -0.03,-0.77 -0.01,-0.12 -0.01,-0.23 -0.02,-0.35 0.01,0.08 0.01,0.15 0.02,0.22 -0.19,-4.91 -0.14,-9.81 -0.08,-14.73 0.05,-5.09 0.01,-10.18 -0.09,-15.28 -0.09,-5.01 -0.21,-10.02 -0.24,-15.04 -0.02,-2.48 -0.01,-4.97 0.04,-7.46 0.05,-2.49 0.18,-4.98 0.17,-7.47 -0.02,-4.98 0.46,-9.93 1.18,-14.85 0.57,-3.86 1.47,-7.71 1.84,-11.59 0.15,-1.57 0.09,-3.17 -0.1,-4.75 -0.21,-1.82 -0.77,-3.58 -1.36,-5.3 -0.6,-1.76 -1.43,-3.35 -2.61,-4.79 -1.1,-1.34 -2.18,-2.74 -3.17,-4.18 -0.52,-0.85 -0.96,-1.72 -1.31,-2.65 -0.25,-0.9 -0.4,-1.79 -0.48,-2.72 0,-0.15 0,-0.3 -0.01,-0.46 -0.02,-1.18 -0.54,-2.22 -1.69,-2.62 z m -12.55,22.26 c 0,0.03 0,0.05 0,0.08 0.01,-0.03 0.01,-0.05 0,-0.08 z"
         id="path154" />
      <path
         d="m 1146.77,1270.47 c -0.01,-0.13 -0.01,-0.26 -0.02,-0.39 0,0.04 0,0.08 0.01,0.13 0,0.08 0.01,0.17 0.01,0.26 z"
         id="path156" />
      <path
         d="m 1021.39,1168.74 c 0.02,-0.02 0.03,-0.03 0.05,-0.05 -0.02,0.01 -0.04,0.03 -0.05,0.05 0,0 0,0 0,0 z"
         id="path158" />
      <path
         d="m 1051.81,1242.67 c -0.86,-1.44 -1.97,-2.92 -3.49,-3.72 -0.77,-0.4 -1.54,-0.7 -2.44,-0.74 -0.88,-0.07 -1.68,0.15 -2.49,0.47 -0.64,0.25 -1.22,0.69 -1.73,1.13 -0.66,0.56 -1.21,1.25 -1.7,1.95 -0.18,0.25 -0.35,0.5 -0.52,0.76 -0.97,1.52 -1.68,3.23 -2.29,4.89 -0.95,2.61 -1.62,5.3 -2.22,8.01 -0.72,3.36 -1.26,6.74 -1.65,10.15 -0.13,1.16 0.82,2.19 1.95,2.29 1.18,0.1 2.14,-0.8 2.29,-1.95 0.33,-2.82 0.76,-5.62 1.35,-8.41 0.79,-3.56 1.85,-7.05 3.46,-10.34 0.54,-1.01 1.12,-1.99 1.85,-2.88 0.27,-0.27 0.55,-0.53 0.85,-0.76 0.09,-0.05 0.18,-0.1 0.27,-0.14 0.03,-0.01 0.07,-0.01 0.1,-0.02 0.08,0.05 0.16,0.1 0.24,0.16 0.22,0.23 0.42,0.47 0.61,0.72 0.67,1.12 1.18,2.34 1.6,3.57 1.42,4.53 2.18,9.24 2.77,13.97 0.21,1.62 1.95,2.7 3.49,2.42 1.69,-0.31 2.63,-1.87 2.43,-3.51 -0.44,-3.6 -1.02,-7.2 -1.93,-10.73 -0.63,-2.48 -1.46,-5.05 -2.8,-7.29 z"
         id="path160" />
      <path
         d="m 1069.62,1248.75 c 0.53,-0.99 1.15,-1.91 1.88,-2.78 0.55,-0.57 1.15,-1.1 1.81,-1.56 0.49,-0.29 1,-0.55 1.54,-0.75 0.41,-0.11 0.82,-0.19 1.24,-0.24 0.33,0.01 0.66,0.04 0.99,0.09 0.33,0.09 0.64,0.21 0.96,0.34 0.32,0.19 0.62,0.4 0.91,0.62 0.55,0.53 1.04,1.11 1.47,1.74 0.77,1.27 1.34,2.64 1.81,4.06 0.92,3.11 1.35,6.34 1.61,9.57 0.05,0.62 0.54,1.25 1.03,1.58 0.51,0.34 1.17,0.48 1.78,0.38 0.63,-0.13 1.2,-0.49 1.57,-1.04 0.37,-0.56 0.41,-1.12 0.37,-1.78 -0.26,-3.91 -0.88,-7.72 -2.17,-11.43 -0.81,-2.35 -2.11,-4.7 -3.98,-6.37 -1.58,-1.42 -3.44,-2.34 -5.59,-2.5 -1.88,-0.14 -3.83,0.43 -5.45,1.39 -2.03,1.18 -3.7,2.9 -4.97,4.88 -1.03,1.61 -1.78,3.4 -2.24,5.22 -0.57,2.32 -0.68,4.68 -0.31,7.05 0.4,2.57 1.54,4.91 2.99,7.02 0.31,0.46 0.99,0.72 1.53,0.78 0.59,0.04 1.22,-0.16 1.67,-0.55 0.44,-0.39 0.72,-0.94 0.78,-1.53 0.05,-0.66 -0.19,-1.15 -0.56,-1.68 -0.62,-0.97 -1.12,-2 -1.51,-3.09 -0.29,-1.01 -0.48,-2.04 -0.56,-3.09 -0.01,-1.06 0.07,-2.1 0.26,-3.13 0.29,-1.13 0.66,-2.18 1.14,-3.2 z"
         id="path162" />
      <path
         d="m 1116.86,1247.22 c -0.5,-0.97 -1.15,-1.9 -1.89,-2.68 -0.79,-0.82 -1.67,-1.42 -2.68,-1.92 -1.69,-0.83 -3.68,-0.93 -5.49,-0.47 -1.97,0.5 -3.73,1.59 -5.21,2.96 -1.11,1.02 -2.03,2.19 -2.83,3.45 -0.54,0.84 -1.02,1.72 -1.47,2.63 -1.22,2.47 -1.89,5.19 -2.31,7.9 -0.51,3.42 -0.35,6.93 0.12,10.33 0.17,1.18 1.41,1.96 2.56,1.75 1.2,-0.21 1.93,-1.36 1.76,-2.53 -0.15,-1.07 -0.26,-2.15 -0.32,-3.22 -0.08,-2.41 0.09,-4.8 0.55,-7.16 0.41,-1.81 1.01,-3.56 1.81,-5.24 0.65,-1.21 1.38,-2.34 2.26,-3.4 0.61,-0.65 1.26,-1.24 1.98,-1.76 0.52,-0.32 1.05,-0.59 1.61,-0.81 0.37,-0.1 0.75,-0.18 1.13,-0.22 0.27,0.01 0.54,0.03 0.82,0.07 0.28,0.08 0.54,0.18 0.81,0.29 0.25,0.15 0.48,0.32 0.71,0.5 0.35,0.35 0.66,0.72 0.94,1.12 0.45,0.77 0.82,1.57 1.11,2.42 0.53,1.81 0.8,3.68 0.92,5.55 0.13,3.64 -0.22,7.26 -0.77,10.86 -0.23,1.47 1.1,2.83 2.5,2.95 1.56,0.12 2.72,-1.03 2.95,-2.5 0.61,-4.12 0.88,-8.23 0.6,-12.38 -0.21,-2.91 -0.82,-5.9 -2.17,-8.49 z"
         id="path164" />
    </g>
  </g>
</svg>
