<?xml version="1.0" encoding="UTF-8" standalone="no"?>
<svg
   xmlns:dc="http://purl.org/dc/elements/1.1/"
   xmlns:cc="http://creativecommons.org/ns#"
   xmlns:rdf="http://www.w3.org/1999/02/22-rdf-syntax-ns#"
   xmlns:svg="http://www.w3.org/2000/svg"
   xmlns="http://www.w3.org/2000/svg"
   id="svg708"
   version="1.1"
   viewBox="0 0 21.994733 33.286624"
   height="33.286621mm"
   width="21.994732mm">
  <defs
     id="defs702" />
  <metadata
     id="metadata705">
    <rdf:RDF>
      <cc:Work
         rdf:about="">
        <dc:format>image/svg+xml</dc:format>
        <dc:type
           rdf:resource="http://purl.org/dc/dcmitype/StillImage" />
        <dc:title></dc:title>
      </cc:Work>
    </rdf:RDF>
  </metadata>
  <g
     transform="translate(104.10859,-172.26165)"
     id="layer1">
    <g
       transform="matrix(0.26458333,0,0,0.26458333,-167.34076,-64.382486)"
       className="mushroom"
       style="fill:#ff0000"
       id="g274">
      <path
         d="m 314.06,951.18 c -0.01,-0.07 -0.02,-0.14 -0.03,-0.21 0.01,0.11 0.03,0.23 0.04,0.34 0,-0.04 0,-0.09 -0.01,-0.13 z"
         id="path258" />
      <path
         d="m 302.09,1011.51 c 1.21,-1.05 2.15,-2.35 3.13,-3.6 0.55,-0.72 1.03,-1.47 1.43,-2.3 0.64,-1.27 1.19,-2.6 1.61,-3.96 0.45,-1.46 0.6,-3.04 0.78,-4.53 0.34,-2.55 -0.04,-5.19 -0.42,-7.7 -0.31,-2.11 -0.9,-4.18 -1.58,-6.18 -0.99,-2.92 -2.17,-5.77 -3.43,-8.56 -2.04,-4.48 -4.24,-8.86 -6.81,-13.05 0.68,-0.11 1.35,-0.21 2.03,-0.32 5.42,-0.9 10.82,-1.87 16.27,-2.54 1.05,-0.11 2.09,-0.18 3.15,-0.19 2.1,-0.05 3.8,-1.64 3.86,-3.77 0.05,-2.49 -0.16,-4.97 -0.4,-7.43 -0.32,-3.04 -0.75,-6.08 -1.31,-9.08 -1.09,-5.96 -2.86,-11.73 -5.11,-17.34 -1.92,-4.78 -4.47,-9.29 -7.63,-13.35 -0.42,-0.55 -0.86,-1.08 -1.31,-1.61 -3.56,-4.22 -8.15,-7.41 -13.25,-9.45 -3.86,-1.56 -8.08,-2.33 -12.23,-2.11 -4.28,0.23 -8.32,1.44 -12.15,3.3 -3.74,1.81 -7.14,4.44 -10.13,7.3 -3.22,3.07 -5.97,6.64 -8.41,10.34 -4.19,6.37 -7.29,13.58 -9.23,20.95 -1.87,7.08 -2.56,14.5 -1.38,21.76 0.43,2.59 3.45,4.09 5.83,3.5 0.52,-0.13 1.02,-0.35 1.46,-0.64 0.02,0.02 0.05,0.04 0.07,0.05 1.96,1.42 4.37,1.95 6.72,2.39 2.67,0.5 5.37,0.86 8.08,1.07 -4.66,7.1 -9.05,14.43 -12.3,22.28 -1.37,3.33 -2.55,6.77 -3.06,10.34 -0.47,3.25 -0.54,6.59 0.55,9.74 0.51,1.45 1.15,2.77 1.95,4.07 0.51,0.84 1.08,1.62 1.68,2.42 0.74,0.98 1.62,1.66 2.6,2.4 1.58,1.18 3.38,1.93 5.22,2.62 2.32,0.88 4.79,1.18 7.24,1.51 5.57,0.75 11.27,0.24 16.8,-0.45 2.09,-0.25 4.15,-0.63 6.18,-1.12 2.36,-0.58 4.65,-1.46 6.9,-2.43 2.4,-1.04 4.61,-2.61 6.6,-4.33 z m -43.45,-53.57 c -1.62,-0.25 -3.21,-0.62 -4.77,-1.14 -1.51,-0.51 -2.98,-1.15 -4.53,-1.55 -0.18,-0.04 -0.36,-0.07 -0.53,-0.09 -0.02,-0.1 -0.03,-0.21 -0.05,-0.31 -0.32,-3.33 -0.2,-6.66 0.21,-9.96 0.8,-5.15 2.26,-10.16 4.23,-14.99 2.1,-4.83 4.71,-9.41 7.91,-13.62 2.33,-2.88 4.92,-5.52 7.86,-7.79 1.9,-1.34 3.9,-2.5 6.05,-3.42 1.73,-0.63 3.51,-1.1 5.35,-1.37 1.65,-0.15 3.29,-0.12 4.93,0.05 1.85,0.32 3.65,0.83 5.4,1.5 1.95,0.88 3.77,1.95 5.48,3.22 2,1.67 3.79,3.56 5.4,5.6 2.74,3.8 4.87,7.96 6.64,12.3 3,7.91 4.79,16.22 5.82,24.62 -0.02,-0.17 -0.04,-0.34 -0.06,-0.51 0.03,0.24 0.06,0.48 0.08,0.72 0.01,0.1 0.02,0.2 0.04,0.3 -0.01,-0.06 -0.01,-0.11 -0.02,-0.17 0.01,0.13 0.03,0.27 0.04,0.4 -1.56,0.3 -3.12,0.57 -4.69,0.86 -3.06,0.57 -6.11,1.16 -9.17,1.71 -6.79,1.25 -13.59,2.45 -20.45,3.28 -6.99,0.77 -14.16,1.26 -21.17,0.36 z m 26.52,44.72 c -4.53,1.62 -9.3,2.54 -14.06,3.17 -3.25,0.32 -6.53,0.43 -9.77,0.09 -1.66,-0.29 -3.28,-0.72 -4.86,-1.31 -0.17,-0.09 -0.33,-0.18 -0.49,-0.27 -0.12,-0.12 -0.24,-0.25 -0.36,-0.38 -0.23,-0.36 -0.43,-0.73 -0.61,-1.12 -0.22,-0.68 -0.38,-1.37 -0.49,-2.07 -0.1,-1.37 -0.04,-2.74 0.13,-4.11 0.53,-3.2 1.54,-6.28 2.75,-9.29 3.38,-7.97 7.95,-15.4 12.75,-22.58 0.03,-0.05 0.05,-0.11 0.08,-0.16 3.35,-0.1 6.7,-0.37 10.03,-0.71 1.67,-0.17 3.33,-0.41 5,-0.62 0.02,0.1 0.02,0.2 0.04,0.3 1.17,5.12 2.89,10.08 4.41,15.1 1.14,3.8 2.07,7.72 2.62,11.67 0.15,1.68 0.19,3.37 0.05,5.06 -0.15,0.74 -0.33,1.47 -0.57,2.18 -0.23,0.45 -0.49,0.89 -0.77,1.32 -0.48,0.52 -0.99,1.01 -1.53,1.46 -1.39,0.88 -2.85,1.62 -4.35,2.27 z"
         id="path260" />
      <path
         d="m 289.17,914 c 0.02,-1.2 -0.48,-2.05 -1.19,-2.96 -0.65,-0.83 -1.95,-1.26 -2.94,-1.27 -1.11,-0.02 -2.18,0.42 -2.96,1.19 -0.81,0.77 -1.26,1.84 -1.27,2.94 -0.02,1.2 0.48,2.05 1.19,2.96 0.65,0.83 1.95,1.26 2.94,1.27 1.11,0.02 2.18,-0.42 2.96,-1.19 0.81,-0.77 1.26,-1.83 1.27,-2.94 z"
         id="path262" />
      <path
         d="m 300.02,934.99 c 1.19,0 2.37,-0.45 3.21,-1.29 0.86,-0.84 1.36,-1.99 1.37,-3.19 0.01,-1.3 -0.52,-2.22 -1.29,-3.21 -0.7,-0.9 -2.1,-1.36 -3.19,-1.37 -1.19,-0.01 -2.37,0.45 -3.21,1.29 -0.86,0.84 -1.36,1.99 -1.37,3.19 -0.01,1.3 0.52,2.22 1.29,3.21 0.7,0.9 2.1,1.36 3.19,1.37 z"
         id="path264" />
      <path
         d="m 274.93,938.75 c 0.01,-1.4 -0.56,-2.38 -1.39,-3.45 -0.74,-0.96 -2.24,-1.45 -3.4,-1.46 -1.28,-0.01 -2.53,0.49 -3.45,1.39 -0.91,0.89 -1.45,2.13 -1.46,3.4 -0.01,1.4 0.56,2.38 1.39,3.45 0.74,0.96 2.24,1.45 3.4,1.46 1.28,0.01 2.53,-0.49 3.45,-1.39 0.91,-0.89 1.44,-2.13 1.46,-3.4 z"
         id="path266" />
      <path
         d="m 274.62,920.91 c 0.01,-1.05 -0.42,-1.79 -1.04,-2.58 -0.57,-0.73 -1.7,-1.11 -2.58,-1.11 -0.95,-0.01 -1.9,0.37 -2.58,1.04 -0.7,0.67 -1.1,1.61 -1.11,2.58 -0.01,1.05 0.42,1.79 1.04,2.58 0.57,0.73 1.7,1.11 2.58,1.11 0.95,0.01 1.9,-0.37 2.58,-1.04 0.7,-0.67 1.1,-1.6 1.11,-2.58 z"
         id="path268" />
      <path
         d="m 259.82,947.68 c -0.41,-0.52 -1.24,-0.79 -1.86,-0.8 -0.7,-0.01 -1.37,0.26 -1.87,0.74 -0.49,0.49 -0.79,1.16 -0.8,1.86 -0.01,0.76 0.3,1.3 0.74,1.87 0.41,0.52 1.24,0.79 1.86,0.8 0.7,0.01 1.37,-0.26 1.87,-0.74 0.49,-0.49 0.79,-1.16 0.8,-1.86 0.01,-0.75 -0.3,-1.3 -0.74,-1.87 z"
         id="path270" />
      <path
         d="m 291.08,947.34 c 0.83,-0.79 1.3,-1.9 1.32,-3.05 0.01,-1.25 -0.5,-2.13 -1.25,-3.08 -0.66,-0.85 -2.01,-1.3 -3.05,-1.32 -1.14,-0.01 -2.26,0.45 -3.08,1.25 -0.83,0.79 -1.3,1.9 -1.32,3.05 -0.01,1.25 0.5,2.13 1.25,3.08 0.66,0.85 2.02,1.3 3.05,1.32 1.14,0.01 2.27,-0.45 3.08,-1.25 z"
         id="path272" />
    </g>
  </g>
</svg>
