<?xml version="1.0" encoding="UTF-8" standalone="no"?>
<svg
   xmlns:dc="http://purl.org/dc/elements/1.1/"
   xmlns:cc="http://creativecommons.org/ns#"
   xmlns:rdf="http://www.w3.org/1999/02/22-rdf-syntax-ns#"
   xmlns:svg="http://www.w3.org/2000/svg"
   xmlns="http://www.w3.org/2000/svg"
   id="svg708"
   version="1.1"
   viewBox="0 0 33.008713 26.508096"
   height="26.508095mm"
   width="33.008713mm">
  <defs
     id="defs702" />
  <metadata
     id="metadata705">
    <rdf:RDF>
      <cc:Work
         rdf:about="">
        <dc:format>image/svg+xml</dc:format>
        <dc:type
           rdf:resource="http://purl.org/dc/dcmitype/StillImage" />
        <dc:title></dc:title>
      </cc:Work>
    </rdf:RDF>
  </metadata>
  <g
     transform="translate(93.278117,-131.67897)"
     id="layer1">
    <path
       style="stroke-width:0.264583"
       d="m -64.425798,152.00568 c 0.177271,-0.5027 0.283104,-1.03187 0.322792,-1.56104 0.0291,-0.39952 0.07937,-0.80168 0.0926,-1.20121 0.455083,-1.86795 0.896937,-3.7412 1.394354,-5.59858 0.624417,-2.26219 1.3335,-4.50321 2.243667,-6.6675 0.182562,-0.43392 0.119062,-0.94456 -0.164042,-1.32027 -0.113771,-0.14817 -0.248708,-0.25929 -0.396875,-0.34131 -0.246062,-0.13494 -0.534458,-0.18256 -0.833437,-0.15875 -0.619125,0.0423 -1.230313,0.0661 -1.852084,0.0714 -1.939396,-0.0238 -3.862916,-0.24342 -5.741458,-0.73025 -1.2065,-0.3519 -2.36802,-0.81228 -3.466041,-1.42611 -0.510646,-0.31485 -0.997479,-0.65881 -1.463146,-1.04246 -0.333375,-0.27516 -0.775229,-0.33602 -1.172104,-0.22225 -0.02646,-0.0132 -0.05292,-0.0265 -0.08202,-0.0397 -0.272521,-0.11907 -0.584729,-0.11642 -0.854604,-0.003 -0.235479,0.0979 -0.508,0.32279 -0.582084,0.58208 -1.500187,5.07471 -2.264833,10.31875 -3.487208,15.45961 -0.02646,0.0688 -0.05292,0.13758 -0.07673,0.20637 -0.396875,-0.45244 -0.844021,-0.87312 -1.312333,-1.25148 -0.992188,-0.79375 -2.148417,-1.30968 -3.373438,-1.60602 -1.034521,-0.24606 -2.164292,-0.23548 -3.196167,-0.005 -1.029229,0.22754 -2.00025,0.6694 -2.817812,1.32821 -0.775229,0.62177 -1.391708,1.4605 -1.730375,2.39448 -0.357188,0.99219 -0.396875,2.09021 -0.132292,3.10885 0.338667,1.27265 1.031875,2.39977 1.920875,3.36815 1.108604,1.21708 2.457979,2.23044 4.069292,2.65906 1.153583,0.30692 2.341562,0.20373 3.46075,-0.20637 1.193271,-0.43657 2.198687,-1.31234 3.021542,-2.2569 0.174625,-0.19844 0.346604,-0.39688 0.508,-0.60325 0.179916,-0.23813 0.3175,-0.51329 0.439208,-0.78052 0.296333,-0.63236 0.481542,-1.31498 0.637646,-1.99496 0.145521,-0.65881 0.259291,-1.3335 0.359833,-2.00025 0.05027,-0.34925 0.0926,-0.70115 0.148167,-1.0504 1.185333,-4.81806 1.939396,-9.72872 3.198812,-14.53091 1.857375,1.35996 4.019021,2.1881 6.257396,2.70933 1.80975,0.42598 3.693583,0.60061 5.564187,0.58208 -0.849312,2.39713 -1.542521,4.84717 -2.151062,7.31838 -0.523875,-0.61119 -1.198562,-1.09273 -1.949979,-1.38642 -0.98425,-0.39158 -2.0955,-0.45508 -3.137958,-0.29104 -1.100667,0.16933 -2.124605,0.61913 -3.055938,1.21708 -0.881062,0.55828 -1.653646,1.34673 -2.193396,2.23309 -0.629708,1.05039 -0.957791,2.1881 -0.923396,3.41048 0.02911,1.39171 0.590021,2.72521 1.389063,3.84968 0.915458,1.27794 2.354792,2.08228 3.894667,2.29659 1.939395,0.26987 4.013729,-0.51594 5.442478,-1.82034 0.791104,-0.74877 1.418167,-1.66158 1.780646,-2.69875 z m -17.211145,1.29117 c -0.04762,0.14288 -0.103188,0.28046 -0.169334,0.4154 -0.153458,0.2196 -0.333375,0.42068 -0.521229,0.61383 -0.428625,0.41275 -0.883708,0.7911 -1.389062,1.10331 -0.336021,0.17992 -0.677334,0.33073 -1.034521,0.4445 -0.293688,0.0688 -0.584729,0.11113 -0.889,0.12965 -0.336021,-0.0106 -0.661458,-0.0556 -0.986896,-0.13229 -0.362479,-0.11642 -0.709083,-0.26723 -1.045104,-0.4445 -0.582083,-0.35719 -1.100667,-0.78317 -1.590146,-1.25413 -0.463021,-0.48683 -0.878417,-1.00541 -1.225021,-1.57691 -0.179916,-0.34396 -0.330729,-0.69586 -0.447146,-1.06363 -0.07144,-0.30162 -0.11377,-0.60325 -0.129645,-0.91281 0.01058,-0.254 0.04233,-0.50271 0.09525,-0.75142 0.08202,-0.25135 0.182562,-0.49477 0.306916,-0.73025 0.164042,-0.25664 0.34925,-0.49477 0.563563,-0.71702 0.248708,-0.2249 0.515937,-0.42333 0.801687,-0.59796 0.362479,-0.1905 0.738188,-0.34396 1.129771,-0.46037 0.452438,-0.10584 0.910167,-0.15875 1.375833,-0.17198 0.463021,0.0185 0.92075,0.082 1.367896,0.18785 0.529167,0.1614 1.037167,0.37836 1.516063,0.64823 0.494771,0.31221 0.947208,0.67469 1.370541,1.0795 0.502709,0.52652 0.939271,1.10596 1.325563,1.72244 -0.129646,0.8255 -0.230188,1.65894 -0.425979,2.46856 z m 13.6525,-0.56621 c -0.328084,0.30692 -0.679979,0.57944 -1.060979,0.81492 -0.325438,0.17198 -0.658813,0.30956 -1.005417,0.42333 -0.341313,0.0794 -0.682625,0.12965 -1.034521,0.14288 -0.277812,-0.0132 -0.550333,-0.0503 -0.822854,-0.10848 -0.272521,-0.0873 -0.529167,-0.19579 -0.777875,-0.33073 -0.216958,-0.14288 -0.418042,-0.29898 -0.611188,-0.47625 -0.246062,-0.26458 -0.460375,-0.55033 -0.656166,-0.85725 -0.203729,-0.381 -0.373063,-0.76994 -0.500063,-1.1774 -0.07408,-0.32543 -0.121708,-0.65087 -0.137583,-0.98425 0.01058,-0.3175 0.05027,-0.62706 0.121708,-0.93662 0.100542,-0.30956 0.22225,-0.60854 0.373063,-0.89429 0.214312,-0.34396 0.463021,-0.66411 0.740833,-0.96044 0.336021,-0.31485 0.701146,-0.59267 1.095375,-0.83608 0.423333,-0.23019 0.859896,-0.4154 1.317625,-0.55298 0.394229,-0.0926 0.791104,-0.15082 1.193271,-0.16669 0.301625,0.0159 0.597958,0.0503 0.891646,0.11377 0.22225,0.0688 0.439208,0.1561 0.645583,0.26194 0.182563,0.11641 0.34925,0.24871 0.510646,0.39158 0.164042,0.18256 0.309562,0.37571 0.441854,0.58473 0.134938,0.26723 0.243417,0.53975 0.336021,0.8255 0.129645,0.53446 0.187854,1.06892 0.206374,1.61925 0,0.0318 -0.0026,0.0635 -0.0026,0.0953 -0.01588,0.254 0.0079,0.48419 0.105833,0.6985 -0.134938,0.41275 -0.301625,0.80698 -0.508,1.19063 -0.254,0.40481 -0.537104,0.77522 -0.862541,1.11918 z"
       id="path196" />
  </g>
</svg>
