<?xml version="1.0" encoding="UTF-8" standalone="no"?>
<svg
   xmlns:dc="http://purl.org/dc/elements/1.1/"
   xmlns:cc="http://creativecommons.org/ns#"
   xmlns:rdf="http://www.w3.org/1999/02/22-rdf-syntax-ns#"
   xmlns:svg="http://www.w3.org/2000/svg"
   xmlns="http://www.w3.org/2000/svg"
   id="svg708"
   version="1.1"
   viewBox="0 0 30.461856 37.174081"
   height="37.174076mm"
   width="30.461855mm">
  <defs
     id="defs702" />
  <metadata
     id="metadata705">
    <rdf:RDF>
      <cc:Work
         rdf:about="">
        <dc:format>image/svg+xml</dc:format>
        <dc:type
           rdf:resource="http://purl.org/dc/dcmitype/StillImage" />
        <dc:title></dc:title>
      </cc:Work>
    </rdf:RDF>
  </metadata>
  <g
     transform="translate(235.66361,-126.5783)"
     id="layer1">
    <g
       transform="matrix(0.26458333,0,0,0.26458333,-394.702,-244.60565)"
       className="music1"
       style="fill:#ffffff"
       id="g54">
      <path
         d="m 713.02,1460.46 c 0,-0.1 0.01,-0.21 0.01,-0.31 0,0.09 -0.01,0.18 -0.01,0.27 0,0.01 0,0.02 0,0.04 z"
         id="path50" />
      <path
         d="m 714.46,1406.74 c -0.61,-1.98 -2.69,-3.44 -4.64,-3.76 -0.33,-0.06 -0.67,-0.08 -1,-0.08 -1.82,0 -3.54,0.83 -4.71,2.23 -0.39,0.47 -0.8,0.9 -1.22,1.33 -1.85,1.62 -3.84,3.03 -5.97,4.27 -3.27,1.7 -6.64,2.97 -10.19,3.89 -4.72,1.03 -9.48,1.45 -14.32,1.41 -6.21,-0.22 -12.34,-1.06 -18.39,-2.48 -1.5,-0.34 -2.96,0.4 -3.92,1.54 -0.06,0 -0.12,0 -0.18,0.01 -2.66,0.27 -4.22,2.56 -4.15,5.1 0.41,12.53 2.61,24.83 4.83,37.14 1.8,9.79 3.67,19.65 4.33,29.61 -3.09,-1.24 -6.36,-2.08 -9.6,-2.58 -6.32,-0.98 -12.67,-0.22 -18.78,1.46 -2.54,0.68 -4.96,1.71 -7.28,2.93 -2.69,1.42 -5.23,3 -7.54,4.98 -4.08,3.44 -7.59,7.84 -9.3,12.97 -0.46,1.37 -0.86,2.73 -1.1,4.15 -0.24,1.44 -0.22,2.93 -0.24,4.37 0,2.73 0.76,5.57 1.81,8.08 2.54,6.13 7.62,10.96 13.11,14.5 1.64,1.07 3.32,2.08 5.1,2.91 1.64,0.81 3.42,1.29 5.15,1.83 3.08,0.93 6.52,1.02 9.69,0.64 2.88,-0.37 5.74,-1.3 8.3,-2.64 3.27,-1.68 6.01,-3.78 8.64,-6.35 5.27,-5.13 9.16,-11.7 11.99,-18.43 2.76,-6.54 4.44,-13.67 4.96,-20.75 0.1,-1.54 -0.05,-2.91 -1,-4.2 -0.85,-1.17 -2.15,-1.95 -3.56,-2.2 -0.16,-0.03 -0.32,-0.05 -0.48,-0.06 -0.34,-3.84 -0.74,-7.67 -1.3,-11.49 -0.93,-6.54 -2.15,-13.04 -3.35,-19.53 -0.46,-2.47 -0.91,-4.95 -1.36,-7.42 3.92,-0.57 7.81,-1.3 11.66,-2.26 2.93,-0.71 5.81,-1.55 8.68,-2.38 0.23,2.4 0.45,4.81 0.59,7.22 0.24,4 0.32,8.03 0.29,12.04 0,1.1 0.78,2.27 1.59,2.93 0.9,0.73 2.05,1.07 3.2,0.95 1.12,-0.12 2.2,-0.68 2.91,-1.59 0.78,-0.95 0.98,-2 0.95,-3.2 -0.02,-4 -0.19,-8.01 -0.49,-12.01 -0.32,-3.96 -0.73,-7.98 -1.54,-11.87 -0.24,-1.07 -0.59,-1.95 -1.46,-2.69 -0.69,-0.56 -1.64,-0.9 -2.56,-0.9 -0.48,0 -0.96,0.09 -1.39,0.29 -4.9,2.16 -10.11,3.63 -15.32,4.91 -2.74,0.61 -5.51,1.11 -8.3,1.52 -1.11,-6.8 -1.96,-13.63 -2.34,-20.52 9.11,1.92 18.39,2.84 27.69,2.08 5.08,-0.41 10.11,-1.54 14.92,-3.15 1.87,-0.63 3.66,-1.4 5.4,-2.27 0.01,0.91 0,1.82 -0.01,2.72 -0.31,7.37 -1.31,14.69 -2,22.04 -0.78,8.11 -1.32,16.53 0.32,24.56 0.32,1.56 0.83,2.83 2.1,3.86 1.17,0.98 2.69,1.42 4.2,1.27 1.51,-0.17 2.91,-0.93 3.88,-2.1 1.03,-1.25 1.27,-2.64 1.25,-4.2 -0.04,-2.31 -0.05,-4.62 0,-6.91 -0.01,0.18 -0.01,0.36 -0.02,0.54 0.01,-0.19 0.02,-0.39 0.02,-0.58 0.01,-0.36 0.02,-0.72 0.03,-1.08 0,0.27 -0.01,0.54 -0.01,0.81 0.34,-8.53 1.58,-16.96 2.43,-25.45 0.49,-4.74 0.73,-9.47 0.76,-14.23 0.03,-4.64 -0.41,-9.26 -1.76,-13.73 z m -65.42,110.37 c -1.78,2.75 -3.75,5.33 -6.04,7.66 -1.4,1.25 -2.87,2.37 -4.47,3.35 -1.05,0.5 -2.12,0.93 -3.24,1.28 -1.02,0.19 -2.05,0.3 -3.1,0.34 -1.2,-0.1 -2.37,-0.3 -3.55,-0.6 -1.76,-0.63 -3.41,-1.43 -5.03,-2.37 -2.09,-1.36 -4.05,-2.88 -5.84,-4.63 -0.88,-1.02 -1.68,-2.09 -2.39,-3.24 -0.43,-0.89 -0.79,-1.79 -1.09,-2.73 -0.14,-0.79 -0.22,-1.59 -0.25,-2.4 0.09,-0.99 0.27,-1.95 0.51,-2.92 0.4,-1.07 0.88,-2.1 1.44,-3.11 1,-1.5 2.16,-2.86 3.43,-4.14 1.69,-1.49 3.52,-2.81 5.47,-3.97 2.75,-1.43 5.62,-2.55 8.62,-3.36 2.8,-0.59 5.62,-0.88 8.49,-0.87 2.63,0.16 5.19,0.57 7.73,1.26 2.51,0.87 4.88,2.01 7.22,3.26 -2.06,5.95 -4.68,11.77 -7.91,17.19 z"
         id="path52" />
    </g>
  </g>
</svg>
