<?xml version="1.0" encoding="UTF-8" standalone="no"?>
<svg
   xmlns:dc="http://purl.org/dc/elements/1.1/"
   xmlns:cc="http://creativecommons.org/ns#"
   xmlns:rdf="http://www.w3.org/1999/02/22-rdf-syntax-ns#"
   xmlns:svg="http://www.w3.org/2000/svg"
   xmlns="http://www.w3.org/2000/svg"
   id="svg708"
   version="1.1"
   viewBox="0 0 28.875999 32.486094"
   height="32.486092mm"
   width="28.875999mm">
  <defs
     id="defs702" />
  <metadata
     id="metadata705">
    <rdf:RDF>
      <cc:Work
         rdf:about="">
        <dc:format>image/svg+xml</dc:format>
        <dc:type
           rdf:resource="http://purl.org/dc/dcmitype/StillImage" />
        <dc:title></dc:title>
      </cc:Work>
    </rdf:RDF>
  </metadata>
  <g
     transform="translate(42.096785,-230.46509)"
     id="layer1">
    <g
       transform="matrix(0.26458333,0,0,0.26458333,-412.63315,110.02411)"
       className="palette"
       style="fill:#ffffff"
       id="g126">
      <path
         d="m 1440.81,474.89 c -0.07,0.04 -0.14,0.08 -0.21,0.13 0.13,-0.08 0.26,-0.16 0.39,-0.24 -0.05,0.04 -0.11,0.08 -0.18,0.11 z"
         id="path112" />
      <path
         d="m 1505.9,510.58 c -0.5,-0.99 -1.05,-1.95 -1.58,-2.93 0.75,-1.21 0.78,-2.88 -0.19,-4.01 -0.39,-0.46 -0.75,-0.92 -1.08,-1.41 -0.25,-0.5 -0.48,-1 -0.66,-1.53 -0.13,-0.58 -0.21,-1.16 -0.24,-1.75 0.03,-0.97 0.17,-1.92 0.37,-2.87 0.97,-3.52 2.66,-6.77 4.14,-10.07 1.55,-3.46 2.94,-7.23 2.93,-11.07 -0.03,-6.43 -3.54,-12.49 -9.09,-15.74 -5.27,-3.06 -11.42,-3.99 -17.44,-3.99 -0.27,0 -0.55,0 -0.82,0.01 -6.76,0.09 -13.44,1.1 -20.01,2.68 -5.38,1.29 -10.73,2.9 -15.82,5.09 -8.38,3.59 -16.28,8.53 -23.14,14.54 -3.39,2.97 -6.53,6.27 -9.37,9.78 -2.77,3.44 -5.11,7.19 -7.16,11.09 -3.93,7.47 -6.14,15.95 -6.28,24.38 -0.16,9.44 2.22,18.72 6.45,27.14 2.09,4.19 4.68,8.13 7.77,11.65 2.95,3.33 6.37,6.28 10.08,8.71 7.32,4.78 15.94,7.52 24.69,7.7 4.49,0.1 8.95,-0.42 13.28,-1.58 4.55,-1.23 8.81,-3.04 12.92,-5.35 12.51,-7.01 23.25,-17.61 29.29,-30.72 1.46,-3.16 2.48,-6.45 3.26,-9.84 0.82,-3.54 1.16,-7.32 0.75,-10.93 -0.36,-3.16 -1.62,-6.19 -3.05,-8.98 z m -4.8,15.47 c -1.04,4.24 -2.62,8.28 -4.66,12.14 -2.66,4.65 -5.88,8.93 -9.56,12.83 -4.29,4.31 -9.1,8.07 -14.31,11.2 -3.72,2.13 -7.6,3.93 -11.71,5.16 -3.13,0.81 -6.32,1.29 -9.56,1.43 -3.35,0.02 -6.67,-0.35 -9.94,-1.09 -3.33,-0.89 -6.52,-2.14 -9.56,-3.75 -3.02,-1.74 -5.82,-3.82 -8.37,-6.19 -2.71,-2.72 -5.09,-5.73 -7.11,-9.02 -2.32,-4.03 -4.17,-8.33 -5.5,-12.79 -0.99,-3.76 -1.58,-7.59 -1.73,-11.48 -0.02,-3.88 0.39,-7.73 1.23,-11.51 1.15,-4.55 2.9,-8.9 5.14,-13.01 2.66,-4.58 5.86,-8.78 9.49,-12.63 4.68,-4.74 9.95,-8.83 15.64,-12.31 -0.08,0.04 -0.15,0.09 -0.23,0.13 0.15,-0.09 0.29,-0.17 0.44,-0.26 0.16,-0.1 0.32,-0.19 0.48,-0.29 -0.1,0.06 -0.19,0.12 -0.29,0.18 3.58,-2.07 7.3,-3.93 11.15,-5.44 2.88,-1.13 5.83,-2.09 8.81,-2.93 6.81,-1.87 13.82,-3.21 20.89,-3.47 3.39,-0.05 6.78,0.18 10.09,0.92 1.56,0.43 3.08,0.98 4.53,1.71 0.93,0.55 1.81,1.17 2.61,1.89 0.64,0.69 1.21,1.42 1.72,2.22 0.46,0.86 0.84,1.74 1.14,2.66 0.19,0.77 0.32,1.54 0.39,2.33 -0.02,1.15 -0.17,2.28 -0.41,3.41 -1.35,4.94 -4,9.4 -5.58,14.25 -0.4,1.22 -0.7,2.5 -0.93,3.76 -0.24,1.36 -0.23,2.74 -0.14,4.12 0.17,2.84 1.55,5.59 3.39,7.73 0.03,0.04 0.06,0.07 0.09,0.1 0.77,2.4 1.72,4.75 2.47,7.16 0.38,1.4 0.63,2.78 0.72,4.22 -0.01,2.22 -0.36,4.43 -0.83,6.62 z"
         id="path114" />
      <path
         d="m 1429.06,513.93 c 1.18,0.89 2.51,1.59 3.87,2.14 2.65,1.08 5.64,1.28 8.41,0.6 0.7,-0.17 1.38,-0.4 2.04,-0.69 0.67,-0.29 1.31,-0.7 1.91,-1.13 0.65,-0.44 1.2,-0.99 1.74,-1.56 0.6,-0.65 1.13,-1.33 1.58,-2.11 0.89,-1.58 1.36,-3.27 1.72,-5.03 0.4,-2.02 0.52,-4.15 0.4,-6.2 -0.11,-1.78 -0.56,-3.61 -1.22,-5.26 -0.32,-0.77 -0.76,-1.49 -1.23,-2.18 -0.2,-0.27 -0.43,-0.5 -0.67,-0.75 -0.63,-0.63 -1.29,-1.19 -2.02,-1.71 -0.9,-0.63 -1.94,-1.1 -2.98,-1.39 -0.53,-0.13 -1.03,-0.23 -1.56,-0.27 -0.15,-0.01 -0.3,-0.02 -0.46,-0.02 -0.37,0 -0.74,0.03 -1.11,0.06 -0.5,0.03 -1.03,0.2 -1.51,0.34 -0.46,0.14 -0.89,0.3 -1.33,0.49 -1.16,0.5 -2.24,1.23 -3.3,1.94 -1.02,0.66 -2.01,1.38 -3.01,2.09 -0.73,0.51 -1.01,1.43 -0.87,2.28 -0.4,-0.22 -0.95,-0.25 -1.28,0.09 -1.2,1.16 -2.29,2.41 -3.08,3.89 -0.73,1.35 -1.19,2.77 -1.32,4.3 -0.23,2.65 0.83,5.28 2.42,7.36 0.78,1.04 1.79,1.94 2.86,2.72 z m -2.73,-11.23 c 0.2,-0.74 0.48,-1.44 0.82,-2.12 0.59,-1.02 1.29,-1.93 2.09,-2.79 0.11,-0.11 0.22,-0.22 0.32,-0.32 0.21,-0.21 0.35,-0.46 0.41,-0.72 0.39,0.46 0.95,0.75 1.54,0.82 0.22,-0.01 0.42,-0.01 0.62,-0.01 0.42,-0.07 0.79,-0.23 1.13,-0.49 1.14,-0.69 2.27,-1.43 3.41,-2.14 0.86,-0.48 1.74,-0.91 2.67,-1.24 0.34,-0.08 0.69,-0.14 1.04,-0.18 0.26,0.01 0.52,0.04 0.78,0.08 0.37,0.12 0.72,0.26 1.07,0.43 0.61,0.38 1.18,0.8 1.71,1.28 0.2,0.24 0.39,0.49 0.56,0.74 0.38,0.71 0.66,1.45 0.9,2.21 0.38,1.59 0.61,3.23 0.69,4.87 0,1.33 -0.14,2.62 -0.42,3.91 -0.22,0.79 -0.5,1.55 -0.86,2.28 -0.41,0.67 -0.88,1.3 -1.42,1.88 -0.52,0.47 -1.05,0.89 -1.65,1.26 -0.6,0.33 -1.22,0.62 -1.88,0.84 -0.77,0.2 -1.54,0.31 -2.33,0.36 -1.12,-0.01 -2.21,-0.15 -3.3,-0.39 -1.03,-0.28 -2.02,-0.66 -2.97,-1.15 -0.82,-0.48 -1.58,-1.04 -2.29,-1.67 -0.66,-0.66 -1.25,-1.37 -1.76,-2.15 -0.34,-0.6 -0.61,-1.22 -0.83,-1.87 -0.14,-0.56 -0.23,-1.12 -0.27,-1.7 0.01,-0.7 0.08,-1.36 0.22,-2.02 z"
         id="path116" />
      <path
         d="m 1432.38,546.92 c 0.02,0.01 0.05,0.03 0.07,0.04 -0.07,-0.04 -0.15,-0.09 -0.23,-0.13 0.06,0.03 0.11,0.06 0.16,0.09 z"
         id="path118" />
      <path
         d="m 1458.83,532.08 c -1.05,-1.68 -2.45,-3.13 -3.94,-4.42 -1.55,-1.33 -3.39,-2.35 -5.26,-3.13 -1.71,-0.72 -3.6,-1.12 -5.44,-1.31 -0.56,-0.06 -1.14,-0.08 -1.71,-0.08 -1.47,0 -2.94,0.18 -4.36,0.49 -3.37,0.75 -6.44,2.44 -9.09,4.63 -0.69,0.57 -1.05,1.42 -1,2.26 -2.7,1.85 -5.24,4.4 -5.57,7.81 -0.29,3.13 1.55,5.88 3.72,7.95 2.64,2.52 5.98,4.3 9.35,5.65 3.69,1.49 7.63,2.45 11.58,2.83 1.86,0.17 3.76,0.16 5.61,-0.06 1.64,-0.19 3.3,-0.57 4.81,-1.26 1.49,-0.67 2.8,-1.68 3.8,-2.97 1.03,-1.31 1.59,-2.95 1.79,-4.6 0.26,-2.04 -0.14,-4.1 -0.72,-6.05 -0.8,-2.75 -2.05,-5.34 -3.57,-7.74 z m -0.14,14.25 c -0.12,0.4 -0.27,0.79 -0.46,1.18 -0.23,0.38 -0.5,0.74 -0.8,1.07 -0.39,0.36 -0.8,0.67 -1.25,0.96 -0.82,0.45 -1.7,0.79 -2.6,1.06 -1.36,0.34 -2.75,0.49 -4.15,0.54 -2.78,0.04 -5.54,-0.31 -8.26,-0.92 -3.01,-0.74 -5.96,-1.81 -8.71,-3.25 0.02,0.01 0.03,0.02 0.05,0.03 -0.04,-0.02 -0.08,-0.05 -0.12,-0.07 -0.08,-0.04 -0.17,-0.09 -0.25,-0.13 0.03,0.01 0.06,0.03 0.09,0.04 -1.48,-0.84 -2.9,-1.8 -4.16,-2.96 -0.69,-0.69 -1.31,-1.42 -1.83,-2.24 -0.24,-0.45 -0.45,-0.91 -0.62,-1.39 -0.1,-0.39 -0.17,-0.78 -0.2,-1.18 0,-0.42 0.04,-0.83 0.13,-1.24 0.12,-0.41 0.28,-0.79 0.46,-1.17 0.38,-0.67 0.85,-1.27 1.36,-1.84 0.72,-0.73 1.52,-1.37 2.36,-1.95 0.85,0.32 1.86,0.22 2.6,-0.39 0.63,-0.53 1.29,-1.02 1.98,-1.46 1.33,-0.72 2.72,-1.29 4.17,-1.73 1.34,-0.33 2.67,-0.53 4.05,-0.59 1.36,0.02 2.7,0.15 4.03,0.43 1.25,0.34 2.44,0.8 3.59,1.39 1.13,0.66 2.16,1.43 3.11,2.32 0.97,1.01 1.81,2.1 2.55,3.3 1.08,1.87 2.04,3.8 2.65,5.87 0.22,0.9 0.37,1.8 0.41,2.73 -0.02,0.54 -0.07,1.06 -0.18,1.59 z"
         id="path120" />
      <path
         d="m 1470.07,495.86 c 1.59,1.13 3.44,1.98 5.34,2.44 2.05,0.49 4.15,0.66 6.24,0.32 0.96,-0.16 1.94,-0.46 2.81,-0.89 1.12,-0.53 2.02,-1.26 2.88,-2.15 1.64,-1.68 2.48,-3.97 2.81,-6.25 0.2,-1.41 0.13,-2.88 0,-4.29 -0.19,-1.91 -0.65,-3.82 -1.46,-5.55 -1.13,-2.4 -3.1,-4.29 -5.58,-5.22 -1.02,-0.4 -2.17,-0.57 -3.26,-0.57 -0.72,0.01 -1.41,0.04 -2.12,0.16 -0.7,0.13 -1.41,0.36 -2.09,0.57 -1.15,0.37 -2.18,1 -3.21,1.62 -1.18,0.73 -2.14,1.69 -3.08,2.68 -0.95,0.99 -1.64,2.21 -2.25,3.43 -0.6,1.19 -0.85,2.54 -1.03,3.84 0.01,-0.02 0.01,-0.04 0.02,-0.06 -0.1,0.45 -0.14,0.86 -0.05,1.3 -0.38,1.51 -0.2,3.12 0.43,4.54 0.73,1.67 2.12,3.03 3.6,4.08 z m -0.44,-6.8 c 0.57,-0.24 1.26,-0.83 1.42,-1.48 0.08,-0.34 0.22,-0.64 0.37,-0.95 0.68,-1.16 1.46,-2.22 2.35,-3.21 0.74,-0.7 1.52,-1.33 2.37,-1.9 0.66,-0.36 1.34,-0.67 2.06,-0.92 0.55,-0.13 1.1,-0.22 1.67,-0.27 0.34,0.02 0.68,0.05 1.03,0.11 0.29,0.09 0.56,0.19 0.84,0.32 0.24,0.16 0.47,0.34 0.7,0.52 0.3,0.33 0.56,0.68 0.81,1.05 0.36,0.69 0.64,1.4 0.88,2.16 0.31,1.21 0.52,2.44 0.59,3.69 -0.01,0.75 -0.07,1.5 -0.22,2.24 -0.12,0.42 -0.28,0.82 -0.47,1.22 -0.21,0.34 -0.44,0.65 -0.71,0.95 -0.31,0.28 -0.63,0.53 -0.97,0.75 -0.51,0.27 -1.04,0.48 -1.58,0.66 -0.73,0.19 -1.49,0.29 -2.25,0.34 -1.07,-0.01 -2.12,-0.13 -3.16,-0.36 -1.04,-0.28 -2.04,-0.65 -2.98,-1.15 -0.61,-0.38 -1.19,-0.8 -1.71,-1.29 -0.33,-0.35 -0.63,-0.74 -0.89,-1.16 -0.13,-0.25 -0.23,-0.5 -0.33,-0.76 -0.03,-0.16 -0.06,-0.32 -0.08,-0.47 0.09,-0.02 0.18,-0.06 0.26,-0.09 z"
         id="path122" />
      <path
         d="m 1489.35,515.08 c -1.31,-1.03 -2.88,-1.64 -4.49,-1.99 -0.84,-0.19 -1.69,-0.28 -2.54,-0.28 -1.97,0 -3.94,0.48 -5.73,1.3 -1.48,0.67 -2.83,1.66 -3.97,2.81 -1.29,1.31 -2.4,2.7 -3.28,4.3 -0.1,0.2 -0.22,0.39 -0.33,0.59 -0.15,0.4 -0.19,0.79 -0.15,1.2 -0.15,0.21 -0.29,0.43 -0.42,0.65 -0.65,1.1 -1.06,2.28 -1.22,3.56 -0.27,2.28 0.57,4.5 1.85,6.34 1.36,1.98 3.39,3.43 5.49,4.5 0.99,0.5 2.04,0.87 3.11,1.13 1.25,0.32 2.5,0.52 3.79,0.49 0.65,-0.01 1.28,-0.04 1.92,-0.16 0.63,-0.1 1.26,-0.29 1.88,-0.49 1.25,-0.39 2.42,-1.12 3.43,-1.95 2.5,-2.05 3.86,-5.12 4.58,-8.2 0.79,-3.37 0.82,-7.14 -0.89,-10.26 -0.79,-1.38 -1.78,-2.55 -3.03,-3.54 z m -1.33,13.72 c -0.26,0.96 -0.6,1.88 -1.04,2.77 -0.37,0.61 -0.79,1.18 -1.27,1.71 -0.41,0.39 -0.85,0.72 -1.33,1.03 -0.54,0.29 -1.09,0.53 -1.67,0.71 -0.7,0.17 -1.4,0.27 -2.12,0.31 -0.84,-0.01 -1.67,-0.11 -2.49,-0.28 -0.98,-0.27 -1.92,-0.63 -2.82,-1.09 -0.82,-0.48 -1.58,-1.04 -2.28,-1.67 -0.51,-0.52 -0.96,-1.1 -1.36,-1.72 -0.23,-0.43 -0.42,-0.87 -0.58,-1.35 -0.08,-0.37 -0.14,-0.73 -0.17,-1.11 0.01,-0.4 0.05,-0.8 0.13,-1.19 0.14,-0.45 0.32,-0.88 0.53,-1.3 0.08,-0.13 0.16,-0.25 0.25,-0.38 0.66,-0.09 1.27,-0.42 1.63,-1 0.56,-0.87 1.16,-1.69 1.84,-2.45 0.71,-0.67 1.48,-1.26 2.31,-1.8 0.81,-0.44 1.64,-0.8 2.51,-1.08 0.67,-0.16 1.33,-0.26 2.01,-0.31 0.57,0.02 1.14,0.08 1.71,0.18 0.54,0.16 1.05,0.35 1.55,0.6 0.4,0.26 0.78,0.54 1.13,0.85 0.35,0.38 0.66,0.79 0.94,1.23 0.26,0.5 0.47,1 0.65,1.53 0.19,0.8 0.3,1.6 0.34,2.41 -0.02,1.16 -0.15,2.27 -0.4,3.4 z"
         id="path124" />
    </g>
  </g>
</svg>
