<?xml version="1.0" encoding="UTF-8" standalone="no"?>
<svg
   xmlns:dc="http://purl.org/dc/elements/1.1/"
   xmlns:cc="http://creativecommons.org/ns#"
   xmlns:rdf="http://www.w3.org/1999/02/22-rdf-syntax-ns#"
   xmlns:svg="http://www.w3.org/2000/svg"
   xmlns="http://www.w3.org/2000/svg"
   id="svg708"
   version="1.1"
   viewBox="0 0 20.518118 22.37109"
   height="22.37109mm"
   width="20.518118mm">
  <defs
     id="defs702" />
  <metadata
     id="metadata705">
    <rdf:RDF>
      <cc:Work
         rdf:about="">
        <dc:format>image/svg+xml</dc:format>
        <dc:type
           rdf:resource="http://purl.org/dc/dcmitype/StillImage" />
        <dc:title></dc:title>
      </cc:Work>
    </rdf:RDF>
  </metadata>
  <g
     transform="translate(118.66008,-15.678585)"
     id="layer1">
    <g
       transform="matrix(0.26458333,0,0,0.26458333,-451.78788,-47.077935)"
       className="footPrint"
       style="fill:#0000ff"
       id="g186">
      <path
         d="m 1312.58,271.31 c -1.73,-1.2 -3.64,-2.05 -5.59,-2.85 -2.13,-0.86 -4.41,-1.3 -6.69,-1.59 -1.1,-0.14 -2.2,-0.2 -3.31,-0.2 -2.6,0 -5.19,0.37 -7.69,1.08 -1.86,0.54 -3.68,1.36 -5.41,2.24 -1.97,1 -3.73,2.32 -5.44,3.69 -0.49,0.47 -0.83,1.05 -1.02,1.71 -0.02,0.08 -0.04,0.16 -0.06,0.24 -1.55,1.21 -2.91,2.64 -4.06,4.25 -1.46,2.02 -2.39,4.42 -2.85,6.85 -0.49,2.61 -0.41,5.2 -0.03,7.83 0.8,5.41 3.44,10.45 6.74,14.74 3.29,4.24 7.51,7.96 12.4,10.23 4.88,2.29 10.54,2.97 15.71,1.24 6.39,-2.15 11.08,-7.46 14.3,-13.18 1.17,-2.08 2.14,-4.29 2.91,-6.54 0.83,-2.41 1.2,-4.96 1.39,-7.49 0.31,-4.44 -0.81,-8.9 -2.78,-12.86 -1.9,-3.85 -5.03,-6.95 -8.52,-9.39 z m 3.02,24.76 c -0.37,2.33 -1.03,4.57 -1.91,6.75 -1.05,2.43 -2.3,4.76 -3.89,6.9 -0.98,1.2 -2.06,2.31 -3.25,3.29 -0.97,0.7 -1.97,1.3 -3.04,1.81 -1.08,0.42 -2.2,0.73 -3.34,0.94 -1.31,0.15 -2.61,0.14 -3.91,0 -1.65,-0.27 -3.25,-0.73 -4.8,-1.35 -2.05,-0.9 -3.95,-2.02 -5.74,-3.35 -2.01,-1.6 -3.82,-3.42 -5.43,-5.44 -1.58,-2.07 -2.93,-4.31 -3.99,-6.68 -0.84,-2.02 -1.48,-4.08 -1.83,-6.22 -0.19,-1.54 -0.23,-3.09 -0.07,-4.63 0.2,-1.32 0.54,-2.58 1.02,-3.79 0.5,-1.09 1.1,-2.11 1.83,-3.08 0.49,-0.6 1.02,-1.17 1.58,-1.7 1.22,0.93 2.97,1.14 4.32,0.28 1.33,-0.83 2.68,-1.57 4.09,-2.19 2.05,-0.79 4.15,-1.33 6.31,-1.67 1.95,-0.19 3.9,-0.2 5.86,0.01 1.82,0.3 3.59,0.79 5.31,1.45 1.48,0.69 2.89,1.5 4.21,2.44 1.27,1.03 2.4,2.18 3.43,3.46 0.81,1.15 1.51,2.36 2.09,3.63 0.51,1.34 0.88,2.7 1.12,4.1 0.2,1.68 0.2,3.35 0.03,5.04 z"
         id="path178" />
      <path
         d="m 1277.33,265.6 c 1.08,-1.41 1.81,-3.02 2.1,-4.76 0.27,-1.76 0.14,-3.51 -0.37,-5.22 -0.53,-1.71 -1.49,-3.22 -2.66,-4.56 -0.59,-0.68 -1.32,-1.22 -2.05,-1.76 -0.75,-0.53 -1.61,-0.93 -2.47,-1.25 -1.35,-0.5 -2.77,-0.74 -4.21,-0.74 -0.52,0 -1.05,0.03 -1.57,0.1 -0.64,0.08 -1.17,0.2 -1.64,0.68 -0.33,0.33 -0.55,0.75 -0.63,1.2 -0.18,0.1 -0.36,0.2 -0.54,0.31 -2.15,1.36 -3.47,3.69 -3.98,6.13 -0.51,2.51 -0.2,5.19 0.73,7.56 0.93,2.34 2.49,4.44 4.71,5.68 2.51,1.39 5.46,1.19 8,0.07 1.77,-0.8 3.36,-1.92 4.58,-3.44 z m -6.95,-0.14 c -0.44,0.16 -0.89,0.28 -1.36,0.37 -0.39,0.03 -0.79,0.04 -1.19,0.01 -0.36,-0.07 -0.69,-0.15 -1.03,-0.27 -0.36,-0.16 -0.7,-0.36 -1.03,-0.58 -0.49,-0.4 -0.92,-0.84 -1.31,-1.33 -0.39,-0.57 -0.73,-1.17 -1.02,-1.8 -0.31,-0.82 -0.55,-1.66 -0.7,-2.54 -0.08,-0.81 -0.1,-1.62 -0.04,-2.44 0.1,-0.68 0.26,-1.32 0.48,-1.96 0.22,-0.49 0.49,-0.95 0.8,-1.39 0.29,-0.34 0.6,-0.65 0.94,-0.94 0.29,-0.2 0.6,-0.38 0.91,-0.54 0.04,0 0.07,0 0.11,0 0.05,0 0.1,0 0.15,-0.01 0.78,-0.06 1.53,-0.07 2.29,-0.01 0.69,0.12 1.35,0.3 2.01,0.53 0.55,0.26 1.07,0.56 1.56,0.9 0.5,0.42 0.95,0.86 1.37,1.35 0.39,0.55 0.74,1.11 1.02,1.73 0.23,0.61 0.39,1.23 0.51,1.88 0.05,0.6 0.04,1.18 -0.01,1.77 -0.1,0.49 -0.23,0.96 -0.4,1.44 -0.22,0.45 -0.46,0.88 -0.74,1.3 -0.42,0.5 -0.86,0.95 -1.37,1.38 -0.61,0.45 -1.26,0.82 -1.95,1.15 z"
         id="path180" />
      <path
         d="m 1288.76,255.2 c 0.36,0.44 0.85,0.83 1.32,1.17 0.59,0.42 1.25,0.76 1.97,1.03 1.36,0.49 2.78,0.68 4.22,0.71 1.59,0.03 3.25,-0.22 4.74,-0.83 1.34,-0.54 2.52,-1.34 3.47,-2.46 0.98,-1.15 1.64,-2.54 1.97,-4.02 0.63,-2.81 -0.07,-5.78 -1.51,-8.22 -0.6,-1.01 -1.39,-1.9 -2.28,-2.66 0.07,-0.18 0.11,-0.37 0.11,-0.56 0,-0.86 -0.69,-1.47 -1.53,-1.52 -0.67,-0.03 -1.33,-0.02 -1.99,0.03 -0.66,-0.26 -1.35,-0.47 -2.04,-0.62 -0.18,-0.04 -0.37,-0.06 -0.55,-0.06 -0.99,0 -1.89,0.57 -2.18,1.6 -0.02,0.08 -0.04,0.15 -0.05,0.23 -0.58,0.25 -1.15,0.54 -1.7,0.87 -2.14,1.29 -3.9,3.3 -4.91,5.57 -0.97,2.13 -1.29,4.47 -0.69,6.74 0.31,1.14 0.92,2.11 1.63,3 z m 1.74,-6.69 c 0.12,-0.64 0.29,-1.25 0.51,-1.85 0.35,-0.75 0.77,-1.45 1.26,-2.11 0.47,-0.54 0.97,-1.05 1.52,-1.5 0.73,-0.54 1.48,-0.99 2.32,-1.36 0.07,-0.03 0.15,-0.05 0.22,-0.08 0.25,0.08 0.5,0.16 0.75,0.26 0.66,0.3 1.26,0.65 1.84,1.08 0.51,0.43 0.97,0.89 1.4,1.41 0.38,0.54 0.7,1.11 0.99,1.7 0.24,0.64 0.41,1.27 0.54,1.93 0.05,0.56 0.05,1.11 0,1.68 -0.09,0.44 -0.2,0.87 -0.35,1.29 -0.16,0.31 -0.32,0.59 -0.51,0.88 -0.26,0.3 -0.53,0.57 -0.83,0.83 -0.36,0.24 -0.73,0.46 -1.12,0.66 -0.62,0.22 -1.23,0.39 -1.88,0.5 -0.89,0.09 -1.76,0.11 -2.64,0.03 -0.51,-0.1 -1,-0.22 -1.5,-0.39 -0.38,-0.18 -0.73,-0.38 -1.08,-0.63 -0.24,-0.22 -0.46,-0.45 -0.67,-0.69 -0.17,-0.26 -0.32,-0.53 -0.46,-0.82 -0.13,-0.36 -0.22,-0.72 -0.3,-1.11 -0.06,-0.56 -0.06,-1.13 -0.01,-1.71 z"
         id="path182" />
      <path
         d="m 1336.58,259.2 c -0.14,-1.54 -0.66,-2.98 -1.44,-4.29 -0.9,-1.49 -2.22,-2.66 -3.66,-3.59 -0.59,-0.39 -1.27,-0.69 -1.93,-0.93 -0.81,-0.32 -1.63,-0.53 -2.49,-0.66 -0.63,-0.1 -1.27,-0.15 -1.9,-0.15 -1.27,0 -2.53,0.2 -3.78,0.57 -1.16,0.34 -1.91,1.45 -1.76,2.64 -1.21,0.6 -2.31,1.41 -3.17,2.48 -0.71,0.88 -1.22,1.86 -1.53,2.95 -0.36,1.2 -0.27,2.41 -0.1,3.63 0.14,1.02 0.59,2.02 1.05,2.91 0.54,1.05 1.34,2 2.19,2.81 1.75,1.69 4.08,2.78 6.51,3 2.74,0.27 5.37,-0.71 7.54,-2.37 1.44,-1.08 2.63,-2.41 3.47,-4 0.81,-1.53 1.15,-3.29 1,-5 z m -5.12,1.48 c -0.09,0.37 -0.19,0.73 -0.31,1.08 -0.2,0.39 -0.41,0.75 -0.65,1.11 -0.5,0.59 -1.02,1.11 -1.61,1.61 -0.53,0.38 -1.09,0.71 -1.69,0.98 -0.41,0.14 -0.81,0.24 -1.23,0.32 -0.48,0.04 -0.95,0.04 -1.43,0 -0.49,-0.09 -0.96,-0.21 -1.42,-0.38 -0.51,-0.24 -0.99,-0.52 -1.46,-0.84 -0.47,-0.39 -0.89,-0.8 -1.28,-1.26 -0.32,-0.45 -0.59,-0.92 -0.84,-1.42 -0.15,-0.42 -0.26,-0.83 -0.35,-1.26 -0.03,-0.32 -0.03,-0.63 -0.02,-0.95 0.06,-0.31 0.14,-0.6 0.24,-0.9 0.12,-0.24 0.25,-0.47 0.4,-0.7 0.25,-0.3 0.53,-0.56 0.83,-0.82 0.48,-0.33 0.98,-0.61 1.5,-0.86 0.93,-0.35 1.88,-0.6 2.87,-0.8 0.55,-0.1 0.98,-0.47 1.26,-0.94 0.44,0.1 0.86,0.23 1.28,0.38 0.61,0.29 1.19,0.63 1.74,1.02 0.41,0.36 0.78,0.74 1.14,1.15 0.26,0.39 0.5,0.78 0.71,1.21 0.13,0.38 0.24,0.76 0.31,1.16 0.04,0.38 0.04,0.74 0.01,1.11 z"
         id="path184" />
    </g>
  </g>
</svg>
