<?xml version="1.0" encoding="UTF-8" standalone="no"?>
<svg
   xmlns:dc="http://purl.org/dc/elements/1.1/"
   xmlns:cc="http://creativecommons.org/ns#"
   xmlns:rdf="http://www.w3.org/1999/02/22-rdf-syntax-ns#"
   xmlns:svg="http://www.w3.org/2000/svg"
   xmlns="http://www.w3.org/2000/svg"
   id="svg708"
   version="1.1"
   viewBox="0 0 25.459399 51.539489"
   height="51.539482mm"
   width="25.459398mm">
  <defs
     id="defs702" />
  <metadata
     id="metadata705">
    <rdf:RDF>
      <cc:Work
         rdf:about="">
        <dc:format>image/svg+xml</dc:format>
        <dc:type
           rdf:resource="http://purl.org/dc/dcmitype/StillImage" />
        <dc:title></dc:title>
      </cc:Work>
    </rdf:RDF>
  </metadata>
  <g
     transform="translate(157.91956,-175.08667)"
     id="layer1">
    <g
       transform="matrix(0.26458333,0,0,0.26458333,-167.64722,-188.91649)"
       className="inkPen"
       style="fill:#0000ff"
       id="g210">
      <path
         d="m 86.14,1450.48 c 1.29,-2.82 2.64,-5.61 4.03,-8.38 1.44,-2.89 2.98,-5.72 4.48,-8.56 0.21,-0.39 0,-0.91 -0.32,-1.16 -0.17,-0.12 -0.38,-0.19 -0.59,-0.19 -0.05,0 -0.1,0 -0.14,0.01 -0.23,0.04 -0.52,0.18 -0.65,0.39 -1.51,2.61 -2.9,5.29 -4.25,7.97 -1.46,2.91 -2.85,5.84 -4.2,8.79 -2.65,5.82 -5.07,11.73 -7.37,17.7 -4.62,12.03 -8.62,24.29 -12.53,36.56 -0.12,0.4 0.02,0.83 0.43,0.99 0.37,0.15 0.86,-0.03 1,-0.43 3.9,-12.11 8.01,-24.17 12.65,-36.03 2.31,-5.96 4.8,-11.85 7.46,-17.66 z"
         id="path198" />
      <path
         d="m 97.12,1433.92 c -0.14,-0.06 -0.29,-0.09 -0.45,-0.09 -0.17,0 -0.33,0.03 -0.48,0.1 -0.26,0.11 -0.54,0.37 -0.63,0.66 -1.67,6.11 -3.49,12.18 -5.46,18.22 -1.96,6 -4.07,11.94 -6.26,17.87 -4.42,12.01 -9.11,23.92 -13.72,35.87 -0.17,0.46 0.05,0.98 0.5,1.17 0.46,0.18 1,-0.05 1.18,-0.5 4.57,-11.79 9.4,-23.48 13.88,-35.3 2.23,-5.91 4.38,-11.84 6.41,-17.81 2.09,-6.14 4.02,-12.35 5.69,-18.63 0.09,-0.32 0.12,-0.61 -0.02,-0.93 -0.12,-0.29 -0.35,-0.51 -0.64,-0.63 z"
         id="path200" />
      <path
         d="m 44.27,1566.23 c 0.01,-0.01 0.03,-0.02 0.04,-0.03 -0.04,0.03 -0.09,0.06 -0.13,0.1 0.03,-0.02 0.06,-0.05 0.09,-0.07 z"
         id="path202" />
      <path
         d="m 132.38,1391.36 c -0.44,-4.18 -0.75,-8.37 -0.26,-12.55 0,-0.02 0.01,-0.05 0.01,-0.07 0.1,-0.42 0.1,-0.84 0,-1.25 -0.17,-0.59 -0.56,-1.1 -1.08,-1.41 -0.37,-0.22 -0.78,-0.32 -1.2,-0.32 -0.61,0 -1.23,0.23 -1.66,0.68 -0.89,0.95 -1.8,1.87 -2.78,2.72 -0.82,0.73 -1.68,1.43 -2.54,2.11 0.05,-0.04 0.1,-0.08 0.15,-0.11 -0.08,0.06 -0.16,0.12 -0.24,0.18 -0.06,0.05 -0.12,0.1 -0.18,0.14 0.04,-0.03 0.09,-0.07 0.13,-0.1 -3.34,2.56 -6.91,4.8 -10.49,6.99 -3.25,1.99 -6.48,4 -9.4,6.46 -2.97,2.51 -5.55,5.45 -7.61,8.74 -2.51,4.03 -4.15,8.56 -5.4,13.13 -14.36,25.86 -26.08,53.15 -35.41,81.21 -1.2,3.62 -2.36,7.25 -3.48,10.89 -0.15,-0.01 -0.3,-0.03 -0.46,-0.03 -0.02,0 -0.04,0 -0.06,0 -0.81,0 -1.48,0.74 -1.48,1.54 0,0.72 0.48,1.25 1.12,1.45 -0.78,2.57 -1.56,5.14 -2.29,7.72 -0.56,1.97 -1.07,3.94 -1.68,5.89 -0.42,1.34 -0.85,2.68 -1.29,4.03 -2.63,8.11 -5.26,16.27 -6.93,24.66 -0.4,1.97 -0.72,3.98 -0.93,5.98 -0.16,1.58 -0.25,3.17 -0.09,4.76 0.11,1.27 0.37,2.59 1.06,3.7 0.51,0.84 1.26,1.41 2.16,1.78 1.41,0.59 2.99,0.14 4.28,-0.5 0.8,-0.4 1.51,-0.95 2.2,-1.51 0.78,-0.62 1.49,-1.31 2.17,-2.02 1.82,-1.9 3.44,-4.01 4.98,-6.12 1.89,-2.6 3.65,-5.29 5.35,-8.01 4.11,-6.59 7.87,-13.4 11.5,-20.26 1.18,-2.23 2.32,-4.48 3.48,-6.73 0.22,-0.24 0.37,-0.52 0.43,-0.84 5.98,-11.69 11.63,-23.55 17.13,-35.47 2.23,-4.83 4.42,-9.68 6.62,-14.54 2.53,-5.54 5.29,-10.97 7.97,-16.44 1.99,-4.04 3.91,-8.13 5.56,-12.31 1.42,-3.63 2.68,-7.38 3.21,-11.24 0.09,-0.69 0.17,-1.39 0.21,-2.09 0.21,-0.16 0.39,-0.36 0.52,-0.6 1.49,-2.81 3.35,-5.36 5.28,-7.88 2.41,-3.1 4.92,-6.14 7.13,-9.4 1.09,-1.59 2.07,-3.27 2.88,-5.01 0.84,-1.81 1.49,-3.65 1.76,-5.61 0.57,-4.14 0.09,-8.23 -0.35,-12.34 z m -21.08,41.14 c -0.4,-0.35 -0.82,-0.69 -1.23,-1.02 -0.85,-0.68 -1.73,-1.35 -2.6,-1.98 -1.76,-1.27 -3.58,-2.43 -5.46,-3.49 -3.73,-2.1 -7.77,-3.68 -11.97,-4.53 0.23,-0.42 0.45,-0.85 0.68,-1.27 0.6,0.12 1.21,-0.1 1.61,-0.54 0.26,0.11 0.55,0.18 0.85,0.18 2.12,-0.02 4.24,0.04 6.34,0.28 1.98,0.28 3.93,0.72 5.79,1.46 0.9,0.4 1.75,0.88 2.54,1.46 0.59,0.49 1.13,1.03 1.61,1.62 0.42,0.59 0.78,1.22 1.07,1.88 0.34,0.9 0.57,1.83 0.72,2.78 0.12,1.05 0.11,2.11 0.05,3.17 z m -70.51,134.87 c 0.02,0.02 0.04,0.03 0.06,0.05 0,0 0,0 0,0 -0.02,-0.02 -0.04,-0.03 -0.06,-0.05 z m 0.06,0.05 c 0,0 0,0 0,0 0.02,0.01 0.03,0.02 0.04,0.04 -0.01,-0.02 -0.02,-0.03 -0.04,-0.04 z m 19.3,-23.3 c -3.25,5.66 -6.65,11.28 -10.61,16.46 -1.57,2.02 -3.24,4.01 -5.23,5.62 0.02,-0.02 0.05,-0.04 0.07,-0.05 -0.04,0.03 -0.07,0.06 -0.11,0.09 -0.06,0.05 -0.13,0.1 -0.19,0.15 0.03,-0.03 0.07,-0.06 0.1,-0.09 -0.54,0.4 -1.1,0.76 -1.71,1.04 -0.24,0.09 -0.48,0.16 -0.72,0.21 -0.15,0.01 -0.29,0.02 -0.43,0.01 -0.1,-0.02 -0.2,-0.05 -0.3,-0.08 -0.11,-0.05 -0.21,-0.12 -0.31,-0.18 -0.08,-0.08 -0.17,-0.16 -0.24,-0.24 -0.13,-0.2 -0.25,-0.4 -0.35,-0.62 -0.19,-0.53 -0.31,-1.09 -0.39,-1.64 -0.23,-2.05 -0.06,-4.14 0.2,-6.17 0.58,-4.29 1.58,-8.51 2.68,-12.69 1.11,-4.21 2.36,-8.37 3.66,-12.52 0.88,-2.79 1.82,-5.56 2.66,-8.37 0.3,-1.03 0.57,-2.09 0.86,-3.13 0.52,-1.88 1.05,-3.75 1.59,-5.62 0.41,-1.42 0.86,-2.83 1.28,-4.24 2.19,0.33 4.31,0.92 6.37,1.77 2.01,0.89 3.9,2 5.66,3.31 1.67,1.32 3.16,2.81 4.49,4.47 0.62,0.82 1.17,1.68 1.69,2.56 -3.43,6.72 -6.96,13.4 -10.72,19.95 z m 36.45,-74.37 c -1.78,3.84 -3.49,7.69 -5.24,11.54 -6,13.2 -12.16,26.34 -18.68,39.29 -2.21,-3.07 -5.08,-5.64 -8.29,-7.62 -3.29,-2.03 -7,-3.33 -10.82,-3.89 0.37,-1.19 0.71,-2.4 1.08,-3.58 4.68,-14.88 10.04,-29.53 16.09,-43.89 -0.05,0.09 -0.09,0.2 -0.13,0.29 5.42,-12.82 11.4,-25.38 17.96,-37.66 0.15,0.12 0.33,0.21 0.53,0.25 2.35,0.48 4.63,1.18 6.84,2.09 3.8,1.65 7.3,3.84 10.6,6.35 -0.04,-0.03 -0.08,-0.06 -0.12,-0.09 0.06,0.05 0.12,0.09 0.18,0.14 0.06,0.04 0.11,0.08 0.17,0.13 -0.04,-0.03 -0.09,-0.06 -0.13,-0.1 0.56,0.45 1.13,0.89 1.69,1.35 0.74,0.59 1.47,1.2 2.27,1.71 0.06,0.04 0.14,0.05 0.21,0.08 -0.82,4.15 -2.28,8.16 -3.92,12.04 0.03,-0.05 0.05,-0.1 0.07,-0.15 -3.15,7.39 -6.99,14.45 -10.36,21.72 z m 30.82,-67.29 c -0.24,1.5 -0.61,2.95 -1.17,4.35 -1.82,4.03 -4.61,7.57 -7.28,11.06 -1.69,2.23 -3.38,4.48 -4.82,6.87 -0.09,-0.22 -0.18,-0.45 -0.27,-0.67 -0.64,-1.45 -1.63,-2.76 -2.79,-3.84 -1.41,-1.32 -3.09,-2.26 -4.86,-3 -1.72,-0.72 -3.52,-1.17 -5.35,-1.47 -2.35,-0.38 -4.72,-0.53 -7.09,-0.54 0.48,-1.52 1,-3.02 1.61,-4.5 1.22,-2.85 2.71,-5.56 4.6,-8.04 1.34,-1.68 2.83,-3.24 4.51,-4.59 3.57,-2.75 7.45,-5.01 11.31,-7.32 2.2,-1.31 4.38,-2.66 6.49,-4.09 0.01,-0.01 0.02,-0.02 0.03,-0.03 -3.46,4.6 -6.46,9.56 -8.92,14.76 -0.28,0.59 -0.42,1.16 -0.24,1.8 0.16,0.59 0.55,1.09 1.07,1.4 1.04,0.61 2.65,0.31 3.21,-0.84 1.32,-2.72 2.72,-5.41 4.26,-8.02 1.54,-2.6 3.24,-5.11 5.07,-7.53 0.35,4.76 1.15,9.53 0.63,14.24 z"
         id="path204" />
      <path
         d="m 122.87,1381.27 c -0.05,0.04 -0.09,0.07 -0.14,0.11 0.02,-0.01 0.04,-0.03 0.05,-0.04 0.04,-0.03 0.06,-0.05 0.09,-0.07 z"
         id="path206" />
      <path
         d="m 106.6,1432.98 c -0.02,-0.02 -0.04,-0.03 -0.06,-0.05 0.03,0.03 0.06,0.05 0.1,0.08 -0.02,-0.01 -0.03,-0.02 -0.04,-0.03 z"
         id="path208" />
    </g>
  </g>
</svg>
