<?xml version="1.0" encoding="UTF-8" standalone="no"?>
<svg
   xmlns:dc="http://purl.org/dc/elements/1.1/"
   xmlns:cc="http://creativecommons.org/ns#"
   xmlns:rdf="http://www.w3.org/1999/02/22-rdf-syntax-ns#"
   xmlns:svg="http://www.w3.org/2000/svg"
   xmlns="http://www.w3.org/2000/svg"
   id="svg708"
   version="1.1"
   viewBox="0 0 21.985331 42.976643"
   height="42.976639mm"
   width="21.985331mm">
  <defs
     id="defs702" />
  <metadata
     id="metadata705">
    <rdf:RDF>
      <cc:Work
         rdf:about="">
        <dc:format>image/svg+xml</dc:format>
        <dc:type
           rdf:resource="http://purl.org/dc/dcmitype/StillImage" />
        <dc:title></dc:title>
      </cc:Work>
    </rdf:RDF>
  </metadata>
  <g
     transform="translate(130.78932,-149.72527)"
     id="layer1">
    <g
       transform="matrix(0.26458333,0,0,0.26458333,-433.08128,-82.070898)"
       className="pencil"
       style="fill:#ffffff"
       id="g30">
      <path
         d="m 1224.2,876.47 c -0.45,-0.26 -0.94,-0.39 -1.42,-0.39 -0.74,0 -1.48,0.3 -2.04,0.84 -3.51,3.32 -7.05,6.62 -10.6,9.92 -3.71,3.48 -7.48,6.92 -11.47,10.06 -0.94,0.72 -1.89,1.42 -2.86,2.09 -1.03,0.72 -1.51,2.01 -0.83,3.16 0.35,0.6 1.02,0.99 1.73,1.09 -1.69,4.64 -3.51,9.24 -5.43,13.8 -6.4,15.04 -13.82,29.6 -21.22,44.15 -3.66,7.21 -7.33,14.4 -10.85,21.67 -2.89,5.96 -5.61,11.99 -8.23,18.06 -0.86,0.26 -1.64,0.82 -2.13,1.67 -0.63,1.06 -0.59,2.33 -0.11,3.42 -1.88,4.25 -4.08,8.36 -5.4,12.84 -0.64,2.15 -0.96,4.44 -0.76,6.67 0.1,1.05 0.33,2.06 0.76,3.03 0.45,1.05 1.05,2 1.69,2.94 1.67,2.46 3.82,4.88 6.57,6.12 1.19,0.52 2.36,0.81 3.65,0.89 1.17,0.07 2.43,-0.19 3.53,-0.58 2.51,-0.89 4.63,-2.6 6.4,-4.54 2.13,-2.29 3.85,-4.97 5.42,-7.67 1.34,-2.31 2.49,-4.72 3.6,-7.16 1.52,0.46 3.28,-0.4 4.05,-1.72 0.94,-1.59 0.48,-4.02 -1.21,-4.96 0.64,-1.61 1.25,-3.23 1.85,-4.86 1.03,-2.84 2,-5.69 2.94,-8.55 0.31,-0.96 0.62,-1.91 0.95,-2.86 0.78,-2.26 1.7,-4.49 2.62,-6.69 8.56,-20.16 20.25,-38.92 27.46,-59.67 1.58,-4.52 2.94,-9.17 3.84,-13.88 0.12,-0.64 0.22,-1.29 0.3,-1.94 0.97,-0.36 1.79,-1.11 2.1,-2.16 1.5,-5.16 2.65,-10.41 3.73,-15.67 0.58,-2.77 1.1,-5.56 1.58,-8.34 0.48,-2.75 1.01,-5.54 1.2,-8.32 0.07,-0.98 -0.61,-1.98 -1.41,-2.46 z m -10.34,28.75 c -0.84,-0.51 -1.75,-0.9 -2.66,-1.24 -1.38,-0.52 -2.79,-0.93 -4.18,-1.39 -1.79,-0.58 -3.57,-1.23 -5.33,-1.94 0.07,0.03 0.15,0.06 0.22,0.08 -0.16,-0.09 -0.3,-0.19 -0.45,-0.28 1.79,-1.37 3.55,-2.78 5.26,-4.24 2.29,1.09 4.61,2.13 6.97,3.04 0.52,0.21 1.2,0.05 1.67,-0.22 0.02,-0.01 0.04,-0.04 0.06,-0.05 -0.51,2.08 -1.02,4.17 -1.56,6.24 z m -1.91,4.62 v 0 c -0.03,-0.02 -0.06,-0.04 -0.09,-0.06 0.03,0.01 0.06,0.04 0.09,0.06 z m -49.43,118.77 c -1.04,1.31 -2.14,2.54 -3.43,3.61 -0.61,0.46 -1.25,0.85 -1.92,1.17 -0.43,0.16 -0.86,0.28 -1.31,0.37 -0.35,0.03 -0.69,0.03 -1.04,0.01 -0.5,-0.08 -0.98,-0.22 -1.45,-0.4 -0.58,-0.29 -1.13,-0.63 -1.65,-1.01 -1.06,-0.87 -1.99,-1.89 -2.85,-2.98 -0.75,-1.01 -1.48,-2.03 -2.01,-3.15 -0.17,-0.49 -0.3,-0.96 -0.39,-1.46 -0.09,-0.96 -0.06,-1.91 0.03,-2.87 0.47,-2.88 1.47,-5.62 2.57,-8.3 0.76,-1.75 1.54,-3.49 2.32,-5.24 3.42,1.88 6.92,3.58 10.48,5.17 2.45,1.08 4.93,2.14 7.43,3.15 -1.9,4.18 -4.04,8.27 -6.78,11.93 z m 49.62,-115.46 c -0.53,3.55 -1.53,7.03 -2.56,10.45 -1.47,4.91 -3.32,9.67 -5.31,14.4 -3.78,8.78 -8.13,17.3 -12.46,25.81 -2.15,4.23 -4.3,8.45 -6.36,12.71 -2.13,4.39 -4.13,8.84 -6,13.33 -0.77,1.86 -1.51,3.73 -2.17,5.64 -0.55,1.62 -1.1,3.23 -1.65,4.85 -1.07,3.13 -2.22,6.23 -3.43,9.31 -1.18,-0.5 -2.37,-0.99 -3.56,-1.48 -4.87,-2.07 -9.71,-4.22 -14.34,-6.79 13.91,-32.59 32.58,-63.06 44.85,-96.37 0.07,0.04 0.13,0.08 0.2,0.12 0.4,0.17 0.79,0.33 1.2,0.48 0.36,0.15 0.76,0.29 1.14,0.43 1.17,0.45 2.36,0.84 3.56,1.24 1.72,0.56 3.46,1.03 5.14,1.68 0.43,0.2 0.86,0.41 1.26,0.68 0.09,0.08 0.17,0.17 0.26,0.26 0.05,0.08 0.1,0.16 0.15,0.24 0.07,0.2 0.12,0.41 0.16,0.62 0.06,0.79 0.01,1.59 -0.08,2.39 z m 4.52,-19.26 c -0.16,0.72 -0.35,1.42 -0.52,2.14 -0.33,-0.52 -0.75,-0.74 -1.29,-0.98 -0.48,-0.19 -0.95,-0.4 -1.43,-0.6 0.02,0.01 0.03,0.01 0.05,0.02 -1.04,-0.45 -2.08,-0.93 -3.11,-1.4 2.68,-2.4 5.32,-4.85 8.04,-7.19 -0.55,2.67 -1.14,5.35 -1.74,8.01 z"
         id="path26" />
      <path
         d="m 1205.53,912.76 c -0.21,-0.12 -0.45,-0.18 -0.69,-0.18 -0.48,0 -0.96,0.23 -1.19,0.68 -5.9,11.56 -11.9,23.08 -17.41,34.85 -2.77,5.9 -5.4,11.85 -7.84,17.89 -1.2,2.99 -2.34,6.02 -3.51,9.01 -1.17,3.03 -2.37,6.02 -3.63,9 0.02,-0.05 0.03,-0.09 0.05,-0.13 -0.91,2.08 -1.82,4.15 -2.8,6.2 -1.14,2.39 -2.37,4.73 -3.51,7.14 -0.28,0.57 -0.4,1.12 -0.22,1.74 0.15,0.57 0.53,1.05 1.03,1.34 1.1,0.65 2.43,0.24 3.1,-0.81 2.1,-3.3 3.65,-6.95 5.14,-10.56 1.65,-3.97 3.15,-8 4.58,-12.04 1.36,-3.82 2.67,-7.64 4.08,-11.42 1.48,-4.01 3.06,-7.98 4.72,-11.93 0,0.01 -0.01,0.02 -0.01,0.02 5.61,-13.24 12.09,-26.11 18.59,-38.94 0.33,-0.66 0.18,-1.47 -0.48,-1.86 z"
         id="path28" />
    </g>
  </g>
</svg>
