<?xml version="1.0" encoding="UTF-8" standalone="no"?>
<svg
   xmlns:dc="http://purl.org/dc/elements/1.1/"
   xmlns:cc="http://creativecommons.org/ns#"
   xmlns:rdf="http://www.w3.org/1999/02/22-rdf-syntax-ns#"
   xmlns:svg="http://www.w3.org/2000/svg"
   xmlns="http://www.w3.org/2000/svg"
   id="svg708"
   version="1.1"
   viewBox="0 0 45.249072 34.714102"
   height="34.7141mm"
   width="45.249073mm">
  <defs
     id="defs702" />
  <metadata
     id="metadata705">
    <rdf:RDF>
      <cc:Work
         rdf:about="">
        <dc:format>image/svg+xml</dc:format>
        <dc:type
           rdf:resource="http://purl.org/dc/dcmitype/StillImage" />
        <dc:title></dc:title>
      </cc:Work>
    </rdf:RDF>
  </metadata>
  <g
     transform="translate(45.776325,-234.15804)"
     id="layer1">
    <path
       className="marker"
       style="fill:#ffffff;stroke-width:0.264583"
       d="m -0.56135342,234.51787 c -0.07937,-0.20902 -0.291042,-0.35983 -0.51329198,-0.35983 -0.02117,0 -0.03969,0.003 -0.06085,0.003 -1.219729,0.15345 -2.360083,0.60589 -3.537479,0.93133 -1.068916,0.29898 -2.148416,0.56092 -3.222625,0.84667 -2.1828116,0.57943 -4.3735616,1.25941 -6.2917916,2.48179 -0.02646,0.0159 -0.04233,0.045 -0.0635,0.0661 -0.465667,0.10848 -0.910167,0.37042 -1.30175,0.62442 -0.640292,0.4154 -1.211792,0.92869 -1.822979,1.39171 -0.41275,0.30956 -0.851959,0.58737 -1.280584,0.87842 -0.547687,0.37041 -1.092729,0.73818 -1.640416,1.10595 -2.106084,1.41552 -4.206875,2.83634 -6.262688,4.3233 -2.111375,1.52929 -4.228041,3.05329 -6.35,4.5667 -1.105958,0.78846 -2.209271,1.57163 -3.315229,2.35744 -1.0795,0.76729 -2.166937,1.51606 -3.217333,2.32304 -1.939396,1.48961 -3.81,3.09298 -5.971646,4.25979 0.04233,-0.0212 0.08996,-0.045 0.132292,-0.0714 -0.03704,0.0212 -0.07673,0.0423 -0.116417,0.0635 -0.140229,0.0741 -0.256646,0.14816 -0.322792,0.30162 -0.06879,0.14288 -0.07408,0.30692 -0.01588,0.45244 0.05292,0.14552 0.164042,0.26194 0.301625,0.32279 0.0079,0.003 0.01588,0.005 0.02381,0.008 0.494771,1.03187 1.055687,2.032 1.664229,2.99773 0.486833,0.77787 1.010708,1.52929 1.526646,2.28864 0.248708,0.37042 0.497416,0.73819 0.775229,1.08744 0.333375,0.42069 0.751417,0.83079 1.259417,1.03188 0.11377,0.045 0.232833,0.0635 0.34925,0.0688 0.01852,0.003 0.03969,0.003 0.05821,0.003 0.04498,-0.003 0.08996,-0.0106 0.132292,-0.0185 0.01587,-0.005 0.03439,0 0.05292,-0.008 0.03175,0 0.0635,0.003 0.09525,0.003 0.119063,-0.0238 0.243417,-0.0556 0.362479,-0.082 0.156105,-0.082 0.314855,-0.16404 0.460375,-0.26458 0.116417,-0.0767 0.224896,-0.17198 0.333375,-0.26194 0.47625,-0.39158 3.939646,-3.48721 4.405313,-3.89731 0.896937,-0.78846 1.833562,-1.53194 2.770187,-2.27807 1.870605,-1.49225 3.802063,-2.9157 5.715,-4.34975 2.01348,-1.51077 4.087813,-2.94216 6.170084,-4.35504 1.039812,-0.70908 2.087562,-1.41023 3.130021,-2.11137 0.465666,-0.31486 0.936625,-0.59796 1.42875,-0.86784 1.288521,-0.70908 2.590271,-1.39964 3.81,-2.22514 0.595313,-0.40217 1.1562286,-0.84402 1.6668746,-1.35202 0.182563,-0.18256 0.362479,-0.39423 0.508,-0.62442 0.1905,0.008 0.383646,-0.0582 0.508,-0.21431 0.661459,-0.84138 1.27,-1.7145 1.881188,-2.58498 0.640291,-0.92075 1.275291,-1.84679 1.907646,-2.77283 0.635,-0.92605 1.262062,-1.85209 1.89177,-2.77813 0.314855,-0.46302 0.629709,-0.92075 0.947209,-1.38112 0.314854,-0.45509 0.64293698,-0.90488 0.93927098,-1.37584 0.0635,-0.0767 0.105833,-0.16404 0.119062,-0.25929 0.02646,-0.0952 0.01852,-0.19314 -0.01852,-0.29369 z M -39.600624,266.61712 c -0.0291,-0.0344 -0.05821,-0.0741 -0.08731,-0.10583 -0.301625,-0.34396 -0.624416,-0.6694 -0.941916,-0.99748 -0.687917,-0.74083 -1.325563,-1.53458 -1.926167,-2.3495 -0.542396,-0.73025 -1.039813,-1.49489 -1.484313,-2.286 1.518709,-0.91017 2.921,-1.99231 4.323292,-3.07446 0.01852,0.0609 0.03175,0.12436 0.05292,0.18521 0.119062,0.36248 0.261937,0.72231 0.402166,1.07686 0.328084,0.82285 0.727605,1.6166 1.185334,2.37066 0.209021,0.34661 0.447146,0.67734 0.703791,0.99219 0.251355,0.30692 0.534459,0.6006 0.851959,0.83608 0.119062,0.09 0.251354,0.16669 0.383646,0.24077 -0.206375,0.17992 -0.410105,0.35984 -0.611188,0.54769 -0.08202,0.0688 -1.971146,1.76213 -2.852208,2.56381 z m 29.588354,-21.30954 c -0.121708,0.17463 -0.264583,0.33338 -0.415395,0.48419 -0.640292,0.58473 -1.37848,1.05833 -2.116667,1.51077 -0.751417,0.45773 -1.521355,0.87842 -2.296584,1.2991 0.01058,-0.005 0.02117,-0.0132 0.03175,-0.0185 -0.545042,0.29634 -1.092729,0.58209 -1.629833,0.89165 -0.275167,0.15875 -0.534459,0.34131 -0.799042,0.51594 -0.547687,0.36248 -1.092729,0.72231 -1.637771,1.08743 -2.092854,1.397 -4.172479,2.81253 -6.207125,4.29948 -0.992187,0.72232 -1.957916,1.47902 -2.947458,2.20927 -0.960438,0.7038 -1.939396,1.38907 -2.918354,2.06905 -0.981604,0.68262 -1.965854,1.3626 -2.934229,2.06904 -0.296334,0.21696 -0.590021,0.43921 -0.883709,0.6641 -0.05821,0.005 -0.119062,0.0159 -0.174625,0.0423 -0.05821,0.0265 -0.113771,0.0476 -0.174625,0.0688 -0.05821,0.008 -0.116416,0.0159 -0.174625,0.0159 -0.07937,-0.008 -0.153458,-0.0212 -0.230187,-0.0397 -0.119063,-0.045 -0.232834,-0.0979 -0.343959,-0.16139 -0.261937,-0.17463 -0.492125,-0.38629 -0.711729,-0.61384 -0.767291,-0.84402 -1.359958,-1.84679 -1.902354,-2.84427 -0.171979,-0.32543 -0.338667,-0.65352 -0.494771,-0.98689 -0.0635,-0.13759 -0.132291,-0.27517 -0.195791,-0.41275 -0.0079,-0.0159 -0.01852,-0.037 -0.02646,-0.0529 0.915459,-0.70644 1.854729,-1.37319 2.804584,-2.03464 1.071562,-0.74084 2.137833,-1.48696 3.20675,-2.23838 2.135187,-1.49489 4.265083,-2.99773 6.389687,-4.51114 1.039813,-0.74084 2.084917,-1.48432 3.14325,-2.20663 1.045104,-0.71702 2.100792,-1.41817 3.161771,-2.11667 1.283229,-0.85195 2.579687,-1.69333 3.847042,-2.56645 0.362479,-0.24871 0.695854,-0.53975 1.039812,-0.80963 0.388938,-0.30162 0.785813,-0.59531 1.2065,-0.84402 0.164042,-0.0847 0.333375,-0.1614 0.513292,-0.21696 0.0291,-0.005 0.05556,-0.008 0.08467,-0.0106 0.169334,0.12964 0.322793,0.28046 0.470959,0.43656 0.590021,0.62971 1.127125,1.30969 1.640417,2.0029 0.531812,0.71437 1.042458,1.4552 1.473729,2.23573 0.108479,0.20637 0.211667,0.41804 0.2804576,0.64029 -0.0291,0.045 -0.05292,0.0953 -0.07938,0.14287 z m 2.7622496,-2.87073 c -0.46302,0.65352 -0.933979,1.30175 -1.397,1.95527 -0.07144,-0.14552 -0.148166,-0.28575 -0.224895,-0.42333 -0.288396,-0.53446 -0.637646,-1.03717 -0.986896,-1.53458 -0.7805206,-1.11125 -1.6245416,-2.18811 -2.5611666,-3.18029 -0.142875,-0.15082 -0.28575,-0.29898 -0.4445,-0.43392 -0.01323,-0.0106 -0.02646,-0.0212 -0.03969,-0.0317 0.0079,-0.005 0.01588,-0.0106 0.02381,-0.0132 1.640417,-0.86519 3.4210626,-1.40494 5.2096456,-1.8759 0.140229,-0.037 0.280458,-0.0714 0.420687,-0.10848 -0.0291,0.18521 -0.04498,0.37571 -0.05027,0.56886 -0.01323,0.43127 0.119063,0.87312 0.304271,1.25942 0.219604,0.45508 0.494771,0.89958 0.910167,1.19327 0.161396,0.11906 0.328083,0.20108 0.502708,0.26987 -0.550333,0.78846 -1.105958,1.57427 -1.666875,2.35479 z m 4.841875,-6.85271 c -0.322791,0.45509 -0.645583,0.90753 -0.965729,1.36261 -0.3175,0.44979 -0.635,0.90223 -0.949854,1.35202 -0.169333,-0.10054 -0.354542,-0.17992 -0.523875,-0.25929 -0.201083,-0.0926 -0.399521,-0.18521 -0.592667,-0.29369 -0.07673,-0.0556 -0.150812,-0.11642 -0.219604,-0.18256 -0.09525,-0.11377 -0.187854,-0.23284 -0.267229,-0.35719 -0.03969,-0.0847 -0.07408,-0.16933 -0.103187,-0.25665 -0.0079,-0.045 -0.01323,-0.0926 -0.01587,-0.14022 0.0079,-0.0635 0.01852,-0.12436 0.0344,-0.18521 0.0053,-0.0159 0.01323,-0.0317 0.01852,-0.045 0.01588,-0.0397 0.01588,-0.0767 0.02381,-0.11642 0.351895,-0.0873 0.701145,-0.17992 1.055687,-0.26987 0.447146,-0.11377 0.891646,-0.23019 1.336146,-0.35984 0.420687,-0.12171 0.838729,-0.25664 1.259417,-0.37306 -0.03175,0.0423 -0.06085,0.082 -0.08996,0.12435 z"
       id="path128" />
  </g>
</svg>
