<?xml version="1.0" encoding="UTF-8" standalone="no"?>
<svg
   xmlns:dc="http://purl.org/dc/elements/1.1/"
   xmlns:cc="http://creativecommons.org/ns#"
   xmlns:rdf="http://www.w3.org/1999/02/22-rdf-syntax-ns#"
   xmlns:svg="http://www.w3.org/2000/svg"
   xmlns="http://www.w3.org/2000/svg"
   id="svg708"
   version="1.1"
   viewBox="0 0 44.783822 28.53006"
   height="28.530058mm"
   width="44.783821mm">
  <defs
     id="defs702" />
  <metadata
     id="metadata705">
    <rdf:RDF>
      <cc:Work
         rdf:about="">
        <dc:format>image/svg+xml</dc:format>
        <dc:type
           rdf:resource="http://purl.org/dc/dcmitype/StillImage" />
        <dc:title></dc:title>
      </cc:Work>
    </rdf:RDF>
  </metadata>
  <g
     transform="translate(64.907173,-284.03501)"
     id="layer1">
    <path
       className="planet"
       style="fill:#ffd700;stroke-width:0.264583"
       d="m -20.240822,296.80621 c 0.171979,-0.54769 0.132292,-1.14565 0.02646,-1.70127 -0.219604,-1.10596 -1.04775,-1.94734 -1.994958,-2.49238 -0.0291,-0.0159 -0.05821,-0.0344 -0.08731,-0.0503 -0.4445,-0.24606 -0.941916,-0.41275 -1.420812,-0.55827 -0.515938,-0.15875 -1.050396,-0.24606 -1.582208,-0.30692 -1.143,-0.14022 -2.278063,-0.15875 -3.421063,-0.0529 -0.687917,0.0609 -1.389071,0.1561 -2.066401,0.32808 -0.14816,-0.27781 -0.30427,-0.55033 -0.4736,-0.81492 -1.35996,-2.1537 -3.35227,-3.85497 -5.56948,-5.08529 -0.0159,-0.008 -0.0291,-0.0159 -0.045,-0.0238 -1.2065,-0.6641 -2.51884,-1.18269 -3.85234,-1.54517 -1.24088,-0.33602 -2.55323,-0.48948 -3.84175,-0.46566 -3.21468,0.0608 -6.35793,1.59543 -8.38729,4.09046 -1.09802,1.34937 -1.86531,2.92629 -2.29129,4.60904 -0.23548,0.92868 -0.39158,1.89177 -0.43656,2.8575 -0.72761,0.0185 -1.45256,0.10318 -2.17487,0.22225 -1.02129,0.16668 -2.02672,0.45243 -2.98715,0.83873 -0.96308,0.38893 -1.83886,0.87048 -2.64583,1.524 -0.64558,0.52916 -1.17475,1.27264 -1.35466,2.09814 -0.19315,0.90752 0.0926,1.85738 0.65087,2.58763 0.70379,0.91016 1.65894,1.62983 2.68552,2.13783 1.92882,0.96044 4.12485,1.25413 6.24945,1.39171 0.72496,0.0476 1.45256,0.0635 2.18017,0.0661 0.81227,1.60073 1.88912,3.06653 3.28877,4.16984 1.07421,0.84666 2.31246,1.46579 3.65125,1.75154 1.50813,0.3175 3.06917,0.19579 4.55349,-0.16669 0.89163,-0.21696 1.74889,-0.56091 2.57969,-0.94191 0.96836,-0.43657 1.89176,-0.97367 2.77548,-1.55046 2.17487,-1.41817 4.04812,-3.302 5.33135,-5.56419 0.25135,-0.43921 0.46831,-0.90223 0.6641,-1.37583 0.505353,-0.13494 1.010707,-0.26723 1.513415,-0.41275 0.923396,-0.26988 1.828271,-0.5768 2.722563,-0.9234 0.989541,-0.38365 1.976437,-0.81756 2.88925,-1.35731 0.452437,-0.26723 0.862541,-0.59002 1.272646,-0.91811 0.407458,-0.32808 0.73025,-0.72495 1.031875,-1.15358 0.269875,-0.37306 0.433916,-0.78317 0.566208,-1.21179 z m -28.381852,-10.51454 c 0.008,0 0.0132,-0.003 0.0212,-0.003 -0.008,0.003 -0.0185,0.003 -0.0264,0.005 0,-0.003 0.003,-0.003 0.005,-0.003 z m -3.32317,4.33387 c 0.51065,-0.66675 1.09802,-1.27 1.74625,-1.80181 0.58208,-0.43392 1.2065,-0.79904 1.86531,-1.10067 0.76465,-0.30956 1.54517,-0.51329 2.35479,-0.65616 0.93398,-0.12965 1.87325,-0.15611 2.81517,-0.082 1.16417,0.13493 2.29394,0.41275 3.39461,0.81491 1.27529,0.50536 2.48973,1.143 3.60627,1.94204 0.90223,0.68792 1.71714,1.4658 2.43152,2.34421 0.52652,0.70379 0.9816,1.45256 1.34937,2.25425 0.33338,0.81227 0.5715,1.65894 0.72232,2.52413 0.11641,0.82814 0.14022,1.66423 0.0714,2.49766 -0.0212,0.18521 -0.0529,0.36777 -0.082,0.55298 -0.96573,0.28046 -1.93146,0.55827 -2.90248,0.82021 -3.71739,1.00277 -7.48241,1.84679 -11.28448,2.45269 -2.34156,0.35983 -4.72016,0.65087 -7.09877,0.70908 -0.45508,-1.24354 -0.78316,-2.52941 -0.99748,-3.83381 -0.0635,-0.4101 -0.11641,-0.82021 -0.15875,-1.23031 0.0688,-0.14817 0.09,-0.32015 0.0529,-0.49213 -0.0291,-0.13494 -0.0582,-0.27252 -0.082,-0.4101 -0.0212,-0.1614 -0.0265,-0.32015 -0.037,-0.4789 0.26458,-0.20108 0.43921,-0.53975 0.43127,-0.85989 -0.008,-0.2593 -0.11906,-0.5133 -0.30692,-0.69586 -0.0132,-0.0132 -0.0265,-0.0185 -0.0397,-0.0291 0.14023,-0.80963 0.34132,-1.6219 0.61648,-2.39184 0.40746,-1.00806 0.90752,-1.96585 1.53194,-2.84956 z m -2.17487,3.92113 c -0.003,0.0185 -0.003,0.0344 -0.005,0.0503 0,-0.005 0,-0.0132 0.003,-0.0185 0,-0.0106 0,-0.0212 0.003,-0.0318 z m -2.53736,9.22866 c -1.12183,-0.13229 -2.23837,-0.34925 -3.302,-0.73554 -0.62177,-0.254 -1.21179,-0.5715 -1.76212,-0.95514 -0.24607,-0.1905 -0.4789,-0.40217 -0.68527,-0.635 -0.082,-0.11377 -0.15346,-0.23019 -0.21961,-0.35455 -0.0238,-0.0661 -0.045,-0.13493 -0.0608,-0.20372 -0.005,-0.0582 -0.005,-0.11378 -0.005,-0.17198 0.0132,-0.0714 0.0291,-0.14023 0.0503,-0.20638 0.0582,-0.12171 0.12435,-0.24077 0.19843,-0.35454 0.17727,-0.21431 0.37571,-0.4101 0.58738,-0.59267 0.49742,-0.37571 1.03981,-0.67468 1.60602,-0.93398 0.99748,-0.41804 2.03729,-0.71437 3.10092,-0.89693 0.51858,-0.0767 1.04245,-0.11113 1.56633,-0.12171 0.0529,0.37041 0.11906,0.73819 0.2196,1.09802 0.0397,0.14287 0.12436,0.25929 0.23284,0.34396 0.14287,1.53458 0.44185,3.05329 0.89958,4.51908 0.0344,0.10848 0.0741,0.2196 0.11113,0.32808 -0.84932,-0.008 -1.69334,-0.045 -2.53736,-0.127 z m 22.81767,1.23296 c -0.80963,1.06363 -1.75419,2.0029 -2.794,2.84163 -1.15623,0.89429 -2.40771,1.67481 -3.74386,2.27806 -0.93133,0.39952 -1.89706,0.71173 -2.89454,0.88106 -0.68262,0.0952 -1.37054,0.11906 -2.05846,0.0582 -0.63235,-0.0767 -1.24883,-0.22225 -1.84679,-0.43392 -0.65087,-0.25929 -1.26471,-0.59795 -1.83091,-1.0107 -0.66146,-0.508 -1.25148,-1.09538 -1.78065,-1.74361 -0.35983,-0.46037 -0.68527,-0.94192 -0.97896,-1.44198 1.32292,-0.0397 2.64583,-0.13494 3.96081,-0.26194 2.65377,-0.254 5.29432,-0.6985 7.91898,-1.18004 2.2225,-0.4101 4.43442,-0.89958 6.63046,-1.43933 0.127,-0.0317 0.254,-0.0635 0.381,-0.0952 -0.28839,0.53446 -0.60854,1.0504 -0.96308,1.54781 z m 10.189103,-8.77887 c -0.193146,0.22754 -0.410104,0.43391 -0.637646,0.62706 -0.767292,0.56356 -1.616604,1.01071 -2.489729,1.40229 -0.8255,0.34925 -1.669521,0.64558 -2.521479,0.9234 0.05292,-0.53711 0.07408,-1.0795 0.06085,-1.61661 -0.02646,-1.11654 -0.224896,-2.21721 -0.558269,-3.27818 0.682623,0.0106 1.365248,0.0476 2.042581,0.11641 1.11125,0.127 2.2225,0.3175 3.272896,0.69056 0.251354,0.11113 0.494771,0.23548 0.724958,0.38365 0.07144,0.0609 0.137584,0.12435 0.201084,0.1905 0.01587,0.0265 0.03175,0.0503 0.04762,0.0767 0.0053,0.0185 0.01058,0.0397 0.01587,0.0582 0,0.0291 0.0026,0.0556 0.0026,0.0847 -0.0079,0.0318 -0.01323,0.0609 -0.02117,0.0926 -0.04498,0.0873 -0.08996,0.16933 -0.140229,0.24871 z"
       id="path418" />
  </g>
</svg>
