<?xml version="1.0" encoding="UTF-8" standalone="no"?>
<svg
   xmlns:dc="http://purl.org/dc/elements/1.1/"
   xmlns:cc="http://creativecommons.org/ns#"
   xmlns:rdf="http://www.w3.org/1999/02/22-rdf-syntax-ns#"
   xmlns:svg="http://www.w3.org/2000/svg"
   xmlns="http://www.w3.org/2000/svg"
   id="svg708"
   version="1.1"
   viewBox="0 0 18.552643 37.115674"
   height="37.115669mm"
   width="18.552643mm">
  <defs
     id="defs702" />
  <metadata
     id="metadata705">
    <rdf:RDF>
      <cc:Work
         rdf:about="">
        <dc:format>image/svg+xml</dc:format>
        <dc:type
           rdf:resource="http://purl.org/dc/dcmitype/StillImage" />
        <dc:title></dc:title>
      </cc:Work>
    </rdf:RDF>
  </metadata>
  <g
     transform="translate(227.96503,-122.79783)"
     id="layer1">
    <path
       className="question"
       style="fill:#ff0000;stroke-width:0.264583"
       d="m -211.81378,124.67703 c -2.20927,-1.92881 -5.461,-2.18546 -8.22589,-1.60602 -1.27265,0.26723 -2.52413,0.73025 -3.65655,1.38642 -0.15875,0.0926 -0.31485,0.18785 -0.46566,0.28575 -1.20386,0.78052 -2.27807,1.78594 -2.97392,3.05858 -0.48683,0.88371 -0.77787,1.85473 -0.82815,2.86544 -0.0212,0.41804 0.27253,0.7911 0.6985,0.8255 0.0979,0.008 0.19315,-0.008 0.28311,-0.037 0.14817,0.38893 0.31485,0.77258 0.508,1.14035 0.24342,0.45773 0.5371,0.89165 0.85196,1.29911 0.31485,0.4101 0.68527,0.76729 1.07421,1.1086 0.1217,0.11112 0.3466,0.13494 0.50006,0.10583 0.24077,-0.0423 0.4445,-0.21696 0.52387,-0.44714 0.11113,-0.3175 0.24342,-0.62707 0.39159,-0.93134 0.3175,-0.59266 0.70114,-1.143 1.143,-1.65364 0.48154,-0.52388 1.01335,-0.9869 1.59808,-1.38642 0.4154,-0.26194 0.84931,-0.48683 1.31233,-0.65087 0.23548,-0.0714 0.47361,-0.12436 0.71702,-0.14817 0.11907,-0.003 0.23548,0.005 0.3519,0.0212 0.0556,0.0159 0.11112,0.0344 0.16669,0.0556 0.0344,0.0212 0.0688,0.0423 0.10054,0.0661 0.0238,0.0265 0.0476,0.0529 0.0714,0.082 0.0265,0.0476 0.0503,0.0979 0.0688,0.14816 0.0212,0.0926 0.037,0.18521 0.0476,0.27781 0.003,0.23813 -0.0238,0.47096 -0.0661,0.7038 -0.14817,0.62441 -0.39159,1.21708 -0.67204,1.79387 -0.22755,0.4445 -0.50271,0.85196 -0.82286,1.23296 -1.26735,1.39171 -2.92629,2.33362 -4.31535,3.58246 -0.74613,0.66939 -1.39171,1.44198 -1.84415,2.33627 -0.42598,0.85196 -0.67998,1.77271 -0.79639,2.71992 -0.11378,0.93397 -0.0476,1.87854 0.0767,2.80722 0.127,0.93398 0.32809,1.83886 0.59003,2.74109 0.27516,0.95779 0.61383,1.89442 0.96572,2.83104 0.33338,0.89958 0.66675,1.8124 1.10332,2.67229 -0.0238,0.0318 -0.0529,0.0635 -0.0767,0.0979 -0.37306,0.52916 -0.5715,1.15623 -0.6694,1.78858 -0.0926,0.58473 -0.045,1.21708 0.127,1.78594 0.1905,0.63764 0.51859,1.19062 1.02659,1.62983 0.48418,0.41275 1.11654,0.62442 1.7436,0.64559 0.89958,0.0291 1.80446,-0.28575 2.54265,-0.78846 0.73554,-0.50007 1.2991,-1.25677 1.54781,-2.11402 0.23812,-0.8308 0.17727,-1.76213 -0.27781,-2.50825 -0.25665,-0.42598 -0.59796,-0.77523 -1.01336,-1.04246 -0.17992,-0.11377 -0.37042,-0.20109 -0.56621,-0.27517 0.20902,-0.73025 0.24607,-1.48167 0.24607,-2.24102 -0.005,-0.77258 -0.045,-1.54781 -0.0714,-2.32304 -0.0476,-1.42611 -0.0185,-2.86279 0.26458,-4.26509 0.0503,-0.22225 0.10319,-0.4445 0.1614,-0.6641 0.0661,-0.25929 0.11906,-0.51329 0.22225,-0.75671 0.24606,-0.4445 0.55298,-0.84137 0.88371,-1.22502 1.11125,-1.24883 2.37595,-2.34685 3.57187,-3.51367 1.24883,-1.21972 2.46327,-2.5347 3.2729,-4.0931 0.42598,-0.82285 0.71966,-1.66952 0.8837,-2.58233 0.16669,-0.91546 0.12171,-1.8759 -0.045,-2.78871 -0.14553,-0.79904 -0.4154,-1.59015 -0.81228,-2.30188 -0.37835,-0.66675 -0.85989,-1.24354 -1.43933,-1.75154 z m 0.38894,3.50838 c 0.15875,0.54768 0.25664,1.11125 0.29633,1.6801 0.0159,0.54769 -0.0265,1.09273 -0.13229,1.62983 -0.13494,0.56092 -0.33602,1.10067 -0.58737,1.61925 -0.44715,0.84403 -1.01336,1.60867 -1.63513,2.32834 -0.98954,1.11125 -2.09285,2.11137 -3.16706,3.13796 -1.08215,1.03716 -2.15636,2.11666 -2.96069,3.38931 -0.21696,0.3466 -0.46302,0.6641 -0.65352,1.02394 -0.23813,0.44714 -0.41804,0.90752 -0.56092,1.3917 -0.28575,0.96044 -0.42068,1.96057 -0.49212,2.9554 -0.0714,0.94456 -0.0794,1.88913 -0.0476,2.83633 0.0159,0.57415 0.045,1.143 0.0979,1.7145 0.0212,0.22755 0.0503,0.4498 0.0873,0.67469 0.005,0.0265 0.0132,0.0529 0.0185,0.0794 -0.09,0.0159 -0.18256,0.0238 -0.27252,0.045 -0.44714,-0.91546 -0.87048,-1.8415 -1.28323,-2.77019 -0.46566,-1.05304 -0.92339,-2.10873 -1.28323,-3.19881 0.005,0.0159 0.0106,0.0318 0.0132,0.0476 -0.14023,-0.44185 -0.27252,-0.88635 -0.37041,-1.34408 -0.10055,-0.4789 -0.15082,-0.97102 -0.17992,-1.4605 -0.0159,-0.57679 0.0265,-1.14829 0.12964,-1.71979 0.11642,-0.508 0.27782,-0.99748 0.49742,-1.47109 0.24871,-0.4736 0.55298,-0.89694 0.90488,-1.2991 1.4261,-1.51871 3.2967,-2.53736 4.71487,-4.06665 0.34396,-0.37041 0.65617,-0.76729 0.91811,-1.20121 0.29633,-0.48418 0.52652,-1.02393 0.73554,-1.55045 0.29104,-0.74878 0.48154,-1.53988 0.41804,-2.3495 -0.045,-0.56886 -0.34925,-1.11125 -0.82021,-1.4314 -0.48683,-0.33073 -1.09537,-0.36513 -1.65629,-0.30163 -0.64029,0.0741 -1.27529,0.34132 -1.83621,0.64294 -0.69585,0.37306 -1.33879,0.85461 -1.91294,1.397 -0.79375,0.75142 -1.45785,1.63777 -1.94733,2.61144 -0.18256,-0.21167 -0.3519,-0.43392 -0.51329,-0.66675 -0.4154,-0.65881 -0.73819,-1.35731 -0.98425,-2.0955 -0.09,-0.29369 -0.16669,-0.59002 -0.23284,-0.889 -0.0132,-0.0556 -0.0423,-0.10319 -0.0661,-0.15346 0.0767,-0.22754 0.16404,-0.44979 0.26723,-0.66675 0.23812,-0.45244 0.52387,-0.87048 0.8546,-1.25677 0.48684,-0.5371 1.04246,-1.00277 1.64836,-1.40758 0.76729,-0.48419 1.59014,-0.87048 2.45268,-1.16152 0.96838,-0.30427 1.96321,-0.48948 2.97657,-0.54505 0.7567,-0.0212 1.51077,0.0291 2.2516,0.16934 0.59267,0.13229 1.16152,0.32014 1.70392,0.57944 0.41539,0.22225 0.80433,0.47889 1.16416,0.78316 0.3228,0.30163 0.60855,0.635 0.85725,1.00013 0.24077,0.40481 0.43657,0.8255 0.58738,1.27 z"
       id="path586" />
  </g>
</svg>
