<?xml version="1.0" encoding="UTF-8" standalone="no"?>
<svg
   xmlns:dc="http://purl.org/dc/elements/1.1/"
   xmlns:cc="http://creativecommons.org/ns#"
   xmlns:rdf="http://www.w3.org/1999/02/22-rdf-syntax-ns#"
   xmlns:svg="http://www.w3.org/2000/svg"
   xmlns="http://www.w3.org/2000/svg"
   id="svg708"
   version="1.1"
   viewBox="0 0 56.509011 36.335436"
   height="36.335434mm"
   width="56.50901mm">
  <defs
     id="defs702" />
  <metadata
     id="metadata705">
    <rdf:RDF>
      <cc:Work
         rdf:about="">
        <dc:format>image/svg+xml</dc:format>
        <dc:type
           rdf:resource="http://purl.org/dc/dcmitype/StillImage" />
        <dc:title></dc:title>
      </cc:Work>
    </rdf:RDF>
  </metadata>
  <g
     transform="translate(123.63765,-151.40124)"
     id="layer1">
    <path
       className="rainbow"
       style="fill:#ffffff;stroke-width:0.264583"
       d="m -70.449751,174.97797 c -0.41539,-0.0397 -0.84137,0.0185 -1.24089,0.14023 -0.14023,0.0423 -0.27517,0.10054 -0.41011,0.15346 0.24342,-1.16946 0.39159,-2.34686 0.44186,-3.54277 0.0873,-2.09021 -0.09,-4.19894 -0.5715,-6.23888 -0.45508,-1.92881 -1.18533,-3.79677 -2.20398,-5.49804 -1.01865,-1.70392 -2.30188,-3.19881 -3.82058,-4.47675 -1.52665,-1.28058 -3.31523,-2.25954 -5.18848,-2.93688 -2.07169,-0.74877 -4.29419,-1.09802 -6.49023,-1.16681 -1.02923,-0.0317 -2.05581,0.0106 -3.07711,0.11642 -3.29935,0.34925 -6.51404,1.40229 -9.408579,3.04535 -6.78391,3.84704 -11.69458,10.66536 -13.69219,18.15836 -0.14552,0.12171 -0.28839,0.24606 -0.42068,0.37835 -0.44186,0.43656 -0.82286,0.93398 -1.11654,1.48431 -0.19844,0.37042 -0.3519,0.74613 -0.46832,1.13771 -0.84402,-0.36248 -1.75683,-0.56356 -2.67493,-0.35189 -0.93663,0.21695 -1.71186,0.85725 -2.18282,1.68804 -0.47625,0.83343 -0.69585,1.80445 -0.65881,2.7596 0.0397,0.9816 0.30163,1.9394 0.89958,2.7305 0.3519,0.46302 0.83873,0.81756 1.37848,1.03717 0.33867,0.13758 0.70379,0.20373 1.06892,0.2196 0.0556,0.32544 0.1561,0.64558 0.27781,0.95515 0.10848,0.27252 0.27517,0.52123 0.44186,0.762 0.29633,0.43391 0.762,0.75671 1.24354,0.9525 0.46302,0.18785 0.96837,0.20108 1.4605,0.1561 0.18521,-0.0159 0.36777,-0.0582 0.54504,-0.10848 0.2831,-0.0767 0.56621,-0.17198 0.83873,-0.28575 0.40217,-0.16669 0.78317,-0.381 1.15358,-0.61119 0.45773,-0.28575 0.89959,-0.59266 1.3335,-0.91281 0.35719,-0.26458 0.70644,-0.5371 1.05569,-0.81756 0.24871,-0.20373 0.48683,-0.42598 0.75406,-0.61383 0.0767,-0.045 0.15611,-0.0873 0.24077,-0.12171 0.17992,-0.0476 0.35984,-0.0794 0.5424,-0.0926 0.32808,0 0.64823,0.045 0.96837,0.11377 0.66146,0.16405 1.31498,0.38894 1.99496,0.47096 0.81492,0.0979 1.63248,-0.10318 2.3204,-0.54768 0.68262,-0.43657 1.27264,-1.02394 1.67481,-1.73038 0.33867,-0.59002 0.5424,-1.22502 0.65617,-1.89442 0.38364,-2.22779 -0.65088,-5.35252 -3.24379,-5.60122 -0.4154,-0.0397 -0.84138,0.0185 -1.2409,0.14023 -0.17992,0.0529 -0.3519,0.1217 -0.52388,0.19579 0.0106,-0.0423 0.0185,-0.082 0.0185,-0.127 0.008,-0.20638 0.0318,-0.41011 0.0714,-0.61384 0.0767,-0.28839 0.18521,-0.5662 0.3175,-0.83343 0.23019,-0.41275 0.508,-0.78846 0.81757,-1.143 0.67468,-0.72496 1.45785,-1.3335 2.28071,-1.88119 1.95791,-1.26471 4.11691,-2.20663 6.331469,-2.92894 1.04775,-0.32014 2.12196,-0.56092 3.21998,-0.62706 0.64823,-0.0132 1.28852,0.0397 1.92352,0.17462 0.64559,0.1614 1.25942,0.39952 1.85209,0.6985 1.12712,0.61913 2.13518,1.42875 3.09033,2.286 1.06363,0.97896 2.05052,2.04523 2.85221,3.25438 0.45244,0.72496 0.82814,1.49225 1.10331,2.30187 0.16669,0.55298 0.28046,1.1139 0.34925,1.68275 -0.5371,-0.11906 -1.09008,-0.14287 -1.64571,-0.0132 -0.93662,0.21696 -1.71185,0.85725 -2.18281,1.68804 -0.47625,0.83344 -0.69585,1.80446 -0.65881,2.75961 0.0397,0.9816 0.30162,1.93939 0.89958,2.7305 0.3519,0.46302 0.83873,0.81756 1.37848,1.03717 0.33867,0.13758 0.70379,0.20372 1.06892,0.2196 0.0556,0.32544 0.1561,0.64558 0.27781,0.95515 0.10848,0.27252 0.27517,0.52122 0.44185,0.762 0.29634,0.43391 0.762,0.7567 1.24355,0.9525 0.46302,0.18785 0.96837,0.20108 1.4605,0.1561 0.1852,-0.0159 0.36777,-0.0582 0.54504,-0.10848 0.2831,-0.0767 0.56621,-0.17198 0.83873,-0.28575 0.40216,-0.16669 0.78316,-0.381 1.15358,-0.61119 0.45773,-0.28575 0.89958,-0.59266 1.3335,-0.91281 0.35719,-0.26458 0.70644,-0.5371 1.05304,-0.81756 0.24871,-0.20373 0.48683,-0.42598 0.75406,-0.61384 0.0767,-0.045 0.15611,-0.0873 0.24077,-0.1217 0.17992,-0.0476 0.35984,-0.0794 0.5424,-0.0926 0.32808,0 0.64823,0.045 0.96838,0.11377 0.66145,0.16404 1.31497,0.38894 1.99495,0.47096 0.81492,0.0979 1.63248,-0.10319 2.3204,-0.54769 0.68262,-0.43656 1.272646,-1.02393 1.674812,-1.73037 0.338667,-0.59002 0.542396,-1.22502 0.656167,-1.89442 0.383646,-2.21191 -0.653521,-5.33929 -3.243789,-5.58535 z m -41.645409,-7.79463 c 1.13771,-2.14312 2.53206,-4.13808 4.14867,-5.94518 1.5187,-1.65629 3.22527,-3.13002 5.09852,-4.37092 1.77271,-1.13771 3.675059,-2.05581 5.677949,-2.70933 -0.0317,0.0106 -0.0635,0.0185 -0.0926,0.0291 0.0344,-0.0106 0.0714,-0.0212 0.10848,-0.0344 0.0397,-0.0132 0.0767,-0.0265 0.11642,-0.0371 -0.0318,0.0106 -0.0609,0.0212 -0.0926,0.0318 1.82827,-0.56091 3.70946,-0.89164 5.61975,-0.98425 1.84679,-0.0635 3.69887,0.09 5.50598,0.48684 1.42875,0.34131 2.80987,0.84402 4.11162,1.524 1.08744,0.59796 2.10344,1.30968 3.02948,2.13254 0.98425,0.91281 1.84679,1.93675 2.58498,3.05594 -0.0212,-0.0317 -0.0397,-0.0635 -0.0582,-0.0952 0.0291,0.0476 0.0609,0.0952 0.09,0.14287 0.0106,0.0159 0.0238,0.0344 0.0344,0.0503 -0.0106,-0.0159 -0.0185,-0.0291 -0.0291,-0.045 0.81227,1.29382 1.44727,2.68288 1.91558,4.13544 -0.0132,-0.0423 -0.0265,-0.0847 -0.037,-0.127 0.0159,0.0476 0.0291,0.0952 0.0423,0.14288 0.0106,0.0291 0.0185,0.0582 0.0291,0.0873 -0.008,-0.0265 -0.0159,-0.0503 -0.0238,-0.0767 0.50536,1.67217 0.78846,3.39725 0.87577,5.14085 0.0291,0.8255 0.0159,1.65365 -0.0397,2.47915 -0.0291,0.42333 -0.0794,0.84402 -0.13758,1.26471 -0.20108,-0.17727 -0.4154,-0.33867 -0.64029,-0.47361 -0.89694,-0.53446 -1.94204,-0.71702 -2.96598,-0.60854 -0.17992,0.0185 -0.35983,0.0476 -0.5371,0.082 -0.24342,0.0503 -0.48419,0.11906 -0.72232,0.20109 -0.33337,-1.55311 -0.7276,-3.09034 -1.23825,-4.59846 -0.61648,-1.82563 -1.45521,-3.55865 -2.56381,-5.13292 -1.06892,-1.51871 -2.46856,-2.83369 -4.06929,-3.77825 -1.45786,-0.86254 -3.08769,-1.38906 -4.77044,-1.56104 -0.90487,-0.0926 -1.82033,-0.082 -2.72785,0.0159 -0.73554,0.0767 -1.46579,0.21167 -2.17488,0.3863 -3.41577,0.84931 -6.548429,2.71727 -9.204849,4.99268 -1.48961,1.27794 -2.84163,2.72521 -4.01638,4.29419 -0.93398,1.24354 -1.74095,2.59821 -2.36802,4.02696 -0.39158,-0.0476 -0.78846,-0.0503 -1.18268,-0.008 -0.17992,0.0185 -0.35984,0.0476 -0.53711,0.082 -0.19579,0.0397 -0.39158,0.0952 -0.58473,0.15611 0.48948,-1.4949 1.09802,-2.95011 1.82563,-4.35505 z m 5.13292,8.14917 c 0.1905,-0.0529 0.381,-0.09 0.57943,-0.10583 0.15082,0 0.30163,0.0132 0.45244,0.0397 0.14552,0.0397 0.28311,0.09 0.41804,0.15345 0.14023,0.082 0.27252,0.17463 0.39423,0.28046 0.15875,0.15611 0.29898,0.32544 0.42863,0.508 0.17462,0.2884 0.31221,0.59267 0.42068,0.91017 0.11378,0.39687 0.18257,0.80433 0.20903,1.21708 0.008,0.41275 -0.0265,0.82021 -0.10584,1.22767 -0.09,0.36777 -0.21696,0.72231 -0.38894,1.05833 -0.14287,0.24871 -0.30427,0.48419 -0.49477,0.70115 -0.23548,0.24606 -0.49477,0.46831 -0.77523,0.6641 -0.18785,0.11113 -0.37835,0.20373 -0.58208,0.27781 -0.17198,0.045 -0.3466,0.0741 -0.52123,0.09 -0.2831,0 -0.56091,-0.037 -0.83873,-0.0926 -0.90752,-0.22754 -1.78858,-0.60325 -2.73579,-0.61119 -0.43921,-0.005 -0.84667,0.0556 -1.25677,0.20637 -0.26458,0.0952 -0.52123,0.2249 -0.77787,0.34661 -0.30957,0.14552 -0.6059,0.33337 -0.89694,0.51329 -0.35719,0.21431 -0.70379,0.44185 -1.06098,0.65352 -0.65617,0.38894 -1.32556,0.76994 -2.04788,1.01865 -0.19579,0.0556 -0.39423,0.0952 -0.59795,0.11641 -0.0926,-0.003 -0.18786,-0.0106 -0.28046,-0.0238 -0.045,-0.0159 -0.0926,-0.0317 -0.13759,-0.0503 -0.0423,-0.0265 -0.082,-0.0556 -0.12435,-0.0873 -0.0688,-0.0741 -0.13494,-0.15346 -0.19579,-0.23813 -0.16934,-0.29898 -0.29369,-0.61648 -0.42069,-0.93927 -0.16669,-0.42598 -0.68262,-0.65881 -1.11654,-0.59266 -0.045,-0.003 -0.09,0 -0.13758,0.008 -0.15875,0.0265 -0.31486,0.0476 -0.47096,0.0582 -0.21696,0 -0.43127,-0.0159 -0.64029,-0.0582 -0.1614,-0.0423 -0.3175,-0.10054 -0.46832,-0.17198 -0.14552,-0.082 -0.28046,-0.17727 -0.40746,-0.28575 -0.14552,-0.14287 -0.27516,-0.29633 -0.39422,-0.46566 -0.14288,-0.23548 -0.254,-0.48419 -0.34396,-0.74348 -0.10319,-0.3519 -0.1614,-0.71173 -0.17992,-1.07686 -0.005,-0.38364 0.0291,-0.76464 0.10848,-1.14035 0.0767,-0.30956 0.18256,-0.60854 0.32279,-0.89429 0.12171,-0.2196 0.26194,-0.42598 0.42598,-0.61383 0.13229,-0.1323 0.27252,-0.254 0.42863,-0.36248 0.15345,-0.09 0.30956,-0.16404 0.4736,-0.22225 0.1905,-0.0529 0.38365,-0.0847 0.57944,-0.0979 0.24606,0 0.48683,0.0291 0.7276,0.0767 0.41011,0.10319 0.79904,0.26458 1.1774,0.46038 0.0529,0.0291 0.10848,0.0608 0.16139,0.0899 0.19579,0.11377 0.40746,0.15611 0.61913,0.0529 0.20902,-0.0979 0.31485,-0.2831 0.35189,-0.50006 0.0106,-0.0688 0.0238,-0.13759 0.037,-0.20638 0.10319,-0.40746 0.24871,-0.80433 0.43392,-1.18268 0.2196,-0.39953 0.48154,-0.7673 0.78581,-1.10861 0.30956,-0.3175 0.64823,-0.59796 1.016,-0.84402 0.39952,-0.24606 0.8255,-0.4445 1.27,-0.59002 0.37042,-0.10583 0.75142,-0.17198 1.13506,-0.19579 0.32809,-0.005 0.64823,0.0238 0.97103,0.09 0.25135,0.0661 0.49741,0.1561 0.73554,0.26987 0.23018,0.127 0.4445,0.28046 0.64823,0.45244 0.21166,0.20637 0.39952,0.43127 0.56356,0.67733 0.20373,0.33602 0.36248,0.69321 0.48683,1.06363 0.0238,0.082 0.0476,0.16404 0.0714,0.24606 0.0609,0.23019 0.1905,0.42069 0.42069,0.50535 0.11377,0.0423 0.22754,0.0529 0.3466,0.0318 0.11378,-0.0212 0.21432,-0.0688 0.30428,-0.14023 0.29104,-0.16933 0.58472,-0.31485 0.89429,-0.42333 z m 21.238099,-6.64633 c -1.41817,-1.37054 -2.97921,-2.63525 -4.77308,-3.48192 -0.75142,-0.35189 -1.55575,-0.58737 -2.37332,-0.72496 -0.84137,-0.14023 -1.70656,-0.11906 -2.55058,-0.0291 -0.86519,0.09 -1.71185,0.29633 -2.53735,0.55033 -0.70115,0.21431 -1.39171,0.45773 -2.071689,0.73025 -1.33879,0.53711 -2.65113,1.15888 -3.89996,1.87854 -1.31233,0.75407 -2.59027,1.62984 -3.6195,2.74638 -0.6006,0.65352 -1.12712,1.40229 -1.43404,2.23044 -0.25929,-0.2593 -0.54769,-0.49213 -0.85725,-0.67734 -0.13494,-0.0794 -0.27252,-0.14816 -0.4101,-0.21431 0.12435,-0.27781 0.254,-0.55562 0.39158,-0.8255 0.86519,-1.6219 1.95527,-3.1115 3.17764,-4.47675 1.49755,-1.63777 3.19088,-3.08769 5.04561,-4.30742 -0.0106,0.005 -0.0185,0.0132 -0.0291,0.0185 0.0159,-0.0106 0.0318,-0.0212 0.0476,-0.0291 0.037,-0.0238 0.0741,-0.0476 0.11112,-0.0714 -0.0238,0.0159 -0.0503,0.0344 -0.0741,0.0503 1.47373,-0.93398 3.040069,-1.71979 4.693709,-2.27012 1.21708,-0.38365 2.46856,-0.64029 3.74121,-0.71173 0.99219,-0.0318 1.97644,0.0529 2.94746,0.26458 0.81227,0.20109 1.59279,0.48684 2.33891,0.86519 0.80169,0.43127 1.53723,0.96044 2.21986,1.56369 0.82021,0.76729 1.53194,1.62454 2.15635,2.55587 0.98425,1.54252 1.70392,3.22792 2.27277,4.96359 0.43657,1.3917 0.77523,2.80987 1.07421,4.23598 -0.28839,0.20637 -0.56356,0.43127 -0.81492,0.67997 -0.32543,0.3228 -0.61912,0.67998 -0.86783,1.06363 -0.10583,-0.54769 -0.25664,-1.08744 -0.44979,-1.6219 -0.33867,-0.9472 -0.8599,-1.82033 -1.43404,-2.64318 -0.58738,-0.84402 -1.28588,-1.60073 -2.02142,-2.31246 z m 17.13971,11.95916 c -0.09,0.36777 -0.21696,0.72232 -0.38894,1.05834 -0.14023,0.2487 -0.30427,0.48418 -0.49477,0.70114 -0.23548,0.24606 -0.49477,0.46831 -0.77523,0.66411 -0.18785,0.11112 -0.37835,0.20373 -0.58208,0.27781 -0.17198,0.045 -0.34661,0.0741 -0.52123,0.09 -0.28311,0 -0.56092,-0.037 -0.83873,-0.0926 -0.90752,-0.22754 -1.78859,-0.60325 -2.73579,-0.61118 -0.43921,-0.005 -0.84667,0.0556 -1.25677,0.20637 -0.26459,0.0952 -0.52123,0.2249 -0.77788,0.3466 -0.30956,0.14553 -0.6059,0.33338 -0.89694,0.5133 -0.35718,0.21431 -0.70379,0.44185 -1.06098,0.65352 -0.65616,0.38893 -1.32556,0.76993 -2.04787,1.01864 -0.19579,0.0556 -0.39423,0.0952 -0.59796,0.11642 -0.0926,-0.003 -0.18785,-0.0106 -0.28046,-0.0238 -0.045,-0.0159 -0.0926,-0.0318 -0.13758,-0.0503 -0.0423,-0.0265 -0.082,-0.0556 -0.12436,-0.0873 -0.0688,-0.0741 -0.13493,-0.15345 -0.19579,-0.23812 -0.16933,-0.29898 -0.29368,-0.61648 -0.42068,-0.93927 -0.16669,-0.42598 -0.68263,-0.65881 -1.11655,-0.59267 -0.045,-0.003 -0.09,0 -0.13758,0.008 -0.15875,0.0265 -0.31485,0.0476 -0.47096,0.0582 -0.21696,0 -0.43127,-0.0159 -0.64029,-0.0582 -0.1614,-0.0423 -0.3175,-0.10054 -0.46831,-0.17198 -0.14552,-0.082 -0.28046,-0.17727 -0.40746,-0.28575 -0.14552,-0.14288 -0.27517,-0.29633 -0.39423,-0.46567 -0.14287,-0.23548 -0.254,-0.48418 -0.34396,-0.74348 -0.10319,-0.35189 -0.16139,-0.71173 -0.17991,-1.07685 -0.005,-0.38365 0.0291,-0.76465 0.10847,-1.14035 0.0767,-0.30957 0.18257,-0.60855 0.3228,-0.8943 0.1217,-0.2196 0.26193,-0.42598 0.42598,-0.61383 0.13229,-0.13229 0.27252,-0.254 0.42862,-0.36248 0.15346,-0.09 0.30956,-0.16404 0.4736,-0.22225 0.1905,-0.0529 0.38365,-0.0847 0.57944,-0.0979 0.24606,0 0.48684,0.0291 0.72761,0.0767 0.4101,0.10318 0.79904,0.26458 1.17739,0.46037 0.0529,0.0291 0.10848,0.0609 0.1614,0.09 0.19579,0.11377 0.40746,0.1561 0.61912,0.0529 0.20902,-0.0979 0.31486,-0.2831 0.3519,-0.50006 0.0106,-0.0688 0.0238,-0.13758 0.037,-0.20637 0.10319,-0.40746 0.24871,-0.80433 0.43392,-1.18269 0.2196,-0.39952 0.48154,-0.76729 0.78581,-1.1086 0.30956,-0.3175 0.64823,-0.59796 1.016,-0.84402 0.39952,-0.24607 0.8255,-0.4445 1.27,-0.59002 0.37041,-0.10584 0.75141,-0.17198 1.13506,-0.1958 0.32808,-0.005 0.64823,0.0238 0.97102,0.09 0.25136,0.0661 0.49742,0.15611 0.73554,0.26988 0.23019,0.127 0.4445,0.28046 0.64823,0.45243 0.21167,0.20638 0.39952,0.43128 0.56356,0.67734 0.20373,0.33602 0.36248,0.69321 0.48684,1.06362 0.0238,0.082 0.0476,0.16404 0.0714,0.24607 0.0609,0.23018 0.1905,0.42068 0.42068,0.50535 0.11378,0.0423 0.22755,0.0529 0.34661,0.0317 0.11377,-0.0212 0.21431,-0.0688 0.30427,-0.14023 0.2831,-0.17198 0.57679,-0.3175 0.88635,-0.42862 0.1905,-0.0529 0.381,-0.09 0.57944,-0.10584 0.15081,0 0.30163,0.0132 0.45244,0.0397 0.14552,0.0397 0.2831,0.09 0.41804,0.15346 0.14023,0.082 0.27252,0.17462 0.39423,0.28046 0.15875,0.1561 0.29898,0.32543 0.42862,0.508 0.17463,0.28839 0.31221,0.59266 0.42069,0.91016 0.11377,0.39688 0.18256,0.80433 0.20902,1.21708 0.0132,0.4154 -0.0185,0.8255 -0.0979,1.23296 z"
       id="path494" />
  </g>
</svg>
