<?xml version="1.0" encoding="UTF-8" standalone="no"?>
<svg
   xmlns:dc="http://purl.org/dc/elements/1.1/"
   xmlns:cc="http://creativecommons.org/ns#"
   xmlns:rdf="http://www.w3.org/1999/02/22-rdf-syntax-ns#"
   xmlns:svg="http://www.w3.org/2000/svg"
   xmlns="http://www.w3.org/2000/svg"
   id="svg708"
   version="1.1"
   viewBox="0 0 48.511891 21.415608"
   height="21.415606mm"
   width="48.51189mm">
  <defs
     id="defs702" />
  <metadata
     id="metadata705">
    <rdf:RDF>
      <cc:Work
         rdf:about="">
        <dc:format>image/svg+xml</dc:format>
        <dc:type
           rdf:resource="http://purl.org/dc/dcmitype/StillImage" />
        <dc:title></dc:title>
      </cc:Work>
    </rdf:RDF>
  </metadata>
  <g
     transform="translate(239.73869,-136.09316)"
     id="layer1">
    <path
       className="flash2"
       style="fill:#ff0000;stroke-width:0.264583"
       d="m -191.25974,141.44833 c -0.10848,-1.04775 -0.48419,-2.05317 -1.16417,-2.86544 -0.82814,-0.99483 -1.9976,-1.63777 -3.05064,-2.36802 -0.12171,-0.0847 -0.26458,-0.12171 -0.40746,-0.12171 -0.24606,0 -0.49477,0.11642 -0.66146,0.29898 -0.0185,0 -0.0344,-0.008 -0.0529,-0.008 -0.381,0 -0.73555,0.25665 -0.84667,0.64029 -0.16669,0.56886 -0.28311,1.143 -0.39423,1.72509 -0.14552,0.762 -0.26988,1.52664 -0.4101,2.28864 -0.27782,1.49225 -0.58473,3.00302 -1.15359,4.41854 -0.18521,0.41805 -0.39687,0.81757 -0.66146,1.18798 -0.1217,0.14288 -0.2487,0.27517 -0.39158,0.39952 -0.09,0.0635 -0.18521,0.11907 -0.2831,0.16934 -0.0794,0.0265 -0.1614,0.0476 -0.24342,0.0661 -0.10583,0.005 -0.21167,0.005 -0.3175,-0.003 -0.10848,-0.0238 -0.21431,-0.0529 -0.3175,-0.09 -0.1561,-0.0767 -0.30427,-0.16669 -0.44715,-0.26723 -0.25929,-0.21696 -0.48948,-0.46037 -0.70379,-0.71967 -0.78846,-1.05568 -1.35202,-2.27012 -1.86796,-3.47662 0.005,0.0132 0.0132,0.0265 0.0185,0.0423 -0.46831,-1.11389 -0.87841,-2.27277 -1.50812,-3.30729 -0.10848,-0.17727 -0.27252,-0.30956 -0.4736,-0.36512 -0.254,-0.0714 -0.60061,-0.0132 -0.77523,0.20372 -0.54769,0.68528 -1.03188,1.397 -1.44727,2.16694 -0.43657,0.80963 -0.77523,1.66952 -1.07421,2.53736 -0.44715,1.28587 -0.77259,2.60879 -1.10332,3.92641 -0.31485,-0.49477 -0.57679,-1.02129 -0.81227,-1.56104 -0.91281,-2.2225 -1.3917,-4.66196 -2.7596,-6.68073 -0.11113,-0.16933 -0.25665,-0.29898 -0.46038,-0.35189 -0.24341,-0.0714 -0.57679,-0.008 -0.74612,0.19579 -1.96586,2.36537 -3.36286,5.10116 -4.6355,7.88458 -0.93927,-2.52677 -1.21444,-5.34458 -2.83898,-7.56444 -0.13229,-0.18256 -0.26988,-0.32014 -0.49742,-0.381 -0.14552,-0.0423 -0.29368,-0.0423 -0.43921,0 -0.14022,0.0423 -0.26193,0.11113 -0.36512,0.21432 -1.651,1.30968 -2.76225,3.15383 -3.73063,4.99004 -0.89693,1.68804 -1.69068,3.44223 -2.7887,5.0165 -0.26723,-0.39423 -0.49213,-0.80963 -0.68792,-1.24354 -0.60854,-1.48696 -0.89694,-3.07975 -1.11654,-4.66725 -0.19844,-1.55575 -0.32544,-3.12473 -0.55563,-4.68048 -0.0344,-0.20638 -0.22489,-0.41011 -0.39687,-0.5133 -0.19579,-0.11641 -0.43921,-0.14552 -0.65881,-0.0873 -0.21432,0.0635 -0.40217,0.20373 -0.5133,0.39688 -0.0159,0.0265 -0.0238,0.0556 -0.037,0.082 -0.005,0 -0.008,-0.003 -0.0132,-0.003 -1.06627,-0.10054 -2.21721,-0.12964 -3.21998,0.32015 -0.67998,0.30162 -1.16152,0.87048 -1.35995,1.5875 -0.21167,0.75935 -0.0741,1.59279 0.0899,2.34156 0.20638,0.91281 0.52652,1.79917 0.82815,2.68288 0.254,0.74612 0.50535,1.49225 0.68792,2.25954 0.19579,0.82021 0.37306,1.64571 0.5715,2.46327 0.23548,0.98689 0.5027,1.9685 0.8202,2.93423 0.28311,0.84137 0.60855,1.70391 1.09803,2.45004 0.18256,0.27781 0.39422,0.55033 0.65616,0.75935 0.30163,0.24342 0.635,0.38629 1.016,0.46302 0.89429,0.18786 1.77006,-0.11641 2.49502,-0.63764 0.74613,-0.5424 1.34409,-1.25677 1.92882,-1.96586 0.56885,-0.69585 1.12447,-1.42345 1.82562,-1.98966 0.14552,-0.10584 0.29633,-0.19844 0.45773,-0.27517 0.30956,-0.11112 0.635,-0.18785 0.96044,-0.23812 0.20637,-0.0212 0.4101,-0.0291 0.61383,-0.0132 0.0741,0.0159 0.14817,0.0344 0.2196,0.0582 0.045,0.0238 0.09,0.0503 0.1323,0.0767 0.0503,0.045 0.0952,0.0926 0.14023,0.14288 0.0688,0.10319 0.12964,0.21431 0.18256,0.32808 0.14552,0.37571 0.24341,0.77259 0.34925,1.16417 0.15346,0.53181 0.33866,1.05833 0.60589,1.54517 0.31221,0.56356 0.7673,1.016 1.28852,1.38112 0.30692,0.21167 0.65617,0.35719 1.00278,0.48948 0.32808,0.12965 0.67204,0.19579 1.02393,0.20638 0.61384,0.0212 1.19857,-0.26194 1.66159,-0.64294 0.51329,-0.42598 0.89958,-1.00277 1.2356,-1.57163 0.70908,-1.19327 1.22238,-2.50031 2.00819,-3.6486 0.37571,0.36777 0.74877,0.73554 1.12183,1.10066 0.42598,0.41805 0.84931,0.84138 1.29381,1.23826 0.33603,0.30691 0.69586,0.59795 1.08744,0.83872 0.35984,0.21961 0.74613,0.33867 1.16417,0.3863 0.37835,0.0423 0.73819,-0.082 1.07685,-0.22755 0.381,-0.16139 0.71173,-0.44714 1.016,-0.72231 0.42334,-0.381 0.7964,-0.81756 1.16417,-1.25148 0.43127,-0.50271 0.84402,-1.016 1.25412,-1.53458 0.3228,0.31485 0.62442,0.64558 0.91282,0.99748 0.60325,0.79375 1.09008,1.66952 1.61396,2.52148 0.37835,0.61383 0.7911,1.28852 1.43933,1.65364 0.29898,0.16669 0.65881,0.24871 1.00012,0.21961 0.4445,-0.0344 0.84932,-0.20373 1.22767,-0.43127 0.44715,-0.27252 0.84667,-0.62971 1.22767,-0.9869 0.52652,-0.49212 1.016,-1.02394 1.4896,-1.56633 0.78052,-0.89165 1.52665,-1.8124 2.25161,-2.75167 0.76993,-0.99483 1.49225,-2.02406 2.13783,-3.10092 0.635,-1.05833 1.17739,-2.17752 1.56633,-3.34433 0.34925,-1.02658 0.53975,-2.15371 0.42598,-3.23585 z m -29.00098,6.33941 c -0.003,-0.005 -0.005,-0.0132 -0.008,-0.0185 -0.005,-0.0106 -0.008,-0.0238 -0.0132,-0.0344 0.008,0.0185 0.0159,0.037 0.0212,0.0529 z m 27.15419,-5.07735 c -0.11906,0.75142 -0.3519,1.47373 -0.64029,2.18281 -0.81756,1.85738 -1.98967,3.54806 -3.22263,5.15408 -0.62971,0.80698 -1.28323,1.60073 -1.93939,2.38919 -0.69586,0.83344 -1.36261,1.71979 -2.20663,2.41565 -0.14552,0.10583 -0.29633,0.20637 -0.45508,0.28839 -0.0476,0.0159 -0.0952,0.0291 -0.14552,0.0423 -0.0159,0 -0.0344,0 -0.0503,0 -0.0106,-0.003 -0.0212,-0.005 -0.0344,-0.008 -0.0423,-0.0212 -0.082,-0.0476 -0.12171,-0.0741 -0.12964,-0.11642 -0.24606,-0.24607 -0.35983,-0.381 -0.50271,-0.66146 -0.92604,-1.37848 -1.42081,-2.04788 -0.71702,-0.95779 -1.53723,-1.85737 -2.45004,-2.63789 -0.14023,-0.11642 -0.28311,-0.1905 -0.46832,-0.1905 -0.15875,0 -0.36512,0.0609 -0.46831,0.1905 -0.56356,0.73025 -1.12712,1.4605 -1.72508,2.159 -0.39423,0.46302 -0.80434,0.91545 -1.27529,1.30175 -0.15875,0.11641 -0.3228,0.22225 -0.49742,0.30956 -0.0794,0.0291 -0.1614,0.0503 -0.24342,0.0688 -0.0609,0.003 -0.12171,0.005 -0.18256,0.003 -0.09,-0.0185 -0.17992,-0.0423 -0.26723,-0.0741 -0.20373,-0.0979 -0.39158,-0.21696 -0.5715,-0.34925 -0.49212,-0.38894 -0.93662,-0.83343 -1.37848,-1.28058 -0.69321,-0.69585 -1.35996,-1.41288 -2.05581,-2.10608 -0.26459,-0.26459 -0.75142,-0.28575 -1.01071,0 -0.73025,0.7911 -1.25148,1.73302 -1.74625,2.68552 -0.44185,0.84931 -0.85196,1.72773 -1.41552,2.5056 -0.16404,0.20638 -0.33602,0.39423 -0.53446,0.56356 -0.0926,0.0661 -0.1905,0.12436 -0.29369,0.17463 -0.0767,0.0265 -0.1561,0.0476 -0.23548,0.0635 -0.0926,0.005 -0.1852,0.003 -0.27781,-0.003 -0.20108,-0.0423 -0.39423,-0.10319 -0.58473,-0.17727 -0.24341,-0.11377 -0.4736,-0.24077 -0.69056,-0.39687 -0.15346,-0.12965 -0.29369,-0.26988 -0.42333,-0.42334 -0.16934,-0.23548 -0.30957,-0.48418 -0.42863,-0.74348 -0.3175,-0.81491 -0.44185,-1.71185 -0.87048,-2.48443 -0.24077,-0.43127 -0.60854,-0.74084 -1.06098,-0.92869 -0.53181,-0.21431 -1.10596,-0.16933 -1.65364,-0.0873 -0.58473,0.0873 -1.17211,0.26987 -1.66952,0.59266 -0.49742,0.32809 -0.92075,0.76994 -1.30969,1.21973 -0.83344,0.94986 -1.54781,2.02142 -2.53471,2.83104 -0.20902,0.15611 -0.42598,0.29105 -0.66146,0.39952 -0.13758,0.0476 -0.27516,0.0873 -0.41804,0.11642 -0.14023,0.0132 -0.27781,0.0106 -0.42069,0 -0.11641,-0.0212 -0.23018,-0.0503 -0.34131,-0.0873 -0.0556,-0.0291 -0.10848,-0.0582 -0.15875,-0.0926 -0.10583,-0.0926 -0.20108,-0.19579 -0.29104,-0.30427 -0.27252,-0.37835 -0.48154,-0.79375 -0.6694,-1.22237 -0.83608,-2.01348 -1.26735,-4.17513 -1.75948,-6.29444 -0.20637,-0.89958 -0.50535,-1.76477 -0.79904,-2.64054 -0.3466,-1.01865 -0.71702,-2.04258 -0.87312,-3.10885 -0.0291,-0.27517 -0.037,-0.54769 -0.0106,-0.82286 0.0238,-0.127 0.0556,-0.25135 0.10055,-0.37571 0.0397,-0.0794 0.0847,-0.1561 0.13493,-0.22754 0.0556,-0.0635 0.11642,-0.12435 0.17992,-0.17991 0.10054,-0.0661 0.20373,-0.127 0.31485,-0.17992 0.25136,-0.0952 0.51065,-0.15611 0.77523,-0.19844 0.62442,-0.0635 1.25413,-0.0397 1.87854,0.0185 0.0212,0.003 0.037,-0.008 0.0556,-0.0106 0.24341,1.9685 0.39423,3.94494 0.78052,5.89492 0.39423,1.98172 1.08214,4.06399 2.57439,5.49804 0.1614,0.15875 0.37307,0.2487 0.60061,0.2487 0.20637,0 0.46831,-0.082 0.60589,-0.2487 1.15623,-1.39171 2.0029,-2.97657 2.81782,-4.57994 0.81227,-1.58485 1.60337,-3.19617 2.68287,-4.62227 0.25136,-0.31486 0.51858,-0.61648 0.80169,-0.90223 0.16139,0.2831 0.30692,0.57679 0.43921,0.87842 0.96837,2.39712 1.24354,5.06677 2.60879,7.2972 0.14817,0.24342 0.40746,0.39688 0.69585,0.39688 0.25665,0 0.58738,-0.14552 0.69586,-0.39688 1.22502,-2.87072 2.55058,-5.74675 4.3815,-8.28675 0.16404,0.30692 0.31221,0.62178 0.45243,0.94192 0.53446,1.30969 0.92869,2.67494 1.44198,3.99521 0.52653,1.35202 1.20121,2.63789 2.23838,3.67242 0.381,0.381 1.08215,0.21431 1.21444,-0.32015 0.52916,-2.10344 0.97896,-4.23069 1.80975,-6.23623 0.3175,-0.72496 0.68527,-1.42081 1.12712,-2.07698 0.17198,0.46302 0.33602,0.92604 0.508,1.38642 0.381,1.00277 0.78317,2.00289 1.25942,2.96069 0.43921,0.8837 0.97367,1.74625 1.6801,2.4421 0.30692,0.29898 0.66675,0.56885 1.05304,0.75406 0.45244,0.21961 0.9234,0.33073 1.4314,0.34925 0.83608,0.0212 1.62454,-0.37306 2.21456,-0.94456 0.28575,-0.27781 0.52123,-0.61648 0.73025,-0.9525 0.254,-0.40746 0.43921,-0.84931 0.61648,-1.28852 0.3519,-0.86519 0.57944,-1.78329 0.78052,-2.69346 0.20373,-0.9525 0.35719,-1.92352 0.50536,-2.88925 0.127,-0.82814 0.24077,-1.65894 0.38629,-2.48444 0.35189,0.24342 0.70379,0.48684 1.04775,0.74348 0.37042,0.29369 0.71967,0.60854 1.02394,0.97102 0.16668,0.23813 0.3122,0.48684 0.43656,0.74877 0.11642,0.30692 0.19844,0.61384 0.254,0.93134 0.0397,0.42069 0.0318,0.84402 -0.0132,1.27529 z"
       id="path600" />
  </g>
</svg>
