<?xml version="1.0" encoding="UTF-8" standalone="no"?>
<svg
   xmlns:dc="http://purl.org/dc/elements/1.1/"
   xmlns:cc="http://creativecommons.org/ns#"
   xmlns:rdf="http://www.w3.org/1999/02/22-rdf-syntax-ns#"
   xmlns:svg="http://www.w3.org/2000/svg"
   xmlns="http://www.w3.org/2000/svg"
   id="svg708"
   version="1.1"
   viewBox="0 0 33.53705 37.572909"
   height="37.572906mm"
   width="33.537048mm">
  <defs
     id="defs702" />
  <metadata
     id="metadata705">
    <rdf:RDF>
      <cc:Work
         rdf:about="">
        <dc:format>image/svg+xml</dc:format>
        <dc:type
           rdf:resource="http://purl.org/dc/dcmitype/StillImage" />
        <dc:title></dc:title>
      </cc:Work>
    </rdf:RDF>
  </metadata>
  <g
     transform="translate(112.08916,-147.1905)"
     id="layer1">
    <g
       transform="matrix(0.26458333,0,0,0.26458333,-171.03436,-31.482619)"
       className="flower2"
       style="fill:#ffc0cb"
       id="g486">
      <path
         d="m 306.76,695.55 c 0,0 0,0 0,0 0.01,0.06 0.02,0.12 0.03,0.19 -0.01,-0.07 -0.02,-0.13 -0.03,-0.19 z"
         id="path478" />
      <path
         d="m 260.34,694.34 c 0,0.04 -0.01,0.09 -0.01,0.13 0.01,-0.06 0.01,-0.12 0.02,-0.18 -0.01,0.02 -0.01,0.04 -0.01,0.05 z"
         id="path480" />
      <path
         d="m 290.41,812.63 c 0.16,-0.54 0.23,-1.08 0.29,-1.63 0.1,-0.96 0.17,-1.91 0.2,-2.87 0.07,-2.28 -0.14,-4.56 -0.33,-6.82 -0.21,-2.47 -0.48,-4.93 -0.78,-7.39 -0.57,-4.74 -1.22,-9.46 -1.78,-14.2 -0.09,-0.81 -0.18,-1.62 -0.27,-2.44 0.43,0.11 0.87,0.19 1.31,0.25 0.84,0.1 1.67,0.17 2.52,0.15 0.91,-0.03 1.82,-0.18 2.71,-0.34 1.62,-0.29 3.15,-0.89 4.65,-1.56 1.42,-0.64 2.78,-1.42 4.07,-2.3 3.2,-2.16 6.08,-4.81 8.74,-7.6 2.9,-3.05 5.54,-6.34 8.04,-9.73 5.57,-7.52 10.48,-15.51 15.06,-23.66 3.81,-6.75 7.39,-13.64 10.83,-20.59 1.22,-2.46 2.43,-4.93 3.57,-7.43 0.51,-1.12 0.39,-2.39 -0.53,-3.26 -1.05,-1 -2.87,-1 -3.85,0.1 -1.42,1.6 -2.99,3.04 -4.58,4.46 -1.74,1.56 -3.53,3.05 -5.34,4.51 -8.58,6.9 -17.41,13.49 -25.72,20.71 -4.17,3.63 -8.2,7.47 -11.87,11.61 -3.36,3.8 -6.44,7.89 -8.8,12.39 -0.98,1.86 -1.82,3.81 -2.48,5.81 -0.53,-6.21 -0.92,-12.43 -1.09,-18.66 -0.01,-0.54 -0.19,-1.04 -0.48,-1.47 1.98,-0.61 3.93,-1.34 5.83,-2.17 4.12,-1.79 8.07,-3.94 11.61,-6.72 1.43,-1.12 2.82,-2.3 4,-3.69 1,-1.18 1.79,-2.52 2.44,-3.93 1.44,-3.15 2.23,-6.56 2.67,-9.98 0.96,-7.51 0.47,-15.22 -1.06,-22.63 -0.62,-3.01 -1.46,-5.98 -2.68,-8.81 -0.52,-1.19 -1.06,-2.37 -1.8,-3.44 -0.42,-0.61 -0.88,-1.16 -1.4,-1.65 -0.33,-0.32 -0.7,-0.61 -1.09,-0.89 -0.79,-0.57 -1.85,-0.85 -2.82,-0.82 -1.25,0.05 -2.3,0.63 -3.23,1.41 -0.94,0.8 -1.64,1.87 -2.25,2.93 -0.88,1.53 -1.5,3.22 -2.09,4.89 -0.04,0.11 -0.07,0.21 -0.11,0.32 -0.35,-0.56 -0.76,-1.07 -1.19,-1.58 -0.85,-1.04 -2.06,-1.77 -3.34,-2.21 -1.27,-0.44 -2.6,-0.39 -3.9,-0.12 -1.15,0.23 -2.27,0.85 -3.2,1.57 -0.98,0.76 -1.79,1.63 -2.51,2.6 -0.39,-1.3 -0.86,-2.59 -1.42,-3.83 -0.93,-2.1 -2.32,-3.99 -4.22,-5.31 -0.8,-0.56 -1.72,-0.94 -2.68,-1.15 -1.23,-0.28 -2.48,-0.16 -3.69,0.11 -1.2,0.27 -2.37,0.88 -3.4,1.54 -0.87,0.54 -1.67,1.19 -2.37,1.93 -1.22,1.32 -2.12,2.94 -2.78,4.58 -1.71,4.2 -2.28,8.75 -2.54,13.23 -0.4,6.67 0.09,13.42 1.09,20.02 0.44,3 0.99,5.98 1.74,8.92 0.29,1.13 0.61,2.25 1,3.36 -0.05,0.36 -0.08,0.73 -0.11,1.1 -0.12,1.66 0.34,3.29 1.02,4.77 0.53,1.14 1.27,2.11 2.08,3.06 0.73,0.83 1.65,1.49 2.57,2.09 0.86,0.57 1.83,0.94 2.8,1.29 0.89,0.33 1.8,0.56 2.73,0.71 2.17,0.35 4.37,0.37 6.54,0.15 0.91,-0.09 1.81,-0.25 2.71,-0.42 -0.01,0.13 -0.03,0.25 -0.03,0.38 0.16,6.66 0.42,13.33 0.71,19.99 -0.27,-0.29 -0.54,-0.59 -0.82,-0.88 -0.19,-0.19 -0.38,-0.38 -0.57,-0.56 -1.51,-1.43 -3.2,-2.68 -4.96,-3.78 -4.09,-2.56 -8.72,-4.19 -13.32,-5.5 -9.42,-2.68 -19.27,-3.78 -28.5,-7.14 0.03,0.01 0.06,0.02 0.09,0.04 -0.06,-0.02 -0.13,-0.05 -0.19,-0.07 -0.1,-0.04 -0.21,-0.08 -0.31,-0.11 0.04,0.01 0.08,0.03 0.12,0.04 -1.72,-0.67 -3.45,-1.4 -5.04,-2.33 -0.18,-0.16 -0.37,-0.31 -0.59,-0.4 -0.35,-0.19 -0.71,-0.27 -1.1,-0.26 -0.59,0.02 -1.14,0.27 -1.55,0.69 -0.78,0.83 -0.86,2.37 0.08,3.13 0.04,0.03 0.08,0.07 0.13,0.1 3.29,3.52 6.71,6.94 10.2,10.27 3.83,3.67 7.82,7.2 12.04,10.41 4.29,3.26 8.82,6.21 13.73,8.48 2.41,1.11 4.92,2.04 7.48,2.73 2.52,0.7 5.11,1.1 7.71,1.25 2.02,0.13 4.07,0 6.09,-0.31 0.09,2.31 0.16,4.63 0.21,6.94 0.1,4.74 0.08,9.49 0.13,14.23 0.02,2.28 0.05,4.56 0.13,6.83 0.04,1.14 0.14,2.27 0.25,3.4 0.09,0.76 0.22,1.52 0.35,2.27 0.12,0.73 0.39,1.42 0.65,2.1 0.48,1.24 1.1,2.62 2.43,3.12 0.66,0.25 1.4,0.51 2.12,0.22 0.65,-0.26 1.14,-0.45 1.64,-0.97 0.92,-0.93 1.28,-2.33 1.65,-3.58 z m -11.42,-76.46 c -2.02,0.28 -4.07,0.4 -6.11,0.24 -1.08,-0.14 -2.13,-0.36 -3.16,-0.7 -0.65,-0.27 -1.27,-0.6 -1.86,-0.98 -0.44,-0.35 -0.84,-0.74 -1.22,-1.16 -0.33,-0.46 -0.63,-0.94 -0.88,-1.44 -0.11,-0.32 -0.21,-0.64 -0.28,-0.97 -0.04,-0.44 -0.03,-0.87 -0.01,-1.31 0.12,-0.84 0.29,-1.68 0.47,-2.5 0.36,-1.69 -0.66,-3.41 -2.37,-3.82 -0.35,-0.08 -0.71,-0.1 -1.04,-0.07 -0.5,-2.06 -0.89,-4.14 -1.23,-6.24 -1.16,-7.49 -1.68,-15.18 -0.97,-22.74 -0.01,0.12 -0.03,0.24 -0.04,0.36 0.02,-0.16 0.03,-0.33 0.05,-0.49 0,-0.04 0.01,-0.08 0.01,-0.13 0,0.03 0,0.06 -0.01,0.08 0.31,-2.79 0.81,-5.58 1.76,-8.23 0.42,-1.06 0.92,-2.08 1.57,-3.02 0.37,-0.47 0.77,-0.9 1.22,-1.29 0.57,-0.42 1.19,-0.78 1.83,-1.09 0.41,-0.16 0.82,-0.29 1.24,-0.38 0.26,-0.03 0.52,-0.04 0.78,-0.03 0.23,0.04 0.46,0.09 0.69,0.16 0.26,0.12 0.5,0.25 0.74,0.41 0.35,0.29 0.67,0.6 0.97,0.94 0.63,0.85 1.15,1.77 1.59,2.73 0.93,2.27 1.5,4.66 1.91,7.07 0.26,1.76 0.43,3.54 0.49,5.33 0.06,1.35 1.19,2.45 2.55,2.42 1.38,-0.04 2.41,-1.19 2.42,-2.55 0.01,-0.62 0.03,-1.23 0.07,-1.85 0.16,-1.26 0.43,-2.49 0.83,-3.69 0.37,-0.91 0.81,-1.78 1.35,-2.6 0.42,-0.54 0.87,-1.04 1.39,-1.49 0.33,-0.24 0.67,-0.45 1.04,-0.63 0.25,-0.09 0.5,-0.17 0.77,-0.23 0.2,-0.02 0.39,-0.02 0.59,-0.02 0.17,0.03 0.34,0.07 0.5,0.11 0.22,0.1 0.44,0.22 0.65,0.35 0.26,0.22 0.5,0.45 0.73,0.71 0.38,0.52 0.7,1.08 0.98,1.66 0.46,1.16 0.76,2.35 0.99,3.57 0.09,0.64 0.17,1.29 0.23,1.93 0.1,1.06 0.74,1.97 1.81,2.22 1.2,0.28 2.59,-0.49 2.81,-1.76 0.65,-3.51 1.35,-7 2.58,-10.36 0.46,-1.18 0.99,-2.34 1.7,-3.39 0.24,-0.31 0.49,-0.6 0.78,-0.86 0.12,-0.08 0.24,-0.16 0.36,-0.23 0.04,-0.01 0.08,-0.03 0.12,-0.04 0.03,0 0.06,0 0.09,0 0.06,0.01 0.12,0.03 0.17,0.04 0.12,0.06 0.25,0.13 0.36,0.2 0.33,0.27 0.63,0.58 0.91,0.91 0.77,1.02 1.39,2.15 1.92,3.31 1.48,3.47 2.34,7.21 2.95,10.92 0,-0.01 0,-0.01 0,-0.02 0,0.01 0,0.01 0,0.02 0.03,0.16 0.05,0.32 0.08,0.48 -0.02,-0.09 -0.03,-0.19 -0.05,-0.29 0.78,5.17 1.04,10.44 0.58,15.64 -0.31,3.06 -0.88,6.1 -1.91,9 -0.52,1.36 -1.15,2.71 -1.97,3.92 -0.79,1.02 -1.73,1.89 -2.72,2.71 -2.96,2.29 -6.33,4.07 -9.73,5.59 -3.88,1.65 -7.91,2.9 -12.07,3.57 z m 8.67,31.4 c 0.26,-2.38 0.83,-4.69 1.66,-6.93 1.3,-3.29 3.1,-6.34 5.16,-9.21 5.55,-7.56 12.7,-13.83 19.95,-19.7 -0.14,0.12 -0.28,0.22 -0.41,0.34 6.03,-4.86 12.3,-9.39 18.5,-14.02 1.9,-1.42 3.79,-2.86 5.68,-4.3 -0.63,1.21 -1.27,2.42 -1.91,3.62 -4.1,7.63 -8.43,15.16 -13.11,22.46 -2,3.11 -4.08,6.18 -6.24,9.18 -2.35,3.23 -4.82,6.38 -7.46,9.39 -2.43,2.78 -5.02,5.42 -7.88,7.76 -1.92,1.51 -3.96,2.87 -6.17,3.91 -1.12,0.47 -2.27,0.83 -3.46,1.05 -0.85,0.1 -1.69,0.12 -2.54,0.06 -0.36,-0.05 -0.71,-0.12 -1.08,-0.19 -0.08,-0.02 -0.15,-0.03 -0.23,-0.05 4.56,-3.94 8.77,-8.25 12.84,-12.69 4.69,-5.1 9.25,-10.33 14.05,-15.34 0.11,-0.16 0.18,-0.33 0.19,-0.52 0.03,-0.27 -0.06,-0.55 -0.22,-0.77 -0.03,-0.04 -0.06,-0.07 -0.1,-0.1 -0.17,-0.16 -0.39,-0.27 -0.63,-0.29 -0.24,-0.02 -0.59,0.04 -0.77,0.22 -6.33,6.42 -12.09,13.38 -18.32,19.89 -2.66,2.75 -5.42,5.42 -8.31,7.93 -0.02,-0.23 -0.04,-0.45 -0.07,-0.68 0.46,-0.19 0.83,-0.53 0.88,-1.02 z m -22.84,3.73 c -5.37,-2.08 -10.33,-5.02 -15.01,-8.37 -4.43,-3.24 -8.58,-6.83 -12.58,-10.57 -1.06,-0.99 -2.11,-2 -3.16,-3.01 2.56,0.71 5.16,1.25 7.76,1.77 -0.04,0.06 -0.09,0.12 -0.12,0.18 -0.23,0.58 0.09,1.17 0.64,1.41 1.67,0.77 3.37,1.44 5.07,2.11 2.1,0.83 4.21,1.64 6.32,2.47 4.62,1.83 9.2,3.76 13.57,6.13 -0.02,-0.01 -0.03,-0.02 -0.05,-0.03 2.88,1.59 5.69,3.38 8.07,5.66 0.93,0.93 1.78,1.93 2.48,3.05 0.31,0.55 0.58,1.12 0.79,1.72 -1.29,0.01 -2.58,-0.03 -3.86,-0.14 -3.38,-0.38 -6.7,-1.21 -9.92,-2.38 z m 15.48,2.46 c 0.01,-0.14 0,-0.28 -0.05,-0.42 -0.45,-1.4 -1.15,-2.68 -2.02,-3.85 -0.51,-0.68 -1.08,-1.3 -1.68,-1.9 -0.15,-0.15 -0.3,-0.3 -0.45,-0.44 -0.5,-0.47 -1.02,-0.92 -1.55,-1.36 -1.46,-1.18 -3.02,-2.22 -4.63,-3.19 -1.81,-1.1 -3.68,-2.08 -5.58,-3.01 -3.76,-1.85 -7.64,-3.45 -11.53,-5 -2.18,-0.87 -4.36,-1.73 -6.53,-2.61 6.64,1.23 13.34,2.4 19.68,4.77 2.88,1.13 5.65,2.51 8.2,4.28 1.78,1.31 3.39,2.81 4.82,4.51 0.5,0.62 0.96,1.27 1.4,1.94 0.05,1.11 0.1,2.23 0.15,3.34 0.05,0.98 0.09,1.96 0.13,2.94 -0.13,-0.01 -0.25,-0.01 -0.36,0 z"
         id="path482" />
      <path
         d="m 231.94,744.45 c -0.1,-0.04 -0.19,-0.07 -0.29,-0.11 0.06,0.02 0.13,0.05 0.19,0.07 0.03,0.01 0.07,0.02 0.1,0.04 z"
         id="path484" />
    </g>
  </g>
</svg>
