<?xml version="1.0" encoding="UTF-8" standalone="no"?>
<svg
   xmlns:dc="http://purl.org/dc/elements/1.1/"
   xmlns:cc="http://creativecommons.org/ns#"
   xmlns:rdf="http://www.w3.org/1999/02/22-rdf-syntax-ns#"
   xmlns:svg="http://www.w3.org/2000/svg"
   xmlns="http://www.w3.org/2000/svg"
   id="svg708"
   version="1.1"
   viewBox="0 0 23.950674 24.258459"
   height="24.258457mm"
   width="23.950674mm">
  <defs
     id="defs702" />
  <metadata
     id="metadata705">
    <rdf:RDF>
      <cc:Work
         rdf:about="">
        <dc:format>image/svg+xml</dc:format>
        <dc:type
           rdf:resource="http://purl.org/dc/dcmitype/StillImage" />
        <dc:title></dc:title>
      </cc:Work>
    </rdf:RDF>
  </metadata>
  <g
     transform="translate(35.649171,-237.8163)"
     id="layer1">
    <path
       className="candyRoll"
       style="fill:#0000ff;stroke-width:0.264583"
       d="m -22.856207,237.86922 c -1.709209,0.16139 -3.349625,0.70643 -4.85775,1.50548 -0.777875,0.40745 -1.513417,0.89958 -2.196042,1.45256 -0.415396,0.33602 -0.79375,0.71437 -1.172104,1.09537 -0.841375,0.84932 -1.629833,1.75154 -2.368021,2.69082 -0.394229,0.50535 -0.767292,1.02658 -1.11125,1.56633 -0.309562,0.48154 -0.590021,0.98425 -0.799042,1.51606 -0.171979,0.45244 -0.296333,0.91017 -0.288395,1.397 0,0.21167 0.04498,0.43921 0.127,0.62971 0.132291,0.30692 0.343958,0.52123 0.616479,0.70379 0.508,0.33602 1.135062,0.48948 1.717146,0.63236 0.433916,0.10583 0.881062,0.1852 1.314979,0.29897 -0.01588,0.0582 -0.0291,0.11907 -0.04233,0.17728 -0.103187,0.46831 -0.148166,0.9525 -0.171979,1.43404 -0.03969,0.87841 0.09525,1.77535 0.320146,2.62466 0.452438,1.72244 1.463146,3.27555 2.807229,4.42913 0.682625,0.58737 1.476375,1.06892 2.309813,1.40494 0.441854,0.17727 0.891646,0.32279 1.354666,0.43127 0.52123,0.12435 1.06098,0.16933 1.592792,0.20108 1.002771,0.0582 1.997604,-0.0609 2.973917,-0.28046 0.923396,-0.20902 1.801812,-0.57679 2.63525,-1.02658 0.817562,-0.44186 1.558396,-1.01865 2.241021,-1.651 0.690562,-0.63765 1.267354,-1.37319 1.79652,-2.14842 0.513292,-0.75141 0.923396,-1.55575 1.262063,-2.39977 0.359833,-0.89164 0.645583,-1.82033 0.828146,-2.76489 0.185208,-0.94986 0.272521,-1.93146 0.267229,-2.89719 -0.0026,-0.97631 -0.134938,-1.94734 -0.333375,-2.89984 -0.193146,-0.91545 -0.508,-1.80975 -0.915458,-2.65112 -0.373063,-0.78052 -0.822855,-1.51342 -1.383771,-2.17488 -1.026584,-1.21708 -2.333625,-2.159 -3.831167,-2.71727 -1.156229,-0.43391 -2.383896,-0.63235 -3.614208,-0.63235 -0.359834,0.003 -0.719667,0.0185 -1.0795,0.0529 z m 1.709208,1.05833 c 0.806979,0.0714 1.598083,0.23812 2.362729,0.508 0.635,0.24077 1.246188,0.55033 1.80975,0.93662 0.526521,0.381 1.002771,0.81757 1.431396,1.3044 0.465667,0.56092 0.851958,1.1721 1.177396,1.82298 0.375708,0.81227 0.635,1.66952 0.806979,2.54794 0.201083,1.13506 0.256646,2.27541 0.179917,3.42635 -0.105834,1.20386 -0.365125,2.38919 -0.762,3.53219 -0.378354,1.00277 -0.875771,1.95527 -1.476375,2.84162 -0.529167,0.73819 -1.132417,1.41288 -1.80975,2.01348 -0.627063,0.52388 -1.312334,0.97367 -2.045229,1.34144 -0.693209,0.3175 -1.412875,0.55298 -2.156355,0.70644 -0.804333,0.13494 -1.621895,0.17727 -2.436812,0.12435 -0.600604,-0.0635 -1.182688,-0.18785 -1.751542,-0.381 -0.515937,-0.20108 -1.005416,-0.45508 -1.471083,-0.762 -0.489479,-0.35189 -0.931333,-0.75141 -1.330854,-1.20385 -0.410104,-0.50006 -0.769938,-1.03981 -1.068917,-1.61661 -0.272521,-0.58208 -0.473604,-1.19327 -0.605896,-1.82033 -0.103187,-0.61119 -0.134937,-1.22237 -0.100541,-1.83885 0.05821,-0.59267 0.174625,-1.17475 0.362479,-1.73567 0.201083,-0.52917 0.463021,-1.03188 0.777875,-1.50548 0.314854,-0.43392 0.679979,-0.82021 1.087437,-1.1721 0.563563,-0.45773 1.180042,-0.84667 1.830917,-1.16946 0.717021,-0.33338 1.463146,-0.58473 2.235729,-0.74348 0.595313,-0.10583 1.198563,-0.15081 1.799167,-0.11113 0.381,0.0397 0.759354,0.11642 1.124479,0.23548 0.246062,0.0952 0.481542,0.21167 0.703792,0.3519 0.182562,0.13494 0.351895,0.2831 0.505354,0.44979 0.137583,0.17727 0.256646,0.36248 0.359833,0.55827 0.111125,0.25665 0.1905,0.52123 0.251354,0.79375 0.07408,0.47096 0.08731,0.94721 0.05821,1.42346 -0.03969,0.36512 -0.113771,0.71702 -0.227542,1.06892 -0.171979,0.43656 -0.386292,0.85195 -0.645583,1.24089 -0.230188,0.31486 -0.486834,0.6059 -0.780521,0.87048 -0.206375,0.1614 -0.420688,0.30427 -0.653521,0.42863 -0.15875,0.0661 -0.3175,0.11906 -0.481542,0.15875 -0.150812,0.0185 -0.301625,0.0265 -0.452437,0.0212 -0.111125,-0.0159 -0.219604,-0.037 -0.328084,-0.0661 -0.08731,-0.0397 -0.169333,-0.0847 -0.248708,-0.13229 -0.153458,-0.11907 -0.293687,-0.24871 -0.423333,-0.39159 -0.179917,-0.23019 -0.338667,-0.4736 -0.473604,-0.73289 -0.103188,-0.23284 -0.1905,-0.47096 -0.251355,-0.71967 -0.02381,-0.16404 -0.03969,-0.32808 -0.03704,-0.49477 0.01058,-0.0794 0.0291,-0.15346 0.05027,-0.23019 0.02646,-0.0582 0.05556,-0.11642 0.08996,-0.17198 0.04233,-0.0503 0.08996,-0.10054 0.137583,-0.14816 0.07673,-0.0582 0.156104,-0.10848 0.243417,-0.15611 0.02117,-0.008 0.04498,-0.0185 0.06879,-0.0265 0.306916,-0.11906 0.518583,-0.39423 0.502708,-0.73554 -0.01588,-0.37306 -0.373063,-0.75406 -0.772583,-0.6985 -0.415396,0.0609 -0.801688,0.1614 -1.150938,0.40217 -0.336021,0.23019 -0.60325,0.57679 -0.751417,0.94985 -0.312208,0.78846 -0.256645,1.62984 -0.01058,2.42888 0.119063,0.38364 0.306917,0.75406 0.513292,1.09802 0.214312,0.35719 0.497416,0.68791 0.801687,0.97366 0.66675,0.63236 1.553104,0.91282 2.465917,0.85461 0.526521,-0.0344 1.023937,-0.20902 1.489604,-0.44186 0.465667,-0.23547 0.862542,-0.55827 1.235604,-0.92075 0.357188,-0.34131 0.642938,-0.74877 0.915459,-1.15887 0.28575,-0.43921 0.497416,-0.91546 0.677333,-1.40758 0.296333,-0.82815 0.354542,-1.71715 0.293687,-2.59027 -0.02646,-0.39423 -0.100541,-0.78846 -0.195791,-1.17211 -0.09525,-0.37042 -0.251354,-0.71437 -0.420688,-1.05569 -0.576791,-1.15093 -1.709208,-1.8997 -2.931583,-2.20927 -0.627063,-0.1561 -1.293813,-0.18256 -1.934104,-0.1561 -0.687917,0.0344 -1.381125,0.16404 -2.047875,0.3466 -1.336146,0.36777 -2.627313,0.98954 -3.733271,1.82827 -0.53975,0.40746 -1.039813,0.86784 -1.471083,1.39171 -0.508,0.60854 -0.910167,1.30704 -1.209146,2.03994 -0.280459,-0.0767 -0.563563,-0.13494 -0.849313,-0.19315 -0.534458,-0.11377 -1.071562,-0.22489 -1.590146,-0.40481 -0.142875,-0.0582 -0.280458,-0.12171 -0.41275,-0.20373 -0.0291,-0.0212 -0.05556,-0.045 -0.08202,-0.0688 -0.0026,-0.003 -0.0053,-0.005 -0.0053,-0.008 -0.01058,-0.0344 -0.02117,-0.0688 -0.03175,-0.10583 -0.01058,-0.0847 -0.01323,-0.17198 -0.0079,-0.25929 0.02911,-0.23284 0.08996,-0.45773 0.169334,-0.67998 0.288396,-0.74613 0.711729,-1.43404 1.161521,-2.09286 0.635,-0.90487 1.3335,-1.75683 2.069041,-2.57704 0.545042,-0.60854 1.108604,-1.20914 1.727729,-1.74889 0.788459,-0.65352 1.669521,-1.21179 2.587625,-1.66688 0.941917,-0.44714 1.931459,-0.78581 2.958042,-0.98689 0.862542,-0.14817 1.733021,-0.20373 2.6035,-0.14817 z m 0.0053,0 c 0.04498,0.003 0.0926,0.005 0.137583,0.0106 -0.04498,-0.003 -0.0926,-0.008 -0.137583,-0.0106 z m 2.280708,0.4789 c 0.01058,0.005 0.02381,0.008 0.0344,0.0132 -0.01323,-0.005 -0.02381,-0.0106 -0.0344,-0.0132 z m 1.815042,0.91281 c 0.01852,0.0132 0.03704,0.0265 0.05292,0.0397 -0.01588,-0.0132 -0.03439,-0.0265 -0.05292,-0.0397 z m -6.905625,5.73616 c -0.01852,0.003 -0.03704,0.008 -0.05556,0.0106 0.01852,-0.003 0.03704,-0.008 0.05556,-0.0106 z m 2.799291,0.1614 c 0.03175,0.0106 0.06086,0.0212 0.0926,0.0317 -0.03175,-0.0106 -0.0635,-0.0212 -0.0926,-0.0317 z m 0.740834,0.38365 c 0.01588,0.0106 0.03175,0.0212 0.04763,0.0318 -0.01588,-0.0106 -0.03175,-0.0212 -0.04763,-0.0318 z m 1.060979,1.79652 c 0.0079,0.0397 0.01588,0.0767 0.02381,0.11641 -0.0079,-0.0397 -0.01588,-0.0767 -0.02381,-0.11641 z m -4.487333,1.96056 c -0.01323,0.008 -0.02911,0.0132 -0.04233,0.0185 0.01323,-0.005 0.02646,-0.0132 0.04233,-0.0185 z m 4.365625,0.35454 c -0.01058,0.0317 -0.02381,0.0661 -0.03704,0.0979 0.01323,-0.0344 0.02646,-0.0661 0.03704,-0.0979 z m -10.914063,1.56898 c -0.0026,0.0291 -0.0026,0.0609 -0.0053,0.09 0.0026,-0.0291 0.0053,-0.0609 0.0053,-0.09 z m 6.402917,0.0265 c 0.01058,0.0238 0.02117,0.0476 0.03175,0.0688 -0.01058,-0.0212 -0.02117,-0.045 -0.03175,-0.0688 z m 2.074333,1.21973 c -0.03175,0.005 -0.0635,0.0106 -0.0926,0.0159 0.0291,-0.005 0.06085,-0.0106 0.0926,-0.0159 z"
       id="path62" />
  </g>
</svg>
