<?xml version="1.0" encoding="UTF-8" standalone="no"?>
<svg
   xmlns:dc="http://purl.org/dc/elements/1.1/"
   xmlns:cc="http://creativecommons.org/ns#"
   xmlns:rdf="http://www.w3.org/1999/02/22-rdf-syntax-ns#"
   xmlns:svg="http://www.w3.org/2000/svg"
   xmlns="http://www.w3.org/2000/svg"
   id="svg708"
   version="1.1"
   viewBox="0 0 53.149004 36.598781"
   height="36.598778mm"
   width="53.149002mm">
  <defs
     id="defs702" />
  <metadata
     id="metadata705">
    <rdf:RDF>
      <cc:Work
         rdf:about="">
        <dc:format>image/svg+xml</dc:format>
        <dc:type
           rdf:resource="http://purl.org/dc/dcmitype/StillImage" />
        <dc:title></dc:title>
      </cc:Work>
    </rdf:RDF>
  </metadata>
  <g
     transform="translate(137.71585,-155.29853)"
     id="layer1">
    <g
       transform="matrix(0.26458333,0,0,0.26458333,-354.11317,-79.685675)"
       className="spaceship"
       style="fill:#ffd700"
       id="g536">
      <path
         d="m 940.13,1004.54 c 0.1,-0.01 0.21,-0.02 0.31,-0.03 -0.16,0.01 -0.31,0.03 -0.47,0.04 0.05,0 0.1,0 0.16,-0.01 z"
         id="path510" />
      <path
         d="m 1017.98,978.52 c -0.34,-1.12 -0.77,-2.22 -1.28,-3.27 -0.64,-1.35 -1.54,-2.59 -2.47,-3.73 -2.41,-2.97 -5.77,-4.95 -9.19,-6.53 -3.43,-1.58 -7.13,-2.52 -10.83,-3.19 -3.89,-0.7 -7.82,-1.13 -11.78,-1.3 -3.4,-0.14 -6.84,-0.18 -10.24,0 -0.34,0.02 -0.65,0.07 -0.95,0.14 -2.83,-7.63 -5.72,-15.27 -9.92,-22.27 -4.42,-7.35 -10.39,-13.74 -17.75,-18.21 -5.67,-3.45 -12.19,-5.45 -18.83,-5.54 -2.41,-0.04 -4.8,0.19 -7.15,0.62 -3.9,0.72 -7.7,2.02 -11.3,3.7 -6.06,2.81 -11.55,6.85 -16.53,11.25 -5.33,4.72 -10.06,10.09 -14.42,15.7 -3.92,5.04 -7.45,10.37 -10.65,15.89 -3.15,-0.35 -6.35,-0.06 -9.47,0.49 -0.1,0.02 -0.2,0.04 -0.3,0.05 -4.64,0.86 -9.16,2.43 -13.48,4.31 -4.53,1.99 -8.84,4.48 -12.79,7.47 -3.39,2.58 -6.56,5.71 -8.65,9.46 -1.89,3.42 -2.73,7.4 -1.63,11.22 1.3,4.49 4.87,8.06 8.79,10.42 5.03,3.02 10.92,4.4 16.64,5.39 1.22,0.21 2.44,0.38 3.66,0.54 7.27,2.28 14.17,5.46 21.22,8.3 3.48,1.4 7.02,2.68 10.62,3.73 3.7,1.08 7.47,1.86 11.3,2.36 4.08,0.54 8.22,0.68 12.33,0.8 4.26,0.14 8.53,0.19 12.82,0.06 2.04,-0.07 4.1,-0.12 6.14,-0.23 2.19,-0.12 4.38,-0.27 6.56,-0.45 4.37,-0.35 8.72,-0.84 13.06,-1.51 6.77,-1.04 13.39,-2.91 19.81,-5.31 3.43,-1.27 6.79,-2.73 10.08,-4.37 1.51,-0.75 2.99,-1.55 4.46,-2.39 0.74,-0.43 1.47,-0.89 2.19,-1.35 0.93,-0.59 1.81,-1.24 2.52,-2.1 0.31,-0.31 0.52,-0.67 0.63,-1.08 0.05,-0.17 0.06,-0.33 0.07,-0.5 3.91,-0.67 7.8,-1.45 11.64,-2.46 4.29,-1.13 8.56,-2.55 12.57,-4.46 1.64,-0.79 3.24,-1.69 4.75,-2.73 1.54,-1.07 2.99,-2.21 4.25,-3.61 0.64,-0.71 1.25,-1.47 1.79,-2.26 0.55,-0.83 0.97,-1.72 1.38,-2.64 0.69,-1.53 1.02,-3.26 1.1,-4.93 0.06,-1.81 -0.23,-3.72 -0.77,-5.48 z M 883.05,946.93 c 5.16,-6.2 10.89,-11.97 17.42,-16.72 3.8,-2.66 7.86,-4.96 12.21,-6.63 2.9,-1.02 5.87,-1.73 8.92,-2.05 2.55,-0.18 5.1,-0.07 7.62,0.33 2.56,0.5 5.02,1.3 7.39,2.36 2.89,1.4 5.57,3.14 8.08,5.13 3.11,2.61 5.84,5.56 8.24,8.83 4.41,6.33 7.5,13.41 10.33,20.55 1.49,3.76 2.9,7.56 4.4,11.3 0.63,1.54 1.28,3.07 1.96,4.59 -0.55,0.02 -1.11,0.06 -1.66,0.1 -1,0.07 -2,0.17 -3,0.26 -4.31,0.39 -8.6,0.88 -12.89,1.37 -7.43,0.85 -14.87,1.56 -22.32,2.24 -11.46,0.99 -22.97,1.64 -34.47,1.88 -10.82,0.23 -21.64,0.21 -32.45,0.06 0.65,-1.6 1.32,-3.2 2.05,-4.77 4.85,-10.31 10.99,-20.02 18.17,-28.83 z m -51.34,54.61 c -1.52,-0.73 -2.95,-1.58 -4.29,-2.62 -1.07,-0.91 -2.06,-1.91 -2.9,-3.04 -0.47,-0.7 -0.88,-1.45 -1.21,-2.24 -0.23,-0.69 -0.38,-1.38 -0.48,-2.09 -0.02,-0.42 0.03,-0.84 0.06,-1.25 0.17,0.13 0.36,0.25 0.57,0.31 3.98,1.15 7.99,2.17 12.03,3.07 -0.07,0.09 -0.16,0.18 -0.19,0.3 -0.7,2.74 -1.33,5.48 -1.85,8.26 -0.58,-0.22 -1.16,-0.44 -1.74,-0.7 z m 10.7,3.16 c -2.38,-0.45 -4.73,-1.02 -7.02,-1.77 0,0 0,-0.01 0,-0.01 0.57,-2.79 1.17,-5.56 1.88,-8.32 0.05,-0.19 0.03,-0.38 -0.01,-0.55 3.58,0.76 7.18,1.45 10.79,2.02 2.4,0.38 4.81,0.7 7.22,1 -0.49,2.05 -0.89,4.11 -1.09,6.22 -0.05,0.63 0.49,1.18 1.1,1.21 0.31,0.01 0.62,-0.1 0.85,-0.31 0.22,-0.22 0.32,-0.48 0.36,-0.78 0.15,-1.16 0.31,-2.31 0.52,-3.46 -0.01,0.05 -0.01,0.1 -0.02,0.15 0.18,-0.92 0.38,-1.84 0.6,-2.75 4.76,0.53 9.54,0.92 14.33,1.18 2.54,0.14 5.08,0.22 7.63,0.29 -0.46,1.69 -0.81,3.4 -0.98,5.15 -0.07,0.65 0.53,1.24 1.16,1.26 0.7,0.04 1.19,-0.5 1.27,-1.15 0.07,-0.54 0.15,-1.08 0.24,-1.61 0.22,-1.22 0.49,-2.41 0.84,-3.59 7.52,0.14 15.04,0.03 22.57,-0.18 -0.27,1.61 -0.5,3.23 -0.61,4.86 -0.04,0.61 0.47,1.15 1.07,1.17 0.62,0.03 1.12,-0.46 1.17,-1.07 0.14,-1.65 0.33,-3.31 0.6,-4.95 0,-0.03 0.01,-0.05 0.02,-0.08 4.2,-0.13 8.41,-0.29 12.61,-0.45 3.59,-0.14 7.19,-0.27 10.78,-0.4 -0.34,1.7 -0.6,3.41 -0.7,5.15 -0.02,0.52 0.39,0.98 0.9,0.99 0.52,0.02 0.97,-0.39 0.99,-0.9 0.09,-1.44 0.24,-2.86 0.47,-4.29 -0.01,0.03 -0.01,0.06 -0.02,0.1 0.01,-0.05 0.02,-0.09 0.03,-0.14 0.01,-0.03 0.01,-0.07 0.02,-0.1 0,0.02 0,0.03 -0.01,0.05 0.06,-0.31 0.14,-0.61 0.2,-0.92 3.32,-0.11 6.64,-0.22 9.96,-0.3 2.91,-0.07 5.81,-0.11 8.72,-0.15 -0.65,2.09 -1.04,4.25 -1.13,6.44 -0.17,0.01 -0.33,0.03 -0.5,0.04 -2.93,0.23 -5.84,0.52 -8.76,0.79 0.11,-0.01 0.21,-0.02 0.32,-0.03 -0.21,0.02 -0.42,0.04 -0.63,0.05 -0.09,0.01 -0.19,0.02 -0.28,0.03 0.04,0 0.08,-0.01 0.12,-0.01 -18.13,1.51 -36.32,0.29 -54.47,1.04 -5.41,0.23 -10.81,0.56 -16.23,0.66 -6.19,0.12 -12.39,0.01 -18.57,-0.5 -2.8,-0.26 -5.56,-0.61 -8.31,-1.08 z m 108.99,9.37 c -4.67,1.51 -9.44,2.8 -14.24,3.81 -2.32,0.48 -4.67,0.85 -7,1.23 -2.22,0.37 -4.46,0.68 -6.7,0.97 -1.08,0.13 -2.16,0.25 -3.25,0.38 0.08,-0.01 0.16,-0.02 0.24,-0.03 -2.73,0.33 -5.48,0.56 -8.22,0.77 -2.89,0.23 -5.8,0.4 -8.71,0.51 -2.84,0.09 -5.67,0.07 -8.51,0.04 -2.68,-0.03 -5.32,-0.21 -7.97,-0.59 -6.59,-1.04 -12.9,-3.14 -19.15,-5.45 -3.2,-1.18 -6.38,-2.42 -9.57,-3.62 1.4,0.06 2.8,0.12 4.19,0.15 5.07,0.11 10.14,0.02 15.2,-0.18 2.32,-0.09 4.64,-0.21 6.97,-0.29 4.23,-0.14 8.47,-0.15 12.71,-0.14 8.31,0.03 16.62,0.29 24.93,0.29 4.23,-0.01 8.45,-0.09 12.66,-0.29 3.33,-0.16 6.63,-0.47 9.95,-0.78 -0.3,0.03 -0.61,0.06 -0.91,0.09 2.89,-0.26 5.78,-0.44 8.67,-0.64 3.92,-0.28 7.85,-0.61 11.76,-0.99 -4.33,1.67 -8.65,3.33 -13.05,4.76 z m 24.48,-13.15 c -5.82,0.89 -11.68,1.55 -17.55,2.08 -2.06,0.18 -4.13,0.34 -6.2,0.5 0.06,-0.81 0.11,-1.61 0.23,-2.42 0,0.02 -0.01,0.03 -0.01,0.05 0,-0.02 0.01,-0.05 0.01,-0.07 0.01,-0.08 0.02,-0.17 0.04,-0.25 -0.01,0.06 -0.01,0.12 -0.02,0.18 0.21,-1.1 0.48,-2.17 0.82,-3.24 0.06,-0.18 0.06,-0.36 0.04,-0.53 4.36,-0.08 8.72,-0.2 13.06,-0.51 3.25,-0.24 6.49,-0.59 9.72,-1.01 -0.16,1.73 -0.21,3.47 -0.14,5.22 z m 33.89,-12.29 c -0.88,0.99 -1.87,1.87 -2.94,2.67 -2.65,1.84 -5.58,3.2 -8.57,4.35 -6.38,2.32 -13.07,3.75 -19.76,4.86 -0.24,0.04 -0.48,0.07 -0.72,0.11 -0.01,-0.81 -0.05,-1.62 -0.03,-2.43 0.02,-0.92 0.09,-1.83 0.18,-2.74 4.24,-0.59 8.46,-1.32 12.66,-2.19 2.07,-0.43 4.13,-0.91 6.18,-1.42 -0.18,0.7 -0.29,1.42 -0.38,2.13 -0.09,0.69 0.56,1.3 1.2,1.32 0.33,0.02 0.68,-0.1 0.92,-0.34 0.25,-0.25 0.35,-0.53 0.4,-0.87 0.03,-0.22 0.06,-0.44 0.09,-0.66 0.16,-0.8 0.39,-1.58 0.66,-2.35 0.96,-0.25 1.92,-0.49 2.87,-0.76 2.58,-0.72 5.14,-1.54 7.68,-2.4 -0.14,0.24 -0.27,0.5 -0.44,0.72 z m 2,-5.72 c -3.4,1.04 -6.79,2.09 -10.21,3.06 -3.78,1.06 -7.59,2.02 -11.42,2.89 -7.64,1.74 -15.4,2.93 -23.2,3.68 -4.48,0.4 -8.98,0.65 -13.47,0.68 -4.22,0.02 -8.46,0.06 -12.68,0.16 -8.17,0.17 -16.33,0.5 -24.5,0.79 -15.82,0.56 -31.68,0.99 -47.5,-0.03 -8.16,-0.53 -16.28,-1.48 -24.33,-2.89 -6.65,-1.21 -13.24,-2.74 -19.74,-4.63 -0.28,-0.08 -0.56,-0.09 -0.83,-0.06 0.69,-1.36 1.52,-2.63 2.48,-3.83 2.05,-2.41 4.46,-4.49 7.03,-6.34 4.31,-3.01 9.02,-5.41 13.94,-7.27 3.94,-1.43 8.03,-2.53 12.22,-2.96 0.91,-0.07 1.83,-0.11 2.74,-0.09 -2.38,4.43 -4.53,8.98 -6.36,13.66 -0.22,0.58 -0.45,1.17 -0.67,1.77 -0.41,1.15 -0.04,2.39 0.75,3.25 0.45,1.11 1.5,1.96 2.76,1.98 9.88,0.18 19.76,0.66 29.63,1.14 9.8,0.49 19.61,0.93 29.41,1.18 9.79,0.26 19.57,0.2 29.33,-0.64 5.29,-0.45 10.59,-1 15.81,-1.95 2.39,-0.44 4.78,-0.97 7.1,-1.64 1.39,-0.4 2.73,-0.93 4.01,-1.62 1.3,-0.7 2.58,-1.33 3.73,-2.28 1.71,-1.44 1.1,-4.1 -0.66,-5.12 -0.19,-0.56 -0.41,-1.11 -0.65,-1.65 -0.54,-1.27 -1.07,-2.56 -1.59,-3.85 -0.49,-1.21 -0.95,-2.43 -1.42,-3.65 2.67,-0.02 5.34,-0.03 8,0.11 3.43,0.18 6.84,0.52 10.22,1.09 3.63,0.68 7.21,1.64 10.59,3.13 1.7,0.82 3.31,1.78 4.79,2.94 0.91,0.8 1.74,1.68 2.48,2.65 0.58,0.89 1.06,1.82 1.47,2.8 0.35,1.02 0.61,2.05 0.75,3.12 0.02,0.14 -0.01,0.28 -0.01,0.42 z"
         id="path512" />
      <path
         d="m 884.88,974.33 c 2.67,-0.49 4.34,-3.38 3.76,-5.95 -0.61,-2.72 -3.29,-4.25 -5.95,-3.76 -2.67,0.49 -4.34,3.38 -3.76,5.95 0.61,2.73 3.29,4.25 5.95,3.76 z"
         id="path514" />
      <path
         d="m 905.63,970.23 c 1.91,-0.35 3.1,-2.42 2.68,-4.25 -0.44,-1.95 -2.34,-3.03 -4.25,-2.68 -1.91,0.35 -3.1,2.42 -2.68,4.25 0.43,1.95 2.33,3.04 4.25,2.68 z"
         id="path516" />
      <path
         d="m 923.91,971.15 c 2.08,-0.38 3.38,-2.64 2.93,-4.64 -0.48,-2.13 -2.57,-3.31 -4.64,-2.93 -2.08,0.38 -3.38,2.64 -2.93,4.64 0.49,2.13 2.57,3.31 4.64,2.93 z"
         id="path518" />
      <path
         d="m 948.37,968.45 c 1.9,-0.35 3.09,-2.41 2.67,-4.24 -0.45,-1.94 -2.34,-3.02 -4.24,-2.67 -1.9,0.35 -3.09,2.41 -2.67,4.24 0.45,1.94 2.34,3.02 4.24,2.67 z"
         id="path520" />
      <path
         d="m 859.2,937.38 c 0.51,0.73 0.99,1.45 1.46,2.21 0.75,1.21 2.22,1.79 3.55,1.07 1.19,-0.63 1.83,-2.34 1.07,-3.54 -2.27,-3.61 -4.92,-6.98 -8.08,-9.87 -0.5,-0.46 -1.04,-0.77 -1.75,-0.8 -0.19,-0.01 -0.38,0.01 -0.57,0.04 -0.48,0.09 -0.93,0.31 -1.29,0.65 -0.99,0.92 -1.1,2.61 -0.12,3.6 2.08,2.08 3.99,4.28 5.73,6.64 z"
         id="path522" />
      <path
         d="m 893.86,914.68 c 1.23,-0.28 2,-1.53 1.73,-2.76 -0.72,-3.37 -1.72,-6.64 -3.03,-9.83 -0.36,-0.89 -1.53,-1.32 -2.43,-1.15 -0.02,0 -0.04,0.01 -0.07,0.01 -0.58,0.13 -1.09,0.5 -1.42,1 -0.28,0.45 -0.49,1.18 -0.29,1.71 1.12,3.03 2.06,6.11 2.74,9.27 0.27,1.24 1.55,2.02 2.77,1.75 z"
         id="path524" />
      <path
         d="m 927.98,900.67 c 1.15,0.37 2.34,-0.29 2.73,-1.41 0.31,-0.91 0.66,-1.79 1.04,-2.67 0.85,-1.81 1.85,-3.54 2.98,-5.2 0.65,-0.96 0.3,-2.33 -0.66,-2.93 -0.45,-0.28 -1,-0.39 -1.52,-0.3 -0.03,0 -0.05,0.01 -0.08,0.02 -0.59,0.13 -0.98,0.48 -1.34,0.94 -1.99,2.67 -3.49,5.68 -4.57,8.82 -0.38,1.13 0.32,2.38 1.42,2.73 z"
         id="path526" />
      <path
         d="m 964.53,917.8 c 2.52,-2.24 5.13,-4.38 7.78,-6.47 0.87,-0.7 0.82,-2.15 0.1,-2.92 -0.37,-0.4 -0.89,-0.63 -1.42,-0.65 -0.15,-0.01 -0.3,0 -0.43,0.03 -0.39,0.07 -0.72,0.27 -1.07,0.53 -2.73,1.99 -5.34,4.14 -7.86,6.39 -0.86,0.77 -0.88,2.17 -0.11,3 0.81,0.85 2.15,0.85 3.01,0.09 z"
         id="path528" />
      <path
         d="m 976.91,942.74 c 0.61,1.12 1.98,1.48 3.1,0.93 2.82,-1.37 5.67,-2.65 8.54,-3.93 1.11,-0.49 1.45,-2 0.91,-3.02 -0.27,-0.51 -0.74,-0.9 -1.29,-1.09 -0.36,-0.11 -0.68,-0.12 -1,-0.06 -0.24,0.04 -0.48,0.12 -0.72,0.22 -2.92,1.15 -5.77,2.46 -8.59,3.84 -1.12,0.56 -1.51,2.03 -0.95,3.11 z"
         id="path530" />
      <path
         d="m 931.94,998.68 c 0,0.02 0,0.03 -0.01,0.05 0.01,-0.03 0.01,-0.06 0.02,-0.09 0,0.01 -0.01,0.02 -0.01,0.04 z"
         id="path532" />
      <path
         d="m 952.37,1001.05 c 0,0.01 0,0.01 0,0.02 0.01,-0.03 0.01,-0.06 0.02,-0.09 -0.01,0.03 -0.01,0.05 -0.02,0.07 z"
         id="path534" />
    </g>
  </g>
</svg>
