<?xml version="1.0" encoding="UTF-8" standalone="no"?>
<svg
   xmlns:dc="http://purl.org/dc/elements/1.1/"
   xmlns:cc="http://creativecommons.org/ns#"
   xmlns:rdf="http://www.w3.org/1999/02/22-rdf-syntax-ns#"
   xmlns:svg="http://www.w3.org/2000/svg"
   xmlns="http://www.w3.org/2000/svg"
   id="svg708"
   version="1.1"
   viewBox="0 0 36.771169 34.352622"
   height="34.352619mm"
   width="36.771168mm">
  <defs
     id="defs702" />
  <metadata
     id="metadata705">
    <rdf:RDF>
      <cc:Work
         rdf:about="">
        <dc:format>image/svg+xml</dc:format>
        <dc:type
           rdf:resource="http://purl.org/dc/dcmitype/StillImage" />
        <dc:title></dc:title>
      </cc:Work>
    </rdf:RDF>
  </metadata>
  <g
     transform="translate(120.61384,-157.81042)"
     id="layer1">
    <g
       transform="matrix(0.26458333,0,0,0.26458333,-292.42003,-78.298448)"
       className="star2"
       style="fill:#800080"
       id="g288">
      <path
         d="m 731.9,938.47 c 1.4,0.88 3.34,0.46 4.22,-0.96 2.55,-4.14 4.96,-8.33 7,-12.76 0.33,-0.71 0.14,-1.75 -0.23,-2.41 -0.38,-0.71 -1.03,-1.24 -1.81,-1.49 -0.31,-0.1 -0.63,-0.15 -0.95,-0.15 -0.5,0 -1.01,0.12 -1.46,0.36 -0.77,0.42 -1.15,1.03 -1.5,1.82 -0.12,0.27 -0.25,0.55 -0.37,0.82 -1.74,3.63 -3.76,7.11 -5.85,10.54 -0.89,1.42 -0.48,3.33 0.95,4.23 z"
         id="path276" />
      <path
         d="m 680.25,938.37 c 1.27,1.34 3.41,1.43 4.78,0.17 1.32,-1.24 1.44,-3.46 0.15,-4.78 -5.01,-5.22 -9.68,-10.73 -14.34,-16.24 -0.61,-0.72 -1.51,-1.06 -2.41,-1.06 -0.86,0 -1.72,0.31 -2.35,0.89 -1.4,1.32 -1.32,3.35 -0.15,4.76 4.61,5.57 9.31,11.04 14.32,16.26 z"
         id="path278" />
      <path
         d="m 678.61,981.85 c -0.41,-0.26 -0.8,-0.35 -1.22,-0.35 -0.18,0 -0.36,0.02 -0.55,0.04 -2.15,0.27 -4.16,0.86 -6.15,1.71 -2.11,0.88 -4.02,2.22 -5.83,3.61 -3.51,2.69 -6.39,6.1 -9.24,9.42 -0.46,0.53 -0.77,1.03 -0.8,1.75 -0.03,0.68 0.21,1.35 0.68,1.85 0.46,0.47 1.08,0.77 1.75,0.8 0.61,0.03 1.43,-0.2 1.84,-0.68 3.19,-3.74 6.39,-7.5 10.35,-10.44 1.49,-1.01 3.03,-1.87 4.7,-2.54 1.22,-0.42 2.45,-0.72 3.73,-0.89 1.27,-0.18 2.05,-1.65 1.78,-2.82 -0.14,-0.59 -0.52,-1.12 -1.04,-1.46 z"
         id="path280" />
      <path
         d="m 723.61,996.3 c -0.3,-0.73 -1.14,-1.32 -1.87,-1.55 -0.32,-0.1 -0.66,-0.15 -0.99,-0.15 -0.53,0 -1.05,0.13 -1.52,0.38 -0.74,0.39 -1.3,1.08 -1.55,1.88 -0.29,0.88 -0.12,1.65 0.23,2.49 0.3,0.72 0.58,1.46 0.86,2.18 2.17,5.93 3.67,12.06 5.31,18.15 0.47,1.71 2.11,2.85 3.9,2.46 1.67,-0.38 2.91,-2.19 2.44,-3.9 -1.97,-7.41 -3.87,-14.83 -6.81,-21.94 z"
         id="path282" />
      <path
         d="m 787.56,979.09 c -0.55,-0.59 -1.18,-0.77 -1.96,-0.9 -3.35,-0.55 -6.72,-1.09 -10.08,-1.68 0.1,0.01 0.2,0.03 0.3,0.04 -5.15,-0.92 -10.26,-1.96 -15.29,-3.35 -0.27,-0.08 -0.54,-0.11 -0.81,-0.11 -1.17,0 -2.26,0.71 -2.64,1.9 -0.44,1.38 0.35,3.03 1.79,3.44 8.68,2.44 17.59,3.93 26.46,5.46 0.71,0.12 1.58,-0.3 2.08,-0.77 0.55,-0.5 0.86,-1.21 0.91,-1.96 0.04,-0.75 -0.23,-1.51 -0.76,-2.07 z"
         id="path284" />
      <path
         d="m 757.48,995.93 c -2.12,-3.72 -4.47,-7.31 -6.58,-11.04 -1.17,-2.15 -2.27,-4.36 -2.95,-6.72 -0.13,-0.65 -0.23,-1.3 -0.25,-1.96 0.05,-0.58 0.16,-1.14 0.29,-1.71 0.35,-1 0.8,-1.93 1.33,-2.86 1.65,-2.53 3.72,-4.74 5.87,-6.84 2.95,-2.79 6.06,-5.41 9.1,-8.1 1.53,-1.37 3.03,-2.78 4.48,-4.22 1.23,-1.23 2.4,-2.55 3.34,-4.02 0.38,-0.47 0.61,-1 0.71,-1.61 0.09,-0.62 0.03,-1.23 -0.21,-1.82 -0.58,-1.46 -2.03,-2.23 -3.58,-2.14 -2.64,0.18 -5.27,0.76 -7.85,1.32 -3.52,0.77 -7.01,1.68 -10.5,2.53 -3.66,0.88 -7.33,1.73 -11.05,2.4 -3.12,0.57 -6.31,1 -9.49,0.97 -1.11,-0.07 -2.2,-0.2 -3.28,-0.47 -0.45,-0.16 -0.89,-0.36 -1.31,-0.58 -0.23,-0.17 -0.45,-0.34 -0.66,-0.53 -0.56,-0.64 -1.04,-1.34 -1.47,-2.07 -1.38,-2.66 -2.29,-5.54 -3.04,-8.43 -1.99,-8.08 -2.88,-16.43 -3.58,-24.7 -0.3,-3.73 -0.56,-7.47 -0.8,-11.2 -0.15,-2.44 -0.2,-4.93 -0.55,-7.36 -0.18,-1.18 -1.05,-2.17 -2.26,-2.35 -0.14,-0.02 -0.29,-0.04 -0.44,-0.04 -0.57,0 -1.14,0.19 -1.6,0.54 -0.61,0.46 -0.86,1.03 -1.05,1.75 -1.78,6.89 -3.87,13.72 -5.87,20.55 0.06,-0.21 0.12,-0.44 0.18,-0.65 -3.59,12.17 -7.26,24.32 -10.7,36.54 -0.97,-0.11 -1.94,-0.26 -2.91,-0.38 -1.9,-0.26 -3.79,-0.5 -5.68,-0.77 -3.58,-0.49 -7.16,-1 -10.76,-1.41 -7.31,-0.85 -14.78,-1.18 -22.08,0 -1.17,0.2 -2.17,0.83 -2.66,1.94 -0.58,1.32 -0.23,3.07 0.97,3.93 4.32,3.14 9.29,5.2 14.19,7.25 5.31,2.22 10.71,4.32 15.69,7.23 1.64,1.02 3.22,2.14 4.62,3.48 0.53,0.59 1.02,1.2 1.45,1.87 0.3,0.6 0.55,1.23 0.74,1.88 0.3,1.44 0.41,2.9 0.41,4.37 -0.2,5.63 -1.49,11.16 -2.66,16.64 -1.12,5.34 -2.47,10.85 -2.15,16.36 0.15,2.49 3.4,3.84 5.31,2.29 1.93,-1.56 3.63,-3.43 5.22,-5.33 1.97,-2.35 3.79,-4.84 5.63,-7.31 3.62,-4.91 7.17,-9.96 11.54,-14.26 1.12,-1.03 2.3,-1.99 3.62,-2.78 0.49,-0.24 0.99,-0.46 1.51,-0.63 0.57,-0.11 1.14,-0.16 1.72,-0.16 1.09,0.09 2.15,0.3 3.21,0.59 3.64,1.15 7.04,2.99 10.3,4.95 -0.03,-0.02 -0.06,-0.04 -0.1,-0.06 5.03,3.12 9.81,6.65 14.5,10.26 3.73,2.87 7.39,5.83 11.2,8.62 0.96,0.7 2.15,0.94 3.29,0.49 1.29,-0.52 2.34,-2.02 2.06,-3.44 -0.33,-1.76 -0.8,-3.41 -1.49,-5.05 -0.81,-2.01 -1.86,-3.89 -2.92,-5.75 z m -42.43,-99.17 c 0.02,-0.08 0.05,-0.16 0.07,-0.24 -0.03,0.11 -0.06,0.21 -0.1,0.31 0.02,-0.03 0.03,-0.05 0.03,-0.07 z m -50.14,57.46 c 0.02,0 0.04,0 0.05,0 -0.01,0 -0.03,0 -0.05,0 0,0 0,0 0,0 z m 79.84,38.4 c -3.29,-2.41 -6.68,-4.72 -10.15,-6.84 -3.23,-1.96 -6.54,-3.79 -10.11,-5.11 -2.9,-1.06 -6.04,-1.81 -9.15,-1.41 -3.25,0.41 -6.08,2.43 -8.45,4.57 -3.03,2.73 -5.63,5.92 -8.15,9.13 -2.61,3.37 -5.11,6.83 -7.74,10.2 -0.13,0.16 -0.25,0.32 -0.38,0.48 0.09,-0.45 0.18,-0.91 0.27,-1.36 0.82,-3.96 1.76,-7.89 2.52,-11.87 0.7,-3.69 1.15,-7.37 1.15,-11.12 0,-1.5 -0.14,-3 -0.47,-4.46 -0.21,-0.91 -0.46,-1.79 -0.8,-2.64 -0.33,-0.82 -0.79,-1.58 -1.26,-2.31 -0.8,-1.29 -1.94,-2.38 -3.03,-3.4 -1.12,-1.05 -2.4,-1.93 -3.67,-2.75 -3.23,-2.06 -6.68,-3.73 -10.18,-5.27 -3.38,-1.47 -6.8,-2.81 -10.2,-4.23 0.1,0 0.2,0 0.29,0 4.65,0.15 9.29,0.6 13.91,1.08 4.54,0.48 9.12,1.11 13.69,1.1 0.4,0.77 1.19,1.36 2,1.5 0.68,0.11 1.41,-0.08 1.97,-0.49 0.59,-0.46 0.82,-1 1.02,-1.7 1.86,-6.77 3.82,-13.51 5.8,-20.23 -0.03,0.09 -0.06,0.19 -0.09,0.28 2.49,-8.42 5,-16.84 7.49,-25.26 0,0.03 0,0.06 0.01,0.09 0.52,7.33 1.2,14.64 2.41,21.88 0.58,3.46 1.3,6.89 2.26,10.27 0.77,2.75 1.82,5.37 3.29,7.85 1.24,2.09 3.1,3.85 5.39,4.73 3.08,1.17 6.51,1.14 9.74,0.94 3.05,-0.21 6.07,-0.73 9.06,-1.3 3.4,-0.67 6.77,-1.46 10.14,-2.26 2.22,-0.52 4.44,-1.04 6.66,-1.52 -2.96,2.62 -6.02,5.14 -8.92,7.84 -2.05,1.91 -4.02,3.9 -5.78,6.07 -1.62,2 -3.07,4.28 -3.91,6.72 -0.79,2.29 -1.02,4.66 -0.56,7.04 0.49,2.53 1.49,4.9 2.64,7.18 1.75,3.44 3.82,6.7 5.86,9.98 -1.52,-1.15 -3.04,-2.29 -4.57,-3.4 z"
         id="path286" />
    </g>
  </g>
</svg>
