<?xml version="1.0" encoding="UTF-8" standalone="no"?>
<svg
   xmlns:dc="http://purl.org/dc/elements/1.1/"
   xmlns:cc="http://creativecommons.org/ns#"
   xmlns:rdf="http://www.w3.org/1999/02/22-rdf-syntax-ns#"
   xmlns:svg="http://www.w3.org/2000/svg"
   xmlns="http://www.w3.org/2000/svg"
   id="svg708"
   version="1.1"
   viewBox="0 0 24.940428 27.279902"
   height="27.2799mm"
   width="24.940428mm">
  <defs
     id="defs702" />
  <metadata
     id="metadata705">
    <rdf:RDF>
      <cc:Work
         rdf:about="">
        <dc:format>image/svg+xml</dc:format>
        <dc:type
           rdf:resource="http://purl.org/dc/dcmitype/StillImage" />
        <dc:title></dc:title>
      </cc:Work>
    </rdf:RDF>
  </metadata>
  <g
     transform="translate(155.22055,-282.22154)"
     id="layer1">
    <path
       className="star"
       style="fill:#ffc0cb;stroke-width:0.264583"
       d="m -134.61141,282.33525 c -3.27819,1.54252 -6.71777,2.82046 -9.81075,4.71752 -0.82815,-0.53446 -1.67746,-1.03452 -2.52148,-1.53458 -1.09273,-0.64294 -2.20134,-1.25413 -3.32317,-1.84944 -0.22754,-0.12171 -0.47889,-0.14817 -0.71702,-0.0265 -0.27517,0.14552 -0.45773,0.49477 -0.36777,0.80698 0.254,0.84931 0.65087,1.64306 1.0504,2.43417 0.40745,0.80433 0.82814,1.60602 1.15887,2.45004 0.14552,0.41275 0.26458,0.83344 0.32279,1.26735 0.0106,0.20109 0.008,0.39953 -0.0159,0.60325 -0.0556,0.28311 -0.14023,0.55298 -0.24871,0.82021 -0.37571,0.81757 -0.90223,1.55575 -1.46315,2.2569 0.005,-0.005 0.0106,-0.0132 0.0132,-0.0185 -1.44462,1.74889 -3.15119,3.25966 -4.572,5.02708 -0.15875,0.20108 -0.13758,0.53975 -0.0265,0.75142 0.11907,0.22225 0.3863,0.42333 0.65088,0.40481 1.52135,-0.11642 3.02948,-0.3466 4.51644,-0.69321 1.28058,-0.29369 2.52412,-0.71702 3.76237,-1.14829 0.35454,0.90223 0.72496,1.79917 1.06892,2.70404 -0.008,-0.0212 -0.0159,-0.0423 -0.0238,-0.0661 0.83608,2.24366 1.62454,4.55877 1.89706,6.94795 0.0132,0.12171 0.0238,0.24342 0.037,0.36513 -0.003,0.15875 0.0291,0.31221 0.10319,0.45508 0.11641,0.21696 0.32014,0.38365 0.55562,0.45509 0.23019,0.0661 0.4789,0.0397 0.69321,-0.0714 0.23548,-0.127 0.35454,-0.3175 0.44979,-0.55298 0.53446,-1.28058 0.74877,-2.68552 1.01071,-4.04019 0.28575,-1.47637 0.56356,-2.99773 1.15623,-4.38679 0.14023,-0.29633 0.29898,-0.57944 0.49477,-0.84137 0.0979,-0.11113 0.20373,-0.21696 0.32015,-0.30957 0.0847,-0.0503 0.17198,-0.0926 0.26193,-0.13229 0.24607,-0.0794 0.50007,-0.13229 0.75936,-0.16669 1.07685,-0.0926 2.16694,0.037 3.23585,0.15611 0.99748,0.11112 2.02142,0.27781 3.02419,0.19314 0.31221,-0.0212 0.57944,-0.127 0.75142,-0.40216 0.082,-0.13494 0.1217,-0.27517 0.127,-0.42863 0.003,-0.15346 -0.0291,-0.29104 -0.0979,-0.42333 -0.18521,-0.48683 -0.51065,-0.91811 -0.8546,-1.30704 -0.37836,-0.42069 -0.83609,-0.77788 -1.28852,-1.11919 -0.89165,-0.67998 -1.87061,-1.24354 -2.74903,-1.94733 -0.26458,-0.23019 -0.51593,-0.47625 -0.73554,-0.75142 -0.09,-0.13758 -0.16933,-0.28046 -0.23812,-0.42863 -0.045,-0.15081 -0.0767,-0.30691 -0.10054,-0.46566 -0.008,-0.20902 0,-0.4154 0.0238,-0.62442 0.11112,-0.57679 0.31485,-1.12712 0.55298,-1.66687 0.48154,-1.02659 1.05304,-2.00819 1.54252,-3.03213 0.53181,-1.1086 0.99219,-2.28071 0.99219,-3.52689 0,-0.33867 -0.15611,-0.65088 -0.44715,-0.8308 -0.15081,-0.0953 -0.31485,-0.13758 -0.48154,-0.13758 -0.14817,0.005 -0.30427,0.045 -0.44979,0.11377 z m -9.98538,7.09877 c 2.84163,-1.94998 6.04573,-3.21204 9.16517,-4.63021 -0.0952,0.27252 -0.20638,0.5424 -0.32279,0.80963 -0.52917,1.12977 -1.16682,2.20662 -1.68011,3.34698 -0.52123,1.15623 -0.92604,2.39183 -0.66939,3.67241 0.11641,0.56886 0.42068,1.07157 0.76729,1.524 0.36777,0.48419 0.86783,0.87048 1.34673,1.23561 0.94456,0.71702 1.98173,1.29381 2.91306,2.02935 0.0767,0.0635 0.15081,0.12965 0.22225,0.19579 -0.2249,-0.0212 -0.44715,-0.0476 -0.6694,-0.0714 -0.90752,-0.0979 -1.81239,-0.20902 -2.72256,-0.24077 -0.77787,-0.0291 -1.59544,-0.008 -2.34421,0.23018 -0.39423,0.12171 -0.72495,0.30427 -1.05039,0.55827 -0.27517,0.21167 -0.49742,0.50536 -0.69586,0.78846 -0.18256,0.25929 -0.32808,0.54769 -0.45773,0.83344 -0.18256,0.39423 -0.33866,0.7964 -0.47625,1.20915 -0.27252,0.83079 -0.46566,1.68539 -0.65087,2.54 -0.0635,0.29898 -0.127,0.59531 -0.18785,0.89429 -0.15346,-0.55034 -0.32544,-1.09802 -0.50271,-1.64307 -0.33602,-1.00806 -0.70379,-2.00024 -1.09273,-2.98714 -0.35719,-0.90752 -0.73025,-1.82033 -1.15359,-2.6961 -0.2196,-0.4498 -0.80697,-0.6059 -1.23825,-0.38365 -0.48947,0.25929 -0.98689,0.47625 -1.50283,0.67733 -1.61131,0.59002 -3.28348,1.03981 -4.97946,1.33879 0.62971,-0.66939 1.27794,-1.32027 1.89971,-1.99495 0.56092,-0.6059 1.10067,-1.23561 1.60602,-1.88648 0.44979,-0.57415 0.8599,-1.18004 1.18004,-1.83357 0.30427,-0.61383 0.5133,-1.25412 0.55827,-1.93939 0.0265,-0.36777 -0.0344,-0.74877 -0.10318,-1.10861 -0.0794,-0.39422 -0.21167,-0.78052 -0.35719,-1.15622 -0.37835,-1.00013 -0.89429,-1.93411 -1.37319,-2.88396 0.44715,0.24871 0.889,0.50535 1.32821,0.76464 0.71438,0.42334 1.41288,0.87048 2.11931,1.30969 -0.10583,0.10319 -0.18521,0.2249 -0.23283,0.38629 -0.0714,0.23813 -0.045,0.49742 0.0714,0.71702 0.11906,0.22225 0.33073,0.39423 0.57679,0.46832 0.0847,0.0238 0.18521,0.0397 0.28575,0.0397 0.14817,0 0.30692,-0.0344 0.42333,-0.11377 z m 8.87942,-3.91054 c -0.0106,0.0212 -0.0185,0.0423 -0.0291,0.0609 0.0106,-0.0185 0.0212,-0.0397 0.0291,-0.0609 z m -0.61119,5.95577 c -0.005,0.0265 -0.008,0.0556 -0.0132,0.082 0.003,-0.0265 0.008,-0.0529 0.0132,-0.082 z m 1.09802,2.24102 c 0.0344,0.0291 0.0688,0.0582 0.10319,0.0873 -0.0344,-0.0291 -0.0688,-0.0582 -0.10319,-0.0873 z m -12.29519,3.57717 c -0.0212,0.008 -0.0397,0.0159 -0.0609,0.0212 0.0185,-0.008 0.0397,-0.0159 0.0609,-0.0212 z m 2.45534,4.17777 c -0.0212,-0.0556 -0.0423,-0.11113 -0.0635,-0.16669 0.0212,0.0582 0.0423,0.11113 0.0635,0.16669 z"
       id="path152" />
  </g>
</svg>
