<?xml version="1.0" encoding="UTF-8" standalone="no"?>
<svg
   xmlns:dc="http://purl.org/dc/elements/1.1/"
   xmlns:cc="http://creativecommons.org/ns#"
   xmlns:rdf="http://www.w3.org/1999/02/22-rdf-syntax-ns#"
   xmlns:svg="http://www.w3.org/2000/svg"
   xmlns="http://www.w3.org/2000/svg"
   id="svg708"
   version="1.1"
   viewBox="0 0 35.132767 39.101665"
   height="39.101662mm"
   width="35.132767mm">
  <defs
     id="defs702" />
  <metadata
     id="metadata705">
    <rdf:RDF>
      <cc:Work
         rdf:about="">
        <dc:format>image/svg+xml</dc:format>
        <dc:type
           rdf:resource="http://purl.org/dc/dcmitype/StillImage" />
        <dc:title></dc:title>
      </cc:Work>
    </rdf:RDF>
  </metadata>
  <g
     transform="translate(87.409884,-197.64708)"
     id="layer1">
    <g
       transform="matrix(0.26458333,0,0,0.26458333,-478.53041,19.730662)"
       className="sun"
       style="fill:#ffa500"
       id="g244">
      <polygon
         points="1553.81,779.72 1553.8,779.73 1553.81,779.73 "
         id="polygon238" />
      <path
         d="m 1516.85,744.26 c -0.02,0.07 -0.03,0.13 -0.05,0.2 0.02,-0.09 0.05,-0.18 0.07,-0.26 -0.01,0.01 -0.01,0.04 -0.02,0.06 z"
         id="path240" />
      <path
         d="m 1611,732.44 c -0.14,-1.01 -0.7,-1.94 -1.52,-2.55 -0.75,-0.58 -1.56,-0.76 -2.44,-0.76 -0.14,0 -0.29,0 -0.43,0.01 -7.82,0.45 -15.63,1.46 -23.41,2.31 -0.45,0.05 -0.87,0.2 -1.25,0.41 -1.63,-3.1 -3.64,-6.01 -6.06,-8.57 -1.46,-1.54 -3.04,-2.97 -4.65,-4.35 3.3,-3.03 6.65,-5.98 10.04,-8.9 4.21,-3.6 8.51,-7.09 12.51,-10.91 0.53,-0.51 0.92,-1.04 1.01,-1.79 0.09,-0.73 -0.12,-1.47 -0.57,-2.05 -0.53,-0.67 -1.33,-1.01 -2.14,-1.01 -0.6,0 -1.2,0.19 -1.7,0.58 -4.36,3.38 -8.55,7 -12.76,10.6 -3.72,3.17 -7.36,6.42 -10.94,9.75 -2.35,-1.75 -4.87,-3.26 -7.52,-4.48 -2.39,-1.09 -5,-1.83 -7.63,-2.21 2.1,-10.79 4.57,-21.52 6.59,-32.34 0.33,-1.79 -1.16,-3.49 -2.87,-3.71 -0.14,-0.02 -0.28,-0.03 -0.42,-0.03 -1.67,0 -2.96,1.26 -3.29,2.9 -2.13,10.82 -4.46,21.6 -6.49,32.44 -0.48,-0.04 -0.95,-0.08 -1.43,-0.08 -3.25,0 -6.48,0.9 -9.38,2.35 -6.41,3.24 -11.34,8.78 -15.18,14.84 -2.78,-2.01 -5.55,-4.03 -8.29,-6.07 -3.96,-2.96 -7.84,-6.02 -11.92,-8.8 -0.5,-0.34 -1.08,-0.51 -1.64,-0.51 -0.8,0 -1.59,0.35 -2.11,1.06 -0.9,1.21 -0.59,2.84 0.54,3.76 3.63,2.95 7.42,5.7 11.19,8.46 3.14,2.32 6.31,4.58 9.48,6.84 -0.05,0.09 -0.1,0.18 -0.15,0.27 -2.25,4.27 -4,8.8 -5.23,13.46 -0.83,3.09 -1.41,6.22 -1.74,9.39 -0.07,-0.01 -0.13,-0.06 -0.2,-0.06 -4.56,-0.28 -9.07,-1.04 -13.57,-1.72 -4.75,-0.73 -9.55,-1.55 -14.36,-1.6 -0.05,0 -0.1,0 -0.16,0 -0.63,0 -1.19,0.1 -1.71,0.51 -0.51,0.4 -0.85,1.01 -0.93,1.65 -0.17,1.32 0.81,2.67 2.16,2.79 2.28,0.22 4.55,0.4 6.83,0.65 2.27,0.25 4.52,0.56 6.78,0.85 2.25,0.31 4.52,0.61 6.78,0.85 2.51,0.28 5.06,0.43 7.59,0.56 0.18,0.01 0.34,-0.03 0.51,-0.06 0,0.19 -0.02,0.38 -0.02,0.57 0,4.72 0.67,9.38 2.39,13.82 1.32,3.38 3.38,6.42 5.96,8.96 -1.81,2.29 -3.53,4.66 -5.21,7.05 -2.89,4.11 -5.71,8.24 -8.68,12.31 -0.88,1.21 -0.65,2.93 0.56,3.85 1.23,0.92 2.9,0.61 3.85,-0.56 3,-3.71 5.62,-7.73 8.32,-11.67 1.74,-2.58 3.54,-5.11 5.45,-7.57 3.47,2.14 7.45,3.42 11.44,4.07 3.09,0.51 6.22,0.56 9.33,0.47 0.3,-0.01 0.6,-0.03 0.9,-0.05 -0.52,4.79 -0.74,9.57 -0.69,14.4 0.06,4.89 0.48,9.83 1.52,14.61 0.37,1.74 1.83,3.03 3.68,2.76 1.8,-0.26 2.95,-1.92 2.75,-3.68 -0.52,-4.66 -0.95,-9.31 -1.06,-14 -0.04,-4.58 0.21,-9.14 0.73,-13.68 0.05,-0.39 0.01,-0.77 -0.07,-1.13 0.95,-0.15 1.9,-0.32 2.85,-0.51 7.35,-1.43 14.18,-4.69 19.82,-9.51 1.27,3.45 2.73,6.81 4.48,10.05 1.18,2.22 2.51,4.36 3.97,6.43 1.47,2.06 3.15,3.91 4.98,5.68 0.5,0.36 1.04,0.59 1.66,0.67 0.93,0.12 1.89,-0.16 2.62,-0.73 1.47,-1.18 1.79,-3.46 0.56,-4.94 -2.34,-2.8 -4.53,-5.68 -6.44,-8.79 -2.59,-4.46 -4.61,-9.19 -6.27,-14.06 -0.01,-0.02 -0.03,-0.04 -0.04,-0.07 4.13,-5.31 6.83,-11.64 7.73,-18.32 0.66,-4.82 0.2,-9.66 -1.08,-14.27 7.6,-0.82 15.22,-1.47 22.78,-2.5 2.11,-0.26 3.6,-2.3 3.31,-4.39 z m -48.23,43.4 c -2.84,1.65 -5.82,2.93 -8.96,3.88 0.08,-0.02 0.15,-0.04 0.23,-0.06 -0.08,0.02 -0.16,0.04 -0.24,0.06 -0.23,0.07 -0.45,0.14 -0.68,0.2 0.23,-0.07 0.45,-0.14 0.68,-0.2 -4.71,1.25 -9.64,1.97 -14.53,2.04 -2.91,-0.03 -5.8,-0.34 -8.62,-1.04 -1.75,-0.5 -3.44,-1.16 -5.06,-2 0.35,-1.07 -0.06,-2.37 -0.95,-3.03 -0.48,-0.36 -1.06,-0.55 -1.66,-0.55 -0.12,0 -0.24,0.01 -0.36,0.02 -0.45,0.07 -0.81,0.26 -1.14,0.5 -1.06,-1.1 -2.01,-2.29 -2.83,-3.57 -1.02,-1.78 -1.82,-3.66 -2.42,-5.61 -0.8,-3 -1.16,-6.08 -1.2,-9.17 0.05,-4.35 0.69,-8.65 1.76,-12.86 -0.03,0.1 -0.06,0.21 -0.09,0.31 0.05,-0.17 0.09,-0.34 0.14,-0.51 0.02,-0.08 0.04,-0.16 0.06,-0.24 -0.01,0.06 -0.03,0.11 -0.04,0.17 1.21,-4.35 2.88,-8.57 4.97,-12.58 0.3,-0.17 0.58,-0.41 0.8,-0.71 0.35,-0.47 0.48,-1.04 0.49,-1.61 1.89,-3.15 4.04,-6.13 6.56,-8.78 1.36,-1.36 2.81,-2.63 4.38,-3.74 0.97,1.34 2.63,2.2 4.3,1.84 1.73,-0.37 3.5,-0.52 5.26,-0.58 3.17,0.05 6.31,0.46 9.39,1.18 3.12,0.88 6.1,2.11 8.95,3.66 2.42,1.45 4.68,3.11 6.74,5.05 1.95,1.98 3.7,4.12 5.2,6.47 1.37,2.35 2.46,4.83 3.25,7.43 0.63,2.49 0.98,5 1.05,7.56 -0.05,2.56 -0.39,5.1 -1,7.59 -0.73,2.53 -1.72,4.95 -2.98,7.27 -1.38,2.31 -2.99,4.43 -4.83,6.39 -2.02,1.99 -4.23,3.73 -6.62,5.22 z"
         id="path242" />
    </g>
  </g>
</svg>
