<?xml version="1.0" encoding="UTF-8" standalone="no"?>
<svg
   xmlns:dc="http://purl.org/dc/elements/1.1/"
   xmlns:cc="http://creativecommons.org/ns#"
   xmlns:rdf="http://www.w3.org/1999/02/22-rdf-syntax-ns#"
   xmlns:svg="http://www.w3.org/2000/svg"
   xmlns="http://www.w3.org/2000/svg"
   id="svg708"
   version="1.1"
   viewBox="0 0 32.007981 46.86435"
   height="46.864346mm"
   width="32.00798mm">
  <defs
     id="defs702" />
  <metadata
     id="metadata705">
    <rdf:RDF>
      <cc:Work
         rdf:about="">
        <dc:format>image/svg+xml</dc:format>
        <dc:type
           rdf:resource="http://purl.org/dc/dcmitype/StillImage" />
        <dc:title></dc:title>
      </cc:Work>
    </rdf:RDF>
  </metadata>
  <g
     transform="translate(86.57388,-192.1074)"
     id="layer1">
    <path
       className="tree"
       style="fill:#008000;stroke-width:0.264583"
       d="m -64.104545,235.36088 c -0.0079,-0.82021 -0.09525,-1.63777 -0.179917,-2.45269 -0.08731,-0.83873 -0.179916,-1.67746 -0.27252,-2.51619 -0.166688,-1.54252 -0.314855,-3.08768 -0.415396,-4.63285 -0.06615,-1.11919 -0.103188,-2.23573 -0.103188,-3.35756 0.224896,0.10319 0.452438,0.17462 0.709084,0.19314 0.195791,0.0159 0.402166,-0.005 0.600604,-0.0132 0.264583,-0.0106 0.531812,-0.0291 0.801687,-0.0476 0.846667,-0.0714 1.688042,-0.22754 2.500313,-0.47625 0.791104,-0.24077 1.553104,-0.56092 2.248958,-1.00806 0.693209,-0.4445 1.293813,-0.97896 1.799167,-1.62984 0.478896,-0.62706 0.817563,-1.37848 1.000125,-2.14312 0.219604,-0.92075 0.22225,-1.86002 0.0979,-2.79665 -0.06879,-0.51858 -0.201083,-1.02923 -0.34925,-1.52929 -0.121708,-0.39687 -0.298979,-0.75671 -0.521229,-1.10596 -0.433917,-0.67204 -0.968375,-1.25941 -1.423459,-1.91294 -0.103187,-0.16668 -0.195791,-0.33866 -0.269875,-0.52122 -0.01587,-0.0609 -0.0291,-0.12171 -0.03704,-0.18521 0,-0.0265 0.0026,-0.0503 0.0053,-0.0741 0.01323,-0.0423 0.02911,-0.0847 0.04762,-0.12435 0.113771,-0.19315 0.254,-0.36777 0.402167,-0.5371 0.486833,-0.52917 1.021292,-1.01336 1.505479,-1.54782 0.251354,-0.28046 0.497417,-0.56621 0.693209,-0.89164 0.224895,-0.37042 0.365125,-0.78582 0.478895,-1.19857 0.230188,-0.85195 0.283105,-1.72243 0.142875,-2.59291 -0.140229,-0.86784 -0.537104,-1.66423 -1.03452,-2.37861 -0.418042,-0.60325 -0.986896,-1.11654 -1.571625,-1.55045 -0.07408,-0.0529 -0.148167,-0.10584 -0.22225,-0.15875 -0.590021,-0.40217 -1.246188,-0.71967 -1.912938,-0.96044 -0.751417,-0.27252 -1.55575,-0.42069 -2.354792,-0.43392 -0.582083,-0.0106 -1.145646,0.0609 -1.695979,0.20902 -0.0053,-0.09 -0.01058,-0.18256 -0.02117,-0.27516 -0.03704,-0.41011 -0.148166,-0.79905 -0.283104,-1.18534 -0.232833,-0.6641 -0.669396,-1.26735 -1.185333,-1.7436 -1.135063,-1.04246 -2.648479,-1.524 -4.161896,-1.64571 -1.582208,-0.127 -3.222625,0.17198 -4.654021,0.8546 -0.682625,0.32809 -1.328208,0.77788 -1.860021,1.31498 -0.605896,0.61384 -1.050396,1.33615 -1.293812,2.16429 -0.367771,1.26471 -0.288396,2.59557 -0.521229,3.88144 -0.04498,0.20638 -0.105834,0.40481 -0.193146,0.59796 -0.03704,0.0609 -0.07673,0.12171 -0.119063,0.17727 -0.02646,0.0238 -0.05027,0.0476 -0.07937,0.0688 -0.02646,0.0132 -0.05292,0.0265 -0.07938,0.037 -0.01058,0.003 -0.02381,0.005 -0.0344,0.005 -0.248708,-0.003 -0.49477,-0.0476 -0.738187,-0.0979 -0.711729,-0.15081 -1.423458,-0.33337 -2.153708,-0.21696 -0.817563,0.13494 -1.608667,0.49213 -2.296584,0.94456 -1.431395,0.94192 -2.510895,2.36273 -3.055937,3.98728 -0.254,0.76464 -0.394229,1.58485 -0.407458,2.39183 -0.01323,0.78581 0.116416,1.55046 0.370416,2.29394 0.394229,1.15358 1.127125,2.13783 2.032,2.93687 -0.100541,0.12965 -0.195791,0.26194 -0.28575,0.39952 -0.291041,0.45509 -0.521229,0.96044 -0.6985,1.47109 -0.346604,1.00806 -0.431271,2.08491 -0.357187,3.1406 0.145521,2.04788 1.018646,4.064 2.43152,5.5589 0.727605,0.76464 1.598084,1.34937 2.545292,1.8071 0.820208,0.39423 1.751542,0.61383 2.664354,0.61648 0.957792,0 1.891771,-0.24342 2.735792,-0.69321 0.436562,-0.22754 0.844021,-0.52123 1.219729,-0.83608 0.203729,-0.17198 0.370417,-0.38894 0.526521,-0.61384 -0.0079,2.17753 0.140229,4.3524 0.394229,6.51405 0.148167,1.26206 0.338667,2.51883 0.547688,3.77031 0.100541,0.59531 0.206375,1.19327 0.3175,1.78858 0.121708,0.63765 0.219604,1.29117 0.428625,1.90765 0.07144,0.21166 0.148166,0.38629 0.343958,0.51858 0.179917,0.127 0.410104,0.17198 0.627062,0.12965 0.209021,-0.0397 0.396875,-0.16669 0.518584,-0.34396 0.137583,-0.19844 0.148166,-0.39688 0.129646,-0.62706 -0.03704,-0.4498 -0.132292,-0.89165 -0.219605,-1.33086 -0.09525,-0.49477 -0.193145,-0.98954 -0.28575,-1.48431 -0.1905,-0.99483 -0.365125,-1.99231 -0.52652,-2.99508 -0.301625,-1.90765 -0.531813,-3.82852 -0.658813,-5.75469 -0.05821,-1.02658 -0.0926,-2.05317 -0.08467,-3.0824 0,-0.10054 -0.02117,-0.19579 -0.05027,-0.28575 0.0079,0 0.01588,0 0.02381,0.003 0.550333,0.14552 1.068917,0.40217 1.598083,0.59531 0.346605,0.12965 0.695855,0.21696 1.058334,0.2884 0.365125,0.0714 0.735541,0.0556 1.108604,0.0238 0.394229,-0.037 0.788458,-0.18256 1.145646,-0.34925 0.0635,-0.0291 0.119062,-0.0767 0.177271,-0.11642 0.02646,1.7489 0.129645,3.49515 0.267229,5.23875 0.08996,1.12184 0.1905,2.23838 0.291041,3.36021 0.103188,1.12183 0.169334,2.25954 0.354542,3.37344 0.06615,0.39423 0.428625,0.69321 0.817563,0.72496 0.452437,0.0344 0.968375,-0.34132 0.960437,-0.83344 z m -3.590396,-13.22652 c -0.07144,0.037 -0.145521,0.0688 -0.219604,0.0952 -0.171979,0.0503 -0.341312,0.0847 -0.515937,0.10319 -0.1905,0 -0.381,-0.0132 -0.5715,-0.045 -0.555625,-0.13229 -1.076855,-0.36777 -1.598084,-0.59532 -0.534458,-0.23018 -1.116541,-0.46037 -1.706562,-0.45772 -0.322792,-0.003 -0.653521,0.037 -0.941917,0.19579 -0.330729,0.18256 -0.5715,0.46037 -0.812271,0.74348 -0.357187,0.41539 -0.635,0.89693 -0.978958,1.32291 -0.166688,0.16669 -0.359833,0.30427 -0.552979,0.43657 -0.325438,0.20108 -0.66675,0.37041 -1.026584,0.50535 -0.3175,0.0952 -0.642937,0.15875 -0.97102,0.1905 -0.373063,0.0106 -0.740834,-0.0185 -1.108605,-0.0847 -0.457729,-0.11112 -0.894291,-0.27516 -1.32027,-0.48154 -0.478896,-0.26194 -0.931334,-0.56885 -1.349375,-0.92339 -0.410105,-0.38365 -0.769938,-0.80434 -1.090084,-1.26207 -0.34925,-0.54768 -0.632354,-1.12977 -0.851958,-1.74096 -0.198438,-0.6297 -0.328083,-1.27264 -0.378354,-1.92881 -0.01852,-0.56885 0.01852,-1.12977 0.119062,-1.69069 0.108479,-0.45243 0.259292,-0.89164 0.457729,-1.31233 0.22225,-0.4154 0.478896,-0.81227 0.788459,-1.16946 0,0 0,0 0.0026,-0.003 0.166687,-0.17992 0.283104,-0.34925 0.30427,-0.60325 0.02117,-0.30427 -0.121708,-0.62442 -0.381,-0.79111 -0.298979,-0.19579 -0.584729,-0.4101 -0.854604,-0.64558 -0.320146,-0.30427 -0.611187,-0.635 -0.865187,-0.99748 -0.219604,-0.34925 -0.399521,-0.71438 -0.542396,-1.10067 -0.129646,-0.41275 -0.211667,-0.83343 -0.251354,-1.26471 -0.02117,-0.54504 0.02381,-1.08479 0.124354,-1.62189 0.124354,-0.5424 0.296333,-1.06098 0.53975,-1.56104 0.259292,-0.4789 0.566208,-0.9234 0.92075,-1.33615 0.336021,-0.35454 0.6985,-0.67204 1.098021,-0.95779 0.373062,-0.23813 0.764646,-0.43392 1.180041,-0.58738 0.246063,-0.0767 0.494771,-0.14816 0.751417,-0.17991 0.693208,0.003 1.373188,0.22489 2.061104,0.27781 0.34925,0.0238 0.695854,-0.0212 0.992188,-0.20108 0.293687,-0.17992 0.537104,-0.4154 0.714375,-0.71173 0.378354,-0.62706 0.457729,-1.39965 0.523875,-2.11402 0.07144,-0.82815 0.0979,-1.66159 0.259291,-2.48179 0.07937,-0.34132 0.182563,-0.67205 0.33073,-0.98955 0.166687,-0.30427 0.36777,-0.58473 0.592666,-0.84931 0.277813,-0.29369 0.584729,-0.55298 0.912813,-0.78581 0.497416,-0.32279 1.029229,-0.57679 1.5875,-0.77523 0.693208,-0.22225 1.410229,-0.35719 2.137833,-0.40481 0.677333,-0.0265 1.352021,0.0159 2.016125,0.14816 0.513292,0.11642 1.005417,0.2884 1.476375,0.51594 0.328083,0.17992 0.635,0.38894 0.92075,0.635 0.211667,0.20108 0.399521,0.41804 0.566208,0.65617 0.156105,0.25135 0.283105,0.51594 0.383646,0.79375 0.0926,0.30691 0.148167,0.61912 0.177271,0.93927 0.0079,0.23019 0.0053,0.45773 -0.01323,0.68527 -0.0079,0.0185 -0.01587,0.0397 -0.02381,0.0582 -0.08996,0.254 -0.07673,0.54239 0.04498,0.78316 0.235479,0.4789 0.862541,0.71967 1.349375,0.46303 0.169333,-0.09 0.338666,-0.16669 0.515937,-0.23548 0.296333,-0.0873 0.595313,-0.14288 0.902229,-0.17198 0.425979,-0.0132 0.851959,0.0238 1.272646,0.10054 0.531813,0.12171 1.042459,0.30692 1.534584,0.54504 0.463021,0.25135 0.896937,0.5424 1.296458,0.88371 0.301625,0.2831 0.579438,0.59002 0.820208,0.92604 0.201084,0.31485 0.367771,0.64823 0.497417,1.00013 0.0926,0.3122 0.153458,0.62706 0.185208,0.9472 0.01058,0.40217 -0.02381,0.7964 -0.09525,1.18798 -0.06879,0.29634 -0.153458,0.59267 -0.277812,0.87048 -0.150813,0.26459 -0.338667,0.50271 -0.53975,0.73554 -0.486833,0.52917 -1.016,1.0213 -1.494896,1.56105 -0.431271,0.48947 -0.830792,1.06627 -0.85725,1.74095 -0.02646,0.7038 0.336021,1.31498 0.724958,1.87325 0.396875,0.5715 0.873125,1.0848 1.264709,1.65894 0.132291,0.21167 0.248708,0.43127 0.338666,0.66411 0.201084,0.65616 0.343959,1.32291 0.399521,2.00554 0.01852,0.49212 -0.0079,0.97896 -0.0979,1.46314 -0.08996,0.37571 -0.214312,0.73554 -0.381,1.08479 -0.182562,0.33867 -0.39952,0.65353 -0.648229,0.94986 -0.314854,0.33602 -0.661458,0.62971 -1.039812,0.889 -0.531813,0.33602 -1.095375,0.59796 -1.688042,0.80698 -0.915459,0.29369 -1.860021,0.45773 -2.820459,0.51594 -0.283104,0.0159 -0.566208,0.0264 -0.846666,0.003 -0.0053,-0.003 -0.01058,-0.005 -0.01587,-0.005 -0.129646,-0.0767 -0.251354,-0.16404 -0.378354,-0.24342 -0.246063,-0.15875 -0.502709,-0.24341 -0.79375,-0.27516 -0.375709,-0.0397 -0.687917,0.15081 -0.949855,0.39423 -0.428625,0.39952 -0.783166,0.87577 -1.235604,1.23031 z"
       id="path80" />
  </g>
</svg>
