<?xml version="1.0" encoding="UTF-8" standalone="no"?>
<svg
   xmlns:dc="http://purl.org/dc/elements/1.1/"
   xmlns:cc="http://creativecommons.org/ns#"
   xmlns:rdf="http://www.w3.org/1999/02/22-rdf-syntax-ns#"
   xmlns:svg="http://www.w3.org/2000/svg"
   xmlns="http://www.w3.org/2000/svg"
   id="svg708"
   version="1.1"
   viewBox="0 0 47.172941 54.885017"
   height="54.88501mm"
   width="47.172939mm">
  <defs
     id="defs702" />
  <metadata
     id="metadata705">
    <rdf:RDF>
      <cc:Work
         rdf:about="">
        <dc:format>image/svg+xml</dc:format>
        <dc:type
           rdf:resource="http://purl.org/dc/dcmitype/StillImage" />
        <dc:title></dc:title>
      </cc:Work>
    </rdf:RDF>
  </metadata>
  <g
     transform="translate(194.54465,-220.74264)"
     id="layer1">
    <g
       transform="matrix(0.26458333,0,0,0.26458333,-267.96388,-141.58923)"
       className="palm"
       style="fill:#ffffff"
       id="g492">
      <path
         d="m 377.58,1405.27 c -0.03,0.04 -0.06,0.07 -0.09,0.11 -0.04,0.05 -0.07,0.09 -0.11,0.14 0.08,-0.09 0.14,-0.17 0.2,-0.25 z"
         id="path488" />
      <path
         d="m 364.01,1576.54 c 0.65,-0.36 1.02,-0.92 1.25,-1.61 0.2,-0.56 0.35,-1.09 0.46,-1.67 0.15,-0.72 0.26,-1.42 0.51,-2.11 0.28,-0.78 -0.01,-1.67 -0.57,-2.28 0.04,-2.15 0,-4.3 -0.02,-6.45 -0.05,-3.95 0.07,-7.88 0.25,-11.83 0.03,-0.6 0.07,-1.2 0.1,-1.8 0.51,0.24 1.04,0.46 1.59,0.62 1.18,0.34 2.36,0.52 3.58,0.63 2.54,0.21 5.07,0.09 7.6,-0.22 3.47,-0.42 6.84,-1.38 10.11,-2.6 0,1.5 0.01,3 0.1,4.5 0.13,2.1 0.35,4.21 0.6,6.3 0.25,2.07 0.55,4.15 1.5,6.03 1,1.96 4.11,2 5.13,0.04 0.99,-1.92 1.26,-4.03 1.54,-6.13 0.27,-2.05 0.42,-4.12 0.53,-6.17 0.23,-4.04 -0.17,-8.1 -0.42,-12.12 -0.19,-3.09 -0.39,-6.18 -0.62,-9.26 -0.08,-1.03 -0.16,-2.06 -0.25,-3.09 -0.35,-4.16 -0.66,-8.33 -1.03,-12.49 -0.71,-8.37 -1.57,-16.73 -2.49,-25.08 -0.91,-8.27 -1.91,-16.54 -3.07,-24.78 -0.77,-5.47 -1.66,-10.92 -2.6,-16.36 0.43,0.49 0.86,0.98 1.26,1.5 1.66,2.29 3.09,4.74 4.33,7.28 0.42,0.85 0.97,1.63 1.71,2.24 0.71,0.59 1.48,1.08 2.22,1.62 0.22,0.19 0.43,0.39 0.62,0.6 0.05,0.09 0.1,0.17 0.14,0.26 0.03,0.1 0.05,0.2 0.07,0.29 0.01,0.24 0,0.49 -0.02,0.73 -0.14,0.72 -0.36,1.41 -0.62,2.1 -0.3,0.68 -0.64,1.34 -0.99,2.01 -0.52,0.95 -0.56,2.09 -0.03,3.05 0.28,0.49 0.67,0.88 1.16,1.17 0.74,0.43 1.48,0.45 2.3,0.31 1.28,-0.21 2.55,-0.4 3.82,-0.55 3.51,-0.37 7.04,-0.48 10.55,-0.05 2.19,0.35 4.31,0.92 6.37,1.76 0.69,0.28 1.67,0.06 2.29,-0.29 0.95,-0.53 1.58,-1.57 1.57,-2.66 0,-0.67 -0.03,-1.33 -0.08,-1.99 -0.3,-4.01 -1.48,-7.84 -3.08,-11.54 -2.03,-4.66 -4.94,-8.94 -8.19,-12.82 -3.22,-3.84 -7.04,-7.23 -11.27,-9.91 -3.29,-2.08 -6.98,-3.62 -10.83,-4.19 0.55,-0.31 1.07,-0.68 1.57,-1.05 1.34,-1.02 2.4,-2.35 3.13,-3.85 1.97,2.16 4.12,4.16 6.07,6.32 0.1,0.11 0.19,0.23 0.28,0.35 0.29,0.42 0.65,0.74 1.11,0.96 0.45,0.21 0.91,0.3 1.4,0.26 0.48,-0.04 0.93,-0.19 1.34,-0.46 0.42,-0.29 0.74,-0.65 0.96,-1.11 0.03,-0.05 0.06,-0.1 0.09,-0.15 0.53,-0.76 1.11,-1.48 1.78,-2.13 0.35,-0.27 0.7,-0.51 1.08,-0.73 0.23,-0.09 0.46,-0.17 0.69,-0.23 0.21,-0.02 0.41,-0.04 0.61,-0.04 0.3,0.04 0.6,0.09 0.89,0.17 0.45,0.18 0.88,0.39 1.3,0.64 0.83,0.59 1.56,1.27 2.26,2.02 1.03,1.23 1.92,2.56 2.72,3.93 0.47,0.81 1.51,1.25 2.42,1.19 0.98,-0.07 1.78,-0.66 2.22,-1.52 0.07,-0.14 0.15,-0.27 0.22,-0.4 0.59,-0.81 1.27,-1.54 1.96,-2.27 0.09,0.21 0.18,0.42 0.27,0.63 0.78,1.82 1.59,3.64 2.05,5.57 0.05,0.32 0.1,0.65 0.12,0.98 0.05,0.67 0.35,1.29 0.86,1.73 0.71,0.62 1.59,0.7 2.47,0.48 6.02,-1.54 11.42,-4.93 17.49,-6.3 0.92,-0.17 1.83,-0.28 2.77,-0.26 0.46,0.05 0.9,0.13 1.35,0.25 0.34,0.15 0.7,0.21 1.08,0.19 0.6,-0.04 1.18,-0.33 1.58,-0.79 0.45,-0.52 0.63,-1.23 0.52,-1.9 -0.08,-0.52 -0.33,-1.01 -0.76,-1.35 -1.94,-1.56 -3.81,-3.23 -5.77,-4.77 -2.21,-1.73 -4.48,-3.38 -6.8,-4.95 -4.99,-3.39 -10.24,-6.42 -15.78,-8.83 -5.28,-2.29 -10.92,-4.04 -16.67,-4.49 -2.71,-0.21 -5.43,-0.15 -8.11,0.34 -2.74,0.49 -5.3,1.4 -7.76,2.69 -0.42,0.22 -0.82,0.47 -1.23,0.72 -0.58,-0.47 -1.19,-0.91 -1.81,-1.3 -0.59,-0.36 -1.31,-0.43 -1.96,-0.24 -0.21,-0.16 -0.45,-0.27 -0.67,-0.41 1.21,-0.94 2.39,-1.92 3.52,-2.95 0.96,-0.87 1.89,-1.78 2.88,-2.63 0.95,-0.81 1.94,-1.61 2.93,-2.38 2.3,-1.73 4.77,-3.29 7.44,-4.37 0.93,-0.33 1.87,-0.59 2.84,-0.74 0.63,-0.05 1.24,-0.05 1.87,0.01 0.46,0.09 0.91,0.21 1.35,0.38 0.08,0.04 0.17,0.08 0.25,0.12 0.67,0.33 1.4,0.39 2.08,0.01 0.34,-0.2 0.6,-0.46 0.8,-0.78 0.29,-0.51 0.3,-1.01 0.21,-1.58 -0.05,-0.31 -0.09,-0.61 -0.13,-0.92 -0.09,-0.95 -0.13,-1.91 -0.04,-2.87 0.07,-0.41 0.16,-0.82 0.3,-1.22 0.1,-0.2 0.21,-0.4 0.33,-0.59 0.13,-0.14 0.26,-0.27 0.4,-0.4 0.17,-0.11 0.35,-0.21 0.53,-0.3 0.43,-0.15 0.86,-0.25 1.3,-0.31 1.39,-0.11 2.79,0.01 4.18,0.19 1.93,0.27 3.86,0.63 5.81,0.91 2.08,0.31 4.18,0.55 6.29,0.41 0.58,-0.04 1.08,-0.2 1.51,-0.61 0.43,-0.43 0.55,-0.91 0.63,-1.49 0.27,-2.06 0.44,-4.34 0.27,-6.58 -0.3,-3.94 -1.63,-7.74 -5.19,-9.86 -2.14,-1.27 -4.78,-1.57 -7.22,-1.37 -3.01,0.24 -5.92,1.09 -8.72,2.2 -7.03,2.76 -13.48,6.85 -19.52,11.32 -6.18,4.55 -12.04,9.57 -17.27,15.21 -1.78,1.92 -3.46,3.93 -5,6.05 -0.67,0.93 -1.29,1.89 -1.84,2.89 -0.12,-0.25 -0.27,-0.49 -0.48,-0.7 -4,-3.99 -8.64,-7.32 -13.63,-9.96 -5.16,-2.74 -10.74,-4.75 -16.46,-5.92 -11.26,-2.28 -23.53,-1.15 -33.25,5.34 -0.85,0.57 -1.67,1.19 -2.47,1.83 -0.49,0.39 -0.75,1.18 -0.76,1.79 0,0.67 0.26,1.34 0.74,1.81 1.99,1.96 3.98,3.9 6.22,5.56 1.22,0.91 2.67,1.71 4.18,1.94 0.69,0.11 1.35,0.17 2.05,0.1 0.77,-0.08 1.51,-0.21 2.26,-0.38 1.44,-0.34 2.86,-0.69 4.32,-0.89 1.88,-0.21 3.82,-0.28 5.7,-0.08 0.97,0.18 1.91,0.48 2.84,0.84 1.37,0.59 2.7,1.27 4.04,1.91 1.61,0.77 3.25,1.48 4.96,1.99 1.75,0.52 3.62,0.76 5.44,0.69 2.31,-0.09 4.49,-0.75 6.57,-1.73 0.99,-0.47 1.28,-1.83 0.77,-2.73 -0.26,-0.47 -0.71,-0.81 -1.23,-0.95 -0.54,-0.15 -0.99,-0.03 -1.49,0.19 -0.08,0.04 -0.16,0.07 -0.24,0.1 -1.09,0.4 -2.2,0.71 -3.34,0.87 -0.87,0.07 -1.73,0.06 -2.6,-0.03 -1.37,-0.22 -2.67,-0.62 -3.95,-1.13 -2.02,-0.89 -3.94,-2.01 -5.93,-2.99 -1.08,-0.54 -2.2,-1.01 -3.35,-1.39 -1.28,-0.41 -2.62,-0.53 -3.97,-0.58 -2.36,-0.11 -4.74,0.08 -7.07,0.52 -1.28,0.24 -2.54,0.62 -3.83,0.82 -0.29,0.02 -0.58,0.03 -0.88,0.01 -0.27,-0.06 -0.53,-0.13 -0.8,-0.22 -0.78,-0.37 -1.49,-0.85 -2.17,-1.37 -0.97,-0.79 -1.88,-1.63 -2.77,-2.49 1.69,-1.07 3.47,-1.99 5.32,-2.76 2.92,-1.12 5.96,-1.86 9.07,-2.27 3.76,-0.4 7.54,-0.32 11.29,0.16 4.67,0.68 9.24,1.95 13.61,3.72 4.09,1.74 7.97,3.93 11.56,6.53 -1.51,0.4 -2.92,1.22 -4.05,2.27 -1.33,1.23 -2.23,2.85 -2.83,4.54 -0.61,1.71 -0.72,3.6 -0.47,5.39 0.01,0.11 0.05,0.2 0.07,0.31 -1.98,-0.86 -4.05,-1.51 -6.19,-1.91 -4.36,-0.8 -8.8,-0.58 -13.12,0.28 -4.62,0.93 -9.08,2.68 -13.29,4.78 -4.55,2.28 -8.8,5.1 -12.86,8.16 -7.05,5.33 -13.41,11.64 -18.99,18.49 -2.58,3.18 -4.98,6.48 -7.16,9.93 -1.86,2.96 -3.56,6.05 -4.92,9.27 -0.13,0.22 -0.19,0.46 -0.19,0.71 0,0.38 0.15,0.75 0.42,1.02 0.45,0.46 1.16,0.54 1.72,0.24 8.28,-4.36 15.67,-10.34 24.39,-13.88 -0.13,0.05 -0.25,0.1 -0.38,0.14 1.05,-0.41 2.12,-0.85 3.21,-1.11 0.07,0 0.14,0 0.22,0 0.13,0.03 0.25,0.06 0.38,0.1 0.39,0.2 0.76,0.43 1.11,0.69 0.6,0.48 1.19,0.98 1.8,1.45 0.21,0.16 0.43,0.3 0.66,0.42 0.43,0.22 0.79,0.29 1.26,0.34 0.53,0.06 1.07,-0.22 1.51,-0.49 0.47,-0.27 0.93,-0.59 1.39,-0.9 1.25,-0.85 2.49,-1.71 3.73,-2.59 0.51,-0.37 1.04,-0.74 1.56,-1.1 0.23,-0.15 0.46,-0.32 0.7,-0.45 0.2,-0.06 0.41,-0.11 0.62,-0.16 0.42,-0.12 0.85,-0.25 1.28,-0.38 1.16,-0.35 2.33,-0.73 3.5,-1.1 2.54,-0.83 5.07,-1.66 7.56,-2.62 1,-0.39 2.01,-0.78 2.97,-1.25 1.24,-0.6 2.13,-1.66 2.93,-2.74 0.78,-1.05 1.35,-2.25 1.94,-3.4 0.55,-1.1 1.12,-2.18 1.82,-3.18 0.24,-0.29 0.49,-0.57 0.76,-0.82 0.13,0.04 0.26,0.09 0.38,0.14 1.37,0.62 2.69,1.36 4.13,1.83 0.84,0.27 1.72,0.34 2.59,0.21 0.92,-0.14 1.64,-0.63 2.33,-1.22 0.88,-0.76 1.66,-1.63 2.39,-2.53 0.8,-0.99 1.54,-2.03 2.22,-3.11 1.05,-1.69 1.92,-3.52 2.55,-5.42 0.12,0.04 0.24,0.1 0.37,0.14 0.34,0.11 0.71,0.17 1.06,0.25 -0.16,0.3 -0.32,0.6 -0.45,0.92 -0.6,1.55 -0.56,3.27 -0.24,4.87 0.25,1.24 0.77,2.39 1.42,3.46 -5.37,2.34 -10.33,5.43 -14.97,9 -5.06,3.88 -9.64,8.39 -13.74,13.27 -8.15,9.7 -14.59,21.15 -17.65,33.51 -0.81,3.25 -1.33,6.59 -1.57,9.93 -0.04,0.59 0.36,1.21 0.86,1.5 0.7,0.39 1.49,0.25 2.07,-0.26 1.04,-0.93 1.95,-2 2.83,-3.08 1.2,-1.47 2.33,-3.01 3.45,-4.54 2.56,-3.53 5.06,-7.12 7.73,-10.57 2.59,-3.33 5.34,-6.64 8.7,-9.23 0.92,-0.66 1.88,-1.25 2.93,-1.69 0.52,-0.19 1.06,-0.34 1.61,-0.43 0.4,-0.03 0.8,-0.03 1.2,0.01 0.33,0.06 0.66,0.15 0.98,0.26 0.42,0.19 0.81,0.43 1.19,0.69 0.08,0.06 0.15,0.13 0.23,0.19 0.48,0.4 1.04,0.62 1.66,0.46 0.6,-0.16 1.08,-0.63 1.24,-1.23 0.26,-0.94 0.57,-1.86 0.94,-2.76 0.54,-1.19 1.18,-2.31 1.95,-3.37 1.77,-2.2 4.04,-3.86 6.2,-5.66 1.13,-0.93 2.18,-1.95 3.12,-3.07 0.98,-1.19 1.79,-2.46 2.46,-3.82 1.26,-0.04 2.48,-0.33 3.63,-0.91 0.56,-0.29 1.06,-0.71 1.51,-1.16 -2.84,27.91 -6.76,55.71 -9.31,83.64 -0.57,6.28 -1.04,12.56 -1.5,18.85 -0.23,3.16 -0.53,6.31 -0.79,9.46 -0.28,3.32 -0.46,6.65 -0.2,9.97 0,0.47 0.11,0.9 0.34,1.3 0.34,0.61 0.93,1.07 1.6,1.26 0.7,0.12 1.42,0.04 2.01,-0.29 z m 25.07,-56.01 c -1.89,0.2 -3.78,0.41 -5.67,0.62 -2.7,0.3 -5.39,0.47 -8.12,0.33 -1.23,-0.09 -2.45,-0.26 -3.67,-0.49 -1.19,-0.22 -2.37,-0.54 -3.55,-0.81 0.53,-5.92 1.09,-11.84 1.7,-17.75 1.34,0.37 2.79,0.48 4.14,0.57 1.94,0.13 3.88,0.08 5.82,-0.14 1.92,-0.2 3.83,-0.62 5.69,-1.15 1.04,-0.3 2.05,-0.67 3.04,-1.09 0.22,4.71 0.38,9.43 0.49,14.14 0.06,1.93 0.1,3.85 0.13,5.77 z m -0.79,-23.69 c -1.83,0.84 -3.74,1.47 -5.71,1.92 -2.72,0.54 -5.47,0.74 -8.24,0.61 -0.84,-0.06 -1.68,-0.16 -2.52,-0.27 -0.56,-0.08 -1.12,-0.16 -1.67,-0.23 0.65,-6.18 1.31,-12.35 1.99,-18.52 0.02,0.01 0.04,0.03 0.06,0.04 0.38,0.19 0.77,0.31 1.17,0.42 0.3,0.09 0.64,0.11 0.95,0.14 0.56,0.05 1.11,0.08 1.67,0.07 1.72,-0.02 3.46,-0.39 5.12,-0.78 1.98,-0.47 3.92,-1.17 5.77,-2.06 0.37,3.84 0.69,7.68 0.97,11.53 0.17,2.36 0.31,4.75 0.44,7.13 z m -2.73,-30.99 c 0.3,2.5 0.55,5.01 0.81,7.51 -0.14,0.08 -0.27,0.17 -0.41,0.24 -1.72,0.85 -3.52,1.47 -5.39,1.9 -2.02,0.4 -4.03,0.52 -6.09,0.43 -0.27,-0.02 -0.55,-0.03 -0.83,-0.04 -0.36,-0.02 -0.71,0.04 -1.05,0.12 1.23,-11.33 2.42,-22.66 3.43,-34 0.01,-0.07 0.01,-0.14 0,-0.2 0,-0.05 -0.03,-0.09 -0.04,-0.13 0.7,-0.09 1.4,-0.22 2.07,-0.4 1.12,-0.29 2.25,-0.76 3.21,-1.41 0.09,-0.06 0.17,-0.15 0.26,-0.22 1.65,8.68 2.96,17.42 4.03,26.2 z m 4.51,-30.43 c 1.57,0.25 3.08,0.69 4.56,1.26 2.58,1.11 4.97,2.58 7.21,4.28 3.33,2.64 6.27,5.73 8.85,9.1 2.3,3.16 4.28,6.53 5.77,10.13 0.68,1.76 1.23,3.56 1.61,5.4 -0.24,-0.06 -0.49,-0.11 -0.74,-0.17 -2.14,-0.45 -4.33,-0.65 -6.52,-0.72 -2.25,-0.07 -4.51,0.05 -6.77,0.28 0.03,-0.15 0.06,-0.3 0.09,-0.45 0.15,-0.83 0.24,-1.67 0.15,-2.51 -0.05,-0.47 -0.11,-0.93 -0.22,-1.39 -0.11,-0.44 -0.31,-0.86 -0.49,-1.28 -0.54,-1.28 -1.65,-2.24 -2.72,-3.05 -0.58,-0.44 -1.2,-0.81 -1.79,-1.22 -0.07,-0.07 -0.14,-0.13 -0.21,-0.2 -0.16,-0.28 -0.3,-0.57 -0.45,-0.85 -0.31,-0.58 -0.63,-1.15 -0.96,-1.72 -0.87,-1.5 -1.81,-2.94 -2.82,-4.33 -1.14,-1.57 -2.35,-3.08 -3.75,-4.41 -0.67,-0.62 -1.39,-1.17 -2.13,-1.7 -0.15,-0.11 -0.3,-0.2 -0.45,-0.3 0.03,-1.4 0.07,-2.81 0.24,-4.2 0.11,-0.69 0.24,-1.37 0.41,-2.05 0.36,0.03 0.75,0.06 1.13,0.1 z m 18.8,-23.61 c 3.63,0.24 7.18,1.03 10.65,2.13 6.66,2.23 12.9,5.56 18.77,9.39 2.51,1.67 4.97,3.43 7.34,5.3 0.51,0.39 1.01,0.79 1.51,1.2 -1.63,0.34 -3.23,0.87 -4.79,1.43 -2.28,0.82 -4.51,1.78 -6.75,2.68 -1.11,0.45 -2.24,0.88 -3.37,1.27 -0.86,-3.12 -2.54,-5.99 -3.32,-9.15 -0.01,-0.08 -0.03,-0.17 -0.04,-0.25 -0.03,-0.47 -0.18,-0.89 -0.44,-1.28 -0.39,-0.58 -1.01,-1 -1.7,-1.13 -1.2,-0.22 -2.32,0.41 -2.87,1.46 -0.05,0.09 -0.09,0.17 -0.14,0.25 -0.73,1.01 -1.62,1.89 -2.49,2.79 -0.14,0.14 -0.28,0.29 -0.41,0.44 -0.62,-0.81 -1.29,-1.59 -2,-2.34 -1.48,-1.53 -3.34,-2.76 -5.39,-3.35 -1.79,-0.51 -3.73,-0.35 -5.44,0.36 -1.32,0.54 -2.46,1.37 -3.46,2.35 -1.68,-1.93 -3.49,-3.76 -5.21,-5.66 -0.66,-0.76 -1.3,-1.54 -1.91,-2.34 -0.24,-0.31 -0.52,-0.57 -0.83,-0.78 -0.21,-0.67 -0.48,-1.31 -0.8,-1.93 0.42,-0.25 0.84,-0.49 1.27,-0.71 1.61,-0.75 3.28,-1.31 5.01,-1.7 2.24,-0.4 4.52,-0.53 6.81,-0.43 z m -23.83,-0.11 c 0.39,0.07 0.78,0.17 1.15,0.3 0.41,0.19 0.79,0.41 1.15,0.67 0.07,0.52 0.3,1.02 0.71,1.39 0.51,0.45 0.99,0.93 1.43,1.46 0.39,0.57 0.73,1.18 1.01,1.81 0.16,0.46 0.28,0.93 0.37,1.41 0.03,0.44 0.03,0.87 0,1.31 -0.09,0.49 -0.23,0.97 -0.39,1.45 -0.22,0.45 -0.47,0.88 -0.75,1.3 -0.36,0.42 -0.74,0.8 -1.16,1.16 -0.46,0.31 -0.94,0.58 -1.44,0.81 -0.51,0.17 -1.03,0.3 -1.56,0.4 -0.59,0.05 -1.18,0.04 -1.77,-0.02 -0.85,-0.16 -1.66,-0.4 -2.46,-0.71 -0.63,-0.3 -1.23,-0.63 -1.8,-1.03 -0.39,-0.33 -0.74,-0.69 -1.07,-1.07 -0.23,-0.34 -0.43,-0.69 -0.6,-1.06 -0.14,-0.41 -0.25,-0.83 -0.33,-1.25 -0.04,-0.49 -0.03,-0.97 0.01,-1.46 0.1,-0.59 0.26,-1.17 0.47,-1.74 0.33,-0.74 0.72,-1.44 1.19,-2.1 0.52,-0.64 1.1,-1.22 1.76,-1.74 0.51,-0.35 1.03,-0.65 1.59,-0.9 0.47,-0.17 0.96,-0.3 1.45,-0.38 0.34,-0.03 0.69,-0.03 1.04,-0.01 z m -7.54,-6.33 c 0.05,-0.07 0.11,-0.14 0.16,-0.21 -0.03,0.04 -0.05,0.07 -0.08,0.11 2.47,-3.12 5.24,-5.99 8.12,-8.72 3.49,-3.31 7.19,-6.42 11.02,-9.32 3.12,-2.34 6.34,-4.54 9.68,-6.56 3.15,-1.9 6.42,-3.62 9.84,-5 2.2,-0.85 4.47,-1.55 6.81,-1.89 1.09,-0.12 2.18,-0.15 3.27,-0.03 0.6,0.1 1.18,0.25 1.75,0.45 0.42,0.2 0.83,0.43 1.21,0.69 0.35,0.3 0.67,0.63 0.96,0.98 0.33,0.49 0.61,1 0.84,1.54 0.33,0.9 0.53,1.84 0.67,2.79 0.18,1.67 0.15,3.35 0.01,5.02 -1.06,-0.03 -2.12,-0.14 -3.17,-0.27 -2.27,-0.32 -4.52,-0.73 -6.8,-1.04 -2.04,-0.28 -4.13,-0.41 -6.16,0.04 -1.94,0.44 -3.67,1.71 -4.53,3.52 -0.71,1.49 -0.91,3.11 -0.87,4.73 -0.06,-0.01 -0.12,-0.02 -0.19,-0.02 -1.17,-0.15 -2.4,0.02 -3.55,0.24 -1.27,0.24 -2.48,0.72 -3.66,1.22 -1.32,0.56 -2.57,1.26 -3.79,2.02 -2.52,1.56 -4.91,3.33 -7.3,5.1 -1.12,0.82 -2.27,1.59 -3.39,2.42 -1.08,0.8 -2.16,1.62 -3.23,2.43 -0.49,0.37 -0.99,0.74 -1.5,1.1 -0.59,0.42 -1.03,0.85 -1.22,1.57 -0.01,0.02 -0.01,0.05 -0.01,0.07 -0.51,0.11 -1.01,0.25 -1.49,0.44 -2,0.79 -3.72,2.11 -5.06,3.75 -0.33,-0.88 -0.81,-1.7 -1.37,-2.46 0.8,-1.62 1.82,-3.12 2.91,-4.55 -0.03,0.03 -0.05,0.06 -0.08,0.09 0.07,-0.09 0.14,-0.17 0.2,-0.25 z m -19.38,10.7 c -0.06,-0.6 -0.06,-1.2 0,-1.8 0.11,-0.74 0.3,-1.45 0.57,-2.14 0.23,-0.5 0.51,-0.97 0.82,-1.42 0.36,-0.45 0.77,-0.85 1.21,-1.22 0.43,-0.3 0.88,-0.56 1.36,-0.77 0.5,-0.18 1,-0.3 1.53,-0.38 0.57,-0.05 1.15,-0.04 1.72,0.02 0,0 0.01,0 0.01,0 0.61,0.55 1.22,1.11 1.81,1.7 0.19,0.2 0.42,0.34 0.66,0.46 0.16,0.17 0.34,0.33 0.55,0.48 0.02,0.02 0.05,0.04 0.07,0.05 0.52,0.43 1,0.91 1.43,1.43 0.29,0.42 0.54,0.86 0.75,1.32 0.14,0.41 0.25,0.83 0.32,1.26 0.03,0.43 0.02,0.86 -0.01,1.3 -0.09,0.46 -0.2,0.9 -0.36,1.34 -0.22,0.46 -0.47,0.89 -0.76,1.31 -0.31,0.35 -0.64,0.68 -0.99,0.99 -0.46,0.32 -0.95,0.6 -1.46,0.83 -0.6,0.21 -1.22,0.36 -1.85,0.46 -0.71,0.06 -1.4,0.06 -2.11,-0.01 -0.61,-0.11 -1.2,-0.26 -1.79,-0.47 -0.46,-0.21 -0.89,-0.46 -1.31,-0.75 -0.37,-0.31 -0.7,-0.65 -1,-1.02 -0.28,-0.41 -0.51,-0.83 -0.72,-1.27 -0.21,-0.54 -0.36,-1.11 -0.45,-1.7 z m -13.7,19.61 c 0,0 -0.01,0 -0.01,0 0,0.01 0,0 0.01,0 0,0 0,0 0,0 z m 12.75,-10.21 c -0.81,1.86 -1.82,3.6 -3.01,5.22 -0.92,1.15 -1.92,2.22 -3.03,3.17 -0.02,0.01 -0.04,0.03 -0.07,0.04 -0.01,0 -0.01,0 -0.02,0 -0.08,0 -0.16,0 -0.24,-0.01 -0.39,-0.08 -0.76,-0.2 -1.13,-0.35 -1.27,-0.58 -2.47,-1.28 -3.78,-1.79 -0.53,-0.21 -1.16,-0.32 -1.72,-0.27 -0.45,0.04 -0.89,0.11 -1.3,0.35 -0.43,0.24 -0.82,0.59 -1.2,0.91 -0.63,0.56 -1.14,1.29 -1.62,1.97 -0.51,0.75 -0.94,1.57 -1.36,2.38 -0.73,1.4 -1.39,2.84 -2.31,4.14 -0.26,0.31 -0.53,0.59 -0.83,0.85 -0.59,0.4 -1.24,0.69 -1.89,0.99 -1.01,0.47 -2.04,0.88 -3.07,1.29 0.16,-0.06 0.31,-0.12 0.47,-0.18 -2.25,0.89 -4.49,1.74 -6.77,2.51 -0.97,0.33 -1.96,0.65 -2.94,0.96 -0.62,0.19 -1.32,0.31 -1.87,0.65 -0.52,0.31 -1,0.68 -1.48,1.03 -0.8,0.58 -1.61,1.17 -2.41,1.76 -0.78,0.58 -1.57,1.17 -2.36,1.73 -0.29,0.21 -0.59,0.43 -0.9,0.63 -0.14,-0.09 -0.27,-0.18 -0.4,-0.28 -0.76,-0.6 -1.5,-1.23 -2.34,-1.73 -1.08,-0.65 -2.34,-0.91 -3.58,-0.57 -0.78,0.21 -1.55,0.55 -2.31,0.84 -0.77,0.3 -1.52,0.62 -2.28,0.95 -1.69,0.75 -3.32,1.6 -4.92,2.5 -4.92,2.73 -9.55,5.95 -14.36,8.86 0.82,-1.6 1.72,-3.15 2.66,-4.67 1.75,-2.85 3.68,-5.59 5.73,-8.24 5.86,-7.5 12.65,-14.3 20.22,-20.06 5.21,-3.91 10.8,-7.34 16.84,-9.8 3.51,-1.38 7.14,-2.42 10.88,-2.91 2.66,-0.31 5.32,-0.33 7.98,0.02 2.17,0.32 4.29,0.9 6.33,1.71 1.06,0.45 2.07,0.98 3.06,1.55 0.2,0.29 0.39,0.57 0.61,0.85 0.37,0.47 0.81,0.88 1.28,1.26 -0.18,0.61 -0.34,1.19 -0.56,1.74 z m 9.33,6.06 c -0.2,-0.55 -0.36,-1.1 -0.46,-1.67 -0.03,-0.36 -0.03,-0.72 0,-1.08 0.05,-0.25 0.11,-0.49 0.19,-0.73 0.1,-0.2 0.22,-0.4 0.35,-0.59 0.16,-0.18 0.34,-0.35 0.52,-0.51 0.31,-0.2 0.63,-0.37 0.96,-0.52 0.51,-0.17 1.02,-0.28 1.55,-0.36 0.78,-0.07 1.55,-0.06 2.33,-0.01 0.17,0.01 0.34,-0.01 0.5,-0.04 0.27,0.09 0.54,0.18 0.81,0.28 0.87,0.4 1.69,0.89 2.46,1.45 0.75,0.63 1.44,1.32 2.05,2.09 0.44,0.63 0.82,1.28 1.12,1.98 0.14,0.41 0.25,0.83 0.32,1.25 0.01,0.25 0.01,0.5 0,0.75 -0.04,0.19 -0.09,0.37 -0.15,0.56 -0.08,0.17 -0.18,0.33 -0.28,0.48 -0.17,0.18 -0.35,0.36 -0.53,0.52 -0.38,0.25 -0.77,0.46 -1.18,0.65 -0.78,0.28 -1.58,0.47 -2.39,0.6 -0.61,0.05 -1.22,0.04 -1.84,-0.01 -0.62,-0.11 -1.22,-0.27 -1.82,-0.49 -0.63,-0.3 -1.23,-0.65 -1.8,-1.06 -0.61,-0.5 -1.17,-1.07 -1.66,-1.69 -0.4,-0.58 -0.75,-1.19 -1.05,-1.85 z m -46.95,64.19 c 0,0 0,0 0,0 0.06,-0.07 0.11,-0.14 0.17,-0.21 -0.06,0.07 -0.12,0.14 -0.17,0.21 z m 42,-40.01 c -2,2.47 -4.6,4.26 -6.92,6.4 -1.3,1.2 -2.43,2.57 -3.38,4.07 -0.75,1.17 -1.33,2.44 -1.8,3.76 -0.57,-0.27 -1.17,-0.48 -1.81,-0.59 -1.51,-0.28 -3.04,-0.1 -4.47,0.42 -1.59,0.57 -3,1.46 -4.35,2.46 -1.49,1.13 -2.85,2.43 -4.14,3.78 -2.95,3.1 -5.54,6.54 -8.07,10 -2.37,3.23 -4.63,6.54 -7.08,9.71 0.84,-4.65 2.22,-9.17 3.99,-13.55 2.95,-7.03 6.88,-13.61 11.53,-19.65 4.75,-6.06 10.2,-11.56 16.34,-16.22 4.38,-3.26 9.09,-6.08 14.12,-8.22 1.31,1.3 2.89,2.32 4.61,2.96 0,0.03 0.01,0.05 0.01,0.08 0.17,1.7 0.23,3.4 0.05,5.1 -0.12,0.72 -0.28,1.42 -0.53,2.11 -0.16,0.34 -0.34,0.66 -0.55,0.96 -0.18,0.21 -0.37,0.4 -0.57,0.57 -0.23,0.15 -0.46,0.29 -0.71,0.4 -0.3,0.1 -0.61,0.17 -0.93,0.23 -0.45,0.04 -0.89,0.03 -1.35,0.01 -0.34,0 -0.66,0.08 -0.95,0.24 -0.49,0.28 -0.72,0.67 -0.92,1.18 -0.03,0.06 -0.05,0.12 -0.07,0.18 -0.54,1.29 -1.22,2.48 -2.05,3.61 z m 5.92,71.34 c 0.06,-0.79 0.14,-1.57 0.21,-2.36 0.47,0.17 0.94,0.33 1.42,0.47 1.06,0.32 2.16,0.5 3.26,0.65 2.18,0.29 4.41,0.26 6.6,0.12 3.41,-0.22 6.77,-0.82 10.15,-1.27 0,0.86 0.02,1.73 0.01,2.59 -0.04,4.12 -0.04,8.23 -0.1,12.35 -0.02,1.12 -0.05,2.24 -0.07,3.36 -1.2,0.4 -2.41,0.75 -3.65,1.04 -2.7,0.53 -5.4,0.84 -8.15,0.75 -1.75,-0.14 -3.47,-0.44 -5.17,-0.88 -0.91,-0.24 -1.82,-0.53 -2.72,-0.82 -0.93,-0.29 -1.91,-0.55 -2.89,-0.52 0.31,-5.17 0.67,-10.33 1.1,-15.48 z"
         id="path490" />
    </g>
  </g>
</svg>
