<?xml version="1.0" encoding="UTF-8" standalone="no"?>
<svg
   xmlns:dc="http://purl.org/dc/elements/1.1/"
   xmlns:cc="http://creativecommons.org/ns#"
   xmlns:rdf="http://www.w3.org/1999/02/22-rdf-syntax-ns#"
   xmlns:svg="http://www.w3.org/2000/svg"
   xmlns="http://www.w3.org/2000/svg"
   id="svg708"
   version="1.1"
   viewBox="0 0 30.56907 51.486224"
   height="51.486217mm"
   width="30.569069mm">
  <defs
     id="defs702" />
  <metadata
     id="metadata705">
    <rdf:RDF>
      <cc:Work
         rdf:about="">
        <dc:format>image/svg+xml</dc:format>
        <dc:type
           rdf:resource="http://purl.org/dc/dcmitype/StillImage" />
        <dc:title></dc:title>
      </cc:Work>
    </rdf:RDF>
  </metadata>
  <g
     transform="translate(236.21316,-119.78019)"
     id="layer1">
    <g
       transform="matrix(0.26458333,0,0,0.26458333,-362.04194,-244.25208)"
       className="wand"
       style="fill:#c0c0c0"
       id="g458">
      <path
         d="m 557.35,1448.96 c 0.14,-0.3 0.29,-0.58 0.47,-0.85 0.28,-0.32 0.58,-0.62 0.9,-0.9 0.6,-0.41 1.23,-0.75 1.89,-1.05 1.97,-0.75 4.03,-1.14 6.12,-1.43 3.46,-0.41 6.94,-0.57 10.4,-0.93 3.34,-0.33 6.78,-0.8 9.76,-2.44 0.81,-0.45 1.3,-1.36 1.3,-2.25 0,-0.87 -0.49,-1.88 -1.3,-2.27 -3.4,-1.59 -7.02,-2.69 -10.59,-3.82 -4.1,-1.3 -8.21,-2.56 -12.19,-4.19 -2.04,-0.87 -4.03,-1.83 -5.83,-3.13 -0.46,-0.38 -0.9,-0.79 -1.29,-1.24 -0.34,-0.48 -0.62,-0.98 -0.87,-1.52 -0.41,-1.11 -0.68,-2.25 -0.86,-3.43 -0.52,-4.38 -0.06,-8.82 0.51,-13.15 0.58,-4.08 1.3,-8.13 1.99,-12.19 0.61,-3.67 1.27,-7.41 1.27,-11.14 0,-0.78 -0.42,-1.5 -1.08,-1.89 -0.32,-0.19 -0.73,-0.29 -1.14,-0.29 -0.58,0 -1.16,0.2 -1.52,0.64 -5,6.1 -9.96,12.21 -14.42,18.73 -3.8,5.58 -7.18,11.41 -9.98,17.55 -10.52,-1.87 -20.61,-5.58 -31.08,-7.7 -1.14,-0.23 -2.3,0.13 -2.91,1.19 -0.25,0.4 -0.36,0.84 -0.36,1.3 0,0.75 0.32,1.27 0.75,1.82 2.64,3.31 5.85,6.17 8.89,9.09 3.46,3.32 6.93,6.66 9.9,10.43 1.06,1.41 2.03,2.87 2.77,4.48 0.24,0.64 0.43,1.3 0.57,1.97 0.06,0.7 0.06,1.39 -0.02,2.09 -0.25,1.33 -0.65,2.61 -1.14,3.87 -2.06,4.8 -4.99,9.16 -7.9,13.49 -1.39,2.08 -2.79,4.16 -4.15,6.26 -0.59,0.92 -1.16,1.85 -1.71,2.78 -0.52,0.88 -1.06,1.76 -1.47,2.69 -0.29,0.49 -0.45,1.04 -0.45,1.62 0,0.59 0.16,1.13 0.45,1.63 0.72,1.26 2.24,1.86 3.64,1.49 3.12,-0.84 6.06,-2.33 8.92,-3.82 3.06,-1.58 6.07,-3.25 9.22,-4.63 -2.34,10.74 -4.32,21.56 -6.38,32.35 -1.14,5.91 -2.31,11.82 -3.6,17.71 -0.62,2.82 -1.27,5.64 -1.95,8.46 -0.53,2.21 -1.11,4.39 -1.85,6.56 -1.4,4.18 -3.02,8.28 -4.22,12.53 -0.53,1.95 -0.95,3.93 -1.16,5.95 -0.12,0.97 -0.16,1.95 -0.14,2.93 0.01,1.07 0.23,2.11 0.43,3.14 0.58,2.77 1.03,5.59 2.6,8.01 1.72,2.63 4.76,3.83 7.7,4.44 1.6,0.33 3.24,0.45 4.87,0.56 0.98,0.07 2.02,-0.9 2.18,-1.84 1.4,-8.47 2.73,-16.94 4,-25.44 1.29,-8.56 2.54,-17.13 3.9,-25.68 1.36,-8.56 2.82,-17.11 4.48,-25.61 1.47,-7.45 3.11,-14.9 5.05,-22.25 0.73,0.52 1.46,1.05 2.17,1.59 2.89,2.27 5.66,4.7 8.46,7.1 2.57,2.23 5.16,4.47 7.98,6.39 1.39,0.95 3.53,-0.3 3.41,-1.95 -0.26,-4.23 -1.43,-8.4 -2.47,-12.49 -1.19,-4.74 -2.43,-9.5 -3.11,-14.35 -0.22,-1.83 -0.36,-3.68 -0.18,-5.52 0.1,-0.51 0.21,-0.98 0.37,-1.45 z m -25.87,41.96 c -1.69,8.5 -3.17,17.04 -4.55,25.6 -2.63,16.32 -4.88,32.72 -7.87,48.99 -1.29,-0.18 -2.57,-0.43 -3.82,-0.84 -0.53,-0.22 -1.03,-0.46 -1.5,-0.75 -0.3,-0.23 -0.58,-0.48 -0.85,-0.75 -0.22,-0.29 -0.42,-0.6 -0.6,-0.91 -0.88,-2.05 -1.19,-4.34 -1.6,-6.52 -0.16,-1.07 -0.17,-2.14 -0.11,-3.23 0.29,-2.74 1,-5.42 1.81,-8.05 0.9,-2.91 1.98,-5.74 3.01,-8.6 0.42,-1.2 0.84,-2.4 1.23,-3.61 0.51,-1.58 0.88,-3.19 1.29,-4.81 1.04,-4.21 1.98,-8.44 2.88,-12.69 3.44,-16.2 6.08,-32.56 9.7,-48.72 0.35,-0.06 0.7,-0.13 1.05,-0.19 0.53,-0.06 1.04,-0.06 1.56,-0.03 0.78,0.14 1.53,0.37 2.26,0.66 0.52,0.24 1.03,0.51 1.53,0.78 -2,7.83 -3.83,15.72 -5.42,23.67 z m 21.24,-33.95 c 0.4,2.86 1.06,5.69 1.72,8.5 0.69,2.89 1.46,5.75 2.17,8.64 0.25,1.01 0.5,2.03 0.72,3.04 -0.37,-0.33 -0.74,-0.67 -1.1,-1.01 -1.97,-1.79 -3.9,-3.61 -5.88,-5.38 -2.04,-1.84 -4.12,-3.61 -6.29,-5.28 -1.98,-1.52 -4.02,-2.95 -6.26,-4.03 -0.95,-0.48 -1.97,-0.87 -3.01,-1.17 -1.14,-0.32 -2.37,-0.4 -3.57,-0.51 -1.33,-0.1 -2.73,0.19 -4.03,0.48 -1.32,0.29 -2.59,0.75 -3.83,1.23 -3.44,1.33 -6.69,3.09 -9.97,4.78 0.04,-0.06 0.07,-0.11 0.11,-0.17 1.89,-2.89 3.82,-5.77 5.62,-8.73 1.76,-2.91 3.35,-5.88 4.63,-9.03 0.49,-1.23 0.88,-2.5 1.14,-3.8 0.32,-1.53 0.39,-3.02 0.17,-4.58 -0.17,-1.27 -0.62,-2.46 -1.16,-3.64 -0.61,-1.34 -1.36,-2.62 -2.2,-3.84 -1.94,-2.82 -4.28,-5.36 -6.68,-7.8 -2.47,-2.51 -5.07,-4.91 -7.65,-7.34 -0.15,-0.14 -0.29,-0.28 -0.44,-0.42 7.58,1.93 15.05,4.3 22.75,5.68 0.29,0.45 0.73,0.78 1.24,0.92 0.53,0.16 1.14,0.07 1.62,-0.2 0.11,-0.07 0.21,-0.14 0.3,-0.22 0.07,0.01 0.15,0.02 0.22,0.03 0.71,0.1 1.29,0.13 1.94,-0.25 0.55,-0.33 0.97,-0.88 1.14,-1.5 0.19,-0.65 0.09,-1.34 -0.25,-1.92 -0.22,-0.35 -0.48,-0.64 -0.82,-0.86 4.15,-8.76 9.58,-16.86 15.48,-24.53 1.11,-1.43 2.24,-2.86 3.38,-4.26 -0.9,5.96 -2.1,11.86 -2.87,17.85 -0.42,3.19 -0.69,6.4 -0.61,9.63 0.07,2.76 0.49,5.56 1.62,8.11 0.48,1.07 1.07,1.98 1.82,2.88 0.82,1 1.94,1.78 3.01,2.49 2.54,1.68 5.49,2.82 8.33,3.9 3.86,1.48 7.82,2.65 11.74,3.96 -5.19,0.56 -10.46,0.65 -15.53,1.96 -2.4,0.62 -4.71,1.68 -6.53,3.38 -0.69,0.65 -1.3,1.49 -1.69,2.37 -0.49,1.1 -0.71,2.23 -0.84,3.43 -0.26,2.38 0,4.81 0.34,7.21 z"
         id="path448" />
      <path
         d="m 574.34,1411.19 c 5.12,-4.91 10.49,-9.54 16,-14.02 0.51,-0.42 0.77,-1.23 0.77,-1.85 0,-0.69 -0.27,-1.37 -0.77,-1.85 -0.49,-0.49 -1.16,-0.77 -1.85,-0.77 -0.77,0 -1.27,0.32 -1.85,0.77 -5.61,4.35 -11,8.98 -16.14,13.88 -1.07,1.03 -1.03,2.82 0,3.84 1.06,1.05 2.77,1.02 3.84,0 z"
         id="path450" />
      <path
         d="m 520.28,1393.82 c 0.81,0.93 2.34,0.82 3.17,0 0.91,-0.9 0.81,-2.24 0,-3.17 -4.36,-4.97 -8.82,-9.93 -13.98,-14.12 -0.49,-0.39 -0.95,-0.66 -1.6,-0.66 -0.59,0 -1.19,0.25 -1.6,0.66 -0.82,0.82 -0.95,2.41 0,3.22 5.1,4.27 9.62,9.1 14.01,14.07 z"
         id="path452" />
      <path
         d="m 497.71,1442.12 c -2.89,-0.77 -5.85,-1.16 -8.8,-1.16 -3.79,0 -7.58,0.64 -11.21,1.92 -1.49,0.53 -2.46,1.97 -2.02,3.57 0.4,1.47 2.07,2.52 3.57,2.02 1.86,-0.6 3.76,-1.06 5.69,-1.36 2.58,-0.29 5.16,-0.29 7.75,0.02 1.16,0.19 2.3,0.44 3.43,0.74 1.58,0.43 3.25,-0.51 3.69,-2.08 0.42,-1.55 -0.52,-3.25 -2.1,-3.67 z"
         id="path454" />
      <path
         d="m 576.86,1458.62 c -0.47,-0.45 -1.08,-0.68 -1.68,-0.68 -0.6,0 -1.2,0.22 -1.65,0.68 -0.9,0.9 -0.93,2.44 0,3.34 4.57,4.44 9,9 13.22,13.77 0.87,0.98 2.49,0.88 3.37,0 0.95,-0.95 0.85,-2.38 0,-3.35 -4.24,-4.77 -8.69,-9.32 -13.26,-13.76 z"
         id="path456" />
    </g>
  </g>
</svg>
